<svg width="78" height="117" viewBox="0 0 78 117" fill="none" xmlns="http://www.w3.org/2000/svg">
<path d="M26.6109 5.64206C25.4009 2.28906 30.3377 -1.11794 33.7442 0.35106C36.1797 3.03906 37.6647 5.69205 37.8767 9.44905C38.3847 13.7616 38.4742 16.4391 38.2107 20.8151L44.9207 19.2066L46.0462 19.3251C47.5102 19.5236 49.3407 19.2055 50.4212 18.1425C50.9822 18.7731 59.8402 24.3926 61.1092 24.8091L63.3637 24.0111C66.2227 26.6536 71.3902 30.9306 68.7732 34.7666C67.1057 35.8206 65.2982 35.5896 63.3112 35.8811C55.6197 42.9881 50.6687 51.809 50.5802 62.3535C50.4732 75.1575 53.2732 89.6286 67.9507 91.7866L69.0027 91.9026C70.0042 95.0066 65.1142 100.991 63.2147 103.481C66.9762 104.317 73.1167 105.579 73.2027 110.3C68.9037 118.369 28.7532 117.198 20.5094 114.965C17.6634 114.849 10.6659 113.334 9.53905 110.467C9.94895 108.967 9.82825 109.408 11.2254 108.272C8.10085 105.759 -1.13705 95.8855 0.261099 91.769L1.4218 91.4471C14.4481 88.105 17.7106 80.0836 19.5888 67.6471C20.7688 59.8331 18.462 52.8656 15.6118 45.6186C12.6321 41.5711 9.6335 36.3176 4.66845 35.5285C2.75565 35.2341 0.67925 35.24 0 33.272C1.13985 29.0105 5.9877 23.9681 9.7093 21.7946C17.814 17.0611 25.6392 18.9916 33.9787 21.0386C32.9927 13.2301 31.9527 11.4301 26.6109 5.64206Z" fill="#FDD783"/>
<path d="M26.6109 5.64206C25.4009 2.28906 30.3377 -1.11794 33.7442 0.35106C36.1797 3.03906 37.6647 5.69205 37.8767 9.44905C38.3847 13.7616 38.4742 16.4391 38.2107 20.8151L44.9207 19.2066L46.0462 19.3251C47.5102 19.5236 49.3407 19.2055 50.4212 18.1425C50.9822 18.7731 59.8402 24.3926 61.1092 24.8091L63.3637 24.0111C66.2227 26.6536 71.3902 30.9306 68.7732 34.7666C67.1057 35.8206 65.2982 35.5896 63.3112 35.8811C57.8427 36.3226 55.0777 38.4651 50.2562 39.9611C40.6642 42.9366 25.5222 42.7691 16.4942 38.1261C11.7529 36.0941 9.79 35.7266 4.66845 35.5285C2.75565 35.2341 0.67925 35.24 0 33.272C1.13985 29.0105 5.9877 23.9681 9.7093 21.7946C17.814 17.0611 25.6392 18.9916 33.9787 21.0386C32.9927 13.2301 31.9527 11.4301 26.6109 5.64206Z" fill="#E1060A"/>
<path d="M4.66845 35.5285C2.75565 35.234 0.67925 35.24 0 33.272C1.13985 29.0105 5.9877 23.968 9.7093 21.7945C17.814 17.061 25.6392 18.9915 33.9787 21.0385L34.0347 23.1495L33.7307 24.2325L30.3537 24.6895C30.9932 25.7535 32.5817 26.0605 33.8177 26.373C34.5472 27.967 34.9797 29.285 36.8242 29.8405C33.1202 31.1245 30.2682 33.7805 26.358 35.331C23.2992 36.5435 18.471 35.803 16.6959 37.3645L16.4942 38.126C11.7529 36.094 9.79 35.7265 4.66845 35.5285Z" fill="#F22314"/>
<path d="M16.7671 22.0859C18.5124 22.2854 19.9651 22.7869 21.3514 23.8439C22.8502 27.5029 14.6491 32.3009 11.9293 33.2634C9.44667 32.8059 6.78217 32.4839 4.27002 32.1349C4.71932 31.2759 5.19847 30.4324 5.70652 29.6064C8.41487 25.2899 11.8978 23.1594 16.7671 22.0859Z" fill="#DF6612"/>
<path d="M26.6111 5.64206C25.401 2.28906 30.3378 -1.11794 33.7443 0.35106C36.1798 3.03906 37.6648 5.69205 37.8768 9.44905C35.6038 10.1491 35.9798 9.66556 34.7463 11.3011C35.1068 16.4241 35.0008 17.9316 34.0348 23.1496L33.9788 21.0386C32.9928 13.2301 31.9528 11.4301 26.6111 5.64206Z" fill="#95460B"/>
<path d="M33.7443 0.351074C36.1798 3.03907 37.6648 5.69207 37.8768 9.44907C35.6038 10.1491 35.9798 9.66557 34.7463 11.3011C34.1353 10.0746 33.4373 6.03508 32.5498 3.95258C32.7968 2.38758 33.1263 1.76307 33.7443 0.351074Z" fill="#582003"/>
<path d="M26.6111 5.64206C25.401 2.28906 30.3378 -1.11794 33.7443 0.35106C33.1263 1.76306 32.7968 2.38756 32.5498 3.95256C30.8803 4.45506 27.7553 4.98206 26.6111 5.64206Z" fill="#9F4107"/>
<path d="M34.746 11.301C35.9795 9.66548 35.6035 10.149 37.8765 9.44897C38.3845 13.7615 38.474 16.439 38.2105 20.815L44.9205 19.2065C44.555 20.4655 44.237 21.763 43.6735 22.9385L44.6545 24.1265C40.0515 26.294 38.92 26.486 33.8175 26.373C32.5815 26.0605 30.993 25.7535 30.3535 24.6895L33.7305 24.2325L34.0345 23.1495C35.0005 17.9315 35.1065 16.424 34.746 11.301Z" fill="#431903"/>
<path d="M38.2108 20.815L44.9208 19.2065C44.5553 20.4655 44.2373 21.763 43.6738 22.9385C42.0253 24.1955 40.9068 24.9615 38.8063 24.629C37.8533 22.9965 38.1898 23.0035 38.2108 20.815Z" fill="#F22314"/>
<path d="M50.4213 18.1426C50.9823 18.7731 59.8403 24.3926 61.1093 24.8091C54.7373 26.8626 52.3993 23.8056 46.4823 24.5776L44.6548 24.1266L43.6738 22.9386C44.2373 21.7631 44.5553 20.4656 44.9208 19.2066L46.0463 19.3251C47.5103 19.5236 49.3408 19.2056 50.4213 18.1426Z" fill="#3A7103"/>
<path d="M44.6549 24.1265L46.4824 24.5775C44.6644 28.0175 41.5549 28.3775 37.7634 29.552L36.8244 29.8405C34.9799 29.285 34.5474 27.967 33.8179 26.373C38.9204 26.486 40.0519 26.294 44.6549 24.1265Z" fill="#F14C07"/>
<path d="M11.2255 108.272C8.10093 105.759 -1.13697 95.8855 0.261177 91.769L1.42188 91.447C9.35018 96.2995 15.0758 97.071 24.157 95.716C38.6853 94.3045 37.6003 96.2555 49.8073 97.1325C57.2498 96.7785 61.7708 96.004 67.9508 91.7865L69.0028 91.9025C70.0043 95.0065 65.1143 100.991 63.2148 103.481C66.9763 104.317 73.1168 105.579 73.2028 110.3C68.9038 118.369 28.7533 117.198 20.5095 114.965C17.6635 114.849 10.666 113.334 9.53913 110.467C9.94903 108.967 9.82833 109.408 11.2255 108.272Z" fill="#E1060A"/>
<path d="M67.9506 91.7866L69.0026 91.9026C70.0041 95.0066 65.1141 100.991 63.2146 103.481C66.9761 104.317 73.1166 105.579 73.2026 110.3C68.9036 118.369 28.7531 117.198 20.5093 114.965L22.7873 113.719C25.4487 114.333 26.7904 114.46 29.3766 113.705C30.2771 112.755 31.1226 112.975 31.6336 111.773C32.0921 110.694 32.6821 109.564 33.1991 108.504C34.7876 107.338 37.2446 108.243 39.7621 107.533C43.8881 106.369 47.7746 100.711 49.8071 97.1326C57.2496 96.7786 61.7706 96.0041 67.9506 91.7866Z" fill="#C12007"/>
<path d="M63.2146 103.481C66.9761 104.316 73.1166 105.578 73.2026 110.3C68.9036 118.368 28.7531 117.197 20.5093 114.964L22.7873 113.719C25.4487 114.333 26.7904 114.459 29.3766 113.704C30.6676 113.463 32.2191 112.898 33.4931 112.484L34.9901 111.953C43.5441 119.446 57.0051 109.933 63.2146 103.481Z" fill="#C2C1CD"/>
<path d="M33.4933 112.485C32.9918 110.473 32.9323 110.339 34.0588 108.756L34.9458 108.708C35.8063 110.095 35.4818 109.831 34.9903 111.954L33.4933 112.485Z" fill="#E1060A"/>
<path d="M11.2254 108.271C15.4571 111.251 17.705 112.447 22.7874 113.719L20.5094 114.965C17.6635 114.849 10.6659 113.334 9.53906 110.466C9.94896 108.967 9.82826 109.408 11.2254 108.271Z" fill="#C2C1CD"/>
<path d="M15.6119 45.6184C24.4728 47.3344 32.0233 46.8814 32.3098 59.1949C32.3263 59.8959 31.7803 60.1524 31.2853 60.4679C34.2193 64.1999 33.1523 66.3329 30.8388 70.0214C32.3833 71.2849 31.6653 71.2969 32.0753 73.2444C33.8813 81.8149 25.8108 89.3199 24.157 95.7159C15.0758 97.0709 9.35017 96.2994 1.42188 91.4469C14.4482 88.1049 17.7106 80.0834 19.5888 67.6469C20.7689 59.8329 18.4621 52.8654 15.6119 45.6184Z" fill="#FEE59E"/>
<path d="M31.2853 60.468C34.2193 64.2 33.1523 66.333 30.8388 70.0215C26.104 67.903 28.8038 63.1415 31.2853 60.468Z" fill="#7F3205"/>
<path d="M20.0439 75.0291C22.371 75.8561 23.9968 77.7261 25.7194 79.4516C23.7833 84.0771 22.7918 85.8891 19.2849 89.4556C18.8114 89.8616 18.2965 90.155 17.7683 90.493C17.3857 89.0715 16.9089 88.5776 15.6501 87.8456C15.0664 84.7041 18.7483 79.1511 20.0439 75.0291Z" fill="#F6F6CC"/>
<path d="M38.3803 61.1589C42.6228 61.9699 42.0263 67.2404 39.9123 70.1154C36.3868 67.8539 36.8803 64.4424 38.3803 61.1589Z" fill="#7F3205"/>
<path d="M74.4469 0.36706C76.2704 -0.0394401 75.5614 -0.116938 77.1739 0.529062C78.0054 1.78306 77.6814 3.54206 77.3484 4.93456C75.3524 13.2841 71.5994 20.5421 63.3639 24.0111L61.1094 24.8091C59.8404 24.3926 50.9824 18.7731 50.4214 18.1426C49.3409 19.2056 47.5104 19.5236 46.0464 19.3251L44.9209 19.2066C45.2449 16.0811 46.3929 13.0976 48.2479 10.5616C54.4619 2.01256 65.3754 1.84306 74.4469 0.36706Z" fill="#4B8F0A"/>
<path d="M44.9209 19.2065C45.2449 16.081 46.3929 13.0974 48.2479 10.5614C54.4619 2.01245 65.3754 1.84294 74.4469 0.366943C73.7029 4.48644 68.4734 7.91545 64.8184 9.70145C63.4674 11.9439 57.6664 13.8115 54.3014 16.237C53.2489 16.7695 51.8204 17.4384 50.8489 18.0244L50.4214 18.1424C49.3409 19.2054 47.5104 19.5235 46.0464 19.325L44.9209 19.2065Z" fill="#68A30D"/>
<path d="M64.8184 9.70142C63.4674 11.9439 57.6664 13.8114 54.3014 16.2369C53.2489 16.7694 51.8204 17.4384 50.8489 18.0244L50.4214 18.1424C49.3409 19.2054 47.5104 19.5234 46.0464 19.3249C53.3724 14.4564 56.5909 13.0324 64.8184 9.70142Z" fill="#1F5303"/>
<path d="M54.3011 16.2371C55.4031 16.8031 55.9831 16.7941 57.2096 16.7596C55.4941 18.2831 53.0101 19.1791 50.8486 18.0246C51.8201 17.4386 53.2486 16.7696 54.3011 16.2371Z" fill="#4C9613"/>
<path d="M62.6078 60.6496C63.6778 60.6926 64.5313 61.5576 64.5593 62.6281C64.5878 63.6986 63.7808 64.6076 62.7148 64.7066C61.9593 64.7771 61.2273 64.4206 60.8163 63.7826C60.4058 63.1446 60.3843 62.3311 60.7608 61.6721C61.1373 61.0136 61.8493 60.6191 62.6078 60.6496Z" fill="#FEE59E"/>
<path d="M5.40878 60.6805C6.39078 60.3495 7.46273 60.8245 7.87713 61.774C8.29153 62.724 7.91068 63.833 7.00018 64.328C6.33698 64.688 5.52728 64.644 4.90733 64.2135C4.28738 63.783 3.96313 63.0395 4.06918 62.2925C4.17523 61.545 4.69353 60.9215 5.40878 60.6805Z" fill="#FEE59E"/>
</svg>
