<svg width="94" height="89" viewBox="0 0 94 89" fill="none" xmlns="http://www.w3.org/2000/svg">
<path d="M58.8481 25.8664C61.3141 23.8474 63.5866 21.6249 66.8171 21.2194C71.7656 20.5984 76.9106 19.6109 81.8356 19.0244C81.6241 24.4069 82.4366 27.7974 83.3926 32.9384C83.5511 33.7914 82.0631 35.3859 81.3271 35.8779C82.1396 38.9769 82.3686 38.5814 80.3041 41.2254C83.5611 42.3304 90.3061 45.0954 93.0256 47.1354C92.6886 48.3304 92.5926 49.0754 91.7821 50.0154C88.2156 53.0254 86.4556 56.6904 84.3791 58.1804L81.9431 59.0904L82.0926 60.5204C84.3911 62.4604 84.4476 63.1354 85.3441 65.9204C86.2621 68.7704 90.0791 71.7004 88.9596 74.5404C87.2771 78.6454 78.8471 79.0554 75.9656 81.3104C73.4196 81.6304 64.0356 81.0954 60.9936 80.9854C60.7696 82.7054 59.9436 86.8704 58.8881 88.1854C57.0846 88.7954 56.6276 88.3854 54.8841 87.4354C50.9026 88.0304 45.5261 86.4554 41.4031 86.1804C41.2441 86.1704 39.9861 84.3854 39.2691 84.3854C33.0251 84.3904 26.4326 86.1504 20.1926 85.6354C18.6851 84.9654 18.4706 84.5754 17.4961 83.3204C18.2416 78.0454 23.0281 74.8554 23.7866 70.6254C24.2416 70.0654 26.0986 68.8704 26.7976 68.3854C27.6356 67.7104 28.8546 64.0804 29.3346 62.8504C31.0796 61.2204 32.2701 60.6054 34.5481 60.1154L38.7676 58.5104C39.1836 58.4354 41.1971 57.7204 41.7261 57.5454L42.3431 56.4154C42.5291 54.1204 42.4051 51.8754 42.3281 49.5804C44.2171 49.3404 44.1226 49.0404 45.5376 49.7654L45.6786 50.5604L46.3376 51.0704L46.3656 49.3404C50.5936 46.9054 51.7521 46.0304 54.6376 42.1254C55.8906 42.7554 57.0206 43.3604 58.3551 43.8154C59.3891 42.7004 59.8091 42.0804 60.6561 40.8354C60.4356 38.4154 60.3631 38.0254 59.1656 35.9329C59.3906 33.0089 59.3621 31.8819 58.4761 29.1049L57.3396 26.7924L57.8221 25.7539L58.8481 25.8664Z" fill="#DF6E14"/>
<path d="M58.8481 25.8664C61.3141 23.8474 63.5866 21.6249 66.8171 21.2194C71.7656 20.5984 76.9106 19.6109 81.8356 19.0244C81.6241 24.4069 82.4366 27.7974 83.3926 32.9384C83.5511 33.7914 82.0631 35.3859 81.3271 35.8779C82.1396 38.9769 82.3686 38.5814 80.3041 41.2254C83.5611 42.3304 90.3061 45.0954 93.0256 47.1354C92.6886 48.3304 92.5926 49.0754 91.7821 50.0154C88.2156 53.0254 86.4556 56.6904 84.3791 58.1804L81.9431 59.0904C79.7386 57.7704 79.1926 57.4254 77.3961 55.6154L74.1696 52.6004C72.7551 51.8654 71.0176 51.2554 69.5101 50.6754L68.4841 49.7854C61.9446 50.3504 56.0771 54.2554 50.5611 57.0604L50.3101 57.5104L47.6521 57.9504L46.4866 57.0954C45.7601 57.1504 44.4611 57.2004 43.8041 57.3904C43.1286 57.3004 42.8471 56.9004 42.3431 56.4154C42.5291 54.1204 42.4051 51.8754 42.3281 49.5804C44.2171 49.3404 44.1226 49.0404 45.5376 49.7654L45.6786 50.5604L46.3376 51.0704L46.3656 49.3404C50.5936 46.9054 51.7521 46.0304 54.6376 42.1254C55.8906 42.7554 57.0206 43.3604 58.3551 43.8154C59.3891 42.7004 59.8091 42.0804 60.6561 40.8354C60.4356 38.4154 60.3631 38.0254 59.1656 35.9329C59.3906 33.0089 59.3621 31.8819 58.4761 29.1049L57.3396 26.7924L57.8221 25.7539L58.8481 25.8664Z" fill="#7F3205"/>
<path d="M58.8479 25.8664C61.3139 23.8474 63.5863 21.6249 66.8168 21.2194C71.7653 20.5984 76.9104 19.6109 81.8354 19.0244C81.6239 24.4069 82.4363 27.7974 83.3923 32.9384C83.5508 33.7914 82.0629 35.3859 81.3269 35.8779C80.0794 34.1589 77.2244 34.6999 75.4254 35.2409L67.4544 35.7569C71.2319 31.8104 75.3778 27.7369 78.0518 22.9989C75.8904 24.9404 69.2919 32.3424 67.6584 33.2019C67.3839 32.0599 67.1314 30.9129 66.9014 29.7609C65.2479 28.9944 62.9739 28.5514 61.2019 29.1784L58.4759 29.1049L57.3394 26.7924L57.8219 25.7539L58.8479 25.8664Z" fill="#C35D0B"/>
<path d="M79.7402 41.6706L80.3042 41.2256C83.5612 42.3306 90.3063 45.0956 93.0258 47.1356C92.6888 48.3306 92.5928 49.0756 91.7823 50.0156C88.2158 53.0256 86.4558 56.6906 84.3793 58.1806L81.9433 59.0906C79.7388 57.7706 79.1928 57.4256 77.3963 55.6156L74.1698 52.6006C72.7553 51.8656 71.0178 51.2556 69.5103 50.6756C69.6648 48.1456 70.6763 45.0556 71.3808 42.5656C74.1348 40.9706 76.7972 40.3606 79.7402 41.6706Z" fill="#ED7F1F"/>
<path d="M83.9944 50.2804C86.2284 49.8854 89.5399 49.5804 91.7819 50.0154C88.2154 53.0254 86.4554 56.6904 84.3789 58.1804L81.9429 59.0904C79.7384 57.7704 79.1924 57.4254 77.3959 55.6154L74.1694 52.6004C75.5659 48.8704 79.6524 52.7254 83.9944 50.2804Z" fill="#DF6E14"/>
<path d="M77.396 55.6155C79.1155 55.1855 83.3315 56.9055 84.379 58.1805L81.943 59.0904C79.7385 57.7704 79.1925 57.4255 77.396 55.6155Z" fill="#C35D0B"/>
<path d="M71.3808 42.5656C74.1348 40.9706 76.7972 40.3606 79.7402 41.6706C77.6922 43.6306 75.1963 45.7806 73.8943 48.2806L73.1752 48.2456L73.3058 48.9006C77.3868 49.0756 79.9473 49.4306 83.9948 50.2806C79.6528 52.7256 75.5663 48.8706 74.1698 52.6006C72.7553 51.8656 71.0178 51.2556 69.5103 50.6756C69.6648 48.1456 70.6763 45.0556 71.3808 42.5656Z" fill="#C35D0B"/>
<path d="M73.8938 48.2805C77.4628 48.6855 81.0413 46.8205 82.7268 47.4305L83.0748 48.9805C84.8848 49.1555 89.2273 47.3355 93.0253 47.1355C92.6883 48.3305 92.5923 49.0755 91.7818 50.0155C89.5398 49.5805 86.2283 49.8855 83.9943 50.2805C79.9468 49.4305 77.3863 49.0755 73.3053 48.9005L73.1748 48.2455L73.8938 48.2805Z" fill="#DF6612"/>
<path d="M75.4253 35.241C77.2243 34.7 80.0793 34.1591 81.3268 35.8781C82.1393 38.9771 82.3683 38.5815 80.3038 41.2255L79.7398 41.6705C76.7968 40.3605 74.1343 40.9706 71.3803 42.5656C69.5903 42.4356 67.0888 42.4605 65.2363 42.4205C63.5838 42.0655 63.7768 42.3605 62.7368 41.3205C63.1118 39.755 65.1808 38.1796 66.4683 36.9906C69.1053 37.1046 72.5238 37.4561 74.9153 36.5011L75.4253 35.241Z" fill="#A94C0B"/>
<path d="M54.6376 42.1255C55.8906 42.7555 57.0206 43.3605 58.3551 43.8155C56.9061 44.0155 55.1116 43.3055 54.3876 44.0705C54.6516 45.2155 55.2011 45.5755 56.0496 46.4055C55.5966 48.8555 46.6031 54.0855 50.5611 57.0605L50.3101 57.5105L47.6521 57.9505L46.4866 57.0955C45.7601 57.1505 44.4611 57.2005 43.8041 57.3905C43.1286 57.3005 42.8471 56.9005 42.3431 56.4155C42.5291 54.1205 42.4051 51.8755 42.3281 49.5805C44.2171 49.3405 44.1226 49.0405 45.5376 49.7655L45.6786 50.5605L46.3376 51.0705L46.3656 49.3405C50.5936 46.9055 51.7521 46.0305 54.6376 42.1255Z" fill="#95460B"/>
<path d="M42.3281 49.5804C44.2171 49.3404 44.1226 49.0404 45.5376 49.7654L45.6786 50.5605L46.3376 51.0704C48.7491 52.9404 47.8891 54.6304 46.4866 57.0954C45.7601 57.1504 44.4611 57.2005 43.8041 57.3905C43.1286 57.3005 42.8471 56.9004 42.3431 56.4154C42.5291 54.1204 42.4051 51.8754 42.3281 49.5804Z" fill="#EFEEEF"/>
<path d="M43.8042 57.3906C44.5662 54.9056 43.9922 53.2705 45.6787 50.5605L46.3377 51.0705C48.7492 52.9405 47.8892 54.6305 46.4867 57.0955C45.7602 57.1505 44.4612 57.2006 43.8042 57.3906Z" fill="#DED3CD"/>
<path d="M61.2021 29.1784C62.9741 28.5514 65.2481 28.9944 66.9016 29.7609C63.7091 32.7999 68.2966 34.2784 62.0021 39.3904L60.6561 40.8354C60.4356 38.4154 60.3631 38.0254 59.1656 35.9329C59.3906 33.0089 59.3621 31.8819 58.4761 29.1049L61.2021 29.1784Z" fill="#C05309"/>
<path d="M58.4761 29.105L61.2021 29.1785L62.0021 39.3905L60.6561 40.8355C60.4356 38.4155 60.3631 38.0255 59.1656 35.933C59.3906 33.009 59.3621 31.882 58.4761 29.105Z" fill="#95460B"/>
<path d="M65.2364 42.4204C67.0889 42.4604 69.5904 42.4354 71.3804 42.5654C70.6759 45.0554 69.6644 48.1454 69.5099 50.6754L68.4839 49.7854C68.2884 49.2104 68.1644 49.1254 67.8059 48.6004C65.3559 47.8254 59.9714 48.1354 57.0864 48.1254L61.3174 43.8354C62.7949 43.8604 68.9919 44.0704 69.8279 43.3804C68.0614 42.6954 67.1049 42.6454 65.2364 42.4204Z" fill="#9F4107"/>
<path d="M82.0923 60.5204C84.3908 62.4604 84.4473 63.1354 85.3438 65.9204C86.2618 68.7704 90.0788 71.7004 88.9593 74.5404C87.2768 78.6454 78.8468 79.0554 75.9653 81.3104C73.4193 81.6304 64.0353 81.0954 60.9933 80.9854C60.5763 78.9954 60.5328 77.9704 60.4458 75.9254L62.0383 75.9604C63.5303 71.0554 62.1513 65.3904 63.6368 63.4054L64.8003 64.5954L67.0818 64.3104C71.0298 65.7354 68.9313 68.3054 71.3733 70.4954L71.8673 70.2554C71.8353 69.0904 71.7813 67.9204 71.7068 66.7554C74.7083 65.3304 77.8223 70.2604 80.3598 68.7554C79.0838 67.3654 73.1393 65.0904 71.0073 64.1554C73.3413 63.1654 75.2923 63.3504 76.6413 61.1854C78.0858 60.3304 80.3418 60.5254 82.0923 60.5204Z" fill="#DF6E14"/>
<path d="M74.2461 79.6206C76.9651 75.3356 84.1066 73.7456 88.9596 74.5406C87.2771 78.6456 78.8471 79.0556 75.9656 81.3106L74.2461 79.6206Z" fill="#C2C1CD"/>
<path d="M60.4458 75.9255L62.0383 75.9605C64.5488 77.7405 71.5388 79.7155 74.2458 79.6205L75.9653 81.3105C73.4193 81.6305 64.0353 81.0955 60.9933 80.9855C60.5763 78.9955 60.5328 77.9705 60.4458 75.9255Z" fill="#AEB1C9"/>
<path d="M64.8002 64.5955L67.0817 64.3105C66.0357 65.9955 67.1982 66.4155 65.3407 69.6155L65.5403 68.2855L64.4897 68.0206L64.8002 64.5955Z" fill="#C35D0B"/>
<path d="M68.4841 49.7854L69.5101 50.6754C71.0176 51.2554 72.7551 51.8654 74.1696 52.6004L77.3961 55.6154C79.1926 57.4254 79.7386 57.7704 81.9431 59.0904L82.0926 60.5204C80.3421 60.5254 78.0861 60.3304 76.6416 61.1854C74.0366 61.9504 66.8241 64.8504 65.0636 61.8854C65.5301 60.3604 67.1926 59.2554 68.4706 58.1954C68.3336 58.1954 61.8326 60.6904 60.9006 60.9754C56.5641 58.7454 55.1621 57.8154 50.3101 57.5104L50.5611 57.0604C56.0771 54.2554 61.9446 50.3504 68.4841 49.7854Z" fill="#DF6E14"/>
<path d="M47.6518 57.9505L50.3098 57.5105C55.1618 57.8155 56.5638 58.7455 60.9003 60.9755C61.8323 60.6905 68.3333 58.1955 68.4703 58.1955C67.1923 59.2555 65.5298 60.3605 65.0633 61.8855C66.8238 64.8505 74.0363 61.9505 76.6413 61.1855C75.2923 63.3505 73.3413 63.1655 71.0073 64.1555C73.1393 65.0905 79.0838 67.3655 80.3598 68.7555C77.8223 70.2605 74.7083 65.3305 71.7068 66.7555C71.7813 67.9205 71.8353 69.0905 71.8673 70.2555L71.3733 70.4955C68.9313 68.3055 71.0298 65.7355 67.0818 64.3105L64.8003 64.5955L63.6368 63.4055L62.5613 63.5455C60.1873 62.3505 53.8163 59.6555 51.4683 61.2655L51.4373 62.2855C49.8598 61.8005 48.8638 61.3205 47.3173 61.8555C45.7318 63.0455 45.4878 63.2255 44.4378 64.8955L44.6718 65.7805C47.3808 66.8855 50.1128 65.9255 52.0723 67.0905C50.4448 68.3055 47.4343 67.1605 45.4673 68.6855C46.1348 70.7405 52.8968 71.4305 55.2748 72.0405C53.9638 72.8905 48.7953 72.0755 46.9998 71.8405C50.4463 75.0155 51.5978 76.0805 54.0653 80.2005C52.4058 78.8155 50.2633 76.7405 48.2733 76.1505L47.7433 76.5005L47.4978 78.0005L46.9433 77.8305C47.3673 72.9405 47.5148 73.4855 44.0713 69.1605C43.0813 70.6905 42.1633 72.5155 40.5253 73.2055L39.8013 72.8805C39.9543 71.3405 41.5843 69.6355 42.8163 68.8255L44.1243 69.1105L44.5328 68.5705C44.2623 66.4405 44.1893 64.1005 43.7698 62.1105C45.1703 59.9005 47.3118 60.2205 49.6083 60.3305L49.7508 59.9155L47.6518 57.9505Z" fill="#9F4107"/>
<path d="M38.4734 77.1555C42.4649 87.1705 45.4399 83.6305 54.8839 87.4355C50.9024 88.0305 45.5259 86.4555 41.4029 86.1805C41.2439 86.1705 39.9859 84.3856 39.2689 84.3856C33.0249 84.3906 26.4324 86.1506 20.1924 85.6356C21.3619 84.6306 23.0304 83.6705 24.3704 82.8405C30.5994 80.4805 33.5894 81.0105 38.4734 77.1555Z" fill="#C2C1CD"/>
<path d="M26.7976 68.3855C27.0986 71.1855 28.5681 76.4905 28.2326 77.9205C26.9226 79.2055 24.2551 79.2555 22.3251 79.5055L22.7336 81.9155C23.3166 82.2755 23.7351 82.5755 24.3706 82.8405C23.0306 83.6705 21.3621 84.6305 20.1926 85.6355C18.6851 84.9655 18.4706 84.5755 17.4961 83.3205C18.2416 78.0455 23.0281 74.8555 23.7866 70.6255C24.2416 70.0655 26.0986 68.8705 26.7976 68.3855Z" fill="#F38B2D"/>
<path d="M22.3251 79.5054L22.7336 81.9153C23.3166 82.2753 23.7351 82.5753 24.3706 82.8403C23.0306 83.6703 21.3621 84.6304 20.1926 85.6354C18.6851 84.9654 18.4706 84.5754 17.4961 83.3204C19.4236 81.4304 20.0071 80.8604 22.3251 79.5054Z" fill="#C05309"/>
<path d="M51.4375 62.2854L51.4685 61.2654C53.8165 59.6554 60.1875 62.3504 62.5615 63.5454L63.637 63.4054C62.1515 65.3904 63.5305 71.0554 62.0385 75.9604L60.446 75.9254C60.638 70.6554 59.2945 70.4304 55.618 66.8304C54.251 65.4904 52.725 63.7404 51.4375 62.2854Z" fill="#C05309"/>
<path d="M43.7701 62.1104C44.1896 64.1004 44.2626 66.4404 44.5331 68.5704L44.1246 69.1104L42.8166 68.8254L42.5631 67.6003C41.5596 66.6803 38.6451 66.2703 36.7666 65.5953C37.8766 64.8103 39.4296 64.6904 40.8221 64.4354L43.7701 62.1104Z" fill="#7F3205"/>
<path d="M36.7668 65.5953C35.4983 64.9503 35.3368 64.8503 34.3843 63.7953L34.5518 62.7803C37.1833 61.7703 38.5823 63.0953 40.8223 64.4353C39.4298 64.6903 37.8768 64.8103 36.7668 65.5953Z" fill="#9F4107"/>
<path d="M28.3234 25.7335C29.4294 22.1375 27.2489 13.868 30.4529 10.472L33.3539 10.262C34.3254 9.05752 33.9845 6.7795 34.508 6.6315C37.4225 5.807 40.9054 0.946 43.0824 0C47.7469 0.301 53.455 10.4215 53.422 10.4175C61.9085 11.452 56.8369 22.735 58.8479 25.8665L57.8219 25.754L57.3395 26.7925L58.476 29.105C59.362 31.882 59.3905 33.009 59.1655 35.933C60.363 38.0255 60.4354 38.4155 60.6559 40.8355C59.8089 42.0805 59.389 42.7005 58.355 43.8155C57.0205 43.3605 55.8905 42.7555 54.6375 42.1255C51.752 46.0305 50.5935 46.9055 46.3655 49.3405L46.3375 51.0705L45.6785 50.5605L45.5374 49.7655C44.1224 49.0405 44.2169 49.3405 42.3279 49.5805C40.4264 48.7255 39.1524 47.1455 36.8819 46.9855C35.3359 47.2405 34.642 48.4105 33.627 49.6455L33.1285 48.6655L31.754 48.6955L31.8485 49.2455C26.72 49.3155 29.407 52.0505 23.7515 47.4605C19.792 47.4555 17.5054 47.7505 13.6514 48.4555C11.0949 45.7455 8.31395 43.3955 7.30845 39.8575C7.72745 38.021 7.58195 38.5725 9.03445 37.0905C9.12745 36.553 6.29045 26.37 7.55545 22.912C9.42545 22.3995 9.32045 22.6055 11.0439 22.615C18.2024 22.6545 22.1334 20.8455 28.3234 25.7335Z" fill="#ED7F1F"/>
<path d="M7.55545 22.9119C9.42545 22.3994 9.32045 22.6054 11.0439 22.6149C18.2024 22.6544 22.1334 20.8454 28.3234 25.7334C31.4109 28.6554 32.3735 28.9399 35.937 31.0869C37.012 32.9404 38.2379 34.6474 38.2779 36.7854C35.6579 39.4579 34.521 41.2954 30.461 40.3304L29.6415 40.8454L29.8635 43.6854C31.445 45.3354 32.754 46.3654 33.1285 48.6654L31.754 48.6954L31.8485 49.2454C26.72 49.3154 29.407 52.0504 23.7515 47.4604C19.792 47.4554 17.5054 47.7504 13.6514 48.4554C11.0949 45.7454 8.31395 43.3954 7.30845 39.8574C7.72745 38.0209 7.58195 38.5724 9.03445 37.0904C9.12745 36.5529 6.29045 26.3699 7.55545 22.9119Z" fill="#B06513"/>
<path d="M19.7646 35.769C21.0701 36.8915 22.5546 37.8795 23.0041 39.4805C22.3986 41.7955 20.4106 42.3255 18.3046 43.2805L18.9676 42.9455L19.5356 43.6155C22.4826 43.7255 23.8726 43.5205 26.7516 43.1255C28.5166 44.9755 30.1821 46.6655 31.7541 48.6955L31.8486 49.2455C26.7201 49.3155 29.4071 52.0505 23.7516 47.4605C19.7921 47.4555 17.5056 47.7505 13.6516 48.4555C11.0951 45.7455 8.31409 43.3955 7.30859 39.8575C7.72759 38.021 7.58209 38.5725 9.03459 37.0905C12.1721 37.8465 16.5956 36.599 19.7646 35.769Z" fill="#B06513"/>
<path d="M7.55545 22.9121C8.63045 26.8871 9.72195 26.9621 13.3964 29.1196C16.4964 31.5256 17.32 32.6856 19.7645 35.7691C16.5955 36.5991 12.1719 37.8466 9.03445 37.0906C9.12745 36.5531 6.29045 26.3701 7.55545 22.9121Z" fill="#C28318"/>
<path d="M13.3965 29.1194C18.214 29.1714 18.24 32.8339 21.0985 34.6889L21.769 34.2504C22.099 32.6799 22.4025 31.1044 22.6795 29.5239L23.173 29.5299C25.568 32.9339 21.5005 35.2979 26.382 39.5804C27.3755 41.4154 28.361 42.2254 29.8635 43.6854C31.445 45.3354 32.754 46.3654 33.1285 48.6654L31.754 48.6954C30.182 46.6654 28.5165 44.9754 26.7515 43.1254C23.8725 43.5204 22.4825 43.7254 19.5355 43.6154L18.9675 42.9454L18.3045 43.2804C20.4105 42.3254 22.3985 41.7954 23.004 39.4804C22.5545 37.8794 21.07 36.8914 19.7645 35.7689C17.32 32.6854 16.4965 31.5254 13.3965 29.1194Z" fill="#694608"/>
<path d="M26.3818 39.5805C27.1278 38.218 27.8048 36.55 29.0858 35.8645C30.0153 37.7095 29.2048 39.2305 29.6413 40.8455L29.8633 43.6855C28.3608 42.2255 27.3753 41.4155 26.3818 39.5805Z" fill="#7F5010"/>
<path d="M57.3393 26.7925L58.4758 29.105C59.3618 31.882 59.3903 33.009 59.1653 35.933C60.3628 38.0255 60.4353 38.4155 60.6558 40.8355C59.8088 42.0805 59.3888 42.7005 58.3548 43.8155C57.0203 43.3605 55.8903 42.7555 54.6373 42.1255C51.7518 46.0305 50.5933 46.9055 46.3653 49.3405C44.3973 48.0705 44.8413 46.8505 44.9123 44.6455C44.8928 42.9955 44.5163 36.3325 45.1938 34.7305C45.3358 34.3945 46.1323 34.853 46.8858 33.499L46.2383 32.152C48.7378 30.483 48.8293 30.274 51.8398 29.529C53.5133 28.841 55.6853 27.6425 57.3393 26.7925Z" fill="#F38B2D"/>
<path d="M59.1656 35.9331C60.3631 38.0256 60.4356 38.4156 60.6561 40.8356C59.8091 42.0806 59.3891 42.7006 58.3551 43.8156C57.0206 43.3606 55.8906 42.7556 54.6376 42.1256L54.8736 40.8706C54.0586 40.2056 53.8236 40.1056 53.3931 39.1816C54.7491 37.1261 56.0211 39.7131 58.9206 36.2306L59.1656 35.9331Z" fill="#A94C0B"/>
<path d="M46.2383 32.152C48.7378 30.483 48.8293 30.2741 51.8398 29.5291C47.9243 33.7506 46.1288 39.07 44.9123 44.6455C44.8928 42.9955 44.5163 36.3325 45.1938 34.7305C45.3358 34.3945 46.1323 34.8531 46.8858 33.4991L46.2383 32.152Z" fill="#C35D0B"/>
<path d="M42.6286 22.792C42.9161 25.704 42.9921 28.454 43.0911 31.372C44.1701 28.469 44.3306 27.3245 44.7931 24.325C44.7231 26.31 44.2726 30.765 45.3451 32.101L46.2386 32.152L46.8861 33.499C46.1326 34.853 45.3361 34.3945 45.1941 34.7305C44.5166 36.3325 44.8931 42.9955 44.9126 44.6455C44.8416 46.8505 44.3976 48.0705 46.3656 49.3405L46.3376 51.0705L45.6786 50.5605L45.5376 49.7655C44.1226 49.0405 44.2171 49.3405 42.3281 49.5805C40.4266 48.7255 39.1526 47.1455 36.8821 46.9855C35.3361 47.2405 34.6421 48.4105 33.6271 49.6455L33.1286 48.6655C32.7541 46.3655 31.4451 45.3355 29.8636 43.6855L29.6416 40.8455L30.4611 40.3305C34.5211 41.2955 35.6581 39.458 38.2781 36.7855C39.1476 37.947 39.5326 38.6935 40.9371 39.1405L41.7721 38.6585C42.5496 36.849 42.3806 34.2825 42.3956 32.252C39.2966 30.8045 37.4741 28.9395 35.3651 26.3545L35.4806 25.9095C38.4156 27.026 40.4166 29.3405 41.8651 29.4955C42.6351 28.27 42.3526 24.9375 42.6286 22.792Z" fill="#95460B"/>
<path d="M43.5135 5.81006C44.7015 10.0631 44.6545 16.9811 44.635 21.4736C46.58 22.5146 48.499 20.1016 49.3565 21.3356C47.7075 22.8431 46.783 23.2641 44.793 24.3251C44.3305 27.3246 44.17 28.4691 43.091 31.3721C42.992 28.4541 42.916 25.7041 42.6285 22.7921C40.826 21.2881 37.129 18.0236 36.395 15.8366L36.8125 15.4481C39.226 17.1546 40.637 20.1596 42.4015 20.7711C43.014 19.0511 42.8645 9.78956 43.5135 5.81006Z" fill="#9F4107"/>
<path d="M48.3033 14.6299L49.4908 14.8999C49.3728 16.4149 48.6197 16.6999 47.3522 18.0619L46.7722 17.7459L46.6147 16.7154L48.3033 14.6299Z" fill="#C05309"/>
<path d="M13.6515 48.4555C17.5055 47.7505 19.792 47.4555 23.7515 47.4605C29.407 52.0505 26.72 49.3155 31.8485 49.2455C32.872 50.7205 33.8765 51.6455 34.0015 53.2455C32.7985 54.3105 30.359 54.2055 28.6365 54.2955C31.401 55.3755 37.417 56.7655 38.7675 58.5105L34.548 60.1155C32.27 60.6055 31.0795 61.2205 29.3345 62.8505C28.8545 64.0805 27.6355 67.7105 26.7975 68.3855C26.0985 68.8705 24.2415 70.0655 23.7865 70.6255C12.565 73.5705 10.1765 69.2805 0 65.3205C2.562 61.3655 5.3605 59.4355 4.5585 54.7005C5.3795 52.3455 11.338 49.3105 13.6515 48.4555Z" fill="#C35D0B"/>
<path d="M4.5585 54.7004C6.9435 57.1004 5.865 58.9104 3.8975 61.0904C6.3515 61.9254 11.927 58.9954 15.548 58.3204L15.8925 59.3104C18.555 58.9254 16.9515 57.3254 22.1795 58.0004L22.398 58.9854L22.946 58.9454C23.8365 59.0704 24.0995 59.2604 24.816 58.9754L25.1905 60.1754C27.2585 60.4204 27.676 61.2304 29.3345 62.8504C28.8545 64.0804 27.6355 67.7104 26.7975 68.3854C26.0985 68.8704 24.2415 70.0654 23.7865 70.6254C12.565 73.5704 10.1765 69.2804 0 65.3204C2.562 61.3654 5.3605 59.4354 4.5585 54.7004Z" fill="#DF6612"/>
<path d="M15.8922 59.3106C18.5547 58.9256 16.9512 57.3256 22.1792 58.0006L22.3978 58.9856C17.2413 60.2606 18.6553 62.2806 14.7038 65.3456C15.2318 63.2256 15.9848 62.4655 17.3358 60.7155C14.9278 60.8355 7.61325 62.0605 6.86475 61.9605C10.1682 60.5105 12.2262 59.7706 15.8922 59.3106Z" fill="#9F4107"/>
<path d="M22.946 58.9456C23.8365 59.0706 24.0995 59.2605 24.816 58.9755L25.1905 60.1755C24.957 62.4255 25.077 63.7955 23.0745 65.0855C22.323 63.7705 23.2485 60.9906 22.946 58.9456Z" fill="#9F4107"/>
<path d="M22.1798 58.0004L22.8733 57.0804C22.8558 55.5904 21.1393 54.1354 19.9673 52.4554L20.6908 51.9803C23.1758 51.8403 26.2338 53.3403 28.6368 54.2953C31.4013 55.3753 37.4173 56.7654 38.7678 58.5104L34.5483 60.1153C32.2703 60.6053 31.0798 61.2203 29.3348 62.8503C27.6763 61.2303 27.2588 60.4203 25.1908 60.1753L24.8163 58.9753C24.0998 59.2603 23.8368 59.0704 22.9463 58.9454L22.3983 58.9853L22.1798 58.0004Z" fill="#7F3205"/>
<path d="M24.8159 58.9754C27.5289 57.6054 30.3924 57.5704 33.2914 58.3104C34.4054 59.2354 34.0779 58.7604 34.5479 60.1154C32.2699 60.6054 31.0794 61.2204 29.3344 62.8504C27.6759 61.2304 27.2584 60.4204 25.1904 60.1754L24.8159 58.9754Z" fill="#C05309"/>
<path d="M33.6267 49.6454C34.6417 48.4104 35.3357 47.2404 36.8817 46.9854C39.1522 47.1454 40.4262 48.7254 42.3277 49.5804C42.4047 51.8754 42.5287 54.1203 42.3427 56.4153L41.7257 57.5453C41.1967 57.7203 39.1832 58.4354 38.7672 58.5104C37.4167 56.7654 31.4007 55.3753 28.6362 54.2953C30.3587 54.2053 32.7982 54.3104 34.0012 53.2454C33.8762 51.6454 32.8717 50.7204 31.8482 49.2454L31.7537 48.6953L33.1282 48.6653L33.6267 49.6454Z" fill="#6D2B05"/>
<path d="M33.1282 48.6655L33.6267 49.6455C34.9002 52.9055 38.6512 55.9805 41.7257 57.5455C41.1967 57.7205 39.1832 58.4356 38.7672 58.5106C37.4167 56.7656 31.4007 55.3755 28.6362 54.2955C30.3587 54.2055 32.7982 54.3105 34.0012 53.2455C33.8762 51.6455 32.8717 50.7205 31.8482 49.2455L31.7537 48.6955L33.1282 48.6655Z" fill="#95460B"/>
<path d="M10.4417 77.6455C12.4782 77.8455 13.4772 78.0005 14.5787 79.8055C14.1032 81.1955 14.3942 80.6905 12.9842 81.7555C11.5307 81.6155 11.0352 81.6505 9.77366 80.8255C9.38516 79.1755 9.59116 79.5305 10.4417 77.6455Z" fill="#DED3CD"/>
<path d="M65.8909 7.67254C66.7894 7.18054 67.9168 7.51602 68.4008 8.41952C68.8848 9.32252 68.5388 10.447 67.6313 10.9225C66.7353 11.392 65.6283 11.052 65.1508 10.16C64.6733 9.26853 65.0034 8.15854 65.8909 7.67254Z" fill="#FEE59E"/>
</svg>
