<svg width="97" height="86" viewBox="0 0 97 86" fill="none" xmlns="http://www.w3.org/2000/svg">
<path d="M32.2625 41.0537L37.019 41.7007C37.718 41.8092 42.099 42.4142 42.5225 42.5822L42.7595 43.1932C46.4715 45.0507 50.136 43.8357 53.7735 42.5112C55.4505 41.7697 58.173 41.5677 60.041 41.3897C60.0485 41.6372 60.0785 44.3962 60.088 44.4232L61.267 45.1107C62.4285 45.8622 64.551 47.1547 65.5455 47.9682C73.356 50.6227 78.054 51.3622 86.0795 49.0202C87.755 48.5312 89.004 48.5582 90.663 49.1457C94.212 53.2932 91.635 55.8612 88.333 58.9567C91.201 59.1827 95.402 59.5462 96.106 63.1212C94.6695 67.9557 84.0765 68.3957 79.705 69.3582C83.5565 70.8417 86.949 71.9757 90.888 73.2212L93.074 74.9567C93.204 77.5182 95.758 80.3242 94.5875 81.1907C90.638 84.1157 82.2705 83.7892 77.5555 83.5657L69.358 82.6582C61.3525 83.0842 55.3385 80.6442 48.167 77.5172L45.8395 77.7052L45.0895 79.4542C43.6595 79.6292 40.3515 79.6997 39.437 80.0402L39.1165 80.0802C34.566 80.0892 22.4725 80.9242 19.031 79.6037C14.8575 79.6447 12.943 79.5922 8.84853 78.9537C4.80153 78.1167 -3.12398 75.0287 1.30752 69.7387C3.41902 68.6192 17.846 64.1012 20.169 63.6637L20.2395 62.7287C17.206 60.6597 13.3575 61.1767 8.47152 56.2642C7.28252 54.9307 6.84703 54.5962 6.47853 52.8377C7.03103 50.6632 6.78102 51.3547 8.46602 49.6482C17.1125 47.2367 20.394 54.5557 32.2085 45.6982L32.2625 41.0537Z" fill="#F9BF28"/>
<path d="M32.2626 41.0537L37.0191 41.7007C37.7181 41.8092 42.0991 42.4142 42.5226 42.5822L42.7596 43.1932C42.6946 44.2867 42.6206 46.4712 42.4346 47.4467L41.0881 48.2577L40.5131 50.4842C39.5476 52.7567 38.4926 55.4267 37.3926 57.6022C35.4026 60.5122 34.1216 62.6202 31.3046 64.8297C29.8121 65.9122 26.7461 68.2652 25.2476 69.0362C17.7291 72.3202 14.3471 72.7072 6.07862 72.8802C4.51412 72.2527 2.70912 70.7807 1.30762 69.7387C3.41912 68.6192 17.8461 64.1012 20.1691 63.6637L20.2396 62.7287C17.2061 60.6597 13.3576 61.1767 8.47162 56.2642C7.28262 54.9307 6.84712 54.5962 6.47862 52.8377C7.03112 50.6632 6.78112 51.3547 8.46612 49.6482C17.1126 47.2367 20.3941 54.5557 32.2086 45.6982L32.2626 41.0537Z" fill="#FBC551"/>
<path d="M32.2085 45.6982C31.4925 49.9742 29.583 49.3237 28.6695 51.6467C28.574 54.3957 27.23 56.1747 25.599 58.3382C24.1765 59.8817 22.8645 61.5702 20.9735 62.4227L20.7215 62.5397C20.561 62.6027 20.4 62.6657 20.2395 62.7287C17.206 60.6597 13.3575 61.1767 8.47151 56.2642C7.28251 54.9307 6.84702 54.5962 6.47852 52.8377C7.03102 50.6632 6.78101 51.3547 8.46601 49.6482C17.1125 47.2367 20.394 54.5557 32.2085 45.6982Z" fill="#E18A0E"/>
<path d="M32.2083 45.6982C31.4923 49.9742 29.5828 49.3237 28.6693 51.6467C21.9758 54.8832 17.3078 57.2897 10.2253 52.8542L8.46582 49.6482C17.1123 47.2367 20.3938 54.5557 32.2083 45.6982Z" fill="#F9BF28"/>
<path d="M8.47151 56.2642C7.28251 54.9307 6.84702 54.5962 6.47852 52.8377C7.03102 50.6632 6.78101 51.3547 8.46601 49.6482L10.2255 52.8542C9.71902 53.9872 9.21901 55.3022 8.47151 56.2642Z" fill="#694608"/>
<path d="M32.2625 41.0537L37.019 41.7007C37.718 41.8092 42.099 42.4142 42.5225 42.5822L42.7595 43.1932C42.6945 44.2867 42.6205 46.4712 42.4345 47.4467L41.088 48.2577L40.513 50.4842C37.8375 48.8227 34.961 47.2527 32.2085 45.6982L32.2625 41.0537Z" fill="#F6AF38"/>
<path d="M41.0879 48.2578C41.0074 45.9133 40.4519 43.8373 42.5224 42.5823L42.7594 43.1933C42.6944 44.2868 42.6204 46.4713 42.4344 47.4468L41.0879 48.2578Z" fill="#ED7F1F"/>
<path d="M25.5989 58.3381C27.6754 58.4316 28.1569 58.0931 29.5599 59.1116L29.3875 59.8712C25.5145 60.7922 25.9025 59.1781 22.437 63.1156C21.751 63.2876 20.8419 63.5431 20.1689 63.6636L20.2394 62.7286C20.3999 62.6656 20.561 62.6026 20.7215 62.5396L20.9734 62.4226C22.8644 61.5701 24.1764 59.8816 25.5989 58.3381Z" fill="#EEDD4F"/>
<path d="M60.088 44.4231L61.267 45.1106C62.4285 45.8621 64.551 47.1546 65.5455 47.9681C73.356 50.6226 78.054 51.3621 86.0795 49.0201C87.755 48.5311 89.004 48.5581 90.663 49.1456C94.212 53.2931 91.635 55.8611 88.333 58.9566C91.201 59.1826 95.402 59.5461 96.106 63.1211C94.6695 67.9556 84.0765 68.3956 79.705 69.3581C76.887 68.6141 74.1445 67.7326 71.8685 65.8566C67.122 61.7351 64.284 59.1056 61.8715 53.0591C61.1715 49.4336 58.348 48.1666 60.088 44.4231Z" fill="#E18A0E"/>
<path d="M88.3332 58.9565C91.2012 59.1825 95.4022 59.5461 96.1062 63.1211C94.6697 67.9556 84.0767 68.3956 79.7052 69.3581C76.8872 68.6141 74.1447 67.7326 71.8687 65.8566C79.6252 64.9741 81.8967 63.2475 88.3332 58.9565Z" fill="#C2C1CD"/>
<path d="M65.5454 47.968C73.3559 50.6225 78.0539 51.362 86.0794 49.02C87.7549 48.531 89.0039 48.558 90.6629 49.1455C88.6239 53.374 86.8204 54.3095 82.4399 56.157C76.8519 53.57 69.9864 55.4135 65.5454 47.968Z" fill="#FBC551"/>
<path d="M61.2671 45.1106C62.4286 45.8621 64.5511 47.1546 65.5456 47.9681C69.9866 55.4136 76.8521 53.5701 82.4401 56.1571C72.1696 59.6201 63.2136 56.4416 61.2671 45.1106Z" fill="#F6AF38"/>
<path d="M25.2475 69.036C29.02 68.8105 28.761 68.602 31.3095 71.63C32.1495 71.724 33.7835 71.8545 34.5395 72.0195L34.931 72.1155L35.898 71.796L39.7735 73.1715C41.8055 73.889 41.34 74.036 43.248 73.7L44.012 72.2025C44.2675 73.8415 44.2365 74.456 43.881 76.0615C44.69 77.342 44.291 76.8975 45.8395 77.705L45.0895 79.454C43.6595 79.629 40.3515 79.6995 39.437 80.04L39.1165 80.08C34.566 80.089 22.4725 80.924 19.031 79.6035C14.8575 79.6445 12.943 79.592 8.84853 78.9535C4.80153 78.1165 -3.12398 75.0285 1.30752 69.7385C2.70902 70.7805 4.51402 72.2525 6.07852 72.88C14.347 72.707 17.729 72.32 25.2475 69.036Z" fill="#F6AF38"/>
<path d="M44.0119 72.2026C44.2674 73.8416 44.2364 74.4561 43.8809 76.0616C44.6899 77.3421 44.2909 76.8976 45.8394 77.7051L45.0894 79.4541C43.6594 79.6291 40.3514 79.6996 39.4369 80.0401L39.1163 80.0801C36.5433 78.7086 34.0054 77.4846 31.7354 75.6521C32.1844 73.9241 33.2099 73.2287 34.5394 72.0197L34.9308 72.1156L35.8979 71.7961L39.7733 73.1716C41.8053 73.8891 41.3398 74.0361 43.2478 73.7001L44.0119 72.2026Z" fill="#DF6E14"/>
<path d="M35.8978 71.7961L39.7733 73.1716C39.2568 73.7836 38.6418 74.4287 38.0983 75.0262C36.4488 75.3757 37.0843 75.4526 35.6423 74.8636C34.9203 73.6641 34.8573 73.5096 34.9308 72.1156L35.8978 71.7961Z" fill="#A9A8B3"/>
<path d="M31.7357 75.6521C34.0057 77.4846 36.5437 78.7086 39.1167 80.0801C34.5662 80.0891 22.4727 80.9241 19.0312 79.6036C24.2087 78.3796 26.8067 77.3341 31.7357 75.6521Z" fill="#C2C1CD"/>
<path d="M1.30752 69.7385C2.70902 70.7805 4.51402 72.2525 6.07852 72.88C8.34502 75.601 7.19053 77.15 8.84853 78.9535C4.80153 78.1165 -3.12398 75.0285 1.30752 69.7385Z" fill="#ED7F1F"/>
<path d="M42.4346 47.4465C43.0746 48.4775 43.8151 49.3645 43.8051 50.5195C44.0681 51.7485 44.3861 53.546 44.7981 54.686C45.0086 56.013 45.1856 57.23 45.5076 58.5405C45.9291 59.839 46.6331 62.2775 47.2781 63.3485C47.9021 64.841 48.5041 66.3425 49.0836 67.8525C45.8871 68.157 46.0291 68.9585 43.5326 69.912L44.0121 72.2025L43.2481 73.7C41.3401 74.036 41.8056 73.889 39.7736 73.1715L35.8981 71.796L34.9311 72.1155L34.5396 72.0195C33.7836 71.8545 32.1496 71.724 31.3096 71.63C28.7611 68.602 29.0201 68.8105 25.2476 69.036C26.7461 68.265 29.8121 65.912 31.3046 64.8295C34.1216 62.62 35.4026 60.512 37.3926 57.602C38.4926 55.4265 39.5476 52.7565 40.5131 50.484L41.0881 48.2575L42.4346 47.4465Z" fill="#DF6E14"/>
<path d="M42.4346 47.4465C43.0746 48.4775 43.8151 49.3645 43.8051 50.5195C44.0681 51.7485 44.3861 53.546 44.7981 54.686C45.0086 56.013 45.1856 57.23 45.5076 58.5405C42.6766 57.8935 40.7046 58.634 37.3926 57.602C38.4926 55.4265 39.5476 52.7565 40.5131 50.484L41.0881 48.2575L42.4346 47.4465Z" fill="#C05309"/>
<path d="M39.6862 66.821C41.5872 67.8325 42.3997 68.115 43.5322 69.912L44.0117 72.2025L43.2477 73.7C41.3397 74.036 41.8052 73.889 39.7732 73.1715L35.8978 71.7961C35.4163 71.5936 35.3082 71.4321 34.8857 71.0796C35.7077 69.0791 37.5142 67.2375 39.6862 66.821Z" fill="#DF6612"/>
<path d="M25.2476 69.0361C26.7461 68.2651 29.8121 65.9121 31.3046 64.8296C32.3391 66.2056 33.9446 67.9261 33.9351 69.5446C32.9481 71.0851 33.1041 70.6871 31.3096 71.6301C28.7611 68.6021 29.0201 68.8106 25.2476 69.0361Z" fill="#B06513"/>
<path d="M47.278 63.3486C47.902 64.8411 48.504 66.3426 49.0835 67.8526C45.887 68.1571 46.029 68.9586 43.5325 69.9121C42.4 68.1151 41.5875 67.8326 39.6865 66.8211C40.047 66.8066 40.4075 66.7887 40.768 66.7672C44.532 66.5377 44.708 66.2241 47.278 63.3486Z" fill="#CFCED3"/>
<path d="M53.7736 42.5111C55.4506 41.7696 58.1731 41.5676 60.0411 41.3896C60.0486 41.6371 60.0786 44.3962 60.0881 44.4232C58.3481 48.1667 61.1716 49.4336 61.8716 53.0591L61.0611 53.2066L61.5316 54.6651C60.4581 56.2221 60.0101 56.0636 59.3241 58.0056L58.0561 58.6667C53.2201 53.5327 56.4396 48.3002 46.6976 50.5392C44.7326 50.9907 45.0426 52.9297 44.7981 54.6862C44.3861 53.5462 44.0681 51.7487 43.8051 50.5197C43.8151 49.3647 43.0746 48.4777 42.4346 47.4467C42.6206 46.4712 42.6946 44.2866 42.7596 43.1931C46.4716 45.0506 50.1361 43.8356 53.7736 42.5111Z" fill="#F09B2C"/>
<path d="M42.7596 43.1932C46.4716 45.0507 50.1361 43.8357 53.7736 42.5112L54.1616 43.0107L52.9986 43.6192C52.6961 46.0467 54.5951 45.9207 54.1631 49.9912C53.0806 48.6152 53.6336 48.9527 52.1211 48.5362C50.6446 49.0067 44.1041 50.3282 43.8051 50.5197C43.8151 49.3647 43.0746 48.4777 42.4346 47.4467C42.6206 46.4712 42.6946 44.2867 42.7596 43.1932Z" fill="#F38B2D"/>
<path d="M49.0837 67.8525C50.9632 70.857 53.7117 73.8275 56.3312 76.213C53.9502 76.492 49.8102 76.4391 48.1672 77.5171L45.8397 77.705C44.2912 76.8975 44.6902 77.3421 43.8812 76.0616C44.2367 74.4561 44.2677 73.8415 44.0122 72.2025L43.5327 69.912C46.0292 68.9585 45.8872 68.157 49.0837 67.8525Z" fill="#C2C1CD"/>
<path d="M56.331 76.2131C61.34 79.9831 63.3545 80.5481 69.358 82.6581C61.3525 83.0841 55.3385 80.6442 48.167 77.5172C49.81 76.4392 53.95 76.4921 56.331 76.2131Z" fill="#CFCED3"/>
<path d="M93.0742 74.9565C93.2042 77.518 95.7582 80.3241 94.5877 81.1906C90.6382 84.1156 82.2707 83.7891 77.5557 83.5656C80.5687 83.2936 85.4152 81.729 88.4837 80.8445C89.7262 80.415 90.4982 80.012 91.6512 79.429C92.8877 78.224 92.8567 76.7015 93.0742 74.9565Z" fill="#C2C1CD"/>
<path d="M90.8881 73.2212L93.0741 74.9567C92.8566 76.7017 92.8876 78.2242 91.6511 79.4292C90.4981 80.0122 89.7261 80.4152 88.4836 80.8447C87.1326 75.0282 89.4736 77.9872 90.8881 73.2212Z" fill="#C35D0B"/>
<path d="M58.0562 58.6666L59.3242 58.0056C59.6527 60.0211 64.3352 64.6741 65.2247 67.6421L64.5957 68.9941C62.3827 65.0396 59.9927 63.6946 58.0562 58.6666Z" fill="#F6AF38"/>
<path d="M65.2247 67.6421L66.7457 68.9296L66.7557 69.5681C65.6172 69.5356 65.5342 69.5736 64.5957 68.9941L65.2247 67.6421Z" fill="#E18A0E"/>
<path d="M49.2802 15.9231C56.8957 19.3686 57.9607 26.1766 58.8427 33.6776C59.0972 35.8406 59.0847 39.5421 60.0412 41.3896C58.1732 41.5676 55.4507 41.7696 53.7737 42.5111C50.1362 43.8356 46.4717 45.0506 42.7597 43.1931L42.5227 42.5821C42.0992 42.4141 37.7182 41.8091 37.0192 41.7006L32.2627 41.0536C32.5272 35.0261 32.5932 19.2586 40.1522 17.3911C41.4967 18.4416 43.8557 18.3166 45.5677 18.2386C47.2802 17.5291 47.8252 17.0446 49.2802 15.9231Z" fill="#F9BF28"/>
<path d="M32.2627 41.0536C32.5272 35.0261 32.5932 19.2586 40.1522 17.3911C41.4967 18.4416 43.8557 18.3166 45.5677 18.2386L45.7342 19.8976C43.7102 20.8536 43.4827 20.9696 43.7322 23.4476C42.9382 26.6511 43.3342 27.8706 42.8867 30.4626C41.8287 33.1576 43.5952 36.3996 41.9487 39.6281L41.7062 40.3361L41.6107 38.8906L40.8902 39.2711C40.6692 40.2286 40.5972 40.6011 39.9307 41.3326L37.0192 41.7006L32.2627 41.0536Z" fill="#FBC551"/>
<path d="M37.6875 23.3635L38.447 23.6385C39.1475 24.8475 37.3055 31.837 36.8695 33.9295C36.5755 33.8185 36.0805 33.463 35.793 33.2755C35.1275 29.7515 35.586 26.331 37.6875 23.3635Z" fill="#F6F6CC"/>
<path d="M43.7318 23.4477C43.4823 20.9697 43.7097 20.8537 45.7337 19.8977C51.2437 26.8797 52.8287 34.2512 50.5167 42.8532C46.3027 42.9887 44.0697 43.8822 41.9482 39.6282C43.5947 36.3997 41.8282 33.1577 42.8862 30.4627C43.3337 27.8707 42.9378 26.6512 43.7318 23.4477Z" fill="#FBC551"/>
<path d="M43.7322 23.4478L44.9532 25.4778C44.7997 27.5688 44.7292 30.9987 43.9452 32.8122L43.3382 32.4468L42.8867 30.4628C43.3342 27.8708 42.9382 26.6513 43.7322 23.4478Z" fill="#EEDD4F"/>
<path d="M43.7318 23.4477C43.4823 20.9697 43.7098 20.8537 45.7338 19.8977C45.5703 22.0727 45.5173 23.3832 44.9528 25.4777L43.7318 23.4477Z" fill="#F9BF28"/>
<path d="M38.072 8.51618C33.028 3.68418 45.69 -5.06282 48.3995 3.82068L48.144 6.52167C48.128 9.97317 47.8405 12.7552 49.28 15.9232C47.825 17.0447 47.28 17.5292 45.5675 18.2387C43.8555 18.3167 41.4965 18.4417 40.152 17.3912C40.2435 14.5862 39.7075 10.8757 38.072 8.51618Z" fill="#A7C438"/>
<path d="M38.072 8.51618C33.028 3.68418 45.69 -5.06282 48.3995 3.82068L48.144 6.52167L43.8215 8.40468C42.0975 8.68068 40.566 8.63668 38.826 8.64168L38.072 8.51618Z" fill="#95460B"/>
<path d="M38.8261 8.64156C38.1606 9.31706 47.5841 4.32506 48.3996 3.82056L48.1441 6.52155L43.8216 8.40456C42.0976 8.68056 40.5661 8.63656 38.8261 8.64156Z" fill="#582003"/>
<path d="M43.8213 8.40474L48.1438 6.52173C48.1278 9.97323 47.8403 12.7552 49.2798 15.9232C47.8248 17.0447 47.2798 17.5292 45.5673 18.2387C43.8583 13.8727 44.7243 12.4427 43.8213 8.40474Z" fill="#7F9311"/>
<path d="M45.0895 79.4541C46.371 80.6586 47.74 81.6061 47.951 83.2871C47.5285 85.1051 47.937 84.5301 46.4915 85.4956C42.3335 85.6266 41.248 83.3941 39.437 80.0401C40.3515 79.6996 43.6595 79.6291 45.0895 79.4541Z" fill="#F38B2D"/>
</svg>
