<svg width="76" height="69" viewBox="0 0 76 69" fill="none" xmlns="http://www.w3.org/2000/svg">
<path d="M22.6949 20.5955C17.0319 13.6455 25.1994 7.67547 30.4259 4.02047C43.3574 -5.01953 63.3419 2.22046 71.3214 15.4505C73.8984 21.8805 73.1194 28.8155 67.2194 33.0305L66.9904 36.1505L66.9684 37.8754C66.9619 40.5154 66.9414 42.4754 66.6844 45.1204C68.9959 45.9604 73.5089 47.0204 73.3869 49.9804L73.3429 51.9254C74.7384 53.1654 75.4149 53.5705 75.7619 55.3955C75.3099 61.2105 60.0369 65.5955 55.2039 65.6355L54.2264 65.6754C51.7959 66.7004 41.4319 62.4455 38.4974 61.3255C38.2844 59.4855 37.8509 57.3805 38.5034 55.6955L38.1534 52.9605C36.6854 52.2705 35.7159 52.1955 34.1234 51.9505C33.5449 53.5855 33.4454 54.2954 32.0424 55.3104C27.7949 57.8004 26.8849 57.6705 22.5819 55.2605C21.3009 57.3055 19.1639 58.4904 17.0574 59.6904L11.6099 58.5205C7.86641 57.1655 4.3369 58.0055 0.542404 55.3355C-0.241096 53.6255 -0.132596 51.5704 0.590904 49.8604C2.1164 48.8954 3.6514 47.6504 5.0919 46.5404L4.8309 32.6154C6.3799 30.8454 7.65291 29.7405 9.39091 28.1955C14.6469 24.4355 17.0174 24.2505 23.2144 25.3355C23.2634 23.7755 23.5269 21.8305 22.6949 20.5955Z" fill="#FBC551"/>
<path d="M22.6947 20.5955C17.0317 13.6455 25.1992 7.67547 30.4257 4.02047C43.3572 -5.01953 63.3417 2.22046 71.3212 15.4505C73.8982 21.8805 73.1192 28.8155 67.2192 33.0305C62.7912 34.3155 60.2682 35.2555 55.6257 35.2055L55.0057 34.9954L55.1332 34.7105C46.1637 33.0405 42.4187 31.0905 35.4952 25.5105C33.2072 25.8805 30.9132 26.2104 28.6137 26.5004C26.4997 25.8804 25.6497 25.7205 23.4537 25.4605L23.2142 25.3355C23.2632 23.7755 23.5267 21.8305 22.6947 20.5955Z" fill="#F38B2D"/>
<path d="M23.1708 13.7206C25.6898 11.3256 27.4238 10.3556 31.0948 10.6056C39.1338 11.1656 57.5648 16.7756 58.7488 26.0106C59.4528 29.3056 59.3678 33.9456 55.1333 34.7106C46.1638 33.0406 42.4188 31.0906 35.4953 25.5106C33.2073 25.8806 30.9133 26.2106 28.6138 26.5006C26.4998 25.8806 25.6498 25.7206 23.4538 25.4606L23.2143 25.3356C23.2633 23.7756 23.5268 21.8306 22.6948 20.5956C23.8568 18.8806 23.2373 15.9456 23.1708 13.7206Z" fill="#FBC551"/>
<path d="M29.4113 16.9156C30.1558 16.4306 31.1083 16.3956 31.8848 16.8306C32.6618 17.2606 33.1353 18.0906 33.1153 18.9756C33.0958 19.8656 32.5858 20.6706 31.7908 21.0656C30.6538 21.6356 29.2713 21.2206 28.6393 20.1156C28.0073 19.0106 28.3463 17.6106 29.4113 16.9156Z" fill="#B06513"/>
<path d="M47.6895 22.4805C49.2085 22.4555 49.394 22.4855 50.793 23.0805C51.95 24.1605 51.9325 24.7255 52.188 26.2405C50.8095 26.5355 50.6414 26.5055 49.2964 26.0755C48.0789 25.0655 48.015 24.0105 47.6895 22.4805Z" fill="#95460B"/>
<path d="M58.7489 26.0107C59.1949 23.0907 65.5864 20.7806 67.5979 18.9156C68.9934 17.6256 69.8039 16.7357 71.3214 15.4507C73.8984 21.8807 73.1194 28.8157 67.2194 33.0307C62.7914 34.3157 60.2684 35.2557 55.6259 35.2057L55.0059 34.9957L55.1334 34.7107C59.3679 33.9457 59.4529 29.3057 58.7489 26.0107Z" fill="#C35D0B"/>
<path d="M55.6258 35.2055C60.2683 35.2555 62.7913 34.3155 67.2193 33.0305L66.9903 36.1505L66.9683 37.8755C66.9618 40.5155 66.9413 42.4755 66.6843 45.1205C68.9958 45.9605 73.5088 47.0205 73.3868 49.9805L73.3428 51.9255C74.7383 53.1655 75.4148 53.5705 75.7618 55.3955C75.3098 61.2105 60.0368 65.5955 55.2038 65.6355L54.2263 65.6755C51.7958 66.7005 41.4318 62.4455 38.4973 61.3255C38.2843 59.4855 37.8508 57.3805 38.5033 55.6955L38.1533 52.9605L39.5798 51.2205C41.0238 48.0255 47.9678 45.2005 51.1603 43.6705C52.6223 43.2955 54.6013 42.8655 55.9133 42.2305L55.2088 41.9205C54.6323 40.3355 54.6493 36.6655 55.0058 34.9955L55.6258 35.2055Z" fill="#FBC551"/>
<path d="M53.3051 58.5855C57.4696 56.9305 70.8021 50.5655 73.3871 49.9805L73.3431 51.9255C74.7386 53.1655 75.4151 53.5705 75.7621 55.3955C75.3101 61.2105 60.0371 65.5955 55.2041 65.6355L54.2266 65.6755C53.5076 65.1155 53.0501 63.5755 52.6851 62.6555L53.7211 61.9705C53.7381 60.6105 53.5596 60.4105 52.9916 59.1255L53.3051 58.5855Z" fill="#ED7F1F"/>
<path d="M73.0526 54.5856C73.0036 53.9606 73.2461 52.6155 73.3431 51.9255C74.7386 53.1655 75.4151 53.5706 75.7621 55.3956C75.3101 61.2106 60.0371 65.5956 55.2041 65.6356C58.7296 63.0706 65.6111 60.9705 70.2586 57.9355C71.9096 56.8605 72.1066 56.3356 73.0526 54.5856Z" fill="#C2C1CD"/>
<path d="M53.7211 61.9706C58.1126 61.7856 63.5891 56.8305 65.6201 56.1655C67.4301 56.9955 68.3571 57.3655 70.2586 57.9355C65.6111 60.9705 58.7296 63.0706 55.2041 65.6356L54.2266 65.6755C53.5076 65.1155 53.0501 63.5756 52.6851 62.6556L53.7211 61.9706Z" fill="#DF6E14"/>
<path d="M65.6201 56.1656C67.8456 55.3806 69.2326 54.6257 71.7436 53.8457L73.0526 54.5857C72.1066 56.3357 71.9096 56.8607 70.2586 57.9357C68.3571 57.3657 67.4301 56.9956 65.6201 56.1656Z" fill="#DF6E14"/>
<path d="M46.6371 54.4404C49.5261 56.3204 50.5056 58.8904 52.9916 59.1254C53.5596 60.4104 53.7381 60.6105 53.7211 61.9705L52.6851 62.6555C53.0501 63.5755 53.5076 65.1154 54.2266 65.6754C51.7961 66.7004 41.4321 62.4454 38.4976 61.3254C38.2846 59.4854 37.8511 57.3804 38.5036 55.6954L39.1896 55.4454C40.8946 54.6604 43.1521 55.5304 46.6371 54.4404Z" fill="#F6AF38"/>
<path d="M46.6369 54.4404C49.5259 56.3204 50.5055 58.8904 52.9915 59.1254C53.5595 60.4104 53.7379 60.6105 53.7209 61.9705L52.685 62.6555L51.4969 62.2954C49.7089 61.6754 48.771 61.0554 47.146 60.0804C46.4375 56.8054 42.153 55.4654 39.1895 55.4454C40.8945 54.6604 43.1519 55.5304 46.6369 54.4404Z" fill="#FBC551"/>
<path d="M51.4967 62.2955C49.2892 63.3005 45.7007 63.3855 44.5142 60.9205L45.2442 60.1356L47.1457 60.0806C48.7707 61.0556 49.7087 61.6755 51.4967 62.2955Z" fill="#DF6E14"/>
<path d="M55.6258 35.2055C60.2683 35.2555 62.7913 34.3155 67.2193 33.0305L66.9903 36.1505L66.9683 37.8755C66.6453 40.4305 66.4793 42.0805 66.4298 44.6955C63.2873 43.5955 59.1903 41.8605 55.9133 42.2305L55.2088 41.9205C54.6323 40.3355 54.6493 36.6655 55.0058 34.9955L55.6258 35.2055Z" fill="#C05309"/>
<path d="M55.6257 35.2055C60.2682 35.2555 62.7912 34.3155 67.2192 33.0305L66.9902 36.1505C63.9662 36.3005 57.3322 37.9705 55.5322 36.3105L55.6257 35.2055Z" fill="#9F4107"/>
<path d="M51.1603 43.6704L52.2238 44.4354C51.6338 48.2604 45.5248 49.0954 45.0058 51.2554C45.8263 52.1854 45.4228 51.8955 46.5938 52.2855L46.4778 52.9254L49.2328 52.7704C49.2518 53.5054 49.0353 53.8004 48.7523 54.4954C47.4553 54.2004 47.5313 53.9754 46.6368 54.4404C43.1518 55.5304 40.8943 54.6604 39.1893 55.4454L38.5033 55.6954L38.1533 52.9604L39.5798 51.2205C41.0238 48.0255 47.9678 45.2004 51.1603 43.6704Z" fill="#FDD783"/>
<path d="M46.594 52.2856C47.911 51.8406 48.574 51.4705 49.9055 51.9405C50.1145 54.2355 48.901 54.5455 50.6255 56.0755C51.788 57.1105 52.6205 57.1905 53.305 58.5855L52.9915 59.1255C50.5055 58.8905 49.526 56.3205 46.637 54.4405C47.5315 53.9755 47.4555 54.2005 48.7525 54.4955C49.0355 53.8005 49.252 53.5055 49.233 52.7705L46.478 52.9255L46.594 52.2856Z" fill="#FEE59E"/>
<path d="M28.6138 26.5005C30.9133 26.2105 33.2073 25.8805 35.4953 25.5105C42.4188 31.0905 46.1638 33.0405 55.1333 34.7105L55.0058 34.9955C54.6493 36.6655 54.6323 40.3355 55.2088 41.9205L55.9133 42.2305C54.6013 42.8655 52.6223 43.2955 51.1603 43.6705C47.9678 45.2005 41.0238 48.0255 39.5798 51.2205L38.1533 52.9605C36.6853 52.2705 35.7158 52.1955 34.1233 51.9505C32.0248 49.8355 32.9323 45.6805 32.1128 41.7905C31.9523 39.6455 31.7613 37.5005 31.5403 35.3605C33.6353 34.5955 34.0363 34.0855 35.6393 32.4855C34.1608 29.1555 31.7998 28.3205 28.6138 26.5005Z" fill="#F2A952"/>
<path d="M35.6395 32.4856C37.446 37.3256 36.209 41.2406 36.388 46.2056C36.5095 49.5656 36.9925 49.5956 39.58 51.2206L38.1535 52.9606C36.6855 52.2706 35.716 52.1956 34.1235 51.9506C32.025 49.8356 32.9325 45.6806 32.113 41.7906C31.9525 39.6456 31.7615 37.5006 31.5405 35.3606C33.6355 34.5956 34.0365 34.0856 35.6395 32.4856Z" fill="#DF6E14"/>
<path d="M42.276 33.2954C43.7035 33.9104 43.1909 33.5904 44.2894 35.0054C44.6719 36.6854 44.6755 36.8904 43.9635 38.5004C42.5575 37.9054 42.3329 37.8354 41.4904 36.5804C41.2074 35.0154 41.5255 34.6454 42.276 33.2954Z" fill="#A94C0B"/>
<path d="M9.39111 28.1957C14.6471 24.4357 17.0176 24.2507 23.2146 25.3357L23.4541 25.4607C25.6501 25.7207 26.5001 25.8807 28.6141 26.5007C31.8001 28.3207 34.1611 29.1557 35.6396 32.4857C34.0366 34.0857 33.6356 34.5957 31.5406 35.3607C30.9391 34.8757 28.9521 34.4607 28.0951 34.2307C22.9136 32.6957 13.8936 28.9107 9.39111 28.1957Z" fill="#F09B2C"/>
<path d="M23.4541 25.4604C25.6501 25.7204 26.5001 25.8804 28.6141 26.5004C31.8001 28.3204 34.1611 29.1554 35.6396 32.4854C34.0366 34.0854 33.6356 34.5954 31.5406 35.3604C30.9391 34.8754 28.9521 34.4604 28.0951 34.2304C29.8966 32.9704 31.0936 32.2854 30.8226 29.9554C29.1661 28.0904 26.0441 28.1754 23.6091 26.4454L23.4541 25.4604Z" fill="#ED7F1F"/>
<path d="M11.3203 45.5207L11.7773 45.4156C14.5918 44.7406 16.3278 42.9557 17.6273 43.0957C18.3828 47.4807 17.2198 48.3107 22.2663 50.2857L20.9198 51.9557C21.4683 53.6007 21.4008 54.4307 22.5818 55.2607C21.3008 57.3057 19.1638 58.4907 17.0573 59.6907L11.6098 58.5207L12.5448 56.9806L12.2073 53.8706C12.4808 54.3156 12.8793 54.8507 13.1873 55.2857C15.9673 55.2557 18.6828 54.1606 19.5158 51.3006C18.1723 48.0756 10.4393 50.4806 7.7373 48.5556L7.75931 47.6607L8.98431 46.7306L11.3203 45.5207Z" fill="#F6AF38"/>
<path d="M20.9199 51.9556C21.4684 53.6006 21.4009 54.4306 22.5819 55.2606C21.3009 57.3056 19.1639 58.4906 17.0574 59.6906L11.6099 58.5206L12.5449 56.9805C15.3884 55.7205 18.8959 54.2806 20.9199 51.9556Z" fill="#ED7F1F"/>
<path d="M11.3204 45.5205C12.6864 46.5055 13.4869 46.6905 13.9219 48.0305C12.4159 48.2605 10.3469 47.4105 8.98438 46.7305L11.3204 45.5205Z" fill="#ED7F1F"/>
<path d="M32.1129 41.7905C32.9324 45.6805 32.0249 49.8356 34.1234 51.9506C33.5449 53.5856 33.4454 54.2955 32.0424 55.3105C27.7949 57.8005 26.8849 57.6706 22.5819 55.2606C21.4009 54.4306 21.4684 53.6006 20.9199 51.9556L22.2664 50.2856L23.1184 51.0156C26.3944 52.9006 29.3529 49.8806 32.0909 47.9756L32.1129 41.7905Z" fill="#F38B2D"/>
<path d="M22.2664 50.2856L23.1184 51.0156C24.3494 56.8706 27.5449 54.6656 32.0424 55.3106C27.7949 57.8006 26.8849 57.6706 22.5819 55.2606C21.4009 54.4306 21.4684 53.6006 20.9199 51.9556L22.2664 50.2856Z" fill="#C35D0B"/>
<path d="M11.432 53.9956L12.2075 53.8706L12.545 56.9806L11.61 58.5206C7.86649 57.1656 4.33698 58.0056 0.54248 55.3356C2.35148 54.2506 8.97648 54.1406 11.432 53.9956Z" fill="#F38B2D"/>
<path d="M0.590904 49.8606C3.4389 50.8956 8.91591 52.7306 11.4319 53.9956C8.97641 54.1406 2.3514 54.2506 0.542404 55.3356C-0.241096 53.6256 -0.132596 51.5706 0.590904 49.8606Z" fill="#F09B2C"/>
<path d="M8.99547 66.4705C8.22397 62.5455 13.203 60.8655 16.767 63.0505L17.596 62.8705C19.4455 61.9155 18.6225 62.0805 20.7125 62.2505C22.377 63.4155 21.884 62.7855 22.626 64.6155C21.979 67.2005 21.629 66.9855 19.0395 67.5805C14.752 67.0305 14.847 70.5505 8.99547 66.4705Z" fill="#F09B2C"/>
<path d="M17.596 62.8706C19.4455 61.9156 18.6225 62.0806 20.7125 62.2506C22.377 63.4156 21.884 62.7856 22.626 64.6156C21.979 67.2006 21.629 66.9856 19.0395 67.5806L17.8715 66.8056C17.0425 64.7856 17.3135 65.2706 17.596 62.8706Z" fill="#F38B2D"/>
<path d="M8.99547 66.4705C8.22397 62.5455 13.203 60.8655 16.767 63.0505C14.617 64.1605 9.79297 65.5305 8.99547 66.4705Z" fill="#F2A952"/>
<path d="M31.6167 66.7505C34.3817 66.2855 35.5217 65.6105 36.9267 68.1505C33.7912 68.9955 33.6062 69.2205 31.6167 66.7505Z" fill="#FDECB9"/>
</svg>
