<svg width="78" height="117" viewBox="0 0 78 117" fill="none" xmlns="http://www.w3.org/2000/svg">
<path d="M26.6109 5.64206C25.4009 2.28906 30.3377 -1.11794 33.7442 0.35106C36.1797 3.03906 37.6647 5.69205 37.8767 9.44905C38.3847 13.7616 38.4742 16.4391 38.2107 20.8151L44.9207 19.2066L46.0462 19.3251C47.5102 19.5236 49.3407 19.2055 50.4212 18.1425C50.9822 18.773 59.8402 24.3926 61.1092 24.8091L63.3637 24.0111C66.2227 26.6536 71.3902 30.9306 68.7732 34.7666C67.1057 35.8206 65.2982 35.5896 63.3112 35.8811C55.6197 42.9881 50.6687 51.809 50.5802 62.3535C50.4732 75.1575 53.2732 89.6286 67.9507 91.7866L69.0027 91.9026C70.0042 95.0066 65.1142 100.991 63.2147 103.481C66.9762 104.317 73.1167 105.579 73.2027 110.3C68.9037 118.369 28.7532 117.198 20.5094 114.965C17.6634 114.849 10.6659 113.334 9.53905 110.467C9.94895 108.967 9.82825 109.408 11.2254 108.272C8.10085 105.759 -1.13705 95.8855 0.261099 91.769L1.4218 91.4471C14.4481 88.1051 17.7106 80.0836 19.5888 67.6471C20.7688 59.8331 18.462 52.8656 15.6118 45.6186C12.6321 41.5711 9.6335 36.3175 4.66845 35.5285C2.75565 35.234 0.67925 35.24 0 33.272C1.13985 29.0105 5.9877 23.9681 9.7093 21.7946C17.814 17.0611 25.6392 18.9916 33.9787 21.0386C32.9927 13.2301 31.9527 11.4301 26.6109 5.64206Z" fill="#FDD783"/>
<path d="M26.6109 5.64206C25.4009 2.28906 30.3377 -1.11794 33.7442 0.35106C36.1797 3.03906 37.6647 5.69205 37.8767 9.44905C38.3847 13.7616 38.4742 16.4391 38.2107 20.8151L44.9207 19.2066L46.0462 19.3251C47.5102 19.5236 49.3407 19.2055 50.4212 18.1425C50.9822 18.773 59.8402 24.3926 61.1092 24.8091L63.3637 24.0111C66.2227 26.6536 71.3902 30.9306 68.7732 34.7666C67.1057 35.8206 65.2982 35.5896 63.3112 35.8811C57.8427 36.3226 55.0777 38.4651 50.2562 39.9611C40.6642 42.9366 25.5222 42.7691 16.4942 38.1261C11.7529 36.0941 9.79 35.7265 4.66845 35.5285C2.75565 35.234 0.67925 35.24 0 33.272C1.13985 29.0105 5.9877 23.9681 9.7093 21.7946C17.814 17.0611 25.6392 18.9916 33.9787 21.0386C32.9927 13.2301 31.9527 11.4301 26.6109 5.64206Z" fill="#E1060A"/>
<path d="M4.66845 35.5287C2.75565 35.2342 0.67925 35.2402 0 33.2722C1.13985 29.0107 5.9877 23.9682 9.7093 21.7947C17.814 17.0612 25.6392 18.9917 33.9787 21.0387L34.0347 23.1497L33.7307 24.2327L30.3537 24.6897C30.9932 25.7537 32.5817 26.0607 33.8177 26.3732C34.5472 27.9672 34.9797 29.2852 36.8242 29.8407C33.1202 31.1247 30.2682 33.7807 26.358 35.3312C23.2992 36.5437 18.471 35.8032 16.6959 37.3647L16.4942 38.1262C11.7529 36.0942 9.79 35.7267 4.66845 35.5287Z" fill="#F22314"/>
<path d="M16.7672 22.0859C18.5125 22.2854 19.9652 22.7869 21.3515 23.8439C22.8503 27.5029 14.6492 32.3009 11.9294 33.2634C9.44679 32.8059 6.78229 32.4839 4.27014 32.1349C4.71944 31.2759 5.19859 30.4324 5.70664 29.6064C8.41499 25.2899 11.8979 23.1594 16.7672 22.0859Z" fill="#DF6612"/>
<path d="M26.6109 5.64206C25.4009 2.28906 30.3377 -1.11794 33.7442 0.35106C36.1797 3.03906 37.6647 5.69205 37.8767 9.44905C35.6037 10.1491 35.9797 9.66556 34.7462 11.3011C35.1067 16.4241 35.0007 17.9316 34.0347 23.1496L33.9787 21.0386C32.9927 13.2301 31.9527 11.4301 26.6109 5.64206Z" fill="#95460B"/>
<path d="M33.7442 0.351074C36.1797 3.03907 37.6647 5.69207 37.8767 9.44907C35.6037 10.1491 35.9797 9.66557 34.7462 11.3011C34.1352 10.0746 33.4372 6.03508 32.5497 3.95258C32.7967 2.38758 33.1262 1.76307 33.7442 0.351074Z" fill="#582003"/>
<path d="M26.6109 5.64206C25.4009 2.28906 30.3377 -1.11794 33.7442 0.35106C33.1262 1.76306 32.7967 2.38756 32.5497 3.95256C30.8802 4.45506 27.7552 4.98206 26.6109 5.64206Z" fill="#9F4107"/>
<path d="M34.7462 11.3012C35.9797 9.66572 35.6037 10.1492 37.8767 9.44922C38.3847 13.7617 38.4742 16.4392 38.2107 20.8152L44.9207 19.2067C44.5552 20.4657 44.2372 21.7632 43.6737 22.9387L44.6547 24.1267C40.0517 26.2942 38.9202 26.4862 33.8177 26.3732C32.5817 26.0607 30.9932 25.7537 30.3537 24.6897L33.7307 24.2327L34.0347 23.1497C35.0007 17.9317 35.1067 16.4242 34.7462 11.3012Z" fill="#431903"/>
<path d="M38.2107 20.815L44.9207 19.2065C44.5552 20.4655 44.2372 21.763 43.6737 22.9385C42.0252 24.1955 40.9067 24.9615 38.8062 24.629C37.8532 22.9965 38.1897 23.0035 38.2107 20.815Z" fill="#F22314"/>
<path d="M50.4212 18.1426C50.9822 18.7731 59.8402 24.3926 61.1092 24.8091C54.7372 26.8626 52.3992 23.8056 46.4822 24.5776L44.6547 24.1266L43.6737 22.9386C44.2372 21.7631 44.5552 20.4656 44.9207 19.2066L46.0462 19.3251C47.5102 19.5236 49.3407 19.2056 50.4212 18.1426Z" fill="#3A7103"/>
<path d="M44.6547 24.1265L46.4822 24.5775C44.6642 28.0175 41.5547 28.3775 37.7632 29.552L36.8242 29.8405C34.9797 29.285 34.5472 27.967 33.8177 26.373C38.9202 26.486 40.0517 26.294 44.6547 24.1265Z" fill="#F14C07"/>
<path d="M11.2254 108.272C8.10081 105.759 -1.1371 95.8858 0.261055 91.7693L1.42175 91.4473C9.35005 96.2998 15.0757 97.0713 24.1569 95.7163C38.6852 94.3048 37.6002 96.2558 49.8072 97.1328C57.2497 96.7788 61.7707 96.0043 67.9507 91.7868L69.0027 91.9028C70.0042 95.0068 65.1142 100.991 63.2147 103.481C66.9762 104.317 73.1167 105.579 73.2027 110.3C68.9037 118.369 28.7532 117.198 20.5094 114.965C17.6634 114.849 10.6659 113.334 9.53901 110.467C9.94891 108.967 9.82821 109.408 11.2254 108.272Z" fill="#E1060A"/>
<path d="M67.9507 91.7866L69.0027 91.9026C70.0042 95.0066 65.1142 100.991 63.2147 103.481C66.9762 104.317 73.1167 105.579 73.2027 110.3C68.9037 118.369 28.7532 117.198 20.5094 114.965L22.7874 113.719C25.4489 114.333 26.7905 114.46 29.3767 113.705C30.2772 112.755 31.1227 112.975 31.6337 111.773C32.0922 110.694 32.6822 109.564 33.1992 108.504C34.7877 107.338 37.2447 108.243 39.7622 107.533C43.8882 106.369 47.7747 100.711 49.8072 97.1326C57.2497 96.7786 61.7707 96.0041 67.9507 91.7866Z" fill="#C12007"/>
<path d="M63.2147 103.481C66.9762 104.316 73.1167 105.578 73.2027 110.3C68.9037 118.368 28.7532 117.197 20.5094 114.964L22.7874 113.719C25.4489 114.333 26.7905 114.459 29.3767 113.704C30.6677 113.463 32.2192 112.898 33.4932 112.484L34.9902 111.953C43.5442 119.446 57.0052 109.933 63.2147 103.481Z" fill="#C2C1CD"/>
<path d="M33.4932 112.485C32.9917 110.473 32.9322 110.339 34.0587 108.756L34.9457 108.708C35.8062 110.095 35.4817 109.831 34.9902 111.954L33.4932 112.485Z" fill="#E1060A"/>
<path d="M11.2254 108.271C15.4571 111.251 17.705 112.447 22.7874 113.719L20.5094 114.965C17.6635 114.849 10.6659 113.334 9.53906 110.466C9.94896 108.967 9.82826 109.408 11.2254 108.271Z" fill="#C2C1CD"/>
<path d="M15.6118 45.6182C24.4727 47.3342 32.0232 46.8812 32.3097 59.1947C32.3262 59.8957 31.7802 60.1522 31.2852 60.4677C34.2192 64.1997 33.1522 66.3326 30.8387 70.0211C32.3832 71.2846 31.6652 71.2967 32.0752 73.2442C33.8812 81.8147 25.8108 89.3197 24.1569 95.7157C15.0757 97.0707 9.35011 96.2992 1.42181 91.4467C14.4481 88.1047 17.7106 80.0832 19.5888 67.6467C20.7688 59.8327 18.4621 52.8652 15.6118 45.6182Z" fill="#FEE59E"/>
<path d="M31.2852 60.4678C34.2192 64.1998 33.1522 66.3328 30.8387 70.0213C26.1039 67.9028 28.8037 63.1413 31.2852 60.4678Z" fill="#7F3205"/>
<path d="M20.0439 75.0293C22.371 75.8563 23.9968 77.7263 25.7194 79.4518C23.7833 84.0773 22.7918 85.8893 19.2849 89.4558C18.8114 89.8618 18.2965 90.1553 17.7683 90.4933C17.3857 89.0718 16.9089 88.5778 15.6501 87.8458C15.0664 84.7043 18.7483 79.1513 20.0439 75.0293Z" fill="#F6F6CC"/>
<path d="M38.3802 61.1592C42.6227 61.9702 42.0262 67.2407 39.9122 70.1157C36.3867 67.8542 36.8802 64.4427 38.3802 61.1592Z" fill="#7F3205"/>
<path d="M74.4467 0.36706C76.2702 -0.0394401 75.5612 -0.116938 77.1737 0.529062C78.0052 1.78306 77.6812 3.54206 77.3482 4.93456C75.3522 13.2841 71.5992 20.5421 63.3637 24.0111L61.1092 24.8091C59.8402 24.3926 50.9822 18.7731 50.4212 18.1426C49.3407 19.2056 47.5102 19.5236 46.0462 19.3251L44.9207 19.2066C45.2447 16.0811 46.3927 13.0976 48.2477 10.5616C54.4617 2.01256 65.3752 1.84306 74.4467 0.36706Z" fill="#4B8F0A"/>
<path d="M44.9207 19.2067C45.2447 16.0812 46.3927 13.0977 48.2477 10.5617C54.4617 2.01269 65.3752 1.84319 74.4467 0.367188C73.7027 4.48669 68.4732 7.91569 64.8182 9.70169C63.4672 11.9442 57.6662 13.8117 54.3012 16.2372C53.2487 16.7697 51.8202 17.4387 50.8487 18.0247L50.4212 18.1427C49.3407 19.2057 47.5102 19.5237 46.0462 19.3252L44.9207 19.2067Z" fill="#68A30D"/>
<path d="M64.8182 9.70117C63.4672 11.9437 57.6662 13.8112 54.3012 16.2367C53.2487 16.7692 51.8202 17.4382 50.8487 18.0242L50.4212 18.1422C49.3407 19.2052 47.5102 19.5232 46.0462 19.3247C53.3722 14.4562 56.5907 13.0322 64.8182 9.70117Z" fill="#1F5303"/>
<path d="M54.3012 16.2373C55.4032 16.8033 55.9832 16.7943 57.2097 16.7598C55.4942 18.2833 53.0102 19.1793 50.8487 18.0248C51.8202 17.4388 53.2487 16.7698 54.3012 16.2373Z" fill="#4C9613"/>
<path d="M62.6077 60.6496C63.6777 60.6926 64.5312 61.5576 64.5592 62.6281C64.5877 63.6986 63.7807 64.6076 62.7147 64.7066C61.9592 64.7771 61.2272 64.4206 60.8162 63.7826C60.4057 63.1446 60.3842 62.3311 60.7607 61.6721C61.1372 61.0136 61.8492 60.6191 62.6077 60.6496Z" fill="#FEE59E"/>
<path d="M5.4089 60.6802C6.3909 60.3492 7.46285 60.8242 7.87725 61.7737C8.29165 62.7237 7.9108 63.8327 7.0003 64.3277C6.3371 64.6877 5.5274 64.6437 4.90745 64.2132C4.2875 63.7827 3.96325 63.0392 4.0693 62.2922C4.17535 61.5447 4.69365 60.9212 5.4089 60.6802Z" fill="#FEE59E"/>
</svg>
