<svg width="71" height="98" viewBox="0 0 71 98" fill="none" xmlns="http://www.w3.org/2000/svg">
<path d="M14.2718 17.9112C13.8353 17.1412 13.6103 16.4812 13.2918 15.6562C14.6368 11.8262 12.5608 9.31118 14.3673 5.27618C17.0648 -0.743818 31.7083 -2.38383 33.8668 4.45617C33.9388 7.37617 33.9623 10.4812 34.1083 13.3812C37.9323 13.0912 42.8058 13.1462 46.4233 14.4612C49.6108 16.8562 60.5223 33.0062 61.7458 36.7562C61.5698 48.9262 61.1413 68.6662 61.7908 80.6312C72.8438 83.3412 73.0828 90.5912 62.6353 93.8912C55.5093 96.1462 44.7173 98.3262 37.2508 97.5462L35.1098 97.6012C29.7023 97.2462 7.47081 91.6262 1.54931 88.9962C0.188315 88.3912 0.0897937 85.3112 0.0527937 83.7562C1.25629 70.7362 -0.93371 52.9562 0.51779 39.5812C0.89729 36.0812 11.6613 19.8012 14.2718 17.9112Z" fill="#C3C3D8"/>
<path d="M38.2783 47.4763C44.7363 43.9563 51.6402 40.7713 58.2227 37.4563C59.9057 36.6063 60.3218 36.2563 61.7458 36.7563C61.5698 48.9263 61.1412 68.6663 61.7907 80.6313C72.8437 83.3413 73.0828 90.5913 62.6353 93.8913C55.5093 96.1463 44.7172 98.3263 37.2507 97.5463L35.1097 97.6013C35.2802 96.3363 35.2047 96.0063 36.0357 95.1463C36.0567 93.9713 35.9568 93.7663 35.6393 92.6213C35.4408 91.4963 35.1202 87.5813 35.3067 86.5763C36.5012 80.1463 33.9262 51.3213 37.1422 47.5013L38.2783 47.4763Z" fill="#586297"/>
<path d="M61.7907 80.6313C72.8437 83.3413 73.0828 90.5914 62.6353 93.8914C55.5093 96.1464 44.7172 98.3264 37.2507 97.5464C41.9542 94.3714 55.3122 91.3363 60.1817 86.4363C62.0227 84.5863 61.8262 83.1263 61.7907 80.6313Z" fill="#B3B4D1"/>
<path d="M37.1422 47.5015L38.2783 47.4766C39.3373 50.5566 38.5967 89.3616 38.2217 93.1016C37.3852 94.2666 37.2687 94.4215 36.0357 95.1465C36.0567 93.9715 35.9568 93.7665 35.6393 92.6215C35.4408 91.4965 35.1202 87.5815 35.3067 86.5765C36.5012 80.1465 33.9262 51.3215 37.1422 47.5015Z" fill="#6E84B5"/>
<path d="M45.0823 46.791C46.0258 47.441 46.0333 47.481 46.4593 48.581C45.8723 49.646 43.9383 49.956 42.4598 51.861L41.9258 51.856L41.4178 51.256C41.9618 49.671 43.8398 48.046 45.0823 46.791Z" fill="#454A77"/>
<path d="M14.2718 17.9112C13.8353 17.1412 13.6102 16.4812 13.2917 15.6562C14.6367 11.8262 12.5607 9.31118 14.3672 5.27618C17.0647 -0.743818 31.7082 -2.38383 33.8667 4.45617C33.9387 7.37617 33.9622 10.4812 34.1082 13.3812C37.9322 13.0912 42.8057 13.1462 46.4232 14.4612C49.6107 16.8562 60.5223 33.0062 61.7458 36.7562C60.3218 36.2562 59.9057 36.6062 58.2227 37.4562C51.6402 40.7712 44.7363 43.9562 38.2783 47.4762L37.1422 47.5012C35.5042 44.7962 25.8892 23.6812 25.5112 21.4462C21.2837 20.9562 19.7342 20.7162 15.9977 18.9312L15.6517 18.6012L14.2718 17.9112Z" fill="#8E91BB"/>
<path d="M14.2718 17.9112C13.8353 17.1412 13.6102 16.4812 13.2917 15.6562C14.6367 11.8262 12.5607 9.31118 14.3672 5.27618C17.0647 -0.743818 31.7082 -2.38383 33.8667 4.45617C33.9387 7.37617 33.9622 10.4812 34.1082 13.3812L33.8647 15.9462C30.7097 17.7262 29.0327 18.7562 25.3687 19.3462L21.4268 19.5012L15.9977 18.9312L15.6517 18.6012L14.2718 17.9112Z" fill="#E9090E"/>
<path d="M29.6598 6.41608C30.9283 5.27108 32.2398 4.98605 33.8668 4.45605C33.9388 7.37605 33.9623 10.481 34.1083 13.381L33.8648 15.946C30.7098 17.726 29.0328 18.7561 25.3688 19.3461C25.0238 15.5511 24.8323 11.406 24.5773 7.57605L29.0698 6.54608L29.6598 6.41608Z" fill="#951506"/>
<path d="M29.6598 6.41602C30.6533 8.52602 30.1853 14.226 30.0973 16.711C29.2683 13.496 28.0178 9.73102 29.0698 6.54602L29.6598 6.41602Z" fill="#5A0A05"/>
<path d="M16.7572 6.99121C18.1672 7.60621 20.9362 8.01121 22.4167 7.55121L23.6682 7.82623L24.5772 7.57623C24.8322 11.4062 25.0237 15.5513 25.3687 19.3463L21.4268 19.5012L15.9977 18.9312L15.6517 18.6013C17.1682 14.6163 16.7832 11.2512 16.7572 6.99121Z" fill="#E10A0B"/>
<path d="M23.6682 7.82617L24.5772 7.57617C24.8322 11.4062 25.0237 15.5512 25.3687 19.3462L21.4268 19.5012C22.0833 17.5062 20.9987 17.3712 21.8197 14.0712L21.8402 14.5112C22.8457 12.4212 23.2017 10.1012 23.6682 7.82617Z" fill="#C9030D"/>
<path d="M16.7573 6.99158L17.5308 6.1416C19.7158 6.4366 20.3503 6.71657 22.4168 7.55157C20.9363 8.01157 18.1673 7.60658 16.7573 6.99158Z" fill="#F87D82"/>
<path d="M25.3688 19.3463C29.0328 18.7563 30.7098 17.7263 33.8648 15.9463L35.3013 18.4113L35.1203 18.9713C31.1548 20.3763 29.6868 21.0313 25.5113 21.4463C21.2838 20.9563 19.7343 20.7163 15.9978 18.9313L21.4268 19.5013L25.3688 19.3463Z" fill="#586297"/>
<path d="M35.3012 18.4116C37.9522 17.0166 42.0697 15.3566 45.0567 15.4416C43.0742 17.2416 37.7237 19.7066 35.1202 18.9716L35.3012 18.4116Z" fill="#B3B4D1"/>
<path d="M43.3148 22.8613C45.3743 25.1263 50.8862 31.1363 50.7737 34.0113C50.5112 34.1763 50.2702 34.3463 49.9602 34.3763C46.3047 34.7613 42.6888 39.2363 40.0283 42.0463C37.5278 38.1263 35.2418 33.2513 36.1573 28.4763C38.1713 24.9363 39.6598 24.5563 43.3148 22.8613Z" fill="#586297"/>
<path d="M43.3148 22.8613C45.3743 25.1263 50.8863 31.1363 50.7738 34.0113C49.3453 33.2463 49.4938 33.5863 48.1463 33.2463C43.6983 32.1313 41.0803 29.9863 36.1573 28.4763C38.1713 24.9363 39.6598 24.5563 43.3148 22.8613Z" fill="#F3F0EF"/>
<path d="M0.0527344 83.7563C0.497734 84.3863 1.81775 86.2014 2.53375 86.4764C11.4338 89.8814 21.7557 91.7713 31.0682 94.0063C32.3067 94.3063 33.7527 94.4213 34.8587 94.2463C35.5302 93.5463 35.4983 93.5863 35.6393 92.6213C35.9568 93.7663 36.0567 93.9714 36.0357 95.1464C35.2047 96.0064 35.2802 96.3364 35.1097 97.6014C29.7022 97.2464 7.47076 91.6263 1.54926 88.9963C0.188255 88.3913 0.0897344 85.3113 0.0527344 83.7563Z" fill="#8E91BB"/>
<path d="M5.65276 75.0264C5.60526 70.1064 4.74426 48.1614 6.63076 45.5414C7.96776 45.0364 9.27427 45.5514 10.6708 45.9114L19.0608 48.6514C22.8628 49.4214 27.2798 49.7714 29.4928 52.9814C29.8508 54.4764 29.7223 55.1964 29.6018 56.6864C29.8228 60.3064 29.9178 63.2764 29.8898 66.9014C29.9118 72.0814 30.2238 81.8914 29.7668 86.7064C25.1573 85.8214 20.3968 84.5014 16.0498 83.6914C12.8243 82.8764 9.26926 82.1214 6.29876 80.7064L5.94176 80.4214C5.22626 79.1564 5.56726 76.5914 5.65276 75.0264Z" fill="#0753AD"/>
<path d="M5.65276 75.0264C5.60526 70.1064 4.74426 48.1614 6.63076 45.5414C7.96776 45.0364 9.27427 45.5514 10.6708 45.9114L19.0608 48.6514C20.1573 51.7314 18.8223 54.8264 17.8483 57.9164C17.5588 60.8064 15.2288 63.5814 13.4568 65.8864C12.1948 68.3014 8.38775 73.4164 6.49675 75.4714L5.65276 75.0264Z" fill="#1D2649"/>
<path d="M10.6708 45.9111L19.0608 48.6511C20.1573 51.7311 18.8223 54.8261 17.8483 57.9161C17.5588 60.8061 15.2288 63.5811 13.4568 65.8861C12.0323 62.7461 13.1673 61.3561 12.6663 58.5311C11.8108 53.7111 10.4948 50.9861 10.6708 45.9111Z" fill="#DA165F"/>
<path d="M19.0608 48.6514C22.8628 49.4214 27.2798 49.7714 29.4928 52.9814C29.8508 54.4764 29.7223 55.1963 29.6018 56.6863L29.0598 56.3813C27.4618 58.1013 23.0443 63.8014 21.7858 64.3214L20.4778 64.2014C17.7123 69.6564 12.9418 76.7514 7.76828 80.0364C6.89428 78.1264 6.82427 77.5714 6.49677 75.4714C8.38777 73.4164 12.1948 68.3014 13.4568 65.8864C15.2288 63.5814 17.5588 60.8064 17.8483 57.9164C18.8223 54.8264 20.1573 51.7314 19.0608 48.6514Z" fill="#F3F0EF"/>
<path d="M19.0608 48.6514C22.8628 49.4214 27.2798 49.7714 29.4928 52.9814C29.8508 54.4764 29.7223 55.1963 29.6018 56.6863L29.0598 56.3813C28.6383 54.4213 28.6258 53.9364 27.2698 52.4814C23.5858 51.2414 20.5903 55.6014 17.8483 57.9164C18.8223 54.8264 20.1573 51.7314 19.0608 48.6514Z" fill="#4888CA"/>
<path d="M24.2848 69.4413C26.5963 68.0713 27.3398 67.7464 29.8898 66.9014C29.9118 72.0814 30.2238 81.8914 29.7668 86.7064C25.1573 85.8214 20.3968 84.5013 16.0498 83.6913C17.0663 81.2163 22.3353 73.3113 24.2848 69.4413Z" fill="#073D9F"/>
<path d="M14.9693 22.3413C20.5373 26.7163 5.82779 33.5263 4.85629 38.8513L3.79181 39.2963L3.2218 38.6363C5.5673 35.0713 12.3133 25.0763 14.9693 22.3413Z" fill="#F3F0EF"/>
</svg>
