<svg width="666" height="930" viewBox="0 0 666 930" fill="none" xmlns="http://www.w3.org/2000/svg">
<path d="M41.818 122.63C42.647 119.443 43.6723 117.477 46.6077 115.693C58.8391 108.258 113.797 106.227 129.869 105.322C247.758 99.5333 365.837 98.6319 483.801 102.62C511.077 103.416 538.334 104.765 565.551 106.664C582.907 107.906 600.889 109.09 617.805 113.252C625.132 115.055 629.495 117.347 629.79 125.384C629.645 135.015 629.622 144.647 629.717 154.279C630.003 178.015 632.841 180.701 608.089 185.423L574.294 621.77L564.32 750.353L561.202 791.336C560.693 797.798 560.58 804.664 559.463 811.044C558.341 817.478 554.433 822.9 549.52 827.06C534.389 839.87 483.547 850.364 462.019 852.798C459.944 853.461 448.657 854.715 445.939 855.037C430.083 857.035 414.174 858.588 398.233 859.701C323.048 865.068 233.605 861.267 160.421 842.967C147.331 839.012 131.987 835.651 121.32 826.728C109.942 817.21 110.866 803.601 109.91 790.06C109.115 778.226 108.258 766.396 107.34 754.572L97.1339 625.044L79.6708 393.011C74.9806 331.703 69.4047 269.194 65.6267 207.861C64.9861 205.729 64.0813 188.559 63.8965 185.493C55.9168 182.775 43.3304 184.315 42.1317 172.665C41.5695 167.201 41.8367 161.489 41.8544 155.979C41.967 144.863 41.9549 133.746 41.818 122.63Z" fill="#CFCFCF"/>
<path d="M41.818 122.63C42.647 119.443 43.6723 117.477 46.6077 115.693C58.8391 108.258 113.797 106.227 129.869 105.322C247.758 99.5333 365.837 98.6319 483.801 102.62C511.077 103.416 538.334 104.765 565.551 106.664C582.907 107.906 600.889 109.09 617.805 113.252C625.132 115.055 629.495 117.347 629.79 125.384C629.645 135.015 629.622 144.647 629.717 154.279C630.003 178.015 632.841 180.701 608.089 185.423L574.294 621.77L564.32 750.353L561.202 791.336C560.693 797.798 560.58 804.664 559.463 811.044C558.341 817.478 554.433 822.9 549.52 827.06C534.389 839.87 483.547 850.364 462.019 852.798C462.577 850.06 470.418 843.871 470.921 838.403C472.983 816.034 474.213 793.411 475.234 771.006L481.209 644.543L493.548 354.751L496.44 287.241C497.262 269.957 498.025 252.591 498.447 235.29C498.592 229.464 498.506 226.938 495.337 222.12C487.937 221.74 467.607 223.573 459.49 224.053C439.136 225.202 418.764 226.028 398.383 226.532C325.291 228.497 252.148 227.046 179.191 222.184C149.99 219.927 120.877 216.656 91.9044 212.376C87.4081 211.702 67.9266 207.003 65.6267 207.861C64.9861 205.729 64.0813 188.559 63.8965 185.493C55.9168 182.775 43.3304 184.315 42.1317 172.665C41.5695 167.201 41.8367 161.489 41.8544 155.979C41.967 144.863 41.9549 133.746 41.818 122.63Z" fill="#B1B0B1"/>
<path d="M41.818 122.63C42.647 119.443 43.6723 117.477 46.6077 115.693C58.8391 108.258 113.797 106.227 129.869 105.322C247.758 99.5333 365.837 98.6319 483.801 102.62C511.077 103.416 538.334 104.765 565.551 106.664C582.907 107.906 600.889 109.09 617.805 113.252C625.132 115.055 629.495 117.347 629.79 125.384C629.645 135.015 629.622 144.647 629.717 154.279C630.003 178.015 632.841 180.701 608.089 185.423C603.341 186.739 593.498 187.996 588.409 188.723C575.743 190.515 563.058 192.156 550.356 193.645C494.088 200.293 434.51 202.729 377.913 203.618C317.325 204.849 256.712 203.755 196.208 200.339C184.451 199.662 172.701 198.859 160.962 197.931C159.366 197.81 150.02 197.157 149.037 196.849C128.449 194.852 105.341 192.933 85.0464 189.053C78.9939 188.156 69.614 186.984 63.8965 185.493C55.9168 182.775 43.3304 184.315 42.1317 172.665C41.5695 167.201 41.8367 161.489 41.8544 155.979C41.967 144.863 41.9549 133.746 41.818 122.63Z" fill="#DAD9DA"/>
<path d="M147.097 141.75C152.271 142.542 163.372 142.923 169.024 143.273C185.638 144.266 202.26 145.13 218.887 145.867C321.01 150.171 423.295 148.703 525.25 141.469C556.012 139.123 588.718 136.725 618.522 128.511C621.414 127.714 627.352 124.603 629.79 125.383C629.645 135.014 629.622 144.647 629.717 154.279C630.003 178.015 632.841 180.701 608.089 185.423C603.341 186.739 593.498 187.996 588.409 188.723C575.743 190.515 563.058 192.156 550.356 193.645C494.088 200.292 434.51 202.729 377.913 203.618C317.325 204.849 256.712 203.755 196.208 200.339C184.451 199.662 172.701 198.859 160.962 197.931C159.366 197.809 150.02 197.157 149.037 196.849L148.81 195.689C147.647 189.935 148.024 183.177 147.927 177.248C147.737 165.626 148.324 153.31 147.097 141.75Z" fill="#CFCFCF"/>
<path d="M63.8965 185.493C55.9168 182.775 43.3304 184.315 42.1317 172.665C41.5695 167.201 41.8367 161.489 41.8544 155.979C41.967 144.863 41.9549 133.746 41.818 122.63C48.2898 129.528 72.1668 134.08 81.0318 134.76C80.9065 146.244 81.3315 157.733 81.2838 169.218C81.2647 173.744 81.0632 178.31 81.997 182.766C82.5354 185.317 83.6114 186.944 85.0464 189.053C78.9939 188.156 69.614 186.984 63.8965 185.493Z" fill="#CFCFCF"/>
<path d="M314.859 107.849C341.244 107.294 368.205 107.984 394.588 108.331C441.401 108.7 488.2 110.157 534.947 112.699C547.151 113.373 559.34 114.269 571.512 115.387C580.142 116.162 593.435 117.276 601.461 119.936C594.084 122.125 586.734 123.943 579.084 124.923C504.299 134.513 428.187 136.59 352.862 137.335C319.633 137.625 286.402 137.271 253.187 136.273C206.606 135.4 160.077 132.71 113.706 128.21C101.702 126.927 75.9027 124.139 65.5676 119.663C72.9204 116.829 101.775 114.992 110.43 114.352C178.589 109.305 246.57 108.472 314.859 107.849Z" fill="#B1B0B1"/>
<path d="M515.281 811.729C505.819 812.27 499.445 807.229 499.781 797.384C500.34 781.164 501.488 764.889 502.483 748.682L507.054 668.878L522.504 394.785L527.529 307.266L528.927 282.218C529.513 271.821 528.655 260.8 538.879 254.714C543.26 252.106 547.101 251.984 551.999 253.104C553.702 252.161 555.477 252.676 557.252 253.186C567.966 256.272 570.504 264.582 569.913 274.496C567.966 307.131 565.496 339.67 563.444 372.259L543.464 670.93L537.68 756.674L535.819 785.019C535.419 790.731 535.292 795.749 533.903 801.321C532.514 806.911 519.603 814.517 515.281 811.729Z" fill="#A0A0A1"/>
<path d="M551.999 253.104C553.702 252.161 555.477 252.676 557.252 253.187C567.966 256.272 570.504 264.582 569.914 274.496C567.966 307.131 565.496 339.67 563.444 372.259L543.464 670.93L537.68 756.674L535.819 785.019C535.42 790.731 535.292 795.749 533.903 801.321C532.514 806.911 519.603 814.517 515.281 811.729C519.335 810.199 523.366 807.878 525.078 803.751C526.058 801.371 527.157 799.4 527.343 796.78C528.033 787.012 528.614 777.19 529.232 767.422L532.523 716.413L542.293 569.775L555.776 370.32C557.974 337.104 560.384 303.823 562.259 270.584C562.409 267.923 562.128 265.306 561.097 262.838C558.755 257.204 557.442 255.542 551.999 253.104Z" fill="#CFCFCF"/>
<path d="M245.973 819.858C235.108 822.378 224.887 816.357 224.389 804.759C223.564 785.523 223.048 766.242 222.432 746.997L219.269 652.907L210.772 398.261L208.246 321.011C207.92 312.15 205.542 279.49 207.36 272.735C208.647 267.958 211.25 263.657 215.66 261.233C221.192 258.192 226.947 258.651 232.768 260.399C235.354 259.406 239.136 260.532 241.574 261.642C246.036 263.673 250.021 267.506 251.706 272.169C254.4 279.625 253.958 308.784 254.249 319.07C255.455 366.428 256.413 413.792 257.124 461.158L261.717 665.454L263.989 752.923C264.412 769.652 264.807 786.372 265.105 803.101C265.246 811.048 262.018 817.465 254.003 819.658C251.739 820.28 248.042 821.243 245.973 819.858Z" fill="#B1B0B1"/>
<path d="M232.768 260.399C235.354 259.406 239.136 260.532 241.574 261.642C246.036 263.673 250.021 267.506 251.706 272.169C254.4 279.625 253.958 308.784 254.249 319.07C255.455 366.428 256.413 413.792 257.124 461.158L261.717 665.454L263.989 752.923C264.412 769.652 264.807 786.372 265.105 803.101C265.246 811.048 262.018 817.465 254.003 819.658C251.739 820.28 248.042 821.243 245.973 819.858C259.172 814.172 255.807 802.693 255.892 790.904C255.928 785.918 255.706 780.782 255.59 775.796L253.885 711.468L245.834 390.517L244.057 305.951C243.817 296.947 243.815 287.927 243.426 278.918C243.038 269.908 240.453 265.233 232.768 260.399Z" fill="#DAD9DA"/>
<path d="M333.011 261.248C340.409 260.464 351.086 266.694 351.926 274.27C353.408 287.639 352.738 302.247 352.712 315.806L352.294 412.16L350.921 652.222L350.592 742.075C350.603 763.041 350.781 784.047 350.523 805.009C350.469 809.327 350.384 812.097 347.904 815.812C344.716 820.589 341.57 822.092 336.202 823.273C327.637 823.627 319.598 819.218 318.439 809.691C317.745 803.992 318.235 796.231 318.235 790.337L318.185 751.084L317.274 613.755L316.382 389.209L315.948 314.822C315.922 303.071 315.811 291.256 316.036 279.512C316.12 275.128 317.256 271.564 320 268.071C323.445 263.684 327.535 261.936 333.011 261.248Z" fill="#B1B0B1"/>
<path d="M441.628 258.906C444.009 258.653 447.662 258.443 449.938 259.244C454.655 260.906 458.85 263.936 461.161 268.465C462.768 271.618 463.176 275.328 463.081 278.818C462.16 313.233 460.398 347.619 459.227 382.025L449.739 652.19L445.604 764.589C445.286 772.958 445.195 803.447 443.194 809.009C441.355 814.113 438.44 817.083 433.599 819.367C429.327 820.534 425.315 821.007 421.188 819.009C417.553 817.256 415.131 813.986 413.886 810.204C411.445 802.797 413.921 762.132 414.234 751.338L416.271 676.044L423.272 400.95L425.5 313.608C425.815 301.884 426.103 290.159 426.377 278.438C426.479 274.043 427.533 269.989 430.083 266.377C433.097 262.107 436.824 260.403 441.628 258.906Z" fill="#B1B0B1"/>
<path d="M122.051 252.586C144.601 251.293 142.573 273.734 143.375 289.39C143.984 301.831 144.674 314.268 145.447 326.7L153.786 471.112L165.684 686.928L170.014 761.978C170.659 773.889 171.359 785.913 171.748 797.843C171.838 800.626 170.246 805.535 168.547 807.674C165.99 810.889 161.937 811.82 158.127 812.388C141.834 809.668 142.682 798.033 141.835 784.488L140.288 760.434L132.956 650.45L115.728 391.543C113.175 351.839 109.942 312.171 108.118 272.427C107.648 262.179 112.028 255.259 122.051 252.586Z" fill="#B1B0B1"/>
</svg>
