<svg width="84" height="62" viewBox="0 0 84 62" fill="none" xmlns="http://www.w3.org/2000/svg">
<path d="M0.265105 5.40026C1.3511 4.64526 2.50261 3.98529 3.70611 3.43529C12.7861 -0.82971 23.9686 -1.02977 33.3751 2.31523C36.5156 2.53523 42.5731 6.24024 45.3916 7.82524L45.6271 8.78026C43.6441 11.1603 34.5596 15.3952 31.6611 20.5702L30.9836 21.1103C29.6306 20.7153 29.8761 20.4853 29.0071 18.9303L26.8121 19.2803L25.9221 18.5503L25.5726 18.8202C25.8836 20.1052 26.1351 20.2653 25.7941 21.4253C23.8666 20.7303 24.2811 20.3503 23.6716 18.3603L22.2451 19.7103C21.6866 21.4403 20.9201 24.0903 20.1746 25.6603L20.4211 26.4803C20.2841 29.9453 20.4366 36.8802 16.0531 37.0052C14.5006 36.1552 14.1431 35.9453 12.8146 34.7703C7.4286 29.7553 4.3631 24.7553 1.5831 18.0453L0.693114 16.1253C0.210114 13.2453 -0.304408 12.1402 0.914092 9.56523C-0.294409 7.51523 -0.0683953 7.42526 0.265105 5.40026Z" fill="#595F7D"/>
<path d="M2.39511 15.4004L5.8501 16.2154L7.97311 16.6004C10.0021 19.7154 18.5261 19.1654 22.2451 19.7104C21.6866 21.4404 20.9201 24.0904 20.1746 25.6604L20.4211 26.4804C20.2841 29.9454 20.4366 36.8804 16.0531 37.0054C14.5006 36.1554 14.1431 35.9454 12.8146 34.7704C7.42861 29.7554 4.3631 24.7554 1.5831 18.0454L0.693115 16.1254L2.39511 15.4004Z" fill="#394465"/>
<path d="M2.39511 15.4004L5.8501 16.2154L7.97311 16.6004L7.8031 18.0054C7.5731 20.9104 12.9246 30.5054 14.9086 31.8254L12.8146 34.7704C7.42861 29.7554 4.3631 24.7554 1.5831 18.0454L0.693115 16.1254L2.39511 15.4004Z" fill="#262F4E"/>
<path d="M2.39511 15.4004L5.8501 16.2154L7.97311 16.6004L7.8031 18.0054C5.7401 17.8154 3.6551 17.9604 1.5831 18.0454L0.693115 16.1254L2.39511 15.4004Z" fill="#14192F"/>
<path d="M20.1746 25.6602L20.4211 26.4802C20.2841 29.9452 20.4366 36.8801 16.0531 37.0051C14.5006 36.1551 14.1431 35.9451 12.8146 34.7701L14.9086 31.8251C16.1726 30.0151 18.3571 26.7402 20.1746 25.6602Z" fill="#14192F"/>
<path d="M33.3751 2.31543C36.5156 2.53543 42.5731 6.24044 45.3916 7.82544L45.6271 8.78046C43.6441 11.1605 34.5596 15.3954 31.6611 20.5704L30.9836 21.1105C29.6306 20.7155 29.8761 20.4855 29.0071 18.9305C30.0031 18.4205 29.8906 17.8704 30.3441 16.5154L28.3566 15.0654L28.3136 14.5005L28.8406 5.88544C30.6391 4.74544 31.7901 3.70043 33.3751 2.31543Z" fill="#D6D4D8"/>
<path d="M45.3916 7.8252L45.6271 8.78021C43.6441 11.1602 34.5596 15.3952 31.6611 20.5702L30.9836 21.1102C29.6306 20.7152 29.8761 20.4852 29.0071 18.9302C30.0031 18.4202 29.8906 17.8702 30.3441 16.5152L31.0176 16.6552C33.4021 13.0702 37.3966 11.6202 40.8246 8.75024L40.9911 8.25519C42.9951 8.36019 43.4171 8.2602 45.3916 7.8252Z" fill="#A9A8B3"/>
<path d="M40.8246 8.75C37.3966 11.62 33.4021 13.07 31.0176 16.655L30.3441 16.515L28.3566 15.0649L28.3136 14.5C28.5411 13.8 28.8371 13.115 29.1136 12.43C33.1226 10.43 36.3236 9.21 40.8246 8.75Z" fill="white"/>
<path d="M0.914055 9.56543C2.59655 10.4304 4.63907 11.3504 5.97057 12.6404L5.86358 13.5005L6.58508 14.8505C6.29308 15.7605 6.46806 15.6805 5.85006 16.2155L2.39507 15.4005L0.693077 16.1255C0.210077 13.2455 -0.304445 12.1404 0.914055 9.56543Z" fill="#606585"/>
<path d="M2.39517 15.4003C2.35417 14.2353 2.31767 14.1453 2.71567 13.0703C3.63717 13.7403 3.77267 13.8253 4.86767 14.1303L5.86368 13.5004L6.58517 14.8503C6.29317 15.7603 6.46816 15.6803 5.85016 16.2153L2.39517 15.4003Z" fill="#4A5478"/>
<path d="M23.6716 18.3602C24.6066 17.0452 25.9456 14.7402 27.2721 14.1802L28.3566 15.0651L30.3441 16.5151C29.8906 17.8701 30.0031 18.4202 29.0071 18.9302L26.8121 19.2802L25.9221 18.5502L25.5726 18.8201C25.8836 20.1051 26.1351 20.2652 25.7941 21.4252C23.8666 20.7302 24.2811 20.3502 23.6716 18.3602Z" fill="#262F4E"/>
<path d="M0.265105 5.40039C3.3556 6.80539 4.56511 8.66037 5.99261 11.6954L5.97061 12.6404C4.63911 11.3504 2.59659 10.4304 0.914092 9.56537C-0.294409 7.51537 -0.0683953 7.42539 0.265105 5.40039Z" fill="#262F4E"/>
<path d="M13.8936 8.87534C13.6991 7.43534 13.5836 8.0403 14.7226 6.5253C16.1156 5.7903 16.3061 5.78532 17.8761 5.98532C20.5311 7.75032 19.9086 8.90031 18.2951 11.1003L17.8376 10.9703L17.7641 10.7803C17.1226 11.6053 15.9906 11.8653 15.0531 11.4053C14.1156 10.9403 13.6316 9.88534 13.8936 8.87534Z" fill="#040404"/>
<path d="M13.8936 8.87534C13.6991 7.43534 13.5836 8.0403 14.7226 6.5253C16.1156 5.7903 16.3061 5.78532 17.8761 5.98532C20.5311 7.75032 19.9086 8.90031 18.2951 11.1003L17.8376 10.9703L17.7641 10.7803C18.3136 10.0753 18.3811 9.10529 17.9351 8.33029C17.4891 7.55529 16.6176 7.12533 15.7311 7.24533C14.8441 7.36533 14.1181 8.01034 13.8936 8.87534Z" fill="#CFCED3"/>
<path d="M25.7941 21.4253C26.1351 20.2653 25.8836 20.1053 25.5726 18.8203L25.9221 18.5503L26.8121 19.2803L29.0071 18.9303C29.8761 20.4853 29.6306 20.7153 30.9836 21.1103L31.6611 20.5703C33.0606 21.3803 33.5877 21.7403 34.8557 22.7603L34.4126 23.2853L34.6601 23.4303C38.4231 25.6553 38.4911 26.4553 42.9456 28.1653L44.4756 29.1953C45.2896 28.6803 45.0821 29.0253 45.3201 28.2853C46.3281 29.2603 47.2246 30.1103 48.2886 31.0303C49.1571 31.7903 49.8631 32.4003 50.8001 33.1003L51.3146 32.6553L53.2576 34.8903C54.2931 37.6553 61.0726 38.6803 60.1871 42.2503C57.6566 40.3703 55.0616 38.6203 52.4581 36.8403C51.3846 36.0303 50.6836 35.9503 49.4031 35.6453C48.4821 35.5853 47.3156 35.4003 46.4951 35.7303L45.2156 37.7803L45.0316 37.4053L45.1831 35.6203C44.1401 34.1603 44.7186 34.5803 43.0051 34.0453C41.1876 34.6403 41.7911 34.2553 40.6431 35.9753L37.5276 34.1603C37.8516 33.5053 38.1707 32.6103 38.4417 31.9053C37.7977 30.2703 38.2416 30.7253 36.8761 30.0453C33.5221 31.2203 31.9582 39.5553 31.9117 42.8203C32.5987 43.6653 32.7996 43.7852 32.9841 44.8152C31.7361 46.2102 32.3586 45.8403 30.6641 46.3303C25.6951 44.8253 30.6681 31.2103 31.7836 27.8303C31.3931 26.3753 30.8071 26.3453 29.3741 25.2353C28.2921 25.1303 28.2811 24.8253 27.3396 23.9853C27.2496 22.9303 26.5531 22.4053 25.7941 21.4253Z" fill="#A9A8B3"/>
<path d="M26.8121 19.2802L29.0071 18.9302C29.8761 20.4852 29.6306 20.7152 30.9836 21.1102L31.6611 20.5701C33.0606 21.3801 33.5877 21.7401 34.8557 22.7601L34.4126 23.2852L34.6601 23.4302C38.4231 25.6552 38.4911 26.4552 42.9456 28.1652L44.4756 29.1951C45.2896 28.6801 45.0821 29.0252 45.3201 28.2852C46.3281 29.2602 47.2246 30.1102 48.2886 31.0302C49.1571 31.7902 49.8631 32.4002 50.8001 33.1002L51.3146 32.6552L53.2576 34.8901C54.2931 37.6551 61.0726 38.6802 60.1871 42.2502C57.6566 40.3702 55.0616 38.6201 52.4581 36.8401C51.3846 36.0301 50.6836 35.9501 49.4031 35.6451C44.5551 33.7251 45.6201 32.2502 41.7871 29.7202C37.8821 27.1452 32.7286 26.0352 28.8741 23.0952C28.2836 21.7352 27.5591 20.5602 26.8121 19.2802Z" fill="#CFCED3"/>
<path d="M65.7306 42.8152C73.6711 42.6602 77.3746 42.6802 83.4951 48.5102C81.5951 51.3352 77.1526 51.8803 73.7221 52.7703C75.8741 54.8653 77.2376 59.4552 75.0756 61.7602C69.7921 63.1252 60.7036 52.8153 63.4871 47.0203L64.4501 45.7703C65.2041 46.2353 66.4881 46.9653 67.1026 47.5303C67.0706 46.8553 65.9731 44.1052 65.7306 42.8152Z" fill="#394465"/>
<path d="M65.7306 42.8152C73.6711 42.6602 77.3746 42.6802 83.4951 48.5102C81.5951 51.3352 77.1526 51.8803 73.7221 52.7703C73.1841 52.6253 72.6691 52.1103 72.1906 51.7253C71.8806 50.1403 71.7741 50.7803 72.6281 49.3403L74.6861 48.9452C71.8556 48.2502 69.7816 50.0903 67.1026 47.5303C67.0706 46.8553 65.9731 44.1052 65.7306 42.8152Z" fill="#4A5478"/>
<path d="M74.6861 48.9449C77.9696 48.9149 79.7871 48.3299 83.4951 48.5099C81.5951 51.3349 77.1526 51.8799 73.7221 52.7699C73.1841 52.6249 72.6691 52.1099 72.1906 51.7249C71.8806 50.1399 71.7741 50.7799 72.6281 49.3399L74.6861 48.9449Z" fill="#262F4E"/>
<path d="M53.2576 34.8905C56.1416 32.3855 61.1226 28.7805 65.1481 29.0955C64.5766 31.8105 58.3471 34.0455 56.9471 36.4055C57.9866 37.6555 57.4431 37.3005 59.0011 37.7505C63.2576 36.8155 63.5466 33.2655 67.4431 34.5755L68.1781 35.5155C67.0466 38.7355 61.8451 37.7005 63.1421 41.4155C64.2206 42.1555 64.5101 42.3655 65.7306 42.8155C65.9731 44.1055 67.0706 46.8555 67.1026 47.5305C66.4881 46.9655 65.2041 46.2355 64.4501 45.7705C62.6656 45.0555 61.3656 43.7005 60.1871 42.2505C61.0726 38.6805 54.2931 37.6555 53.2576 34.8905Z" fill="#C2C1CD"/>
<path d="M49.8871 37.7148L52.4581 36.8398C55.0616 38.6198 57.6566 40.3699 60.1871 42.2499C61.3656 43.6999 62.6656 45.0548 64.4501 45.7698L63.4871 47.0198C62.1876 46.2698 60.7636 45.3348 59.4761 44.5298C57.6921 44.6498 57.4191 43.8499 56.3806 42.6749C55.7416 42.0049 55.4081 41.9699 54.5446 41.6749C50.9006 44.6649 53.8506 49.9398 51.1311 53.3348L49.9696 53.1699C47.2401 50.2799 50.1936 42.9048 50.9486 39.3398L49.8871 37.7148Z" fill="#A9A8B3"/>
<path d="M34.8556 22.7603C38.0346 19.0403 46.0316 9.76032 51.5531 13.1153L51.7936 13.9053C49.3866 17.0803 39.4711 19.6253 39.1011 24.5953C39.8286 26.0603 39.8321 25.7103 41.5661 26.6203C42.5751 27.5553 42.1136 27.2553 43.6081 27.6353L42.9456 28.1653C38.4911 26.4553 38.4231 25.6553 34.6601 23.4303L34.4126 23.2853L34.8556 22.7603Z" fill="#C2C1CD"/>
<path d="M27.3397 23.9854C28.2812 24.8254 28.2922 25.1304 29.3742 25.2354C26.0492 28.1354 25.4322 34.4053 26.0452 38.5203C25.8467 40.7203 25.8067 41.6254 23.6997 42.6154L22.4207 42.0403C21.1432 40.6503 21.2397 39.6003 21.0867 37.7053C21.6552 33.8553 22.2437 30.0053 22.8517 26.1653C24.4747 26.6453 26.0872 24.9654 27.3397 23.9854Z" fill="#C2C1CD"/>
<path d="M21.0867 37.7051C22.8312 38.0451 24.2822 38.3001 26.0452 38.5201C25.8467 40.7201 25.8067 41.6251 23.6997 42.6151L22.4207 42.0401C21.1432 40.6501 21.2397 39.6001 21.0867 37.7051Z" fill="#AEB1C9"/>
<path d="M54.9107 16.7754C56.8382 17.5804 56.6042 17.1604 57.6617 18.6704C57.0847 20.2804 56.3062 20.5904 54.6827 21.2604C50.7462 22.6804 47.9882 25.1154 45.3202 28.2854C45.0822 29.0254 45.2897 28.6804 44.4757 29.1954L42.9457 28.1654L43.6082 27.6354C42.1137 27.2554 42.5752 27.5554 41.5662 26.6204C46.1032 22.1204 49.1492 19.7054 54.9107 16.7754Z" fill="#C2C1CD"/>
<path d="M54.9106 16.7754C56.8381 17.5804 56.6041 17.1604 57.6616 18.6704C57.0846 20.2804 56.3061 20.5904 54.6826 21.2604L54.9106 16.7754Z" fill="#C2C1CD"/>
<path d="M45.0315 37.4051L45.2155 37.7801L46.495 35.7301C47.3155 35.4001 48.482 35.5851 49.403 35.6451C50.6835 35.9501 51.3845 36.0301 52.458 36.8401L49.887 37.7151C44.3385 38.4351 46.948 48.2151 44.6815 51.0451C43.3055 51.3701 43.8536 51.4401 42.6226 50.8001C40.8871 48.0001 42.6845 39.3801 45.0315 37.4051Z" fill="#C2C1CD"/>
<path d="M37.5277 34.1602L40.6431 35.9752C39.3931 39.6502 37.4441 43.3551 39.3786 46.8351L39.0611 47.8102C37.8841 48.4902 37.3741 48.9252 36.0006 48.7452L35.2171 47.7051C34.4931 43.8301 35.8837 37.7102 37.5277 34.1602Z" fill="#C2C1CD"/>
<path d="M48.2886 31.03C50.6886 27.82 58.0596 21.76 61.9051 23.385C60.6941 27.405 55.3666 27.6 51.3146 32.655L50.8001 33.1001C49.8631 32.4001 49.1571 31.79 48.2886 31.03Z" fill="#C2C1CD"/>
<path d="M56.3806 42.6753C57.4191 43.8503 57.6921 44.6503 59.4761 44.5303C57.6571 49.5603 60.5326 50.6753 56.9521 54.6703L56.0031 54.6953C54.0856 51.6953 55.4656 45.8703 56.3806 42.6753Z" fill="#AEB1C9"/>
<path d="M23.6715 18.3604C24.281 20.3504 23.8665 20.7304 25.794 21.4254C26.553 22.4054 27.2495 22.9304 27.3395 23.9854C26.087 24.9654 24.4745 26.6453 22.8515 26.1653L20.4211 26.4803L20.1746 25.6603C20.9201 24.0903 21.6866 21.4403 22.2451 19.7103L23.6715 18.3604Z" fill="#14192F"/>
</svg>
