<svg width="70" height="61" viewBox="0 0 70 61" fill="none" xmlns="http://www.w3.org/2000/svg">
<path d="M18.3312 0.0370894C20.9992 -0.245411 27.0987 1.11808 28.9142 3.02958C28.7577 3.91508 28.7017 4.24708 28.6887 5.14308C32.4787 6.96608 33.8202 5.6391 35.1642 9.3181L34.3912 11.9736C36.7362 14.6296 37.8412 13.0781 38.9152 15.4316C38.5922 17.1141 37.8097 17.7711 36.6652 19.0516C38.9242 19.9501 38.5992 19.4511 39.8682 21.1881C40.0402 22.8151 40.0712 23.8801 40.0722 25.5186L39.0602 27.1041L38.8092 27.1226C34.9742 27.4366 34.0367 27.4091 31.6187 30.2456L31.0652 31.5461L28.9962 33.6916L28.9012 38.8256C28.5517 43.0041 28.9657 44.2456 30.6757 48.0986L30.8227 49.4486C31.7022 50.4901 33.3962 52.3876 34.0582 53.4546C29.1142 53.8266 25.9542 53.9881 20.9797 53.8591C17.4922 54.0491 8.53071 52.6826 6.36521 49.7926C6.19821 48.0611 6.1882 48.6336 7.5842 46.9106C5.5002 44.4876 5.02319 43.7266 3.49469 40.9866C-5.11281 26.7791 3.06871 6.27309 18.3312 0.0370894Z" fill="#ED7F1F"/>
<path d="M27.4077 30.46C28.3792 31.868 28.4702 32.0979 28.9962 33.6914L28.9012 38.8254C28.5517 43.0039 28.9657 44.2454 30.6757 48.0984L30.8227 49.4485C31.7022 50.49 33.3962 52.3874 34.0582 53.4544C29.1142 53.8264 25.9542 53.9879 20.9797 53.8589C17.4922 54.0489 8.5307 52.6825 6.3652 49.7924C6.1982 48.0609 6.1882 48.6335 7.5842 46.9105C5.5002 44.4875 5.02319 43.7265 3.49469 40.9865C4.84969 40.297 11.9527 40.8679 14.3317 40.8539C15.7982 39.9909 18.1482 38.6305 19.4047 37.5735C22.4752 34.9905 23.6677 32.2375 27.4077 30.46Z" fill="#DF6E14"/>
<path d="M20.9797 53.8591C17.4922 54.0491 8.53067 52.6826 6.36517 49.7926C6.19817 48.0611 6.18816 48.6336 7.58416 46.9106C11.7402 50.0971 14.8322 51.4381 20.0637 52.3076C20.8887 52.4881 20.7202 52.2741 21.0397 52.7401L22.3847 52.8246L20.8296 53.1931L20.9797 53.8591Z" fill="#AEB1C9"/>
<path d="M30.8227 49.4487C31.7022 50.4902 33.3962 52.3877 34.0582 53.4547C29.1142 53.8267 25.9542 53.9882 20.9797 53.8592L20.8297 53.1932L22.3847 52.8247L21.0397 52.7402C20.7202 52.2742 20.8887 52.4882 20.0637 52.3077C24.5627 51.8372 26.7912 51.4147 30.8227 49.4487Z" fill="#C2C1CD"/>
<path d="M18.3312 0.0370894C20.9992 -0.245411 27.0987 1.11808 28.9142 3.02958C28.7577 3.91508 28.7017 4.24708 28.6887 5.14308C32.4787 6.96608 33.8202 5.6391 35.1642 9.3181L34.3912 11.9736C36.7362 14.6296 37.8412 13.0781 38.9152 15.4316C38.5922 17.1141 37.8097 17.7711 36.6652 19.0516C30.8912 18.7276 30.9087 17.4386 26.0932 20.3726C25.4467 12.7566 24.0107 15.7766 19.6052 9.7451C18.0007 7.5486 17.7532 2.75109 18.3312 0.0370894Z" fill="#F38B2D"/>
<path d="M26.0932 20.3725C30.9087 17.4385 30.8912 18.7275 36.6652 19.0515C38.9242 19.95 38.5992 19.451 39.8682 21.188C40.0402 22.815 40.0712 23.88 40.0722 25.5185L39.0602 27.104L38.8092 27.1225C34.9742 27.4365 34.0367 27.409 31.6187 30.2455C30.2862 28.21 30.0347 27.931 28.1602 26.38L28.6947 25.8675C27.4672 23.7595 26.9907 22.65 26.0932 20.3725Z" fill="#DF6E14"/>
<path d="M28.1602 26.3799C30.0347 27.9309 30.2862 28.2099 31.6187 30.2454L31.0652 31.5459L28.9962 33.6914C28.4702 32.0979 28.3792 31.8679 27.4077 30.4599L28.2437 29.8984L28.1602 26.3799Z" fill="#DF6612"/>
<path d="M13.1782 5.74951C15.0622 6.32851 16.3222 8.734 17.7162 10.591C14.7612 13.7385 12.6337 17.9065 9.33622 21.479C7.79822 21.538 7.59674 21.54 6.20774 20.894C3.81874 16.6855 9.97723 8.45551 13.1782 5.74951Z" fill="#FAC67A"/>
<path d="M41.2587 25.7997C41.8772 25.2227 41.2117 25.7622 41.8107 25.4307C44.7877 23.7817 43.9037 22.5527 47.7077 20.5422C49.5977 20.5402 49.1442 20.6432 50.9752 21.9402C53.6137 22.1187 52.2207 20.5187 55.5472 19.5112C60.0357 20.2737 56.3907 22.4607 62.6152 20.7892C64.0322 21.2017 64.6757 22.1477 65.6402 23.2502L66.3342 24.8592C71.3627 32.5502 68.9292 44.8722 63.5762 51.8567C65.1322 52.8437 66.8087 53.6342 67.3967 55.3382C66.8652 60.1432 57.5162 60.5802 53.6117 60.6127C49.0582 61.1847 35.6377 60.9512 33.2477 56.5287L33.6177 55.6487L35.6027 54.9227L34.0582 53.4547C33.3962 52.3877 31.7022 50.4902 30.8227 49.4487L30.6757 48.0987C28.9657 44.2457 28.5517 43.0042 28.9012 38.8257L28.9962 33.6917L31.0652 31.5462L31.6187 30.2457C34.0367 27.4092 34.9742 27.4367 38.8092 27.1227L39.0602 27.1042L40.0722 25.5187L41.2587 25.7997Z" fill="#FAC67A"/>
<path d="M66.3342 24.8594C71.3627 32.5504 68.9292 44.8724 63.5762 51.8569C65.1322 52.8439 66.8087 53.6344 67.3967 55.3384C66.8652 60.1434 57.5162 60.5804 53.6117 60.6129C49.0582 61.1849 35.6377 60.9514 33.2477 56.5289L33.6177 55.6489L35.6027 54.9229L34.0582 53.4549C33.3962 52.3879 31.7022 50.4904 30.8227 49.4489L30.6757 48.0989L34.5717 49.7049C37.4582 51.7849 41.2637 52.8379 44.6367 53.8829C47.7922 52.5609 50.5082 51.4144 53.1532 49.1229C57.3512 45.4859 57.7776 43.3339 58.9951 38.4829C61.9071 36.5329 62.2887 36.9224 64.2147 33.6959C65.8082 30.4539 63.8612 28.1529 66.3342 24.8594Z" fill="#F38B2D"/>
<path d="M63.5762 51.8564C65.1322 52.8434 66.8087 53.634 67.3967 55.338C66.8652 60.143 57.5162 60.58 53.6117 60.6125L49.2037 59.8625C56.0462 58.787 59.0702 56.6594 63.5762 51.8564Z" fill="#C2C1CD"/>
<path d="M35.6027 54.9229C40.7852 58.7814 42.6622 59.5679 49.2037 59.8629L53.6117 60.6129C49.0582 61.1849 35.6377 60.9513 33.2477 56.5288L33.6177 55.6488L35.6027 54.9229Z" fill="#AEB1C9"/>
<path d="M41.2587 25.7997C41.8772 25.2227 41.2117 25.7622 41.8107 25.4307C44.7877 23.7817 43.9037 22.5527 47.7077 20.5422C49.5977 20.5402 49.1442 20.6432 50.9752 21.9402C53.6137 22.1187 52.2207 20.5187 55.5472 19.5112C60.0357 20.2737 56.3907 22.4607 62.6152 20.7892C64.0322 21.2017 64.6757 22.1477 65.6402 23.2502L66.3342 24.8592C63.8612 28.1527 65.8082 30.4537 64.2147 33.6957L63.0527 32.4367C62.6267 33.0707 62.1907 33.6977 61.7457 34.3177C60.0817 36.6117 57.3547 36.1957 55.4152 40.6452C54.7262 41.0862 54.6167 41.2622 53.8382 41.4232C52.3387 40.5572 52.7717 40.5392 51.1907 40.5327L49.7522 42.0527C46.6007 42.3267 49.1807 40.8747 44.8327 40.4237L44.4357 40.5497L44.0162 40.2922C49.5212 33.2662 42.7242 34.9872 40.2127 29.6947C39.5332 28.2627 40.5212 27.1972 41.2587 25.7997Z" fill="#F38B2D"/>
<path d="M65.6402 23.25L66.3342 24.859C63.8612 28.1525 65.8082 30.4535 64.2147 33.6955L63.0527 32.4365C64.6272 30.558 61.4882 28.3545 65.6402 23.25Z" fill="#FAC67A"/>
<path d="M28.9962 33.6914L31.0652 31.5459C31.1652 35.8999 27.9287 37.8619 32.9537 41.1549C33.6097 41.5849 33.0077 46.3749 35.8492 46.2629C38.0897 46.1749 39.7242 45.2584 41.1552 47.3214C39.5877 48.5749 36.1567 47.7084 34.3032 47.2439L34.5717 49.7044L30.6757 48.0984C28.9657 44.2454 28.5517 43.0039 28.9012 38.8254L28.9962 33.6914Z" fill="#FEE59E"/>
<path d="M28.9012 38.8257C30.2852 42.7002 31.6062 44.2362 34.3032 47.2442L34.5717 49.7047L30.6757 48.0987C28.9657 44.2457 28.5517 43.0042 28.9012 38.8257Z" fill="#F2A952"/>
<path d="M44.8327 40.4238C49.1807 40.8748 46.6007 42.3268 49.7522 42.0528L51.1907 40.5328C52.7717 40.5393 52.3387 40.5573 53.8382 41.4233C51.4852 42.7873 49.8892 44.1733 47.3252 43.7168C45.9402 42.9853 45.5482 41.8338 44.8327 40.4238Z" fill="#FEE59E"/>
</svg>
