<svg width="675" height="370" viewBox="0 0 675 370" fill="none" xmlns="http://www.w3.org/2000/svg">
<path d="M193.315 123.292C194.428 118.551 194.8 114.286 196.38 109.415C202.085 91.8235 212.201 79.8748 228.418 71.3846C235.443 67.7771 243.088 65.5318 250.948 64.7664C258.575 64.0208 268.724 64.2669 276.566 64.262L322.3 64.371L388.672 64.2877C402.983 64.2926 421.503 62.8232 434.871 66.9324C455.025 73.4698 470.404 88.1854 476.976 108.411C478.205 112.186 479.412 121.251 480.888 123.791C491.211 124.543 510.924 126.847 520.673 129.93C527.706 130.911 537.133 132.896 544.509 134.625C572.161 141.107 610.671 150.227 629.47 173.093C635.93 180.952 634.922 187.578 634.876 196.599L635.054 241.388C635.064 248.404 635.953 259.195 634.217 265.762C633.093 270.02 630.169 274.06 627.074 277.145C598.937 305.218 508.557 318.816 468.753 322.972C455.325 324.299 441.874 325.406 428.411 326.291C424.149 326.577 419.822 326.558 415.596 326.91C343.222 330.216 263.874 329.814 191.952 321.428C182.012 320.348 172.096 319.048 162.213 317.527C156.392 316.64 150.432 315.829 144.771 314.233C138.271 312.467 129.991 311.056 123.146 309.445C101.621 304.379 78.5557 297.532 59.3941 286.414C51.5228 281.847 41.8361 275.122 39.7693 265.783C38.6025 260.511 39.0356 250.461 39.0574 244.799L39.1048 214.381L39.1421 195.558C39.1506 192.001 38.9397 188.3 39.3487 184.768C39.7591 181.225 40.9575 177.954 42.8411 174.94C58.9326 149.189 117.89 136.58 146.618 130.911C151.876 129.874 157.1 128.553 162.382 127.659C168.457 126.633 174.551 125.721 180.66 124.923C184.274 124.482 189.939 124.082 193.315 123.292ZM297.92 117.762C337.395 117.151 376.876 117.639 416.321 119.223C423.737 119.481 431.146 119.865 438.549 120.376C440.899 120.521 445.925 120.636 447.919 121.177C448.506 119.934 446.426 115.045 445.826 113.966C437.29 98.6202 423.302 95.4441 406.882 96.3759C400.85 96.7182 392.983 96.3729 386.777 96.3696L328.126 96.3742L283.015 96.3399C258.471 96.277 234.446 92.3003 225.27 121.083C230.068 120.402 235.577 120.346 240.492 120.035C253.1 119.329 265.716 118.762 278.336 118.335C283.82 118.188 292.64 118.451 297.92 117.762Z" fill="#D1D0D1"/>
<path d="M415.82 261.674C466.584 258.296 518.89 252.778 567.748 237.971C589.425 231.401 611.768 223.684 628.534 207.821C631.946 204.596 632.466 200.273 634.711 196.846L634.876 196.599L635.054 241.388C635.064 248.404 635.954 259.195 634.217 265.762C633.093 270.02 630.169 274.06 627.074 277.145C598.937 305.218 508.557 318.816 468.753 322.972C455.325 324.299 441.875 325.406 428.411 326.291C424.149 326.577 419.822 326.558 415.596 326.91C416.008 305.084 415.491 283.368 415.82 261.674Z" fill="#B3B2B3"/>
<path d="M480.888 123.791C491.211 124.543 510.924 126.847 520.673 129.93C518.995 133.812 515.103 138.74 512.499 142.365L503.188 155.512C499.971 160.074 492.714 171.153 489.444 174.881C487.473 161.609 484.794 147.841 482.226 134.664C481.541 131.151 481.613 127.019 480.888 123.791Z" fill="#B3B2B3"/>
<path d="M200.583 178.841C202.019 168.938 204.326 157.655 206.168 147.743L209.245 131.643C210.642 124.147 211.803 115.528 215.408 108.8C222.429 95.697 236.447 84.3526 251.581 82.7863C262.365 81.6703 274.137 82.0215 285.069 82.0034L343.96 82.0347L395.056 81.9926C403.724 82.0143 414.347 81.7596 423.052 82.748C438.796 84.5354 455.177 99.8455 460.397 114.405C462.724 120.898 463.812 130.593 465.163 137.616C466.904 146.467 468.538 155.338 470.071 164.227C470.918 168.956 472.039 174.175 472.589 178.881C466.867 178.826 459.939 179.522 458.459 172.525C455.744 159.668 453.008 146.818 450.757 133.861C450.259 130.994 449.089 123.434 447.919 121.177C448.506 119.935 446.426 115.045 445.826 113.966C437.29 98.6205 423.302 95.4443 406.882 96.3761C400.85 96.7184 392.983 96.3731 386.777 96.3698L328.126 96.3745L283.015 96.3402C258.471 96.2773 234.446 92.3005 225.27 121.083C230.068 120.402 235.577 120.347 240.492 120.036C253.1 119.329 265.716 118.762 278.336 118.335C283.82 118.188 292.64 118.451 297.92 117.762C297.131 120.516 288.029 125.415 285.354 127.242L242.132 156.287C231.821 163.327 221.948 170.732 211.633 177.74C209.56 179.148 203.146 178.853 200.583 178.841Z" fill="#B3B2B3"/>
</svg>
