<svg width="645" height="122" viewBox="0 0 645 122" fill="none" xmlns="http://www.w3.org/2000/svg">
<path d="M534.432 18.9985C525.406 8.29318 517.047 1.49661 502.368 0.17086C491.362 -0.839859 480.418 2.6639 472.044 9.87676C469.547 12.0529 466.226 15.657 463.952 18.1988C451.987 14.7438 440.4 16.078 432.42 26.5771C424.367 20.3356 421.701 20.2878 411.468 21.5197C384.135 -0.624196 358.771 0.283343 336.14 28.3632C323.793 27.1884 314.314 23.5262 305.53 34.3347L302.333 35.9361C291.195 29.2314 282.589 28.6989 269.773 31.4057C259.676 33.5359 248.698 41.3487 250.686 52.9036C229.413 53.3142 208.132 53.4436 186.85 53.2889C178.854 53.2927 151.056 51.3491 146.978 57.5784C148.403 62.8101 156.391 64.6009 161.247 64.5597C180.944 64.3918 200.622 64.3262 220.32 64.3337L349.696 64.3618C361.541 64.3375 393.829 63.6043 403.937 65.1194C407.413 62.8383 437.106 64.3478 443.154 64.6778C450.546 64.3909 457.944 64.3478 465.338 64.5475C475.002 64.5616 495.065 66.7996 501.903 60.9631C503.509 57.4734 503.1 58.9032 502.637 54.4141C547.055 53.6902 592.396 55.2588 636.811 53.6968C639.897 53.589 641.882 52.3814 643.647 49.9427C644.457 47.0306 644.269 46.6274 643.168 43.78C636.399 36.9815 623.049 38.0334 613.383 37.7531C602.992 12.8011 575.252 6.48174 553.458 21.1625C546.054 17.4046 542.681 15.7986 534.432 18.9985Z" fill="#7EDCEE"/>
<path d="M534.432 18.9985C525.406 8.29318 517.047 1.49661 502.368 0.17086C491.362 -0.839859 480.418 2.6639 472.044 9.87676C469.547 12.0529 466.226 15.657 463.952 18.1988C451.987 14.7438 440.4 16.078 432.42 26.5771L431.947 29.8521C422.32 29.7808 418.335 28.9529 412.257 37.4297C416.313 37.1615 421.344 36.3599 424.861 37.9528C425.942 40.3399 425.546 39.7427 424.903 42.9023C416.185 43.2577 393.411 40.8565 389.857 48.5354C390.026 49.7477 390.096 51.8826 391.543 52.1751C416.428 57.2071 480.016 50.1621 502.637 54.4141C547.055 53.6902 592.396 55.2588 636.811 53.6968C639.897 53.589 641.882 52.3814 643.647 49.9427C644.457 47.0306 644.269 46.6274 643.168 43.78C636.399 36.9815 623.049 38.0334 613.383 37.7531C602.992 12.8011 575.252 6.48174 553.458 21.1625C546.054 17.4046 542.681 15.7986 534.432 18.9985Z" fill="#FEFEFD"/>
<path d="M534.432 18.9985C525.406 8.29318 517.047 1.49661 502.368 0.17086C491.362 -0.839859 480.418 2.6639 472.044 9.87676C469.547 12.0529 466.226 15.657 463.952 18.1988C451.987 14.7438 440.4 16.078 432.42 26.5771L431.948 29.8521C422.32 29.7808 418.335 28.9529 412.257 37.4297C416.313 37.1615 421.344 36.3599 424.861 37.9528C425.942 40.3399 425.546 39.7427 424.903 42.9023L425.557 42.7139C438.269 43.5052 452.265 42.3342 466.128 42.9914C466.969 41.7857 467.88 40.6296 468.856 39.5308C476.464 30.8665 484.039 34.9422 493.36 33.6484C505.971 31.8979 516.355 27.7997 528.787 33.6587C533.432 35.8489 537.048 35.4589 542.278 35.1419C545.869 28.5732 548.128 26.4983 553.458 21.1625C546.054 17.4046 542.682 15.7986 534.432 18.9985Z" fill="#C4ECF7"/>
<path d="M431.947 29.852C422.32 29.7808 418.335 28.9529 412.257 37.4296C416.312 37.1615 421.344 36.3598 424.861 37.9528C425.941 40.3399 425.546 39.7426 424.903 42.9023L425.557 42.7139C431.416 41.344 443.8 43.9543 447.485 38.7122C445.626 34.7069 436.356 30.213 431.947 29.852Z" fill="#94E3E9"/>
<path d="M411.468 21.5198C384.136 -0.624118 358.771 0.283421 336.14 28.3632C323.793 27.1884 314.314 23.5262 305.53 34.3347L302.333 35.9362C300.805 39.9368 295.086 42.9427 291.195 53.2871L306.121 53.3416C318.805 53.4072 332.043 53.4231 344.718 53.6153C357.581 53.8113 352.996 48.3113 359.021 43.1546C368.288 35.2245 399.916 37.4185 412.257 37.4297C418.335 28.953 422.32 29.7809 431.948 29.8521L432.42 26.5772C424.367 20.3356 421.702 20.2878 411.468 21.5198Z" fill="#FEFEFD"/>
<path d="M306.12 53.3414C309.617 31.3681 329.811 39.2326 334.948 30.3621C328.292 26.5086 312.683 33.3727 305.529 34.3346L302.332 35.936C300.804 39.9367 295.085 42.9426 291.195 53.287L306.12 53.3414Z" fill="#AAE6F3"/>
<path d="M302.333 35.9361C291.196 29.2314 282.589 28.6989 269.773 31.4057C259.677 33.5359 248.698 41.3488 250.686 52.9036C261.861 53.9444 279.599 53.3771 291.196 53.2871C295.086 42.9427 300.805 39.9368 302.333 35.9361Z" fill="#FEFEFD"/>
<path d="M247.282 81.4898C230.717 73.6609 233.651 78.1239 217.338 76.7737C194.163 74.8423 173.932 68.7386 154.638 87.256C147.147 87.6216 140.716 87.8091 133.478 90.228C132.494 92.5439 125.172 96.1349 122.266 97.8506C118.994 99.3414 118.534 99.3509 114.934 99.2478C112.065 102.998 112.244 104.395 111.915 109.092L112.947 110.508C115.29 108.492 140.875 109.149 146.097 109.064C170.622 108.867 195.157 108.886 219.682 109.12C228.523 109.224 242.482 109.008 250.929 109.617C250.086 114.165 249.617 113.152 251.098 117.024C257.708 123.738 296.614 120.69 307.761 120.859C343.818 121.478 379.887 121.731 415.951 121.609C431.219 121.637 446.791 121.806 462.064 121.347C468.113 121.168 472.125 121.028 474.83 115.159C474.573 105.876 464.611 107.133 457.865 107.18C452.609 107.217 447.593 107.114 442.341 106.908C435.324 92.1033 432.198 96.1349 418.187 92.1314C415.503 91.4001 412.93 88.0717 410.622 87.0778C385.695 76.3612 367.039 80.5804 347.549 97.7195C342.562 96.6131 340.471 96.1818 335.812 94.1754C327.027 91.4657 312.036 91.3813 303.861 96.0224C295.789 74.486 265.667 72.3671 247.282 81.4898Z" fill="#FEFEFD"/>
<path d="M247.282 81.4898C230.717 73.6609 233.651 78.1239 217.338 76.7737C194.163 74.8423 173.932 68.7386 154.638 87.256C147.147 87.6216 140.716 87.8091 133.478 90.228C132.494 92.5439 125.172 96.1349 122.265 97.8506C118.994 99.3414 118.534 99.3509 114.934 99.2478C112.065 102.998 112.243 104.395 111.915 109.092L112.947 110.508C115.29 108.492 140.875 109.149 146.097 109.064C147.128 103.645 147.166 103.345 150.381 99.032C167.969 96.4911 211.395 97.4475 230.276 97.7475C235.732 88.3341 238.132 87.1528 247.282 81.4898Z" fill="#AAE6F3"/>
<path d="M122.265 97.8506C118.993 99.3414 118.534 99.3508 114.934 99.2477C112.065 102.998 112.243 104.395 111.915 109.092L112.946 110.508C115.29 108.492 140.875 109.149 146.097 109.064C147.128 103.645 147.165 103.345 150.381 99.032C141.128 97.8225 131.818 99.3038 122.265 97.8506Z" fill="#DEF2F6"/>
<path d="M281.201 109.927C270.411 108.652 261.748 107.836 250.929 109.617C250.085 114.165 249.616 113.152 251.098 117.024C257.707 123.737 296.614 120.69 307.761 120.859C306.12 119.293 303.964 117.624 302.183 116.162C297.148 116.218 272.061 117.456 269.473 113.996C272.398 111.089 277.001 110.752 281.201 109.927Z" fill="#DEF2F6"/>
<path d="M335.812 94.1753C327.027 91.4657 312.036 91.3813 303.861 96.0224C308.493 99.6227 330.121 96.96 335.812 94.1753Z" fill="#C4ECF7"/>
<path d="M107.621 96.5099C103.449 97.6256 101.199 95.413 96.7836 94.6723C79.7303 91.8314 63.802 90.5937 48.7831 99.7352C36.9986 99.6977 8.44206 97.335 0.735727 104.704C-0.173658 107.592 -0.314284 106.551 0.735727 108.914C3.14513 112.233 4.49516 114.39 8.83583 115.027C19.5609 116.612 105.952 117.118 111.606 112.411C112.159 111.952 112.599 111.108 112.946 110.508L111.915 109.092C112.243 104.395 112.065 102.998 114.934 99.2477L108.849 99.0789C107.931 98.6101 108.146 98.0944 107.621 96.5099Z" fill="#AAE6F3"/>
<path d="M101.406 108.155C77.968 109.224 53.4615 108.202 29.9019 108.558C21.1643 108.689 9.35166 108.173 0.735946 108.914C3.14535 112.233 4.49538 114.39 8.83605 115.027C19.5612 116.612 105.953 117.118 111.606 112.411C112.159 111.952 112.6 111.108 112.946 110.508L111.915 109.092L101.406 108.155Z" fill="#FEFEFD"/>
<path d="M114.934 99.2477L108.849 99.0789C107.537 102.764 104.302 105.304 101.406 108.155L111.915 109.092C112.243 104.395 112.065 102.998 114.934 99.2477Z" fill="#AAE6F3"/>
<path d="M487.136 83.5149C480.144 83.0555 450.981 88.0153 445.061 90.9031C447.643 93.444 465.044 93.2001 469.374 93.3127C476.395 93.4345 506.911 93.6878 511.701 91.6251C508.909 87.7622 497.576 88.1841 493.367 85.8213C491.349 84.6962 489.351 84.1806 487.136 83.5149Z" fill="#FEFEFD"/>
<path d="M443.154 64.6779C437.105 64.3478 407.413 62.8383 403.937 65.1194C399.953 65.6904 396.855 65.727 393.595 67.9697L393.941 69.0761C399.074 70.6043 464.783 71.1762 471.52 69.5167C472.301 68.0635 472.529 68.026 472.415 66.4218C465.77 66.1714 447.488 67.0527 443.273 65.9717L443.154 64.6779Z" fill="#FEFEFD"/>
<path d="M133.478 90.228C126.418 88.0997 111.915 87.7528 107.265 94.4659L107.621 96.5099C108.146 98.0944 107.931 98.6101 108.849 99.0789L114.934 99.2477C118.534 99.3508 118.993 99.3413 122.265 97.8506C125.171 96.1348 132.493 92.5438 133.478 90.228Z" fill="#FEFEFD"/>
<path d="M465.338 64.5475C457.944 64.3478 450.546 64.391 443.155 64.6779L443.274 65.9717C447.489 67.0528 465.77 66.1715 472.415 66.4218L465.338 64.5475Z" fill="#FEFEFD" fill-opacity="0.733333"/>
</svg>
