<svg width="748" height="298" viewBox="0 0 748 298" fill="none" xmlns="http://www.w3.org/2000/svg">
<path d="M121.808 235.431C126.536 234.747 143.159 235.07 148.773 235.072L202.515 235.089C206.463 235.089 220.452 235.355 223.521 234.475C232.52 239.017 238.974 244.086 244.107 253.064C255.755 249.489 266.187 253.488 271.98 264.33C288.063 265.028 304.544 263.234 320.184 265.306C329.498 266.537 337.468 282.659 329.866 288.355C321.025 294.975 296.169 291.95 285.076 292.281C245.226 292.798 204.609 292.003 164.661 292.251C152.976 292.318 118.34 293.264 108.674 291.808C106.055 287.064 106.385 286.374 108.817 281.78L98.37 281.795C98.0923 275.468 98.6327 270.702 99.2105 264.428C102.67 249.339 109.462 243.769 121.808 235.431Z" fill="#61CCE8"/>
<path d="M125.801 277.907C127.887 269.149 130.581 262.221 138.409 256.855C143.782 253.15 150.417 251.758 156.826 252.991C164.706 254.47 170.815 258.836 175.235 265.411C178.222 264.277 186.523 264.135 189.104 266.221C204.384 258.964 217.233 260.382 227.71 274.575C239.65 270.207 245.969 272.684 254.097 281.773C268.476 281.833 282.593 282.966 296.935 283.199C302.241 283.281 319.149 281.465 323.344 283.206L324.012 284.798C319.937 289.181 297.085 286.802 289.917 287.154C288.507 288.753 286.683 290.99 285.077 292.28C245.226 292.798 204.61 292.003 164.661 292.251C152.976 292.318 118.341 293.264 108.675 291.808C106.055 287.064 106.386 286.374 108.817 281.78C113.92 276.827 118.964 277.825 125.801 277.907Z" fill="#FEFEFD"/>
<path d="M175.235 265.411C178.222 264.278 186.523 264.135 189.104 266.222C185.57 269.501 185.134 272.871 180.068 273.412C176.901 271.776 176.496 268.938 175.235 265.411Z" fill="#61CCE8"/>
<path d="M244.107 253.064C255.755 249.489 266.187 253.488 271.981 264.33C262.78 265.343 257.046 265.201 247.92 264.653C246.989 260.179 245.758 257.273 244.107 253.064Z" fill="#7EDCEE"/>
<path d="M244.205 199.66C246.982 194.741 248.198 192.353 252.723 189C259.793 183.849 268.618 181.72 277.256 183.083C286.405 184.595 293.64 189.781 298.998 197.172C313.415 196.266 318.901 196.687 330.624 205.383C346.286 196.694 365.364 199.209 373.882 216.149C384.869 216.654 397.432 213.194 400.329 226.653C403.233 229.704 406.04 229.915 407.174 232.535C406.866 233.856 406.963 234.573 405.725 235.33C403.106 236.941 398.19 237.19 395.173 237.34C380.081 238.086 265.091 238.51 257.414 236.278C255.92 235.843 254.982 235.348 253.961 234.177C253.811 231.034 255.38 230.929 258.164 229.926C255.125 229.884 254.457 230.146 253.954 227.091C255.612 223.116 260.16 220.358 263.665 218.109C245.083 215.884 209.36 220.003 194.455 214.814C196.744 213.556 201.922 210.665 203.844 210.349C215.581 208.416 219.109 211.158 226.711 200.412C228.857 197.387 239.574 198.607 244.205 199.66Z" fill="#61CCE8"/>
<path d="M244.205 199.66C246.982 194.741 248.198 192.353 252.723 189C259.793 183.849 268.618 181.72 277.256 183.083C286.405 184.595 293.64 189.781 298.998 197.172C313.415 196.266 318.901 196.687 330.624 205.383C335.029 209.061 337.776 210.766 335.659 216.769L331.172 216.429C324.545 215.836 306.54 216.013 298.931 215.857C297.722 216.422 296.522 217.142 295.231 217.184C288.251 215.786 270.9 216.634 263.665 218.109C245.083 215.884 209.36 220.003 194.455 214.814C196.744 213.556 201.922 210.665 203.844 210.349C215.581 208.416 219.109 211.158 226.711 200.412C228.857 197.387 239.574 198.607 244.205 199.66Z" fill="#FEFEFD"/>
<path d="M298.931 215.857C305.663 209.29 311.952 208.53 321.4 208.266C325.393 210.441 329.401 212.105 331.172 216.428C324.545 215.836 306.541 216.013 298.931 215.857Z" fill="#AAE6F3"/>
<path d="M330.624 205.383C346.287 196.693 365.364 199.209 373.882 216.149C366.64 215.858 363.728 215.829 357.049 219.151C354.805 220.268 346.024 226.11 344.778 226.137C340.463 219.043 340.178 221.374 335.66 216.768C337.776 210.766 335.029 209.061 330.624 205.383Z" fill="#C4ECF7"/>
<path d="M263.665 218.109C270.9 216.634 288.251 215.786 295.231 217.184C283.433 217.758 283.733 219.227 276.874 228.253C269.587 228.015 264.821 226.892 258.164 229.926C255.125 229.884 254.457 230.146 253.954 227.091C255.613 223.116 260.161 220.358 263.665 218.109Z" fill="#AAE6F3"/>
<path d="M23.9671 223.936C29.7684 210.788 40.6055 216.802 42.3316 213.815C58.0543 186.603 85.7398 183.288 107.737 204.931L112.892 202.419C130.244 194.124 152.045 196.737 159.505 216.487C169.862 216.037 177.194 214.683 184.219 223.851C192.857 227.436 240.956 224.849 247.658 229.288L248.281 230.805C245.256 235.967 230.441 232.151 223.522 234.475C220.452 235.355 206.463 235.089 202.516 235.089L148.773 235.072C143.16 235.07 126.536 234.747 121.808 235.431C94.1452 233.156 36.5453 237.865 6.70585 234.166C5.11482 233.747 3.57638 231.364 3.48632 229.984C2.98349 222.124 18.8112 223.858 23.9671 223.936Z" fill="#94E3E9"/>
<path d="M149.786 224.323C161.261 224.048 172.744 223.89 184.219 223.851C192.857 227.436 240.956 224.849 247.658 229.288L248.281 230.805C245.256 235.967 230.441 232.151 223.522 234.475C220.452 235.355 206.463 235.089 202.516 235.089L148.773 235.072C143.16 235.07 126.536 234.747 121.808 235.431C94.1452 233.156 36.5453 237.865 6.70585 234.166C5.11482 233.747 3.57638 231.364 3.48632 229.984C2.98349 222.124 18.8112 223.858 23.9671 223.935C65.6267 224.017 108.217 223.637 149.786 224.323Z" fill="#FEFEFD"/>
<path d="M112.893 202.419C130.244 194.124 152.046 196.737 159.505 216.487C169.862 216.037 177.194 214.683 184.219 223.851C172.744 223.89 161.262 224.048 149.787 224.323C142.402 216.485 140.976 222.21 135.1 218.294C125.298 211.756 124.593 207.838 112.893 202.419Z" fill="#AAE6F3"/>
<path d="M76.0361 277.772C79.8486 265.336 87.7663 264.39 99.2112 264.428C98.6334 270.702 98.093 275.468 98.3707 281.795L108.818 281.78C106.386 286.374 106.056 287.064 108.675 291.808C89.3273 291.11 69.4093 292.371 50.0467 291.44C43.3674 291.117 40.8158 287.92 42.1517 281.24C47.3676 276.256 67.2329 278.035 76.0361 277.772Z" fill="#CFEEF5"/>
<path d="M76.0358 277.772C79.8483 265.336 87.766 264.39 99.2109 264.428C98.633 270.702 98.0927 275.468 98.3704 281.795C83.5107 281.675 55.7652 282.613 42.1514 281.24C47.3673 276.256 67.2326 278.035 76.0358 277.772Z" fill="#7EDCEE"/>
<path d="M378.926 283.492C387.677 276.744 400.202 278.013 409.148 283.792C417.291 283.972 431.017 282.666 436.383 287.957C436.894 290.067 437.021 289.098 436.121 290.975C435.67 291.598 433.081 295.118 432.586 295.178C420.375 296.641 372.997 300.679 366.183 291.102C368.164 283.724 372.187 284.1 378.926 283.492Z" fill="#61CCE8"/>
<path d="M366.183 291.102C383.729 290.352 418.589 290.089 436.121 290.975C435.67 291.598 433.081 295.118 432.586 295.178C420.375 296.641 372.997 300.679 366.183 291.102Z" fill="#FEFEFD"/>
<path d="M378.926 283.492C387.676 276.744 400.202 278.013 409.148 283.792C402.626 284.565 385.32 284.227 378.926 283.492Z" fill="#AAE6F3"/>
<path d="M127.289 22.042C137.761 9.6217 147.459 1.73636 164.49 0.198231C177.259 -0.974401 189.957 3.09064 199.672 11.459C202.568 13.9837 206.422 18.1652 209.06 21.1142C222.942 17.1057 236.385 18.6536 245.643 30.8346C254.986 23.5932 258.079 23.5378 269.952 24.9671C301.663 -0.724189 331.09 0.328733 357.347 32.9068C371.672 31.5438 382.669 27.2949 392.861 39.8349L396.57 41.6929C409.491 33.9141 419.476 33.2963 434.345 36.4367C446.06 38.9082 458.797 47.9726 456.491 61.3785C481.171 61.8549 505.861 62.0051 530.552 61.8256C539.83 61.8299 572.08 59.575 576.811 66.8022C575.158 72.872 565.891 74.9497 560.257 74.9018C537.404 74.7071 514.574 74.631 491.721 74.6397L341.619 74.6723C327.876 74.644 290.416 73.7934 278.688 75.5512C274.656 72.9046 240.207 74.656 233.189 75.0389C224.614 74.7061 216.031 74.656 207.452 74.8877C196.24 74.904 172.962 77.5006 165.03 70.7291C163.167 66.6804 163.641 68.3392 164.178 63.1309C112.644 62.2912 60.04 64.111 8.5094 62.2988C4.92979 62.1737 2.62604 60.7726 0.578996 57.9433C-0.360773 54.5646 -0.143248 54.0969 1.13479 50.7933C8.98795 42.9058 24.4767 44.1262 35.6909 43.801C47.7458 14.8518 79.9307 7.52009 105.215 24.5526C113.806 20.1928 117.718 18.3294 127.289 22.042Z" fill="#7EDCEE"/>
<path d="M127.289 22.042C137.761 9.6217 147.459 1.73636 164.49 0.198231C177.259 -0.974401 189.956 3.09064 199.672 11.459C202.568 13.9837 206.422 18.1652 209.06 21.1142C222.942 17.1057 236.385 18.6536 245.643 30.8346L246.191 34.6342C257.361 34.5515 261.985 33.5911 269.036 43.4257C264.331 43.1146 258.493 42.1845 254.413 44.0327C253.159 46.8022 253.618 46.1093 254.364 49.7751C264.479 50.1874 290.901 47.4015 295.025 56.3105C294.829 57.717 294.747 60.1939 293.069 60.5333C264.197 66.3714 190.422 58.1978 164.178 63.1309C112.644 62.2912 60.04 64.111 8.5094 62.2988C4.92979 62.1737 2.62604 60.7726 0.578996 57.9433C-0.360773 54.5646 -0.143248 54.0969 1.13479 50.7933C8.98795 42.9058 24.4767 44.1262 35.6909 43.801C47.7458 14.8518 79.9307 7.52009 105.215 24.5526C113.806 20.1928 117.718 18.3294 127.289 22.042Z" fill="#FEFEFD"/>
<path d="M127.289 22.042C137.761 9.6217 147.459 1.73636 164.49 0.198231C177.258 -0.974401 189.956 3.09064 199.671 11.459C202.568 13.9837 206.422 18.1652 209.059 21.1142C222.941 17.1057 236.384 18.6536 245.643 30.8346L246.191 34.6342C257.361 34.5515 261.984 33.5911 269.036 43.4257C264.33 43.1146 258.493 42.1845 254.413 44.0327C253.159 46.8022 253.618 46.1093 254.364 49.7751L253.605 49.5565C238.857 50.4746 222.618 49.1159 206.535 49.8785C205.559 48.4796 204.502 47.1383 203.369 45.8634C194.543 35.8112 185.754 40.5398 174.94 39.0387C160.309 37.0078 148.261 32.253 133.839 39.0506C128.449 41.5917 124.254 41.1392 118.186 40.7715C114.02 33.1505 111.399 30.7432 105.215 24.5526C113.805 20.1928 117.718 18.3294 127.289 22.042Z" fill="#C4ECF7"/>
<path d="M246.191 34.6342C257.361 34.5516 261.985 33.5911 269.036 43.4257C264.331 43.1146 258.493 42.1846 254.413 44.0327C253.159 46.8022 253.618 46.1093 254.364 49.7751L253.605 49.5565C246.808 47.9672 232.44 50.9956 228.165 44.9138C230.321 40.2668 241.076 35.053 246.191 34.6342Z" fill="#94E3E9"/>
<path d="M269.952 24.9672C301.663 -0.724121 331.091 0.328801 357.348 32.9069C371.673 31.5439 382.669 27.295 392.861 39.835L396.57 41.6929C398.343 46.3345 404.978 49.8219 409.492 61.8235L392.176 61.8866C377.459 61.9627 362.101 61.9812 347.395 62.2042C332.472 62.4316 337.791 56.0506 330.8 50.0678C320.05 40.8673 283.355 43.4127 269.037 43.4258C261.985 33.5911 257.361 34.5516 246.192 34.6343L245.644 30.8347C254.987 23.5933 258.079 23.5378 269.952 24.9672Z" fill="#FEFEFD"/>
<path d="M392.175 61.8865C388.118 36.3932 364.689 45.5175 358.729 35.226C366.451 30.7552 384.561 38.7188 392.86 39.8349L396.569 41.6929C398.342 46.3344 404.977 49.8219 409.491 61.8234L392.175 61.8865Z" fill="#AAE6F3"/>
<path d="M396.569 41.6929C409.491 33.9141 419.476 33.2963 434.345 36.4367C446.059 38.9082 458.796 47.9727 456.49 61.3785C443.525 62.586 422.946 61.9278 409.491 61.8234C404.977 49.8219 398.342 46.3345 396.569 41.6929Z" fill="#FEFEFD"/>
<path d="M460.439 94.544C479.659 85.461 476.254 90.6389 495.18 89.0725C522.068 86.8316 545.541 79.7501 567.925 101.234C576.616 101.658 584.078 101.876 592.475 104.682C593.617 107.369 602.112 111.535 605.483 113.526C609.28 115.255 609.813 115.266 613.989 115.147C617.318 119.498 617.111 121.119 617.492 126.568L616.295 128.211C613.576 125.872 583.893 126.634 577.834 126.536C549.38 126.307 520.915 126.329 492.461 126.601C482.204 126.721 466.008 126.47 456.208 127.178C457.187 132.453 457.731 131.279 456.013 135.771C448.344 143.56 403.205 140.024 390.272 140.22C348.439 140.938 306.593 141.232 264.751 141.09C247.037 141.123 228.97 141.319 211.251 140.786C204.233 140.579 199.579 140.416 196.439 133.606C196.737 122.837 208.295 124.295 216.122 124.349C222.22 124.393 228.04 124.273 234.134 124.034C242.275 106.858 245.901 111.535 262.157 106.89C265.271 106.042 268.256 102.18 270.934 101.027C299.854 88.5938 321.498 93.4889 344.11 113.374C349.897 112.09 352.322 111.59 357.728 109.262C367.92 106.118 385.312 106.02 394.797 111.405C404.162 86.4182 439.11 83.9599 460.439 94.544Z" fill="#FEFEFD"/>
<path d="M460.438 94.544C479.658 85.461 476.253 90.6389 495.179 89.0725C522.067 86.8316 545.54 79.7501 567.924 101.234C576.615 101.658 584.077 101.876 592.474 104.682C593.616 107.369 602.111 111.535 605.483 113.526C609.279 115.255 609.812 115.266 613.988 115.147C617.317 119.498 617.11 121.119 617.491 126.568L616.294 128.211C613.575 125.872 583.892 126.634 577.833 126.536C576.637 120.248 576.593 119.9 572.863 114.896C552.457 111.949 502.075 113.058 480.169 113.406C473.839 102.485 471.054 101.114 460.438 94.544Z" fill="#AAE6F3"/>
<path d="M605.483 113.526C609.279 115.255 609.812 115.266 613.989 115.147C617.317 119.498 617.111 121.119 617.491 126.569L616.295 128.211C613.576 125.872 583.893 126.634 577.834 126.536C576.638 120.248 576.594 119.9 572.863 114.896C583.599 113.493 594.4 115.212 605.483 113.526Z" fill="#DEF2F6"/>
<path d="M421.086 127.536C433.605 126.057 443.656 125.111 456.208 127.178C457.186 132.453 457.73 131.279 456.012 135.771C448.344 143.56 403.204 140.024 390.271 140.22C392.175 138.404 394.677 136.467 396.743 134.77C402.584 134.836 431.691 136.272 434.693 132.258C431.299 128.885 425.959 128.494 421.086 127.536Z" fill="#DEF2F6"/>
<path d="M357.728 109.262C367.919 106.118 385.312 106.02 394.796 111.405C389.423 115.582 364.33 112.492 357.728 109.262Z" fill="#C4ECF7"/>
<path d="M622.473 111.97C627.313 113.265 629.924 110.698 635.047 109.838C654.832 106.542 673.312 105.106 690.737 115.712C704.409 115.669 737.54 112.928 746.481 121.478C747.536 124.828 747.7 123.621 746.481 126.362C743.686 130.212 742.12 132.714 737.084 133.454C724.64 135.292 624.409 135.88 617.85 130.419C617.209 129.886 616.698 128.907 616.295 128.211L617.492 126.568C617.111 121.119 617.318 119.498 613.989 115.147L621.048 114.951C622.114 114.407 621.864 113.809 622.473 111.97Z" fill="#AAE6F3"/>
<path d="M629.684 125.481C656.877 126.721 685.309 125.535 712.643 125.948C722.78 126.101 736.485 125.502 746.481 126.362C743.686 130.213 742.119 132.714 737.083 133.454C724.64 135.292 624.409 135.88 617.85 130.419C617.209 129.886 616.697 128.907 616.295 128.211L617.491 126.568L629.684 125.481Z" fill="#FEFEFD"/>
<path d="M613.989 115.147L621.048 114.951C622.571 119.226 626.324 122.174 629.685 125.481L617.492 126.568C617.111 121.119 617.318 119.498 613.989 115.147Z" fill="#AAE6F3"/>
<path d="M182.162 96.8937C190.274 96.3606 224.109 102.115 230.977 105.465C227.981 108.413 207.792 108.13 202.769 108.261C194.624 108.402 159.219 108.696 153.661 106.303C156.901 101.821 170.049 102.311 174.932 99.5696C177.274 98.2642 179.592 97.666 182.162 96.8937Z" fill="#FEFEFD"/>
<path d="M233.189 75.039C240.207 74.6561 274.656 72.9047 278.689 75.5513C283.311 76.2137 286.905 76.2562 290.688 78.8582L290.287 80.1417C284.33 81.9148 208.096 82.5783 200.28 80.653C199.374 78.9669 199.108 78.9234 199.241 77.0622C206.951 76.7718 228.161 77.7943 233.051 76.54L233.189 75.039Z" fill="#FEFEFD"/>
<path d="M592.475 104.682C600.665 102.213 617.492 101.81 622.887 109.599L622.473 111.97C621.864 113.809 622.114 114.407 621.048 114.951L613.989 115.147C609.812 115.266 609.279 115.255 605.483 113.526C602.112 111.535 593.617 107.369 592.475 104.682Z" fill="#FEFEFD"/>
<path d="M207.452 74.8878C216.031 74.6561 224.614 74.7062 233.189 75.0391L233.051 76.5401C228.161 77.7944 206.951 76.7719 199.241 77.0623L207.452 74.8878Z" fill="#FEFEFD" fill-opacity="0.733333"/>
</svg>
