<svg width="645" height="122" viewBox="0 0 645 122" fill="none" xmlns="http://www.w3.org/2000/svg">
<path d="M109.713 18.9985C118.74 8.29318 127.099 1.49661 141.778 0.17086C152.783 -0.839859 163.728 2.6639 172.102 9.87676C174.598 12.0529 177.92 15.657 180.193 18.1988C192.159 14.7438 203.746 16.078 211.726 26.5771C219.779 20.3356 222.444 20.2878 232.678 21.5197C260.01 -0.624196 285.375 0.283343 308.006 28.3632C320.353 27.1884 329.831 23.5262 338.616 34.3347L341.813 35.9361C352.95 29.2314 361.557 28.6989 374.372 31.4057C384.469 33.5359 395.448 41.3487 393.46 52.9036C414.732 53.3142 436.014 53.4436 457.295 53.2889C465.292 53.2927 493.089 51.3491 497.168 57.5784C495.742 62.8101 487.755 64.6009 482.899 64.5597C463.202 64.3918 443.523 64.3262 423.826 64.3337L294.45 64.3618C282.604 64.3375 250.316 63.6043 240.208 65.1194C236.733 62.8383 207.04 64.3478 200.991 64.6778C193.6 64.3909 186.202 64.3478 178.808 64.5475C169.144 64.5616 149.08 66.7996 142.243 60.9631C140.637 57.4734 141.046 58.9032 141.509 54.4141C97.0907 53.6902 51.7499 55.2588 7.33445 53.6968C4.24911 53.589 2.26344 52.3814 0.49905 49.9427C-0.310959 47.0306 -0.123469 46.6274 0.978105 43.78C7.74693 36.9815 21.0971 38.0334 30.7628 37.7531C41.1532 12.8011 68.8942 6.48174 90.6875 21.1625C98.092 17.4046 101.464 15.7986 109.713 18.9985Z" fill="#7EDCEE"/>
<path d="M109.713 18.9985C118.74 8.29318 127.099 1.49661 141.778 0.17086C152.783 -0.839859 163.728 2.6639 172.102 9.87676C174.598 12.0529 177.92 15.657 180.193 18.1988C192.159 14.7438 203.746 16.078 211.726 26.5771L212.198 29.8521C221.825 29.7808 225.811 28.9529 231.889 37.4297C227.833 37.1615 222.801 36.3599 219.285 37.9528C218.204 40.3399 218.599 39.7427 219.243 42.9023C227.961 43.2577 250.735 40.8565 254.289 48.5354C254.12 49.7477 254.05 51.8826 252.603 52.1751C227.718 57.2071 164.129 50.1621 141.509 54.4141C97.0907 53.6902 51.7499 55.2588 7.33445 53.6968C4.24911 53.589 2.26344 52.3814 0.49905 49.9427C-0.310959 47.0306 -0.123469 46.6274 0.978105 43.78C7.74693 36.9815 21.0971 38.0334 30.7628 37.7531C41.1532 12.8011 68.8942 6.48174 90.6875 21.1625C98.092 17.4046 101.464 15.7986 109.713 18.9985Z" fill="#FEFEFD"/>
<path d="M109.713 18.9985C118.74 8.29318 127.098 1.49661 141.778 0.17086C152.783 -0.839859 163.728 2.6639 172.102 9.87676C174.598 12.0529 177.92 15.657 180.193 18.1988C192.159 14.7438 203.746 16.078 211.726 26.5771L212.198 29.8521C221.825 29.7808 225.811 28.9529 231.889 37.4297C227.833 37.1615 222.801 36.3599 219.285 37.9528C218.204 40.3399 218.599 39.7427 219.243 42.9023L218.588 42.7139C205.877 43.5052 191.88 42.3342 178.018 42.9914C177.177 41.7857 176.265 40.6296 175.289 39.5308C167.681 30.8665 160.106 34.9422 150.786 33.6484C138.174 31.8979 127.79 27.7997 115.359 33.6587C110.714 35.8489 107.098 35.4589 101.867 35.1419C98.2766 28.5732 96.0182 26.4983 90.6875 21.1625C98.092 17.4046 101.464 15.7986 109.713 18.9985Z" fill="#C4ECF7"/>
<path d="M212.198 29.852C221.826 29.7808 225.811 28.9529 231.889 37.4296C227.833 37.1615 222.802 36.3598 219.285 37.9528C218.204 40.3399 218.6 39.7426 219.243 42.9023L218.589 42.7139C212.73 41.344 200.346 43.9543 196.661 38.7122C198.519 34.7069 207.789 30.213 212.198 29.852Z" fill="#94E3E9"/>
<path d="M232.678 21.5198C260.01 -0.624118 285.375 0.283421 308.006 28.3632C320.353 27.1884 329.831 23.5262 338.616 34.3347L341.813 35.9362C343.341 39.9368 349.06 42.9427 352.95 53.2871L338.025 53.3416C325.341 53.4072 312.103 53.4231 299.428 53.6153C286.565 53.8113 291.15 48.3113 285.124 43.1546C275.858 35.2245 244.23 37.4185 231.889 37.4297C225.811 28.953 221.825 29.7809 212.198 29.8521L211.726 26.5772C219.779 20.3356 222.444 20.2878 232.678 21.5198Z" fill="#FEFEFD"/>
<path d="M338.026 53.3414C334.529 31.3681 314.335 39.2326 309.197 30.3621C315.854 26.5086 331.463 33.3727 338.616 34.3346L341.813 35.936C343.341 39.9367 349.06 42.9426 352.951 53.287L338.026 53.3414Z" fill="#AAE6F3"/>
<path d="M341.812 35.9361C352.95 29.2314 361.556 28.6989 374.372 31.4057C384.469 33.5359 395.447 41.3488 393.46 52.9036C382.285 53.9444 364.547 53.3771 352.95 53.2871C349.059 42.9427 343.341 39.9368 341.812 35.9361Z" fill="#FEFEFD"/>
<path d="M396.863 81.4898C413.429 73.6609 410.495 78.1239 426.807 76.7737C449.982 74.8423 470.214 68.7386 489.508 87.256C496.999 87.6216 503.43 87.8091 510.668 90.228C511.652 92.5439 518.974 96.1349 521.88 97.8506C525.152 99.3414 525.612 99.3509 529.212 99.2478C532.08 102.998 531.902 104.395 532.23 109.092L531.199 110.508C528.855 108.492 503.271 109.149 498.049 109.064C473.523 108.867 448.989 108.886 424.463 109.12C415.623 109.224 401.663 109.008 393.216 109.617C394.06 114.165 394.529 113.152 393.048 117.024C386.438 123.738 347.531 120.69 336.384 120.859C300.328 121.478 264.259 121.731 228.195 121.609C212.927 121.637 197.354 121.806 182.082 121.347C176.033 121.168 172.021 121.028 169.315 115.159C169.572 105.876 179.534 107.133 186.281 107.18C191.536 107.217 196.553 107.114 201.805 106.908C208.822 92.1033 211.948 96.1349 225.959 92.1314C228.643 91.4001 231.216 88.0717 233.524 87.0778C258.451 76.3612 277.107 80.5804 296.596 97.7195C301.584 96.6131 303.675 96.1818 308.334 94.1754C317.119 91.4657 332.109 91.3813 340.285 96.0224C348.356 74.486 378.479 72.3671 396.863 81.4898Z" fill="#FEFEFD"/>
<path d="M396.863 81.4898C413.429 73.6609 410.495 78.1239 426.807 76.7737C449.983 74.8423 470.214 68.7386 489.508 87.256C496.999 87.6216 503.43 87.8091 510.668 90.228C511.652 92.5439 518.974 96.1349 521.88 97.8506C525.152 99.3414 525.612 99.3509 529.212 99.2478C532.08 102.998 531.902 104.395 532.23 109.092L531.199 110.508C528.855 108.492 503.271 109.149 498.049 109.064C497.018 103.645 496.98 103.345 493.764 99.032C476.177 96.4911 432.751 97.4475 413.87 97.7475C408.413 88.3341 406.013 87.1528 396.863 81.4898Z" fill="#AAE6F3"/>
<path d="M521.881 97.8506C525.152 99.3414 525.612 99.3508 529.212 99.2477C532.081 102.998 531.903 104.395 532.231 109.092L531.199 110.508C528.856 108.492 503.271 109.149 498.049 109.064C497.018 103.645 496.98 103.345 493.765 99.032C503.018 97.8225 512.327 99.3038 521.881 97.8506Z" fill="#DEF2F6"/>
<path d="M362.944 109.927C373.735 108.652 382.398 107.836 393.217 109.617C394.06 114.165 394.529 113.152 393.048 117.024C386.438 123.737 347.532 120.69 336.385 120.859C338.025 119.293 340.182 117.624 341.963 116.162C346.997 116.218 372.085 117.456 374.673 113.996C371.748 111.089 367.144 110.752 362.944 109.927Z" fill="#DEF2F6"/>
<path d="M308.334 94.1753C317.118 91.4657 332.109 91.3813 340.284 96.0224C335.653 99.6227 314.025 96.96 308.334 94.1753Z" fill="#C4ECF7"/>
<path d="M536.524 96.5099C540.696 97.6256 542.946 95.413 547.362 94.6723C564.415 91.8314 580.344 90.5937 595.363 99.7352C607.147 99.6977 635.704 97.335 643.41 104.704C644.319 107.592 644.46 106.551 643.41 108.914C641.001 112.233 639.651 114.39 635.31 115.027C624.585 116.612 538.193 117.118 532.54 112.411C531.987 111.952 531.546 111.108 531.199 110.508L532.231 109.092C531.903 104.395 532.081 102.998 529.212 99.2477L535.296 99.0789C536.215 98.6101 535.999 98.0944 536.524 96.5099Z" fill="#AAE6F3"/>
<path d="M542.74 108.155C566.178 109.224 590.684 108.202 614.244 108.558C622.981 108.689 634.794 108.173 643.41 108.914C641 112.233 639.65 114.39 635.31 115.027C624.585 116.612 538.193 117.118 532.54 112.411C531.987 111.952 531.546 111.108 531.199 110.508L532.23 109.092L542.74 108.155Z" fill="#FEFEFD"/>
<path d="M529.212 99.2477L535.296 99.0789C536.609 102.764 539.843 105.304 542.74 108.155L532.231 109.092C531.903 104.395 532.081 102.998 529.212 99.2477Z" fill="#AAE6F3"/>
<path d="M157.01 83.5149C164.002 83.0555 193.165 88.0153 199.084 90.9031C196.503 93.444 179.101 93.2001 174.772 93.3127C167.751 93.4345 137.235 93.6878 132.444 91.6251C135.237 87.7622 146.57 88.1841 150.778 85.8213C152.797 84.6962 154.795 84.1806 157.01 83.5149Z" fill="#FEFEFD"/>
<path d="M200.991 64.6779C207.04 64.3478 236.733 62.8383 240.208 65.1194C244.193 65.6904 247.29 65.727 250.551 67.9697L250.205 69.0761C245.071 70.6043 179.363 71.1762 172.626 69.5167C171.845 68.0635 171.616 68.026 171.731 66.4218C178.376 66.1714 196.657 67.0527 200.872 65.9717L200.991 64.6779Z" fill="#FEFEFD"/>
<path d="M510.668 90.228C517.727 88.0997 532.231 87.7528 536.881 94.4659L536.524 96.5099C535.999 98.0944 536.215 98.6101 535.296 99.0789L529.212 99.2477C525.612 99.3508 525.152 99.3413 521.881 97.8506C518.974 96.1348 511.652 92.5438 510.668 90.228Z" fill="#FEFEFD"/>
<path d="M178.808 64.5475C186.202 64.3478 193.6 64.391 200.991 64.6779L200.872 65.9717C196.657 67.0528 178.376 66.1715 171.73 66.4218L178.808 64.5475Z" fill="#FEFEFD" fill-opacity="0.733333"/>
</svg>
