<svg width="109" height="186" viewBox="0 0 109 186" fill="none" xmlns="http://www.w3.org/2000/svg">
<path d="M56.4134 78.9717C56.2691 81.8491 56.1944 84.7287 56.1886 87.6098C56.2778 89.5007 56.5837 93.6076 56.3872 95.3122C57.7069 112.857 58.4712 130.441 58.6786 148.034C59.7002 159.16 60.7712 174.555 60.0533 185.602L59.6118 185.878C57.456 185.725 56.8049 184.811 54.816 183.455C51.9743 182.265 49.1399 181.061 46.3135 179.843C46.5847 147.744 50.1427 113.589 50.4451 80.1271C51.648 78.7751 54.0561 79.1334 56.4134 78.9717Z" fill="#97CBCF"/>
<path d="M56.8876 139.645C57.9448 143.566 56.2089 144.21 58.6786 148.034C59.7003 159.16 60.7712 174.555 60.0534 185.602L59.6118 185.878C57.4561 185.725 56.805 184.811 54.816 183.455C54.9059 180.641 54.0467 174.591 53.7494 171.371C52.9946 163.174 54.3244 147.184 56.8876 139.645Z" fill="#BFDAD1"/>
<path d="M53.7547 112.97C54.2768 106.374 52.3451 99.9827 56.3868 95.3123C57.7065 112.858 58.4708 130.441 58.6781 148.035C56.2085 144.21 57.9443 143.566 56.8872 139.645L54.4574 138.126C52.6113 134.154 53.6409 118.249 53.7547 112.97Z" fill="#BFDAD1"/>
<path d="M53.7554 112.97C51.7781 102.539 51.4337 98.3964 54.7662 88.1582L56.1889 87.6099C56.2781 89.5008 56.584 93.6077 56.3875 95.3122C52.3458 99.9827 54.2775 106.374 53.7554 112.97Z" fill="#82C2C6"/>
<path d="M51.5576 16.4543C52.3284 14.4836 53.4892 14.052 55.3607 12.803L56.0793 20.0977C57.4765 29.5547 59.8469 42.5282 58.1973 52.0099C57.9464 53.4519 55.5362 59.5252 54.8648 61.517C57.9319 63.5225 59.216 64.0868 61.2072 67.2218L61.672 67.9413C59.8425 68.7377 60.7678 68.6297 58.7984 68.2692C58.6882 67.3081 55.2621 66.2788 53.2594 63.64L52.7547 61.4263C45.8714 44.3343 49.5135 35.3031 51.5576 16.4543Z" fill="#82C2C6"/>
<path d="M56.0787 20.0978C57.476 29.5548 59.8463 42.5283 58.1967 52.01C57.9458 53.4519 55.5356 59.5252 54.8642 61.517C57.9313 63.5226 59.2155 64.0869 61.2066 67.2218L61.6714 67.9414C59.842 68.7378 60.7672 68.6298 58.7978 68.2693C58.6876 67.3082 55.2615 66.2789 53.2588 63.6401C56.7342 55.0666 50.5897 27.4984 56.0787 20.0978Z" fill="#BFDAD1"/>
<path d="M45.7326 71.6907C48.3749 71.9634 47.9833 71.4854 49.3226 72.9738C49.2102 73.3307 48.7998 74.7581 48.6359 75.0229C46.1039 76.0507 45.7609 76.1922 43.909 78.184C42.4226 80.6944 41.0608 83.1271 39.3192 85.4722C26.4095 90.4705 13.204 96.8934 0 102.231C2.18762 100.141 5.45709 96.7628 7.93257 95.318C11.6864 91.1777 27.8278 78.8861 33.1486 75.5256C35.4435 74.0763 42.7452 74.7792 45.7326 71.6907Z" fill="#82C2C6"/>
<path d="M7.93257 95.318C16.5424 93.6642 37.5572 77.904 43.909 78.184C42.4226 80.6944 41.0608 83.1272 39.3192 85.4722C26.4095 90.4705 13.204 96.8934 0 102.231C2.18762 100.142 5.45709 96.7629 7.93257 95.318Z" fill="#ABDFF2"/>
<path d="M63.5161 73.3307L70.4212 74.2345C77.5272 74.8895 84.9326 82.433 90.6841 87.2355C94.1007 88.383 105.306 98.0714 108.684 101.019C97.1701 97.0458 81.0758 90.5365 70.2182 84.9042C67.3983 83.4412 65.0541 79.6318 63.1753 76.9168L62.6729 74.5326L63.5161 73.3307Z" fill="#ABDFF2"/>
<path d="M70.4208 74.2345C77.5267 74.8895 84.9322 82.4331 90.6836 87.2355L89.0101 87.8753C85.2251 87.2703 70.2518 78.1963 65.915 75.6852L65.9368 74.8713L70.4208 74.2345Z" fill="#BFDAD1"/>
<path d="M52.7547 61.4263L53.2593 63.64C55.262 66.2788 58.6881 67.3081 58.7984 68.2692C60.7677 68.6297 59.8425 68.7377 61.6719 67.9413C62.1208 70.8028 61.7205 71.7842 63.5158 73.3306L62.6726 74.5325L63.1751 76.9167C60.4066 76.4648 59.4248 75.849 57.0414 76.7339L56.4135 78.9716C54.0562 79.1333 51.6482 78.775 50.4452 80.127C50.2023 77.5093 50.0841 77.2199 48.6361 75.0228C48.8 74.7581 49.2104 73.3306 49.3228 72.9737C47.9835 71.4853 48.3751 71.9633 45.7328 71.6906C45.2702 64.9703 47.3795 64.4981 52.7547 61.4263Z" fill="#77BFC5"/>
<path d="M53.92 0L55.3608 12.803C53.4893 14.0521 52.3284 14.4836 51.5576 16.4544C52.1718 10.3028 52.7627 6.06676 53.92 0Z" fill="#77BFC5" fill-opacity="0.988235"/>
</svg>
