<svg width="208" height="431" viewBox="0 0 208 431" fill="none" xmlns="http://www.w3.org/2000/svg">
<path d="M124.683 3.44861C134.871 0.156283 140.657 -0.291248 150.975 0.135253C161.656 1.46771 169.516 3.24408 178.957 9.14112C183.322 12.3442 185.331 14.0872 189.13 18.0004L193.256 22.4033C199.02 18.5394 201 17.7487 207.968 16.9407V103.497V139.212V150.985V168.384V405.341V430.089C205.336 429.117 203.792 428.354 200.942 428.435C195.808 426.436 192.262 425.118 186.882 423.619C185.367 423.058 183.286 422.625 181.676 422.229C180.385 422.091 178.602 421.729 177.275 421.5C177.311 415.278 177.528 408.866 177.666 402.629L180.32 403.56C183.532 393.601 183.946 391.656 182.655 381.393C181.306 382.563 181.437 382.543 179.689 382.847C177.79 380.788 178.196 377.229 178.051 374.012C177.949 372.527 178.123 369.117 178.152 367.477C178.529 350.541 180.552 329.443 175.658 313.821C174.78 311.384 173.468 308.372 172.467 305.924C166.166 294.834 159.532 287.61 150.743 278.441L150.018 277.838L150.917 275.303C150.794 273.353 141.875 257.492 140.157 256.299C135.596 253.136 121.87 249.773 116.192 244.853C110.783 240.17 97.6009 219.819 92.6558 218.141C94.2365 222.643 99.653 227.6 102.256 232.273C97.4849 233.632 97.891 234.196 94.9544 238.096C88.3052 246.939 80.3581 250.018 69.6339 247.138C54.8492 243.828 49.179 234.25 48.8527 219.835C42.9069 221.634 40.2965 221.59 34.1186 221.595C22.6476 219.733 16.8323 216.654 9.01577 208.293C4.21562 202.206 2.23615 198.446 0.539422 191.004C-0.417707 185.544 0.0753028 180.643 0.662632 175.19C3.54852 166.9 6.60119 160.302 15.2661 157.155C14.57 152.652 14.3235 151.175 14.628 146.685C15.2299 141.118 16.8976 137.754 19.5152 132.886C23.2639 127.846 25.403 126.325 30.805 123.127C37.9835 119.722 42.8416 119.001 50.6146 120.139C48.1275 108.654 47.4894 103.603 51.6877 92.9C56.5387 83.3211 60.7008 80.0172 70.3301 75.713C77.5085 72.6151 85.238 74.7998 88.1529 72.5926L87.5511 69.8508C86.7028 67.4833 85.8761 62.9724 85.325 60.3706C85.122 55.6892 85.3178 52.4694 85.6369 47.7685C87.0508 39.5903 89.6538 33.229 94.1785 26.3839C97.8329 21.218 102.205 16.5933 107.158 12.646C109.101 10.4025 115.583 7.49457 118.513 6.07798L124.683 3.44861ZM168.624 183.268C166.304 184.592 164.977 184.729 164.905 187.848C162.686 187.005 157.117 187.641 155.065 188.664L153.934 188.835L151.729 192.862C138.409 204.59 135.147 194.967 130.143 196.493L130.042 197.833C130.1 197.971 128.925 192.659 128.65 191.706C127.12 190.377 124.879 190.604 122.747 190.5L121.544 189.921C115.83 187.128 114.416 186.337 109.601 182.148C107.781 184.444 105.657 187.8 103.126 188.536L102.017 188.009L99.4935 188.179C93.3809 189.288 88.3704 185.124 83.8531 181.643C84.9842 187.158 84.9915 189.067 82.0114 194.156L80.7134 195.581C82.8235 199.236 88.9433 208.718 88.7838 212.464C88.9505 215.231 88.4865 214.323 90.2992 215.935L89.4219 216.173C90.611 217.211 91.1041 217.855 92.6558 218.141C97.6009 219.819 110.783 240.17 116.192 244.853C121.87 249.773 135.596 253.136 140.157 256.299C141.875 257.492 150.794 273.353 150.917 275.303L150.018 277.838L150.743 278.441C159.532 287.61 166.166 294.834 172.467 305.924C173.468 308.372 174.78 311.384 175.658 313.821C180.552 329.443 178.529 350.541 178.152 367.477C178.123 369.117 177.949 372.527 178.051 374.012C178.196 377.229 177.79 380.788 179.689 382.847C181.437 382.543 181.306 382.563 182.655 381.393C183.946 391.656 183.532 393.601 180.32 403.56L177.666 402.629C177.528 408.866 177.311 415.278 177.275 421.5C178.602 421.729 180.385 422.091 181.676 422.229C183.286 422.625 185.367 423.058 186.882 423.619C192.262 425.118 195.808 426.436 200.942 428.435C203.792 428.354 205.336 429.117 207.968 430.089V405.341V168.384C199.209 171.018 189.094 163.831 183.83 167.225C183.387 170.388 183.431 172.542 183.431 175.725C174.411 185.014 171.72 180.457 168.624 183.268Z" fill="#066F74"/>
<path d="M183.43 175.725C183.43 172.542 183.387 170.388 183.829 167.225C189.093 163.831 199.208 171.018 207.968 168.384V405.341V430.089C205.335 429.117 203.791 428.354 200.941 428.436C195.808 426.436 192.262 425.118 186.882 423.619C185.366 423.058 183.285 422.625 181.675 422.229C180.385 422.091 178.601 421.729 177.274 421.5C177.31 415.279 177.528 408.867 177.666 402.629L180.32 403.56C183.532 393.601 183.945 391.656 182.654 381.393C181.306 382.563 181.436 382.543 179.689 382.847C177.789 380.788 178.195 377.229 178.05 374.012C177.948 372.527 178.123 369.117 178.152 367.477C178.529 350.541 180.552 329.443 175.657 313.821C174.78 311.384 173.467 308.372 172.467 305.924C166.166 294.834 159.531 287.61 150.743 278.441L150.018 277.838L150.917 275.303C150.794 273.353 141.875 257.492 140.156 256.299C135.596 253.136 121.869 249.773 116.192 244.853C110.783 240.17 97.6004 219.819 92.6552 218.141C91.1035 217.855 90.6105 217.211 89.4213 216.173L90.2987 215.936C88.4859 214.323 88.95 215.231 88.7832 212.464C88.9428 208.718 82.8229 199.236 80.7129 195.581L82.0108 194.156C84.991 189.067 84.9837 187.158 83.8525 181.644C88.3699 185.124 93.3804 189.288 99.4929 188.179L102.016 188.009L103.126 188.536C105.656 187.8 107.781 184.444 109.601 182.148C114.415 186.337 115.829 187.128 121.543 189.921L122.747 190.5C124.879 190.604 127.119 190.377 128.649 191.706C128.925 192.659 130.099 197.971 130.041 197.833L130.143 196.494C135.146 194.967 138.409 204.591 151.729 192.862L153.933 188.835L155.064 188.664C157.116 187.641 162.685 187.005 164.904 187.848C164.976 184.729 166.303 184.592 168.624 183.268C171.72 180.457 174.41 185.014 183.43 175.725ZM137.756 230.596C144.043 246.91 149.757 258.842 163.882 270.429C168.29 274.042 174.889 278.567 178.811 282.162C178.927 280.301 179.152 278.405 179.341 276.547C179.783 270.491 179.681 262.231 179.776 256.003L179.71 251.841L179.732 241.024L179.892 240.249C179.152 237.433 178.492 236.382 177.144 233.887C164.839 235.967 156.957 232.168 151.555 220.843C147.277 227.31 144.877 228.416 137.756 230.596ZM109.412 231.364C117.751 241.61 121.652 243.286 134.522 246.985C131.999 242.079 130.759 235.994 129.468 230.599C123.842 228.028 122.232 227.419 118.969 222.105C115.496 226.367 113.93 228.156 109.412 231.364Z" fill="#081C57"/>
<path d="M175.846 303.589C178.529 306.336 180.051 305.227 180.334 305.495C184.511 309.458 190.456 325.337 188.992 330.675C190.957 340.827 189.108 350.408 189.289 360.522C188.999 374.445 187.868 403.824 189.586 417.229C188.912 418.862 188.165 420.811 187.426 422.383L186.882 423.619C185.366 423.058 183.285 422.625 181.676 422.229C180.385 422.091 178.601 421.729 177.274 421.5C177.31 415.279 177.528 408.867 177.666 402.629L180.32 403.56C183.532 393.601 183.945 391.656 182.654 381.393C181.306 382.563 181.436 382.543 179.689 382.847C177.789 380.788 178.195 377.229 178.05 374.012C177.948 372.527 178.123 369.117 178.152 367.477C178.529 350.541 180.552 329.443 175.657 313.821C174.78 311.384 173.467 308.372 172.467 305.924L175.846 303.589Z" fill="#2A2368"/>
<path d="M175.657 313.821C177.216 308.663 174.91 311.616 176.549 308.834C179.892 316.926 184.888 322.012 181.922 329.076C181.705 329.581 181.48 330.083 181.255 330.582C183.191 341.404 184.59 338.063 184.83 351.571C179.653 361.243 182.582 370.079 182.654 381.393C181.306 382.563 181.436 382.543 179.689 382.847C177.789 380.788 178.195 377.228 178.05 374.012C177.949 372.527 178.123 369.117 178.152 367.477C178.529 350.541 180.552 329.443 175.657 313.821Z" fill="#6A2360"/>
<path d="M187.614 359.957L189.289 360.522C188.999 374.445 187.868 403.824 189.586 417.229C188.912 418.862 188.165 420.811 187.425 422.382C182.966 415.445 187.063 371.385 187.614 359.957Z" fill="#431E5E"/>
<path d="M177.666 402.629L180.32 403.56C183.829 410.892 181.19 415.327 181.676 422.229C180.385 422.091 178.601 421.729 177.274 421.5C177.311 415.279 177.528 408.866 177.666 402.629Z" fill="#1D2875"/>
<path d="M187.615 359.957C187.332 351.619 187.035 343.039 187.194 334.689C187.245 331.887 187.346 332.14 188.992 330.675C190.957 340.827 189.108 350.408 189.29 360.522L187.615 359.957Z" fill="#431E5E"/>
<path d="M130.042 197.833L130.144 196.493C135.147 194.967 138.41 204.59 151.73 192.862C154.463 197.317 157.516 202.396 162.526 204.732C168.008 214.986 170.865 222.929 177.144 233.887C164.839 235.967 156.958 232.168 151.556 220.842C147.278 227.31 144.878 228.416 137.757 230.596C134.081 219.974 131.253 209.02 130.042 197.833Z" fill="#046270"/>
<path d="M164.905 187.848C164.977 184.729 166.304 184.592 168.624 183.268C170.771 202.202 170.314 209.801 183.17 225.373C183.445 228.366 183.851 230.653 182.989 233.567L181.647 234.966L183.003 239.83L182.3 240.595L179.892 240.249C179.153 237.433 178.493 236.382 177.144 233.887C170.865 222.929 168.008 214.986 162.526 204.732C157.516 202.396 154.463 197.317 151.729 192.862L153.934 188.835L155.065 188.664C157.117 187.641 162.686 187.005 164.905 187.848Z" fill="#081C57"/>
<path d="M162.526 204.732C169.226 207.4 173.069 223.693 178.203 229.402C178.667 229.912 181.314 234.336 181.647 234.966L183.003 239.831L182.3 240.595L179.893 240.249C179.153 237.433 178.493 236.382 177.144 233.887C170.865 222.929 168.008 214.986 162.526 204.732Z" fill="#431E5E"/>
<path d="M155.064 188.664C157.116 187.641 162.685 187.005 164.904 187.848C165.332 192.321 165.897 197.026 165.803 201.496C159.48 196.527 158.436 195.78 155.064 188.664Z" fill="#085A78"/>
<path d="M183.431 175.725L183.402 222.718L183.17 225.373C170.314 209.801 170.77 202.202 168.624 183.268C171.72 180.457 174.41 185.014 183.431 175.725Z" fill="#036473"/>
<path d="M179.732 241.024C183.764 241.802 184.504 241.869 187.933 244.123C189.122 247.458 187.853 248.698 187.194 251.894C187.005 252.816 189.159 255.533 189.514 256.295C189.528 262.748 189.434 286.794 186.44 292.198C184.286 290.327 182.444 285.661 178.812 282.162C178.928 280.301 179.152 278.405 179.341 276.547C179.783 270.491 179.682 262.231 179.776 256.003L179.711 251.841L179.732 241.024Z" fill="#1D2875"/>
<path d="M179.776 256.003C185.062 257.854 186.258 274.241 181.299 277.466L179.776 277.299L179.341 276.547C179.783 270.491 179.682 262.231 179.776 256.003Z" fill="#6A2360"/>
<path d="M179.733 241.024C183.764 241.802 184.504 241.869 187.934 244.123C189.123 247.458 187.854 248.698 187.194 251.894C187.005 252.816 189.159 255.533 189.514 256.295C186.259 254.126 185.004 250.015 181.248 249.723L179.711 251.841L179.733 241.024Z" fill="#0F2469"/>
<path d="M83.8525 181.644C88.3699 185.124 93.3804 189.288 99.4929 188.179C93.8154 193.895 99.4204 212.062 97.0203 216.75C93.7719 217.165 93.3441 217.158 90.2987 215.936C88.4859 214.323 88.95 215.231 88.7832 212.464C88.9428 208.718 82.8229 199.236 80.7129 195.581L82.0108 194.156C84.991 189.067 84.9837 187.158 83.8525 181.644Z" fill="#034467"/>
<path d="M82.0108 194.156C87.2606 198.693 93.5616 210.393 97.0203 216.75C93.7719 217.165 93.3441 217.158 90.2987 215.935C88.4859 214.323 88.95 215.231 88.7832 212.464C88.9428 208.718 82.8229 199.236 80.7129 195.581L82.0108 194.156Z" fill="#081C57"/>
<path d="M109.601 182.148C114.416 186.337 115.83 187.128 121.544 189.921C122.356 193.908 126.525 205.257 123.719 207.693C120.289 206.748 119.992 204.377 117.178 203.203L116.272 205.507C110.101 205.509 102.691 194.186 102.017 188.009L103.126 188.536C105.657 187.8 107.781 184.444 109.601 182.148Z" fill="#034467"/>
<path d="M204.371 406.494L207.968 405.341V430.089C205.336 429.117 203.791 428.354 200.941 428.435C195.808 426.436 192.262 425.118 186.882 423.619L187.426 422.382C188.165 420.811 188.912 418.862 189.586 417.229C194.539 411.087 197.251 409.535 204.371 406.494Z" fill="#047173"/>
<path d="M204.371 406.494L207.968 405.341V430.089C205.336 429.117 203.791 428.354 200.942 428.435C199.31 420.708 206.917 416.668 204.371 406.494Z" fill="#034F71"/>
<path d="M183.401 222.718L183.858 219.15L184.62 218.863C188.854 222.024 190.732 239.677 187.933 244.123C184.504 241.869 183.764 241.802 179.732 241.024L179.892 240.249L182.299 240.595L183.003 239.83L181.647 234.966L182.988 233.567C183.851 230.654 183.445 228.366 183.169 225.373L183.401 222.718Z" fill="#1D2875"/>
<path d="M150.743 278.441C153.23 278.037 153.709 277.495 156.007 279.317C162.352 284.338 171.72 296.42 175.846 303.589L172.467 305.924C166.166 294.834 159.531 287.61 150.743 278.441Z" fill="#6A2360"/>
<path d="M100.675 195.925C105.417 202.45 107.926 205.759 115.184 209.018C118.222 210.523 121.347 212.169 124.502 213.382C126.126 219.131 127.779 224.87 129.468 230.599C123.842 228.028 122.232 227.419 118.969 222.105C115.496 226.367 113.93 228.156 109.412 231.364C106.722 227.751 101.922 221.394 100.784 217.18L100.675 195.925Z" fill="#036473"/>
<path d="M100.675 195.925C105.417 202.45 107.926 205.759 115.184 209.018C109.934 215.003 109.035 215.825 100.784 217.18L100.675 195.925Z" fill="#034F71"/>
<path d="M124.502 213.382C130.426 214.156 131.354 232.799 134.465 237.805C135.146 238.9 137.133 246.05 137.184 247.579C135.77 247.518 135.763 247.613 134.523 246.985C131.999 242.079 130.76 235.994 129.469 230.599C127.779 224.87 126.126 219.131 124.502 213.382Z" fill="#431E5E"/>
<path d="M57.4015 165.727C65.2108 160.965 63.5576 157.911 73.854 161.251C71.2002 168.426 71.6425 168.418 73.8395 175.704L74.5356 175.908C77.9073 176.695 78.4004 177.012 81.25 178.738L81.8808 179.863L83.8531 181.644C84.9842 187.158 84.9915 189.067 82.0114 194.156L80.7134 195.581C82.8235 199.236 88.9433 208.718 88.7838 212.464C88.9505 215.231 88.4865 214.323 90.2992 215.936L89.4219 216.173C90.611 217.211 91.1041 217.855 92.6558 218.141C94.2365 222.644 99.653 227.601 102.256 232.273C97.4849 233.632 97.891 234.196 94.9544 238.096C88.3052 246.939 80.3581 250.018 69.6339 247.138C54.8492 243.828 49.179 234.25 48.8527 219.835C42.9069 221.634 40.2965 221.59 34.1186 221.595C22.6476 219.733 16.8323 216.654 9.01577 208.293C4.21562 202.206 2.23615 198.446 0.539422 191.004C-0.417707 185.544 0.0753028 180.643 0.662632 175.19C3.11346 175.071 6.5214 174.799 8.88521 174.961C10.3644 176.185 12.112 177.744 13.6854 178.762L18.4203 180.385C21.5164 175.667 22.7274 174.851 27.5493 172.594C26.9257 164.184 29.6665 163.279 37.4468 162.97C41.1013 160.947 43.8568 160.91 47.852 160.759L50.6291 162.288C53.7761 162.883 54.8564 163.901 57.4015 165.727Z" fill="#036273"/>
<path d="M37.4468 162.97C41.1013 160.947 43.8568 160.91 47.852 160.76L50.6291 162.288C53.7761 162.883 54.8564 163.901 57.4015 165.727C50.9772 177.491 62.5062 179.774 46.5251 187.892C36.2069 193.136 26.3383 200.143 14.6933 203.697C13.7144 204.037 10.0744 207.318 9.01577 208.293C4.21562 202.206 2.23615 198.446 0.539422 191.004C-0.417707 185.544 0.0753028 180.643 0.662632 175.19C3.11346 175.071 6.5214 174.799 8.88521 174.961C10.3644 176.185 12.112 177.744 13.6854 178.762L18.4203 180.385C21.5164 175.667 22.7274 174.851 27.5493 172.594C26.9257 164.184 29.6665 163.279 37.4468 162.97Z" fill="#1F8866"/>
<path d="M37.4468 162.97C41.1013 160.947 43.8567 160.91 47.852 160.76L50.6291 162.288C43.2476 166.304 42.45 168.204 38.4547 175.662C34.5174 174.117 31.8563 172.751 27.5493 172.594C26.9257 164.184 29.6665 163.279 37.4468 162.97Z" fill="#619E4A"/>
<path d="M0.662632 175.19C3.11346 175.071 6.5214 174.799 8.88521 174.961C10.3644 176.185 12.112 177.744 13.6854 178.762C9.44363 183.155 7.69606 186.244 5.17998 191.831L0.539422 191.004C-0.417707 185.544 0.0753028 180.643 0.662632 175.19Z" fill="#579B56"/>
<path d="M13.6852 178.762L18.42 180.385L18.1082 181.233C16.0055 187.136 17.956 189.925 16.1287 192.424C13.3806 193.33 8.2541 192.285 5.17969 191.831C7.69578 186.244 9.44334 183.155 13.6852 178.762Z" fill="#418F4D"/>
<path d="M57.4014 165.727C65.2107 160.965 63.5575 157.911 73.8539 161.251C71.2 168.426 71.6423 168.418 73.8394 175.704L74.5354 175.908C77.9071 176.695 78.4002 177.012 81.2498 178.738L81.8807 179.863L83.8529 181.644C84.9841 187.158 84.9914 189.067 82.0112 194.156L80.7133 195.581C75.8624 198.257 73.8104 199.071 68.1401 197.523L67.531 196.845C65.8415 195.823 64.8627 194.568 63.5212 193.121C54.9578 194.042 62.3321 198.769 51.9849 203.843C45.8868 202.57 31.878 197.518 30.7686 206.442C29.9782 212.801 32.5885 216.092 34.1185 221.595C22.6475 219.733 16.8322 216.654 9.01562 208.293C10.0743 207.318 13.7142 204.037 14.6931 203.697C26.3382 200.143 36.2068 193.136 46.5249 187.892C62.5061 179.774 50.977 177.491 57.4014 165.727Z" fill="#047173"/>
<path d="M73.839 175.704L74.535 175.908C77.9067 176.695 78.3998 177.012 81.2494 178.738L81.8803 179.863L83.8525 181.644C84.9837 187.158 84.991 189.067 82.0108 194.156L80.7129 195.581C75.862 198.258 73.81 199.071 68.1397 197.523L67.5306 196.845C65.8411 195.823 64.8623 194.568 63.5208 193.121L62.629 191.472C61.2441 182.28 64.0574 177.041 73.839 175.704Z" fill="#F7C216"/>
<path d="M81.88 179.863L83.8522 181.644C84.9834 187.158 84.9907 189.067 82.0105 194.156L80.7126 195.581C75.8617 198.257 73.8097 199.071 68.1394 197.523L67.5303 196.845C73.7734 194.612 79.6612 185.923 81.88 179.863Z" fill="#D46F02"/>
<path d="M74.535 175.907C77.9067 176.694 78.3997 177.012 81.2494 178.738L81.8802 179.863C79.6614 185.923 73.7736 194.612 67.5305 196.845C65.841 195.822 64.8622 194.568 63.5208 193.121L62.6289 191.472C71.5114 190.197 79.8282 186.435 74.535 175.907Z" fill="#EC9505"/>
<path d="M80.7132 195.581C82.8232 199.236 88.943 208.718 88.7835 212.464C88.9503 215.231 88.4862 214.323 90.2989 215.936L89.4216 216.173C90.6107 217.211 91.1038 217.855 92.6555 218.141C94.2362 222.643 99.6527 227.6 102.256 232.273C97.4846 233.632 97.8907 234.196 94.9541 238.096C88.3049 246.939 80.3578 250.018 69.6336 247.138L70.6198 246.629C67.0378 234.931 67.8645 235.075 76.9354 226.627C74.4918 225.641 69.0391 223.799 67.5744 222.049C67.3641 217.491 66.9218 216.202 65.5586 211.784C66.2909 209.341 66.9146 209.455 69.1479 207.624L70.279 205.355C69.1333 203.847 68.5533 199.607 68.14 197.523C73.8102 199.071 75.8622 198.257 80.7132 195.581Z" fill="#034F71"/>
<path d="M80.7128 195.581C82.8229 199.236 88.9427 208.718 88.7832 212.464C82.9099 209.936 78.0372 209.985 73.1138 206.468C72.0552 205.713 71.5041 205.615 70.2787 205.355C69.133 203.847 68.553 199.607 68.1396 197.523C73.8099 199.071 75.8619 198.257 80.7128 195.581Z" fill="#034467"/>
<path d="M70.2786 205.355C71.504 205.615 72.0551 205.713 73.1137 206.468C78.0371 209.985 82.9098 209.936 88.7831 212.464C88.9498 215.231 88.4858 214.323 90.2985 215.936L89.4212 216.173C80.9665 212.909 75.231 214.183 69.1475 207.624L70.2786 205.355Z" fill="#081C57"/>
<path d="M87.5506 69.8509C90.0522 68.1753 90.5235 67.8685 93.3803 66.9531C98.5358 68.3117 94.294 76.9433 98.4198 80.2392C101.77 79.2919 108.006 78.407 109.202 83.0347C112.124 82.2528 113.495 83.4445 115.351 81.4476C118.57 83.9588 121.463 87.5732 124.095 90.7487C123.044 95.8907 122.696 96.9838 120.419 101.68L118.621 105.079C114.807 103.755 113.197 105.518 109.905 107.527L109.173 106.439C99.7322 102.552 95.9545 102.169 86.0496 105.59C78.5376 108.182 69.967 117.438 75.0354 125.388C73.636 130.75 67.8787 132.751 71.4099 139.339L70.8805 139.772C64.5069 146.792 49.7005 148.821 47.8515 160.76C43.8562 160.91 41.1008 160.947 37.4463 162.97C29.666 163.279 26.9252 164.184 27.5488 172.594C22.7269 174.851 21.5159 175.667 18.4197 180.385L13.6849 178.762C12.1115 177.744 10.3639 176.185 8.88469 174.961C6.52087 174.799 3.11294 175.071 0.662109 175.19C3.548 166.9 6.60067 160.302 15.2656 157.155C14.5695 152.652 14.323 151.175 14.6275 146.685C15.2293 141.118 16.897 137.755 19.5146 132.886C23.2634 127.846 25.4025 126.325 30.8045 123.127C37.9829 119.722 42.8411 119.002 50.6141 120.139C48.127 108.654 47.4889 103.603 51.6872 92.9001C56.5381 83.3212 60.7003 80.0173 70.3295 75.7131C77.508 72.6152 85.2375 74.7999 88.1524 72.5927L87.5506 69.8509Z" fill="#5E9D4A"/>
<path d="M87.5509 69.8509C90.0525 68.1753 90.5237 67.8685 93.3806 66.9531C98.5361 68.3117 94.2943 76.9433 98.4201 80.2392C95.6357 83.1283 95.0701 85.2107 94.4103 89.1936C78.1899 87.027 79.6183 91.2985 68.5968 99.4347C66.465 99.1192 67.0451 99.0807 65.1743 97.0679C61.3965 96.3484 55.4943 94.1752 51.6875 92.9001C56.5384 83.3212 60.7005 80.0173 70.3298 75.7131C77.5083 72.6152 85.2378 74.7999 88.1527 72.5927L87.5509 69.8509Z" fill="#89AD42"/>
<path d="M51.6875 92.9001C56.5384 83.3212 60.7005 80.0173 70.3298 75.7131C70.2501 83.9559 72.8386 90.6037 65.1743 97.0679C61.3965 96.3484 55.4943 94.1753 51.6875 92.9001Z" fill="#A1B334"/>
<path d="M37.4464 162.969C27.1791 144.242 48.5839 133.376 57.5679 139.18C63.1584 140.099 61.5342 134.588 70.8807 139.772C64.5071 146.791 49.7007 148.821 47.8517 160.759C43.8564 160.91 41.1009 160.947 37.4464 162.969Z" fill="#319065"/>
<path d="M0.662109 175.19C3.548 166.9 6.60067 160.302 15.2656 157.155C17.8904 158.454 21.777 158.356 23.1982 159.577C17.7962 165.323 13.9966 168.824 8.88469 174.961C6.52087 174.799 3.11294 175.071 0.662109 175.19Z" fill="#92AC2F"/>
<path d="M19.5146 132.886C23.2634 127.846 25.4025 126.325 30.8045 123.127C37.4246 132.794 34.3501 141.86 22.4005 136.112C22.0742 135.451 20.1455 133.545 19.5146 132.886Z" fill="#A1B334"/>
<path d="M98.42 80.2392C101.77 79.2919 108.006 78.407 109.202 83.0346L108.571 83.5076C101.052 89.2196 105.287 92.1827 94.4102 89.1935C95.07 85.2107 95.6356 83.1282 98.42 80.2392Z" fill="#A1B334"/>
<path d="M14.6279 146.685C15.2298 141.118 16.8975 137.754 19.5151 132.886C20.1459 133.545 22.0747 135.451 22.401 136.112C24.1992 141.959 21.2408 149.168 14.6279 146.685Z" fill="#89AD42"/>
<path d="M120.419 101.68L118.621 105.079C114.807 103.755 113.197 105.518 109.905 107.527L109.173 106.439C113.705 102.401 114.473 102.407 120.419 101.68Z" fill="#1F8866"/>
<path d="M61.0117 122.656C63.8686 122.726 63.9919 122.214 65.6451 123.639C64.8475 125.852 59.8516 129.935 57.6545 132.125C57.5385 132.335 56.7917 132.922 56.5742 133.109L55.2618 131.876C53.6086 126.173 56.4219 124.877 61.0117 122.656Z" fill="#A1B334"/>
<path d="M124.683 3.44861C134.871 0.156283 140.657 -0.291248 150.975 0.135253C161.656 1.46771 169.516 3.24408 178.957 9.14112C175.165 13.4127 173.852 14.7088 172.815 20.5232C168.827 22.7435 166.217 24.3515 162.468 26.9577C159.676 30.1064 155.957 34.758 154.159 38.5886C146.081 37.2474 144.558 40.7066 139.526 46.4912L140.048 50.0018C131.586 52.7226 117.49 57.1225 121.747 68.4531C118.36 70.3013 117.186 69.6368 115.221 72.4599C114.488 75.1995 114.358 78.7762 115.351 81.4476C113.495 83.4445 112.125 82.2527 109.202 83.0346C108.006 78.407 101.77 79.2919 98.4203 80.2392C94.2945 76.9432 98.5362 68.3116 93.3808 66.9531C90.5239 67.8684 90.0527 68.1753 87.5511 69.8508C86.7027 67.4833 85.8761 62.9724 85.325 60.3706C85.1219 55.6892 85.3178 52.4694 85.6368 47.7685C87.0507 39.5903 89.6538 33.229 94.1784 26.3839C97.8329 21.218 102.205 16.5933 107.158 12.646C109.101 10.4025 115.583 7.49457 118.513 6.07798L124.683 3.44861Z" fill="#619E4A"/>
<path d="M124.683 3.44861C134.871 0.156283 140.657 -0.291248 150.975 0.135253C147.778 4.06951 144.979 5.47668 145.291 10.7905C147.386 13.9066 147.125 12.6286 146.929 15.7722C146.269 16.2633 142.035 16.4119 139.403 17.7023C133.718 20.4797 124.589 21.8332 119.912 26.4862C113.618 32.7467 108.282 41.7068 104.286 49.5217C104.402 49.2866 104.214 52.8096 104.069 53.4349C101.538 54.9254 99.3629 55.0923 96.4625 55.6189C92.663 57.3408 89.2115 58.8532 85.325 60.3706C85.1219 55.6892 85.3178 52.4694 85.6368 47.7685C87.0507 39.5903 89.6538 33.229 94.1784 26.3839C97.8329 21.218 102.205 16.5933 107.158 12.646C109.101 10.4025 115.583 7.49457 118.513 6.07798L124.683 3.44861Z" fill="#89AD42"/>
<path d="M107.157 12.646C109.492 14.2795 113.741 23.2142 112.291 26.7583C109.847 29.2469 105.489 30.1637 101.958 31.391C98.7822 29.7205 96.7953 28.8509 94.1777 26.384C97.8322 21.2181 102.205 16.5933 107.157 12.646Z" fill="#B1B62D"/>
<path d="M85.6368 47.7686C89.2188 49.3164 93.9174 51.1291 96.2667 54.3082L96.4625 55.6189C92.663 57.3409 89.2115 58.8532 85.325 60.3706C85.1219 55.6893 85.3178 52.4695 85.6368 47.7686Z" fill="#A1B334"/>
<path d="M118.513 6.07798L124.683 3.44861C125.256 6.53784 125.945 8.56011 125.039 11.5318L123.842 12.2347C121.304 11.0074 120.13 8.54124 118.513 6.07798Z" fill="#B1B62D"/>
<path d="M139.526 46.4912C139.475 45.7078 139.446 44.9223 139.446 44.1374C139.454 32.2114 152.135 26.7437 162.468 26.9577C159.677 30.1064 155.957 34.758 154.159 38.5886C146.081 37.2474 144.558 40.7066 139.526 46.4912Z" fill="#418F4D"/>
<path d="M180.907 154.838C185.178 156.34 185.134 157.427 188.093 160.583C196.294 163.621 199.064 152.895 207.968 150.985V168.384C199.209 171.018 189.093 163.831 183.829 167.225C183.387 170.388 183.431 172.542 183.431 175.725C174.41 185.014 171.72 180.457 168.624 183.268C166.304 184.592 164.977 184.729 164.904 187.848C162.685 187.005 157.117 187.641 155.065 188.664L153.934 188.835L151.729 192.862C138.409 204.59 135.146 194.967 130.143 196.493L130.042 197.833C130.1 197.971 128.925 192.659 128.649 191.706C127.119 190.377 124.879 190.604 122.747 190.5C137.387 190.64 137.829 183.478 137.147 172.071C140.178 169.314 150.098 180.291 159.488 168.452C163.838 162.98 164.382 162.605 165.158 155.552C165.347 153.782 167.138 152.61 168.522 151.627C172.989 156.258 174.86 159.272 180.907 154.838Z" fill="#07386D"/>
<path d="M149.205 149.186L153.629 148.149C145.101 156.396 156.92 159.407 159.487 168.452C150.097 180.291 140.178 169.314 137.147 172.071C137.829 183.478 137.386 190.64 122.747 190.5L121.543 189.921C115.829 187.128 114.415 186.337 109.601 182.148C112.769 181.27 115.184 178.833 117.693 176.685C116.315 173.638 114.916 171.326 115.778 168.156C117.236 166.479 127.358 161.723 129.642 160.89C135.69 161.639 132.731 165.629 136.154 167.708C137.879 165.767 134.732 164.193 136.059 162.431C138.525 159.136 141.882 157.011 142.281 152.509C145.377 152.652 146.878 151.04 149.205 149.186Z" fill="#034F71"/>
<path d="M207.968 139.212V150.985C199.064 152.895 196.294 163.621 188.093 160.583C185.134 157.427 185.178 156.34 180.907 154.838C187.368 148.694 184.902 144.704 188.296 141.425C191.559 140.802 198.005 142.294 201.58 142.917C203.769 141.852 205.88 140.487 207.968 139.212Z" fill="#034467"/>
<path d="M153.629 148.149C157.501 145.529 164.013 144.078 164.818 143.424C161.866 140.772 160.612 140.246 160.793 136.284C163.027 133.003 168.001 131.66 171.612 133.088L172.583 134.367C169.61 138.525 163.505 146.539 168.675 151.196L168.523 151.627C167.138 152.61 165.347 153.782 165.158 155.552C164.382 162.605 163.839 162.98 159.488 168.452C156.921 159.407 145.102 156.396 153.629 148.149Z" fill="#034467"/>
<path d="M172.583 134.367C176.238 128.981 179.987 127.99 186.048 125.58C184.562 128.563 183.191 131.25 181.553 134.15C182.72 135.982 183.953 137.998 185.215 139.751C180.69 145.108 176.484 152.247 168.675 151.196C163.505 146.539 169.61 138.525 172.583 134.367Z" fill="#036473"/>
<path d="M187.455 140.63C199.963 139.277 205.691 147.667 205.792 129.993C205.829 122.045 204.219 110.273 207.968 103.497V139.212C205.88 140.487 203.769 141.852 201.58 142.917C198.005 142.294 191.559 140.802 188.296 141.425C184.902 144.704 187.368 148.694 180.907 154.838C174.86 159.272 172.989 156.258 168.522 151.627L168.675 151.196C176.484 152.247 180.69 145.108 185.214 139.751C183.953 137.998 182.72 135.983 181.552 134.15C183.191 131.25 184.562 128.563 186.048 125.58C179.986 127.99 176.237 128.981 172.583 134.367L171.611 133.088C174.367 130.055 180.835 125.308 185.084 126.149L185.802 127.375C185.555 130.216 184.199 131.566 182.517 133.932C183.989 136.297 185.744 138.428 187.455 140.63Z" fill="#034F71"/>
<path d="M139.525 46.4912C144.558 40.7066 146.08 37.2474 154.158 38.5886C152.932 42.6179 152.671 44.7344 152.12 48.9508C149.488 49.0937 142.179 49.2881 140.047 50.0018L139.525 46.4912Z" fill="#319065"/>
<path d="M73.8543 161.25C81.214 163.734 81.2937 172.079 81.2502 178.738C78.4006 177.012 77.9075 176.694 74.5358 175.907L73.8398 175.704C71.6427 168.418 71.2004 168.426 73.8543 161.25Z" fill="#085A78"/>
<path d="M178.957 9.14111C183.322 12.3442 185.331 14.0872 189.13 18.0004C183.242 18.7751 178.42 18.6511 172.815 20.5232C173.852 14.7088 175.165 13.4127 178.957 9.14111Z" fill="#579B56"/>
<path d="M109.905 107.527C113.197 105.518 114.807 103.755 118.621 105.079C116.903 109.064 113.785 114.789 108.934 115.317L107.861 114.419C107.556 111.013 108.078 110.999 109.905 107.527Z" fill="#418F4D"/>
<path d="M75.0353 125.388C78.0879 125.535 81.6481 125.59 84.6211 126.078C76.7537 130.372 75.4631 131.228 71.4098 139.339C67.8786 132.751 73.6358 130.75 75.0353 125.388Z" fill="#418F4D"/>
<path d="M142.281 152.509C142.426 150.235 142.216 149.106 143.601 147.476C145.443 147.04 147.379 148.324 149.206 149.186C146.878 151.04 145.377 152.652 142.281 152.509Z" fill="#034467"/>
<path d="M129.418 109.295C128.207 98.4467 133.384 92.1442 144.333 92.0507L145.682 92.7441C149.895 94.7373 151.236 95.9312 153.535 100.223L154.405 106.205C155.173 107.157 156.848 109.114 157.472 110.037C158.001 114.881 160.546 123.713 158.603 126.78C156.558 127.022 146.313 122.546 140.135 121.472C137.271 118.737 135.712 117.611 132.449 115.312L133 114.748C132.398 113.594 130.244 110.535 129.418 109.295Z" fill="#D46F02"/>
<path d="M129.418 109.295C128.207 98.4467 133.384 92.1442 144.333 92.0507L145.682 92.7441C145.573 97.5096 145.943 101.776 143.869 106.045C139.961 109.432 138.387 111.311 132.978 109.193L129.418 109.295Z" fill="#F7C216"/>
<path d="M144.334 92.0507L145.682 92.7441C145.573 97.5096 145.943 101.776 143.869 106.045C139.961 109.432 138.388 111.311 132.979 109.193C139.294 103.745 145.617 100.782 144.334 92.0507Z" fill="#F7B30C"/>
<path d="M154.405 106.205C155.174 107.157 156.849 109.114 157.472 110.037C158.002 114.881 160.547 123.713 158.604 126.78C156.559 127.022 146.313 122.546 140.135 121.472C137.271 118.738 135.712 117.611 132.449 115.312L133 114.748C134.349 115.333 136.082 116.02 137.329 116.713L138.504 117.481C147.096 117.599 151.853 114.389 154.405 106.205Z" fill="#034467"/>
<path d="M157.472 110.037C158.002 114.881 160.547 123.713 158.604 126.78C156.559 127.022 146.313 122.546 140.135 121.472C137.271 118.737 135.712 117.611 132.449 115.312L133 114.748C134.349 115.333 136.082 116.02 137.329 116.713L138.504 117.48C140.288 119.891 143.014 121.434 145.914 121.855C154.398 123.089 156.609 116.106 157.472 110.037Z" fill="#034F71"/>
<path d="M145.682 92.7441C149.895 94.7374 151.236 95.9313 153.535 100.223C150.004 102.999 148.93 104.124 147.168 108.404C145.486 107.609 145.203 107.256 143.869 106.045C145.943 101.776 145.573 97.5096 145.682 92.7441Z" fill="#EC9505"/>
<path d="M143.869 106.045C145.203 107.256 145.486 107.609 147.168 108.404L146.777 108.605C142.607 110.712 140.664 109.592 138.503 114.087C138.09 114.952 137.699 115.828 137.329 116.713C136.082 116.02 134.349 115.333 133 114.748C132.398 113.594 130.245 110.535 129.418 109.295L132.978 109.193C138.387 111.311 139.961 109.432 143.869 106.045Z" fill="#EC9505"/>
<path d="M83.8164 133.46C86.4123 133.901 86.7385 134.027 89.0153 135.362C90.0087 138.533 88.5948 138.951 86.0642 140.91C80.1692 145.478 79.5818 145.735 77.4355 152.932L76.2609 153.562C70.8807 151.4 72.3454 144.308 74.3902 140.06C76.4059 135.863 79.7196 134.802 83.8164 133.46Z" fill="#418F4D"/>
<path d="M177.666 402.629C177.622 393.269 177.39 383.297 178.05 374.012C178.195 377.228 177.789 380.788 179.689 382.847C181.436 382.543 181.306 382.563 182.654 381.393C183.945 391.656 183.532 393.601 180.32 403.56L177.666 402.629Z" fill="#431E5E"/>
<path d="M91.0098 256.597C94.6643 256.679 95.8681 256.416 98.8627 258.552L100.958 259.764L103.315 264.175C103.75 272.126 100.559 277.52 92.3078 279.028C87.0146 277.749 85.7384 277.707 82.664 273.069L82.2725 271.026C81.4966 262.874 83.3818 259.899 91.0098 256.597Z" fill="#047173"/>
<path d="M82.2725 271.026C81.4966 262.874 83.3818 259.899 91.0098 256.597C91.7422 262.215 92.7864 267.407 87.8847 271.413L82.664 273.069L82.2725 271.026Z" fill="#92AC2F"/>
<path d="M82.2725 271.026C83.5341 267.443 82.7655 268.03 85.4121 265.872L86.7391 265.91C88.3343 267.816 88.1095 268.358 87.8847 271.413L82.664 273.069L82.2725 271.026Z" fill="#A1B334"/>
<path d="M103.315 264.175C103.75 272.126 100.559 277.52 92.3076 279.028C94.8237 271.649 97.8474 269.675 103.315 264.175Z" fill="#085A78"/>
<path d="M92.6553 218.141C97.6004 219.819 110.783 240.17 116.192 244.853C121.87 249.773 135.596 253.136 140.156 256.299C141.875 257.492 150.794 273.353 150.917 275.303L150.018 277.838C145.479 272.164 141.454 264.283 137.988 257.822C129.512 255.245 125.872 254.353 118.454 249.221C112.276 251.374 105.49 254.983 100.958 259.764L98.8622 258.552C105.287 253.81 108.709 251.75 115.576 247.949C109.376 242.492 106.882 238.898 102.256 232.273C99.6525 227.601 94.236 222.644 92.6553 218.141Z" fill="#431E5E" fill-opacity="0.980392"/>
</svg>
