<svg width="1244" height="1195" viewBox="0 0 1244 1195" fill="none" xmlns="http://www.w3.org/2000/svg">
<g clip-path="url(#clip0_249_446)">
<path d="M422.236 551.88C425.67 555.945 503.464 598.475 510.987 601.817C512.27 618.192 514.608 634.225 516.479 650.525C519.754 680.379 523.311 710.202 527.15 739.989L577.834 675.409C579.773 677.493 582.089 679.631 583.242 682.152C589.25 657.469 597.571 660.476 619.813 660.288C640.867 660.111 653.471 657.681 657.631 683.185C659.618 680.834 661.665 678.544 663.785 676.32L713.399 739.242C718.033 694.637 725.474 647.603 729.41 603.006C758.002 586.857 791.659 569.238 819.175 552.343C827.861 558.851 851.575 576.185 855.894 584.738L856.337 584.946C863.074 588.076 873.035 591.343 880.154 594.287C915.452 608.879 939.457 616.868 964.902 647.341C997.697 689.218 993.305 725.888 994.987 775.189C995.941 803.183 997.022 831.798 998.097 859.829L1006.02 1088.03C1007.23 1123.14 1009.47 1159.98 1010.23 1195H924.168H691.653H656.404H583.824H547.559H401.359H315.796H229.017C229.879 1151.72 232.734 1104.11 234.672 1060.64L241.105 887.241L245.931 766.817C247.784 720.955 243.871 686.593 275.439 648.155C276.409 646.546 281.165 641.351 282.48 639.942C289.506 632.348 297.434 625.641 306.087 619.966C322.762 609.134 365.975 591.258 385.203 584.65C390.553 574.215 412.15 559.703 422.236 551.88Z" fill="#00133C"/>
<path d="M422.236 551.88C425.67 555.945 503.464 598.475 510.987 601.817C512.27 618.192 514.608 634.225 516.479 650.525C519.754 680.379 523.311 710.202 527.15 739.989L540.546 858.11C543.154 882.004 547.032 911.256 547.348 935.259C548.393 941.225 548.048 955.307 548.031 961.911L547.902 1008.59L547.559 1195H401.359H315.796H229.017C229.879 1151.72 232.734 1104.11 234.672 1060.64L241.105 887.241L245.931 766.817C247.784 720.955 243.871 686.593 275.439 648.155C276.409 646.546 281.165 641.351 282.48 639.942C289.506 632.348 297.434 625.641 306.087 619.966C322.762 609.134 365.975 591.258 385.203 584.65C390.553 574.215 412.15 559.703 422.236 551.88Z" fill="#00133C"/>
<path d="M275.439 648.155C279.107 656.333 282.639 669.176 285.278 678.003L298.134 720.323L316.187 778.682C319.039 787.983 323.421 801.136 325.292 810.158C326.541 816.178 325.13 831.154 325.678 838.505C325.595 867.672 324.118 895.43 323.28 924.366L319.543 1064.69C318.928 1093.25 318.099 1121.8 317.054 1150.34C316.74 1161.96 317.132 1184.34 315.796 1195H229.017C229.879 1151.72 232.734 1104.11 234.672 1060.64L241.105 887.24L245.931 766.817C247.784 720.955 243.871 686.593 275.439 648.155Z" fill="#04224C"/>
<path d="M422.236 551.88C425.67 555.945 503.464 598.475 510.987 601.817C512.27 618.192 514.608 634.225 516.479 650.525C519.754 680.379 523.311 710.202 527.15 739.989L540.546 858.11C543.154 882.004 547.032 911.256 547.348 935.259C546.887 945.775 547.305 959.572 547.29 970.417L547.187 1051.12C542.816 1038.82 536.394 1024.23 531.328 1012.03L498.626 934.263C468.07 862.703 438.749 790.62 410.676 718.051C407.426 709.728 394.346 678.714 393.675 670.464C392.776 659.413 435.169 639.814 437.125 633.01C434.648 627.688 396.242 605.528 390.397 598.824C385.662 593.393 385.124 591.891 385.203 584.65C390.553 574.215 412.15 559.703 422.236 551.88Z" fill="#1E4270"/>
<path d="M326.447 812.479C329.888 821.95 332.52 831.755 335.616 841.342C372.89 956.784 402.023 1072.69 401.359 1195H315.796C317.132 1184.34 316.74 1161.96 317.054 1150.34C318.099 1121.8 318.928 1093.25 319.543 1064.69L323.28 924.366C324.118 895.43 325.595 867.672 325.678 838.505C326.611 830.321 325.914 820.874 326.447 812.479Z" fill="#000C2C"/>
<path d="M583.242 682.152C589.25 657.469 597.571 660.476 619.813 660.288C640.867 660.111 653.471 657.681 657.631 683.185C659.618 680.834 661.665 678.544 663.785 676.32L713.399 739.241C711.959 756.677 709.76 773.026 707.701 790.389L700.278 857.192C698.037 877.04 695.65 896.73 694.058 916.657C692.382 937.586 692.649 958.078 692.643 979.049L692.552 1049.68C691.793 1066.11 692.497 1086.73 692.424 1103.66L691.653 1195H656.404H583.824H547.559L547.902 1008.59L548.031 961.911C548.048 955.307 548.393 941.225 547.348 935.259C547.032 911.256 543.154 882.004 540.546 858.11L527.15 739.989L577.834 675.409C579.773 677.493 582.089 679.631 583.242 682.152Z" fill="#04224C"/>
<path d="M577.834 675.409C579.773 677.493 582.089 679.631 583.242 682.152C588.216 692.073 597.173 706.745 602.943 716.617C602.603 718.61 592.716 728.233 592.399 737.85C592.272 741.69 592.192 752.206 592.14 756.368L591.529 795.055L589.087 917.902C588.708 936.881 588.198 955.86 587.558 974.833L586.334 1052.54C585.25 1099.18 583.66 1148.39 583.824 1195H547.559L547.902 1008.59L548.031 961.911C548.048 955.307 548.393 941.225 547.348 935.259C547.032 911.256 543.154 882.004 540.546 858.11L527.15 739.989L577.834 675.409Z" fill="#01011F"/>
<path d="M663.785 676.32L713.399 739.242C711.959 756.677 709.76 773.026 707.701 790.389L700.278 857.192C698.037 877.04 695.65 896.73 694.058 916.657C692.382 937.586 692.649 958.078 692.643 979.049L692.552 1049.68C691.793 1066.11 692.497 1086.73 692.424 1103.66L691.653 1195H656.404L651.035 872.271C650.476 833.104 648.818 793.925 648.812 754.745C648.648 747.194 649.182 739.831 647.621 732.419C646.607 727.571 638.485 718.993 638.546 716.247C644.784 705.153 651.144 694.133 657.631 683.185C659.618 680.834 661.665 678.544 663.785 676.32Z" fill="#01011F"/>
<path d="M964.902 647.341C997.697 689.218 993.305 725.888 994.987 775.189C995.941 803.183 997.022 831.798 998.097 859.829L1006.02 1088.03C1007.23 1123.14 1009.47 1159.98 1010.23 1195H924.168C924.217 1190.3 923.506 1181.49 923.348 1176.14L921.842 1123.31C920.675 1057.86 919.047 992.415 916.952 926.991C916.071 900.515 915.555 874.033 915.391 847.545C915.263 838.092 914.644 819.896 915.002 811.16C915.166 807.017 923.561 781.215 925.529 774.879L950.19 695.457L959.502 664.887C960.644 660.986 963.468 650.191 964.902 647.341Z" fill="#04224C"/>
<path d="M729.41 603.006C758.002 586.857 791.659 569.238 819.175 552.343C827.861 558.851 851.575 576.185 855.894 584.738C856.009 588.275 856.119 589.057 855.098 592.601C852.037 603.21 805.484 627.184 803.315 633.01C806.353 639.583 846.71 659.024 847.208 670.409C847.36 673.945 845.361 678.835 844.104 682.195C834.816 707.018 824.934 731.672 815.215 756.331C791.556 816.579 767.01 876.475 741.589 936L708.728 1014.01C704.372 1024.28 698.444 1039.64 693.694 1049.19L692.552 1049.68L692.643 979.05C692.649 958.078 692.382 937.586 694.058 916.657C695.65 896.73 698.037 877.04 700.278 857.192L707.701 790.389C709.76 773.026 711.959 756.677 713.399 739.242C718.033 694.637 725.474 647.603 729.41 603.006Z" fill="#1E4270"/>
<path d="M501.699 313.481C501.15 302.9 501.894 290.918 501.627 280.221C500.901 251.236 513.228 221.17 534.119 200.665C557.761 177.692 589.636 165.174 622.589 165.919C655.019 166.043 686.047 179.147 708.758 202.305C742.057 236.815 740.8 270.038 739.894 313.481C749.85 313.269 757.905 313.743 765.619 320.96C770.915 325.92 775.155 334.72 774.566 342.051C772.641 366.077 770.053 392.257 739.949 392.899C739.803 394.656 739.645 397.774 739.33 399.393C740.077 423.44 731.852 441.553 718.975 461.36C703.82 479.062 685.245 507.743 666.816 521.742C642.652 540.612 597.792 541.907 574.391 521.298C559.207 511.27 537.475 477.877 524.662 464.08C509.544 441.259 501.702 425.827 501.788 397.751L501.747 393.121C472.282 392.614 468.423 366.034 466.594 343.051C465.982 335.363 469.294 327.185 474.63 321.814C482.712 313.677 491.205 313.644 501.699 313.481Z" fill="#24436C"/>
<path d="M501.747 393.121C472.282 392.614 468.423 366.034 466.594 343.051C465.982 335.362 469.294 327.185 474.63 321.813C482.712 313.677 491.205 313.643 501.699 313.481L501.747 393.121Z" fill="#2A4E7B"/>
<path d="M739.894 313.481C749.85 313.269 757.904 313.742 765.619 320.96C770.915 325.92 775.155 334.72 774.566 342.051C772.641 366.077 770.053 392.257 739.949 392.899C739.281 367.001 739.676 339.441 739.894 313.481Z" fill="#2A4E7B"/>
<path d="M666.816 521.742C673.704 491.651 692.88 464.921 712.281 441.622C722.462 429.396 734.999 414.72 739.33 399.392C740.077 423.439 731.852 441.553 718.975 461.36C703.82 479.062 685.245 507.743 666.816 521.742Z" fill="#2A4E7B"/>
<path d="M501.788 397.751C505.589 420.293 538.899 450.862 551.521 471.305C561.419 487.338 570.613 502.342 574.391 521.298C559.207 511.27 537.475 477.877 524.662 464.08C509.544 441.259 501.702 425.827 501.788 397.751Z" fill="#2A4E7B"/>
<path d="M608.108 349.725C605.373 377.158 587.471 396.524 558.638 393.304C547.271 392.095 536.878 386.333 529.827 377.334C522.685 368.181 519.134 356.359 520.722 344.799C522.074 334.491 527.553 325.173 535.903 318.981C546.856 310.782 561.56 309.518 574.719 311.488C585.459 313.151 595.092 319.027 601.489 327.814C603.669 330.854 605.241 334.552 606.691 337.997C618.416 332.825 624.126 333.005 635.825 338.292C640.15 326.49 644.724 320.543 656.465 314.691C666.445 309.717 685.864 309.645 696.13 313.474C705.873 317.159 713.733 324.582 717.973 334.094C722.516 344.154 722.31 355.716 718.416 365.945C714.383 376.65 706.213 385.283 695.741 389.895C685.47 394.488 672.27 394.784 661.786 390.731C650.986 386.667 642.288 378.401 637.684 367.819C635.029 361.645 634.227 356.346 634.1 349.672C631.834 348.178 629.247 346.323 626.823 345.209C623.014 344.277 619.765 344.495 615.95 345.174C612.488 346.411 610.963 347.342 608.108 349.725Z" fill="#01011F"/>
<path d="M539.188 329.278C552.402 319.055 577.886 320.919 591.059 330.404C595.215 332.254 604.439 344.7 600.003 347.283C575.535 361.525 550.282 365.32 527.641 345.992C529.255 338.581 531.39 332.054 539.188 329.278Z" fill="#04224C"/>
<path d="M539.188 329.278C552.402 319.055 577.886 320.919 591.058 330.404C595.822 346.783 571.011 337.61 563.87 337.084C557.972 336.649 544.394 340.26 540.073 335.981C538.868 333.621 539.156 331.942 539.188 329.278Z" fill="#FCFCFC"/>
<path d="M652.377 329.972C664.447 320.119 683.186 321.224 697.296 326.183C699.27 326.878 701.73 328.88 703.923 329.816C709.845 332.185 714.085 340.153 713.478 346.342C711.036 350.41 685.822 359.15 679.796 359.704C671.177 360.497 645.805 355.018 642.154 345.584C640.271 340.703 646.291 331.584 652.377 329.972Z" fill="#04224C"/>
<path d="M652.377 329.972C664.447 320.119 683.186 321.224 697.296 326.183C699.27 326.878 701.73 328.88 703.923 329.816C710.155 346.992 683.854 337.876 677.136 337.095C670.484 336.321 660.48 340.19 654.26 336.471C652.493 335.414 652.456 331.694 652.377 329.972Z" fill="#FCFCFC"/>
<path d="M615.95 345.174C619.765 344.495 623.014 344.277 626.823 345.209C625.274 350.796 651.302 405.269 650.531 416.38C650.227 420.706 644.505 422.772 640.988 422.579C627.983 421.866 608.467 424.424 596.189 422.37C588.197 420.331 591.665 410.638 593.54 405.224C596.39 396.989 599.598 388.812 602.75 380.69C604.664 371.462 609.827 362.363 613.241 353.62C614.31 350.879 616.387 347.949 615.95 345.174Z" fill="#212F4E"/>
<path d="M595.322 449.187C610.271 448.622 625.693 449 640.666 449.094C650.136 449.153 656.848 455.676 646.115 462.45C640.156 462.75 634.003 462.617 628.013 462.617C617.997 462.563 608.072 462.93 598.055 462.597C592.841 462.424 590.092 458.885 591.256 453.761C591.808 451.331 593.289 450.356 595.322 449.187Z" fill="#000C2C"/>
<path d="M666.816 521.742C685.245 507.743 703.82 479.062 718.975 461.36C723.913 468.857 739.56 490.399 746.449 495.458C750.184 497.11 814.17 547.134 819.175 552.343C791.659 569.238 758.002 586.857 729.41 603.006C725.474 647.602 718.033 694.637 713.399 739.241L663.785 676.32C661.665 678.544 659.618 680.834 657.631 683.185C653.471 657.681 640.867 660.111 619.813 660.288C597.571 660.476 589.25 657.469 583.242 682.152C582.089 679.631 579.773 677.493 577.834 675.409L527.15 739.989C523.311 710.202 519.754 680.378 516.479 650.525C514.608 634.225 512.27 618.192 510.987 601.817C503.464 598.475 425.67 555.945 422.236 551.88C428.724 545.654 489.081 497.984 495.125 495.45C502.45 490.488 516.922 471.09 524.662 464.08C537.475 477.877 559.207 511.27 574.392 521.298C597.792 541.907 642.652 540.612 666.816 521.742Z" fill="#000C2C"/>
<path d="M746.449 495.458C750.184 497.11 814.17 547.134 819.175 552.343C791.659 569.238 758.002 586.857 729.41 603.006C731.846 576.367 736.797 550.021 739.567 523.406C740.344 515.931 741.012 508.235 742.349 500.871C742.677 499.054 745.185 496.732 746.449 495.458Z" fill="#04224C"/>
<path d="M422.236 551.88C428.724 545.654 489.081 497.984 495.125 495.45C496.064 496.567 498.339 499.146 498.52 500.475C499.268 505.968 499.843 511.828 500.496 517.341L505.04 554.142C506.205 563.794 507.475 573.434 508.849 583.059C509.497 587.718 511.084 597.522 510.987 601.817C503.464 598.475 425.67 555.945 422.236 551.88Z" fill="#04224C"/>
</g>
<defs>
<clipPath id="clip0_249_446">
<rect width="1244" height="1195" fill="white"/>
</clipPath>
</defs>
</svg>
