<svg width="575" height="501" viewBox="0 0 575 501" fill="none" xmlns="http://www.w3.org/2000/svg">
<path d="M148.704 19.5081C187.734 15.1594 220.079 -6.03008 262.132 1.66912C310.602 3.53269 364.914 32.3328 387.257 76.6259C389.611 81.2921 393.301 90.419 396.322 94.2439C408.381 104.022 421.933 117.341 433.722 128.003C462.605 154.128 488.428 172.85 492.753 214.913C493.322 220.444 493.616 227.091 493.038 232.621C493.796 259.193 490.672 288.833 491.334 315.976C499.806 321.689 537.472 358.685 544.364 367.623C554.29 375.17 570.528 391.017 573.76 403.47C576.88 425.607 567.649 436.728 546.028 439.683L545.317 439.776C547.456 452.422 548.06 462.605 540.244 473.787C534.895 481.587 526.603 486.865 517.277 488.416C504.35 490.605 493.862 486.406 483.594 478.985C479.175 475.73 474.788 472.442 470.434 469.101C468.406 476.349 465.378 484.569 459.795 489.667C428.428 518.313 397.726 485.194 374.552 465.088C360.761 453.121 346.134 443.277 334.476 431.736C333.341 454.026 312.606 468.695 290.884 466.845C264.715 464.622 247.861 442.539 230.884 424.142C215.243 407.444 199.99 390.385 185.137 372.981C167.554 352.428 151.469 332.575 136.469 310.076C129.934 300.273 122.049 290.315 117.142 279.649C110.246 264.661 107.054 249.374 108.437 232.914C109.38 216.963 114.943 208.908 117.856 194.614C118.961 189.194 119.923 172.974 120.396 166.979L124.514 109.911C102.472 104.951 78.9045 100.758 56.5754 96.039C26.9482 89.778 4.36749 86.6559 0.000963583 49.9016C-0.0655892 38.3275 3.3113 26.8539 11.3921 18.2702C32.4062 -3.88099 59.7107 7.55199 85.0341 10.6222C104.649 12.9996 129.427 20.1737 148.704 19.5081Z" fill="#07A0EE"/>
<path d="M148.704 19.5081C187.734 15.1594 220.079 -6.03008 262.132 1.66912C310.602 3.53269 364.914 32.3328 387.257 76.6259C389.611 81.2921 393.301 90.419 396.322 94.2439C396.246 94.5215 396.169 94.799 396.094 95.0766C395.416 138.33 351.309 165.802 312.081 170.952C289.3 173.944 261.805 175.414 237.04 176.811C234.417 177.673 225.466 177.504 221.978 177.866C204.245 179.709 174.858 180.042 159.272 187.056C131.021 200.454 120.728 229.807 133.936 258.638C139.857 271.564 151.394 283.44 158.866 295.604C162.001 300.233 172.983 316.675 176.062 319.802C189.219 304.157 215.298 305.081 233.652 308.067C235.833 308.421 237.486 308.943 239.671 308.359C240.827 310.276 241.577 310.955 243.85 311.45C245.99 312.383 249.568 314.041 251.286 315.48C258.772 321.751 285.563 347.736 289.591 354.285C293.331 357.174 298.151 362.944 301.438 366.618C306.468 365.859 314.025 367.536 319.411 368.049L319.923 368.209L323.936 372.595L322.937 372.728L320.576 370.492C320.573 373.547 319.746 385.4 320.491 386.631L320.082 387.33C326.528 396.582 328.841 399.783 331.706 410.751C334.648 416.968 334.854 424.981 334.476 431.736C333.341 454.026 312.606 468.695 290.884 466.845C264.715 464.622 247.861 442.539 230.884 424.142C215.243 407.444 199.99 390.385 185.137 372.981C167.554 352.428 151.469 332.575 136.469 310.076C129.934 300.273 122.049 290.315 117.142 279.649C110.246 264.661 107.054 249.374 108.437 232.914C109.38 216.963 114.943 208.908 117.856 194.614C118.961 189.194 119.923 172.974 120.396 166.979L124.514 109.911C102.472 104.951 78.9045 100.758 56.5754 96.039C26.9482 89.778 4.36749 86.6559 0.000963583 49.9016C-0.0655892 38.3275 3.3113 26.8539 11.3921 18.2702C32.4062 -3.88099 59.7107 7.55199 85.0341 10.6222C104.649 12.9996 129.427 20.1737 148.704 19.5081Z" fill="#0088E4"/>
<path d="M0.000976562 49.9016C8.86247 50.9945 21.2792 53.8976 30.2432 55.7299L82.7633 66.4474L116.659 73.1104C129.001 75.4698 147.208 77.3041 155.204 88.1307C164.207 100.322 158.388 114.861 151.431 126.677C142.88 141.201 135.178 161.71 145.757 177.375C149.448 182.841 153.562 184.429 159.272 187.056C131.021 200.454 120.728 229.807 133.936 258.638C139.857 271.564 151.394 283.44 158.866 295.604C162.001 300.233 172.983 316.675 176.062 319.802C189.219 304.157 215.298 305.081 233.652 308.067C235.833 308.421 237.486 308.943 239.671 308.359C240.827 310.276 241.577 310.955 243.85 311.45C245.99 312.383 249.568 314.041 251.286 315.48C258.772 321.751 285.563 347.736 289.591 354.285C293.331 357.174 298.151 362.944 301.438 366.618C306.468 365.859 314.025 367.536 319.411 368.049L319.923 368.209L323.936 372.595L322.937 372.728L320.576 370.492C320.574 373.547 319.746 385.4 320.491 386.631L320.082 387.33C326.528 396.582 328.841 399.783 331.706 410.751C334.648 416.968 334.854 424.981 334.476 431.736C333.341 454.026 312.606 468.695 290.884 466.845C264.715 464.622 247.861 442.539 230.884 424.142C215.243 407.444 199.99 390.385 185.137 372.981C167.554 352.428 151.469 332.575 136.469 310.076C129.934 300.273 122.049 290.315 117.142 279.649C110.246 264.661 107.054 249.373 108.437 232.913C109.38 216.963 114.943 208.908 117.856 194.614C118.961 189.194 119.923 172.974 120.396 166.979L124.514 109.911C102.472 104.951 78.9046 100.758 56.5755 96.0389C26.9482 89.778 4.3675 86.6559 0.000976562 49.9016Z" fill="#004FC2"/>
<path d="M231.734 384.029C229.706 347.916 262.076 342.731 289.591 354.285C293.332 357.174 298.151 362.944 301.438 366.618C306.468 365.859 314.025 367.537 319.411 368.049L319.923 368.209L323.936 372.595L322.938 372.728L320.576 370.492C320.574 373.547 319.746 385.4 320.491 386.631L320.082 387.33C326.528 396.582 328.841 399.783 331.706 410.751C329.977 433.687 312.719 443.384 291.083 438.505C285.309 437.247 279.867 434.778 275.119 431.257C269.871 427.337 234.931 389.047 231.734 384.029Z" fill="#07A0EE"/>
<path d="M301.438 366.618C306.469 365.859 314.026 367.537 319.411 368.049L319.924 368.209L323.936 372.595L322.938 372.728L320.576 370.492C320.574 373.547 319.746 385.4 320.491 386.631L320.083 387.33C314.501 381.806 306.865 372.688 301.438 366.618Z" fill="#061EA1"/>
<path d="M176.062 319.802C189.219 304.157 215.298 305.081 233.652 308.067C235.833 308.421 237.486 308.943 239.671 308.359C240.827 310.276 241.577 310.955 243.85 311.45C245.99 312.383 249.568 314.041 251.286 315.48C258.772 321.75 285.563 347.736 289.591 354.285C262.076 342.731 229.706 347.916 231.734 384.029C226.03 378.731 218.07 368.661 212.759 362.571C200.463 348.468 188.485 333.799 176.062 319.802Z" fill="#0088E4"/>
<path d="M262.132 1.66907C310.602 3.53264 364.914 32.3327 387.258 76.6258C389.612 81.2921 393.301 90.4189 396.322 94.2439C396.246 94.5214 396.17 94.799 396.094 95.0765C395.416 138.33 351.309 165.802 312.082 170.952C289.3 173.943 261.806 175.414 237.04 176.811C237.605 173.774 296.822 126.877 304.278 119.079C312.35 110.633 315.186 105.763 320.801 95.3228C327.178 77.8525 329.574 65.4378 322.248 47.0596C315.134 29.2166 298.573 15.9513 281.305 8.53299C275.166 5.89604 268.58 4.3952 262.65 1.89269L262.132 1.66907Z" fill="#004FC2"/>
<path d="M148.705 19.5081C187.734 15.1594 220.079 -6.03008 262.132 1.66912L262.65 1.89275C268.58 4.39526 275.166 5.89609 281.305 8.53304C298.573 15.9514 315.134 29.2167 322.248 47.0597C329.574 65.4378 327.178 77.8525 320.801 95.3228C315.117 93.8779 151.829 22.1391 148.705 19.5081Z" fill="#07A0EE"/>
<path d="M243.85 311.45C245.711 310.376 250.237 311.163 252.67 311.399C268.517 313.695 283.631 315.881 299.594 317.213C308.833 317.011 331.416 316.549 340.237 317.186C350.048 317.166 359.858 317.079 369.666 316.925C370.583 316.227 419.599 315.982 425.794 315.882C433.168 315.895 440.541 315.729 447.906 315.385C452.574 315.267 465.916 314.714 470.121 315.572C477.09 315.003 484.417 314.88 491.334 315.976C499.806 321.689 537.472 358.685 544.364 367.623C554.29 375.171 570.528 391.018 573.76 403.47C576.88 425.607 567.649 436.728 546.028 439.683L545.318 439.777C547.456 452.422 548.06 462.605 540.244 473.787C534.895 481.587 526.603 486.865 517.278 488.416C504.35 490.605 493.862 486.406 483.595 478.985C479.175 475.73 474.788 472.442 470.434 469.101C468.407 476.349 465.378 484.569 459.795 489.667C428.428 518.313 397.726 485.194 374.552 465.088C360.761 453.121 346.134 443.277 334.476 431.737C334.854 424.981 334.648 416.968 331.706 410.751C328.842 399.783 326.528 396.582 320.083 387.33L320.491 386.632C319.746 385.4 320.574 373.547 320.576 370.492L322.938 372.728L323.936 372.595L319.923 368.209L319.411 368.049C314.026 367.537 306.468 365.859 301.438 366.618C298.151 362.944 293.332 357.174 289.591 354.285C285.564 347.736 258.772 321.751 251.286 315.48C249.569 314.041 245.99 312.383 243.85 311.45Z" fill="#043BAA"/>
<path d="M470.121 315.571C477.09 315.002 484.417 314.88 491.334 315.976C499.806 321.689 537.472 358.684 544.364 367.623C541.394 368.854 525.656 368.082 521.114 368.415C511.752 368.222 502.387 368.209 493.024 368.388C492.223 368.382 490.582 368.155 489.711 368.062C486.775 367.583 484.689 367.337 482.023 369.014L483.125 370.525C473.206 368.461 463.046 367.596 453.016 369.54C440.446 373.413 436.914 381.3 437.598 393.713C430.919 387.796 424.532 381.493 417.693 375.809L416.854 376.202C412.507 373.014 407.239 367.17 403.235 363.184C402.56 365.58 401.908 368.036 401.122 370.392C402.839 372.082 411.674 379.863 412.124 381.034L410.945 381.267C408.801 379.683 401.014 372.222 399.369 370.119C396.358 366.232 387.247 358.052 383.377 354.565C369.461 342.039 356.834 325.859 340.237 317.185C350.048 317.165 359.858 317.079 369.666 316.925C370.583 316.227 419.599 315.982 425.793 315.882C433.168 315.895 440.541 315.729 447.906 315.384C452.574 315.267 465.915 314.714 470.121 315.571Z" fill="#0088E4"/>
<path d="M470.121 315.571C477.09 315.002 484.417 314.88 491.334 315.976C499.806 321.689 537.472 358.684 544.364 367.623C541.394 368.854 525.656 368.082 521.114 368.415C511.752 368.222 502.387 368.209 493.024 368.388C492.223 368.382 490.582 368.155 489.711 368.062C478.186 354.125 440.16 332.388 470.121 315.571Z" fill="#0088E4"/>
<path d="M369.666 316.925L390.738 317.044C383.935 320.995 382.539 322.716 379.589 330.039C381.241 342.132 386.133 345.966 394.869 353.999C399.722 358.458 405.195 364.468 410.42 368.309C411.887 369.753 416.822 374.412 417.693 375.809L416.854 376.202C412.507 373.014 407.239 367.17 403.235 363.184C402.56 365.58 401.908 368.036 401.122 370.392C402.839 372.082 411.674 379.863 412.124 381.034L410.945 381.267C408.801 379.683 401.014 372.222 399.369 370.119C396.358 366.232 387.247 358.052 383.377 354.565C369.461 342.039 356.834 325.859 340.237 317.186C350.048 317.166 359.858 317.079 369.666 316.925Z" fill="#061EA1"/>
<path d="M447.906 315.384C452.574 315.267 465.915 314.714 470.121 315.571C440.16 332.388 478.186 354.125 489.711 368.062C486.775 367.583 484.689 367.337 482.023 369.014C477.848 365.699 473.55 360.555 469.602 356.994C456.782 345.426 439.286 325.167 425.793 315.882C433.168 315.895 440.541 315.729 447.906 315.384Z" fill="#003388"/>
<path d="M410.42 368.309C416.4 368.382 449.036 368.349 453.016 369.54C440.447 373.413 436.914 381.3 437.598 393.713C430.919 387.796 424.532 381.493 417.693 375.809C416.822 374.412 411.887 369.753 410.42 368.309Z" fill="#004FC2"/>
<path d="M243.85 311.45C245.711 310.376 250.237 311.163 252.67 311.399C268.517 313.695 283.631 315.881 299.594 317.213C308.833 317.011 331.416 316.549 340.237 317.186C356.834 325.859 369.461 342.039 383.377 354.565C387.247 358.052 396.358 366.232 399.369 370.119C389.233 368.215 371.416 367.25 361.358 369.513C350.58 373.973 345.199 379.716 345.519 392.009C339.888 386.678 329.837 376.968 323.936 372.595L319.923 368.209L319.411 368.049C314.026 367.537 306.468 365.859 301.438 366.618C298.151 362.944 293.332 357.174 289.591 354.285C285.564 347.736 258.772 321.751 251.286 315.48C249.569 314.041 245.99 312.383 243.85 311.45Z" fill="#006BD5"/>
<path d="M243.85 311.45C245.711 310.376 250.237 311.163 252.67 311.399C268.517 313.695 283.631 315.881 299.594 317.213C272.531 330.392 300.623 349.407 312.046 360.821C314.488 363.264 317.03 365.527 319.411 368.049C314.026 367.537 306.468 365.859 301.438 366.618C298.151 362.944 293.332 357.174 289.591 354.285C285.564 347.736 258.772 321.751 251.286 315.48C249.569 314.041 245.99 312.383 243.85 311.45Z" fill="#043BAA"/>
<path d="M319.923 368.209C325.46 368.036 357.357 368.408 361.358 369.513C350.58 373.972 345.199 379.716 345.519 392.009C339.888 386.678 329.837 376.967 323.936 372.595L319.923 368.209Z" fill="#004FC2"/>
<path d="M378.63 424.169C396.417 401.733 417.037 411.164 441.4 411.583L441.811 411.59C455.403 423.83 464.128 430.472 469.004 448.349C468.479 462.752 459.228 472.442 444.719 473.161C438.692 473.454 432.703 472.056 427.436 469.108C416.931 463.297 389.716 434.059 378.63 424.169Z" fill="#0088E4"/>
<path d="M361.358 369.513C371.416 367.25 389.233 368.215 399.369 370.119C401.014 372.222 408.801 379.683 410.945 381.267L441.811 411.59L441.399 411.583C417.037 411.164 396.417 401.733 378.63 424.169C369.166 415.75 354.255 401.074 345.519 392.009C345.199 379.716 350.58 373.973 361.358 369.513Z" fill="#07A0EE"/>
<path d="M482.023 369.014C484.689 367.337 486.775 367.583 489.711 368.062C490.582 368.155 492.223 368.382 493.024 368.388C508.929 371.896 511.285 381.733 509.756 396.136C514.437 400.701 520.07 405.946 524.459 410.665C522.236 411.823 512.508 409.939 509.133 409.826C494.695 409.347 474.3 406.718 465.963 421.507C459.079 413.347 445.682 403.217 437.598 393.713C436.914 381.3 440.446 373.413 453.016 369.54C463.046 367.596 473.206 368.462 483.125 370.525L482.023 369.014Z" fill="#0088E4"/>
<path d="M482.022 369.014C484.689 367.337 486.775 367.583 489.711 368.062C490.582 368.155 492.223 368.382 493.024 368.388C508.929 371.896 511.285 381.733 509.756 396.136C505.995 392.189 486.657 373.154 483.125 370.525L482.022 369.014Z" fill="#061EA1"/>
<path d="M465.963 421.507C474.3 406.718 494.695 409.347 509.133 409.826C512.508 409.939 522.236 411.823 524.459 410.665C535.668 421.181 540.17 424.728 544.773 439.823C543.836 444.515 543.172 448.602 540.586 452.702C535.503 460.762 524.067 463.484 515.191 461.613C511.05 460.695 507.122 458.998 503.62 456.608C499.237 453.647 492.358 446.692 488.324 442.811C480.94 435.637 473.486 428.535 465.963 421.507Z" fill="#006BD5"/>
<path d="M544.364 367.623C554.29 375.171 570.528 391.017 573.76 403.47C559.677 432.049 537.049 403.603 524.014 391.57C520.505 388.335 515.792 384.888 513.003 381.127C511.169 373.893 515.644 371.477 521.114 368.415C525.656 368.082 541.394 368.854 544.364 367.623Z" fill="#006BD5"/>
<path d="M447.906 315.384C451.147 310.995 457.369 298.234 460.491 292.808C471.583 273.534 481.724 251.582 493.038 232.621C493.796 259.193 490.672 288.833 491.334 315.976C484.417 314.88 477.09 315.002 470.121 315.572C465.915 314.714 452.574 315.267 447.906 315.384Z" fill="#006BD5"/>
<path d="M204.271 250.681C218.228 262.782 240.76 295.156 252.67 311.398C250.237 311.163 245.711 310.376 243.85 311.45C241.578 310.955 240.828 310.276 239.672 308.36C228.232 288.588 216.237 270.065 204.271 250.681Z" fill="#004FC2"/>
<path d="M293.436 217.385C295.457 215.775 300.458 211.877 303.032 211.589C322.708 209.387 343.153 210.696 362.999 210.107C374.561 209.764 383.237 209.604 390.949 219.325C402.551 237.673 391.187 240.689 394.057 251.143C391.665 255.888 390.7 257.783 385.312 259.499C377.976 261.838 370.305 262.086 362.65 261.984C344.463 261.742 326.059 262.916 307.905 262.518C301.986 262.551 294.023 260.453 289.591 256.233C286.525 253.316 288.238 250.297 287.424 246.625C284.872 235.106 284.658 226.146 293.436 217.385Z" fill="#061EA1"/>
<path d="M293.436 217.385C295.457 215.775 300.458 211.877 303.032 211.589C322.708 209.387 343.153 210.696 362.999 210.107C374.561 209.764 383.237 209.604 390.949 219.325C390.045 228.886 387.75 230.828 378.849 233.792C361.671 234.05 344.495 234.444 327.323 234.974C324.511 235.047 309.817 235.164 308.319 235.477C296.851 234.618 292.55 228.365 293.436 217.385Z" fill="#043BAA"/>
<path d="M308.325 217.365C312.818 216.698 325.344 216.181 329.162 218.595C330.256 219.273 331.003 220.39 331.215 221.659C331.701 224.625 329.863 226.659 328.148 228.814C320.938 230.424 297.217 230.925 308.325 217.365Z" fill="#FEFDFE"/>
<path d="M293.436 217.385C292.55 228.365 296.851 234.618 308.319 235.477L305.239 236.881C294.1 241.986 294.982 257.704 310.615 260.565C307.882 260.682 306.066 260.727 303.282 260.562L303.784 260.682C305.631 261.137 306.393 261.266 307.905 262.518C301.986 262.551 294.023 260.453 289.591 256.233C286.525 253.316 288.238 250.297 287.424 246.625C284.872 235.106 284.658 226.146 293.436 217.385Z" fill="#00046D"/>
<path d="M389.074 251.803C391.418 252.195 391.714 251.942 394.057 251.143C391.665 255.888 390.7 257.783 385.312 259.499C377.976 261.838 370.305 262.086 362.65 261.984C344.463 261.742 326.059 262.916 307.905 262.518C306.393 261.266 305.631 261.137 303.784 260.682L303.282 260.562C306.066 260.727 307.882 260.682 310.615 260.565C325.578 259.974 340.545 259.509 355.515 259.172C363.467 258.951 372.281 259.1 380.126 257.728C383.229 257.185 386.733 253.924 389.074 251.803Z" fill="#00082C"/>
<path d="M390.948 219.325C402.551 237.673 391.187 240.689 394.057 251.142C391.714 251.942 391.418 252.195 389.074 251.803C394.278 241.216 387.456 237.514 378.849 233.792C387.75 230.828 390.045 228.886 390.948 219.325Z" fill="#00046D"/>
</svg>
