<svg width="572" height="499" viewBox="0 0 572 499" fill="none" xmlns="http://www.w3.org/2000/svg">
<path d="M308.978 1.12432C337.15 -2.07569 358.088 1.71199 384.955 10.4901C394.931 13.7493 410.278 18.1241 420.694 18.4928C444.36 19.2189 472.039 10.1453 495.779 7.17494C508.018 5.64415 517.342 2.28174 530.339 3.88508C555.41 6.97661 570.843 23.6695 571.822 48.7611C569.626 68.8105 557.486 84.382 537.893 90.1031C531.458 91.9827 524.722 92.977 518.147 94.2975L484.099 101.129C473.164 103.293 458.19 107.452 447.441 108.616C448.386 128.352 449.664 148.072 451.268 167.767C451.954 176.998 452.559 186.331 453.498 195.524C453.817 198.639 456.519 204.202 457.577 207.33C466.915 235.01 463.474 263.94 448.007 288.672C441.059 299.792 432.853 310.516 425.286 321.262C407.789 347.073 387.131 369.915 366.314 393.03C351.419 409.502 336.478 426.461 320.539 441.942C315.181 446.887 310.469 452.398 304.386 456.478C287.395 467.865 263.41 470.228 247.59 455.459C241.547 449.822 236.789 441.216 235.983 432.923C235.564 423.299 235.285 418.907 238.832 409.542C245.74 388.744 257.021 381.629 270.937 365.283C266.717 364.118 259.769 365.256 255.051 365.522L252.668 367.073L227.784 390.74C222.16 396.95 214.061 404.025 207.931 410.101C205.043 412.957 197.549 420.458 194.614 422.834C193.27 421.549 191.453 419.133 189.916 417.516C175.806 402.674 150.723 410.108 132.454 410.254H131.988C119.516 422.161 107.79 430.86 104.695 448.538C103.617 454.854 103.104 461.01 103.697 467.419L89.6671 478.042C80.3032 485.063 69.3153 488.764 57.5421 487C48.0451 485.623 39.5264 480.418 33.9625 472.598C26.7549 462.561 26.5952 452.977 28.4986 441.383L29.3571 437.755C6.80234 437.742 -1.936 423.898 0.353411 402.767C3.32166 388.577 18.4225 376.278 29.2772 366.201C34.1489 360.783 44.4645 351.233 50.0816 345.848C58.3341 337.941 73.5947 320.918 82.4329 315.172C82.7923 288.394 81.215 260.228 81.0486 233.075C80.423 229.537 80.3431 223.118 80.636 219.371C84.0435 175.067 105.533 160.454 133.825 134.091C147.808 120.86 161.93 107.779 176.192 94.8506C179.167 91.4649 183.646 77.5054 186.588 72.4977C212.53 28.2579 258.798 4.94664 308.978 1.12432Z" fill="#FC4C29"/>
<path d="M308.978 1.12432C337.15 -2.07569 358.088 1.71199 384.955 10.4901C394.931 13.7493 410.278 18.1241 420.694 18.4928C444.36 19.2189 472.039 10.1453 495.779 7.17494C508.018 5.64415 517.342 2.28174 530.339 3.88508C555.41 6.97661 570.844 23.6695 571.822 48.7611C544.409 53.5405 516.896 59.2165 489.696 64.9576C468.792 69.3722 446.07 72.3287 426.051 79.1873C415.15 84.3727 410.292 97.6632 413.08 108.856C415.19 117.297 420.055 124.429 423.735 131.766C434.364 152.971 436.46 173.943 413.153 186.235C395.657 178.731 368.297 178.761 348.997 176.776C345.11 176.376 335.859 176.625 332.898 175.877C328.013 175.167 316.06 175.212 310.383 174.803C270.631 171.936 232.942 172.139 200.923 144.743C183.38 129.733 177.943 116.783 176.192 94.8506C179.167 91.4649 183.646 77.5054 186.588 72.4977C212.53 28.2579 258.798 4.94664 308.978 1.12432Z" fill="#F03724"/>
<path d="M176.192 94.8505C179.167 91.4648 183.646 77.5053 186.588 72.4977C212.53 28.2578 258.798 4.94658 308.978 1.12427C306.203 2.52128 302.283 3.59547 299.248 4.6211C258.718 18.315 232.762 52.5794 250.778 95.3244C261.759 115.251 269.772 120.775 286.816 134.834L317.524 160.069C321.763 163.504 332.392 171.681 335.327 174.936C334.182 175.561 334.169 175.637 332.898 175.877C328.013 175.167 316.06 175.212 310.383 174.803C270.631 171.936 232.942 172.139 200.923 144.743C183.38 129.733 177.943 116.783 176.192 94.8505Z" fill="#C51C21"/>
<path d="M308.978 1.12432C337.15 -2.07569 358.088 1.71199 384.955 10.4901C394.931 13.7493 410.278 18.1241 420.694 18.4928C419.017 20.2718 384.096 35.0187 378.22 37.6596L306.037 70.5989C287.854 78.8046 268.761 86.9484 250.778 95.3244C232.762 52.5795 258.718 18.3151 299.248 4.62116C302.283 3.59553 306.203 2.52134 308.978 1.12432Z" fill="#FC4C29"/>
<path d="M413.153 186.235C436.46 173.943 434.364 152.971 423.735 131.766C420.055 124.429 415.19 117.297 413.08 108.856C410.292 97.6632 415.15 84.3726 426.051 79.1872C446.07 72.3286 468.791 69.3722 489.696 64.9575C516.896 59.2164 544.409 53.5405 571.822 48.7611C569.626 68.8105 557.486 84.3819 537.893 90.1031C531.457 91.9826 524.722 92.977 518.147 94.2975L484.099 101.129C473.164 103.293 458.19 107.452 447.441 108.616C448.386 128.352 449.664 148.072 451.268 167.767C451.954 176.998 452.559 186.331 453.498 195.524C453.817 198.639 456.519 204.202 457.577 207.33C466.915 235.01 463.474 263.94 448.007 288.672C441.059 299.792 432.853 310.516 425.286 321.262C407.789 347.073 387.131 369.915 366.314 393.03C351.419 409.502 336.478 426.461 320.539 441.942C315.181 446.887 310.469 452.398 304.386 456.478C287.395 467.865 263.41 470.228 247.59 455.459C241.547 449.822 236.789 441.216 235.983 432.923C235.564 423.299 235.285 418.907 238.832 409.542C245.74 388.744 257.021 381.629 270.937 365.283C273.932 362.867 278.351 356.823 282.797 353.069C296.733 347.891 310.482 344.757 324.632 351.252C338.561 357.635 340.325 368.224 340.098 381.981C344.458 377.975 349.795 371.126 353.981 366.64C367.438 352.251 382.333 332.158 396.063 318.777C399.117 315.953 436.607 261.744 438.623 257.327C444.766 243.866 446.05 228.051 440.739 214.121C435.748 201.035 425.772 191.821 413.153 186.235Z" fill="#C51C21"/>
<path d="M282.797 353.07C296.733 347.891 310.482 344.757 324.632 351.253C338.561 357.635 340.325 368.224 340.098 381.982C332.784 390.62 300.699 426.241 293.272 431.246C287.236 435.28 280.294 437.762 273.073 438.454C264.821 439.206 254.126 437.083 247.737 431.559C240.589 425.376 239.71 418.334 238.832 409.542C245.74 388.744 257.021 381.629 270.937 365.283C273.932 362.867 278.351 356.823 282.797 353.07Z" fill="#FC4C29"/>
<path d="M0.353411 402.767C3.32166 388.577 18.4225 376.278 29.2772 366.201C33.8427 368.278 46.2082 366.434 51.9384 367.133L76.6561 367.1L84.4628 366.893C86.659 366.973 89.7204 366.946 91.7702 367.486L93.3742 366.268C98.1061 368.677 134.417 366.161 143.209 367.199C149.345 367.259 156.546 367.153 162.596 367.439C161.624 368.397 157.424 372.417 156.799 373.223C155.814 376.737 156.353 376.264 157.551 380.331L157.365 380.211L157.937 382.787C156.34 384.763 154.749 385.775 154.336 387.759C149.232 394.228 138.224 404.291 131.988 410.254C119.516 422.161 107.79 430.86 104.695 448.538C103.617 454.854 103.104 461.01 103.697 467.419L89.6671 478.042C80.3032 485.063 69.3153 488.764 57.5421 487C48.0451 485.623 39.5264 480.418 33.9625 472.598C26.7549 462.561 26.5952 452.977 28.4986 441.383L29.3571 437.755C6.80234 437.742 -1.936 423.898 0.353411 402.767Z" fill="#F03724"/>
<path d="M0.353411 402.767C3.32166 388.577 18.4225 376.278 29.2772 366.201C33.8427 368.278 46.2082 366.434 51.9384 367.133L76.6561 367.1C71.9841 369.589 66.2539 374.234 63.5053 378.767C63.319 382.933 62.5536 391.366 64.1508 394.887C52.0582 406.947 33.4567 421.769 29.3571 437.755C6.80234 437.742 -1.936 423.898 0.353411 402.767Z" fill="#F03724"/>
<path d="M51.9384 367.133L76.6561 367.099C71.9841 369.589 66.2539 374.234 63.5053 378.767C63.319 382.933 62.5536 391.366 64.1508 394.887C52.0582 406.947 33.4567 421.769 29.3571 437.755C6.80234 437.742 -1.936 423.898 0.353411 402.767C10.0435 420.937 25.2375 414.78 36.8975 402.973C44.1851 395.585 53.4758 387.279 60.8698 380.071C65.5617 375.492 56.1778 369.269 51.9384 367.133Z" fill="#A8101C"/>
<path d="M156.799 373.223C155.814 376.737 156.353 376.264 157.551 380.331L157.365 380.211L157.937 382.787C156.34 384.764 154.749 385.775 154.336 387.759C149.232 394.228 138.224 404.291 131.988 410.255C119.516 422.161 107.789 430.86 104.695 448.538C103.617 454.854 103.104 461.01 103.696 467.42L89.6671 478.042C80.3031 485.064 69.3152 488.764 57.542 487C48.045 485.623 39.5263 480.418 33.9625 472.598C26.7548 462.561 26.5951 452.977 28.4985 441.383C35.5864 460.005 50.0616 466.561 68.7629 456.158C76.2168 452.012 84.2497 442.321 90.7186 436.444C106.139 422.441 120.634 406.481 136.294 392.77C139.276 389.309 153.518 375.625 156.799 373.223Z" fill="#A30D1C"/>
<path d="M143.209 367.199C149.345 367.259 156.546 367.153 162.596 367.439C161.624 368.397 157.424 372.417 156.799 373.223C153.518 375.625 139.275 389.309 136.294 392.77C137.312 379.412 133.885 371.698 120.434 367.665C127.722 367.625 136.028 367.758 143.209 367.199Z" fill="#C51C21"/>
<path d="M84.4627 366.893C86.659 366.973 89.7204 366.946 91.7702 367.486L64.1508 394.887C62.5535 391.366 63.3189 382.933 63.5053 378.767C66.2539 374.234 71.9841 369.589 76.6561 367.1L84.4627 366.893Z" fill="#8D041E"/>
<path d="M233.095 316.573C242.738 316.336 263.995 315.984 273.499 316.575L280.74 320.208C282.89 324.197 283.282 325.422 284.54 329.821L282.583 338.427C283.702 341.143 282.923 348.83 282.77 352.264L282.797 353.069C278.351 356.823 273.932 362.866 270.937 365.282C266.717 364.118 259.769 365.256 255.051 365.522L252.668 367.073L227.784 390.74C222.16 396.95 214.061 404.025 207.931 410.101C205.043 412.957 197.549 420.457 194.614 422.834C193.27 421.549 191.453 419.133 189.915 417.516C175.806 402.674 150.723 410.108 132.454 410.254H131.988C138.224 404.291 149.232 394.228 154.336 387.758C154.749 385.775 156.34 384.763 157.937 382.787L157.365 380.211L157.551 380.331C156.353 376.264 155.814 376.737 156.799 373.223C157.424 372.417 161.624 368.397 162.596 367.439C164.08 366.753 164.625 365.961 165.837 364.777C167.72 366.148 170.322 367.605 172.732 367.439L173.37 369.842L173.53 369.862C181.716 359.519 200.085 345.675 208.976 334.767C214.547 330.267 219.545 323.685 225.901 319.835C227.731 318.728 230.839 317.714 233.095 316.573Z" fill="#F03724"/>
<path d="M165.837 364.777C167.72 366.148 170.322 367.605 172.732 367.439L173.37 369.842L173.53 369.862C186.774 366.847 199.719 365.808 213.116 368.657C223.904 373.209 227.804 379.226 227.784 390.74C222.16 396.95 214.061 404.025 207.931 410.101C205.043 412.957 197.549 420.458 194.614 422.834C193.27 421.549 191.453 419.133 189.915 417.516C175.806 402.674 150.723 410.108 132.454 410.254H131.988C138.224 404.291 149.232 394.228 154.336 387.759C154.749 385.775 156.34 384.763 157.937 382.787L157.365 380.211L157.551 380.331C156.353 376.264 155.814 376.737 156.799 373.223C157.424 372.417 161.624 368.397 162.596 367.439C164.08 366.753 164.625 365.961 165.837 364.777Z" fill="#FC4C29"/>
<path d="M165.837 364.777C167.72 366.148 170.322 367.605 172.732 367.439L173.37 369.842C170.236 372.956 157.251 386.234 154.336 387.759C154.749 385.775 156.34 384.763 157.937 382.787L157.365 380.211L157.551 380.331C156.353 376.264 155.814 376.737 156.799 373.223C157.424 372.417 161.624 368.397 162.596 367.439C164.08 366.753 164.625 365.961 165.837 364.777Z" fill="#8D041E"/>
<path d="M213.116 368.657C216.763 366.607 246.818 367.059 252.668 367.073L227.784 390.74C227.804 379.226 223.904 373.209 213.116 368.657Z" fill="#C51C21"/>
<path d="M282.583 338.427C283.701 341.143 282.923 348.83 282.77 352.264L282.796 353.069C278.351 356.823 273.932 362.867 270.937 365.283C266.717 364.118 259.769 365.256 255.051 365.522C256.568 362.66 278.763 342.234 282.583 338.427Z" fill="#C51C21"/>
<path d="M82.4328 315.172C88.4292 314.062 97.9861 314.094 103.983 315.188C107.676 314.39 115.09 314.713 118.93 315.01L125.845 315.149L136.946 315.269C139.455 315.041 186.228 315.666 187.619 315.977C191.885 316.439 195.679 316.387 199.938 316.387C204.371 322.134 206.607 327.965 208.976 334.767C200.085 345.675 181.716 359.519 173.53 369.862L173.37 369.842L172.732 367.439C170.322 367.605 167.72 366.148 165.837 364.777C164.625 365.961 164.08 366.754 162.596 367.439C156.546 367.153 149.345 367.259 143.209 367.199C134.417 366.161 98.106 368.677 93.3741 366.268L91.7701 367.486C89.7203 366.946 86.6589 366.973 84.4627 366.893L76.656 367.1L51.9383 367.133C46.2081 366.434 33.8426 368.278 29.2771 366.201C34.1488 360.783 44.4644 351.233 50.0815 345.848C58.334 337.941 73.5946 320.918 82.4328 315.172Z" fill="#F03724"/>
<path d="M82.4328 315.172C88.4292 314.062 97.9861 314.094 103.983 315.188C107.676 314.39 115.09 314.713 118.93 315.01C120.847 319.274 122.797 323.352 124.394 327.758C125.16 329.868 125.273 332.717 126.005 334.267C117.566 343.605 102.798 356.91 93.3741 366.268L91.7701 367.486C89.7203 366.946 86.6589 366.973 84.4627 366.893L76.656 367.1L51.9383 367.133C46.2081 366.434 33.8426 368.278 29.2771 366.201C34.1488 360.783 44.4644 351.233 50.0815 345.848C58.334 337.941 73.5946 320.918 82.4328 315.172Z" fill="#F03724"/>
<path d="M103.983 315.188C107.676 314.39 115.09 314.713 118.93 315.01C120.847 319.274 122.797 323.352 124.394 327.758C125.16 329.868 125.273 332.717 126.005 334.267C117.566 343.605 102.798 356.91 93.3741 366.268L91.7701 367.486C89.7203 366.946 86.6589 366.973 84.4626 366.893C96.136 353.209 131.535 331.259 103.983 315.188Z" fill="#A8101C"/>
<path d="M187.619 315.977C191.885 316.439 195.679 316.387 199.938 316.387C204.371 322.134 206.607 327.965 208.976 334.767C200.085 345.675 181.716 359.519 173.53 369.862L173.37 369.842L172.732 367.439C170.322 367.605 167.72 366.148 165.837 364.777C167.201 362.993 169.124 361.249 170.748 359.659C177.39 353.482 188.059 344.79 191.965 336.89C197.829 325.029 185.856 319.658 184.631 316.496L187.619 315.977Z" fill="#A8101C"/>
<path d="M170.748 359.659C171.447 362.254 172.166 364.81 172.732 367.439C170.322 367.605 167.72 366.148 165.837 364.777C167.201 362.993 169.124 361.249 170.748 359.659Z" fill="#60011D"/>
<path d="M125.845 315.149L136.946 315.269C140.7 315.619 143.814 315.847 147.581 315.941C138.37 320.432 133.639 327.572 126.005 334.267C125.273 332.716 125.16 329.868 124.394 327.758C122.797 323.352 120.847 319.273 118.93 315.01L125.845 315.149Z" fill="#8D041E"/>
<path d="M331.606 308.545C353.349 304.881 378.672 301.856 396.062 318.777C382.333 332.158 367.438 352.251 353.981 366.64C349.795 371.126 344.458 377.975 340.098 381.981C340.325 368.224 338.561 357.635 324.631 351.252C310.482 344.757 296.733 347.891 282.796 353.069L282.77 352.264C282.923 348.83 283.701 341.143 282.583 338.427L284.54 329.821C283.282 325.422 282.89 324.197 280.74 320.208L273.499 316.575C284.786 316.138 308.705 312.959 319.966 310.517C322.701 309.661 328.658 308.164 331.14 309.428L331.606 308.545Z" fill="#F03724"/>
<path d="M319.966 310.517C322.701 309.661 328.658 308.164 331.14 309.428C328.691 310.733 323.487 313.002 321.73 314.356C307.88 325.023 295.441 340.018 282.77 352.264C282.923 348.83 283.701 341.143 282.583 338.427L284.54 329.822C283.282 325.422 282.89 324.198 280.74 320.208L273.499 316.575C284.786 316.138 308.705 312.96 319.966 310.517Z" fill="#A8101C"/>
<path d="M81.0486 233.075C83.2315 235.826 89.6339 248.438 91.677 252.178C99.9762 267.229 108.195 282.326 116.322 297.469C118.152 300.887 124.967 312.802 125.845 315.149L118.93 315.01C115.09 314.712 107.676 314.39 103.983 315.188C97.9862 314.094 88.4293 314.062 82.4329 315.172C82.7922 288.394 81.215 260.228 81.0486 233.075Z" fill="#C51C21"/>
<path d="M319.966 310.517C325.816 299.173 357.921 257.282 367.478 250.399C364.137 256.374 358.673 264.331 354.913 270.295C346.933 282.917 339.167 295.668 331.606 308.545L331.14 309.428C328.658 308.164 322.702 309.661 319.966 310.517Z" fill="#C51C21"/>
<path d="M199.938 316.387L233.095 316.573C230.839 317.714 227.731 318.729 225.901 319.835C219.545 323.685 214.547 330.267 208.976 334.767C206.607 327.965 204.371 322.134 199.938 316.387Z" fill="#8D041E"/>
<path d="M183.553 218.005C186.574 213.887 194.181 209.978 199.273 209.9C222.606 209.543 246.645 209.111 269.872 210.954C273.226 211.219 278.011 214.895 280.567 216.912C286.111 223.096 289.225 228.212 288.873 236.934C287.681 266.673 268.128 262.634 245.147 262.36C234.752 262.235 222.047 261.737 210.986 261.958C199.086 261.991 178.655 263.884 180.086 246.499C180.066 246.021 178.388 241.037 178.162 239.379C176.911 230.119 178.069 225.398 183.553 218.005Z" fill="#C51C21"/>
<path d="M183.553 218.005C186.575 213.887 194.182 209.978 199.273 209.9C222.606 209.543 246.645 209.111 269.872 210.954C273.226 211.219 278.011 214.895 280.567 216.912C281.652 228.371 276.92 232.824 266.085 235.034C264.248 234.472 252.795 234.59 250.179 234.593C237.381 234.683 224.583 234.603 211.785 234.353C207.392 234.264 198.201 234.294 194.175 233.608C185.763 231.139 182.701 226.532 183.553 218.005Z" fill="#F03724"/>
<path d="M198.288 216.105C204.271 215.913 217.282 213.986 214.953 224.072C214.394 226.502 212.73 227.178 210.673 228.371C205.056 228.403 199.373 229.066 194.82 225.34C192.611 220.98 194.914 218.906 198.288 216.105Z" fill="#FEFDFE"/>
<path d="M280.567 216.912C286.111 223.095 289.225 228.212 288.873 236.934C287.681 266.673 268.128 262.634 245.148 262.36C234.752 262.235 222.047 261.737 210.986 261.958C207.758 261.107 208.251 261.357 206.773 258.539C218.141 258.517 229.514 258.684 240.875 259.04C249.454 259.273 270.398 262.457 274.81 253.156C279.283 243.738 273.905 239.052 266.085 235.034C276.92 232.824 281.652 228.371 280.567 216.912Z" fill="#60011D"/>
<path d="M183.553 218.005C182.701 226.532 185.762 231.139 194.175 233.608C191.832 236.54 181.789 235.851 183.08 249.291C181.683 248.841 181.23 247.828 180.086 246.499C180.066 246.021 178.388 241.037 178.162 239.379C176.911 230.119 178.069 225.398 183.553 218.005Z" fill="#60011D"/>
<path d="M180.086 246.499C181.23 247.828 181.683 248.841 183.08 249.291C189.895 261.759 199.938 255.08 206.773 258.539C208.251 261.356 207.758 261.107 210.986 261.958C199.086 261.991 178.655 263.884 180.086 246.499Z" fill="#A8101C"/>
<path d="M131.988 410.254H132.454C150.723 410.108 175.806 402.674 189.916 417.516C191.453 419.133 193.27 421.549 194.614 422.834L194.075 423.579C200.85 437.576 202.76 444.365 201.782 460.538C194.321 467.905 167.714 490.594 159.408 494.588C153.272 497.543 146.53 499.027 139.715 498.927C119.909 498.741 108.169 485.776 103.697 467.42C103.104 461.01 103.617 454.854 104.695 448.538C107.79 430.86 119.516 422.161 131.988 410.254Z" fill="#F03724"/>
<path d="M104.695 448.538C105.52 462.228 115.363 471.027 128.827 471.679C134.99 471.985 141.106 470.548 146.49 467.546C156.147 462.221 183.427 433.063 194.075 423.579C200.85 437.576 202.76 444.364 201.782 460.538C194.321 467.905 167.714 490.594 159.408 494.588C153.272 497.543 146.53 499.027 139.715 498.927C119.909 498.741 108.169 485.776 103.697 467.419C103.104 461.01 103.617 454.854 104.695 448.538Z" fill="#C51C21"/>
<path d="M255.051 365.522C259.769 365.256 266.717 364.118 270.937 365.283C257.021 381.629 245.74 388.744 238.832 409.542C235.284 418.907 235.564 423.3 235.983 432.924C230.246 436.005 208.856 455.02 201.782 460.538C202.76 444.365 200.85 437.576 194.075 423.579L194.614 422.834C197.549 420.458 205.043 412.957 207.931 410.101C214.061 404.025 222.16 396.95 227.784 390.74L252.668 367.073L255.051 365.522Z" fill="#8D041E"/>
</svg>
