<svg width="91" height="93" viewBox="0 0 91 93" fill="none" xmlns="http://www.w3.org/2000/svg">
<path d="M14.1738 5.10307L14.1018 3.51907C16.1658 -1.29144 25.2608 -0.940938 28.4513 3.17806C28.4488 4.59956 28.3883 6.55557 28.4808 7.92557L29.0218 8.47257C35.8733 7.99007 50.6613 14.1286 53.7248 12.3391C56.4918 5.84557 59.5508 4.73156 66.2798 7.51656C68.1098 9.38956 69.1193 15.6471 69.7868 16.3021C72.9583 19.4141 80.4288 17.5341 84.3523 21.0881C84.3668 25.1946 85.0808 28.1936 82.5433 31.4561L82.3453 31.7086C82.1673 31.9391 82.2193 31.8501 82.1438 32.0296C82.1488 44.1726 81.9418 57.1311 82.4603 69.2826C82.4798 69.7381 83.4518 73.0981 83.6643 74.2001C86.2123 74.7056 88.2758 74.9871 89.8653 77.1216C90.1773 78.4446 90.3218 79.4561 89.4568 80.7796C87.0538 84.4576 78.0733 90.6846 74.0133 91.7571C71.6713 92.3761 64.9753 92.4401 62.4763 92.5121C62.0653 92.6981 61.6778 92.8011 61.2228 92.8271C57.0973 93.0606 3.01178 79.4416 1.90578 78.1656C0.639781 76.7056 1.24328 73.3156 1.38478 71.5046L2.42428 71.0731C3.72728 68.5296 3.11628 38.3571 3.19828 33.1191L2.98978 31.8611C-1.15172 29.8846 0.137777 25.8346 0.378277 21.6816C2.49878 20.0116 9.11628 16.2756 11.7313 14.7136C11.5278 8.35307 14.2158 9.23907 14.1738 5.10307Z" fill="#1D2649"/>
<path d="M14.1738 5.10307L14.1018 3.51907C16.1658 -1.29144 25.2608 -0.940938 28.4513 3.17806C28.4488 4.59956 28.3883 6.55557 28.4808 7.92557L29.0218 8.47257C35.8733 7.99007 50.6613 14.1286 53.7248 12.3391C56.4918 5.84557 59.5508 4.73156 66.2798 7.51656C68.1098 9.38956 69.1193 15.6471 69.7868 16.3021C72.9583 19.4141 80.4288 17.5341 84.3523 21.0881C84.3668 25.1946 85.0808 28.1936 82.5433 31.4561L82.3453 31.7086C82.1673 31.9391 82.2193 31.8501 82.1438 32.0296C74.9283 34.4701 65.8113 42.4111 61.9248 43.2616C53.0923 42.1126 7.07128 31.0951 2.98978 31.8611C-1.15172 29.8846 0.137777 25.8346 0.378277 21.6816C2.49878 20.0116 9.11628 16.2756 11.7313 14.7136C11.5278 8.35307 14.2158 9.23907 14.1738 5.10307Z" fill="#181F3F"/>
<path d="M84.3523 21.0881C84.3668 25.1946 85.0808 28.1936 82.5433 31.4561L82.3453 31.7086C82.1673 31.9391 82.2193 31.8501 82.1438 32.0296C74.9283 34.4701 65.8113 42.4111 61.9248 43.2616C62.4603 40.2561 62.2478 38.1431 61.6443 35.1941C68.1058 31.6821 79.1453 23.3731 84.3523 21.0881Z" fill="#101831"/>
<path d="M14.1737 5.10307L14.1017 3.51907C16.1657 -1.29144 25.2607 -0.940938 28.4512 3.17806C28.4487 4.59956 28.3882 6.55557 28.4807 7.92557C27.3967 9.97058 26.7327 9.91858 24.3282 10.6931L23.5422 11.3281C22.5422 12.1191 22.2232 12.1241 20.9577 12.3701L20.5382 12.5426L17.1937 12.4871L17.2847 12.1706L13.3982 11.4436L13.8412 10.0201C14.3717 8.44657 14.2082 6.77757 14.1737 5.10307Z" fill="#181F3F"/>
<path d="M24.3283 10.6932L23.7058 10.3847C25.2553 5.82574 23.7283 5.13572 28.4513 3.17822C28.4488 4.59972 28.3883 6.55574 28.4808 7.92574C27.3968 9.97074 26.7328 9.91874 24.3283 10.6932Z" fill="#091124"/>
<path d="M17.7763 11.1096C20.1098 11.3686 21.2003 11.4286 23.5423 11.3281C22.5423 12.1191 22.2233 12.1241 20.9578 12.3701L20.5383 12.5426L17.1938 12.4871L17.2848 12.1706L17.7763 11.1096Z" fill="#7F7BA1"/>
<path d="M13.8412 10.02L17.7762 11.1095L17.2847 12.1705L13.3982 11.4435L13.8412 10.02Z" fill="#E2DDE5"/>
<path d="M17.7913 4.19614C20.2238 3.99614 22.6678 3.31215 24.0853 5.42765C22.1468 5.61615 20.2398 5.95165 18.3898 5.36965L17.7913 4.19614Z" fill="#E2DDE5"/>
<path d="M14.1737 5.10303C14.2082 6.77753 14.3717 8.44653 13.8412 10.02L13.3982 11.4435L17.2847 12.1705L17.1937 12.487L20.5382 12.5425L20.9577 12.37C20.7952 14.55 20.5152 16.723 20.9372 18.863L20.4497 20.5535L20.2012 22.27C17.4342 22.2795 15.1457 21.7565 12.4402 21.2505C11.8152 18.5525 11.8097 17.429 11.7312 14.7135C11.5277 8.35303 14.2157 9.23903 14.1737 5.10303Z" fill="#101831"/>
<path d="M20.5382 12.5426L20.9577 12.3701C20.7952 14.5501 20.5152 16.7231 20.9372 18.8631L20.4497 20.5536C18.7927 20.3711 17.1322 20.2276 15.4688 20.1226C16.2958 18.9206 16.2582 16.4861 16.3547 14.9286C16.4922 13.1066 16.2102 13.6641 17.1937 12.4871L20.5382 12.5426Z" fill="#1D2649"/>
<path d="M17.1937 12.4871L20.5382 12.5426C20.2912 14.5711 20.5522 15.1491 19.5057 16.5896C18.0612 16.4546 17.5162 15.8296 16.3547 14.9286C16.4922 13.1066 16.2102 13.6641 17.1937 12.4871Z" fill="#1C3658"/>
<path d="M15.4689 20.1226C14.8969 19.7706 14.2724 19.1921 13.7504 18.7471C12.7609 16.2301 12.7514 14.0691 13.3984 11.4436L17.2849 12.1706L17.1939 12.4871C16.2104 13.6641 16.4924 13.1066 16.3549 14.9286C16.2584 16.4861 16.2959 18.9206 15.4689 20.1226Z" fill="#454A77"/>
<path d="M29.7242 17.0317L30.1382 18.0187C28.9357 20.2887 22.7162 21.7862 20.2012 22.2702L20.4497 20.5537L20.9372 18.8633L21.2697 18.0642C22.1382 17.7432 27.1662 17.6537 29.7242 17.0317Z" fill="#030304"/>
<path d="M53.2788 17.5326L53.6683 16.4186C55.6173 16.3831 57.7703 17.4691 59.8043 17.9686L59.7668 19.0731L60.1573 19.1471L62.6948 18.9556L62.6278 27.5181C63.0018 27.4381 63.3728 27.3446 63.7398 27.2371C67.1138 26.2756 68.4088 25.4046 70.0093 22.4596L70.9303 22.2391L71.5423 22.6831C71.0193 24.6106 67.4803 27.4136 65.7593 28.2776C61.9578 30.1876 57.0163 28.8486 53.1628 27.6736C52.3813 26.3271 51.8348 25.0406 50.5658 24.2201C49.4398 24.9771 48.4808 25.5931 47.3083 26.2811L46.8098 25.7721C47.2253 24.0436 50.9523 21.5831 52.4723 20.6171C52.8123 22.2791 52.8823 23.7871 53.0018 25.4741C53.2568 23.2526 53.2283 19.8526 53.2788 17.5326Z" fill="#1C3658"/>
<path d="M53.1628 27.6737C52.3813 26.3272 51.8348 25.0407 50.5658 24.2202C49.4398 24.9772 48.4808 25.5932 47.3083 26.2812L46.8098 25.7722C47.2253 24.0437 50.9523 21.5832 52.4723 20.6172C52.8123 22.2792 52.8823 23.7872 53.0018 25.4742C55.0608 27.1122 56.1898 27.0667 58.8578 27.3127C60.0558 27.3907 61.4443 27.5177 62.6278 27.5182C63.0018 27.4382 63.3728 27.3447 63.7398 27.2372C67.1138 26.2757 68.4088 25.4047 70.0093 22.4597L70.9303 22.2392L71.5423 22.6832C71.0193 24.6107 67.4803 27.4137 65.7593 28.2777C61.9578 30.1877 57.0163 28.8487 53.1628 27.6737Z" fill="#030304"/>
<path d="M60.1572 19.1471L62.6947 18.9556L62.6277 27.5181C61.4442 27.5176 60.0557 27.3906 58.8577 27.3126C59.8567 24.8956 58.9287 21.7946 60.1572 19.1471Z" fill="#1D2649"/>
<path d="M53.2788 17.5326L53.6683 16.4186C55.6173 16.3831 57.7703 17.4691 59.8043 17.9686L59.7668 19.0731C56.8533 18.7026 56.0803 18.5861 53.2788 17.5326Z" fill="#C3C3D8"/>
<path d="M2.17578 21.6177L2.63779 21.6407C3.78779 21.7077 7.69678 22.3162 8.70428 22.6602C15.3323 24.9242 59.4393 32.0347 62.0148 34.9667C59.9243 34.8942 44.4973 31.6382 42.2528 31.0192C36.6943 29.4862 4.77678 24.3462 2.17578 21.6177Z" fill="#7F7BA1"/>
<path d="M34.7498 19.131C37.1818 18.9905 42.9073 19.654 44.7388 21.3955C41.1608 21.1455 37.8348 21.103 34.7498 19.131Z" fill="#5F5E7A"/>
<path d="M59.8044 17.9686C61.4839 17.8716 63.1879 17.7126 64.8584 17.8756C63.9794 18.3906 63.6398 18.5881 62.6948 18.9556L60.1573 19.1471L59.7668 19.0731L59.8044 17.9686Z" fill="#7F7BA1"/>
<path d="M2.98975 31.8611C7.07125 31.0951 53.0923 42.1126 61.9248 43.2616C65.8113 42.4111 74.9282 34.4701 82.1437 32.0296C82.1487 44.1726 81.9417 57.1311 82.4602 69.2826C82.4797 69.7381 83.4518 73.0981 83.6643 74.2001C86.2122 74.7056 88.2757 74.9871 89.8652 77.1216C90.1772 78.4446 90.3217 79.4561 89.4567 80.7796C87.0537 84.4576 78.0732 90.6846 74.0133 91.7571C71.6712 92.3761 64.9753 92.4401 62.4762 92.5121L62.2673 92.2441C60.8262 90.8731 61.4602 87.8656 60.8822 85.0116L60.7053 84.6721C60.7088 77.2126 61.8562 52.3626 60.4622 46.3981C59.5052 45.1636 56.2032 43.9056 54.6602 43.6301C37.5072 40.5641 20.3107 36.2276 3.19825 33.1191L2.98975 31.8611Z" fill="#080F24"/>
<path d="M83.6643 74.2002C86.2123 74.7057 88.2758 74.9872 89.8653 77.1217C90.1773 78.4447 90.3218 79.4562 89.4568 80.7797C87.0538 84.4577 78.0733 90.6847 74.0133 91.7572C71.6713 92.3762 64.9753 92.4402 62.4763 92.5122L62.2673 92.2442C67.1593 89.7147 77.9398 82.2727 82.3468 78.6902C83.7613 77.5407 83.6413 75.9847 83.6643 74.2002Z" fill="#C3C3D8"/>
<path d="M2.42421 71.0732C19.6057 75.8627 42.9142 80.7162 60.7052 84.6722L60.8822 85.0117C61.4602 87.8657 60.8262 90.8732 62.2672 92.2442L62.4762 92.5122C62.0652 92.6982 61.6777 92.8012 61.2227 92.8272C57.0972 93.0607 3.0117 79.4417 1.9057 78.1657C0.639704 76.7057 1.2432 73.3157 1.3847 71.5047L2.42421 71.0732Z" fill="#1D2649"/>
<path d="M2.42427 71.0732C19.6058 75.8627 42.9143 80.7162 60.7053 84.6722L60.8823 85.0117C59.3213 85.8732 4.69077 73.5822 1.38477 71.5047L2.42427 71.0732Z" fill="#7F7BA1"/>
<path d="M10.5479 39.5107C12.0529 39.9552 13.6399 40.7027 15.1579 40.9617C28.5719 43.2492 41.5719 46.9203 54.8234 49.9528C54.6839 57.3823 55.1404 64.7922 54.9554 72.2167C54.8804 75.2367 54.7969 75.4802 52.7014 77.5262C39.2574 74.4152 21.0914 70.9127 8.53388 66.4897C8.61388 59.2497 7.93288 49.0708 8.85588 41.8123C8.91888 41.3163 10.1334 39.9577 10.5479 39.5107Z" fill="#101831"/>
<path d="M16.4609 46.2876L17.2534 46.5776C18.6399 48.5421 22.3309 54.4716 20.9209 56.6261C19.2214 56.6056 19.5384 56.4216 17.8884 55.1601C15.3979 54.5941 13.2584 55.9531 11.7134 53.8181C12.1329 52.1981 15.3319 47.9086 16.4609 46.2876Z" fill="#6E84B5"/>
<path d="M25.6437 52.9192C29.3157 53.2572 28.9912 53.6807 30.8477 56.7527C32.2417 57.2542 34.2622 58.1442 35.6577 57.9722L35.0792 56.8622L35.5127 56.2257L36.9802 56.0497C38.2487 57.1147 38.2507 58.4732 38.5132 60.1367C36.2072 60.9287 33.3592 58.9957 31.0272 58.0352L30.4247 59.5452C30.1582 59.3907 28.3182 58.1657 28.4902 58.1717C26.8692 58.1137 25.6392 58.6382 24.1427 57.8067L23.8252 56.6222C24.2442 54.9202 24.6887 54.3742 25.6437 52.9192Z" fill="#ABA5B8"/>
<path d="M43.7637 56.4547C43.2382 54.8237 43.1202 54.5582 43.4242 52.8332L44.1707 52.2317C45.8067 53.1782 46.6537 54.2422 47.8392 55.3967C48.2292 55.7772 50.3312 54.3427 51.1147 55.7067C50.2197 57.0227 48.5537 58.5122 47.1067 59.1417L44.7792 57.5102L43.7637 56.4547Z" fill="#E9090E"/>
<path d="M44.7792 57.5103L47.1067 59.1418C47.8607 61.6083 49.4722 61.1337 49.4607 63.6427L48.4427 64.8167C46.7832 64.3537 44.8202 61.6043 43.5952 60.1198C43.6387 59.4638 44.4322 58.1608 44.7792 57.5103Z" fill="#7F7BA1"/>
<path d="M43.7638 56.4546L44.7793 57.5101C44.4323 58.1606 43.6389 59.4636 43.5954 60.1196C42.4029 62.2431 41.4448 63.2106 39.4548 64.5156L38.8083 64.3631C38.9058 61.7031 41.9133 59.5661 43.7638 56.4546Z" fill="#ABA5B8"/>
<path d="M14.7924 57.8767C16.7239 57.9702 17.0784 58.0337 18.2574 59.4167C18.3814 60.7882 18.2734 60.9577 17.5979 62.1712C15.9904 62.1527 15.2489 62.2487 13.7799 61.5822C13.4914 60.0767 14.0814 59.5292 14.7924 57.8767Z" fill="#951506"/>
</svg>
