<svg width="50" height="97" viewBox="0 0 50 97" fill="none" xmlns="http://www.w3.org/2000/svg">
<path d="M12.7731 1.51739C16.6505 -0.352615 19.3244 -0.336607 23.4218 0.712393C25.0023 1.99639 24.8213 1.44839 25.0878 3.11039L25.7178 4.53539C28.4783 5.12439 35.3728 6.66839 36.0863 9.06139C38.1263 15.9029 37.2573 35.2049 37.0698 42.1949C37.1798 54.2989 37.1813 66.4034 37.0733 78.5074L37.1228 82.4089C40.9673 83.0774 46.9038 84.1424 49.4303 87.2484C51.9123 96.7469 27.6603 96.4139 22.3735 96.0229C21.5771 96.0629 20.7796 96.0789 19.9822 96.0704C15.3397 96.0334 6.20086 95.5699 3.10071 91.9954C-0.302441 88.0714 0.45471 83.8479 0.61111 79.0839C0.36591 73.8724 0.131011 46.7384 0.653711 42.5274L0.64376 42.2889C0.42571 41.0434 0.16561 34.5379 0.35041 33.4844C1.99756 24.0929 -5.18754 6.26639 9.44401 5.42289C12.2519 4.56489 11.9061 4.06839 12.7731 1.51739Z" fill="#E9090E"/>
<path d="M12.7731 1.51739C16.6505 -0.352615 19.3244 -0.336607 23.4218 0.712393C25.0023 1.99639 24.8213 1.44839 25.0878 3.11039L25.7178 4.53539C28.4783 5.12439 35.3728 6.66839 36.0863 9.06139C38.1263 15.9029 37.2573 35.2049 37.0698 42.1949L36.6178 42.1619C33.9863 44.3614 32.4128 45.4004 29.1008 46.5144L28.5228 46.8564C21.5232 48.4309 17.8331 48.4744 10.7263 47.3064L10.2159 47.3684C7.28501 46.5289 6.49816 46.1564 3.84566 44.7839C2.99946 43.6769 1.87311 43.1874 0.653711 42.5274L0.64376 42.2889C0.42571 41.0434 0.16561 34.5379 0.35041 33.4844C1.99756 24.0929 -5.18754 6.26639 9.44401 5.42289C12.2519 4.56489 11.9061 4.06839 12.7731 1.51739Z" fill="#060A1A"/>
<path d="M9.76352 30.7747C9.31877 26.0207 11.2014 22.4977 8.71582 18.5687L8.99637 18.3347L12.6377 18.8722C15.0848 19.6432 20.6713 19.2522 23.471 19.1327C25.3419 20.3777 26.4899 20.9322 28.5309 21.9042C28.8499 27.5042 26.9929 42.5457 29.1009 46.5142L28.5229 46.8562C21.5232 48.4307 17.8331 48.4742 10.7263 47.3062C10.2119 45.0002 10.6673 40.0367 10.4371 37.4937C10.2311 35.2182 9.95067 33.0722 9.76352 30.7747Z" fill="#091124"/>
<path d="M18.1941 25.2783L19.2804 25.8233C19.2907 30.4618 20.3727 30.9743 23.9717 33.1348C20.885 35.9878 19.5694 37.8873 17.2499 41.3398C14.7712 39.9108 20.1456 36.7458 11.4407 34.2138C14.2803 30.9608 15.764 28.8733 18.1941 25.2783Z" fill="#F9BB27"/>
<path d="M0.64376 42.2889C0.42571 41.0434 0.16561 34.5379 0.35041 33.4844C1.99756 24.0929 -5.18754 6.26635 9.44401 5.42285L10.7379 5.98335C10.6203 6.36535 10.5416 6.66685 10.5382 7.06885L10.7318 7.14885C11.5753 12.2423 12.6367 12.1289 17.508 13.1754L18.4984 13.6163L18.0735 16.7189C14.3233 16.7379 12.5692 16.7158 8.88086 16.1463L8.07996 16.4653L12.5991 17.5468C12.8544 18.4233 12.8476 17.9963 12.6377 18.8723L8.99631 18.3349L8.71576 18.5688C11.2014 22.4978 9.31871 26.0209 9.76346 30.7749C9.95061 33.0724 10.231 35.2184 10.437 37.4939C10.6672 40.0369 10.2118 45.0004 10.7263 47.3064L10.2159 47.3684C7.28501 46.5289 6.49816 46.1564 3.84566 44.7839C2.99946 43.6769 1.87311 43.1874 0.653711 42.5274L0.64376 42.2889Z" fill="#181F3F"/>
<path d="M5.13758 16.6879L6.21518 15.8789C6.87293 16.0269 7.51918 16.1099 8.07988 16.4654L12.599 17.5469C12.8543 18.4234 12.8475 17.9964 12.6376 18.8724L8.99623 18.3349L8.71568 18.5689C11.2013 22.4979 9.31863 26.0209 9.76338 30.7749L9.13143 32.8349C7.93613 33.9899 6.93933 35.4064 5.29968 34.4994C3.91093 32.4194 4.29438 19.4019 5.95803 17.5144L5.13758 16.6879Z" fill="#454A77"/>
<path d="M8.88084 16.1464C6.46479 15.3169 4.39974 14.6959 3.67554 12.1564C4.74319 9.13843 7.84454 8.78093 10.7317 7.14893C11.5752 12.2424 12.6366 12.1289 17.508 13.1754L18.4984 13.6164L18.0735 16.7189C14.3232 16.7379 12.5692 16.7159 8.88084 16.1464Z" fill="#C3C3D8"/>
<path d="M0.64376 42.2889C0.42571 41.0434 0.16561 34.5379 0.35041 33.4844C1.99756 24.0929 -5.18754 6.26635 9.44401 5.42285L10.7379 5.98335C10.6203 6.36535 10.5416 6.66685 10.5382 7.06885L10.7318 7.14885C7.84456 8.78085 4.74321 9.13836 3.67556 12.1564C4.39976 14.6959 6.46481 15.3168 8.88086 16.1463L8.07996 16.4653C7.51926 16.1098 6.87301 16.0268 6.21526 15.8788L5.13766 16.6879L0.90891 13.5663C0.91336 18.6828 1.22736 38.7094 0.64376 42.2889Z" fill="#1C3658"/>
<path d="M12.7731 1.51739C16.6506 -0.352615 19.3245 -0.336607 23.4218 0.712393C25.0024 1.99639 24.8214 1.44839 25.0879 3.11039L25.7179 4.53539C25.6894 4.87539 25.5289 6.42138 25.5969 6.64188C27.6749 6.77838 31.1949 7.68089 32.6484 9.29789C34.5669 14.4204 27.9184 15.8949 24.2029 16.5349C21.584 16.8479 20.6695 16.9724 18.0736 16.7189L18.4985 13.6164L17.5081 13.1754C12.6367 12.1289 11.5753 12.2424 10.7318 7.14889L10.5383 7.06888C10.5417 6.66688 10.6204 6.36539 10.7379 5.98339L9.44409 5.42289C12.252 4.56489 11.9061 4.06839 12.7731 1.51739Z" fill="#586297"/>
<path d="M12.7731 1.51739C16.6506 -0.352615 19.3245 -0.336607 23.4218 0.712393C25.0024 1.99639 24.8214 1.44839 25.0879 3.11039C22.894 3.92139 21.7728 5.26989 20.2494 5.52489C20.2587 9.00489 20.2865 9.52839 19.3301 12.9344L17.5081 13.1754C12.6367 12.1289 11.5753 12.2424 10.7318 7.14889L10.5383 7.06888C10.5417 6.66688 10.6204 6.36539 10.7379 5.98339L9.44409 5.42289C12.252 4.56489 11.9061 4.06839 12.7731 1.51739Z" fill="#1D2649"/>
<path d="M12.7729 1.51739C16.6504 -0.352615 19.3243 -0.336607 23.4216 0.712393C25.0022 1.99639 24.8212 1.44839 25.0877 3.11039C22.8938 3.92139 21.7726 5.26989 20.2492 5.52489L19.922 4.86388C17.4082 4.67138 16.2589 4.69989 13.9756 3.51639C13.7637 2.98689 13.1117 2.04439 12.7729 1.51739Z" fill="#091124"/>
<path d="M23.4218 0.712402C25.0024 1.9964 24.8214 1.4484 25.0879 3.1104C22.894 3.9214 21.7728 5.2699 20.2494 5.5249L19.9221 4.86389C22.1708 3.44939 22.1265 3.1434 23.4218 0.712402Z" fill="#1D2649"/>
<path d="M13.9756 3.51636C16.2589 4.69986 17.4082 4.67135 19.922 4.86385L20.2493 5.52486C19.1124 5.56036 18.2777 5.76435 17.1732 5.98485C16.0165 6.85885 15.6028 8.55536 15.0927 9.96236L14.8855 9.29684L15.2305 9.24335L15.427 8.39085L14.5454 7.61784C14.4936 6.17384 14.2287 4.93236 13.9756 3.51636Z" fill="#7F7BA1"/>
<path d="M20.2494 5.52486C21.7727 5.26986 22.8939 3.92135 25.0878 3.11035L25.7178 4.53535C25.6893 4.87535 25.5288 6.42135 25.5968 6.64185C25.8423 8.44935 26.2358 9.71685 25.2308 11.2034C23.8428 12.5124 21.3016 12.6299 19.3301 12.9344C20.2865 9.52836 20.2587 9.00486 20.2494 5.52486Z" fill="#091124"/>
<path d="M18.4984 13.6165C20.439 14.5825 23.3366 15.1725 24.2028 16.535C21.5839 16.848 20.6694 16.9725 18.0735 16.719L18.4984 13.6165Z" fill="#5F5E7A"/>
<path d="M25.7179 4.5354C28.4784 5.1244 35.3729 6.6684 36.0864 9.0614C38.1264 15.9029 37.2574 35.2049 37.0699 42.1949L36.6179 42.1619L36.6459 13.7019C30.4834 17.2159 30.9874 17.6994 23.471 19.1329C20.6714 19.2524 15.0848 19.6434 12.6378 18.8724C12.8477 17.9964 12.8545 18.4234 12.5992 17.5469L8.08008 16.4654L8.88098 16.1464C12.5693 16.7159 14.3234 16.7379 18.0736 16.7189C20.6695 16.9724 21.5841 16.8479 24.2029 16.5349C27.9184 15.8949 34.5669 14.4204 32.6484 9.2979C31.1949 7.6809 27.6749 6.77839 25.5969 6.64189C25.5289 6.42139 25.6894 4.8754 25.7179 4.5354Z" fill="#1D2649"/>
<path d="M29.1888 83.2038C32.4548 81.9553 34.2553 80.5353 37.0733 78.5073L37.1228 82.4088C40.9673 83.0773 46.9038 84.1423 49.4303 87.2483C51.9123 96.7468 27.6603 96.4138 22.3734 96.0228C21.577 96.0628 20.7795 96.0788 19.9821 96.0703C15.3397 96.0333 6.20082 95.5698 3.10067 91.9953C-0.302481 88.0713 0.45467 83.8478 0.61107 79.0838L4.50817 81.6163C5.19777 81.9408 6.11112 82.4073 6.79712 82.6753L9.50232 83.3863L11.2249 83.9093L16.3534 84.5898C21.2916 84.6973 24.4368 84.3128 29.1888 83.2038Z" fill="#091124"/>
<path d="M37.1229 82.4089C40.9674 83.0774 46.9039 84.1424 49.4304 87.2484C51.9124 96.7469 27.6604 96.4139 22.3735 96.0229C22.7729 95.8194 25.2814 95.3514 25.9734 95.1364C34.5524 92.4734 37.2784 91.7614 37.1229 82.4089Z" fill="#C3C3D8"/>
<path d="M6.79714 82.6753L9.50234 83.3863L11.2249 83.9093L16.3534 84.5898C16.6739 89.3773 17.1699 94.8793 10.1215 92.0673C8.60184 91.4613 7.07339 91.0593 5.75889 90.0308C4.67289 88.1388 4.27699 85.5023 5.17009 83.4708L6.51544 83.0128L6.79714 82.6753Z" fill="#181F3F"/>
<path d="M5.75889 90.0309C4.67289 88.1389 4.27699 85.5024 5.17009 83.4709L6.51544 83.0129C8.96474 84.8904 9.58524 87.3914 8.34444 90.3729L5.75889 90.0309Z" fill="#454A77"/>
<path d="M6.79708 82.6753L9.50228 83.3863L11.2248 83.9093C11.3372 85.8653 11.8256 89.1193 10.8824 90.6498C9.48808 91.0128 10.0235 90.9463 8.34438 90.3728C9.58518 87.3913 8.96468 84.8903 6.51538 83.0128L6.79708 82.6753Z" fill="#1D2649"/>
<path d="M0.653697 42.5273C1.8731 43.1873 2.99945 43.6768 3.84565 44.7838C6.49815 46.1563 7.285 46.5288 10.2158 47.3683C10.5384 54.5398 9.12695 60.5768 10.2531 67.4398C10.3068 70.1093 9.8007 80.5013 9.50235 83.3863L6.79715 82.6753C6.11115 82.4073 5.1978 81.9408 4.5082 81.6163L0.611096 79.0838C0.365896 73.8723 0.130997 46.7383 0.653697 42.5273Z" fill="#E9090E"/>
<path d="M3.84552 44.7839C6.49802 46.1564 7.28487 46.5289 10.2157 47.3684C10.5383 54.5399 9.12682 60.5769 10.253 67.4399C9.54042 69.9384 9.97032 69.8574 8.31712 71.3774C4.69452 71.6629 4.50972 67.0274 4.29232 64.4084C4.05367 57.8004 3.81137 51.3969 3.84552 44.7839Z" fill="#F74029"/>
<path d="M4.29238 64.4084C4.50978 67.0274 4.69458 71.663 8.31718 71.3775C9.97038 69.8575 9.54048 69.9385 10.2531 67.44C10.3067 70.1095 9.80063 80.5014 9.50228 83.3864L6.79708 82.6754C6.11108 82.4074 5.19773 81.941 4.50813 81.6165C4.33063 76.126 3.97163 69.8314 4.29238 64.4084Z" fill="#E10A0B"/>
<path d="M36.6178 42.1619L37.0698 42.1949C37.1798 54.2989 37.1813 66.4034 37.0733 78.5074C34.2553 80.5354 32.4548 81.9554 29.1888 83.2039C27.3778 75.2284 29.6408 55.6509 28.5228 46.8564L29.1008 46.5144C32.4128 45.4004 33.9863 44.3614 36.6178 42.1619Z" fill="#C9030D"/>
<path d="M19.9574 53.8474C20.8776 54.2689 20.4646 53.9744 21.1273 54.8944C21.0794 57.1154 19.7958 60.0394 18.9946 62.2029C20.9844 62.8669 23.6698 63.4649 25.7513 63.9899C22.385 68.9529 18.7175 73.6099 14.978 78.2904L14.4631 77.7099C14.7166 75.6019 16.8289 70.1474 17.6445 67.8749L10.446 66.5844C12.3757 63.2944 16.9626 55.5579 19.9574 53.8474Z" fill="#F9BB27"/>
</svg>
