<svg width="71" height="96" viewBox="0 0 71 96" fill="none" xmlns="http://www.w3.org/2000/svg">
<path d="M3.39232 7.33475C8.75032 -2.73175 36.5683 -2.28275 40.0428 7.73575C40.1383 11.8562 40.1943 15.9773 40.2103 20.0988C38.9798 21.1293 37.1253 22.4557 36.5003 23.8262C41.5953 28.9702 42.6573 31.0652 42.6313 38.5652C42.6298 38.9802 42.6258 39.4003 42.6198 39.8203C42.4688 48.8102 42.4638 57.8053 42.6038 66.7953C47.6068 63.4553 56.5133 61.2652 59.4138 68.2152L59.8313 69.1502C60.0218 70.8552 59.8213 72.6952 61.2343 73.7752C64.2178 76.0602 69.0843 74.2152 69.2823 79.7152L69.3818 82.5453C70.3013 84.2703 70.3168 83.6803 69.9508 85.3003C66.8863 88.5453 59.8138 87.2002 56.1893 85.6502C54.4813 85.1302 53.4273 82.6502 52.4913 81.0102L49.4673 82.0652L49.6758 83.1003C50.3528 84.1452 51.1968 85.2002 51.3663 86.3852C48.4353 88.1552 46.8958 88.6503 43.6903 89.7953L43.6343 94.9502L41.1668 95.4303L39.1718 95.5102C34.7783 93.8302 31.2898 93.1702 31.8848 87.9002C21.7558 89.6452 8.69632 90.5352 1.69782 81.5102C-0.56868 77.1452 0.0588202 73.2152 0.14182 68.2602C-0.16968 59.4502 0.136812 48.7853 0.170812 39.8203C-0.0746881 31.5803 0.772815 29.6552 6.33281 23.6747C5.89631 22.4797 4.32682 21.1208 3.36432 20.1588C3.30132 15.8843 3.31082 11.6092 3.39232 7.33475Z" fill="#921B05"/>
<path d="M3.39234 7.33475C8.75034 -2.73175 36.5683 -2.28275 40.0428 7.73575C40.1383 11.8562 40.1943 15.9773 40.2103 20.0988C38.9798 21.1293 37.1253 22.4557 36.5003 23.8262L36.2778 23.8112L35.1668 23.6737C31.3543 25.2767 29.0258 25.9893 24.8043 26.3423C22.4933 26.2893 17.3708 26.0347 15.3853 26.4707L13.2578 25.4163L10.6378 24.7582L8.98034 23.7657L7.32833 23.3267L6.78434 23.1183L6.33283 23.6747C5.89633 22.4797 4.32684 21.1208 3.36434 20.1588C3.30134 15.8843 3.31084 11.6092 3.39234 7.33475Z" fill="#E2DDE5"/>
<path d="M38.2521 9.23459L40.0426 7.7356C40.1381 11.8561 40.1941 15.9771 40.2101 20.0986C38.9796 21.1291 37.1251 22.4556 36.5001 23.8261L36.2776 23.8111L35.1666 23.6736C31.3541 25.2766 29.0256 25.9891 24.8041 26.3421C24.2196 23.7286 24.5371 18.8011 24.1501 15.4266L24.8297 14.6726C27.2232 14.3981 31.2916 13.2411 33.5151 12.3611C35.5181 11.4156 36.4861 10.5936 38.2521 9.23459Z" fill="#8E91BB"/>
<path d="M38.2524 9.23459L40.0429 7.7356C40.1384 11.8561 40.1944 15.9771 40.2104 20.0986C38.9799 21.1291 37.1254 22.4556 36.5004 23.8261L36.2779 23.8111L35.1669 23.6736C33.9029 20.3781 35.5709 16.7916 33.5154 12.3611C35.5184 11.4156 36.4864 10.5936 38.2524 9.23459Z" fill="#7F7BA1"/>
<path d="M15.3852 26.4707C16.0772 22.5947 14.7872 18.7947 15.7412 15.1527L16.6052 14.7498L18.0807 15.3087L19.4222 15.5447C20.7927 14.4532 22.5742 15.0943 24.1502 15.4268C24.5372 18.8013 24.2197 23.7288 24.8042 26.3423C22.4932 26.2893 17.3707 26.0347 15.3852 26.4707Z" fill="#B3B4D1"/>
<path d="M18.0809 15.3088L19.4224 15.5448C19.8319 18.3168 20.8979 23.5968 19.0044 25.6548L17.6604 25.4973C17.3944 24.4118 18.0629 17.4913 18.0809 15.3088Z" fill="#C3C3D8"/>
<path d="M3.39233 7.33475C8.75033 -2.73175 36.5683 -2.28275 40.0428 7.73575L38.2523 9.23474C31.5813 -1.00076 12.7003 0.235737 4.37332 8.22574L3.39233 7.33475Z" fill="#C3C3D8"/>
<path d="M3.39234 7.33472L4.37333 8.22571C4.75183 8.89771 5.59384 10.2517 5.75634 10.9167C6.67984 11.4457 7.38483 11.8482 8.36033 12.2962C10.0953 15.1837 9.49634 20.4992 8.98034 23.7657L7.32833 23.3267L6.78434 23.1182L6.33283 23.6747C5.89633 22.4797 4.32684 21.1207 3.36434 20.1587C3.30134 15.8842 3.31084 11.6092 3.39234 7.33472Z" fill="#C3C3D8"/>
<path d="M3.39234 7.33472L4.37333 8.22571C4.75183 8.89771 5.59384 10.2517 5.75634 10.9167C5.54384 13.9652 4.78034 20.7312 6.78434 23.1182L6.33283 23.6747C5.89633 22.4797 4.32684 21.1207 3.36434 20.1587C3.30134 15.8842 3.31084 11.6092 3.39234 7.33472Z" fill="#B3B4D1"/>
<path d="M10.6379 24.7583C11.8094 22.8058 10.9169 16.6113 11.5459 13.7903C15.1189 14.1113 13.3994 22.4753 13.2579 25.4163L10.6379 24.7583Z" fill="#B3B4D1"/>
<path d="M0.170655 39.8203C1.00015 40.3753 2.76967 41.4953 3.44367 42.0903C11.0127 46.2103 18.2887 45.6253 26.6497 46.0753C26.9102 46.0903 27.9967 46.9853 28.2022 47.2303L27.8292 47.3503C25.8522 47.9553 24.3782 47.9703 22.3472 48.0753L22.8022 48.1853C23.2807 48.3003 23.3692 48.3003 23.7247 48.6553C21.1252 53.8153 25.3032 59.2853 18.1352 61.9653C15.1137 63.0953 10.0637 61.8803 7.30316 60.5653L6.88966 60.3653L5.94966 60.4753L3.15965 59.4403L3.80367 61.9403C3.51917 64.3203 3.59116 68.8103 3.03616 70.5803L0.141663 68.2603C-0.169837 59.4503 0.136655 48.7853 0.170655 39.8203Z" fill="#F3F0EF"/>
<path d="M0.170655 39.8203C1.00015 40.3753 2.76967 41.4953 3.44367 42.0903L3.54717 48.5703C3.20517 49.9703 2.88216 51.3753 2.57816 52.7853C5.56666 58.5603 14.1747 55.8703 17.5637 58.0053L17.7532 58.7853C14.2592 62.8003 6.06665 56.4603 2.88815 57.0253C2.96115 57.8803 3.02665 58.5903 3.15965 59.4403L3.80367 61.9403C3.51917 64.3203 3.59116 68.8103 3.03616 70.5803L0.141663 68.2603C-0.169837 59.4503 0.136655 48.7853 0.170655 39.8203Z" fill="#D9D8E3"/>
<path d="M3.54738 48.5701C7.15638 50.6451 14.5609 52.5701 15.7619 54.3901C12.6304 55.6651 6.01337 52.9851 2.57837 52.7851C2.88237 51.3751 3.20538 49.9701 3.54738 48.5701Z" fill="#C3C3D8"/>
<path d="M42.6039 66.7952C47.6069 63.4552 56.5133 61.2652 59.4138 68.2152L59.8313 69.1502C60.0218 70.8552 59.8213 72.6952 61.2343 73.7752C64.2178 76.0602 69.0843 74.2152 69.2823 79.7152L69.3818 82.5452C70.3013 84.2702 70.3168 83.6802 69.9508 85.3002C66.8863 88.5452 59.8138 87.2002 56.1893 85.6502C54.4813 85.1302 53.4273 82.6502 52.4913 81.0102L53.4013 79.9752C51.4403 79.9302 49.2459 80.2602 47.7079 79.1502C46.5579 78.0052 44.0513 76.2552 42.6643 75.2252L42.6768 72.6102L42.5488 69.2302L42.7119 68.9102L42.6039 66.7952Z" fill="#DEAE9B"/>
<path d="M59.8312 69.1501C60.0217 70.8551 59.8212 72.6951 61.2342 73.7751C64.2177 76.0601 69.0842 74.2151 69.2822 79.7151L69.3817 82.5452C70.3012 84.2702 70.3167 83.6802 69.9507 85.3002C66.8862 88.5452 59.8137 87.2001 56.1892 85.6501C54.4812 85.1301 53.4272 82.6501 52.4912 81.0101L53.4012 79.9752L53.7902 79.1002C54.3272 76.0002 54.8382 76.2652 57.5082 74.9352C58.9952 74.5402 58.4662 74.8452 59.5477 73.8002C59.7772 72.0652 59.8037 70.9001 59.8312 69.1501Z" fill="#DEAE9B"/>
<path d="M59.8313 69.1501C60.0218 70.8551 59.8213 72.6951 61.2343 73.7751C64.2178 76.0601 69.0843 74.2151 69.2823 79.7151C67.2193 80.6101 65.2123 81.5351 63.0578 82.1901C59.7603 81.6801 57.4038 79.8352 53.7903 79.1002C54.3273 76.0002 54.8383 76.2652 57.5083 74.9352C58.9953 74.5402 58.4663 74.8452 59.5478 73.8002C59.7773 72.0652 59.8038 70.9001 59.8313 69.1501Z" fill="#E6C8B6"/>
<path d="M63.0577 82.1901C65.2122 81.5351 67.2192 80.6101 69.2822 79.7151L69.3817 82.5451C70.3012 84.2701 70.3167 83.6801 69.9507 85.3001C66.8862 88.5451 59.8137 87.2001 56.1892 85.6501C59.0322 85.6851 60.0787 86.4301 62.9322 85.9701L63.0577 82.1901Z" fill="#8E91BB"/>
<path d="M63.0579 82.1901C65.2124 81.5351 67.2194 80.6101 69.2824 79.7151L69.3819 82.5451C67.2624 84.4501 65.5659 84.9401 62.9324 85.9701L63.0579 82.1901Z" fill="#97162F"/>
<path d="M59.4138 68.2151L59.8312 69.1501C59.8037 70.9001 59.7773 72.0651 59.5478 73.8001C58.4663 74.8451 58.9952 74.5401 57.5082 74.9351C54.8382 76.2651 54.3273 76.0001 53.7903 79.1001L53.4012 79.9751C51.4402 79.9301 49.2458 80.2601 47.7078 79.1501C48.5478 77.0251 48.8738 76.3551 50.0973 74.4351L50.4148 72.6951C51.0718 72.0851 52.1147 71.7401 52.9652 71.3901C55.0917 70.8251 57.4568 69.3251 59.4138 68.2151Z" fill="#770C64"/>
<path d="M50.0973 74.4353C52.2683 74.3903 55.6147 74.0953 57.5082 74.9353C54.8382 76.2653 54.3273 76.0003 53.7903 79.1003L53.4012 79.9753C51.4402 79.9303 49.2458 80.2602 47.7078 79.1502C48.5478 77.0252 48.8738 76.3553 50.0973 74.4353Z" fill="#1D2649"/>
<path d="M42.6768 72.6101C44.9503 72.9801 48.3803 73.7901 50.4148 72.6951L50.0973 74.4351C48.8738 76.3551 48.5478 77.0251 47.7078 79.1501C46.5578 78.0051 44.0513 76.2551 42.6643 75.2251L42.6768 72.6101Z" fill="#A57C7B"/>
<path d="M42.7119 68.9102C47.3534 71.1652 47.8308 71.6051 52.9653 71.3901C52.1148 71.7401 51.0719 72.0851 50.4149 72.6951C48.3804 73.7901 44.9503 72.9802 42.6768 72.6102L42.5488 69.2302L42.7119 68.9102Z" fill="#B08D8D"/>
<path d="M28.2024 47.2302C28.0284 52.1102 28.5959 72.4652 27.3689 74.2802C24.4309 75.6152 21.2219 75.3152 17.9994 75.2352C16.7319 74.8202 12.6089 74.4202 9.66837 73.5102L5.31937 71.8102L3.03638 70.5802C3.59138 68.8102 3.51938 64.3202 3.80388 61.9402L3.15987 59.4402L5.94987 60.4752L6.88988 60.3652L7.30338 60.5652C10.0639 61.8802 15.1139 63.0952 18.1354 61.9652C25.3034 59.2852 21.1254 53.8152 23.7249 48.6552C23.3694 48.3002 23.2809 48.3002 22.8024 48.1852L22.3474 48.0752C24.3784 47.9702 25.8524 47.9552 27.8294 47.3502L28.2024 47.2302Z" fill="#DEDBE2"/>
<path d="M3.15991 59.4402L5.94992 60.4752L6.59242 61.4302L6.16891 62.0052C5.42641 61.9902 4.52842 61.9952 3.80392 61.9402L3.15991 59.4402Z" fill="#C3C3D8"/>
<path d="M8.82837 67.4402C11.7319 67.3952 13.9834 67.2502 16.8484 67.8402L17.4404 69.0652C12.9649 69.8102 11.3914 71.8102 8.82837 67.4402Z" fill="#C3C3D8"/>
<path d="M33.4849 45.0903C34.0219 44.6453 40.8394 40.9703 42.6199 39.8203C42.4689 48.8103 42.4639 57.8053 42.6039 66.7953L42.7119 68.9103L42.5488 69.2303C40.2428 70.0153 38.8304 72.5753 35.2969 72.4753C32.4399 70.0653 34.1029 50.9503 33.5384 45.5703L33.4849 45.0903Z" fill="#7F7BA1"/>
<path d="M42.6644 75.2253C44.0514 76.2553 46.5579 78.0053 47.7079 79.1503C49.2459 80.2603 51.4404 79.9303 53.4014 79.9753L52.4914 81.0103L49.4674 82.0653L49.6759 83.1003C50.3529 84.1453 51.1969 85.2003 51.3664 86.3853C48.4354 88.1553 46.8959 88.6503 43.6904 89.7953L43.6344 94.9503L41.1669 95.4304L39.1719 95.5103C34.7784 93.8303 31.2899 93.1703 31.8849 87.9003C32.2424 86.8253 32.1059 86.3603 32.0024 85.2003C34.4849 81.7903 36.8034 81.1003 40.8779 80.7003L42.6644 75.2253Z" fill="#FCA407"/>
<path d="M31.8849 87.9002C32.2424 86.8252 32.1059 86.3602 32.0024 85.2002C33.0744 87.3352 37.7994 89.9452 40.1304 90.0252L42.3849 89.9402L43.6904 89.7952L43.6344 94.9502L41.1669 95.4302L39.1719 95.5102C34.7784 93.8302 31.2899 93.1702 31.8849 87.9002Z" fill="#F27C02"/>
<path d="M42.3848 89.9401L43.6903 89.7952L43.6343 94.9501L41.1668 95.4302C40.3333 93.9202 40.4083 93.2051 40.4578 91.5701C41.3383 90.0551 40.8143 90.4751 42.3848 89.9401Z" fill="#FE8249"/>
<path d="M49.6756 83.1003C50.3526 84.1453 51.1966 85.2003 51.3661 86.3853C48.4351 88.1553 46.8956 88.6503 43.6901 89.7953L42.3846 89.9403L40.1301 90.0253C41.8276 86.4253 46.2196 84.8353 49.6756 83.1003Z" fill="#F27C02"/>
<path d="M42.6642 75.2253C44.0512 76.2553 46.5577 78.0053 47.7077 79.1503C49.2457 80.2603 51.4402 79.9303 53.4012 79.9753L52.4912 81.0103L49.4672 82.0653C46.4882 80.7703 44.0507 80.8153 40.8777 80.7003L42.6642 75.2253Z" fill="#B3B4D1"/>
<path d="M0.14182 68.2603L3.03632 70.5803L5.31931 71.8103L9.66831 73.5103C12.6088 74.4203 16.7318 74.8203 17.9993 75.2353C19.2918 76.9903 23.0003 80.4753 23.3353 81.4003C20.2263 85.0503 13.7668 85.1253 9.77132 83.1253C8.01182 82.3853 6.95682 81.8353 5.28882 80.8953C3.90932 80.9453 2.88082 80.8403 1.69782 81.5103C-0.56868 77.1453 0.0588202 73.2153 0.14182 68.2603Z" fill="#951506"/>
<path d="M0.14182 68.2603L3.03632 70.5803L5.31931 71.8103C5.00231 75.2403 4.61832 77.4753 5.28882 80.8953C3.90932 80.9453 2.88082 80.8403 1.69782 81.5103C-0.56868 77.1453 0.0588202 73.2153 0.14182 68.2603Z" fill="#951506"/>
<path d="M5.31921 71.8103L9.66821 73.5103C10.0727 76.7953 9.87873 79.8203 9.77123 83.1253C8.01173 82.3853 6.95673 81.8353 5.28873 80.8953C4.61823 77.4753 5.00221 75.2403 5.31921 71.8103Z" fill="#E10A0B"/>
<path d="M36.2778 23.8113L36.5003 23.8263C41.5953 28.9703 42.6573 31.0653 42.6313 38.5653C42.6298 38.9803 42.6258 39.4003 42.6198 39.8203C40.8393 40.9703 34.0218 44.6453 33.4848 45.0903C31.8578 41.7453 34.6338 39.7703 29.7533 33.6003C28.8908 32.4703 27.6238 31.6453 26.4678 30.7753C32.7923 27.8553 32.5243 30.7553 36.2778 23.8113Z" fill="#951506"/>
<path d="M7.32837 23.3267L8.98038 23.7657L10.6379 24.7581L13.2579 25.4162L15.3854 26.4706C17.3709 26.0346 22.4934 26.2892 24.8044 26.3422C29.0259 25.9892 31.3544 25.2766 35.1669 23.6736L36.2779 23.8112C32.5244 30.7552 32.7924 27.8551 26.4679 30.7751L22.4624 31.2202C18.8424 28.8852 10.9534 29.4652 7.32837 23.3267Z" fill="#5A0A05"/>
<path d="M22.4622 31.2202L26.4677 30.7751C27.6237 31.6451 28.8907 32.4702 29.7532 33.6002C26.9442 34.5302 24.0717 33.8252 22.4622 31.2202Z" fill="#951506"/>
<path d="M8.59924 29.1101C10.5627 29.8601 11.3242 30.8101 12.8302 32.3001C11.6602 34.3501 10.4677 36.3851 9.25274 38.4051C7.26274 37.7601 5.85124 37.4351 5.03124 35.3101C4.97074 32.5951 6.80474 31.0551 8.59924 29.1101Z" fill="#F59A79"/>
<path d="M43.6901 89.7953C46.8956 88.6503 48.4351 88.1553 51.3661 86.3853C51.3076 87.7153 51.1726 89.4253 51.2746 90.7153C53.1376 91.1403 52.7961 90.7653 53.7836 92.0253C52.4041 96.2503 42.8846 96.4953 39.1716 95.5103L41.1666 95.4303L43.6341 94.9503L43.6901 89.7953Z" fill="#E10A0B"/>
<path d="M51.2746 90.7151C53.1376 91.1401 52.7961 90.7651 53.7836 92.0251C52.4041 96.2501 42.8846 96.4951 39.1716 95.5101L41.1666 95.4301L43.6341 94.9501C46.7046 93.9951 49.5006 93.4651 51.2746 90.7151Z" fill="#B3B4D1"/>
</svg>
