<svg width="62" height="111" viewBox="0 0 62 111" fill="none" xmlns="http://www.w3.org/2000/svg">
<path d="M12.547 21.9134C12.547 21.9134 12.1967 11.0174 12.1352 9.86091C11.4564 -2.88909 28.927 -1.07009 36.5013 3.12641C37.7263 5.13291 37.7858 5.79892 37.7858 8.19492C37.7678 11.7509 38.7728 18.0659 37.1208 20.7229C45.5003 27.2219 50.3333 31.1759 49.9088 42.6709C49.9053 54.9909 49.5958 68.6559 49.9273 80.8609C49.7708 85.8609 49.6698 93.4259 50.0128 98.4309C46.6223 107.371 38.6188 108.921 30.0817 110.086C20.9333 110.846 4.2353 109.691 0.411999 99.7109C0.039099 98.1659 0.107348 95.4409 0.083998 93.7559C-0.032802 76.4209 -0.0278011 59.0859 0.0990489 41.7509C-0.282101 33.3594 4.8621 25.2284 12.547 21.9134Z" fill="#F1EFF0"/>
<path d="M12.5472 21.9134C12.5472 21.9134 12.1969 11.0174 12.1353 9.86091C11.4565 -2.88909 28.9271 -1.07009 36.5014 3.12641C37.7264 5.13291 37.7859 5.79892 37.7859 8.19492C37.7679 11.7509 38.7729 18.0659 37.1209 20.7229C45.5004 27.2219 50.3334 31.1759 49.9089 42.6709C47.3154 44.1909 41.3264 47.6409 38.3719 47.1959L37.6734 48.0159C28.8222 50.5009 16.5426 48.9509 7.75979 46.7209L4.05154 44.8109C3.30514 44.0859 1.03999 42.4609 0.0991893 41.7509C-0.281961 33.3594 4.86224 25.2284 12.5472 21.9134Z" fill="#1C3658"/>
<path d="M12.547 21.9134C12.547 21.9134 12.1967 11.0174 12.1352 9.86091C11.4564 -2.88909 28.927 -1.07009 36.5013 3.12641C37.7263 5.13291 37.7858 5.79892 37.7858 8.19492C37.7678 11.7509 38.7728 18.0659 37.1208 20.7229C35.5443 23.9919 30.5772 24.4524 27.3237 24.9369L25.5145 25.7329C24.5952 25.7849 22.768 25.3954 21.7858 25.2234C19.7786 24.6334 13.5475 23.1729 12.547 21.9134Z" fill="#1D2649"/>
<path d="M31.0544 8.98247C33.8829 8.10447 34.6784 6.57248 37.0094 6.59148L37.7859 8.195C37.7679 11.751 38.7729 18.066 37.1209 20.723C35.5444 23.992 30.5773 24.4525 27.3238 24.937L25.5146 25.733C24.5953 25.785 22.7681 25.3955 21.7859 25.2235L21.7008 24.0905C20.3361 23.433 19.8372 22.4675 18.1526 22.457C18.8643 22.007 19.4735 21.389 20.0929 20.8115C20.5119 18.288 20.4242 11.175 21.4337 9.8135L24.2516 9.82748C25.7737 9.57748 27.1174 9.5565 28.6533 9.4985L31.0544 8.98247Z" fill="#091124"/>
<path d="M31.0543 8.98242C31.121 19.4324 32.9723 20.8584 21.6165 20.8799C21.1799 21.0489 20.6345 20.8814 20.0928 20.8114C20.5118 18.2879 20.4241 11.1749 21.4336 9.81345L24.2515 9.82742C25.7736 9.57742 27.1173 9.55644 28.6532 9.49844L31.0543 8.98242Z" fill="#181F3F"/>
<path d="M24.2515 9.82751C25.7735 9.57751 27.1173 9.55654 28.6532 9.49854C27.6858 13.9515 28.7191 17.619 27.2569 21.815C26.3698 18.8275 25.6431 11.5285 25.1948 10.875C24.6534 12.4365 24.5725 13.3255 24.3553 14.951L24.2515 9.82751Z" fill="#1D2649"/>
<path d="M21.4336 9.81348L24.2515 9.82745L24.3554 14.951C24.2803 17.1245 24.563 18.501 23.2153 19.815C21.2495 18.3 22.0963 13.2375 21.5091 10.1905L21.4336 9.81348Z" fill="#1C3658"/>
<path d="M18.1526 22.457C18.8643 22.007 19.4735 21.389 20.0929 20.8115C20.6346 20.8815 21.18 21.049 21.6166 20.88C23.666 21.041 26.5482 20.9835 28.0494 22.154C28.0107 23.178 28.1872 23.0795 27.6584 23.6575L27.3238 24.937L25.5146 25.733C24.5953 25.785 22.7681 25.3955 21.7859 25.2235L21.7008 24.0905C20.3361 23.433 19.8372 22.4675 18.1526 22.457Z" fill="#1C3658"/>
<path d="M21.7007 24.0905L27.6583 23.6575L27.3237 24.937L25.5145 25.733C24.5952 25.785 22.768 25.3955 21.7858 25.2235L21.7007 24.0905Z" fill="#181F3F"/>
<path d="M36.5013 3.12646C37.7263 5.13296 37.7858 5.79898 37.7858 8.19498L37.0093 6.59146C34.6783 6.57246 33.8828 8.10445 31.0543 8.98245L28.6533 9.49847C27.1174 9.55647 25.7736 9.57745 24.2516 9.82745L21.4336 9.81348C20.4241 11.175 20.5119 18.288 20.0928 20.8115C19.4734 21.389 18.8642 22.007 18.1525 22.457C17.0055 21.771 15.9078 21.2705 15.3021 20.0765L16.2746 18.493C15.2813 14.443 16.6639 9.70297 14.7024 6.76947L15.0197 5.83148C17.4663 6.62848 21.5106 8.11145 23.9758 8.14645L25.1974 8.16147C30.9047 8.17947 32.8283 6.80796 36.5013 3.12646Z" fill="#02394D"/>
<path d="M27.3237 24.9369C30.5771 24.4524 35.5442 23.9919 37.1207 20.7229C45.5002 27.2219 50.3332 31.1759 49.9087 42.6709C47.3152 44.1909 41.3262 47.6409 38.3717 47.1959C39.2682 46.0309 41.4572 46.2159 43.2117 44.4709C45.0947 37.9409 39.9517 31.3029 35.4182 27.1859C31.0062 27.4489 29.4919 27.8294 25.5144 25.7329L27.3237 24.9369Z" fill="#1D2649"/>
<path d="M13.8252 26.7454C15.4015 27.8654 16.4067 28.8374 15.6381 30.8224C14.1383 34.6964 12.0941 38.6009 9.95034 42.1509C9.75589 42.4759 9.01754 42.4259 8.61749 42.4659C7.04214 41.8059 6.48904 41.6559 5.24184 40.4709C3.34054 35.1169 9.91148 29.4379 13.8252 26.7454Z" fill="#2A7D8D"/>
<path d="M49.9089 42.6709C49.9054 54.9909 49.5959 68.6559 49.9274 80.8609C49.7709 85.8609 49.6699 93.4259 50.0129 98.4309C49.2154 96.3409 49.6629 96.6359 48.0909 95.4209C45.9124 95.3459 45.4444 95.9859 43.7454 97.5359L40.9144 98.5859C40.2164 98.7259 38.4654 99.0309 37.8784 99.2259C34.0939 100.891 26.7527 96.5159 23.7432 94.1509L24.463 92.6959C38.0554 91.8459 44.8999 78.1609 41.0829 65.8809C40.2524 63.2109 38.9039 61.3109 37.3799 59.0059C38.0384 55.9359 37.7654 51.2509 37.6734 48.0159L38.3719 47.1959C41.3264 47.6409 47.3154 44.1909 49.9089 42.6709Z" fill="#064935"/>
<path d="M39.8223 92.1108C40.2523 90.7108 39.9573 90.9559 40.9128 90.1309C42.8793 91.1459 43.2253 95.3808 43.7453 97.5358L40.9143 98.5858C39.9903 96.0458 41.2888 94.7208 39.8223 92.1108Z" fill="#145C34"/>
<path d="M37.8782 99.2258C38.3207 96.7858 38.6042 94.2558 39.8222 92.1108C41.2887 94.7208 39.9902 96.0458 40.9142 98.5858C40.2162 98.7258 38.4652 99.0308 37.8782 99.2258Z" fill="#074B3C"/>
<path d="M13.6737 88.646C17.9073 91.666 19.3199 91.826 24.256 92.666L24.4629 92.696L23.7431 94.1509C26.7526 96.5159 34.0938 100.891 37.8783 99.226C38.4653 99.031 40.2163 98.7259 40.9143 98.5859L43.7453 97.5359C45.4443 95.9859 45.9123 95.346 48.0908 95.421C49.6628 96.636 49.2153 96.341 50.0128 98.431C46.6223 107.371 38.6188 108.921 30.0817 110.086C20.9333 110.846 4.23529 109.691 0.411985 99.7109C0.0390854 98.1659 0.107334 95.441 0.0839844 93.756C1.96013 94.996 5.38179 97.416 7.31169 98.246C7.33664 98.196 10.0842 90.886 10.0538 91.106L8.87853 90.426C11.2013 90.111 11.7338 89.906 13.6737 88.646Z" fill="#02394D"/>
<path d="M13.6738 88.646C17.9074 91.666 19.32 91.826 24.2561 92.666L24.463 92.696L23.7432 94.1509C20.7289 96.9309 17.0099 98.546 13.2915 100.171C10.9644 99.266 9.76182 98.821 7.31177 98.246C7.33672 98.196 10.0843 90.886 10.0539 91.106L8.87862 90.426C11.2014 90.111 11.7339 89.906 13.6738 88.646Z" fill="#277F29"/>
<path d="M0.0839844 93.7559C1.96013 94.9959 5.38179 97.4158 7.31169 98.2458C9.76174 98.8208 10.9643 99.2658 13.2914 100.171C5.39639 106.151 4.98519 99.0108 0.411985 99.7108C0.0390854 98.1658 0.107334 95.4409 0.0839844 93.7559Z" fill="#015D62"/>
<path d="M0.0990489 41.751C1.03985 42.461 3.305 44.086 4.0514 44.811L7.75965 46.721C7.7427 49.996 7.62695 60.936 8.9887 63.226C7.46505 67.776 7.2114 69.161 6.90565 74.146C7.5926 77.781 8.18885 79.3559 9.50915 82.8359C11.0244 85.4109 11.5805 86.436 13.6737 88.646C11.7338 89.906 11.2013 90.111 8.87855 90.426L10.0538 91.106C10.0842 90.886 7.33665 98.196 7.3117 98.246C5.3818 97.416 1.96015 94.996 0.083998 93.756C-0.032802 76.421 -0.0278011 59.086 0.0990489 41.751Z" fill="#40912D"/>
<path d="M4.05142 44.811L7.75967 46.721C7.74272 49.996 7.62697 60.936 8.98872 63.226C7.46507 67.776 7.21142 69.1611 6.90567 74.1461C6.24627 72.8061 7.16787 70.996 6.43672 68.801C5.22627 69.536 5.62657 69.551 4.58927 69.301C3.21192 65.671 3.85017 49.451 4.05142 44.811Z" fill="#74B94F"/>
<path d="M9.50921 82.8359C11.0245 85.4109 11.5806 86.436 13.6738 88.646C11.7339 89.906 11.2014 90.111 8.87861 90.426C8.64626 88.066 8.37186 84.9559 9.50921 82.8359Z" fill="#2D812F"/>
<path d="M7.75957 46.7209C16.5424 48.9509 28.822 50.5009 37.6732 48.0159C37.7652 51.2509 38.0382 55.936 37.3797 59.006C27.871 50.761 15.377 52.0309 8.98862 63.2259C7.62687 60.9359 7.74262 49.9959 7.75957 46.7209Z" fill="#2D812F"/>
<path d="M20.6245 66.8508C19.7059 61.6958 21.2138 61.3008 24.7625 57.9658C27.7646 61.0458 29.9291 62.4859 28.1764 67.0009L28.773 67.8658L29.51 69.5258L31.1264 71.1758L31.1587 72.6859C31.4358 73.8059 31.7731 75.5908 32.3319 76.5308L31.6481 77.3558C29.3569 86.2708 22.2973 88.4709 18.4803 79.9409C18.1684 79.2359 17.8753 78.5208 17.6013 77.8008L17.1101 75.9058C17.7669 74.7258 17.7128 74.4058 17.7279 73.0408L17.9612 72.6409L17.4663 71.4459L19.2187 70.1909L19.7621 67.7559L20.6245 66.8508Z" fill="#0A2C29"/>
<path d="M20.6246 66.8508C19.706 61.6958 21.2139 61.3008 24.7626 57.9658C27.7647 61.0458 29.9292 62.4859 28.1765 67.0009C24.773 67.2559 25.0122 65.8408 20.6246 66.8508Z" fill="#172028"/>
<path d="M21.8375 70.571L22.7124 71.536C23.0954 74.191 22.9981 77.331 22.1245 79.886C21.3381 77.046 20.9779 73.411 21.8375 70.571Z" fill="#145C34"/>
<path d="M28.7729 67.8659C33.0248 65.1259 32.8444 62.6309 34.9173 61.4009L35.2983 61.8509C34.8998 66.0109 33.0579 67.4959 29.51 69.5259L28.7729 67.8659Z" fill="#172028"/>
<path d="M19.2188 70.1909C17.443 68.6109 14.3246 66.2009 14.1768 63.8109L15.1076 63.7759C16.9928 64.9459 18.1879 66.2209 19.7622 67.7559L19.2188 70.1909Z" fill="#172028"/>
<path d="M17.1102 75.906L17.6014 77.801C16.762 79.936 15.8857 82.8611 14.2479 84.3311L13.6904 84.046C14.1246 80.126 14.9672 79.141 17.1102 75.906Z" fill="#030304"/>
<path d="M31.6482 77.356L32.3319 76.531C34.4863 79.386 35.2363 80.031 35.6108 83.566L35.2158 84.216C33.3223 83.261 32.3212 79.391 31.6482 77.356Z" fill="#172028"/>
<path d="M17.4665 71.446L17.9614 72.6411L17.7281 73.041C16.1823 73.646 13.3226 75.066 11.9192 73.871C12.9602 72.116 15.5714 71.881 17.4665 71.446Z" fill="#030304"/>
<path d="M31.1265 71.176C33.0493 71.621 35.2249 71.916 36.6749 73.196L36.2949 73.716C33.4823 73.971 33.211 72.891 31.1588 72.686L31.1265 71.176Z" fill="#030304"/>
<path d="M49.9274 80.8608C50.7079 82.3408 50.3869 93.6858 50.3689 96.0358C54.0639 96.9108 61.3124 98.8759 61.0679 103.451C56.7979 110.936 37.5139 111.576 30.0818 110.086C38.6189 108.921 46.6224 107.371 50.0129 98.4308C49.6699 93.4258 49.7709 85.8608 49.9274 80.8608Z" fill="#C3C3D8"/>
</svg>
