<svg width="379" height="604" viewBox="0 0 379 604" fill="none" xmlns="http://www.w3.org/2000/svg">
<g style="mix-blend-mode:luminosity">
<path d="M68.8958 88.0228L81.8635 88.0286L97.8082 87.8415C157.377 87.9243 218.75 87.0475 278.069 87.9044L293.19 88.0692C298.2 88.0261 305.215 87.7455 310.067 87.9914C326.887 88.5411 351.101 87.3397 366.711 88.6504C372.342 88.6156 373.311 90.7948 376.781 94.8336C376.963 104.08 378.396 125.237 375.075 132.931C370.289 135.93 366.214 135.52 360.542 135.642C360.335 142.346 360.053 150.995 358.993 157.631C358.753 160.696 358.562 164.497 358.181 167.492C357.511 203.018 354.24 240.363 352.36 275.928C348.501 347.933 344.136 419.912 339.267 491.857C344.476 488.531 350.157 485.931 356.591 486.906C364.409 488.09 368.334 496.602 368.79 503.725C369.171 524.969 368.376 546.297 368.848 567.551C369.154 581.312 371.887 598.716 352.79 599.154C333.031 599.61 333.04 589.492 332.816 573.769C323.665 593.359 311.301 602.632 289.074 602.855C251.842 603.211 214.609 602.93 177.371 602.963L118.717 603.013C88.0636 603.021 60.246 608.171 45.3588 574.572C42.9482 569.099 42.8654 560.737 42.5606 554.651C41.8965 535.335 39.2655 515.613 39.0808 496.171C39.056 493.528 39.2158 490.48 38.6511 487.955L26.471 276.87C24.1837 238.568 19.9255 194.092 19.2141 156.038C18.6204 149.144 18.5442 142.571 18.4109 135.661C12.2446 135.473 8.31517 136.004 3.22303 132.813C-0.217828 127.048 2.26488 105.646 1.18335 96.3745C3.67104 91.4638 6.30698 88.97 11.9134 88.6082C30.6274 87.3985 50.1736 88.7448 68.8958 88.0228Z" fill="#076FD6"/>
<path d="M68.8958 88.0228L81.8635 88.0286L97.8082 87.8415C157.377 87.9243 218.75 87.0475 278.069 87.9044L293.19 88.0692C298.2 88.0261 305.215 87.7455 310.067 87.9914C326.887 88.5411 351.101 87.3397 366.711 88.6504C372.342 88.6156 373.311 90.7948 376.781 94.8336C376.963 104.08 378.396 125.237 375.075 132.931C370.289 135.93 366.214 135.52 360.542 135.642C360.335 142.346 360.053 150.995 358.993 157.631C358.753 160.696 358.562 164.497 358.181 167.492C357.651 164.166 357.155 160.835 356.691 157.498C341.462 157.904 324.079 155.66 309.943 156.596L304.676 156.615L298.043 156.576L80.3463 156.498L74.5403 156.548L71.0473 143.195C71.102 139.385 68.5132 139.465 70.0486 132.478C59.7947 132.436 40.304 132.822 30.8037 131.852C21.041 131.852 12.9734 132.176 3.22303 132.813C-0.217828 127.048 2.26488 105.646 1.18335 96.3745C3.67104 91.4638 6.30698 88.97 11.9134 88.6082C30.6274 87.3985 50.1736 88.7448 68.8958 88.0228Z" fill="#076FD6"/>
<path d="M70.0488 132.478L275.932 132.535C286.623 132.528 297.389 132.394 308.072 132.516C330.406 132.77 352.807 130.705 375.075 132.931C370.289 135.93 366.214 135.52 360.542 135.642C360.335 142.346 360.053 150.996 358.993 157.631C358.753 160.696 358.563 164.497 358.182 167.492C357.652 164.166 357.155 160.835 356.691 157.498C341.462 157.904 324.079 155.66 309.943 156.596L304.676 156.615L298.043 156.576L80.3465 156.498L74.5405 156.549L71.0475 143.195C71.1021 139.385 68.5134 139.465 70.0488 132.478Z" fill="#034290"/>
<path d="M82.3546 141.401C104.754 140.058 135.516 141.036 158.743 141.043L296.735 141.033L298.043 156.576L80.3464 156.498C80.7746 150.581 81.2897 147.22 82.3546 141.401Z" fill="#0254B1"/>
<path d="M307.964 141.36C323.93 141.285 342.662 142.164 355.573 153.069C355.805 153.269 358.38 156.918 358.993 157.631C358.753 160.696 358.562 164.497 358.181 167.492C357.651 164.166 357.155 160.835 356.691 157.498C341.462 157.904 324.079 155.66 309.943 156.596L304.676 156.615C305.794 151.581 307.012 146.415 307.964 141.36Z" fill="#0254B1"/>
<path d="M68.8958 88.0228L81.8635 88.0286L97.8082 87.8415C157.377 87.9243 218.75 87.0475 278.069 87.9044L293.19 88.0692C298.2 88.0261 305.215 87.7455 310.067 87.9914C326.887 88.5411 351.101 87.3397 366.711 88.6504C369.461 90.9712 371.307 91.4738 374.297 94.3427L374.611 95.5565C366.595 96.6974 358.231 95.7121 350.364 96.1783C335.126 97.0799 320.717 97.0973 305.455 97.0658C298.018 96.5707 285.447 96.9507 277.737 96.9532L224.837 96.9797L77.9944 96.9773C51.9449 96.8994 27.2974 97.3449 1.18335 96.3745C3.67104 91.4638 6.30698 88.97 11.9134 88.6082C30.6274 87.3985 50.1736 88.7448 68.8958 88.0228Z" fill="#2197F7"/>
<path d="M1.18335 96.3745C27.2974 97.3449 51.9449 96.8994 77.9944 96.9773L224.837 96.9797L277.737 96.9532C285.447 96.9508 298.018 96.5707 305.455 97.0659C293.878 98.923 249.962 97.7945 236.099 97.7796L115.915 97.912C95.7594 97.912 70.013 97.1453 50.3086 97.9799C48.8229 108.222 49.6055 120.849 49.1798 131.423C44.197 131.465 35.4702 131.285 30.8037 131.852C21.041 131.852 12.9734 132.176 3.22303 132.813C-0.217828 127.048 2.26488 105.646 1.18335 96.3745Z" fill="#0D7ADF"/>
<path d="M309.943 156.596C324.079 155.66 341.462 157.904 356.691 157.498C357.154 160.835 357.651 164.166 358.181 167.492C357.511 203.018 354.24 240.364 352.36 275.928C348.501 347.934 344.136 419.912 339.267 491.857C344.476 488.531 350.157 485.931 356.591 486.906C364.409 488.091 368.334 496.602 368.79 503.725C369.171 524.969 368.376 546.297 368.848 567.551C369.154 581.312 371.887 598.716 352.79 599.155C333.031 599.61 333.039 589.492 332.816 573.769C323.665 593.359 311.301 602.632 289.074 602.856C251.842 603.212 214.609 602.93 177.371 602.963L118.717 603.013C88.0635 603.021 60.246 608.171 45.3588 574.572C42.9481 569.099 42.8653 560.737 42.5605 554.652C53.308 567.576 56.5202 570.59 74.1701 572.444C84.5349 573.529 95.1424 577.04 105.935 576.957C163.953 576.51 222.211 578.058 280.164 576.419C285.737 576.261 294.954 572.536 299.045 568.586C303.873 563.95 307.045 557.847 308.08 551.232C309.628 541.545 310.142 520.564 310.73 509.988L315.492 420.018C319.5 357.671 323.094 295.299 326.29 232.905C327.317 210.535 329.247 191.042 329.404 168.268C323.913 157.801 320.965 157.806 309.943 156.596Z" fill="#0452AC"/>
<path d="M339.267 491.857C344.476 488.531 350.157 485.931 356.591 486.906C364.409 488.091 368.334 496.602 368.79 503.725C369.171 524.969 368.376 546.297 368.848 567.551C369.154 581.312 371.887 598.716 352.79 599.155C333.031 599.61 333.04 589.492 332.816 573.769C335.524 563.196 335.797 546.364 336.435 535.095L339.267 491.857Z" fill="#162737"/>
<path d="M3.22314 132.813C12.9735 132.176 21.0411 131.852 30.8038 131.852C40.3041 132.822 59.7949 132.436 70.0487 132.478C68.5134 139.465 71.1021 139.385 71.0474 143.195L74.5405 156.549C63.2076 156.367 52.186 157.153 40.5683 156.881C33.0787 156.784 26.6732 156.662 19.2142 156.039C18.6205 149.144 18.5443 142.571 18.411 135.661C12.2448 135.474 8.31529 136.004 3.22314 132.813Z" fill="#0452AC"/>
<path d="M40.5682 156.881C40.5069 153.584 40.1889 146.078 42.2161 143.902C45.4773 140.4 67.893 140.972 71.0473 143.195L74.5403 156.549C63.2075 156.367 52.1859 157.153 40.5682 156.881Z" fill="#0254B1"/>
<path d="M38.651 487.955C39.2158 490.48 39.056 493.528 39.0808 496.172C39.2655 515.613 41.8965 535.335 42.5606 554.652C42.8654 560.737 42.9482 569.1 45.3588 574.573C45.3373 577.702 45.4077 580.915 45.1278 584.036C44.7079 588.706 42.4099 593.458 38.6601 596.356C34.5667 599.527 29.1889 600.198 24.192 599.486C19.2828 598.774 14.2967 596.555 11.3014 592.473C7.81333 587.721 8.3541 508.04 9.89276 498.662C10.47 495.148 12.2099 491.62 15.2433 489.61C22.2666 484.955 30.8725 488.551 38.1757 490.253L38.651 487.955Z" fill="#0F2D43"/>
<path d="M114.605 44.7897C114.632 30.0975 112.953 16.3031 124.765 5.85532C131.95 -0.499521 148.056 0.06429 156.983 0.0440945C182.238 -0.0122845 207.264 -0.0350239 232.495 0.102978C240.485 0.169455 251.457 1.21794 256.518 7.70152C266.998 19.1313 264.27 30.3179 264.871 44.7686L318.877 44.6449C346.399 44.6096 379.252 39.8342 377.548 79.8246C377.461 81.8677 377.651 87.9987 378.155 89.9787C376.626 89.6792 375.088 89.4326 373.543 89.2399C365.05 88.178 340.461 88.6408 331.186 88.6004L241.703 88.4178L88.0855 88.247C61.9876 88.2251 35.7348 88.1258 9.63012 88.2958C6.90608 88.3134 4.86263 88.5684 2.6669 90.2867C2.69971 77.1967 1.18879 63.1516 10.8786 53.3887C14.7728 49.4683 19.7388 46.7865 25.1524 45.68C32.7609 44.1047 49.8615 44.618 58.6023 44.634L114.605 44.7897ZM244.43 44.7308C244.524 37.1491 245.723 28.1175 240.437 22.4779C228.638 17.2111 167.331 22.4594 150.983 20.6098C133.451 18.6256 134.868 31.4077 135.214 44.7501L244.43 44.7308Z" fill="#076FD6"/>
<path d="M2.66683 90.2867C4.86255 88.5684 6.90601 88.3134 9.63005 88.2957C35.7347 88.1258 61.9875 88.2251 88.0855 88.247L241.703 88.4178L331.185 88.6004C340.46 88.6408 365.05 88.1779 373.543 89.2399C375.088 89.4326 376.626 89.6791 378.155 89.9787L378.427 91.7837C377.307 93.3345 375.446 96.3706 373.671 96.4312C362.765 96.8065 350.859 96.9083 340.028 97.0017L256.91 97.1228C177.931 97.212 94.8695 98.9968 16.2071 97.5832C7.78345 97.5857 5.13597 99.1163 0 92.0437L2.66683 90.2867Z" fill="#2197F7"/>
<g style="mix-blend-mode:luminosity">
<path d="M184.053 296.753C188.939 296.337 194.131 296.973 198.073 300.227C203.1 304.372 254.783 395.714 260.663 407.988C261.607 409.961 262.145 411.817 262.269 414.017C262.526 418.281 261.234 423.038 258.186 426.112C255.396 428.927 251.504 430.569 247.669 431.377C234.991 434.055 205.832 432.206 191.779 432.15C176.823 432.05 137.032 434.326 123.608 430.401C103.799 424.607 118.002 402.023 124.925 389.69L145.553 353.024C154.679 336.828 164.666 318.372 174.62 302.582C176.351 299.843 181.005 298.052 184.053 296.753Z" fill="#FEFEFE"/>
<path d="M185.013 308.159C189.46 308.504 192.673 309.239 194.238 313.453C199.762 328.388 248.978 402.577 250.377 414.582C250.004 416.138 249.731 417.529 248.58 418.713C244.232 423.171 199.373 421.09 190.744 421.052C181.287 421.031 131.367 423.251 126.788 418.815C125.637 417.696 124.85 415.375 124.982 413.771C125.338 409.737 175.365 321.504 181.75 311.654C182.67 310.24 183.68 309.192 185.013 308.159Z" fill="#DE261E"/>
<path d="M184.218 335.532C190.802 335.442 196.615 337.291 195.895 344.807C195.133 352.777 195.398 381.497 190.893 386.332C189.949 386.346 189.005 386.338 188.053 386.306C185.113 386.194 184.227 385.994 182.247 383.891C180.434 376.465 179.192 350.208 178.902 341.393C178.836 339.314 182.421 336.777 184.218 335.532Z" fill="#FEFEFE"/>
<path d="M185.452 393.963C190.024 392.935 194.586 395.707 195.779 400.235C196.971 404.763 194.371 409.424 189.891 410.782C186.844 411.705 183.531 410.889 181.262 408.656C178.985 406.422 178.123 403.126 178.993 400.064C179.871 397.001 182.347 394.661 185.452 393.963Z" fill="#FEFEFE"/>
<path d="M154.596 217.411C161.52 217.326 174.024 216.291 179.432 220.945C185.328 226.024 182.984 232.893 178.894 237.873C179.208 243.529 188.773 242.968 181.544 257.409C175.979 261.147 173.138 261.624 166.389 261.439C162 261.319 157.255 262.17 153.155 260.358C149.818 256.027 152.104 230.512 151.731 224.042C151.532 220.625 152.302 219.549 154.596 217.411Z" fill="#FEFEFE"/>
<path d="M163.333 242.412C168.649 242.271 174.223 241.795 175.407 248.165C174.703 250.997 174.314 251.136 172.128 253.272C168.857 253.46 164.575 253.387 161.213 253.43C161.039 249.947 160.526 246.26 161.586 243.043L163.333 242.412Z" fill="#E8291F"/>
<path d="M161.246 225.407C165.536 225.25 169.478 224.527 172.608 227.301C173.875 230.043 173.453 230.951 172.798 233.965C169.155 235.683 165.66 236.498 162.215 234.387C160.517 231.512 161.08 228.868 161.246 225.407Z" fill="#E8291F"/>
<path d="M205.534 216.553C221.65 217.988 223.273 224.627 216.043 237.553C216.192 238.99 215.811 239.086 216.789 239.939C238.991 259.286 190.446 271.717 191.133 251.878C192.144 249.541 193.046 249.336 195.365 248.109L196.152 247.695C199.655 251.251 203.423 255.114 208.872 253.931C210.694 252.715 212.126 251.185 212.582 248.972C213.981 242.022 205.244 244.963 201.501 239.591C200.491 232.113 206.917 238.048 211 231.257C211.513 228.155 211.737 229.287 210.602 226.555C204.739 222.901 197.982 229.719 191.928 227.358C190.454 220.344 200.698 217.583 205.534 216.553Z" fill="#FEFEFE"/>
</g>
</g>
</svg>
