<svg width="379" height="604" viewBox="0 0 379 604" fill="none" xmlns="http://www.w3.org/2000/svg">
<path d="M68.8958 88.0228L81.8635 88.0286L97.8082 87.8415C157.377 87.9243 218.75 87.0475 278.069 87.9044L293.19 88.0692C298.2 88.0261 305.215 87.7455 310.067 87.9914C326.887 88.5411 351.101 87.3397 366.711 88.6504C372.342 88.6156 373.311 90.7948 376.781 94.8336C376.963 104.08 378.396 125.237 375.075 132.931C370.289 135.93 366.214 135.52 360.542 135.642C360.335 142.346 360.053 150.995 358.993 157.631C358.753 160.696 358.562 164.497 358.181 167.492C357.511 203.018 354.24 240.363 352.36 275.928C348.501 347.933 344.136 419.912 339.267 491.857C344.476 488.531 350.157 485.931 356.591 486.906C364.409 488.09 368.334 496.602 368.79 503.725C369.171 524.969 368.376 546.297 368.848 567.551C369.154 581.312 371.887 598.716 352.79 599.154C333.031 599.61 333.04 589.492 332.816 573.769C323.665 593.359 311.301 602.632 289.074 602.855C251.842 603.211 214.609 602.93 177.371 602.963L118.717 603.013C88.0636 603.021 60.246 608.171 45.3588 574.572C42.9482 569.099 42.8654 560.737 42.5606 554.651C41.8965 535.335 39.2655 515.613 39.0808 496.171C39.056 493.528 39.2158 490.48 38.6511 487.955L26.471 276.87C24.1837 238.568 19.9255 194.092 19.2141 156.038C18.6204 149.144 18.5442 142.571 18.4109 135.661C12.2446 135.473 8.31517 136.004 3.22303 132.813C-0.217828 127.048 2.26488 105.646 1.18335 96.3745C3.67104 91.4638 6.30698 88.97 11.9134 88.6082C30.6274 87.3985 50.1736 88.7448 68.8958 88.0228Z" fill="#5B5B5B"/>
<path d="M68.8958 88.0228L81.8635 88.0286L97.8082 87.8415C157.377 87.9243 218.75 87.0475 278.069 87.9044L293.19 88.0692C298.2 88.0261 305.215 87.7455 310.067 87.9914C326.887 88.5411 351.101 87.3397 366.711 88.6504C372.342 88.6156 373.311 90.7948 376.781 94.8336C376.963 104.08 378.396 125.237 375.075 132.931C370.289 135.93 366.214 135.52 360.542 135.642C360.335 142.346 360.053 150.995 358.993 157.631C358.753 160.696 358.562 164.497 358.181 167.492C357.651 164.166 357.155 160.835 356.691 157.498C341.462 157.904 324.079 155.66 309.943 156.596L304.676 156.615L298.043 156.576L80.3463 156.498L74.5403 156.548L71.0473 143.195C71.102 139.385 68.5132 139.465 70.0486 132.478C59.7947 132.436 40.304 132.822 30.8037 131.852C21.041 131.852 12.9734 132.176 3.22303 132.813C-0.217828 127.048 2.26488 105.646 1.18335 96.3745C3.67104 91.4638 6.30698 88.97 11.9134 88.6082C30.6274 87.3985 50.1736 88.7448 68.8958 88.0228Z" fill="#5B5B5B"/>
<path d="M70.0486 132.478L275.932 132.535C286.623 132.528 297.389 132.394 308.072 132.516C330.406 132.77 352.807 130.705 375.075 132.931C370.289 135.93 366.214 135.52 360.542 135.642C360.335 142.346 360.053 150.996 358.993 157.631C358.753 160.696 358.562 164.497 358.181 167.492C357.651 164.166 357.155 160.835 356.691 157.498C341.462 157.904 324.079 155.66 309.943 156.596L304.676 156.615L298.043 156.576L80.3464 156.498L74.5404 156.549L71.0474 143.195C71.102 139.385 68.5133 139.465 70.0486 132.478Z" fill="#383838"/>
<path d="M82.3546 141.401C104.754 140.058 135.516 141.036 158.743 141.043L296.735 141.033L298.043 156.576L80.3464 156.498C80.7746 150.581 81.2897 147.22 82.3546 141.401Z" fill="#464646"/>
<path d="M307.964 141.36C323.93 141.285 342.662 142.164 355.573 153.069C355.805 153.269 358.38 156.918 358.993 157.631C358.753 160.696 358.562 164.497 358.181 167.492C357.651 164.166 357.155 160.835 356.691 157.498C341.462 157.904 324.079 155.66 309.943 156.596L304.676 156.615C305.794 151.581 307.012 146.415 307.964 141.36Z" fill="#464646"/>
<path d="M68.8958 88.0228L81.8635 88.0286L97.8082 87.8415C157.377 87.9243 218.75 87.0475 278.069 87.9044L293.19 88.0692C298.2 88.0261 305.215 87.7455 310.067 87.9914C326.887 88.5411 351.101 87.3397 366.711 88.6504C369.461 90.9712 371.307 91.4738 374.297 94.3427L374.611 95.5565C366.595 96.6974 358.231 95.7121 350.364 96.1783C335.126 97.0799 320.717 97.0973 305.455 97.0658C298.018 96.5707 285.447 96.9507 277.737 96.9532L224.837 96.9797L77.9944 96.9773C51.9449 96.8994 27.2974 97.3449 1.18335 96.3745C3.67104 91.4638 6.30698 88.97 11.9134 88.6082C30.6274 87.3985 50.1736 88.7448 68.8958 88.0228Z" fill="#7E7E7E"/>
<path d="M1.18335 96.3745C27.2974 97.3449 51.9449 96.8994 77.9944 96.9773L224.837 96.9797L277.737 96.9532C285.447 96.9508 298.018 96.5707 305.455 97.0659C293.878 98.923 249.962 97.7945 236.099 97.7796L115.915 97.912C95.7594 97.912 70.013 97.1453 50.3086 97.9799C48.8229 108.222 49.6055 120.849 49.1798 131.423C44.197 131.465 35.4702 131.285 30.8037 131.852C21.041 131.852 12.9734 132.176 3.22303 132.813C-0.217828 127.048 2.26488 105.646 1.18335 96.3745Z" fill="#646464"/>
<path d="M309.943 156.596C324.079 155.66 341.462 157.904 356.691 157.498C357.155 160.835 357.651 164.166 358.181 167.492C357.511 203.018 354.24 240.364 352.36 275.928C348.501 347.934 344.136 419.912 339.267 491.857C344.476 488.531 350.157 485.931 356.591 486.906C364.409 488.091 368.334 496.602 368.79 503.725C369.171 524.969 368.376 546.297 368.848 567.551C369.154 581.312 371.887 598.716 352.79 599.155C333.031 599.61 333.04 589.492 332.816 573.769C323.665 593.359 311.301 602.632 289.074 602.856C251.842 603.212 214.609 602.93 177.371 602.963L118.717 603.013C88.0636 603.021 60.2461 608.171 45.3589 574.572C42.9482 569.099 42.8654 560.737 42.5607 554.652C53.3081 567.576 56.5204 570.59 74.1702 572.444C84.535 573.529 95.1425 577.04 105.935 576.957C163.953 576.51 222.212 578.058 280.164 576.419C285.737 576.261 294.954 572.536 299.045 568.586C303.873 563.95 307.045 557.847 308.08 551.232C309.628 541.545 310.142 520.564 310.73 509.988L315.492 420.018C319.5 357.671 323.094 295.299 326.29 232.905C327.317 210.535 329.247 191.042 329.404 168.268C323.914 157.801 320.965 157.806 309.943 156.596Z" fill="#444444"/>
<path d="M339.267 491.857C344.476 488.531 350.157 485.931 356.591 486.906C364.409 488.091 368.334 496.602 368.79 503.725C369.171 524.969 368.376 546.297 368.848 567.551C369.154 581.312 371.887 598.716 352.79 599.155C333.031 599.61 333.04 589.492 332.816 573.769C335.524 563.196 335.797 546.364 336.435 535.095L339.267 491.857Z" fill="#242424"/>
<path d="M3.22314 132.813C12.9735 132.176 21.0411 131.852 30.8038 131.852C40.3041 132.822 59.7949 132.436 70.0487 132.478C68.5134 139.465 71.1021 139.385 71.0474 143.195L74.5405 156.549C63.2076 156.367 52.186 157.153 40.5683 156.881C33.0787 156.784 26.6732 156.662 19.2142 156.039C18.6205 149.144 18.5443 142.571 18.411 135.661C12.2448 135.474 8.31529 136.004 3.22314 132.813Z" fill="#444444"/>
<path d="M40.5682 156.881C40.5069 153.584 40.1889 146.078 42.2161 143.902C45.4773 140.4 67.893 140.972 71.0473 143.195L74.5403 156.549C63.2075 156.367 52.1859 157.153 40.5682 156.881Z" fill="#464646"/>
<path d="M245.499 350.252C249.093 351.639 256.645 369.619 259.792 373.668C268.346 384.901 262.276 394.479 256.123 404.918C250.699 414.116 246.782 425.497 237.863 431.45C230.021 431.883 220.969 431.845 213.028 431.999L212.779 444.074C208.788 439.229 204.283 432.186 200.664 426.835L192.838 415.223C198.196 406.852 206.436 393.519 212.531 386.09L212.796 398.967C221.003 399.147 229.623 399.008 237.863 398.999C232.364 389.281 223.561 374.281 218.999 364.328C227.512 359.393 236.72 354.794 245.499 350.252Z" fill="#FEFEFE"/>
<path d="M149.025 351.491C151.4 351.122 151.29 351.091 153.613 351.638C158.878 356.438 165.99 374.725 168.967 381.808C166.372 380.929 161.812 378.667 159.178 377.444C155.187 383.251 150.25 392.696 147.079 398.98L183.87 399.17C184.143 409.793 183.961 420.9 183.944 431.562L174.029 431.803C164.829 431.797 155.669 431.875 146.481 431.344C140.084 427.498 138.492 424.252 135.095 417.783C118.813 386.772 114.543 390.835 132.151 360.898C128.502 359.117 124.727 356.985 121.137 355.033C129.766 353.361 140.154 352.463 149.025 351.491Z" fill="#FEFEFE"/>
<path d="M171.552 299.097C179.257 298.309 204.018 297.947 211.753 299.09C220.671 300.409 227.429 316.111 231.727 324.312C234.716 322.656 238.609 320.9 241.747 319.385C238.84 328.185 231.702 342.031 227.495 350.794L195.844 345.21C198.668 343.462 202.047 341.661 204.97 340.01C202.676 334.41 196.002 323.162 192.739 317.753C186.197 328.351 179.348 340.55 173.41 351.446C165.435 347.557 153.923 340.341 146.577 335.243C153.803 324.353 160.73 304.281 171.552 299.097Z" fill="#FEFEFE"/>
<path d="M139.519 216.992C159.975 216.64 161.557 244.709 144.339 251.073C126.229 251.183 122.61 224.593 139.519 216.992Z" fill="#FEFEFE"/>
<path d="M139.822 223.348C152.282 224.971 150.917 237.795 144.036 244.614C133.071 243.599 134.307 229.204 139.822 223.348Z" fill="#646464"/>
<path d="M160.348 217.907C166.347 217.576 177.324 216.728 182.221 221.151C188.441 226.776 178.578 234.741 179.273 238.607C179.745 241.201 183.505 244.783 183.472 248.93C180.896 250.969 181.89 250.325 177.907 250.786C175.572 246.454 173.4 241.836 170.025 238.294L168.466 239.238L168.44 238.941C167.834 242.351 167.22 247.256 165.727 250.205C162.912 250.853 164.055 250.82 161.264 250.034C159.033 246.675 160.267 223.502 160.348 217.907Z" fill="#FEFEFE"/>
<path d="M166.85 223.717C170.436 223.704 173.349 223.37 175.976 225.619C177.137 228.394 176.655 229.213 175.931 232.235C172.999 232.572 170.584 233.203 167.969 232.067C166.209 229.769 166.769 226.835 166.85 223.717Z" fill="#5B5B5B"/>
<path d="M117.765 237.525C117.654 231.159 116.919 222.457 120.352 217.085L121.575 217.208C126.012 223.599 125.34 243.733 123.678 251.027C115.049 250.17 110.999 238.494 106.387 231.216C106.507 237.001 107.42 246.428 103.695 250.845L102.338 250.346C98.4525 244.952 97.4968 221.322 101.563 216.671C109.451 218.408 113.635 230.657 117.765 237.525Z" fill="#FEFEFE"/>
<path d="M265.291 237.568C265.133 231.179 264.38 222.959 267.51 217.371L268.661 217.14C273.216 221.745 273.241 246.033 270.367 251.293C262.359 249.752 257.167 236.517 253.705 229.485C253.772 233.572 254.244 246.1 253.159 249.315C250.89 250.855 252.066 250.609 249.623 250.462C244.455 246.327 247.097 225.595 247.337 219.214C247.337 219.214 249.018 216.92 249.217 216.649C256.165 217.835 261.341 231.225 265.291 237.568Z" fill="#FEFEFE"/>
<path d="M198.337 217.02C203.082 216.813 214.783 219.846 213.127 225.596C206.486 230.292 205.699 223.498 198.221 224.073C193.443 227.715 191.96 242.555 201.451 244.411C203.869 243.675 206.585 242.524 206.991 239.851C205.152 238.115 203.695 237.528 201.484 236.393C201.194 233.824 201.02 234.862 202.502 232.455L203.347 232.397C206.138 232.213 210.775 231.56 212.639 233.687C214.03 235.218 214.932 237.019 214.543 239.177C212.746 249.617 195.124 256.313 189.691 245.307C187.298 240.455 186.751 231.281 188.507 226.083C190.287 220.84 193.674 219.063 198.337 217.02Z" fill="#FEFEFE"/>
<path d="M77.9895 217.834C79.6706 217.661 85.1337 217.121 85.7731 218.983C87.5436 224.138 98.6637 247.688 93.7562 251.024C89.329 249.693 88.6003 247.605 87.2099 243.63C72.8842 243.582 79.9729 242.26 73.3976 250.608C70.7285 250.875 71.7835 251.03 69.1799 249.326C68.4628 245.806 76.4103 222.845 77.9895 217.834Z" fill="#FEFEFE"/>
<path d="M81.7095 226.723C83.9388 229.21 86.0629 235.023 84.0928 238.091C82.7504 237.834 81.5662 237.534 80.2445 237.211C78.6835 234.003 80.5269 230.392 81.7095 226.723Z" fill="#646464"/>
<path d="M225.499 217.863C226.725 217.756 232.323 217.413 232.82 218.396C235.544 223.739 245.548 247.2 241.325 251.401C237.134 250.195 235.793 247.321 234.667 243.53C220.274 243.382 227.652 241.962 221.698 249.947C218.717 250.766 219.926 250.881 217.218 249.707C215.645 245.493 223.727 223.362 225.499 217.863Z" fill="#FEFEFE"/>
<path d="M229.143 226.655C231.073 228.413 233.068 235.583 231.619 238.148C229.748 237.932 229.085 237.965 227.354 237.117C226.352 234.01 228.108 230.197 229.143 226.655Z" fill="#7E7E7E"/>
<path d="M297.596 230.886C300.975 226.398 305.952 218.342 312.121 218.56L312.461 220.405C311.359 224.477 307.335 228.625 304.544 231.992C307.235 235.517 310.54 240.983 313.024 244.829C314.423 246.841 314.606 247.956 313.314 249.921C305.579 251.929 304.618 241.918 300.031 237.451C297.107 240.296 299.186 247.663 294.416 250.908L292.577 250.35C289.538 246.896 290.888 223.611 291.095 217.302C293.704 217.383 294.11 217.252 296.362 218.388C298.656 221.696 297.753 226.555 297.596 230.886Z" fill="#FEFEFE"/>
<path d="M277.787 217.419C280.33 217.391 280.537 217.4 282.971 218.065C285.613 221.74 284.354 245.115 284.023 250.724C281.423 250.559 281.133 250.594 278.74 249.695C276.595 246.796 277.704 222.579 277.787 217.419Z" fill="#FEFEFE"/>
<path d="M38.651 487.955C39.2158 490.48 39.056 493.528 39.0808 496.172C39.2655 515.613 41.8965 535.335 42.5606 554.652C42.8654 560.737 42.9482 569.1 45.3588 574.573C45.3373 577.702 45.4077 580.915 45.1278 584.036C44.7079 588.706 42.4099 593.458 38.6601 596.356C34.5667 599.527 29.1889 600.198 24.192 599.486C19.2828 598.774 14.2967 596.555 11.3014 592.473C7.81333 587.721 8.3541 508.04 9.89276 498.662C10.47 495.148 12.2099 491.62 15.2433 489.61C22.2666 484.955 30.8725 488.551 38.1757 490.253L38.651 487.955Z" fill="#262626"/>
<path d="M114.605 44.7897C114.632 30.0975 112.953 16.3031 124.765 5.85532C131.95 -0.499521 148.056 0.06429 156.983 0.0440945C182.238 -0.0122845 207.264 -0.0350239 232.495 0.102978C240.485 0.169455 251.457 1.21794 256.518 7.70152C266.998 19.1313 264.27 30.3179 264.871 44.7686L318.877 44.6449C346.399 44.6096 379.252 39.8342 377.548 79.8246C377.461 81.8677 377.651 87.9987 378.155 89.9787C376.626 89.6792 375.088 89.4326 373.543 89.2399C365.05 88.178 340.461 88.6408 331.186 88.6004L241.703 88.4178L88.0855 88.247C61.9876 88.2251 35.7348 88.1258 9.63012 88.2958C6.90608 88.3134 4.86263 88.5684 2.6669 90.2867C2.69971 77.1967 1.18879 63.1516 10.8786 53.3887C14.7728 49.4683 19.7388 46.7865 25.1524 45.68C32.7609 44.1047 49.8615 44.618 58.6023 44.634L114.605 44.7897ZM244.43 44.7308C244.524 37.1491 245.723 28.1175 240.437 22.4779C228.638 17.2111 167.331 22.4594 150.983 20.6098C133.451 18.6256 134.868 31.4077 135.214 44.7501L244.43 44.7308Z" fill="#5B5B5B"/>
<path d="M2.66683 90.2867C4.86255 88.5684 6.90601 88.3134 9.63005 88.2957C35.7347 88.1258 61.9875 88.2251 88.0855 88.247L241.703 88.4178L331.185 88.6004C340.46 88.6408 365.05 88.1779 373.543 89.2399C375.088 89.4326 376.626 89.6791 378.155 89.9787L378.427 91.7837C377.307 93.3345 375.446 96.3706 373.671 96.4312C362.765 96.8065 350.859 96.9083 340.028 97.0017L256.91 97.1228C177.931 97.212 94.8695 98.9968 16.2071 97.5832C7.78345 97.5857 5.13597 99.1163 0 92.0437L2.66683 90.2867Z" fill="#7E7E7E"/>
</svg>
