<svg width="379" height="604" viewBox="0 0 379 604" fill="none" xmlns="http://www.w3.org/2000/svg">
<path d="M68.8958 88.0228L81.8635 88.0286L97.8082 87.8415C157.377 87.9243 218.75 87.0475 278.069 87.9044L293.19 88.0692C298.2 88.0261 305.215 87.7455 310.067 87.9914C326.887 88.5411 351.101 87.3397 366.711 88.6504C372.342 88.6156 373.311 90.7948 376.781 94.8336C376.963 104.08 378.396 125.237 375.075 132.931C370.289 135.93 366.214 135.52 360.542 135.642C360.335 142.346 360.053 150.995 358.993 157.631C358.753 160.696 358.562 164.497 358.181 167.492C357.511 203.018 354.24 240.363 352.36 275.928C348.501 347.933 344.136 419.912 339.267 491.857C344.476 488.531 350.157 485.931 356.591 486.906C364.409 488.09 368.334 496.602 368.79 503.725C369.171 524.969 368.376 546.297 368.848 567.551C369.154 581.312 371.887 598.716 352.79 599.154C333.031 599.61 333.04 589.492 332.816 573.769C323.665 593.359 311.301 602.632 289.074 602.855C251.842 603.211 214.609 602.93 177.371 602.963L118.717 603.013C88.0636 603.021 60.246 608.171 45.3588 574.572C42.9482 569.099 42.8654 560.737 42.5606 554.651C41.8965 535.335 39.2655 515.613 39.0808 496.171C39.056 493.528 39.2158 490.48 38.6511 487.955L26.471 276.87C24.1837 238.568 19.9255 194.092 19.2141 156.038C18.6204 149.144 18.5442 142.571 18.4109 135.661C12.2446 135.473 8.31517 136.004 3.22303 132.813C-0.217828 127.048 2.26488 105.646 1.18335 96.3745C3.67104 91.4638 6.30698 88.97 11.9134 88.6082C30.6274 87.3985 50.1736 88.7448 68.8958 88.0228Z" fill="#5B5B5B"/>
<path d="M68.8958 88.0228L81.8635 88.0286L97.8082 87.8415C157.377 87.9243 218.75 87.0475 278.069 87.9044L293.19 88.0692C298.2 88.0261 305.215 87.7455 310.067 87.9914C326.887 88.5411 351.101 87.3397 366.711 88.6504C372.342 88.6156 373.311 90.7948 376.781 94.8336C376.963 104.08 378.396 125.237 375.075 132.931C370.289 135.93 366.214 135.52 360.542 135.642C360.335 142.346 360.053 150.995 358.993 157.631C358.753 160.696 358.562 164.497 358.181 167.492C357.651 164.166 357.155 160.835 356.691 157.498C341.462 157.904 324.079 155.66 309.943 156.596L304.676 156.615L298.043 156.576L80.3463 156.498L74.5403 156.548L71.0473 143.195C71.102 139.385 68.5132 139.465 70.0486 132.478C59.7947 132.436 40.304 132.822 30.8037 131.852C21.041 131.852 12.9734 132.176 3.22303 132.813C-0.217828 127.048 2.26488 105.646 1.18335 96.3745C3.67104 91.4638 6.30698 88.97 11.9134 88.6082C30.6274 87.3985 50.1736 88.7448 68.8958 88.0228Z" fill="#5B5B5B"/>
<path d="M70.0486 132.478L275.932 132.535C286.623 132.528 297.389 132.394 308.072 132.516C330.406 132.77 352.807 130.705 375.075 132.931C370.289 135.93 366.214 135.52 360.542 135.642C360.335 142.346 360.053 150.996 358.993 157.631C358.753 160.696 358.562 164.497 358.181 167.492C357.651 164.166 357.155 160.835 356.691 157.498C341.462 157.904 324.079 155.66 309.943 156.596L304.676 156.615L298.043 156.576L80.3464 156.498L74.5404 156.549L71.0474 143.195C71.102 139.385 68.5133 139.465 70.0486 132.478Z" fill="#383838"/>
<path d="M82.3546 141.401C104.754 140.058 135.516 141.036 158.743 141.043L296.735 141.033L298.043 156.576L80.3464 156.498C80.7746 150.581 81.2897 147.22 82.3546 141.401Z" fill="#464646"/>
<path d="M307.964 141.36C323.93 141.285 342.662 142.164 355.573 153.069C355.805 153.269 358.38 156.918 358.993 157.631C358.753 160.696 358.562 164.497 358.181 167.492C357.651 164.166 357.155 160.835 356.691 157.498C341.462 157.904 324.079 155.66 309.943 156.596L304.676 156.615C305.794 151.581 307.012 146.415 307.964 141.36Z" fill="#464646"/>
<path d="M68.8958 88.0228L81.8635 88.0286L97.8082 87.8415C157.377 87.9243 218.75 87.0475 278.069 87.9044L293.19 88.0692C298.2 88.0261 305.215 87.7455 310.067 87.9914C326.887 88.5411 351.101 87.3397 366.711 88.6504C369.461 90.9712 371.307 91.4738 374.297 94.3427L374.611 95.5565C366.595 96.6974 358.231 95.7121 350.364 96.1783C335.126 97.0799 320.717 97.0973 305.455 97.0658C298.018 96.5707 285.447 96.9507 277.737 96.9532L224.837 96.9797L77.9944 96.9773C51.9449 96.8994 27.2974 97.3449 1.18335 96.3745C3.67104 91.4638 6.30698 88.97 11.9134 88.6082C30.6274 87.3985 50.1736 88.7448 68.8958 88.0228Z" fill="#7E7E7E"/>
<path d="M1.18335 96.3745C27.2974 97.3449 51.9449 96.8994 77.9944 96.9773L224.837 96.9797L277.737 96.9532C285.447 96.9508 298.018 96.5707 305.455 97.0659C293.878 98.923 249.962 97.7945 236.099 97.7796L115.915 97.912C95.7594 97.912 70.013 97.1453 50.3086 97.9799C48.8229 108.222 49.6055 120.849 49.1798 131.423C44.197 131.465 35.4702 131.285 30.8037 131.852C21.041 131.852 12.9734 132.176 3.22303 132.813C-0.217828 127.048 2.26488 105.646 1.18335 96.3745Z" fill="#646464"/>
<path d="M309.943 156.596C324.079 155.66 341.462 157.904 356.691 157.498C357.155 160.835 357.651 164.166 358.181 167.492C357.511 203.018 354.24 240.364 352.36 275.928C348.501 347.934 344.136 419.912 339.267 491.857C344.476 488.531 350.157 485.931 356.591 486.906C364.409 488.091 368.334 496.602 368.79 503.725C369.171 524.969 368.376 546.297 368.848 567.551C369.154 581.312 371.887 598.716 352.79 599.155C333.031 599.61 333.04 589.492 332.816 573.769C323.665 593.359 311.301 602.632 289.074 602.856C251.842 603.212 214.609 602.93 177.371 602.963L118.717 603.013C88.0636 603.021 60.2461 608.171 45.3589 574.572C42.9482 569.099 42.8654 560.737 42.5607 554.652C53.3081 567.576 56.5204 570.59 74.1702 572.444C84.535 573.529 95.1425 577.04 105.935 576.957C163.953 576.51 222.212 578.058 280.164 576.419C285.737 576.261 294.954 572.536 299.045 568.586C303.873 563.95 307.045 557.847 308.08 551.232C309.628 541.545 310.142 520.564 310.73 509.988L315.492 420.018C319.5 357.671 323.094 295.299 326.29 232.905C327.317 210.535 329.247 191.042 329.404 168.268C323.914 157.801 320.965 157.806 309.943 156.596Z" fill="#444444"/>
<path d="M339.267 491.857C344.476 488.531 350.157 485.931 356.591 486.906C364.409 488.091 368.334 496.602 368.79 503.725C369.171 524.969 368.376 546.297 368.848 567.551C369.154 581.312 371.887 598.716 352.79 599.155C333.031 599.61 333.04 589.492 332.816 573.769C335.524 563.196 335.797 546.364 336.435 535.095L339.267 491.857Z" fill="#242424"/>
<path d="M3.22314 132.813C12.9735 132.176 21.0411 131.852 30.8038 131.852C40.3041 132.822 59.7949 132.436 70.0487 132.478C68.5134 139.465 71.1021 139.385 71.0474 143.195L74.5405 156.549C63.2076 156.367 52.186 157.153 40.5683 156.881C33.0787 156.784 26.6732 156.662 19.2142 156.039C18.6205 149.144 18.5443 142.571 18.411 135.661C12.2448 135.474 8.31529 136.004 3.22314 132.813Z" fill="#444444"/>
<path d="M40.5682 156.881C40.5069 153.584 40.1889 146.078 42.2161 143.902C45.4773 140.4 67.893 140.972 71.0473 143.195L74.5403 156.549C63.2075 156.367 52.1859 157.153 40.5682 156.881Z" fill="#464646"/>
<path d="M38.651 487.955C39.2158 490.48 39.056 493.528 39.0808 496.172C39.2655 515.613 41.8965 535.335 42.5606 554.652C42.8654 560.737 42.9482 569.1 45.3588 574.573C45.3373 577.702 45.4077 580.915 45.1278 584.036C44.7079 588.706 42.4099 593.458 38.6601 596.356C34.5667 599.527 29.1889 600.198 24.192 599.486C19.2828 598.774 14.2967 596.555 11.3014 592.473C7.81333 587.721 8.3541 508.04 9.89276 498.662C10.47 495.148 12.2099 491.62 15.2433 489.61C22.2666 484.955 30.8725 488.551 38.1757 490.253L38.651 487.955Z" fill="#262626"/>
<path d="M114.605 44.7897C114.632 30.0975 112.953 16.3031 124.765 5.85532C131.95 -0.499521 148.056 0.06429 156.983 0.0440945C182.238 -0.0122845 207.264 -0.0350239 232.495 0.102978C240.485 0.169455 251.457 1.21794 256.518 7.70152C266.998 19.1313 264.27 30.3179 264.871 44.7686L318.877 44.6449C346.399 44.6096 379.252 39.8342 377.548 79.8246C377.461 81.8677 377.651 87.9987 378.155 89.9787C376.626 89.6792 375.088 89.4326 373.543 89.2399C365.05 88.178 340.461 88.6408 331.186 88.6004L241.703 88.4178L88.0855 88.247C61.9876 88.2251 35.7348 88.1258 9.63012 88.2958C6.90608 88.3134 4.86263 88.5684 2.6669 90.2867C2.69971 77.1967 1.18879 63.1516 10.8786 53.3887C14.7728 49.4683 19.7388 46.7865 25.1524 45.68C32.7609 44.1047 49.8615 44.618 58.6023 44.634L114.605 44.7897ZM244.43 44.7308C244.524 37.1491 245.723 28.1175 240.437 22.4779C228.638 17.2111 167.331 22.4594 150.983 20.6098C133.451 18.6256 134.868 31.4077 135.214 44.7501L244.43 44.7308Z" fill="#5B5B5B"/>
<path d="M2.66683 90.2867C4.86255 88.5684 6.90601 88.3134 9.63005 88.2957C35.7347 88.1258 61.9875 88.2251 88.0855 88.247L241.703 88.4178L331.185 88.6004C340.46 88.6408 365.05 88.1779 373.543 89.2399C375.088 89.4326 376.626 89.6791 378.155 89.9787L378.427 91.7837C377.307 93.3345 375.446 96.3706 373.671 96.4312C362.765 96.8065 350.859 96.9083 340.028 97.0017L256.91 97.1228C177.931 97.212 94.8695 98.9968 16.2071 97.5832C7.78345 97.5857 5.13597 99.1163 0 92.0437L2.66683 90.2867Z" fill="#7E7E7E"/>
<g style="mix-blend-mode:luminosity">
<path d="M180.941 358.1C184.369 317.791 222.847 295.155 260.136 293.866C263.105 319.919 263.041 347.852 245.808 369.48C236.284 381.633 222.238 389.406 206.88 391.021C202.855 391.43 197.943 391.189 193.866 390.916C190.862 389.448 191.02 388.843 188.504 389.683C184.556 394.482 184.676 401.03 182.113 401.802L181.579 400.583C193.051 376.345 173.572 377.754 180.941 358.1Z" fill="#FEFEFE"/>
<path d="M188.133 386.853C198.119 361.949 207.597 348.127 228.511 331.055C212.818 354.202 204.936 365.126 193.866 390.915C190.862 389.448 191.02 388.843 188.504 389.683C184.556 394.481 184.676 401.03 182.113 401.801L181.579 400.583C193.051 376.345 173.572 377.754 180.941 358.1C181.111 371.291 182.56 375.175 188.133 386.853Z" fill="#449B2A"/>
<path d="M112.425 327.283C139.141 328.517 171.824 340.299 176.006 370.692C176.73 375.948 177.097 384.045 173.682 388.419C172.86 389.226 172.666 389.42 172.173 390.512L170.321 391.046L168.535 388.963L167.434 389.409L169.385 393.005C171.918 393.636 172.124 392.822 174.98 391.25L181.579 400.583L182.113 401.802C184.676 401.03 184.556 394.482 188.504 389.683C191.02 388.843 190.862 389.448 193.866 390.916C190.082 402.736 188.216 416.871 181.416 427.423C178.316 432.233 169.822 439.491 164.049 435.022C162.083 428.041 171.446 426.078 174.988 422.334C176.46 420.779 178.166 415.341 178.909 413.141C176.725 405.135 174.318 401.414 169.84 394.714C167.373 394.988 164.894 395.151 162.412 395.207C124.268 396.001 113.019 358.65 112.425 327.283Z" fill="#FEFEFE"/>
<path d="M141.864 355.342C156.071 364.832 164.4 374.318 173.682 388.419C172.86 389.226 172.666 389.42 172.173 390.512L170.321 391.047L168.535 388.963L167.434 389.409C159.412 376.96 151.402 366.618 141.864 355.342Z" fill="#449B2A"/>
<path d="M102.806 217.104C123.284 217.48 124.176 245.464 107.035 251.09C86.4945 250.774 85.129 222.654 102.806 217.104Z" fill="#FEFEFE"/>
<path d="M102.179 223.57C114.955 224.092 113.736 238.172 107.002 244.61C95.4532 244.926 96.307 230.239 102.179 223.57Z" fill="#2D8929"/>
<path d="M123.841 217.889C129.01 217.622 134.511 216.977 139.503 218.564C150.974 222.209 150.105 230.254 142.384 237.601C144.579 241.384 147.638 245.33 147.226 249.382C144.557 251.089 145.246 250.539 141.552 250.6C139.712 247.064 136.248 239.525 132.728 238.316C131.699 239.93 131.348 246.114 129.351 249.901C126.458 250.731 127.664 250.732 124.785 249.913C122.691 247.24 123.641 223.158 123.841 217.889Z" fill="#FEFEFE"/>
<path d="M130.568 223.723C134.12 223.721 136.995 223.399 139.519 225.803C140.595 228.447 140.167 229.069 139.454 232.022C136.811 232.543 133.981 233.335 131.695 232.202C129.897 229.779 130.467 226.947 130.568 223.723Z" fill="#449B2A"/>
<path d="M233.204 238.61C233.095 232.391 232.214 222.4 235.778 217.341L236.981 217.469C241 222.781 241.768 246.895 238.216 251.562C230.785 249.963 224.896 236.642 221.013 230.053C221.125 236.206 222.153 245.851 218.593 250.777L217.334 250.577C212.832 244.958 213.28 224.084 215.031 217.676C216.617 217.658 218.02 217.829 219.59 217.983C225.059 221.211 229.963 232.531 233.204 238.61Z" fill="#FEFEFE"/>
<path d="M163.057 217.118C169.005 217.066 177.359 218.358 177.793 225.78C175.396 231.161 169.73 222.067 162.19 225.174C158.076 228.792 158.246 236.057 160.432 240.69C163.331 246.835 171.641 245.759 171.44 239.461L166.955 237.445C165.649 235.112 166.02 235.963 166.411 232.786C171.909 232.551 174.784 231.657 178.694 234.97C183.42 248.38 161.303 259.845 153.555 242.531C148.637 231.54 151.555 221.787 163.057 217.118Z" fill="#FEFEFE"/>
<path d="M192.351 217.778C194.654 217.752 196.257 217.899 198.556 218.108C202.333 220.991 211.367 244.946 207.576 250.356C201.046 250.999 204.586 246.602 200.127 243.514C183.709 243.8 194.032 246.107 186.306 251.101C183.63 250.76 184.556 250.98 182.196 249.163C181.828 246.991 190.829 221.718 192.351 217.778Z" fill="#FEFEFE"/>
<path d="M195.666 226.719C197.52 228.495 198.59 234.244 199.129 236.83L198.061 238.298C194.881 237.83 195.415 238.369 193.214 236.63C192.466 233.465 194.391 229.985 195.666 226.719Z" fill="#2D8929"/>
<path d="M279.891 216.576L282.884 218.422L283.282 220.27C282.132 223.991 277.585 228.659 274.893 231.958C276.502 234.465 284.706 246.248 285.283 247.983C283.926 250.622 284.856 249.587 282.408 251.227C276.854 250.485 274.9 241.667 269.719 238.112C267.731 238.918 268.406 238.473 267.252 240.998C267.362 244.383 267.888 250.235 263.777 251.21C257.509 246.967 258.857 222.523 263.603 216.964L265.309 217.636C267.854 221.77 267.36 226.344 267.289 231.143C271.165 226.015 275.374 221.149 279.891 216.576Z" fill="#FEFEFE"/>
<path d="M246.544 217.374C250.51 217.665 249.976 217.011 252.536 219.178C255.331 225.962 254.071 243.01 253.299 250.639C250.3 250.771 250.036 250.882 247.288 249.879C245.401 246.924 246.45 222.557 246.544 217.374Z" fill="#FEFEFE"/>
</g>
</svg>
