<svg width="66" height="88" viewBox="0 0 66 88" fill="none" xmlns="http://www.w3.org/2000/svg">
<path d="M0.00466418 12.1564C-0.204132 5.53089 6.63919 3.33254 12.1038 1.85198C21.7539 -0.762462 57.6409 -2.58317 60.6819 10.6958C60.6005 14.4522 61.0066 14.5671 57.8981 16.9058L57.2787 20.2345C56.9725 24.3885 56.512 28.5289 55.8981 32.6484C54.9305 40.8449 53.9175 49.0354 52.8596 57.2204C52.3311 61.1206 51.0753 68.2176 51.0054 71.7926L51.6957 72.3955C55.2133 73.0899 67.9348 75.5574 65.5387 80.554C62.0461 87.8379 42.3633 88.271 36.1788 87.3074C29.7746 87.2235 10.9035 86.8094 10.8306 77.8961C10.0588 74.4955 9.34055 66.4483 8.91347 62.7674C7.81054 52.9056 6.6212 43.0537 5.34645 33.2123C4.90088 28.6408 4.37041 24.0783 3.75601 19.5262L2.90134 17.3389C1.06264 15.0186 0.874814 15.1525 0.00466418 12.1564Z" fill="#CBDAED"/>
<path d="M0.00466418 12.1564C-0.204132 5.53089 6.63919 3.33254 12.1038 1.85198C21.7539 -0.762462 57.6409 -2.58317 60.6819 10.6958C60.6005 14.4522 61.0066 14.5671 57.8981 16.9058L57.2787 20.2345C56.9725 24.3885 56.512 28.5289 55.8981 32.6484L52.7716 34.4361C41.4187 38.9787 30.8251 40.2894 18.6664 37.8693C16.4861 37.2629 14.3142 36.6255 12.1518 35.9577C9.74466 34.8872 7.86948 34.053 5.34645 33.2123C4.90088 28.6408 4.37041 24.0783 3.75601 19.5262L2.90134 17.3389C1.06264 15.0186 0.874814 15.1525 0.00466418 12.1564Z" fill="#E9E9EE"/>
<path d="M3.7561 19.5264L6.26216 19.897C7.7517 20.5898 9.74126 21.6163 11.2967 21.934C13.1604 22.4031 15.8613 23.1768 17.677 23.514C30.4166 24.7852 42.6037 26.2253 54.9891 21.0594L57.2788 20.2347C56.9726 24.3886 56.5121 28.5291 55.8982 32.6486L52.7717 34.4363C41.4188 38.9789 30.8252 40.2896 18.6665 37.8694C16.4862 37.263 14.3143 36.6257 12.1519 35.9578C9.74475 34.8874 7.86958 34.0532 5.34655 33.2125C4.90098 28.641 4.3705 24.0784 3.7561 19.5264Z" fill="#CBDAED"/>
<path d="M3.7561 19.5264L6.26216 19.897C7.7517 20.5898 9.74126 21.6163 11.2967 21.934C13.1604 22.4031 15.8613 23.1768 17.677 23.514L18.2475 35.9838C18.6111 36.0442 18.9752 36.1022 19.3394 36.1571C27.7607 37.4229 44.329 37.7565 51.8876 32.5736C54.541 30.7544 54.4261 24.8507 54.9891 21.0594L57.2788 20.2347C56.9726 24.3886 56.5121 28.5291 55.8982 32.6486L52.7717 34.4363C41.4188 38.9789 30.8252 40.2896 18.6665 37.8694C16.4862 37.263 14.3143 36.6257 12.1519 35.9578C9.74475 34.8874 7.86958 34.0532 5.34655 33.2125C4.90098 28.641 4.3705 24.0784 3.7561 19.5264Z" fill="#9AB4DA"/>
<path d="M11.2967 21.9341C13.1604 22.4031 15.8613 23.1769 17.677 23.5141L18.2475 35.9839L12.0325 34.2171C11.5815 31.2775 10.3746 24.6294 11.2967 21.9341Z" fill="#FAFAFB"/>
<path d="M6.26214 19.897C7.75169 20.5898 9.74124 21.6163 11.2967 21.934C10.3746 24.6293 11.5814 31.2774 12.0325 34.217C4.74761 31.5811 5.72516 26.7293 6.26214 19.897Z" fill="#B5C7E7"/>
<path d="M30.4734 27.2163C31.7347 28.0675 31.9969 28.2513 32.9929 29.3942L32.5928 30.2314L31.8406 30.2658C30.6942 29.2308 30.7157 28.6989 30.4734 27.2163Z" fill="#BBC9E3"/>
<path d="M57.1609 16.6577L57.8982 16.906L57.2788 20.2347L54.989 21.0594C42.6036 26.2254 30.4165 24.7853 17.6769 23.514C15.8612 23.1768 13.1603 22.4031 11.2967 21.9341C9.74118 21.6164 7.75163 20.5899 6.26208 19.897L3.75603 19.5264L2.90137 17.3391C4.96285 16.8865 11.8466 19.9425 15.1324 20.6713C17.8962 21.0934 21.1016 21.6663 23.8409 21.988C29.5633 24.4436 51.8645 20.8646 57.1609 16.6577Z" fill="#68A8E5"/>
<path d="M23.841 21.9878C24.0518 20.9263 24.1257 21.4053 23.7366 20.4937C25.4034 20.0657 33.0275 19.6276 35.2338 19.5092C42.8559 19.1006 47.6787 17.5656 54.8877 15.0386C55.9886 16.642 55.4456 14.7923 57.1609 16.6575C51.8646 20.8644 29.5634 24.4434 23.841 21.9878Z" fill="#BBC9E3"/>
<path d="M0.00463867 12.1564L0.572588 11.4985L0.757908 11.6689C5.65862 16.0995 11.1777 16.3288 15.1324 20.6711C11.8466 19.9423 4.9628 16.8863 2.90132 17.3388C1.06261 15.0186 0.874789 15.1525 0.00463867 12.1564Z" fill="#B5C7E7"/>
<path d="M54.8875 15.0388C56.9624 13.9908 58.8846 12.2111 60.6818 10.696C60.6004 14.4524 61.0065 14.5673 57.898 16.906L57.1607 16.6577C55.4454 14.7925 55.9884 16.6422 54.8875 15.0388Z" fill="#9AB4DA"/>
<path d="M28.7096 2.55101C34.2532 2.09746 55.2252 3.94764 56.5829 10.6945C55.6233 13.3135 51.0313 14.7411 48.4658 15.2796C39.4631 17.7566 29.5043 17.8475 20.2763 16.8091C16.4381 16.377 3.43427 14.2151 4.19753 9.04765C6.69609 5.71691 13.9345 4.37622 17.8452 3.65243C19.6999 2.87918 26.4383 2.6659 28.7096 2.55101Z" fill="#68A8E5"/>
<path d="M28.7098 2.55101C34.2533 2.09746 55.2254 3.94764 56.583 10.6945C55.6235 13.3135 51.0314 14.7411 48.466 15.2796C45.1807 12.5467 35.112 12.0607 30.7632 11.8494C24.6207 10.5042 30.6004 6.3393 30.2522 3.12694L28.7098 2.55101Z" fill="#B5C7E7"/>
<path d="M17.8452 3.6522C19.6999 2.87895 26.4383 2.66567 28.7096 2.55078L30.2521 3.12671C30.6003 6.33907 24.6206 10.504 30.7631 11.8492L20.6814 11.5954C19.1819 10.7473 17.7678 10.1089 16.7343 8.73922C16.2598 7.09283 17.2018 5.31307 17.8452 3.6522Z" fill="#9AB4DA"/>
<path d="M52.7716 34.4362L55.8981 32.6484C54.9305 40.8449 53.9175 49.0354 52.8595 57.2204C52.331 61.1206 51.0753 68.2177 51.0053 71.7927L51.6957 72.3956C55.2132 73.0899 67.9348 75.5575 65.5386 80.5541C62.046 87.838 42.3633 88.2711 36.1788 87.3075C29.7746 87.2236 10.9035 86.8095 10.8306 77.8962L11.368 77.6959C12.8606 76.9621 14.2402 75.2378 15.8751 74.0614C16.2363 76.8372 15.9131 81.216 20.069 80.0526C20.9057 78.7474 20.3598 73.0654 20.2678 71.1198C21.145 70.7607 22.0291 70.4195 22.9198 70.0968C32.2427 66.7356 39.4946 68.1667 48.1316 72.2257C48.4703 66.6807 53.2886 35.8038 52.7716 34.4362Z" fill="#BBC9E3"/>
<path d="M51.6958 72.3955C55.2134 73.0898 67.9349 75.5574 65.5388 80.554C62.0462 87.8379 42.3634 88.271 36.179 87.3074C41.3514 82.8558 50.7667 86.0746 49.4999 77.2333C51.0414 75.8187 49.6753 73.9949 51.6958 72.3955Z" fill="#9AB4DA"/>
<path d="M11.368 77.6959C18.9267 87.2101 41.9482 86.3665 49.4998 77.2334C50.7666 86.0748 41.3513 82.8559 36.1788 87.3075C29.7746 87.2236 10.9035 86.8095 10.8306 77.8962L11.368 77.6959Z" fill="#68A8E5"/>
<path d="M12.1519 35.9578C14.3142 36.6256 16.4861 37.263 18.6665 37.8694C18.7429 42.7626 18.6385 47.8971 19.4437 52.6954C18.2394 53.8013 15.6534 56.4737 14.2818 56.8289C13.8922 50.3707 12.6868 42.6927 12.1519 35.9578Z" fill="#FAFAFB"/>
<path d="M14.2817 56.8288C15.6534 56.4736 18.2394 53.8012 19.4437 52.6953C19.657 57.9027 20.6046 75.506 18.9362 79.5166L17.7628 79.4896L18.3388 80.0431L18.9891 79.3702L17.5116 78.8987C15.6584 71.5164 15.6469 62.8749 14.2817 56.8288Z" fill="#E9E9EE"/>
</svg>
