<svg width="67" height="91" viewBox="0 0 67 91" fill="none" xmlns="http://www.w3.org/2000/svg">
<path d="M21.6746 9.4248C22.713 5.19294 22.5867 4.97766 26.0962 2.19588C35.6424 -5.36923 68.1846 8.02119 64.6496 20.9416C64.4148 21.2198 62.9532 22.9211 62.8658 23.0979C63.7585 26.4946 65.1391 30.735 63.6341 34.0777C59.1869 46.4062 55.0095 59.1087 50.3985 71.3218C54.2073 73.6046 60.4032 72.9752 64.226 76.5517C72.1707 83.9794 60.7708 87.2762 55.023 88.7448C46.5942 90.7428 38.3038 90.7528 29.7477 89.8587L21.3928 89.2743C17.5621 89.0645 8.10478 87.0365 6.26208 83.41C6.29505 81.7866 6.16168 82.351 7.59678 80.9474C1.04018 76.9013 1.96531 72.0411 0.134094 65.2228C-0.851943 61.8411 3.88043 50.3873 5.17516 46.6509C8.60981 36.9055 11.8651 27.099 14.9396 17.2357C15.5385 15.6327 15.7373 15.409 16.7783 14.1282C17.9702 12.6352 20.2 10.754 21.6746 9.4248Z" fill="#00379A"/>
<path d="M21.6746 9.4248C22.7131 5.19294 22.5867 4.97766 26.0963 2.19588C35.6425 -5.36923 68.1847 8.02119 64.6497 20.9416C64.4149 21.2198 62.9533 22.9211 62.8659 23.0979C55.8727 28.3453 45.7311 27.63 38.0656 24.2283L36.2774 23.5041L31.3772 21.4086C30.0405 21.6034 29.3411 21.4331 28.6678 22.2673C27.0729 24.7678 26.3895 25.5001 24.372 27.623C23.0058 26.8817 21.1456 25.2174 19.8844 24.1659L19.5941 23.7563C18.5087 22.0799 16.2894 18.5084 14.9397 17.2357C15.5386 15.6327 15.7374 15.409 16.7784 14.1282C17.9703 12.6352 20.2001 10.754 21.6746 9.4248Z" fill="#BCBBD1"/>
<path d="M14.9397 17.2356C15.5386 15.6327 15.7374 15.4089 16.7784 14.1282C18.9153 15.335 20.6002 14.5433 22.809 15.2041C23.8475 16.5113 24.4794 17.1312 24.868 18.7591L28.6678 22.2672C27.0729 24.7678 26.3895 25.5001 24.372 27.623C23.0058 26.8817 21.1456 25.2173 19.8844 24.1658L19.5941 23.7562C18.5087 22.0799 16.2894 18.5084 14.9397 17.2356Z" fill="#045FCD"/>
<path d="M19.594 23.7564C20.3687 21.7678 23.1431 19.8722 24.8679 18.7593L28.6677 22.2674C27.0727 24.7679 26.3894 25.5002 24.3718 27.6231C23.0057 26.8818 21.1455 25.2175 19.8842 24.166L19.594 23.7564Z" fill="#68A8E5"/>
<path d="M38.0654 24.2283L38.7602 23.3666C40.2368 22.6928 48.8244 24.3637 51.6827 24.1878C59.4641 23.7083 58.7327 23.6454 63.6395 18.7542L64.2354 18.9355L64.6495 20.9415C64.4147 21.2198 62.9531 22.9211 62.8657 23.0979C55.8726 28.3453 45.7309 27.63 38.0654 24.2283Z" fill="#0C4097"/>
<path d="M21.6745 9.4248C22.5592 11.2171 23.3694 12.8779 24.1591 14.7136L22.8089 15.2042C20.6001 14.5433 18.9152 15.335 16.7783 14.1282C17.9702 12.6352 20.2 10.754 21.6745 9.4248Z" fill="#00379A"/>
<path d="M24.159 14.7136C26.5152 17.7861 27.9858 19.2672 31.377 21.4086C30.0403 21.6034 29.341 21.4331 28.6676 22.2672L24.8678 18.7592C24.4792 17.1313 23.8473 16.5114 22.8088 15.2041L24.159 14.7136Z" fill="#0C4097"/>
<path d="M47.317 8.47421C43.0162 7.35181 35.617 5.28085 31.3751 6.81235C29.9405 7.33035 28.1738 8.46074 26.0673 9.18004L25.3995 8.83037C24.8535 6.05958 25.8305 3.83425 28.6388 2.92614C36.3153 0.444564 42.1606 2.37119 49.1418 5.58455L47.6233 6.64351L47.317 8.47421Z" fill="#0C4097"/>
<path d="M49.1416 5.58447C53.3205 7.31528 56.5404 9.27036 59.8052 12.4662C61.1329 14.4967 62.63 17.0113 61.07 19.3555C58.8212 18.5603 58.1153 15.2255 54.4195 12.3084L47.3169 8.47413L47.6231 6.64344L49.1416 5.58447Z" fill="#7F80AB"/>
<path d="M54.4197 12.3086L54.7354 12.384C56.162 12.7387 56.4267 12.8685 57.7544 13.5529C59.1466 13.3261 58.6451 13.4944 59.8054 12.4664C61.1331 14.4969 62.6302 17.0115 61.0702 19.3557C58.8214 18.5605 58.1156 15.2257 54.4197 12.3086Z" fill="#616598"/>
<path d="M46.787 13.79C48.8834 13.6671 49.1357 13.7196 51.0478 14.5907C52.2936 16.1087 52.0439 15.3984 52.0883 17.2426C49.5398 22.2642 44.24 20.3466 40.9986 17.2067C40.7868 15.7396 40.6625 16.325 41.5246 15.0203C43.4428 14.2785 44.1705 14.7311 46.3604 14.8605L46.787 13.79Z" fill="#0E1C42"/>
<path d="M41.8228 14.6623C39.7493 14.1283 38.5275 13.9909 37.028 12.4954C36.4086 10.8565 36.4011 11.5198 36.959 9.99233C40.2418 7.01624 45.3348 7.40686 46.2509 12.2921L46.7869 13.7901L46.3603 14.8606C44.1705 14.7312 43.4427 14.2787 41.5246 15.0204L41.8228 14.6623Z" fill="#0E1C42"/>
<path d="M41.823 14.6623C42.5792 14.1338 42.5617 14.1962 42.9723 13.3785C41.5557 12.6952 40.0192 12.1073 38.9368 11.0154C40.1995 9.90594 41.6396 9.98836 43.1097 10.5158C43.6332 11.365 44.0428 12.5224 44.7316 13.0199L46.2511 12.2921L46.7871 13.7901L46.3605 14.8606C44.1707 14.7312 43.4429 14.2787 41.5248 15.0204L41.823 14.6623Z" fill="#A6A6C7"/>
<path d="M50.3984 71.3218C54.2072 73.6045 60.4031 72.9751 64.2259 76.5517C72.1706 83.9794 60.7707 87.2762 55.0229 88.7447C46.5941 90.7428 38.3037 90.7528 29.7476 89.8587C31.832 89.4291 33.6423 88.9895 35.6998 88.4451L35.7757 86.7767C35.8501 86.5269 36.0014 85.0234 36.0424 84.6638C38.7872 84.3241 41.2833 83.5199 44.171 83.2102C45.666 82.6707 46.1181 81.8066 46.7819 80.5428C47.255 78.9843 48.9698 75.7774 49.6931 73.6945L50.3984 71.3218Z" fill="#9AB4DA"/>
<path d="M36.0426 84.6638C38.7874 84.3241 41.2835 83.5199 44.1712 83.2102C40.8115 86.8217 40.6082 87.2263 35.7 88.4451L35.7759 86.7767C35.8503 86.527 36.0016 85.0234 36.0426 84.6638Z" fill="#0C4097"/>
<path d="M0.134033 65.2229C5.94386 73.1452 11.3306 77.331 20.7059 80.8776L20.0391 82.0365C21.0666 82.4061 24.3074 83.505 25.0971 83.9346C29.4044 84.6389 31.6412 84.6539 36.0424 84.6639C36.0015 85.0236 35.8501 86.5271 35.7757 86.7768L35.6998 88.4452C33.6423 88.9897 31.8321 89.4292 29.7476 89.8588L21.3928 89.2744C17.562 89.0646 8.10472 87.0366 6.26202 83.4101C6.29499 81.7867 6.16162 82.3511 7.59672 80.9475C1.04012 76.9015 1.96524 72.0412 0.134033 65.2229Z" fill="#A6A6C7"/>
<path d="M10.5515 79.0393C13.3922 79.2491 17.2465 80.9624 20.0393 82.0364C21.0668 82.406 24.3076 83.5049 25.0973 83.9345C29.4046 84.6388 31.6414 84.6538 36.0426 84.6638C36.0017 85.0235 35.8503 86.527 35.7759 86.7767L35.7 88.4451C33.6425 88.9896 31.8322 89.4291 29.7478 89.8587L21.3929 89.2743L20.5283 87.2962C21.1841 86.8217 22.9689 86.3471 24.0693 85.8177C17.5467 84.5939 15.3244 83.5399 10.5515 79.0393Z" fill="#6B7DB0"/>
<path d="M25.0972 83.9343C29.4045 84.6386 31.6413 84.6537 36.0425 84.6637C36.0016 85.0233 35.8502 86.5268 35.7758 86.7766C33.8856 85.1532 26.7651 87.1412 23.9988 85.318L25.0972 83.9343Z" fill="#0C4097"/>
<path d="M7.59666 80.9475C11.1322 83.3951 16.2092 86.587 20.528 87.2963L21.3927 89.2744C17.5619 89.0646 8.10466 87.0366 6.26196 83.4101C6.29493 81.7867 6.16156 82.3511 7.59666 80.9475Z" fill="#9AB4DA"/>
<path d="M57.1823 36.3599C59.4586 35.3055 61.2579 34.7979 63.634 34.0776C59.1869 46.4061 55.0095 59.1087 50.3985 71.3217L49.6932 73.6944C48.318 73.5595 45.9748 74.3837 44.3374 74.7434L44.3729 74.5336C44.8869 71.3167 48.2541 61.7761 49.4933 58.3444C51.9485 51.5411 54.4135 42.8945 57.1823 36.3599Z" fill="#114EBA"/>
<path d="M28.6678 22.2673C29.3411 21.4332 30.0404 21.6035 31.3771 21.4087L36.2773 23.5041C38.5476 27.4163 44.9434 29.2465 49.2282 29.4713C50.427 30.7421 52.0239 32.1287 52.3556 33.7751C49.6797 39.9575 27.6972 30.9538 23.8884 28.2844L24.3719 27.6231C26.3895 25.5002 27.0728 24.7679 28.6678 22.2673Z" fill="#114EBA"/>
<path d="M19.8842 24.1658C21.1455 25.2172 23.0057 26.8816 24.3719 27.6229L23.8884 28.2842C21.7115 35.5017 17.1989 47.7447 13.7827 54.7878C13.4705 55.4322 10.473 55.9667 9.56885 56.1515C10.6153 50.3871 16.2588 28.2713 19.8842 24.1658Z" fill="#1373DD"/>
<path d="M20.7059 80.8774C31.828 84.0892 35.8301 84.2541 46.7819 80.5427C46.1181 81.8065 45.666 82.6706 44.171 83.2101C41.2833 83.5198 38.7872 84.324 36.0424 84.6637C31.6412 84.6537 29.4044 84.6387 25.0971 83.9344C24.3074 83.5048 21.0666 82.4059 20.0391 82.0363L20.7059 80.8774Z" fill="#A6A6C7"/>
</svg>
