<svg width="85" height="99" viewBox="0 0 85 99" fill="none" xmlns="http://www.w3.org/2000/svg">
<path d="M11.8651 1.24763C12.8292 0.398963 13.5005 0.365989 14.7533 0.0732753C26.3794 0.0662821 25.1087 5.25722 24.3654 15.3503C24.2675 16.685 24.273 19.8315 23.9788 20.788C24.0657 23.5264 23.9128 25.2936 25.777 27.2697C29.9984 29.5914 35.8062 25.6952 37.9267 26.5874C59.2528 35.5641 45.5867 12.3353 52.93 1.12526C65.3998 -2.81789 67.4433 4.0464 69.5388 14.7904C70.6207 20.3375 71.4949 25.9585 72.4055 31.5395C74.2272 40.7845 75.005 50.9236 76.511 60.3439C77.7378 68.94 78.0815 71.3786 75.7462 79.7764C74.8951 81.4872 74.3241 82.2525 74.7167 84.1066C75.0969 84.718 75.962 86.2031 76.3526 86.6986C81.8598 88.3675 88.6986 91.5249 80.063 96.7278C76.4161 98.9246 72.0234 98.559 67.9563 98.3407C66.6246 98.4521 64.9553 98.2978 63.5871 98.2293C46.0232 97.3502 28.326 97.7708 10.7417 97.7873C3.36441 97.7938 2.48077 95.8057 0.0571337 89.4754C-0.344974 86.4244 1.47026 82.191 2.53422 79.2784C-0.50481 70.6273 0.225469 67.3515 1.14008 58.4427C1.96027 52.3742 2.48826 46.2471 3.25451 40.1706C4.1881 31.3187 5.6317 22.1202 6.9679 13.2934C7.61526 9.01853 8.53086 4.21973 11.8651 1.24763Z" fill="#2799EE"/>
<path d="M10.6698 69.7046C13.8716 72.5728 17.8378 77.9066 21.6316 81.5585C23.3079 84.6485 25.5597 84.8303 28.6647 86.8928L26.6592 88.3933L26.9214 88.748L27.5902 88.4708C33.2827 86.0921 39.7714 88.5846 46.4194 87.1935C53.2182 85.7709 59.3153 83.4826 64.5876 78.7578C64.8139 78.5554 66.4248 74.6058 67.306 73.4115L68.1916 73.5723C69.7256 78.1114 70.6392 75.7082 75.7462 79.7763C74.8951 81.4871 74.3241 82.2523 74.7167 84.1065C75.0968 84.7179 75.962 86.203 76.3526 86.6985C81.8598 88.3673 88.6986 91.5248 80.063 96.7277C76.4161 98.9245 72.0233 98.5589 67.9563 98.3406C66.6246 98.452 64.9552 98.2977 63.5871 98.2292C46.0232 97.3501 28.326 97.7707 10.7417 97.7872C3.36441 97.7936 2.48076 95.8056 0.0571289 89.4753L0.571626 88.686C1.75297 88.2455 6.53281 89.778 8.21167 90.2066C11.9061 86.4807 12.0714 83.7284 16.9122 85.2649C18.3358 85.7164 19.3833 84.9152 20.5246 84.0636C21.212 80.8177 10.6388 79.7877 8.66722 74.6942C8.35353 72.7961 9.59931 71.352 10.6698 69.7046Z" fill="#114EBA"/>
<path d="M76.3526 86.6985C81.8597 88.3674 88.6985 91.5248 80.063 96.7277C76.416 98.9245 72.0233 98.5589 67.9563 98.3406C73.6188 96.6598 76.5085 92.4793 76.3526 86.6985Z" fill="#B5C7E7"/>
<path d="M54.8591 87.2944C55.3531 87.4808 55.6018 87.7475 56.0264 88.0832C55.3751 89.776 54.7642 89.802 53.0853 91.1042C52.1752 90.9004 52.6177 91.0882 51.8435 90.2805C52.2831 88.8699 53.6278 88.1596 54.8591 87.2944Z" fill="#00379A"/>
<path d="M72.4055 31.5396C74.2272 40.7845 75.005 50.9236 76.511 60.3439C77.7378 68.94 78.0815 71.3786 75.7463 79.7764C70.6392 75.7084 69.7256 78.1115 68.1916 73.5725L67.306 73.4116C66.4248 74.6059 64.8139 78.5556 64.5876 78.7579C59.3153 83.4828 53.2183 85.771 46.4194 87.1936C39.7714 88.5848 33.2827 86.0922 27.5903 88.4709L26.9214 88.7481L26.6592 88.3935L28.6647 86.8929C25.5597 84.8305 23.308 84.6486 21.6316 81.5587C25.4643 84.0098 27.1797 85.1322 31.3746 86.8505C35.8567 84.5842 38.6994 83.1311 42.198 79.4322C46.4284 74.9601 51.9705 70.969 55.8656 66.2246C58.2573 64.3585 60.6 62.4304 62.8918 60.4433C64.3764 61.8974 65.0372 63.0842 67.0283 62.0822C69.0473 58.6595 65.2675 47.8791 66.3554 41.4723L66.4448 40.9703C65.9603 37.6266 69.5877 33.121 72.4055 31.5396Z" fill="#045FCD"/>
<path d="M72.4054 31.5396C74.2272 40.7845 75.0049 50.9236 76.511 60.3439C68.9099 55.8303 70.7915 45.3236 66.4448 40.9703C65.9602 37.6266 69.5877 33.121 72.4054 31.5396Z" fill="#478AD6"/>
<path d="M1.14008 58.4426C3.08518 58.58 2.40135 58.2898 3.81297 59.4187C4.74057 62.702 4.06572 66.1701 5.14517 70.0128L6.92543 69.8644C9.56934 66.0207 10.1852 63.4232 11.9405 59.1734C16.7723 62.614 17.6275 66.2275 23.9463 70.5703C33.9795 69.3704 46.1821 68.299 55.8656 66.2245C51.9704 70.9689 46.4284 74.96 42.198 79.4321C38.6994 83.131 35.8567 84.5841 31.3746 86.8503C27.1797 85.132 25.4643 84.0096 21.6316 81.5585C17.8378 77.9066 13.8716 72.5728 10.6698 69.7046C9.59932 71.352 8.35353 72.7961 8.66723 74.6942C10.6388 79.7877 21.212 80.8178 20.5246 84.0636C19.3833 84.9152 18.3358 85.7164 16.9122 85.2649C12.0714 83.7284 11.9061 86.4807 8.21168 90.2066C6.53282 89.778 1.75298 88.2455 0.571631 88.686L0.0571337 89.4753C-0.344974 86.4243 1.47026 82.1909 2.53422 79.2782C-0.50481 70.6272 0.225469 67.3514 1.14008 58.4426Z" fill="#1373DD"/>
<path d="M5.82455 80.9058L6.381 81.5886C6.46392 83.1006 5.6637 83.8499 4.7356 85.1306L4.40193 84.7595C4.30852 83.1601 4.98687 82.5262 5.82455 80.9058Z" fill="#68A8E5"/>
<path d="M14.7532 0.0732492C26.3793 0.0662561 25.1086 5.25719 24.3653 15.3503C24.2674 16.685 24.2729 19.8314 23.9787 20.788C24.0656 23.5263 23.9127 25.2936 25.7769 27.2697C29.9983 29.5914 35.8061 25.6952 37.9266 26.5873C59.2527 35.5641 45.5866 12.3353 52.9299 1.12523C54.9215 3.32808 55.4784 3.87454 55.4694 6.92306L56.0184 17.7879C56.2317 22.4254 56.4385 25.8161 55.9784 30.477C55.0204 31.2108 52.0917 33.6964 51.306 33.8158C45.7779 34.658 31.2581 34.2903 25.9497 33.8018L22.7014 33.1264C19.1019 28.2227 19.8052 24.4314 19.9646 18.4148C19.9341 14.2928 20.7054 9.83571 20.3467 5.86509C19.9976 1.99787 15.9925 2.99041 13.6562 1.32753L14.7532 0.0732492Z" fill="#045FCD"/>
<path d="M11.865 1.2476C12.829 0.39893 13.5004 0.365956 14.7532 0.0732422L13.6562 1.32752C15.9925 2.9904 19.9976 1.99786 20.3467 5.86508C20.7054 9.8357 19.9341 14.2928 19.9646 18.4148C19.1199 19.4803 14.377 21.9289 12.6922 22.9454C11.8815 26.0683 11.5918 27.5299 9.22607 29.7113C8.89989 31.1064 9.00978 32.3987 7.30795 32.6514C6.738 34.8987 6.2195 39.2564 5.41429 40.9133L4.63156 41.3634C3.52864 40.8039 3.7644 41.1191 3.25439 40.1705C4.18798 31.3187 5.63158 22.1202 6.96778 13.2933C7.61515 9.0185 8.53075 4.2197 11.865 1.2476Z" fill="#1373DD"/>
<path d="M11.8652 1.2476C12.8293 0.39893 13.5006 0.365956 14.7534 0.0732422L13.6565 1.32752C15.9927 2.9904 19.9978 1.99786 20.347 5.86508C20.7056 9.8357 19.9344 14.2928 19.9648 18.4148C19.1201 19.4803 14.3773 21.9289 12.6924 22.9454C14.133 17.746 13.7539 12.7678 16.5187 7.93605C17.4073 6.38307 13.8987 6.26519 13.4327 4.96246C13.2574 4.47144 12.5531 3.92447 12.0825 3.53286C12.3358 2.62874 12.1075 2.15621 11.8652 1.2476Z" fill="#2799EE"/>
<path d="M12.0823 3.53271C12.5529 3.92433 13.2572 4.4713 13.4325 4.96232C13.8985 6.26504 17.4071 6.38293 16.5185 7.93591C13.7537 12.7677 14.1328 17.7458 12.6922 22.9452C11.8815 26.0682 11.5918 27.5298 9.22611 29.7111C8.56076 28.5283 8.47983 27.0357 8.28003 25.6541C9.27905 18.4556 10.6977 10.6647 12.0823 3.53271Z" fill="#85CCF8"/>
<path d="M7.30811 32.6515L8.28015 25.6543C8.47995 27.0359 8.56088 28.5285 9.22623 29.7113C8.90005 31.1065 9.00994 32.3987 7.30811 32.6515Z" fill="#68A8E5"/>
<path d="M55.9784 30.4771C56.3141 35.9182 45.0241 35.8927 41.4356 35.6535C37.8147 35.4127 24.3283 36.8873 22.7014 33.1265L25.9497 33.8018C31.2581 34.2903 45.7779 34.658 51.306 33.8158C52.0917 33.6964 55.0203 31.2108 55.9784 30.4771Z" fill="#68A8E5"/>
<path d="M55.4695 6.9231L56.6273 7.36517C57.483 10.0915 58.7618 18.1576 56.8321 20.4104C56.4215 19.3784 56.2872 18.8689 56.0184 17.788L55.4695 6.9231Z" fill="#68A8E5"/>
<path d="M19.1981 44.8193C19.9518 45.4722 21.5523 47.4378 22.2846 48.2914C19.1666 51.7186 16.0147 55.1148 12.8298 58.48C12.148 59.0464 12.5561 58.8226 11.4157 58.8441C10.007 55.3735 16.9607 47.725 19.1981 44.8193Z" fill="#68A8E5"/>
<path d="M12.2198 39.2043C14.4656 39.7988 14.9871 40.7494 16.663 42.5256L12.7653 47.4648L10.9745 48.7515L10.0889 48.5312C8.72174 45.8259 10.5714 41.4611 12.2198 39.2043Z" fill="#85CCF8"/>
<path d="M62.5622 12.9421C65.3789 14.6475 65.9708 25.7526 66.4109 29.4305C65.7705 29.1653 65.336 28.8366 64.7525 28.461C62.733 25.4659 62.2605 16.5281 62.5622 12.9421Z" fill="#E9E9EE"/>
<path d="M6.26796 45.8735C8.4823 47.6308 6.52771 56.2374 6.10013 59.1855L5.45126 59.0582C4.69749 56.8084 5.90682 48.502 6.26796 45.8735Z" fill="#85CCF8"/>
<path d="M57.7964 48.24L58.8479 48.6072C60.9253 50.7051 60.9997 52.1941 61.3964 55.1028C58.5771 54.3635 57.8753 50.6961 57.7964 48.24Z" fill="#1373DD"/>
<path d="M48.4827 39.8159L49.3149 40.3554C49.0916 42.0602 46.9747 44.9449 45.9587 46.5279L45.2938 46.3895C44.9641 44.5928 47.4707 41.2595 48.4827 39.8159Z" fill="#478AD6"/>
</svg>
