<svg width="78" height="101" viewBox="0 0 78 101" fill="none" xmlns="http://www.w3.org/2000/svg">
<path d="M4.52332 10.9373C4.35099 8.12707 3.04826 1.21881 5.83104 0C7.98294 0.421088 8.4185 0.536978 10.3062 1.68835L10.7388 1.9561L12.0195 1.60094C13.5101 0.15186 12.8632 0.383138 14.7513 0.102911C16.5905 0.79973 17.106 1.30223 18.6245 2.52753C20.3633 1.26027 20.5457 0.707313 22.4134 0.463551C27.1787 4.21538 30.4085 -1.23678 35.8697 2.64343L36.4626 3.07401C36.7938 3.31077 36.6694 3.22585 37.0985 3.43664C37.1604 5.49613 37.2054 9.19852 37.7753 11.0812L49.4684 11.735L50.2162 11.266C50.5329 8.23346 50.3775 5.91622 52.2387 3.65193C53.4475 2.60695 54.4536 1.45059 56.025 1.49754C57.5326 2.07048 58.0545 2.78977 59.14 3.94015C60.3723 2.84572 61.192 1.87717 62.8144 1.70533C64.6301 2.93014 64.9323 3.39619 66.8794 3.40518C68.813 1.92263 68.4294 1.73432 70.4774 1.61643C73.3671 3.92617 72.7816 11.4333 70.8006 13.5852L70.5478 14.2246C69.9699 16.6113 69.2836 19.1493 68.9839 21.5724C68.0653 26.4412 67.1057 35.5048 67.4339 40.5164C68.2071 52.3049 64.0837 73.4582 67.2056 83.9974L68.4209 86.9795L69.0028 88.0574C72.0239 89.3042 79.0091 91.6319 77.2608 96.4707C76.6918 98.0457 74.4765 99.0881 72.93 99.5622C71.5833 99.9783 70.2067 100.289 68.812 100.493C66.5053 100.501 66.5412 100.506 64.6281 99.1446C62.0092 97.2809 62.687 100.539 58.7274 100.341C55.6814 95.6175 55.7418 99.4743 52.471 100.079C51.2482 99.3339 50.9075 98.8799 49.9784 97.8484C48.324 97.8958 47.6397 98.8074 45.9634 99.8724C43.9149 99.726 44.1491 99.276 42.193 97.6121L41.0272 97.718C36.4531 102.48 35.4996 96.2854 34.0025 97.5112C28.8501 101.731 30.0174 97.4548 26.812 97.2944L26.5893 97.5057C22.4438 101.402 23.3379 97.3488 20.1076 97.2454C18.9687 98.2375 18.5521 98.73 17.0426 99.0836C14.9831 98.6316 15.4811 98.6236 13.7513 96.9313C11.53 96.7404 13.2218 98.0202 9.94951 98.8968C8.37555 98.7545 8.0224 98.2959 6.92897 97.2155L6.58131 96.8673C4.04179 96.5207 5.41944 98.2145 1.9818 98.6306C-1.33596 96.4028 0.157568 87.6089 1.80546 84.8995C2.33494 83.5458 3.13518 81.9074 3.75058 80.5612C3.99185 75.4343 5.09627 67.8532 5.43244 61.6862C5.76362 53.6101 6.16023 45.537 6.62278 37.4669C7.29662 25.2783 7.928 22.6758 4.52332 10.9373Z" fill="#FABC16"/>
<path d="M17.5471 54.4039C20.0532 53.2095 20.7859 54.4698 22.9104 56.1377C23.9254 57.7336 24.6002 58.844 25.4419 60.5324L26.8605 59.1647L29.5948 60.1762C27.9689 62.7327 28.947 64.3017 29.9065 67.0575C31.513 68.4901 33.0095 70.09 35.1329 70.4991C36.6599 70.7199 38.6475 71.0686 40.1405 71.2059L41.6426 71.9063C41.9757 73.4368 40.4282 75.9558 39.9437 78.252C49.9315 78.4459 51.7032 80.1547 60.0281 86.5284C60.1445 86.6618 60.2609 86.7952 60.3778 86.9286C63.0192 86.9815 65.791 87.0874 68.4209 86.9795L69.0028 88.0575C72.0239 89.3042 79.0091 91.632 77.2608 96.4708C76.6918 98.0457 74.4765 99.0882 72.93 99.5622C71.5833 99.9783 70.2067 100.29 68.812 100.493C66.5053 100.501 66.5412 100.506 64.6281 99.1446C62.0092 97.2809 62.687 100.539 58.7274 100.341C55.6814 95.6176 55.7418 99.4743 52.471 100.079C51.2482 99.3339 50.9075 98.8799 49.9784 97.8484C48.324 97.8959 47.6397 98.8075 45.9634 99.8724C43.9149 99.7261 44.1491 99.276 42.193 97.6121L41.0272 97.718C36.4531 102.48 35.4996 96.2854 34.0025 97.5112C28.8501 101.731 30.0174 97.4548 26.812 97.2944L26.5893 97.5057C22.4438 101.402 23.3379 97.3489 20.1076 97.2455C18.9687 98.2375 18.5521 98.73 17.0426 99.0837C14.9831 98.6316 15.4811 98.6236 13.7513 96.9313C11.53 96.7405 13.2218 98.0202 9.94951 98.8969C8.37555 98.7545 8.0224 98.296 6.92897 97.2155L6.58131 96.8674C4.04179 96.5207 5.41944 98.2145 1.9818 98.6306C-1.33596 96.4028 0.157568 87.6089 1.80546 84.8995C2.33494 83.5459 3.13518 81.9075 3.75058 80.5613C3.99185 75.4343 5.09627 67.8532 5.43244 61.6862C8.40204 59.7471 11.1828 56.4708 14.2069 54.5882C15.2254 54.5492 16.5641 54.5392 17.5471 54.4039Z" fill="#002C7E"/>
<path d="M17.5471 54.4039C20.0531 53.2095 20.7859 54.4698 22.9103 56.1377C23.9253 57.7336 24.6002 58.844 25.4419 60.5324L26.8605 59.1647L29.5948 60.1762C27.9689 62.7327 28.9469 64.3017 29.9065 67.0575C31.5129 68.4901 33.0095 70.09 35.1329 70.4991C36.6599 70.7199 38.6475 71.0686 40.1405 71.2059L41.6425 71.9063C41.9757 73.4368 40.4282 75.9558 39.9437 78.252C24.284 78.9394 20.2859 81.1382 5.93691 84.5009L3.35691 85.0099L2.88289 85.1778L1.80542 84.8995C2.3349 83.5459 3.13514 81.9075 3.75054 80.5613C3.99181 75.4343 5.09623 67.8532 5.4324 61.6862C8.402 59.7471 11.1828 56.4708 14.2068 54.5882C15.2253 54.5492 16.564 54.5392 17.5471 54.4039Z" fill="#004C82"/>
<path d="M17.547 54.4039C20.0531 53.2095 20.7859 54.4698 22.9103 56.1377C23.9253 57.7336 24.6001 58.844 25.4418 60.5324C22.8713 62.8266 16.9031 63.929 13.2152 67.7548L12.948 68.0295C9.4584 71.6625 7.50083 76.6476 3.75049 80.5613C3.99175 75.4343 5.09618 67.8532 5.43235 61.6862C8.40195 59.7471 11.1827 56.4708 14.2068 54.5882C15.2253 54.5492 16.564 54.5392 17.547 54.4039Z" fill="#ECD7C8"/>
<path d="M17.547 54.4039C20.053 53.2095 20.7858 54.4698 22.9102 56.1377C21.5076 58.7986 18.1004 64.0254 15.1119 64.43C13.9904 61.9824 16.8292 58.7491 17.547 54.4039Z" fill="#FAFAFB"/>
<path d="M25.4419 60.5324L26.8605 59.1648L29.5948 60.1763C27.9689 62.7328 28.9469 64.3018 29.9065 67.0576C26.1621 69.3688 4.54425 82.6268 3.35691 85.01L2.88289 85.1778L1.80542 84.8996C2.3349 83.5459 3.13514 81.9075 3.75054 80.5614C7.50088 76.6477 9.45845 71.6626 12.948 68.0296L13.2153 67.7549C16.9032 63.9291 22.8714 62.8267 25.4419 60.5324Z" fill="#007682"/>
<path d="M39.9436 78.2522C49.9314 78.446 51.7031 80.1548 60.028 86.5286C60.1444 86.662 60.2608 86.7953 60.3777 86.9287L60.3762 87.7959H60.4956C57.0544 88.9492 25.0621 87.5326 19.7798 87.0446C17.2897 87.1545 5.12112 86.9047 3.00418 86.1435L2.88281 85.1779L3.35684 85.0101L5.93684 84.5011C20.2858 81.1384 24.2839 78.9395 39.9436 78.2522Z" fill="#0E2F70"/>
<path d="M26.0583 85.4666C32.552 86.2838 39.0901 85.9401 45.6502 86.1809C50.8486 86.3722 55.3148 87.2298 60.3763 87.7958H60.4957C57.0546 88.9492 25.0623 87.5325 19.78 87.0445C18.5751 86.7073 15.8953 86.5001 15.3628 85.7703C16.2195 85.4741 24.5493 85.4835 26.0583 85.4666Z" fill="#0E1C42"/>
<path d="M3.35684 85.01L5.93684 84.501C9.8635 84.7712 23.7569 84.9071 26.0582 85.4665C24.5492 85.4835 16.2193 85.474 15.3626 85.7702C15.8951 86.5 18.575 86.7073 19.7798 87.0445C17.2897 87.1544 5.12112 86.9046 3.00418 86.1434L2.88281 85.1778L3.35684 85.01Z" fill="#012379"/>
<path d="M69.0028 88.0574C72.0239 89.3042 79.0091 91.6319 77.2608 96.4707C76.6918 98.0456 74.4765 99.0881 72.93 99.5621C71.5833 99.9782 70.2066 100.289 68.812 100.493C69.2466 96.5251 69.0982 92.0455 69.0028 88.0574Z" fill="#BBC9E3"/>
<path d="M61.9283 26.4822C63.8444 24.2919 66.4184 22.8368 68.9839 21.5725C68.0653 26.4413 67.1057 35.5049 67.4339 40.5165C68.2071 52.305 64.0837 73.4583 67.2056 83.9975L68.4209 86.9796C65.791 87.0875 63.0192 86.9816 60.3778 86.9286C60.2609 86.7953 60.1445 86.6619 60.0281 86.5285C51.7033 80.1547 49.9315 78.4459 39.9438 78.2521C40.4283 75.9559 41.9758 73.4368 41.6426 71.9063L40.1406 71.206C38.6475 71.0686 36.66 70.72 35.133 70.4992C33.0095 70.0901 31.513 68.4901 29.9066 67.0575C28.947 64.3017 27.969 62.7328 29.5949 60.1763L26.8606 59.1648L25.4419 60.5324C24.6002 58.8441 23.9254 57.7337 22.9104 56.1377C23.7726 52.3225 35.1459 46.9397 38.677 45.7374C42.0677 40.6274 43.4973 36.6548 50.1888 37.6018L56.0815 41.3077L56.0665 31.8919C56.7439 30.2675 59.6505 27.5132 60.9982 26.1835L61.9283 26.4822Z" fill="#187029"/>
<path d="M38.677 45.7373C42.0677 40.6273 43.4973 36.6547 50.1888 37.6017L56.0815 41.3076L56.3018 42.5989C57.5835 44.0085 57.7629 44.1828 59.5551 44.8646C59.5082 46.3757 59.3783 53.4413 59.153 54.4857C58.9322 53.8034 58.668 53.661 58.143 53.1605C55.7109 52.4672 53.1683 52.9637 50.6378 53.2549C48.936 53.2704 48.1817 53.3454 46.5078 53.5986L47.6363 54.3319C46.9075 56.0977 45.6092 56.4288 44.3949 57.798C42.4968 60.0783 37.9003 65.8297 36.5616 68.2578C36.0221 68.9666 35.3018 69.7029 35.133 70.4991C33.0095 70.09 31.513 68.49 29.9066 67.0574C28.947 64.3016 27.969 62.7327 29.5949 60.1762L26.8606 59.1647L25.4419 60.5323C24.6002 58.844 23.9254 57.7336 22.9104 56.1376C23.7726 52.3224 35.1459 46.9396 38.677 45.7373Z" fill="#E78324"/>
<path d="M37.195 59.846C40.3374 56.9403 42.307 54.8299 46.5079 53.5986L47.6363 54.3319C46.9075 56.0977 45.6093 56.4289 44.395 57.798C42.4968 60.0783 37.9003 65.8297 36.5616 68.2578C36.0221 68.9666 35.3018 69.7029 35.133 70.4991C33.0096 70.09 31.513 68.4901 29.9066 67.0575C28.947 64.3017 27.969 62.7327 29.5949 60.1762L26.8606 59.1647C31.1064 55.7905 32.9731 57.6207 37.195 59.846Z" fill="#0E2F70"/>
<path d="M29.5948 60.1763C31.2597 62.0819 35.2473 66.3992 36.5615 68.2579C36.022 68.9667 35.3017 69.703 35.1329 70.4992C33.0095 70.0901 31.5129 68.4901 29.9065 67.0575C28.9469 64.3017 27.9689 62.7328 29.5948 60.1763Z" fill="#016B5C"/>
<path d="M56.3017 42.5989C57.5834 44.0085 57.7628 44.1828 59.555 44.8646C59.5081 46.3757 59.3782 53.4413 59.1529 54.4858C58.9321 53.8034 58.6679 53.6611 58.1429 53.1605C55.7108 52.4672 53.1682 52.9637 50.6377 53.2549C55.5064 50.8872 56.6134 47.7394 56.3017 42.5989Z" fill="#01525D"/>
<path d="M61.9282 26.4822C63.8443 24.2919 66.4183 22.8368 68.9838 21.5725C68.0652 26.4413 67.1056 35.5049 67.4338 40.5165C68.207 52.305 64.0836 73.4583 67.2055 83.9975C63.7039 83.3986 60.2513 76.5398 58.7957 73.4398C57.9436 69.3703 58.8577 59.1003 59.1529 54.4858C59.3781 53.4414 59.508 46.3758 59.555 44.8647C57.7628 44.1829 57.5834 44.0086 56.3017 42.599L56.0814 41.3077L56.0664 31.8919C56.7437 30.2675 59.6504 27.5132 60.9981 26.1835L61.9282 26.4822Z" fill="#0E2F70"/>
<path d="M60.9981 26.1833L61.9282 26.4821C61.552 32.6825 60.5545 38.7381 59.555 44.8646C57.7628 44.1827 57.5834 44.0084 56.3017 42.5988L56.0814 41.3076L56.0664 31.8918C56.7437 30.2674 59.6504 27.513 60.9981 26.1833Z" fill="#0C4097"/>
<path d="M40.1404 71.2059C44.6176 70.7108 49.0537 69.5015 52.393 73.126C55.0104 76.3109 56.8051 75.6235 59.3167 77.2689C58.6508 75.6385 58.6269 75.1745 58.7957 73.4397C60.2513 76.5397 63.7039 83.3985 67.2055 83.9974L68.4208 86.9794C65.7909 87.0873 63.0191 86.9814 60.3777 86.9285C60.2608 86.7951 60.1444 86.6617 60.028 86.5284C51.7031 80.1546 49.9314 78.4458 39.9436 78.252C40.4281 75.9557 41.9756 73.4367 41.6424 71.9062L40.1404 71.2059Z" fill="#01525D"/>
<path d="M50.6377 53.2551C53.1682 52.9639 55.7107 52.4674 58.1429 53.1607C58.6678 53.6612 58.9321 53.8036 59.1529 54.4859C58.8576 59.1004 57.9436 69.3704 58.7957 73.4399C58.6269 75.1747 58.6508 75.6387 59.3167 77.2691C56.8051 75.6237 55.0104 76.311 52.393 73.1262C52.7676 72.5262 53.3255 71.2959 53.6622 70.6131C54.5399 70.0117 54.6997 69.6426 55.3146 68.748C55.7557 67.0007 54.9839 65.2968 54.4135 63.5425C51.9809 58.3241 50.1057 57.9365 44.3948 57.7982C45.6091 56.429 46.9073 56.0978 47.6361 54.332L46.5077 53.5988C48.1816 53.3455 48.9358 53.2706 50.6377 53.2551Z" fill="#016B5C"/>
<path d="M53.6622 70.6131C51.6701 70.0411 50.4024 69.6915 49.6506 67.6979C50.4673 65.8132 52.6996 64.7408 54.4135 63.5425C54.9839 65.2968 55.7557 67.0006 55.3146 68.7479C54.6997 69.6425 54.5398 70.0116 53.6622 70.6131Z" fill="#439026"/>
<path d="M4.5234 10.9373C4.35107 8.12707 3.04833 1.21881 5.83112 0C7.98302 0.421088 8.41858 0.536978 10.3062 1.68835L10.7388 1.9561L12.0196 1.60094C13.5101 0.15186 12.8633 0.383138 14.7514 0.102911C16.5906 0.79973 17.1061 1.30223 18.6246 2.52753C20.3634 1.26027 20.5458 0.707313 22.4134 0.463551C27.1788 4.21538 30.4086 -1.23678 35.8698 2.64343L36.4627 3.07401C36.7939 3.31077 36.6695 3.22585 37.0986 3.43664C37.1605 5.49613 37.2055 9.19852 37.7754 11.0812L49.4685 11.735L50.2163 11.266C50.533 8.23346 50.3776 5.91622 52.2388 3.65193C53.4476 2.60695 54.4536 1.45059 56.0251 1.49754C57.5326 2.07048 58.0546 2.78977 59.14 3.94015C60.3723 2.84572 61.1921 1.87717 62.8145 1.70533C64.6302 2.93014 64.9324 3.39619 66.8795 3.40518C68.8131 1.92263 68.4295 1.73432 70.4775 1.61643C73.3672 3.92617 72.7817 11.4333 70.8007 13.5852C66.868 13.5218 65.8755 13.2665 62.4843 15.2536C54.9566 18.5923 50.0999 20.419 43.349 25.1185C36.9797 24.3132 30.6749 24.7138 24.1617 23.9926C24.8925 18.936 10.1264 15.9609 6.93904 11.8714L4.5234 10.9373Z" fill="#045FCD"/>
<path d="M52.2386 3.65187C53.4474 2.60689 54.4535 1.45052 56.0249 1.49748C57.5325 2.07042 58.0544 2.78971 59.1399 3.94008C60.3722 2.84565 61.1919 1.8771 62.8143 1.70527C64.63 2.93007 64.9322 3.39612 66.8793 3.40511C68.8129 1.92256 68.4293 1.73425 70.4773 1.61636C73.367 3.92611 72.7816 11.4333 70.8005 13.5852C66.8678 13.5217 65.8753 13.2665 62.4841 15.2535C62.2034 14.8999 61.4776 14.2415 61.1209 13.8959C55.6823 13.201 48.8185 13.8799 42.8418 13.181C44.9183 13.0702 47.6326 13.0842 49.5103 12.3469L49.4683 11.735L50.2161 11.2659C50.5328 8.23339 50.3774 5.91615 52.2386 3.65187Z" fill="#00379A"/>
<path d="M59.543 9.66813C59.9061 8.03972 59.7133 7.49026 60.7683 6.58765C61.6624 7.92184 62.3218 11.9874 62.1419 13.4909L61.1209 13.896C55.6823 13.2012 48.8185 13.88 42.8418 13.1812C44.9183 13.0703 47.6326 13.0843 49.5103 12.347L49.4683 11.7351L50.2161 11.2661C51.836 11.6282 57.7288 12.0014 59.0669 11.0448C59.3816 10.82 59.4246 10.1592 59.543 9.66813Z" fill="#0E2F70"/>
<path d="M18.6245 2.5276C20.3633 1.26034 20.5457 0.707385 22.4133 0.463623C27.1787 4.21546 30.4085 -1.23671 35.8697 2.6435L36.4626 3.07408C36.7938 3.31085 36.6694 3.22592 37.0985 3.43671C37.1604 5.4962 37.2054 9.19859 37.7753 11.0812C31.4905 11.0952 23.8524 10.7725 17.5506 10.3869C17.5321 9.68411 17.5196 8.9818 17.5136 8.27948C17.4991 6.51871 17.3653 3.80635 18.6245 2.5276Z" fill="#00379A"/>
<path d="M26.4882 3.21387C27.1781 3.45114 27.3089 3.66392 27.8419 4.16193C28.1926 5.95168 27.4693 8.12556 27.0177 9.94778L25.9688 9.15206C25.4458 7.12105 26.0367 5.26087 26.4882 3.21387Z" fill="#0E2F70"/>
<path d="M4.5234 10.9373C4.35107 8.12707 3.04833 1.21881 5.83112 0C7.98302 0.421088 8.41858 0.536978 10.3062 1.68835L10.7388 1.9561L12.0196 1.60094C13.5101 0.15186 12.8633 0.383138 14.7514 0.102911C16.5906 0.79973 17.1061 1.30223 18.6246 2.52753C17.3654 3.80628 17.4992 6.51863 17.5137 8.27941C17.5197 8.98173 17.5322 9.68404 17.5507 10.3868C15.7944 10.1641 13.0096 10.1756 11.1649 10.1266L9.37965 10.0577C7.31167 10.0707 6.29767 9.92681 4.5234 10.9373Z" fill="#0C4097"/>
<path d="M12.0195 1.60106C13.51 0.151976 12.8631 0.383253 14.7513 0.103027C16.5905 0.799846 17.106 1.30234 18.6245 2.52764C17.3652 3.80639 17.4991 6.51875 17.5136 8.27953C17.5196 8.98184 17.5321 9.68415 17.5506 10.387C15.7943 10.1642 13.0095 10.1757 11.1648 10.1267L11.7382 6.0502C12.6164 4.50421 12.5429 3.16703 12.0195 1.60106Z" fill="#114EBA"/>
<path d="M9.37964 10.0578C9.50102 8.57275 9.68685 6.89389 10.7228 5.82544L11.7383 6.05021L11.1649 10.1267L9.37964 10.0578Z" fill="#00379A"/>
<path d="M9.37944 10.0577L11.1647 10.1267C13.0094 10.1756 15.7942 10.1641 17.5505 10.3869C23.8523 10.7725 31.4903 11.0952 37.7752 11.0812L49.4683 11.7351L49.5103 12.347C47.6326 13.0843 44.9182 13.0703 42.8418 13.1812C32.7686 13.4289 17.2548 12.378 6.93883 11.8715L4.52319 10.9374C6.29746 9.92686 7.31146 10.0707 9.37944 10.0577Z" fill="#012379"/>
<path d="M4.52319 10.9373L6.93883 11.8713C10.1262 15.9608 24.8923 18.9359 24.1615 23.9925C22.3368 24.2582 20.2863 24.51 18.506 24.8941L16.5684 26.6134C13.6703 31.7434 16.1134 48.569 14.2067 54.5881C11.1827 56.4707 8.40191 59.747 5.43231 61.6861C5.76349 53.61 6.1601 45.5369 6.62264 37.4668C7.29649 25.2782 7.92787 22.6758 4.52319 10.9373Z" fill="#0569D2"/>
<path d="M65.8334 18.2082C67.5877 16.4934 68.5722 15.6837 70.5478 14.2246C69.9699 16.6113 69.2835 19.1493 68.9838 21.5724C66.4183 22.8367 63.8443 24.2918 61.9282 26.4821L60.9981 26.1834C59.6504 27.5131 56.7438 30.2674 56.0664 31.8918L54.6004 30.9727C52.3696 31.5866 51.7581 33.1141 50.3305 35.1976L50.319 34.8614C50.0283 28.3847 60.7319 21.0085 65.8334 18.2082Z" fill="white"/>
<path d="M65.8334 18.2082C67.5877 16.4934 68.5722 15.6837 70.5478 14.2246C69.9699 16.6113 69.2836 19.1493 68.9838 21.5724C66.4184 22.8367 63.8444 24.2918 61.9282 26.4821L60.9981 26.1834C60.6655 24.4951 64.5512 20.1268 65.8334 18.2082Z" fill="#7A95BF"/>
<path d="M16.5686 26.6136L18.5062 24.8943C19.9338 27.3224 21.2295 28.8964 20.6416 31.7251L19.8224 32.357C17.5731 31.1172 17.3039 29.1177 16.5686 26.6136Z" fill="white"/>
<path d="M31.7283 31.6685C33.0036 31.648 34.8243 31.8269 35.7848 32.661C32.2443 36.1926 29.2322 29.2634 21.4518 44.2003C21.1366 45.0315 20.8079 45.2832 20.2065 45.9201L19.8484 45.2797C20.257 38.0987 25.5808 34.0252 31.7283 31.6685Z" fill="#FEDE78"/>
<path d="M37.0984 3.43678C38.039 2.19899 38.3941 1.53365 39.8672 0.938232C44.1445 1.6855 42.0695 5.02973 48.7026 1.40677C50.288 1.53664 51.0927 2.55414 52.2386 3.65207C50.3774 5.91636 50.5328 8.2336 50.2161 11.2661L49.4683 11.7352L37.7752 11.0813C37.2053 9.19866 37.1603 5.49627 37.0984 3.43678Z" fill="#0C4097"/>
</svg>
