<svg width="862" height="312" viewBox="0 0 862 312" fill="none" xmlns="http://www.w3.org/2000/svg">
<path d="M109.713 208.368C118.74 197.663 127.099 190.866 141.778 189.54C152.783 188.53 163.728 192.034 172.102 199.246C174.598 201.423 177.92 205.027 180.193 207.568C192.159 204.113 203.746 205.448 211.726 215.947C219.779 209.705 222.444 209.657 232.678 210.889C260.01 188.745 285.375 189.653 308.006 217.733C320.353 216.558 329.831 212.896 338.616 223.704L341.813 225.306C352.95 218.601 361.557 218.068 374.372 220.775C384.469 222.906 395.448 230.718 393.46 242.273C414.732 242.684 436.014 242.813 457.295 242.659C465.292 242.662 493.089 240.719 497.168 246.948C495.742 252.18 487.755 253.971 482.899 253.929C463.202 253.761 443.523 253.696 423.826 253.703L294.45 253.731C282.604 253.707 250.316 252.974 240.208 254.489C236.733 252.208 207.04 253.717 200.991 254.047C193.6 253.761 186.202 253.717 178.808 253.917C169.144 253.931 149.08 256.169 142.243 250.333C140.637 246.843 141.046 248.273 141.509 243.784C97.0907 243.06 51.7499 244.628 7.33445 243.066C4.24911 242.959 2.26344 241.751 0.49905 239.312C-0.310959 236.4 -0.123469 235.997 0.978105 233.15C7.74693 226.351 21.0971 227.403 30.7628 227.123C41.1532 202.171 68.8942 195.851 90.6875 210.532C98.092 206.774 101.464 205.168 109.713 208.368Z" fill="#7EDCEE"/>
<path d="M109.713 208.368C118.74 197.663 127.099 190.866 141.778 189.54C152.783 188.53 163.728 192.034 172.102 199.246C174.598 201.423 177.92 205.027 180.193 207.568C192.159 204.113 203.746 205.448 211.726 215.947L212.198 219.222C221.825 219.15 225.811 218.323 231.889 226.799C227.833 226.531 222.801 225.729 219.285 227.322C218.204 229.71 218.599 229.112 219.243 232.272C227.961 232.627 250.735 230.226 254.289 237.905C254.12 239.117 254.05 241.252 252.603 241.545C227.718 246.577 164.129 239.532 141.509 243.784C97.0907 243.06 51.7499 244.628 7.33445 243.066C4.24911 242.959 2.26344 241.751 0.49905 239.312C-0.310959 236.4 -0.123469 235.997 0.978105 233.15C7.74693 226.351 21.0971 227.403 30.7628 227.123C41.1532 202.171 68.8942 195.851 90.6875 210.532C98.092 206.774 101.464 205.168 109.713 208.368Z" fill="#FEFEFD"/>
<path d="M109.713 208.368C118.74 197.663 127.098 190.866 141.778 189.54C152.783 188.53 163.728 192.034 172.102 199.246C174.598 201.423 177.92 205.027 180.193 207.568C192.159 204.113 203.746 205.448 211.726 215.947L212.198 219.222C221.825 219.15 225.811 218.323 231.889 226.799C227.833 226.531 222.801 225.729 219.285 227.322C218.204 229.71 218.599 229.112 219.243 232.272L218.588 232.084C205.877 232.875 191.88 231.704 178.018 232.361C177.177 231.155 176.265 229.999 175.289 228.9C167.681 220.236 160.106 224.312 150.786 223.018C138.174 221.268 127.79 217.169 115.359 223.028C110.714 225.218 107.098 224.828 101.867 224.512C98.2766 217.943 96.0182 215.868 90.6875 210.532C98.092 206.774 101.464 205.168 109.713 208.368Z" fill="#C4ECF7"/>
<path d="M212.198 219.222C221.826 219.15 225.811 218.323 231.889 226.799C227.833 226.531 222.802 225.729 219.285 227.322C218.204 229.71 218.6 229.112 219.243 232.272L218.589 232.083C212.73 230.714 200.346 233.324 196.661 228.082C198.519 224.076 207.789 219.583 212.198 219.222Z" fill="#94E3E9"/>
<path d="M232.678 210.889C260.01 188.746 285.375 189.653 308.006 217.733C320.353 216.558 329.831 212.896 338.616 223.704L341.813 225.306C343.341 229.306 349.06 232.312 352.95 242.657L338.025 242.711C325.341 242.777 312.103 242.793 299.428 242.985C286.565 243.181 291.15 237.681 285.124 232.524C275.858 224.594 244.23 226.788 231.889 226.799C225.811 218.323 221.825 219.151 212.198 219.222L211.726 215.947C219.779 209.705 222.444 209.657 232.678 210.889Z" fill="#FEFEFD"/>
<path d="M338.026 242.711C334.529 220.738 314.335 228.602 309.197 219.732C315.854 215.878 331.463 222.742 338.616 223.704L341.813 225.306C343.341 229.306 349.06 232.312 352.951 242.657L338.026 242.711Z" fill="#AAE6F3"/>
<path d="M341.812 225.306C352.95 218.601 361.556 218.069 374.372 220.775C384.469 222.906 395.447 230.718 393.46 242.273C382.285 243.314 364.547 242.747 352.95 242.657C349.059 232.312 343.341 229.306 341.812 225.306Z" fill="#FEFEFD"/>
<path d="M396.863 270.859C413.429 263.031 410.495 267.494 426.807 266.143C449.982 264.212 470.214 258.108 489.508 276.626C496.999 276.991 503.43 277.179 510.668 279.598C511.652 281.914 518.974 285.504 521.88 287.22C525.152 288.711 525.612 288.721 529.212 288.617C532.08 292.368 531.902 293.765 532.23 298.462L531.199 299.878C528.855 297.862 503.271 298.518 498.049 298.434C473.523 298.237 448.989 298.256 424.463 298.49C415.623 298.593 401.663 298.378 393.216 298.987C394.06 303.534 394.529 302.522 393.048 306.394C386.438 313.107 347.531 310.06 336.384 310.229C300.328 310.848 264.259 311.101 228.195 310.979C212.927 311.007 197.354 311.176 182.082 310.716C176.033 310.538 172.021 310.398 169.315 304.528C169.572 295.246 179.534 296.502 186.281 296.549C191.536 296.587 196.553 296.484 201.805 296.277C208.822 281.473 211.948 285.505 225.959 281.501C228.643 280.77 231.216 277.441 233.524 276.447C258.451 265.731 277.107 269.95 296.596 287.089C301.584 285.983 303.675 285.551 308.334 283.545C317.119 280.835 332.109 280.751 340.285 285.392C348.356 263.856 378.479 261.737 396.863 270.859Z" fill="#FEFEFD"/>
<path d="M396.863 270.859C413.429 263.031 410.495 267.494 426.807 266.143C449.983 264.212 470.214 258.108 489.508 276.626C496.999 276.991 503.43 277.179 510.668 279.598C511.652 281.914 518.974 285.504 521.88 287.22C525.152 288.711 525.612 288.721 529.212 288.617C532.08 292.368 531.902 293.765 532.23 298.462L531.199 299.878C528.855 297.862 503.271 298.518 498.049 298.434C497.018 293.015 496.98 292.715 493.764 288.402C476.177 285.861 432.751 286.817 413.87 287.117C408.413 277.704 406.013 276.522 396.863 270.859Z" fill="#AAE6F3"/>
<path d="M521.881 287.22C525.152 288.711 525.612 288.72 529.212 288.617C532.081 292.368 531.903 293.765 532.231 298.462L531.199 299.878C528.856 297.862 503.271 298.518 498.049 298.434C497.018 293.015 496.98 292.714 493.765 288.402C503.018 287.192 512.327 288.673 521.881 287.22Z" fill="#DEF2F6"/>
<path d="M362.944 299.296C373.735 298.021 382.398 297.206 393.217 298.987C394.06 303.534 394.529 302.522 393.048 306.394C386.438 313.107 347.532 310.06 336.385 310.229C338.025 308.663 340.182 306.994 341.963 305.531C346.997 305.588 372.085 306.825 374.673 303.366C371.748 300.459 367.144 300.121 362.944 299.296Z" fill="#DEF2F6"/>
<path d="M308.334 283.545C317.118 280.835 332.109 280.751 340.284 285.392C335.653 288.992 314.025 286.33 308.334 283.545Z" fill="#C4ECF7"/>
<path d="M536.524 285.88C540.696 286.995 542.946 284.783 547.362 284.042C564.415 281.201 580.344 279.963 595.363 289.105C607.147 289.067 635.704 286.705 643.41 294.074C644.319 296.962 644.46 295.921 643.41 298.284C641.001 301.603 639.651 303.759 635.31 304.397C624.585 305.981 538.193 306.488 532.54 301.781C531.987 301.322 531.546 300.478 531.199 299.878L532.231 298.462C531.903 293.765 532.081 292.368 529.212 288.617L535.296 288.449C536.215 287.98 535.999 287.464 536.524 285.88Z" fill="#AAE6F3"/>
<path d="M542.74 297.524C566.178 298.593 590.684 297.571 614.244 297.928C622.981 298.059 634.794 297.543 643.41 298.284C641 301.603 639.65 303.759 635.31 304.397C624.585 305.981 538.193 306.488 532.54 301.781C531.987 301.322 531.546 300.478 531.199 299.878L532.23 298.462L542.74 297.524Z" fill="#FEFEFD"/>
<path d="M529.212 288.617L535.296 288.448C536.609 292.133 539.843 294.674 542.74 297.524L532.231 298.462C531.903 293.765 532.081 292.368 529.212 288.617Z" fill="#AAE6F3"/>
<path d="M157.01 272.885C164.002 272.425 193.165 277.385 199.084 280.273C196.503 282.814 179.101 282.57 174.772 282.682C167.751 282.804 137.235 283.057 132.444 280.995C135.237 277.132 146.57 277.554 150.778 275.191C152.797 274.066 154.795 273.55 157.01 272.885Z" fill="#FEFEFD"/>
<path d="M200.991 254.048C207.04 253.717 236.733 252.208 240.208 254.489C244.193 255.06 247.29 255.097 250.551 257.339L250.205 258.446C245.071 259.974 179.363 260.546 172.626 258.886C171.845 257.433 171.616 257.396 171.731 255.791C178.376 255.541 196.657 256.422 200.872 255.341L200.991 254.048Z" fill="#FEFEFD"/>
<path d="M510.668 279.598C517.727 277.469 532.231 277.122 536.881 283.836L536.524 285.88C535.999 287.464 536.215 287.98 535.296 288.449L529.212 288.617C525.612 288.72 525.152 288.711 521.881 287.22C518.974 285.504 511.652 281.913 510.668 279.598Z" fill="#FEFEFD"/>
<path d="M178.808 253.917C186.202 253.717 193.6 253.761 200.991 254.048L200.872 255.341C196.657 256.422 178.376 255.541 171.73 255.791L178.808 253.917Z" fill="#FEFEFD" fill-opacity="0.733333"/>
<path d="M733.749 22.042C723.277 9.6217 713.579 1.73636 696.548 0.198231C683.779 -0.974401 671.082 3.09064 661.366 11.459C658.47 13.9837 654.616 18.1652 651.978 21.1142C638.096 17.1057 624.653 18.6536 615.395 30.8346C606.052 23.5932 602.959 23.5378 591.086 24.9671C559.375 -0.724189 529.948 0.328733 503.691 32.9068C489.366 31.5438 478.369 27.2949 468.178 39.8349L464.468 41.6929C451.547 33.9141 441.562 33.2963 426.693 36.4367C414.978 38.9082 402.241 47.9726 404.547 61.3785C379.868 61.8549 355.177 62.0051 330.486 61.8256C321.208 61.8299 288.958 59.575 284.227 66.8022C285.88 72.872 295.147 74.9497 300.781 74.9018C323.634 74.7071 346.464 74.631 369.317 74.6397L519.419 74.6723C533.162 74.644 570.622 73.7934 582.35 75.5512C586.382 72.9046 620.831 74.656 627.849 75.0389C636.424 74.7061 645.007 74.656 653.586 74.8877C664.798 74.904 688.076 77.5006 696.008 70.7291C697.872 66.6804 697.397 68.3392 696.86 63.1309C748.394 62.2912 800.998 64.111 852.529 62.2988C856.108 62.1737 858.412 60.7726 860.459 57.9433C861.399 54.5646 861.181 54.0969 859.903 50.7933C852.05 42.9058 836.561 44.1262 825.347 43.801C813.292 14.8518 781.107 7.52009 755.823 24.5526C747.232 20.1928 743.32 18.3294 733.749 22.042Z" fill="#7EDCEE"/>
<path d="M733.749 22.042C723.277 9.6217 713.579 1.73636 696.548 0.198231C683.779 -0.974401 671.082 3.09064 661.366 11.459C658.47 13.9837 654.616 18.1652 651.978 21.1142C638.096 17.1057 624.653 18.6536 615.395 30.8346L614.847 34.6342C603.677 34.5515 599.053 33.5911 592.002 43.4257C596.707 43.1146 602.545 42.1845 606.625 44.0327C607.879 46.8022 607.42 46.1093 606.674 49.7751C596.559 50.1874 570.137 47.4015 566.014 56.3105C566.209 57.717 566.291 60.1939 567.969 60.5333C596.841 66.3714 670.616 58.1978 696.86 63.1309C748.394 62.2912 800.998 64.111 852.529 62.2988C856.108 62.1737 858.412 60.7726 860.459 57.9433C861.399 54.5646 861.181 54.0969 859.903 50.7933C852.05 42.9058 836.561 44.1262 825.347 43.801C813.292 14.8518 781.107 7.52009 755.823 24.5526C747.232 20.1928 743.32 18.3294 733.749 22.042Z" fill="#FEFEFD"/>
<path d="M733.75 22.042C723.277 9.6217 713.579 1.73636 696.548 0.198231C683.78 -0.974401 671.082 3.09064 661.367 11.459C658.47 13.9837 654.617 18.1652 651.979 21.1142C638.097 17.1057 624.654 18.6536 615.395 30.8346L614.847 34.6342C603.678 34.5515 599.054 33.5911 592.002 43.4257C596.708 43.1146 602.545 42.1845 606.625 44.0327C607.879 46.8022 607.42 46.1093 606.674 49.7751L607.433 49.5565C622.181 50.4746 638.42 49.1159 654.503 49.8785C655.479 48.4796 656.536 47.1383 657.669 45.8634C666.495 35.8112 675.284 40.5398 686.098 39.0387C700.729 37.0078 712.777 32.253 727.199 39.0506C732.589 41.5917 736.784 41.1392 742.852 40.7715C747.018 33.1505 749.639 30.7432 755.823 24.5526C747.233 20.1928 743.32 18.3294 733.75 22.042Z" fill="#C4ECF7"/>
<path d="M614.847 34.6342C603.677 34.5516 599.053 33.5911 592.002 43.4257C596.707 43.1146 602.545 42.1846 606.625 44.0327C607.879 46.8022 607.42 46.1093 606.674 49.7751L607.433 49.5565C614.23 47.9672 628.598 50.9956 632.873 44.9138C630.717 40.2668 619.962 35.053 614.847 34.6342Z" fill="#94E3E9"/>
<path d="M591.086 24.9672C559.375 -0.724121 529.947 0.328801 503.69 32.9069C489.365 31.5439 478.369 27.295 468.177 39.835L464.468 41.6929C462.695 46.3345 456.06 49.8219 451.546 61.8235L468.862 61.8866C483.579 61.9627 498.937 61.9812 513.643 62.2042C528.566 62.4316 523.247 56.0506 530.238 50.0678C540.989 40.8673 577.683 43.4127 592.001 43.4258C599.053 33.5911 603.677 34.5516 614.846 34.6343L615.395 30.8347C606.051 23.5933 602.959 23.5378 591.086 24.9672Z" fill="#FEFEFD"/>
<path d="M468.863 61.8865C472.92 36.3932 496.349 45.5175 502.31 35.226C494.587 30.7552 476.477 38.7188 468.178 39.8349L464.469 41.6929C462.696 46.3344 456.061 49.8219 451.547 61.8234L468.863 61.8865Z" fill="#AAE6F3"/>
<path d="M464.469 41.6929C451.547 33.9141 441.562 33.2963 426.693 36.4367C414.979 38.9082 402.242 47.9727 404.548 61.3785C417.513 62.586 438.092 61.9278 451.547 61.8234C456.061 49.8219 462.696 46.3345 464.469 41.6929Z" fill="#FEFEFD"/>
<path d="M400.599 94.544C381.379 85.461 384.784 90.6389 365.858 89.0725C338.97 86.8316 315.498 79.7501 293.113 101.234C284.422 101.658 276.96 101.876 268.563 104.682C267.421 107.369 258.926 111.535 255.555 113.526C251.759 115.255 251.226 115.266 247.049 115.147C243.72 119.498 243.927 121.119 243.546 126.568L244.743 128.211C247.462 125.872 277.145 126.634 283.204 126.536C311.658 126.307 340.123 126.329 368.577 126.601C378.834 126.721 395.03 126.47 404.83 127.178C403.851 132.453 403.307 131.279 405.026 135.771C412.694 143.56 457.833 140.024 470.766 140.22C512.599 140.938 554.446 141.232 596.287 141.09C614.001 141.123 632.068 141.319 649.787 140.786C656.805 140.579 661.46 140.416 664.599 133.606C664.301 122.837 652.743 124.295 644.916 124.349C638.818 124.393 632.998 124.273 626.905 124.034C618.763 106.858 615.137 111.535 598.881 106.89C595.767 106.042 592.782 102.18 590.105 101.027C561.184 88.5938 539.54 93.4889 516.928 113.374C511.141 112.09 508.716 111.59 503.31 109.262C493.118 106.118 475.726 106.02 466.241 111.405C456.876 86.4182 421.928 83.9599 400.599 94.544Z" fill="#FEFEFD"/>
<path d="M400.6 94.544C381.38 85.461 384.785 90.6389 365.859 89.0725C338.971 86.8316 315.498 79.7501 293.114 101.234C284.423 101.658 276.961 101.876 268.564 104.682C267.422 107.369 258.927 111.535 255.556 113.526C251.759 115.255 251.226 115.266 247.05 115.147C243.721 119.498 243.928 121.119 243.547 126.568L244.744 128.211C247.463 125.872 277.146 126.634 283.205 126.536C284.401 120.248 284.445 119.9 288.175 114.896C308.581 111.949 358.963 113.058 380.869 113.406C387.199 102.485 389.984 101.114 400.6 94.544Z" fill="#AAE6F3"/>
<path d="M255.555 113.526C251.759 115.255 251.226 115.266 247.049 115.147C243.721 119.498 243.927 121.119 243.547 126.569L244.743 128.211C247.462 125.872 277.146 126.634 283.204 126.536C284.4 120.248 284.444 119.9 288.175 114.896C277.439 113.493 266.638 115.212 255.555 113.526Z" fill="#DEF2F6"/>
<path d="M439.952 127.536C427.433 126.057 417.383 125.111 404.831 127.178C403.852 132.453 403.308 131.279 405.026 135.771C412.694 143.56 457.834 140.024 470.767 140.22C468.863 138.404 466.361 136.467 464.295 134.77C458.454 134.836 429.347 136.272 426.345 132.258C429.739 128.885 435.079 128.494 439.952 127.536Z" fill="#DEF2F6"/>
<path d="M503.311 109.262C493.119 106.118 475.727 106.02 466.242 111.405C471.615 115.582 496.708 112.492 503.311 109.262Z" fill="#C4ECF7"/>
<path d="M238.565 111.97C233.725 113.265 231.114 110.698 225.991 109.838C206.206 106.542 187.726 105.106 170.301 115.712C156.629 115.669 123.498 112.928 114.557 121.478C113.502 124.828 113.339 123.621 114.557 126.362C117.352 130.212 118.918 132.714 123.954 133.454C136.398 135.292 236.629 135.88 243.188 130.419C243.829 129.886 244.34 128.907 244.743 128.211L243.546 126.568C243.927 121.119 243.72 119.498 247.049 115.147L239.99 114.951C238.924 114.407 239.174 113.809 238.565 111.97Z" fill="#AAE6F3"/>
<path d="M231.354 125.481C204.161 126.721 175.729 125.535 148.395 125.948C138.258 126.101 124.553 125.502 114.557 126.362C117.352 130.213 118.919 132.714 123.955 133.454C136.398 135.292 236.629 135.88 243.188 130.419C243.83 129.886 244.341 128.907 244.743 128.211L243.547 126.568L231.354 125.481Z" fill="#FEFEFD"/>
<path d="M247.049 115.147L239.99 114.951C238.467 119.226 234.714 122.174 231.353 125.481L243.546 126.568C243.927 121.119 243.72 119.498 247.049 115.147Z" fill="#AAE6F3"/>
<path d="M678.876 96.8937C670.764 96.3606 636.929 102.115 630.061 105.465C633.057 108.413 653.246 108.13 658.269 108.261C666.414 108.402 701.819 108.696 707.377 106.303C704.137 101.821 690.989 102.311 686.106 99.5696C683.764 98.2642 681.446 97.666 678.876 96.8937Z" fill="#FEFEFD"/>
<path d="M627.849 75.039C620.831 74.6561 586.382 72.9047 582.35 75.5513C577.727 76.2137 574.133 76.2562 570.35 78.8582L570.752 80.1417C576.708 81.9148 652.942 82.5783 660.758 80.653C661.664 78.9669 661.93 78.9234 661.797 77.0622C654.087 76.7718 632.877 77.7943 627.987 76.54L627.849 75.039Z" fill="#FEFEFD"/>
<path d="M268.563 104.682C260.373 102.213 243.547 101.81 238.152 109.599L238.565 111.97C239.174 113.809 238.924 114.407 239.99 114.951L247.049 115.147C251.226 115.266 251.759 115.255 255.555 113.526C258.927 111.535 267.421 107.369 268.563 104.682Z" fill="#FEFEFD"/>
<path d="M653.586 74.8878C645.007 74.6561 636.424 74.7062 627.849 75.0391L627.987 76.5401C632.877 77.7944 654.087 76.7719 661.797 77.0623L653.586 74.8878Z" fill="#FEFEFD" fill-opacity="0.733333"/>
</svg>
