<svg width="150" height="253" viewBox="0 0 150 253" fill="none" xmlns="http://www.w3.org/2000/svg">
<path d="M67.8274 106.255C70.2891 104.791 70.7851 104.38 73.6021 104.109L75.4968 105.184C75.8064 106.692 75.942 107.459 76.0993 109.031L75.9673 109.591C76.6547 137.93 78.9308 166.19 79.608 194.077C79.7966 199.031 80.5572 223.664 81.6543 227.145C81.7079 232.774 81.3751 239.087 81.6274 244.518C81.5238 247.343 81.655 249.551 80.6384 252.179C76.8179 248.084 75.2031 246.603 70.7488 243.215L70.7162 242.828C66.4417 240.862 61.2906 239.729 60.3843 235.073L55.4616 235.006C54.2507 234.868 54.6176 234.888 53.4697 234.254L53.6829 232.683C55.8401 230.232 56.199 230.039 59.2161 228.769C59.8383 228.996 60.3088 228.929 61.0209 228.954C62.5581 224.232 63.1367 200.718 63.405 194.594L66.3199 127.248C66.399 123 66.2771 109.4 67.8274 106.255Z" fill="#77BFC5"/>
<path d="M67.8268 106.255C70.2885 104.791 70.7845 104.38 73.6015 104.109L75.4962 105.184C75.8058 106.692 75.9414 107.459 76.0987 109.031L75.9668 109.591C76.6541 137.93 78.9302 166.19 79.6075 194.077C78.3016 192.752 78.356 192.602 76.4743 192.278C74.236 193.765 74.4274 194.677 74.0663 197.29C73.7291 193.706 74.3338 193.067 72.3333 191.027C71.9562 190.578 71.5792 190.13 71.2021 189.681C71.0492 170.791 72.5943 142.018 71.7206 124.257C69.4663 124.385 68.2437 125.639 66.3193 127.248C66.3984 123 66.2766 109.4 67.8268 106.255Z" fill="#BFDAD1"/>
<path d="M67.8268 106.255C70.2885 104.791 70.7845 104.38 73.6015 104.109L75.4962 105.184C75.8058 106.692 75.9414 107.459 76.0987 109.031L75.9668 109.591C70.6409 111.495 71.8076 119.162 71.7206 124.257C69.4663 124.385 68.2437 125.639 66.3193 127.248C66.3984 123 66.2766 109.4 67.8268 106.255Z" fill="#42B3EB"/>
<path d="M74.0665 197.29C74.4276 194.677 74.2362 193.765 76.4746 192.278C78.3562 192.602 78.3018 192.752 79.6077 194.077C79.7962 199.031 80.5569 223.664 81.6539 227.145C81.7076 232.774 81.3748 239.087 81.6271 244.518C81.5234 247.343 81.6547 249.551 80.6381 252.179C76.8175 248.084 75.2027 246.603 70.7485 243.215L70.7158 242.828C70.8471 233.018 71.1074 222.61 70.8144 212.844C70.5759 204.901 72.939 206.281 73.5814 201.063L71.3053 199.383L74.0665 197.29Z" fill="#BFDAD1"/>
<path d="M73.5814 201.063C74.0288 203.306 75.0077 208.05 74.6509 210.064C73.6133 215.922 70.6129 220.848 72.1261 227.041C75.1505 228.196 74.9649 227.613 76.7341 229.778C78.0901 234.727 74.9663 242.208 81.6271 244.518C81.5234 247.343 81.6547 249.551 80.6381 252.179C76.8175 248.084 75.2027 246.603 70.7485 243.215L70.7158 242.828C70.8471 233.018 71.1074 222.61 70.8144 212.844C70.5759 204.901 72.939 206.281 73.5814 201.063Z" fill="#ABDFF2"/>
<path d="M72.3333 191.027C74.3338 193.067 73.7291 193.706 74.0662 197.29L71.3051 199.383C69.2596 196.256 69.6526 193.447 72.3333 191.027Z" fill="#82C2C6"/>
<path d="M63.0146 63.3979L66.9519 27.1771C67.4233 22.7439 68.6276 1.44923 71.7231 0C73.3915 2.17022 73.2458 4.77275 73.5003 7.63133C73.7874 9.9118 74.5517 14.7586 74.2906 16.7707C76.8278 31.0621 78.9247 48.1541 79.9587 62.7407C80.3148 67.7652 73.4387 74.9866 75.6067 80.344C78.8921 82.5766 81.5039 83.9091 83.2391 87.4589C81.9752 87.8368 78.2961 89.1598 77.3295 88.9386C77.0968 87.4952 75.9265 86.3869 74.4734 86.2331C73.0283 85.4751 71.8652 85.486 70.1873 85.2277C69.8422 82.5918 69.716 81.976 70.1358 79.372C68.9278 75.3297 64.9521 67.4953 63.0146 63.3979Z" fill="#77BFC5"/>
<path d="M74.2908 16.7706C76.8279 31.0621 78.9249 48.154 79.9589 62.7407C80.3149 67.7651 73.4388 74.9866 75.6069 80.344C78.8923 82.5766 81.5041 83.9091 83.2393 87.4589C81.9754 87.8368 78.2963 89.1598 77.3297 88.9386C77.097 87.4951 75.9267 86.3868 74.4736 86.2331C73.0284 85.4751 71.8654 85.4859 70.1875 85.2277C71.9082 79.6099 71.6573 75.8142 71.7109 70.0463C74.4873 55.7128 69.6371 31.6481 74.2908 16.7706Z" fill="#BFDAD1"/>
<path d="M71.7105 70.0463C71.1956 53.1451 72.0418 35.9277 71.5234 18.9873C71.4154 15.4411 71.2899 10.4834 73.5 7.63135C73.7871 9.91182 74.5514 14.7586 74.2904 16.7707C69.6367 31.6482 74.4869 55.7129 71.7105 70.0463Z" fill="#82C2C6"/>
<path d="M59.2071 95.3515C63.2024 94.2787 61.7457 94.1285 65.1152 95.305L66.1173 96.4446C65.5177 98.8404 65.6569 98.1186 63.3917 100.069L60.6725 101.295C56.4228 105.867 55.6056 109.081 52.3607 113.503L23.4366 126.095C20.1164 127.57 10.6546 132.052 7.70851 132.944C5.56657 133.847 2.42109 135.585 0.370515 135.08L0 133.945C1.68875 129.683 36.6653 103.192 42.6916 99.1327C45.1671 97.4651 51.9525 98.8309 58.3479 95.7693L59.2071 95.3515Z" fill="#82C2C6"/>
<path d="M7.70898 132.944C7.93594 131.93 8.07878 130.24 9.00256 129.725C17.8183 124.81 53.7694 101.223 60.673 101.295C56.4232 105.867 55.606 109.081 52.3612 113.503L23.4371 126.095C20.1169 127.57 10.6551 132.052 7.70898 132.944Z" fill="#BFDAD1"/>
<path d="M83.8101 94.502C89.703 96.5286 94.7663 96.2609 100.996 96.641C106.465 100.263 133.175 119.708 137.763 124.018C142.443 126.85 145.618 129.553 149.532 133.304C141.815 131.972 101.787 116.108 92.7027 112.155C90.3331 108.233 88.4515 103.569 85.0094 101.092L86.3124 98.4544L84.111 97.9111C83.557 96.3523 83.6934 96.1253 83.8101 94.502Z" fill="#82C2C6"/>
<path d="M83.8101 94.502C89.703 96.5286 94.7663 96.2609 100.996 96.641C106.465 100.263 133.175 119.708 137.763 124.018L136.755 124.452C134.59 124.506 92.599 101.38 86.3124 98.4544L84.111 97.9111C83.557 96.3523 83.6934 96.1253 83.8101 94.502Z" fill="#BFDAD1"/>
<path d="M70.1356 79.3721C69.7157 81.976 69.8419 82.5919 70.187 85.2278C71.8649 85.486 73.028 85.4751 74.4731 86.2331C75.9262 86.3869 77.0965 87.4952 77.3292 88.9386C78.2958 89.1599 81.9749 87.8369 83.2388 87.4589C83.4222 89.5987 83.7543 92.4181 83.8102 94.502C83.6934 96.1253 83.5571 96.3524 84.1111 97.9111L86.3125 98.4544L85.0095 101.092C81.4217 99.5141 82.4615 99.4017 78.8889 99.797C77.0668 101.224 76.7223 102.214 76.4454 104.627C76.2924 106.092 76.1771 107.56 76.0988 109.031C75.9414 107.459 75.8058 106.692 75.4962 105.184L73.6015 104.109C70.7845 104.38 70.2886 104.791 67.8268 106.255C66.8741 102.447 66.6486 102.489 63.3914 100.069C65.6566 98.1185 65.5174 98.8403 66.1171 96.4445L65.115 95.3049C61.7454 94.1284 63.2022 94.2786 59.2069 95.3514L59.1445 89.2839C62.4749 80.809 64.7807 83.751 70.1356 79.3721Z" fill="#49A6B3"/>
<path d="M70.1356 79.3721C69.7157 81.976 69.8419 82.5919 70.187 85.2278C71.8649 85.486 73.028 85.4751 74.4731 86.2331C73.1578 86.0939 71.8903 86.7677 71.2711 87.9362C69.6991 89.632 69.4656 89.7597 67.1989 90.2203C63.2935 89.2389 63.034 88.642 59.1445 89.2839C62.4749 80.809 64.7807 83.751 70.1356 79.3721Z" fill="#82C2C6"/>
<path d="M83.2387 87.459C83.4222 89.5987 83.7543 92.4181 83.8101 94.502C83.6934 96.1253 83.5571 96.3524 84.111 97.9111C83.8493 97.3983 77.3423 93.393 75.792 92.2375C76.9318 91.5571 77.5409 90.2494 77.3292 88.9387C78.2958 89.1599 81.9749 87.8369 83.2387 87.459Z" fill="#77BFC5"/>
<path d="M74.4738 86.2331C75.9269 86.3868 77.0972 87.4951 77.33 88.9386C77.5417 90.2493 76.9326 91.557 75.7928 92.2374C74.5449 92.9823 72.9533 92.8046 71.9004 91.8029C70.8476 90.8012 70.5902 89.22 71.2718 87.9361C71.891 86.7676 73.1585 86.0938 74.4738 86.2331Z" fill="#056089"/>
</svg>
