<svg width="216" height="453" viewBox="0 0 216 453" fill="none" xmlns="http://www.w3.org/2000/svg">
<path d="M56.831 0.245635C69.1887 -0.341167 77.0859 -0.18739 89.0558 4.26694C104.727 9.96523 115.898 19.9655 123.939 34.5464L126.53 40.9547C128.798 48.2648 129.123 51.7261 129.143 59.4104C128.774 64.5168 128.246 66.8995 126.685 71.834C133.844 72.262 138.845 72.2867 145.227 75.9859C150.339 79.2028 154.441 82.7642 157.276 88.2478C162.118 97.4031 163.395 106.806 158.034 116.136L158.88 116.604C163.94 116.614 168.121 116.882 172.973 118.545C179.937 122.022 183.282 124.338 187.662 131.015C190.176 135.921 190.791 138.546 190.918 144.069L190.464 151.26C194.441 151.612 195.539 151.659 199.301 152.937C203.249 155.018 205.683 156.491 208.731 159.899C213.52 166.355 215.387 170.264 215.785 178.418L215.938 184.897C215.198 189.533 214.964 191.135 213.282 195.456C211.125 199.741 210.013 201.63 207.272 205.552C200.077 212.947 194.045 217.502 183.338 218.575C180.847 218.716 179.242 218.814 176.725 218.615L175.315 219.472L175.016 222.249L174.896 222.965C173.77 230.964 171.376 234.626 165.696 240.46C162.139 243.104 160.7 244.19 156.755 246.096C149.98 248.073 147.57 248.445 140.551 247.991C139.151 247.69 137.755 247.363 136.368 247.009C127.877 244.809 124.851 240.899 120.606 233.707C117.897 233.995 115.071 234.061 112.34 234.178C107.66 238.981 103.89 244.864 98.9381 249.247L97.4945 250.335C89.2153 255.518 82.6358 258.196 73.4973 261.465L69.5939 268.47C67.2354 272.516 63.1428 280.028 60.475 283.534L58.6242 286.374C41.2965 308.89 33.587 318.343 33.909 348.392L34.085 367.036C34.5611 374.835 34.734 381.538 34.7515 389.356C35.0601 395.541 35.2787 402.036 35.7011 408.187L35.3895 416.871L36.1495 424.7C36.3686 427.566 36.5106 430.753 37.0462 433.549L37.8439 452.621C36.6662 451.948 35.1806 450.732 34.0559 449.875C34.3076 443.34 29.6466 433.013 21.7294 436.854C20.6952 437.695 20.9663 437.436 19.6191 437.882C18.0694 436.619 17.5656 433.431 16.9964 431.325C12.2238 423.988 8.75041 421.992 0 421.879V379.638V365.148V169.085V146.752V29.3493C3.93065 30.2422 5.71682 31.8952 9.50081 31.8452C12.5753 29.9927 12.3409 27.9269 14.3084 24.8855C16.1836 21.987 18.373 19.6725 20.7513 17.1962C31.654 7.0762 42.0632 2.06262 56.831 0.245635ZM0 169.085V365.148V379.638V421.879C8.75041 421.992 12.2238 423.988 16.9964 431.325C17.5656 433.431 18.0694 436.619 19.6191 437.882C20.9663 437.436 20.6952 437.695 21.7294 436.854C29.6466 433.013 34.3076 443.34 34.0559 449.875C35.1806 450.732 36.6662 451.948 37.8439 452.621L37.0462 433.549C36.5106 430.753 36.3686 427.566 36.1495 424.7L35.3895 416.871L35.7011 408.187C35.2787 402.036 35.0601 395.541 34.7515 389.356C34.734 381.538 34.5611 374.835 34.085 367.036L33.909 348.392C33.587 318.343 41.2965 308.89 58.6242 286.374L60.475 283.534C63.1428 280.028 67.2354 272.516 69.5939 268.47L73.4973 261.465C82.6358 258.196 89.2153 255.518 97.4945 250.335L98.9381 249.247C103.89 244.864 107.66 238.981 112.34 234.178C115.071 234.061 117.897 233.995 120.606 233.707C124.851 240.899 127.877 244.809 136.368 247.009C137.755 247.363 139.151 247.69 140.551 247.991C147.57 248.445 149.98 248.073 156.755 246.096C160.7 244.19 162.139 243.104 165.696 240.46C171.376 234.626 173.77 230.964 174.896 222.965L175.016 222.249L173.828 220.948C168.653 219.195 162.606 224.757 157.388 219.05C155.368 216.426 152.595 215.532 149.517 214.082C150.179 213.081 150.824 212.067 151.45 211.042C155.824 203.866 152.015 201.733 145.8 198.685L146.706 197.026L148.323 194.283C147.695 185.306 144.678 181.446 135.767 179.811C136.339 177.172 135.123 172.535 134.329 169.934L133.034 171.125C129.756 177.993 128.009 180.157 120.777 183.062L118.151 184.363C116.425 186.416 115.765 186.997 114.704 189.405C113.011 187.256 112.234 186.965 109.668 187.278L109.058 185.162L107.972 184.731C105.399 186.228 104.991 187.507 104.975 190.414L104.078 188.854C99.6835 188.622 95.3286 191.727 89.1979 191.585C87.1154 190.524 84.7777 189.622 82.6068 188.722C80.8382 190.495 81.2552 191.093 80.8013 193.96L79.7955 193.594C70.6774 196.85 68.7426 195.881 61.2723 190.652C61.2357 189.036 60.7153 189.056 59.3101 187.468C56.2753 186.147 50.2529 185.555 47.0111 185.897C45.4185 185.182 44.2137 184.751 42.5625 184.177L41.7058 183.516C36.1702 179.197 33.9562 176.715 33.0756 169.506L33.1349 167.193C30.776 168.428 26.2872 170.684 23.6666 169.884L23.0825 160.896C24.2718 159.898 25.9117 159.969 27.6781 159.709C23.4816 159.719 21.3271 160.535 18.7581 157.123C16.9709 154.348 9.85995 152.19 6.67169 151.172C2.29872 149.777 3.15696 149.922 0 146.752V169.085Z" fill="#579B56"/>
<path d="M0 146.752C3.15696 149.921 2.29872 149.777 6.67169 151.172C9.85995 152.19 16.9709 154.348 18.7581 157.123C21.3271 160.535 23.4816 159.719 27.6781 159.709C25.9117 159.969 24.2718 159.898 23.0825 160.896L23.6666 169.884C26.2872 170.684 30.776 168.428 33.1349 167.193L33.0756 169.506C33.9562 176.715 36.1702 179.197 41.7058 183.516L42.5625 184.177C44.2137 184.751 45.4185 185.182 47.0111 185.897C50.2529 185.555 56.2753 186.147 59.3101 187.468C60.7153 189.056 61.2357 189.036 61.2723 190.652C68.7426 195.881 70.6774 196.85 79.7955 193.594L80.8013 193.96C81.2552 191.093 80.8382 190.495 82.6068 188.721C84.7777 189.622 87.1154 190.524 89.1979 191.585C95.3286 191.727 99.6835 188.622 104.078 188.854L104.975 190.414C104.991 187.507 105.399 186.228 107.972 184.731L109.058 185.162L109.668 187.278C112.234 186.965 113.011 187.256 114.704 189.405C115.765 186.997 116.425 186.416 118.151 184.363L120.777 183.062C128.009 180.157 129.756 177.993 133.034 171.125L134.329 169.934C135.123 172.535 136.339 177.172 135.767 179.811C144.678 181.446 147.695 185.306 148.323 194.283L146.706 197.026L145.8 198.685C152.015 201.733 155.824 203.866 151.45 211.042C150.824 212.067 150.179 213.081 149.517 214.082C152.595 215.532 155.368 216.426 157.388 219.05C162.606 224.756 168.653 219.195 173.828 220.948L175.016 222.249L174.896 222.965C173.77 230.964 171.376 234.626 165.696 240.46C162.139 243.104 160.7 244.19 156.755 246.096C149.98 248.073 147.57 248.445 140.551 247.991C139.151 247.69 137.755 247.363 136.368 247.009C127.877 244.809 124.851 240.899 120.606 233.707C117.897 233.995 115.071 234.061 112.34 234.178C107.66 238.98 103.89 244.864 98.9381 249.247L97.4945 250.335C89.2153 255.518 82.6358 258.196 73.4973 261.465L69.5939 268.47C67.2354 272.516 63.1428 280.028 60.475 283.534L58.6242 286.374C41.2965 308.89 33.587 318.343 33.909 348.392L34.085 367.036C34.5611 374.835 34.734 381.538 34.7515 389.356C35.0601 395.541 35.2787 402.036 35.7011 408.187L35.3895 416.871L36.1495 424.7C36.3686 427.566 36.5106 430.753 37.0462 433.549L37.8439 452.621C36.6662 451.948 35.1806 450.732 34.0559 449.875C34.3076 443.34 29.6466 433.013 21.7294 436.854C20.6952 437.695 20.9663 437.436 19.6191 437.882C18.0694 436.619 17.5656 433.431 16.9964 431.325C12.2238 423.988 8.75041 421.992 0 421.879V379.638V365.148V169.085V146.752ZM30.4326 282.063L30.8082 285.796C31.208 286.147 31.4272 286.033 32.161 286.128C53.1571 271.104 59.2561 260.929 70.1246 238.702L72.2714 233.716C64.764 231.221 61.1063 229.56 55.9307 223.41C49.2523 234.248 43.3769 236.692 31.0793 236.339C30.538 238.12 29.6798 240.592 29.4074 242.358L29.5098 265.875C29.701 271.268 29.7997 276.707 30.4326 282.063ZM82.7177 233.258C80.2901 235.652 78.6122 245.072 77.0525 249.187C91.4377 245.109 94.9356 243.108 105.034 231.942C99.5907 230.05 97.2037 226.077 94.3939 225.237L92.7037 227.081C89.3842 230.15 86.9994 231.599 82.7177 233.258Z" fill="#0F2469"/>
<path d="M145.799 198.685C152.014 201.733 155.824 203.866 151.45 211.042C150.824 212.067 150.179 213.081 149.517 214.082C152.595 215.532 155.368 216.426 157.387 219.05C162.606 224.756 168.652 219.195 173.828 220.948L175.016 222.249L174.896 222.965C173.77 230.964 171.376 234.626 165.695 240.46C162.139 243.104 160.7 244.19 156.755 246.096C149.98 248.073 147.57 248.445 140.551 247.991C139.15 247.69 137.755 247.363 136.367 247.009C127.877 244.809 124.851 240.899 120.606 233.707C117.897 233.995 115.071 234.061 112.34 234.178C116.938 228.31 116.469 224.926 122.355 218.384C127.609 216.785 139.099 208.396 140.683 202.844L143.429 201.116L145.799 198.685Z" fill="#034467"/>
<path d="M157.388 219.05C162.606 224.757 168.653 219.195 173.829 220.949L175.016 222.249L174.897 222.965C173.771 230.964 171.376 234.626 165.696 240.46C162.139 243.104 160.701 244.19 156.756 246.096C149.98 248.073 147.571 248.445 140.552 247.991C142.779 244.35 143.225 243.874 146.554 241.093L147.2 238.822C146.16 234.814 143.558 230.804 141.46 227.167C150.388 226.463 151.559 225.554 157.388 219.05Z" fill="#036473"/>
<path d="M165.696 240.46C160.001 231.403 163.328 222.263 174.897 222.965C173.771 230.964 171.376 234.626 165.696 240.46Z" fill="#088173"/>
<path d="M146.554 241.093C152.154 238.353 153.817 241.306 156.756 246.096C149.98 248.073 147.571 248.445 140.552 247.991C142.779 244.35 143.225 243.874 146.554 241.093Z" fill="#057174"/>
<path d="M134.329 169.934C135.124 172.535 136.339 177.172 135.767 179.811L134.094 180.435L129.596 182.392L127.107 184.845C125.268 187.791 124.669 189.912 124.872 193.437L123.013 195.425C117.539 200.605 116.197 214.313 112.784 218.674C110.024 224.059 108.476 226.839 105.034 231.943C99.5911 230.05 97.2041 226.077 94.3943 225.237L92.7041 227.081C89.3846 230.15 86.9998 231.599 82.7181 233.258C80.2904 235.652 78.6126 245.072 77.0529 249.188L75.6542 250.168L74.6028 249.358C74.4295 244.339 79.1716 236.67 79.5168 232.788C80.5732 220.92 80.4753 220.636 87.6705 211.211C86.7249 208.538 84.984 208.856 84.8897 208.254C84.1472 203.527 89.1954 195.784 86.7467 191.563C84.8143 191.042 84.3923 190.77 82.4665 191.391C79.7452 199.835 79.429 232.905 70.125 238.702L72.2717 233.716C72.7639 230.685 76.3292 221.774 77.3973 217.548C79.5175 209.157 79.9395 202.516 80.8016 193.96C81.2555 191.093 80.8386 190.495 82.6071 188.722C84.7781 189.622 87.1158 190.524 89.1983 191.585C95.329 191.727 99.6839 188.622 104.078 188.854L104.976 190.414C104.992 187.507 105.4 186.228 107.972 184.731L109.058 185.162L109.668 187.278C112.235 186.965 113.011 187.256 114.704 189.405C115.765 186.997 116.425 186.416 118.151 184.363L120.777 183.062C128.009 180.157 129.757 177.993 133.034 171.125L134.329 169.934Z" fill="#081C57"/>
<path d="M134.329 169.934C135.124 172.535 136.339 177.172 135.767 179.811L134.094 180.435L129.596 182.392L127.107 184.845C125.268 187.791 124.669 189.912 124.872 193.437L123.013 195.425C117.54 200.605 116.197 214.313 112.784 218.674C106.027 213.66 106.307 212.242 101.369 205.85C105.948 200.347 119.895 191.947 120.777 183.062C128.009 180.157 129.757 177.993 133.034 171.125L134.329 169.934Z" fill="#034467"/>
<path d="M101.368 205.85C106.306 212.242 106.026 213.659 112.784 218.674C110.023 224.059 108.476 226.839 105.034 231.942C99.5904 230.05 97.2034 226.077 94.3937 225.237L92.7035 227.081C91.8022 225.047 87.7242 222.99 85.2197 221.071L87.2181 215.45C92.6549 212.377 96.5914 209.828 101.368 205.85Z" fill="#036473"/>
<path d="M89.1977 191.585C95.3284 191.727 99.6834 188.622 104.077 188.854L104.975 190.414C102.935 198.351 100.287 202.752 92.9538 207.053C90.7205 208.374 88.3806 209.506 85.958 210.438C86.5163 204.335 87.5525 197.497 89.1977 191.585Z" fill="#085A78"/>
<path d="M85.2201 221.071C87.7246 222.99 91.8025 225.047 92.7038 227.081C89.3843 230.15 86.9995 231.599 82.7178 233.258C82.9012 229.193 83.912 224.913 85.2201 221.071Z" fill="#057174"/>
<path d="M109.669 187.278C112.235 186.965 113.011 187.256 114.704 189.405C112.275 193.071 108.706 196.248 105.472 199.169C106.84 194.712 107.908 191.584 109.669 187.278Z" fill="#034F71"/>
<path d="M61.2722 190.652C68.7424 195.881 70.6772 196.85 79.7954 193.594L80.8011 193.96C79.9389 202.516 79.5169 209.157 77.3967 217.548C76.3287 221.774 72.7634 230.685 72.2712 233.716C64.7638 231.221 61.1061 229.56 55.9305 223.41C49.2521 234.248 43.3768 236.692 31.0791 236.339C36.9083 225.099 40.8557 217.697 45.2263 205.573C52.7853 201.233 56.0435 197.505 61.2722 190.652Z" fill="#046171"/>
<path d="M23.6229 387.449C26.8923 387.018 29.5487 385.276 31.9893 387.888C33.2203 388.957 33.1864 389.168 34.7516 389.356C35.0601 395.541 35.2787 402.036 35.7011 408.187L35.3895 416.871L36.1496 424.7C36.3686 427.566 36.5107 430.753 37.0462 433.549L37.8439 452.621C36.6662 451.948 35.1806 450.732 34.0559 449.875C34.3077 443.34 29.6466 433.013 21.7295 436.854C23.5453 425.928 20.697 391.778 23.6229 387.449Z" fill="#113580"/>
<path d="M31.9892 387.888C33.2202 388.957 33.1862 389.168 34.7514 389.356C35.06 395.541 35.2786 402.036 35.7009 408.187L35.3894 416.871C33.6307 416.354 33.1938 414.299 32.5213 412.765C31.9727 409.03 31.6323 399.974 31.6464 396.156C32.4416 393.249 32.1471 390.869 31.9892 387.888Z" fill="#431E5E"/>
<path d="M32.5217 412.765C22.9548 408.976 22.6637 399.277 31.6467 396.156C31.6326 399.974 31.973 409.03 32.5217 412.765Z" fill="#062962"/>
<path d="M0 379.638C6.21441 382.825 9.13703 385.162 11.6815 392.06C13.5084 397.012 13.5817 408.102 15.1585 411.546C17.3761 414.804 15.8763 427.068 16.9964 431.325C12.2238 423.988 8.75041 421.992 0 421.879V379.638Z" fill="#062962"/>
<path d="M25.9562 211.667C26.4542 203.35 24.6872 176.814 27.412 170.84C29.2888 169.307 30.8345 168.266 33.0756 169.506C33.9562 176.715 36.1702 179.197 41.7058 183.516L42.5625 184.177C40.5289 194.758 39.6455 200.555 35.0191 210.411C32.4622 213.548 29.3632 220.605 25.8625 221.57C26.0627 218.712 25.952 214.63 25.9562 211.667Z" fill="#085A78"/>
<path d="M23.623 387.449C24.5327 375.805 21.8804 348.924 25.4984 341.45L26.5588 342.232C27.6372 342.433 29.8111 342.9 30.8057 342.99L32.8418 344.123C33.2124 345.542 33.5682 346.965 33.9092 348.392L34.0852 367.036C34.5613 374.835 34.7342 381.538 34.7517 389.356C33.1865 389.168 33.2205 388.957 31.9895 387.888C29.5488 385.276 26.8924 387.018 23.623 387.449Z" fill="#1D2875"/>
<path d="M26.5584 342.232C27.6369 342.433 29.8108 342.9 30.8053 342.989L32.8414 344.122C33.2121 345.542 33.5679 346.965 33.9088 348.392L34.0849 367.036L30.834 368.218L27.9493 368.224C25.2237 361.816 25.5442 349.29 26.5584 342.232Z" fill="#0F2469"/>
<path d="M30.8053 342.99L32.8413 344.122C33.212 345.542 33.5678 346.965 33.9087 348.392L34.0848 367.036L30.8339 368.218C30.5977 361.198 30.0562 349.622 30.8053 342.99Z" fill="#431E5E"/>
<path d="M34.0853 367.036C34.5613 374.835 34.7342 381.538 34.7518 389.356C33.1866 389.168 33.2205 388.957 31.9895 387.888C31.5503 383.105 31.1712 375.336 29.0876 371.182C28.2661 369.544 28.3643 370.435 27.9497 368.224L30.8344 368.218L34.0853 367.036Z" fill="#6A2360"/>
<path d="M0 146.752C3.15696 149.921 2.29872 149.777 6.67169 151.172C9.85995 152.19 16.9709 154.348 18.7581 157.123C21.3271 160.535 23.4816 159.719 27.6781 159.709C25.9117 159.969 24.2718 159.898 23.0825 160.896L23.6666 169.884C26.2872 170.684 30.776 168.428 33.1349 167.193L33.0756 169.506C30.8345 168.266 29.2889 169.307 27.412 170.84C24.6872 176.814 26.4542 203.35 25.9562 211.667L25.3038 202.583C25.6297 201.066 25.3724 186.429 25.3504 183.898C25.6748 181.361 25.3487 174.748 25.2763 171.879C16.375 171.493 17.4677 166.38 10.3052 172.822C6.2739 172.411 3.63874 170.844 0 169.085V146.752Z" fill="#034467"/>
<path d="M135.767 179.811C144.678 181.446 147.696 185.306 148.323 194.283L146.707 197.026L145.8 198.685L143.43 201.116L140.684 202.844C137.993 203.322 136.511 203.645 133.737 203.684C129.448 201.69 128.079 200.157 125.454 196.532L124.872 193.437C124.669 189.912 125.268 187.791 127.107 184.845L129.596 182.392L134.094 180.434L135.767 179.811Z" fill="#D46F02"/>
<path d="M135.767 179.811C144.678 181.446 147.695 185.306 148.323 194.283L146.706 197.026C142.735 194.759 140.617 193.673 137.244 190.659C134.089 187.396 134.371 184.912 134.094 180.434L135.767 179.811Z" fill="#F7C216"/>
<path d="M129.596 182.392L134.093 180.434C134.371 184.912 134.088 187.396 137.243 190.659C140.617 193.673 142.734 194.759 146.706 197.026L145.799 198.685L143.429 201.116C134.7 194.386 132.989 198.287 127.106 184.845L129.596 182.392Z" fill="#EC9505"/>
<path d="M129.596 182.392L134.093 180.434C134.371 184.912 134.088 187.396 137.243 190.659C135.043 191.895 136.14 191.747 133.921 191.505C131.702 189.632 130.934 185.552 129.596 182.392Z" fill="#F7B30C"/>
<path d="M42.5627 184.177C44.2138 184.751 45.4187 185.182 47.0112 185.897C50.253 185.555 56.2754 186.147 59.3102 187.468C60.7155 189.056 61.2359 189.036 61.2725 190.652C56.0438 197.505 52.7856 201.233 45.2267 205.573C40.856 217.698 36.9086 225.099 31.0794 236.34C30.5381 238.12 29.68 240.592 29.4075 242.358L25.3857 246.134C25.093 237.613 33.6575 227.284 36.6615 219.072C38.5443 213.925 40.7807 208.566 42.8023 203.48C42.8362 203.395 46.2941 201.572 47.3447 199.722C40.6662 197.061 48.0299 194.158 44.1895 185.791L43.4543 186.081C42.4142 193.056 39.3678 204.044 35.8812 210.098L35.0193 210.411C39.6457 200.556 40.5291 194.759 42.5627 184.177Z" fill="#431E5E"/>
<path d="M47.0112 185.897C50.253 185.555 56.2754 186.147 59.3102 187.468C55.5067 193.709 51.2062 195.956 44.9653 199.269C45.4679 194.957 46.3249 190.219 47.0112 185.897Z" fill="#085A78"/>
<path d="M25.3855 246.134L29.4072 242.358L29.5097 265.875C29.7009 271.268 29.7996 276.707 30.4324 282.063L30.808 285.796C28.6164 289.188 26.6698 292.456 23.8975 295.394C18.8097 289.947 20.1346 274.009 20.4823 266.681C20.7501 261.039 29.501 253.343 25.3855 246.134Z" fill="#1D2875"/>
<path d="M30.4323 282.063C26.5001 278.422 23.7952 268.308 28.4973 265.007L29.5096 265.875C29.7008 271.268 29.7995 276.707 30.4323 282.063Z" fill="#6A2360"/>
<path d="M10.3052 172.822C17.4676 166.38 16.375 171.493 25.2763 171.879C25.3486 174.749 25.6748 181.361 25.3504 183.898C24.4776 184.802 18.6419 193.797 16.8037 196.22L17.0524 202.486C14.3107 202.99 14.5651 203.363 12.2624 202.604C9.40548 197.225 11.5605 180.206 10.3052 172.822Z" fill="#081C57"/>
<path d="M25.498 341.45C30.9815 325.366 39.0467 297.781 53.5569 286.878C55.741 285.236 56.2639 285.833 58.6241 286.374C41.2963 308.89 33.5868 318.343 33.9088 348.392C33.5679 346.965 33.2121 345.542 32.8414 344.123L30.8053 342.99C29.8108 342.9 27.6369 342.433 26.5584 342.232L25.498 341.45Z" fill="#6A2360"/>
<path d="M124.871 193.437L125.453 196.532C128.078 200.157 129.448 201.69 133.736 203.684C136.51 203.645 137.992 203.322 140.683 202.844C139.099 208.396 127.609 216.785 122.355 218.384C116.816 220.515 115.136 222.537 112.548 228.154L112.029 227.199C112.482 221.302 125.31 201.628 123.012 195.425L124.871 193.437Z" fill="#081C57"/>
<path d="M125.454 196.532C128.079 200.157 129.448 201.69 133.737 203.684C128.288 209.429 125.207 213.151 118.062 216.899C120.326 210.039 122.791 203.247 125.454 196.532Z" fill="#034467"/>
<path d="M0 365.148C8.25248 364.864 6.7085 368.81 11.6401 369.007C10.1688 373.225 8.21623 377.288 12.2371 380.455C13.975 380.586 15.499 380.718 17.242 380.706C15.0078 386.415 15.2334 404.425 15.1585 411.546C13.5817 408.102 13.5084 397.012 11.6815 392.06C9.13703 385.162 6.21441 382.825 0 379.638V365.148Z" fill="#113580"/>
<path d="M112.548 228.154C115.136 222.537 116.817 220.515 122.355 218.384C116.469 224.926 116.938 228.31 112.34 234.178C107.66 238.98 103.89 244.864 98.9381 249.247L97.4945 250.335C89.2153 255.518 82.6358 258.196 73.4973 261.465L69.5939 268.47L66.3438 267.359C67.4924 264.375 69.4166 261.682 71.1533 258.966C89.1993 250.8 103.331 248.755 112.548 228.154Z" fill="#431E5E"/>
<path d="M11.6402 369.007C18.3134 370.635 18.4578 377.847 19.8784 383.791C16.2598 394.24 17.2954 401.083 17.3389 412.114L16.8305 412.065C16.7245 406.037 16.4874 399.309 16.6223 393.351C16.7516 387.637 18.4679 386.628 17.9376 380.266L17.242 380.706C15.4991 380.718 13.9751 380.586 12.2372 380.455C8.21632 377.288 10.1689 373.225 11.6402 369.007Z" fill="#034F71"/>
<path d="M25.8628 221.57C25.7241 222.58 25.2233 223.579 24.8288 224.556L23.9168 224.878C21.4326 221.15 22.2528 206.19 25.304 202.583L25.9565 211.667C25.9523 214.63 26.063 218.712 25.8628 221.57Z" fill="#1D2875"/>
<path d="M66.3435 267.359L69.5936 268.47C67.2352 272.516 63.1426 280.028 60.4748 283.534C59.3295 282.788 59.2666 282.555 58.4023 281.47C58.9953 277.522 63.9166 270.951 66.3435 267.359Z" fill="#6A2360"/>
<path d="M20.7513 17.1962C22.8641 19.4251 25.1275 21.7361 27.1441 24.0296C41.9129 26.9143 48.3659 32.5488 53.3895 46.6095C56.1582 46.6052 58.8827 46.4362 61.6463 46.294C74.1652 54.6775 63.8429 60.4447 74.585 60.9735C75.59 67.1984 83.0723 71.5773 86.0256 84.1794C88.7498 85.4429 90.5857 85.9731 92.4296 88.3131L92.7277 90.7002L93.4375 90.6139L97.5677 89.1922C99.2666 90.1526 101.556 91.3472 103.103 92.4367C102.06 96.2541 99.8931 103 95.7651 104.334L95.5294 109.864L95.3279 111.327C93.4593 114.078 92.9408 115.095 90.1028 117.019L89.6503 117.647C91.9431 121.999 94.4606 126.427 95.6926 131.171C96.1465 132.918 94.1198 138.144 95.5128 137.998C107.517 136.743 117.517 139.294 114.319 155.259L114.771 157.489C118.684 159.647 120.114 158.9 121.795 163.012C122.454 167.798 128.829 169.419 133.034 171.125C129.756 177.993 128.009 180.157 120.777 183.062L118.151 184.363C116.425 186.416 115.765 186.997 114.704 189.405C113.011 187.256 112.234 186.965 109.668 187.278L109.058 185.162L107.972 184.731C105.399 186.228 104.991 187.507 104.975 190.414L104.078 188.854C99.6835 188.622 95.3286 191.727 89.1979 191.585C87.1154 190.524 84.7777 189.622 82.6067 188.722C80.8382 190.495 81.2552 191.093 80.8012 193.96L79.7955 193.594C70.6774 196.85 68.7426 195.881 61.2723 190.652C61.2357 189.036 60.7153 189.056 59.3101 187.468C56.2753 186.147 50.2529 185.555 47.011 185.897C45.4185 185.182 44.2137 184.751 42.5625 184.177L41.7058 183.516C36.1702 179.197 33.9562 176.715 33.0756 169.506L33.1349 167.193C30.776 168.428 26.2872 170.684 23.6666 169.884L23.0825 160.896C24.2718 159.898 25.9117 159.969 27.6781 159.709C23.4816 159.719 21.3271 160.535 18.7581 157.123C16.9709 154.348 9.85995 152.19 6.67169 151.172C2.29872 149.777 3.15696 149.921 0 146.752V29.3493C3.93065 30.2422 5.71682 31.8952 9.50081 31.8452C12.5753 29.9926 12.3409 27.9269 14.3084 24.8855C16.1836 21.987 18.373 19.6725 20.7513 17.1962Z" fill="#076A73"/>
<path d="M57.6381 153.95C52.6329 149.262 50.4444 147.192 53.0267 139.68C53.8807 137.196 49.0638 137.467 48.1133 134.472L50.1265 134.369C52.9657 128.676 56.7961 121.312 64.0105 121.188C66.0942 122.213 65.4045 121.438 66.2347 123.509C65.6173 128.876 59.2804 132.6 55.0047 138.355C58.6579 139.571 60.6936 140.367 63.8345 142.59C67.7041 140.871 73.3321 137.654 77.1577 139.109C81.7258 144.758 78.9306 146.76 88.657 147.108C90.9027 148.775 92.0186 149.837 94.0097 151.749C98.8193 151.009 102.569 150.462 107.471 150.156C110.416 151.699 113.02 152.47 114.319 155.259L114.771 157.489C118.684 159.647 120.114 158.9 121.795 163.012C122.455 167.798 128.829 169.419 133.034 171.125C129.756 177.993 128.009 180.157 120.777 183.062L118.151 184.363C116.425 186.416 115.765 186.997 114.704 189.405C113.011 187.256 112.234 186.965 109.668 187.278L109.058 185.162L107.972 184.731C105.4 186.228 104.991 187.507 104.975 190.414L104.078 188.854C99.6836 188.622 95.3287 191.727 89.198 191.585C87.1155 190.524 84.7778 189.622 82.6068 188.721C80.8383 190.495 81.2552 191.093 80.8013 193.96L79.7956 193.594C70.6774 196.85 68.7427 195.881 61.2724 190.652C61.2358 189.036 60.7154 189.056 59.3102 187.468C56.2753 186.147 50.253 185.555 47.0111 185.897C45.4186 185.182 44.2138 184.751 42.5626 184.177L41.7059 183.516C36.1703 179.197 33.9562 176.715 33.0757 169.506L33.135 167.193C33.0283 166.155 34.1083 164.749 34.857 164.837C45.3196 166.071 44.2747 164.302 52.3958 159.423C53.2385 158.365 56.5542 155.075 57.6381 153.95Z" fill="#034F71"/>
<path d="M33.135 167.193C33.0283 166.155 34.1083 164.749 34.857 164.837C45.3196 166.071 44.2747 164.302 52.3958 159.423C62.1525 165.067 57.0418 176.337 74.4574 173.234L77.2302 172.596C77.4644 172.793 81.7352 186.622 82.6068 188.721C80.8383 190.495 81.2552 191.093 80.8013 193.96L79.7956 193.594C70.6774 196.85 68.7427 195.881 61.2724 190.652C61.2358 189.036 60.7154 189.056 59.3102 187.468C56.2753 186.147 50.253 185.555 47.0111 185.897C45.4186 185.182 44.2138 184.751 42.5626 184.177L41.7059 183.516C36.1703 179.197 33.9562 176.715 33.0757 169.506L33.135 167.193Z" fill="#07386D"/>
<path d="M74.457 173.234C77.0797 168.4 73.6457 169.194 75.3373 165.1C82.5615 160.121 88.5522 173.44 95.4856 175.623C102.083 177.7 108.8 171.701 112.879 176.33C113.121 180.436 112.364 180.926 114.289 183.736C116.029 184.173 116.281 184.255 118.151 184.363C116.424 186.416 115.764 186.997 114.704 189.405C113.01 187.256 112.234 186.966 109.668 187.278L109.057 185.162L107.972 184.731C105.399 186.228 104.991 187.507 104.975 190.415L104.077 188.854C99.6832 188.622 95.3282 191.727 89.1975 191.585C87.1151 190.524 84.7774 189.622 82.6064 188.722C81.7348 186.622 77.464 172.793 77.2298 172.596L74.457 173.234Z" fill="#034467"/>
<path d="M63.8346 142.59C58.9499 144.933 56.8545 142.318 55.0049 138.355C58.6581 139.571 60.6937 140.367 63.8346 142.59Z" fill="#085A78"/>
<path d="M80.4751 94.7454C83.5234 94.7498 87.0025 94.4067 89.4062 96.3992C93.371 98.7646 94.0816 99.9838 95.7653 104.334L95.5296 109.864L95.328 111.327C93.4595 114.078 92.941 115.095 90.103 117.019L89.6505 117.647L87.3454 119.345C77.8938 119.923 74.6918 118.561 71.0444 109.458L70.5449 106.819C71.5123 102.145 72.501 100.681 75.4111 97.213C76.8482 96.4108 78.9423 95.4838 80.4751 94.7454Z" fill="#F7B30C"/>
<path d="M80.4746 94.7454C83.5229 94.7498 87.0019 94.4067 89.4056 96.3992C93.3705 98.7646 94.0811 99.9838 95.7647 104.334L95.5291 109.864L92.7853 111.156C83.3402 110.636 80.6073 102.82 80.4746 94.7454Z" fill="#F7C216"/>
<path d="M90.3599 103.999C88.2926 102.183 87.846 102.009 86.8584 99.553C87.5973 97.1492 87.06 98.0073 89.4057 96.3992C91.0168 98.1414 91.4635 98.6629 92.6788 100.692C92.3343 102.926 92.5693 102.148 90.3599 103.999Z" fill="#F5F3F7"/>
<path d="M70.5449 106.819C76.6662 107.226 76.8866 109.034 80.5049 113.806L89.2851 116.4L90.103 117.019L89.6505 117.647L87.3454 119.345C77.8938 119.923 74.6918 118.561 71.0444 109.458L70.5449 106.819Z" fill="#D46F02"/>
<path d="M75.4111 97.213C76.3508 99.8598 79.4926 109.988 81.383 110.828C85.7205 112.754 85.9931 112.263 89.2851 116.4L80.5049 113.806C76.8866 109.034 76.6662 107.226 70.5449 106.819C71.5123 102.145 72.501 100.681 75.4111 97.213Z" fill="#E58002"/>
<path d="M87.3456 119.345C78.6227 131.666 58.56 119.445 71.0445 109.458C74.6919 118.561 77.8939 119.923 87.3456 119.345Z" fill="#034F71"/>
<path d="M18.7583 157.123C23.2738 154.661 26.7379 151.977 30.9216 156.534C30.8228 158.763 31.2117 157.759 29.378 159.497L27.6783 159.709C23.4819 159.719 21.3273 160.535 18.7583 157.123Z" fill="#085A78"/>
<path d="M112.784 118.101C111.179 115.611 107.381 110.738 107.249 108.37C110.993 105.488 118.994 106.039 122.452 109.52C125.042 116.821 116.084 119.668 130.844 119.544C134.69 119.512 137.587 125.62 138.632 128.876C139.106 131.842 138.651 137.826 139.418 139.513C142.741 141.452 142.004 140.389 142.826 143.327C142.308 146.174 141.969 145.48 143.154 147.331C145.689 148.003 147.995 147.476 150.642 147.152C157.596 150.352 157.7 151.282 161.175 158.249C165.633 158.401 172.107 158.449 176.077 160.651C175.003 163.514 175.786 162.508 172.734 164.282C179.623 165.384 182.995 169.296 186.204 174.997C201.889 170.053 193.489 178.748 204.008 180.247C211.784 181.356 208.716 179.512 215.938 184.897C215.198 189.533 214.964 191.136 213.282 195.456C211.125 199.741 210.013 201.63 207.272 205.552C200.077 212.947 194.045 217.502 183.338 218.575C180.847 218.716 179.242 218.814 176.725 218.615L175.315 219.472L175.016 222.249L173.828 220.949C168.653 219.195 162.606 224.757 157.388 219.05C155.368 216.426 152.595 215.532 149.517 214.082C150.179 213.081 150.824 212.067 151.45 211.042C155.824 203.866 152.015 201.733 145.8 198.685L146.706 197.026L148.323 194.283C147.695 185.306 144.678 181.446 135.767 179.811C136.339 177.172 135.123 172.535 134.329 169.934L133.034 171.125C128.829 169.419 122.455 167.798 121.795 163.013C120.114 158.9 118.684 159.647 114.771 157.489L114.319 155.259C117.517 139.294 107.517 136.743 95.5128 137.998C94.1199 138.144 96.1465 132.918 95.6926 131.171C94.4607 126.427 91.9431 121.999 89.6504 117.647L90.1029 117.019C92.9409 115.095 93.4593 114.078 95.3279 111.327C99.9896 114.073 102.268 116.5 105.828 120.606L112.784 118.101Z" fill="#0C7F6C"/>
<path d="M155.373 186.289C161.013 189.018 163.373 186.356 170.434 184.671C173.889 186.554 178.355 189.162 181.896 190.619L189.295 188.361C197.296 204.723 201.613 193.103 213.282 195.456C211.125 199.741 210.013 201.63 207.272 205.552C200.077 212.947 194.045 217.502 183.338 218.575C180.847 218.716 179.242 218.814 176.725 218.615L175.315 219.472L175.016 222.249L173.828 220.949C168.653 219.195 162.606 224.757 157.388 219.05C155.368 216.426 152.595 215.532 149.517 214.082C150.179 213.081 150.824 212.067 151.45 211.042C155.824 203.866 152.015 201.733 145.8 198.685L146.706 197.026L148.323 194.283C148.871 191.315 148.747 191.149 150.719 189.63C152.92 189.434 153.515 190.034 155.565 191.155L155.373 186.289Z" fill="#036473"/>
<path d="M148.323 194.283C148.871 191.315 148.747 191.149 150.719 189.63C152.92 189.434 153.515 190.034 155.565 191.155C159.933 195.422 162.202 193.579 167.269 200.384C167.298 202.371 166.908 203.141 166.285 204.994C169.544 212.223 178.159 201.143 182.726 202.398C183.902 202.721 185.064 203.77 185.977 204.526C190.001 212.857 183.02 211.74 182.549 217.239L183.338 218.575C180.847 218.716 179.242 218.814 176.725 218.615L175.315 219.472L175.016 222.249L173.828 220.949C168.653 219.195 162.606 224.757 157.388 219.05C155.368 216.426 152.595 215.532 149.517 214.082C150.179 213.081 150.824 212.067 151.45 211.042C155.824 203.866 152.015 201.733 145.8 198.685L146.706 197.026L148.323 194.283Z" fill="#034F71"/>
<path d="M185.976 204.526C192.269 205.928 194.244 204.741 199.062 200.97C201.553 202.428 204.694 204.407 207.272 205.552C200.077 212.946 194.045 217.502 183.338 218.575L182.549 217.239C183.019 211.74 190.001 212.857 185.976 204.526Z" fill="#085A78"/>
<path d="M137.22 165.001C149.288 162.503 160.253 172.2 148.284 181.747L148.402 182.401C150.562 183.59 153.333 185.009 155.373 186.289L155.565 191.155C153.515 190.034 152.92 189.434 150.719 189.63C148.748 191.149 148.871 191.315 148.323 194.283C147.696 185.306 144.678 181.446 135.767 179.811C136.339 177.172 135.124 172.535 134.329 169.934L137.22 165.001Z" fill="#036473"/>
<path d="M162.396 167.409L172.734 164.282C179.622 165.384 182.995 169.296 186.203 174.997L185.401 175.562C175.446 182.524 176.717 174.654 169.497 169.167C168.633 168.51 163.786 167.655 162.396 167.409Z" fill="#619E4A"/>
<path d="M121.795 163.012C126.19 160.212 129.546 156.46 133.926 157.21C136.348 159.285 136.92 161.858 137.22 165.001L134.329 169.934L133.034 171.125C128.829 169.419 122.455 167.798 121.795 163.012Z" fill="#057174"/>
<path d="M129.879 135.858C139.841 136.216 137.933 141.803 136.352 149.348C131.956 145.02 127.45 142.31 129.879 135.858Z" fill="#579B56"/>
<path d="M89.0553 4.26685C104.726 9.96514 115.898 19.9654 123.939 34.5463L126.529 40.9547C128.797 48.2647 129.123 51.726 129.142 59.4103C118.408 58.5174 111.591 49.2337 102.47 52.138C102.54 36.7259 88.0213 26.0772 75.2168 20.7118C79.5413 15.7309 86.165 16.6448 88.3896 10.7383C88.1859 8.16483 87.7414 6.59157 89.0553 4.26685Z" fill="#92AC2F"/>
<path d="M123.939 34.5464L126.529 40.9548C123.362 42.2031 119.358 43.1598 116.01 44.0578C118.808 39.8675 120.057 37.7408 123.939 34.5464Z" fill="#B1B62D"/>
<path d="M111.811 75.8749C117.095 72.2801 120.099 69.5644 126.686 71.834C133.845 72.262 138.845 72.2866 145.227 75.9859C150.339 79.2028 154.442 82.7642 157.276 88.2478C162.119 97.4031 163.395 106.806 158.034 116.136C154.89 117.075 151.391 118.666 148.567 117.876C147.292 115.095 147.807 114.817 148.051 111.543L146.733 105.744C145.38 105.025 144.078 104.335 142.75 103.564C138.833 95.0341 137.174 92.0812 129.382 87.6472C126.426 87.5036 122.422 87.7379 119.386 87.8322C117.307 82.1876 116.814 79.2739 111.811 75.8749Z" fill="#89AD42"/>
<path d="M145.227 75.9858C150.339 79.2027 154.442 82.7642 157.276 88.2478C153.074 92.6854 137.511 95.1182 142.686 83.5722C143.663 81.3904 144.514 78.3149 145.227 75.9858Z" fill="#B1B62D"/>
<path d="M146.733 105.744C151.135 106.061 153.917 105.44 156.034 109.6L155.417 110.618C151.909 111.217 150.331 110.347 148.051 111.543L146.733 105.744Z" fill="#619E4A"/>
<path d="M56.8311 0.245635C69.1888 -0.341167 77.0859 -0.18739 89.0558 4.26694C87.742 6.59166 88.1865 8.16493 88.3902 10.7384C86.1656 16.6449 79.5418 15.731 75.2174 20.7119C69.6241 19.09 62.3582 19.547 59.7943 16.3961C59.7609 13.3751 60.5834 13.1814 62.4498 10.2488C60.7169 6.91807 58.7035 3.51983 56.8311 0.245635Z" fill="#89AD42"/>
<path d="M152.312 135.839C166.281 136.221 168.702 140.629 175.314 151.852C175.429 154.697 175.403 157.931 176.077 160.651C172.107 158.449 165.633 158.401 161.175 158.249C157.7 151.282 157.596 150.352 150.642 147.152C147.995 147.476 145.689 148.003 143.154 147.331C141.969 145.48 142.308 146.174 142.826 143.327L143.129 144.661C145.825 141.775 148.565 139.13 151.419 136.405L152.312 135.839Z" fill="#319065"/>
<path d="M102.471 52.1381C111.591 49.2339 118.408 58.5175 129.143 59.4104C128.773 64.5168 128.246 66.8996 126.685 71.8341C120.098 69.5645 117.094 72.2802 111.81 75.875C108.821 74.3808 109.162 67.1926 104.671 66.2337C103.683 66.0226 102.55 65.3082 101.774 64.6082C101.791 60.6203 102.228 56.1826 102.471 52.1381Z" fill="#619E4A"/>
<path d="M186.587 156.566C182.823 156.479 179.637 156.909 176.923 154.507L177.641 153.302C182.245 151.094 185.478 150.924 190.464 151.26C194.442 151.612 195.54 151.659 199.302 152.937C203.25 155.018 205.683 156.491 208.731 159.899C205.979 162.541 205.561 162.888 202.081 164.519L196.479 164.523C195.216 165.107 194.283 164.981 192.892 164.988C190.698 163.446 188.342 159.057 186.587 156.566Z" fill="#749C2D"/>
<path d="M199.301 152.937C203.249 155.019 205.682 156.491 208.731 159.899C205.978 162.541 205.56 162.888 202.08 164.519L196.479 164.523C196.468 162.297 198.593 155.277 199.301 152.937Z" fill="#A1B334"/>
<path d="M74.585 60.9734C87.4598 65.707 96.1501 76.4732 93.4375 90.6138L92.7276 90.7001L92.4296 88.313C90.5857 85.9731 88.7497 85.4428 86.0256 84.1793C83.0722 71.5772 75.5899 67.1983 74.585 60.9734Z" fill="#2A8651"/>
<path d="M172.973 118.545C179.936 122.022 183.282 124.338 187.661 131.016C183.195 130.935 181.902 130.783 177.59 132.212C174.601 132.92 173.083 133.588 170.164 132.289C170.241 128.874 172.084 122.165 172.973 118.545Z" fill="#A1B334"/>
<path d="M140.347 124.795C145.146 127.931 148.387 131.523 151.418 136.405C148.564 139.13 145.825 141.775 143.128 144.661L142.826 143.327C142.004 140.389 142.741 141.452 139.418 139.513C138.651 137.826 139.106 131.842 138.632 128.876L140.347 124.795Z" fill="#619E4A"/>
<path d="M101.542 86.2495C106.474 84.5319 112.916 87.067 114.254 92.3032C115.678 97.8739 114.226 99.9353 111.722 104.578C110.288 98.8959 109.886 96.4935 106.282 91.7266L103.103 92.4367C101.555 91.3472 99.2663 90.1526 97.5674 89.1923L101.542 86.2495Z" fill="#749C2D"/>
<path d="M101.542 86.2495C103.686 87.3789 104.543 87.4616 106.962 87.7568L107.636 88.7752C107.172 89.8769 106.871 90.6734 106.282 91.7266L103.103 92.4367C101.555 91.3472 99.2663 90.1526 97.5674 89.1922L101.542 86.2495Z" fill="#619E4A"/>
<path d="M158.881 116.604C163.94 116.614 168.121 116.882 172.974 118.545C172.085 122.165 170.242 128.874 170.165 132.289C167.48 128.781 157.331 120.88 158.881 116.604Z" fill="#6A9C38"/>
<path d="M208.731 159.899C213.519 166.355 215.387 170.264 215.784 178.418L214.268 179.933C212.542 179.729 211.022 179.093 210.57 177.356C211.849 176.076 212.06 176.051 212.645 174.298C211.424 172.21 204.659 166.974 202.08 164.519C205.56 162.888 205.978 162.541 208.731 159.899Z" fill="#619E4A"/>
<path d="M187.661 131.015C190.175 135.921 190.79 138.546 190.918 144.069C180.947 139.764 184.691 139.926 178.065 132.721L177.59 132.212C181.902 130.783 183.195 130.935 187.661 131.015Z" fill="#6A9C38"/>
<path d="M140.347 124.795C151.142 117.823 153.757 125.828 152.312 135.839L151.418 136.405C148.387 131.523 145.146 127.93 140.347 124.795Z" fill="#89AD42"/>
<path d="M121.925 255.6L125.313 255.933C132.854 259.41 135.59 264.914 132.724 272.974L129.755 276.818C124.798 279.302 123.836 279.521 118.357 278.284C110.231 273.338 109.894 267.127 114.324 259.46L115.298 257.929L115.992 258.035C117.847 256.928 119.879 256.326 121.925 255.6Z" fill="#057174"/>
<path d="M121.925 255.6L125.313 255.933C132.854 259.41 135.59 264.914 132.724 272.974L129.755 276.818C123.548 270.686 114.357 263.809 121.925 255.6Z" fill="#1F8866"/>
<path d="M125.313 255.933C132.854 259.41 135.59 264.914 132.724 272.974C126.885 269.815 123.405 262.553 125.313 255.933Z" fill="#89AD42"/>
<path d="M115.298 257.929L115.992 258.035C114.543 262.78 118.101 270.873 118.357 278.284C110.231 273.339 109.894 267.127 114.324 259.46L115.298 257.929Z" fill="#034467"/>
<path d="M98.9378 249.247C105.308 251.486 109.732 254.097 115.297 257.929L114.324 259.46C108.772 256.861 105.007 253.541 97.4941 250.335L98.9378 249.247Z" fill="#081C57" fill-opacity="0.956863"/>
</svg>
