<svg width="347" height="272" viewBox="0 0 347 272" fill="none" xmlns="http://www.w3.org/2000/svg">
<path d="M151.206 118.818L151.834 118.273C154.526 120.649 156.772 121.151 159.613 122.902C161.845 123.275 164.366 123.631 166.545 124.139C167.624 131.303 167.546 136.948 166.781 144.198L160.241 145.049C160.157 146.659 159.999 151.742 159.701 153.033L154.092 227.6C153.301 238.376 153.667 250.445 151.684 260.989C151.231 263.395 150.07 265.232 148.16 266.775C140.743 272.751 64.7314 271.821 50.7806 271.729C42.7601 271.508 25.4018 268.784 19.3527 263.046C17.6338 261.454 16.4249 256.984 16.253 254.701C13.7443 221.367 9.70662 187.335 7.93265 153.989C7.41017 151.497 7.18662 147.235 6.96545 144.571C15.0332 144.951 23.1112 145.067 31.1863 144.92C30.7099 139.893 30.2298 127.984 32.586 123.502C36.5084 122.914 43.3687 122.877 47.4295 122.78C51.3084 123.643 67.9197 123.061 72.6577 122.945C84.496 123.373 97.3654 123.086 109.281 123.031L114.689 123.294L120.486 123.043L126.668 122.933C132.946 123.043 140.301 123.343 146.494 123.055L151.206 118.818Z" fill="#578039"/>
<path d="M151.206 118.818L151.834 118.273C154.527 120.649 156.772 121.151 159.613 122.902C161.845 123.275 164.366 123.631 166.545 124.139C167.624 131.303 167.546 136.948 166.781 144.198L160.241 145.049C160.157 146.659 159.999 151.742 159.701 153.033C158.618 152.476 150.963 152.911 149.184 152.966C144.29 152.556 134.714 152.807 129.47 152.795L87.0702 152.887C74.6968 152.923 46.7242 152.023 35.6299 153.236C35.5448 150.554 35.8779 147.633 36.1007 144.939L31.1864 144.92C30.71 139.893 30.23 127.984 32.5861 123.502C36.5085 122.914 43.3688 122.877 47.4296 122.78C51.3085 123.643 67.9198 123.061 72.6578 122.945C84.4961 123.373 97.3655 123.086 109.281 123.031L114.689 123.294L120.486 123.043L126.668 122.933C132.947 123.043 140.301 123.343 146.494 123.055L151.206 118.818Z" fill="#578039"/>
<path d="M36.1007 144.939L123.537 144.871C134.685 144.859 149.605 145.441 160.241 145.049C160.157 146.659 159.999 151.741 159.701 153.033C158.618 152.476 150.963 152.911 149.184 152.966C144.29 152.556 134.714 152.807 129.47 152.795L87.0701 152.886C74.6967 152.923 46.7242 152.023 35.6298 153.235C35.5447 150.553 35.8778 147.633 36.1007 144.939Z" fill="#3E6731"/>
<path d="M151.206 118.818L151.834 118.273C154.527 120.649 156.772 121.151 159.613 122.902L146.494 123.055L151.206 118.818Z" fill="#2A5027"/>
<path d="M6.96545 144.571C15.0332 144.951 23.1112 145.067 31.1863 144.92L36.1006 144.939C35.8777 147.633 35.5447 150.554 35.6298 153.235C46.7241 152.023 74.6966 152.923 87.0701 152.886L129.47 152.795C134.714 152.807 144.29 152.556 149.184 152.966C140.022 154.068 119.71 153.535 109.921 153.535L35.8257 153.633C36.2831 175.095 39.4524 200.083 40.62 221.826C41.0303 229.467 42.9909 258.16 44.3674 264.338C45.9851 266.163 49.9344 269.971 50.7806 271.729C42.7601 271.508 25.4018 268.783 19.3527 263.046C17.6338 261.454 16.4249 256.984 16.253 254.7C13.7443 221.367 9.70662 187.335 7.93265 153.989C7.41017 151.496 7.18662 147.235 6.96545 144.571Z" fill="#446D33"/>
<path d="M6.96545 144.571C15.0332 144.951 23.1112 145.067 31.1863 144.92L36.1006 144.939C35.8777 147.633 35.5447 150.554 35.6298 153.235C28.7015 154.478 11.1102 151.68 8.34393 152.831L7.93265 153.989C7.41017 151.496 7.18662 147.235 6.96545 144.571Z" fill="#2A5027"/>
<path d="M83.5145 226.608C79.0104 219.279 76.4179 212.935 78.793 204.106C84.3222 183.545 105.571 176.558 124.32 173.417C124.779 189.668 126.18 206.935 114.331 219.83C106.488 228.359 98.0133 229.743 87.1792 228.971L86.8302 229.278C85.4298 227.747 85.5774 227.698 83.6094 227.177L83.5145 226.608Z" fill="#FAF8F7"/>
<path d="M95.5114 207.351C97.4647 208.631 96.9736 207.823 97.867 209.592C93.7302 216.278 90.5622 221.746 87.1792 228.972L86.8302 229.278C85.4298 227.747 85.5774 227.698 83.6094 227.178L83.5145 226.608C86.9557 219.86 90.9693 213.413 95.5114 207.351Z" fill="#578039"/>
<path d="M108.127 193.789C105.139 199.367 101.475 204.4 97.8669 209.592C96.9735 207.823 97.4646 208.631 95.5114 207.351C99.0744 202.226 103.486 197.928 108.127 193.789Z" fill="#91B176"/>
<path d="M83.6093 227.178C85.5773 227.698 85.4297 227.747 86.8301 229.278C85.2038 232.444 81.8728 242.326 78.3601 243.196C77.6326 238.616 81.6371 231.311 83.6093 227.178Z" fill="#FAF8F7"/>
<path d="M322.084 106.743C324.707 107.956 329.951 110.307 332.622 110.784L335.38 109.254C333.334 113.662 331.483 117.501 329.891 122.087C332.95 123.643 335.985 125.247 338.995 126.9C341.321 127.133 343.821 127.084 345.626 128.425C347.319 132.521 347.268 141.975 346.366 146.267C344.46 148.019 342.473 147.792 339.748 147.89C339.678 149.617 339.526 156.45 339.142 157.699C337.7 179.809 336.034 201.908 334.144 223.987C333.201 236.264 332.454 248.669 330.908 260.86C329.56 271.496 312.485 269.377 304.228 269.641C291.999 270.063 279.768 270.363 267.534 270.547C256.777 270.712 206.075 273.915 199.71 262.538C195.356 254.762 196.006 224.183 194.04 214.46C193.112 198.907 189.986 180.342 189.953 164.845C189.291 161.777 188.729 151.062 188.466 147.474C193.416 148.435 205.618 147.749 211.459 147.939C210.947 141.736 210.029 132.227 213.964 127.28L222.969 127.127C233.781 127.586 246.093 127.237 257.067 127.237L315.31 127.212C316.155 124.457 317.092 122.069 318.121 119.387L319.127 117.967C319.13 116.828 321.603 110.833 322.084 106.743Z" fill="#0A59A3"/>
<path d="M322.084 106.743C324.707 107.956 329.951 110.307 332.622 110.784L335.381 109.254C333.334 113.662 331.483 117.501 329.891 122.087C332.95 123.643 335.986 125.247 338.995 126.9C341.321 127.133 343.821 127.084 345.626 128.425C347.319 132.521 347.268 141.975 346.366 146.267C344.46 148.019 342.473 147.792 339.748 147.89C333.806 148.092 327.658 148.11 321.708 148.043C285.049 147.621 248.1 148.735 211.459 147.939C210.947 141.736 210.03 132.227 213.964 127.28L222.969 127.127C233.781 127.586 246.093 127.237 257.067 127.237L315.31 127.212C316.155 124.457 317.092 122.069 318.122 119.387L319.127 117.967C319.13 116.828 321.603 110.833 322.084 106.743Z" fill="#1A68B2"/>
<path d="M322.084 106.743C324.707 107.956 329.951 110.307 332.622 110.784L335.381 109.254C333.334 113.662 331.483 117.501 329.891 122.087L328.098 127.261L320.061 127.225L315.31 127.212C316.155 124.457 317.092 122.069 318.122 119.387L319.127 117.967C319.13 116.828 321.603 110.833 322.084 106.743Z" fill="#95B2C9"/>
<path d="M319.127 117.967C322.076 120.428 320.649 123.527 320.061 127.225L315.31 127.213C316.155 124.457 317.092 122.069 318.122 119.387L319.127 117.967Z" fill="#81A3BF"/>
<path d="M329.891 122.088C332.95 123.643 335.985 125.247 338.995 126.901C335.803 127.341 331.405 127.231 328.098 127.262L329.891 122.088Z" fill="#033E73"/>
<path d="M188.466 147.474C193.416 148.435 205.618 147.749 211.459 147.939C248.1 148.735 285.048 147.621 321.708 148.043C327.658 148.11 333.806 148.092 339.748 147.89C339.678 149.617 339.526 156.45 339.142 157.699L338.57 156.242C335.085 155.47 323.306 155.972 319.137 156.077C304.073 156.45 283.978 155.642 269.501 156.077C260.747 156.334 195.323 155.109 190.434 157.54C190.455 160.393 190.583 162.004 189.953 164.845C189.291 161.777 188.729 151.062 188.466 147.474Z" fill="#044B8C"/>
<path d="M270.222 175.046L271.289 174.14C275.293 173.619 286.644 172.707 289.848 174.936C291.112 176.907 294.981 183.679 296.325 184.635L299.563 182.963L300.18 183.514C299.311 187.084 295.346 194.095 293.511 197.726C288.982 197.26 283.219 196.826 278.819 196.085L278.517 195.246L281.589 193.146C282.006 190.905 278.054 185.174 276.85 182.583L275.865 183.19C273.792 179.773 272.721 178.181 270.222 175.046Z" fill="#FAF8F7"/>
<path d="M270.222 175.046L271.289 174.14C273.694 176.895 275.518 179.05 276.85 182.583L275.865 183.19C273.792 179.773 272.721 178.181 270.222 175.046Z" fill="#4079B9"/>
<path d="M277.63 230.392C279.994 226.884 283.757 220.84 286.615 218.066C288.286 219.646 287.047 221.012 287.496 221.544C288.457 222.677 296.033 222.242 297.852 222.224L298.343 221.042C302.306 220.84 304.259 220.908 307.87 219.224C308.114 220.069 308.334 220.356 308.224 221.116C306.27 225.059 301.775 236.344 298.052 238.297C293.943 240.452 287.703 234.641 287.316 243.012C285.165 242.926 279.292 232.713 277.63 230.392Z" fill="#FAF8F7"/>
<path d="M307.87 219.224C308.114 220.069 308.334 220.356 308.224 221.116C304.164 222.371 302.091 222.346 297.852 222.224L298.343 221.042C302.306 220.84 304.259 220.907 307.87 219.224Z" fill="#1A68B2"/>
<path d="M241.419 215.128C242.843 211.693 245.837 207.321 246.396 204.094L243.159 201.553L243.265 200.824C246.58 200.089 254.402 199.734 258.098 199.465C261.131 204.461 263.792 210.07 266.418 215.324C264.332 214.019 262.266 212.678 260.221 211.313L254.631 222.23C253.19 225.053 251.755 227.821 250.432 230.705C248.148 228.078 243.124 218.422 241.419 215.128Z" fill="#FAF8F7"/>
<path d="M250.432 230.704C251.755 227.82 253.19 225.053 254.631 222.23L255.872 222.64C259.397 221.789 269.23 222.23 273.318 222.316L273.354 238.799L255.881 238.677C253.767 236.319 252.287 234.764 251.469 231.654L250.432 230.704Z" fill="#FAF8F7"/>
<path d="M250.432 230.704C251.755 227.82 253.19 225.053 254.631 222.23L255.872 222.64C254.859 224.795 252.612 229.872 251.469 231.653L250.432 230.704Z" fill="#4079B9"/>
<path d="M253.247 190.519C257.855 183.282 259.98 171.948 270.222 175.046C272.721 178.181 273.792 179.773 275.865 183.19C274.124 187.047 269.721 194.579 267.46 198.999C262.788 196.36 257.881 193.293 253.247 190.519Z" fill="#FAF8F7"/>
<path d="M289.416 205.104C293.18 202.82 299.132 200.23 303.256 198.289C306.019 203.524 308.665 208.827 311.194 214.178L307.87 219.224C304.259 220.908 302.306 220.84 298.343 221.042C295.536 216.811 291.944 209.733 289.416 205.104Z" fill="#FAF8F7"/>
<path d="M196.398 105.366C176.055 98.8322 186.232 75.9748 191.948 63.0001C193.811 58.7691 195.392 53.4298 197.363 49.3947C203.819 36.1751 206.571 15.2648 222.484 10.5011C225.635 9.52142 228.88 8.88462 232.166 8.58459C235.375 8.3213 238.794 8.30291 242.027 8.33352C264.274 8.54783 286.647 7.83756 308.862 8.71928C311.804 8.83562 317.085 10.5011 319.587 11.9339C322.383 13.532 325.537 18.8285 326.09 22.0614C326.442 23.9841 326.457 27.7007 325.793 29.4091C320.724 42.4634 304.89 91.3559 298.592 100.247C303.53 101.643 302.709 101.588 306.722 98.7526C314.023 99.6833 313.378 103.529 319.568 105.268C321.289 105.745 320.867 105.476 322.084 106.743C321.603 110.833 319.13 116.828 319.127 117.967L318.122 119.387C317.092 122.069 316.155 124.457 315.31 127.212L257.067 127.237C246.093 127.237 233.781 127.586 222.969 127.127L213.964 127.28C209.496 127.219 193.109 127.39 189.861 126.68C189.763 121.408 187.413 120.838 191.547 116.203C193.749 114.954 196.013 113.852 197.876 112.168C196.851 111.44 196.776 111.207 195.926 110.246C195.334 108.023 195.683 107.533 196.398 105.366Z" fill="#033E73"/>
<path d="M196.398 105.366C176.055 98.8322 186.232 75.9748 191.948 63.0001C193.811 58.7691 195.392 53.4298 197.363 49.3947C203.819 36.1751 206.571 15.2648 222.484 10.5011C225.635 9.52142 228.88 8.88462 232.166 8.58459C235.375 8.3213 238.794 8.30291 242.027 8.33352C264.274 8.54783 286.647 7.83756 308.862 8.71928C311.804 8.83562 317.085 10.5011 319.587 11.9339C322.383 13.532 325.537 18.8285 326.09 22.0614C326.442 23.9841 326.457 27.7007 325.793 29.4091C320.724 42.4634 304.89 91.3559 298.592 100.247L296.988 99.5669C296.409 97.3381 297.47 95.4523 298.258 92.9541L297.768 90.1435L297.867 89.17C298.591 82.502 303.141 73.0113 305.695 66.2882L314.828 41.6552C316.812 36.3098 323.954 21.4307 312.012 21.2531C284.21 20.8368 258.85 20.8123 230.711 21.3695C212.182 21.7308 205.972 66.925 197.45 80.3834C193.841 86.084 192.029 94.8767 198.913 99.3098C198.572 101.349 198.423 103.308 197.564 105.139L196.398 105.366Z" fill="#1662AA"/>
<path d="M262.045 84.5654C269.386 86.7146 281.338 89.6476 288.092 91.9866C292.403 92.7458 293.851 93.0581 298.258 92.954C297.47 95.4523 296.409 97.3381 296.988 99.5669L298.592 100.247C303.53 101.643 302.709 101.588 306.722 98.7526C314.023 99.6833 313.378 103.529 319.568 105.267C321.289 105.745 320.867 105.476 322.084 106.743C321.603 110.833 319.13 116.828 319.127 117.967L318.122 119.387C317.092 122.069 316.155 124.457 315.31 127.212L257.067 127.237C256.432 123.477 255.722 121.065 254.664 117.409C254.054 114.813 253.864 114.121 253.771 111.501C255.394 109.529 255.492 108.641 256.304 106.143C257.016 103.48 257.685 100.792 258.367 98.1219L262.045 84.5654Z" fill="#D49251"/>
<path d="M283.367 115.591L287.938 116.466C290.329 116.919 294.351 118.42 296.65 119.405C304.141 122.626 310.441 121.359 318.121 119.387C317.092 122.069 316.155 124.457 315.31 127.212L257.067 127.237C256.432 123.477 255.722 121.065 254.664 117.409C256.904 117.813 260.044 118.273 262.135 118.977C272.38 122.296 274.827 123.134 283.367 115.591Z" fill="#B6743B"/>
<path d="M254.664 117.41C254.054 114.814 253.864 114.122 253.771 111.501C259.986 111.446 260.222 113.626 262.135 118.977C260.044 118.273 256.904 117.814 254.664 117.41Z" fill="#C08E68"/>
<path d="M265.66 95.0913C270.502 96.5302 276.111 97.0506 279.948 99.7142C280.873 101.845 280.519 101.337 279.887 104.135C274.889 102.959 269.358 102.194 265.305 99.2856C264.558 97.216 264.865 97.7181 265.66 95.0913Z" fill="#C08E68"/>
<path d="M262.34 104.961C266.681 104.772 273.585 106.327 277.417 108.537C278.576 110.264 278.221 109.676 278.011 112.266C274.996 112.211 266.213 110.338 263.605 108.562C262.061 107.509 262.44 106.737 262.34 104.961Z" fill="#B6743B"/>
<path d="M247.672 89.605C248.695 92.8441 249.262 94.8586 249.973 98.2324C252.77 98.1712 255.568 98.1344 258.367 98.1222C257.685 100.792 257.016 103.48 256.304 106.143C255.492 108.642 255.394 109.529 253.771 111.501C253.864 114.122 254.054 114.814 254.664 117.41C255.721 121.065 256.432 123.478 257.067 127.237C246.093 127.237 233.781 127.586 222.969 127.127L213.964 127.28C209.496 127.219 193.108 127.39 189.861 126.68C189.763 121.408 187.413 120.839 191.547 116.204C193.749 114.954 196.013 113.852 197.876 112.168C196.851 111.44 196.776 111.207 195.926 110.246C195.334 108.023 195.683 107.533 196.398 105.366L197.564 105.139C198.423 103.308 198.572 101.349 198.913 99.3101C200.583 99.7142 202.562 100.29 204.246 100.363L205.657 98.8508C207.844 98.2263 207.177 98.4222 209.697 99.1202C213.104 99.108 213.84 99.1508 216.132 97.0629L216.397 97.9813L220.893 97.6997C228.884 96.3894 234.786 92.9665 241.828 91.6807L247.447 90.6276L247.672 89.605Z" fill="#B0BAC3"/>
<path d="M216.132 97.0625L216.397 97.981C216.915 100.467 217.789 103.247 217.212 105.635L215.751 107.049C218.121 112.75 218.526 107.306 220.02 114.366L222.969 127.127L213.964 127.28C209.496 127.218 193.108 127.39 189.861 126.68C189.763 121.408 187.413 120.838 191.547 116.203C193.749 114.954 196.013 113.852 197.876 112.168C196.851 111.439 196.776 111.207 195.926 110.245C195.334 108.023 195.683 107.533 196.398 105.365L197.564 105.139C198.423 103.308 198.572 101.349 198.913 99.3097C200.583 99.7138 202.562 100.289 204.246 100.363L205.657 98.8505C207.844 98.2259 207.177 98.4218 209.697 99.1198C213.104 99.1076 213.84 99.1505 216.132 97.0625Z" fill="#2A5027"/>
<path d="M220.02 114.366L222.969 127.127L213.964 127.28C209.496 127.218 193.108 127.39 189.861 126.68C189.763 121.408 187.413 120.838 191.547 116.203C192.617 118.138 193.745 120.299 195.762 121.095C197.957 121.175 199.079 119.944 200.928 118.591C203.108 119.822 205.621 121.555 207.755 122.945C217.162 119.614 212.632 116.717 220.02 114.366Z" fill="#175C57"/>
<path d="M198.913 99.3101C200.583 99.7142 202.562 100.29 204.246 100.363L204.862 106.107C206.154 107.301 206.116 107.209 206.895 108.776C206.226 110.644 206.779 109.934 205.317 111.072C202.324 111.636 199.889 111.207 197.876 112.168C196.851 111.44 196.776 111.207 195.926 110.246C195.334 108.023 195.683 107.533 196.398 105.366L197.564 105.139C198.423 103.308 198.572 101.349 198.913 99.3101Z" fill="#578039"/>
<path d="M198.913 99.3101C200.583 99.7142 202.562 100.29 204.246 100.363L204.862 106.107C202.138 105.592 200.329 105.372 197.564 105.139C198.423 103.308 198.572 101.349 198.913 99.3101Z" fill="#0A59A3"/>
<path d="M216.132 97.0625L216.397 97.981C216.915 100.467 217.789 103.247 217.212 105.635L215.751 107.049C212.654 105.084 212.083 102.506 209.697 99.1198C213.104 99.1076 213.84 99.1505 216.132 97.0625Z" fill="#044B8C"/>
<path d="M247.672 89.605C248.695 92.8441 249.262 94.8586 249.973 98.2324C252.77 98.1712 255.568 98.1344 258.367 98.1222C257.685 100.792 257.016 103.48 256.304 106.143C255.492 108.642 255.394 109.529 253.771 111.501C253.864 114.122 254.054 114.814 254.664 117.41C255.721 121.065 256.432 123.478 257.067 127.237C246.093 127.237 233.781 127.586 222.969 127.127L220.02 114.367C218.526 107.307 218.121 112.75 215.751 107.05L217.212 105.635C217.789 103.247 216.915 100.467 216.397 97.9813L220.893 97.6997C223.356 109.964 226.487 112.787 227.051 126.729C231.006 126.674 245.243 127.813 247.529 125.082C253.993 117.373 241.237 97.4425 247.447 90.6276L247.672 89.605Z" fill="#C4D1DC"/>
<path d="M249.973 98.2323C252.77 98.1711 255.568 98.1343 258.367 98.1221C257.685 100.792 257.016 103.48 256.304 106.143L253.067 105.886C250.521 103.945 250.646 101.673 249.973 98.2323Z" fill="#0A59A3"/>
<path d="M241.733 100.902C242.68 100.884 242.153 100.773 243.202 101.576C244.396 105.549 247.534 111.917 247.804 114.844C245.883 116.191 234.785 118.904 231.938 119.4C230.558 119.632 229.877 118.849 229.066 118.028C229.28 114.685 230.618 114.52 233.167 113.558C236.774 112.781 241.015 112.664 242.009 108.495C239.828 106.376 233.42 109.927 227.905 109.903C226.593 108.642 227.023 109.413 226.819 107.392C228.87 104.098 236.485 103.014 241.027 101.19L241.733 100.902Z" fill="#95B2C9"/>
<path d="M219.966 72.0868C220.14 71.1745 220.24 71.0398 220.573 70.1703C224.097 68.4436 227.853 67.2435 231.724 66.6006L232.406 67.1701C235.891 76.8077 244.667 71.1316 247.672 89.6048L247.447 90.6274L241.828 91.6806C234.786 92.9664 228.884 96.3892 220.893 97.6996L216.397 97.9812L216.132 97.0627C211.307 80.2366 220.102 79.9304 219.966 72.0868Z" fill="#BBCCD9"/>
<path d="M222.024 77.9712L222.921 79.1958C222.86 82.3124 222.875 89.6724 220.799 91.8828C217.219 87.4865 218.607 82.0185 222.024 77.9712Z" fill="#DCE2E5"/>
<path d="M270.143 74.2852C273.934 75.3261 292.247 80.1632 294.865 81.7185L295.508 81.5899L297.768 90.1438L298.258 92.9543C293.851 93.0584 292.403 92.7461 288.092 91.9868C281.338 89.6478 269.386 86.7149 262.045 84.5657C264.874 80.6653 267.001 77.9406 270.143 74.2852Z" fill="#EAD7C5"/>
<path d="M295.508 81.5898L297.768 90.1437L298.258 92.9543C293.851 93.0583 292.403 92.746 288.092 91.9868L294.865 81.7184L295.508 81.5898Z" fill="#C08E68"/>
<path d="M270.398 70.4277C270.987 68.6765 271.202 67.2437 272.615 66.1538C277.671 67.256 292.449 71.389 296.976 73.3239C297.325 75.3935 296.974 76.0793 296.417 78.0815L295.508 81.59L294.865 81.7185C292.247 80.1633 273.934 75.3262 270.142 74.2852L270.398 70.4277Z" fill="#DCC8B5"/>
<path d="M270.398 70.4277C277.145 72.3749 290.292 75.7303 296.417 78.0815L295.508 81.59L294.865 81.7186C292.247 80.1633 273.934 75.3262 270.142 74.2853L270.398 70.4277Z" fill="#D2AE91"/>
<path d="M216.156 62.5596C221.751 60.2941 225.346 59.2348 231.158 57.5815C232.274 60.937 233.543 63.8209 232.406 67.1703L231.724 66.6008C227.853 67.2437 224.097 68.4438 220.573 70.1705C220.24 71.04 220.14 71.1747 219.966 72.087C217.402 67.1151 217.309 68.8173 216.156 62.5596Z" fill="#1A68B2"/>
<path d="M6.06686 95.036C5.38188 94.1237 4.69566 93.1869 4.12781 92.195C1.13542 86.9598 0.950813 81.5103 2.47043 75.7974C5.3452 64.9841 10.1395 54.2627 14.1244 43.7861C17.7254 34.326 20.8568 23.6658 25.885 14.8793C28.0348 11.1197 31.1178 6.76622 34.9624 4.69663C38.7367 2.65766 43.1955 1.30449 47.4437 0.814643C57.3612 -0.318121 131.344 -0.477362 138.178 1.6902C142.996 3.22096 145.962 6.33762 148.332 10.6789C151.069 15.8039 151.68 20.1879 149.42 25.5456C142.645 41.6186 137.137 62.9513 129.586 78.3447L129.136 78.9753C127.119 81.8531 126.125 85.3004 124.23 86.6108C121.727 86.4516 121.908 86.0168 119.457 84.3942C115.788 87.0333 115.881 89.2926 115.011 93.7808C117.795 101.355 118.572 105.121 116.038 112.952C119.911 114.33 121.018 114.495 122.412 118.567L121.86 118.989L120.486 123.043L114.689 123.294L109.281 123.031C97.3655 123.086 84.4961 123.374 72.6578 122.945C67.9197 123.061 51.3085 123.643 47.4296 122.78C43.043 118.714 41.3659 116.565 38.5077 111.391C37.9719 109.786 36.1999 107.692 35.2545 105.231C32.3706 105.574 28.2069 102.684 24.8012 101.177C17.1696 102.029 11.0617 101.073 6.06686 95.036Z" fill="#2A5027"/>
<path d="M32.2089 69.1355C35.8141 66.8822 37.5261 66.2576 41.7388 65.8535L40.6078 66.7168C41.2416 70.2498 41.4473 72.497 43.2652 75.6565C50.2878 78.8099 53.6132 87.3454 58.0873 93.7011C62.3545 93.5113 65.2329 93.4991 69.4958 93.7011C75.0439 84.4431 82.3284 82.398 92.2466 86.3412L93.9188 86.7024C104.181 84.9329 108.561 84.5349 115.011 93.7807C117.795 101.355 118.572 105.121 116.038 112.952C119.911 114.33 121.018 114.495 122.412 118.567L121.86 118.989L120.486 123.043L114.689 123.294L109.281 123.031C97.3654 123.086 84.496 123.373 72.6577 122.945C67.9197 123.061 51.3085 123.643 47.4295 122.779C43.043 118.714 41.3659 116.565 38.5076 111.391C37.9719 109.786 36.1999 107.692 35.2545 105.231C32.8775 98.6975 32.752 93.799 32.2242 86.9229C32.8224 82.5204 33.6263 80.8978 35.4669 77.0586L34.7095 74.2237C33.9815 71.505 34.115 71.1132 32.2089 69.1355Z" fill="#F4B531"/>
<path d="M69.4958 93.7013C75.0438 84.4432 82.3284 82.3981 92.2465 86.3413L93.9187 86.7026C104.181 84.933 108.561 84.5351 115.011 93.7809C117.795 101.355 118.572 105.121 116.038 112.952C114.302 113.246 114.297 113.203 112.529 113.013C111.488 111.599 112.009 109.768 111.933 107.392L110.899 106.437C105.153 105.427 100.251 112.823 94.397 113.258C87.1124 113.809 75.0824 109.591 69.5662 104.686C68.0538 103.345 68.3703 101.906 68.265 99.959L69.4958 93.7013Z" fill="#C43931"/>
<path d="M92.2465 86.3413L93.9187 86.7025C95.8389 88.3374 97.3378 87.9394 97.5693 91.0132L96.7304 91.9562C93.9971 92.7216 89.5658 92.2991 87.9812 89.6539C89.2756 88.7783 90.3643 88.0741 91.5252 87.0148L92.2465 86.3413Z" fill="#A1322B"/>
<path d="M79.9624 87.7559L81.9292 88.858C84.2241 92.7094 80.1651 95.4097 77.4747 98.0058L75.2342 96.0036C73.9049 91.6011 76.5795 90.0826 79.9624 87.7559Z" fill="#D8574C"/>
<path d="M104.751 90.1865C110.085 90.9825 113.036 95.0665 108.964 99.6343C106.521 97.43 103.317 95.2748 103.097 92.0785L104.751 90.1865Z" fill="#D8574C"/>
<path d="M32.2089 69.1355C35.8141 66.8822 37.5261 66.2576 41.7388 65.8535L40.6078 66.7168C41.2416 70.2498 41.4473 72.497 43.2652 75.6565C41.4583 76.1464 40.3054 76.5382 38.4109 76.6239C36.3633 80.5121 38.7226 88.8945 39.8872 92.9541C43.4661 105.433 54.779 116.424 67.0104 120.391C69.0065 121.041 71.0333 121.536 72.6577 122.945C67.9197 123.061 51.3085 123.643 47.4295 122.779C43.043 118.714 41.3659 116.565 38.5076 111.391C37.9719 109.786 36.1999 107.692 35.2545 105.231C32.8775 98.6975 32.752 93.799 32.2242 86.9229C32.8224 82.5204 33.6263 80.8978 35.4669 77.0586L34.7095 74.2237C33.9815 71.505 34.115 71.1132 32.2089 69.1355Z" fill="#D49251"/>
<path d="M38.411 76.6239C37.0767 73.9298 35.854 71.8725 36.6836 68.9334C38.1434 67.2802 38.5071 67.3781 40.6079 66.7168C41.2416 70.2498 41.4474 72.497 43.2653 75.6565C41.4584 76.1463 40.3054 76.5382 38.411 76.6239Z" fill="#E89F38"/>
<path d="M58.0873 93.7012C62.3544 93.5114 65.2329 93.4991 69.4957 93.7012L68.265 99.9589C62.0232 100.29 61.6546 98.2996 58.0873 93.7012Z" fill="#3E6731"/>
<path d="M117.418 119.014L121.86 118.989L120.486 123.043L114.689 123.294L117.418 119.014Z" fill="#C43931"/>
<path d="M109.281 123.03C112.245 118.946 112.381 119.093 117.418 119.014L114.689 123.294L109.281 123.03Z" fill="#B6743B"/>
<path d="M6.06686 95.036C5.38188 94.1237 4.69566 93.1869 4.12781 92.195C1.13542 86.9598 0.950813 81.5103 2.47043 75.7974C5.3452 64.9841 10.1395 54.2627 14.1244 43.7861C17.7254 34.326 20.8568 23.6658 25.885 14.8793C28.0348 11.1197 31.1178 6.76622 34.9624 4.69663C38.7367 2.65766 43.1955 1.30449 47.4437 0.814643C57.3612 -0.318121 131.344 -0.477362 138.178 1.6902C142.996 3.22096 145.962 6.33762 148.332 10.6789C147.278 10.4462 146.22 10.2318 145.162 10.0237C137.599 8.50514 59.2513 8.65209 50.5401 10.0175C46.5246 10.6482 42.4766 12.3259 39.1371 14.6343C36.1772 16.6794 33.965 19.0613 32.1887 22.184C27.932 29.6664 8.55765 80.3591 7.21499 89.1396C6.92354 91.05 7.02451 93.3522 6.06686 95.036Z" fill="#678D44"/>
<path d="M6.06677 95.036C7.02442 93.3522 6.92345 91.05 7.2149 89.1396C8.55757 80.3592 27.9319 29.6664 32.1886 22.184C33.9649 19.0613 36.1772 16.6794 39.137 14.6343C42.4766 12.326 46.5245 10.6482 50.54 10.0175C59.2513 8.6521 137.599 8.50515 145.162 10.0237C146.22 10.2319 147.278 10.4462 148.332 10.6789C151.069 15.8039 151.68 20.1879 149.42 25.5456C142.645 41.6186 137.137 62.9513 129.586 78.3447L129.135 78.9753C127.119 81.8531 126.125 85.3005 124.23 86.6108C121.727 86.4516 121.908 86.0169 119.457 84.3942C121.345 83.5676 122.475 79.3366 123.263 77.3037C127.106 67.3783 130.53 57.263 134.301 47.3008C137.273 39.451 141.147 31.1543 143.079 22.9923C143.387 21.6881 143.474 20.5186 143.011 19.2144C142.208 16.955 140.114 15.6386 137.958 14.8977C133.489 13.3608 63.2606 13.4097 54.4183 14.1751C50.6386 14.4996 46.8325 15.3018 43.4544 17.0836C40.1033 18.8531 37.5004 21.4554 35.5881 24.7129C30.116 34.0321 25.6994 49.003 21.6663 59.553C18.7939 67.066 14.9532 75.0382 12.9338 82.7899C12.2658 85.3494 11.8338 88.5334 13.3248 90.903C14.8066 93.2542 17.6207 94.0687 20.2176 94.4177C23.9524 94.9075 28.1774 94.3931 31.9547 94.1972C31.9027 92.1704 31.602 88.7109 32.2241 86.923C32.7519 93.7992 32.8775 98.6976 35.2544 105.231C32.3705 105.574 28.2068 102.684 24.8012 101.177C17.1695 102.029 11.0616 101.073 6.06677 95.036Z" fill="#446D33"/>
<path d="M32.2089 69.1357C30.5342 68.2662 30.3328 67.5254 29.8717 65.9273C31.0547 62.2595 39.1163 58.5367 42.3939 61.9778C42.5293 64.078 42.6591 64.0046 41.7388 65.8538C37.5261 66.2579 35.8141 66.8824 32.2089 69.1357Z" fill="#F4B531"/>
<path d="M81.2679 68.8418C92.1394 69.4051 94.2721 76.4772 92.6813 86.2129C88.2421 82.2574 87.8459 81.4369 82.6793 78.1917C82.5189 77.8549 82.3609 77.5182 82.2042 77.1814C80.5166 73.4892 79.9001 72.4973 81.2679 68.8418Z" fill="#578039"/>
<path d="M104.094 71.3091C106.48 71.8173 106.404 72.0622 107.467 73.5563C107.864 79.2997 101.915 83.2919 97.1407 85.0247L95.5187 85.1901L94.6952 84.1797C94.694 78.3506 99.0315 73.6297 104.094 71.3091Z" fill="#578039"/>
<path d="M129.586 78.3447C138.731 79.4101 135.52 88.509 137.271 93.9585C142.713 92.1951 146.514 81.0266 153.072 82.2512C162.601 87.9885 153.073 94.6994 147.527 97.8589L148.12 98.5875C150.815 101.955 150.539 101.692 148.693 105.623C151.476 108.182 154.51 106.437 156.604 111.079C156.602 114.03 153.988 116.528 151.834 118.273L151.206 118.818L146.494 123.055C140.301 123.343 132.947 123.043 126.668 122.933L120.486 123.043L121.86 118.99L122.412 118.567C121.018 114.495 119.911 114.33 116.038 112.952C118.572 105.121 117.795 101.355 115.011 93.7809C115.881 89.2927 115.788 87.0333 119.457 84.3943C121.908 86.0169 121.727 86.4516 124.23 86.6108C126.125 85.3005 127.119 81.8532 129.136 78.9753L129.586 78.3447Z" fill="#578039"/>
<path d="M133.131 115.499L143.62 114.158C146.319 116.846 147.406 118.653 151.206 118.818L146.494 123.055C140.301 123.343 132.946 123.043 126.668 122.933C128.192 120.428 130.784 117.275 133.131 115.499Z" fill="#446D33"/>
<path d="M122.412 118.567L122.899 117.116C131.217 114.127 128.239 103.21 136.432 103.59C139.687 107.123 135.328 112.707 133.131 115.499C130.784 117.275 128.192 120.428 126.668 122.932L120.486 123.043L121.86 118.989L122.412 118.567Z" fill="#3E6731"/>
<path d="M24.8013 101.177C28.2069 102.684 32.3706 105.574 35.2545 105.231C36.1999 107.692 37.9719 109.786 38.5077 111.391C41.3659 116.564 43.043 118.714 47.4296 122.779C43.3688 122.877 36.5085 122.914 32.5861 123.502C30.23 127.984 30.71 139.893 31.1864 144.92C23.1113 145.067 15.0334 144.951 6.96557 144.571C4.92555 144.535 3.47616 144.675 1.56657 143.947C-0.292205 139.189 -0.909593 128.749 2.04196 124.433C2.98442 123.055 5.65174 123.092 7.21777 122.969L7.49037 121.432C3.77411 104.796 15.8563 110.05 22.4675 106.945C22.7723 103.89 22.8157 103.492 24.8013 101.177Z" fill="#578039"/>
<path d="M24.8012 101.177C28.2069 102.684 32.3705 105.574 35.2545 105.231C36.1999 107.692 37.9719 109.786 38.5076 111.391C41.3659 116.564 43.043 118.714 47.4295 122.779C43.3687 122.877 36.5085 122.914 32.5861 123.502C26.073 123.679 17.5507 123.771 11.1142 123.043L7.21772 122.969L7.49031 121.432C3.77405 104.796 15.8562 110.05 22.4674 106.945C22.7723 103.89 22.8157 103.492 24.8012 101.177Z" fill="#578039"/>
<path d="M38.5076 111.391C41.3658 116.565 43.0429 118.714 47.4295 122.779C43.3687 122.877 36.5084 122.914 32.586 123.502C26.0729 123.68 17.5506 123.771 11.1141 123.043L15.7988 122.914L16.5254 122.106L15.4133 119.712C16.5271 116.626 16.6057 115.652 19.7817 114.556C22.4105 114.868 25.2782 116.92 27.6784 118.328C32.8866 114.324 36.2237 116.307 38.5076 111.391Z" fill="#3E6731"/>
<path d="M7.49025 121.433C8.92555 119.669 9.45642 118.726 11.502 117.704C14.0049 117.918 13.1464 117.753 15.4132 119.712L16.5254 122.106L15.7987 122.914L11.1141 123.043L7.21765 122.969L7.49025 121.433Z" fill="#2A5027"/>
<path d="M327.616 74.377C332.162 76.1649 336.854 77.4079 339.752 81.296C340.235 84.2473 338.892 86.3047 336.391 87.8906C334.349 94.1667 340.79 98.1957 335.38 109.254L332.622 110.785C329.951 110.307 324.707 107.956 322.084 106.743C320.867 105.476 321.289 105.745 319.568 105.268C313.378 103.529 314.023 99.6835 306.722 98.7528C313.372 82.9125 321.826 88.7784 324.729 81.7981C325.032 79.006 326.271 76.8507 327.616 74.377Z" fill="#B0BAC3"/>
<path d="M327.616 74.377C332.162 76.1649 336.854 77.4079 339.752 81.296C340.235 84.2473 338.892 86.3047 336.391 87.8906C334.812 86.4761 327.057 82.8757 324.729 81.7981C325.032 79.006 326.271 76.8507 327.616 74.377Z" fill="#0A59A3"/>
<path d="M322.173 88.0986L322.735 88.6926C322.38 90.3335 316.643 94.5217 313.955 98.1037L313.18 97.3077C312.94 92.4277 317.929 89.1151 322.173 88.0986Z" fill="#C4D1DC"/>
<path d="M188.466 147.474C186.267 147.437 185.053 147.596 183.046 146.678C180.997 142.82 180.906 131.621 183.907 128.229C185.213 126.753 188.008 126.814 189.861 126.68C193.108 127.39 209.496 127.219 213.964 127.28C210.029 132.227 210.947 141.736 211.459 147.939C205.618 147.749 193.416 148.435 188.466 147.474Z" fill="#0A59A3"/>
</svg>
