<svg width="347" height="217" viewBox="0 0 347 217" fill="none" xmlns="http://www.w3.org/2000/svg">
<path d="M20.8334 13.8688C20.8518 9.94023 20.2395 4.37192 22.7745 1.53572C28.0893 -0.505702 46.0359 -0.4108 51.4241 1.22344C53.6897 3.36834 53.5122 5.41467 53.6162 8.59315C53.6652 10.3315 53.6652 12.0717 53.6162 13.81C67.785 13.532 75.2856 11.3418 75.053 28.4037C74.0182 65.3115 75.3714 102.726 74.7897 139.686C74.6673 147.613 74.9673 155.61 74.6612 163.528C73.608 166.002 72.3895 168.594 69.7259 169.69C65.1459 171.576 9.30374 171.665 5.38499 169.547C5.09109 169.39 4.81556 169.206 4.5584 168.999C-1.632 164.826 0.376343 156.963 0.260005 150C-0.407407 110.206 1.46011 69.5683 0.174273 29.8475C-1.29526 12.2548 6.60959 13.6055 20.8334 13.8688Z" fill="#791F19"/>
<path d="M20.8334 13.8688C20.8518 9.94023 20.2395 4.37192 22.7745 1.53572C28.0893 -0.505702 46.0359 -0.4108 51.4241 1.22344C53.6897 3.36834 53.5122 5.41467 53.6162 8.59315C53.6652 10.3315 53.6652 12.0717 53.6162 13.81C67.785 13.532 75.2856 11.3418 75.053 28.4037L74.1835 29.7819C67.9993 30.3936 55.5266 29.9179 48.7239 29.9081L0.174273 29.8475C-1.29526 12.2548 6.60959 13.6055 20.8334 13.8688Z" fill="#D8574C"/>
<path d="M20.8336 13.8688C20.8519 9.94023 20.2397 4.37192 22.7746 1.53572C28.0894 -0.505702 46.036 -0.4108 51.4243 1.22344C53.6898 3.36834 53.5123 5.41467 53.6164 8.59315C53.6654 10.3315 53.6654 12.0717 53.6164 13.81C42.8092 14.0237 31.7571 13.7218 20.8336 13.8688Z" fill="#C43931"/>
<path d="M43.6356 60.8833C44.7072 62.8421 39.9006 85.0975 39.2576 89.5912C44.3704 89.5557 49.477 89.5918 54.5898 89.7002C45.693 102.75 37.4146 116.391 28.7015 129.617L28.2484 129.025C29.424 120.531 32.6264 107.983 34.4572 99.055L19.2476 98.9234C27.2198 86.1433 35.3511 73.4625 43.6356 60.8833Z" fill="#DE7569"/>
<path d="M213.293 56.1696C218.926 46.5448 271.346 46.6023 274.487 56.8511L274.432 57.6459C274.163 62.1114 274.707 66.122 274.689 70.5459C274.671 75.0935 274.873 77.4104 270.293 79.1439C270.256 81.1265 270.023 82.9726 270.721 84.7851C277.053 89.2494 281.265 95.3026 280.873 103.31C281.284 122.685 281.963 147.208 280.922 166.441C280.977 171.146 281.222 178.408 277.451 181.711C269.221 188.913 251.826 188.699 241.484 188.484C230.015 188.252 213.048 188.729 206.944 177.66C206.288 174.871 205.352 169.041 206.931 166.621L206.466 166.235C205.774 162.267 205.964 150.381 205.958 145.686L206.117 103.416C206.748 96.7048 208.04 90.9277 214.12 87.0248C217.996 84.1262 217.812 84.0583 217.8 79.199C215.804 78.5469 215.718 78.6528 214.206 77.0951C211.965 71.5948 213.012 62.3508 213.293 56.1696Z" fill="#DE7569"/>
<path d="M213.293 56.1696C218.926 46.5448 271.346 46.6023 274.487 56.8511L274.432 57.6459C274.163 62.1114 274.707 66.122 274.689 70.5459C274.671 75.0935 274.873 77.4104 270.293 79.1439C253.84 83.3033 234.387 82.146 217.8 79.199C215.804 78.5469 215.718 78.6528 214.206 77.0951C211.965 71.5948 213.012 62.3508 213.293 56.1696Z" fill="#D8574C"/>
<path d="M213.293 56.1696C218.926 46.5448 271.346 46.6023 274.487 56.8511C261.451 63.7805 226.292 63.5448 213.293 56.1696Z" fill="#C43931"/>
<path d="M217.8 79.1987C234.387 82.1457 253.84 83.3029 270.293 79.1436C270.256 81.1262 270.023 82.9723 270.721 84.7847C277.052 89.249 281.265 95.3023 280.873 103.309C263.716 109.751 232.232 108.265 214.291 105.405L206.117 103.416C206.748 96.7044 208.04 90.9273 214.12 87.0245C217.996 84.1259 217.812 84.0579 217.8 79.1987Z" fill="#791F19"/>
<path d="M217.8 79.1987C234.387 82.1457 253.84 83.3029 270.292 79.1436C270.256 81.1262 270.023 82.9723 270.721 84.7847C258.144 90.7963 235.011 88.7727 221.584 86.7208C218.13 85.2421 217.867 85.746 214.12 87.0245C217.996 84.1259 217.812 84.0579 217.8 79.1987Z" fill="#5B1713"/>
<path d="M214.12 87.0244C217.867 85.7459 218.13 85.242 221.584 86.7207C221.547 89.7388 214.022 96.3547 214.291 105.405L206.117 103.416C206.748 96.7044 208.04 90.9272 214.12 87.0244Z" fill="#A1322B"/>
<path d="M280.922 166.441C280.977 171.146 281.222 178.408 277.451 181.711C269.221 188.913 251.826 188.699 241.484 188.484C230.015 188.252 213.048 188.729 206.944 177.66C206.288 174.871 205.352 169.041 206.931 166.621C227.107 172.626 260.888 172.65 280.922 166.441Z" fill="#791F19"/>
<path d="M237.822 118.688C241.925 118.613 245.549 118.712 249.652 118.866C249.805 122.949 249.762 127.436 249.811 131.556C254.22 131.568 258.285 131.722 262.688 131.936C262.761 136.378 262.639 140.735 262.535 145.175C258.867 145.475 253.638 145.411 249.842 145.47C249.842 149.412 250.062 155.206 249.235 158.857C245.164 158.963 241.196 158.856 237.13 158.769C236.824 154.781 236.947 149.53 236.928 145.43C232.746 145.418 228.797 145.231 224.621 145.027C224.388 140.549 224.529 136.165 224.615 131.684C228.062 131.462 233.328 131.645 236.916 131.666C236.879 127.647 236.567 122.374 237.822 118.688Z" fill="#5B1713"/>
<path d="M122.06 115.53C120.394 111.874 119.911 103.415 117.847 98.3522C114.455 90.0212 109.116 83.4432 105.748 75.558C100.684 63.6187 100.531 50.1651 105.326 38.1156C109.642 27.4321 117.455 19.1758 128.134 14.7176C138.286 10.4388 149.742 10.4725 159.87 14.8119C170.579 19.2964 178.429 27.8258 182.703 38.5442C187.962 51.7087 187.111 66.5302 180.376 79.0053C177.204 84.9018 174.143 89.2846 171.455 95.5724C168.773 101.852 168.944 110.058 166.728 115.227C168.969 119.937 170.126 123.495 165.295 127.05L164.676 131.156C166.403 134.481 167.634 137.797 164.511 140.77C163.58 142.661 163.501 142.57 163.372 144.636C167.438 150.316 163.611 155.238 157.384 156.38C148.971 155.987 140.3 156.715 131.398 156.216C124.521 155.299 121.178 151.893 124.766 145.057L124.485 141.227C121.037 138.495 121.699 134.676 123.842 131.408C123.872 130.139 123.817 128.717 123.805 127.435C118.913 124.49 119.611 119.9 122.06 115.53Z" fill="#DE7569"/>
<path d="M135.194 114.987C137.429 115.698 137.765 115.593 140.031 115.463L148.524 115.476L153.349 115.515C157.806 115.5 162.27 115.404 166.727 115.227C168.968 119.937 170.126 123.495 165.295 127.05L164.676 131.156C166.403 134.481 167.634 137.797 164.511 140.77C163.58 142.661 163.501 142.57 163.372 144.636C167.438 150.316 163.611 155.238 157.384 156.38C148.971 155.987 140.3 156.715 131.397 156.216C124.521 155.299 121.178 151.893 124.766 145.057L124.485 141.227C121.037 138.495 121.698 134.676 123.842 131.407C123.872 130.139 123.817 128.717 123.805 127.435C118.913 124.49 119.611 119.9 122.06 115.53C125.77 115.311 131.857 115.811 135.194 114.987Z" fill="#D8574C"/>
<path d="M135.194 114.987C137.429 115.698 137.765 115.593 140.031 115.463L148.524 115.476L153.349 115.515C157.806 115.5 162.27 115.404 166.727 115.227C168.968 119.937 170.126 123.495 165.295 127.05L164.676 131.156C151.071 131.609 137.453 131.692 123.842 131.407C123.872 130.139 123.817 128.717 123.805 127.435C118.913 124.49 119.611 119.9 122.06 115.53C125.77 115.311 131.857 115.811 135.194 114.987Z" fill="#D8574C"/>
<path d="M123.805 127.435C135.873 126.615 153.018 126.945 165.295 127.05L164.676 131.157C151.071 131.609 137.453 131.692 123.842 131.408C123.872 130.14 123.817 128.717 123.805 127.435Z" fill="#A1322B"/>
<path d="M163.372 144.636C167.438 150.316 163.611 155.238 157.384 156.38C148.97 155.987 140.3 156.715 131.397 156.216C124.521 155.299 121.178 151.893 124.766 145.057C130.822 145.327 138.359 144.966 144.531 144.924C149.338 144.892 158.963 145.244 163.372 144.636Z" fill="#D8574C"/>
<path d="M124.484 141.227C136.522 140.521 152.375 140.524 164.511 140.771C163.58 142.661 163.5 142.571 163.372 144.637C158.963 145.245 149.338 144.893 144.531 144.924C138.359 144.966 130.822 145.327 124.766 145.057L124.484 141.227Z" fill="#A1322B"/>
<path d="M144.354 66.2887C147.121 62.5843 149.522 59.8963 154.463 59.2883C157.298 58.9166 160.157 59.7249 162.38 61.5232C164.566 63.3387 165.888 65.9869 166.023 68.8225C166.366 74.9406 162.655 78.2397 158.277 81.6906C155.938 91.9682 153.551 104.969 153.348 115.514L148.523 115.476L140.031 115.463C137.765 115.593 137.429 115.698 135.194 114.987C134.863 103.616 132.91 93.0177 130.442 81.9521C124.503 77.5435 119.28 70.9282 124.956 63.6871C126.683 61.5201 129.205 60.1333 131.967 59.8345C137.765 59.1677 140.882 62.3265 144.354 66.2887Z" fill="#5B1713"/>
<path d="M134.63 78.9845C129.732 75.4135 125.966 72.8632 129.199 66.0115C135.402 60.8498 140.031 73.9397 146.925 72.1554C150.477 69.2145 153.422 60.7415 159.827 66.0342C163.213 71.9656 158.755 75.201 154.31 78.0519C150.532 88.6772 148.432 104.219 148.524 115.476L140.031 115.463C139.535 101.897 138.365 92.2219 134.63 78.9845Z" fill="#DE7569"/>
<path d="M128.238 22.1382C130.216 22.8301 130.387 22.7137 131.685 24.4092C131.936 29.0499 124.54 30.6798 121.735 35.1497C118.521 40.2667 117.296 45.2276 114.626 50.5399C109.863 49.4647 109.146 45.838 110.842 41.6878C114.106 33.6979 120.235 25.7471 128.238 22.1382Z" fill="#F0896A"/>
<path d="M131.397 156.216C140.3 156.715 148.971 155.987 157.384 156.381L155.981 162.173C161.762 162.411 167.585 162.579 173.34 163.133C185.452 163.537 196.24 165.8 206.466 166.235L206.931 166.621C205.351 169.041 206.288 174.871 206.943 177.66C201.708 178.19 173.824 181.588 174.608 188.631C182.69 199.004 219.159 195.042 222.57 205.457C217.469 220.067 108.742 219.473 109.122 205.365C113.524 200.045 127.815 199.457 129.72 194.687C124.962 183.518 69.2055 190.364 71.0914 179.757C77.239 173.374 102.711 177.321 105.099 170.312C104.419 168.45 103.342 168.088 101.603 166.985L100.886 166.537L101.737 166.252C109.807 163.469 113.867 163.554 122.36 163.025C124.27 162.52 130.075 162.47 132.334 162.39C131.942 160.427 131.679 158.221 131.397 156.216Z" fill="#C43931"/>
<path d="M131.397 156.216C140.3 156.715 148.97 155.987 157.384 156.381L155.981 162.173C161.761 162.411 167.585 162.579 173.34 163.133C171.056 163.299 169.673 162.938 168.338 164.133C168.534 165.729 168.589 165.793 168.356 167.362C162.533 172.477 123.995 173.671 120.798 166.067L122.433 164.22L122.36 163.025C124.27 162.52 130.075 162.47 132.334 162.39C131.942 160.427 131.679 158.221 131.397 156.216Z" fill="#A1322B"/>
<path d="M320.698 108.971C317.293 99.3939 319.155 91.9158 322.737 82.4655C323.147 81.3768 323.967 80.6476 324.892 79.9704C327.09 79.7285 326.043 79.5638 328.107 80.6384C333.464 87.4044 328.841 104.275 323.245 110.375L322.657 116.565C321.157 116.353 321.102 116.84 319.412 117.911C319.681 114.245 319.761 112.617 320.698 108.971Z" fill="#84716A"/>
<path d="M320.697 108.971L320.918 108.339C321.867 105.503 323.055 98.9267 324.01 97.3745C324.475 100.35 323.545 106.945 323.245 110.375L322.657 116.565C321.157 116.353 321.102 116.84 319.412 117.911C319.681 114.245 319.761 112.617 320.697 108.971Z" fill="#4A3A38"/>
<path d="M319.412 117.911C321.102 116.84 321.157 116.353 322.657 116.565C322.553 121.376 321.965 133.367 323.006 137.316L323.753 137.595L325.149 136.168C328.247 127.975 330.96 124.535 339.293 121.236C338.638 123.439 337.922 125.624 337.156 127.79L334.37 131.177C332.331 132.896 327.525 137.466 326.043 139.608C324.433 140.866 323.796 141.931 322.602 143.562C322.234 152.1 321.383 167.616 320.238 175.887C318.585 173.375 320.636 159.336 320.177 155.277C319.148 146.17 319.185 136.29 319.204 127.107C317.446 124.783 316.467 123.323 313.785 122.469L314.93 121.352L316.118 120.201L318.371 120.278L319.222 120.035L319.412 117.911Z" fill="#5B1713"/>
<path d="M325.149 136.168C328.247 127.975 330.96 124.534 339.293 121.236C338.638 123.438 337.922 125.624 337.156 127.79C332.576 130.537 329.3 134.626 325.149 136.168Z" fill="#84716A"/>
<path d="M58.5453 200.822C64.8153 200.345 72.2793 200.498 77.2757 204.68C78.1513 206.658 78.1207 205.684 77.4349 207.686C74.104 210.515 70.8649 210.46 66.4808 211.127C62.1273 211.158 45.9503 211.501 47.1871 204.766C50.3466 201.686 54.1245 201.612 58.5453 200.822Z" fill="#C43931"/>
<path d="M256.161 200.687C261.659 200.222 279.061 199.658 280.598 206.057C279.153 208.335 275.607 209.247 273.134 209.988C265.908 210.747 254.911 211.378 248.941 206.792C247.46 202.561 253.007 201.642 256.161 200.687Z" fill="#C43931"/>
<path d="M313.785 122.469C307.515 120.547 304.582 116.681 301.471 111.097C299.426 107.435 296.958 101.767 302.261 99.8477C309.652 101.002 315.842 113.522 317.654 120.004L318.371 120.278L316.117 120.201L314.93 121.352L313.785 122.469Z" fill="#84716A"/>
<path d="M314.93 121.353C312.027 118.08 309.707 114.165 307.594 110.36C310.043 113.2 314.33 118.813 317.654 120.004L318.371 120.278L316.118 120.201L314.93 121.353Z" fill="#4A3A38"/>
<path d="M339.293 121.236C341.479 120.465 343.034 119.654 345.3 119.919C349.537 123.327 341.853 132.244 338.938 134.745C336.299 133.479 336.011 133.474 334.37 131.177L337.156 127.79C337.922 125.624 338.638 123.438 339.293 121.236Z" fill="#8A552E" fill-opacity="0.694118"/>
<path d="M334.37 131.177C336.011 133.474 336.299 133.479 338.938 134.745C334.279 138.107 331.982 139.277 326.043 139.608C327.525 137.466 332.331 132.896 334.37 131.177Z" fill="#84716A" fill-opacity="0.980392"/>
</svg>
