<svg width="360" height="376" viewBox="0 0 360 376" fill="none" xmlns="http://www.w3.org/2000/svg">
<path d="M180.871 205.264C185.071 205.39 191.206 205.326 195.064 206.348C192.394 229.7 208.865 227.419 212.398 250.616C222.275 240.715 224.577 234.247 240.099 233.013C243.283 225.054 247.973 220.398 256.356 220.42C258.946 220.427 259.105 216.683 260.538 214.252C262.081 213.153 263.367 213.364 265.308 213.359C267.989 213.353 268.345 209.981 271.896 209.598C274.657 210.306 275.741 212.363 277.149 214.699L277.449 214.732L278.08 216.772C279.758 217.627 278.895 217.443 280.75 217.385L280.811 217.698C285.018 217.715 288.257 217.589 291.918 219.963C293.137 221.898 293.112 221.594 292.696 224.343C292.384 226.375 291.563 226.587 292.824 228.463C297.876 235.952 299.339 235.791 299.168 245.063C302.113 243.166 304.63 239.692 307.41 239.139L308.457 239.873L308.928 242.812C311.224 240.022 310.936 238.002 312.547 236.097C314.69 236.478 314.843 237.162 316.808 238.8C318.039 240.786 318.609 241.39 320.188 243.153C323.813 241.548 324.046 239.621 326.844 239.152L329.226 241.035C328.638 242.371 327.83 243.143 328.675 244.466C335.52 255.215 333.592 264.35 326.973 274.556C331.381 274.584 337.627 274.188 341.509 274.831C347.613 275.843 347.001 285.684 344.001 289.32C342.77 290.809 339.696 290.667 338.123 290.574L337.327 298.75L332 345.849C331.192 353.191 330.616 360.508 329.538 367.813C328.136 377.267 317.837 375.742 310.716 375.558C306.314 375.669 301.905 375.669 297.502 375.577C289.72 375.883 280.125 375.62 272.196 375.62L249.443 375.595C242.664 375.264 232.886 375.607 225.881 375.638C220.113 375.773 214.131 375.613 208.357 375.54L180.589 375.583C148.008 376.36 152.767 375.987 149.368 344.137C147.826 330.158 146.387 316.168 145.048 302.169C144.616 299.837 144.285 293.446 144.077 290.796C141.9 290.776 140.893 290.934 138.878 290.06C137.093 288.373 136.142 286.091 136.029 283.642C135.492 272.013 144.851 274.388 152.608 274.462C145.47 269.65 143.334 264.396 140.664 256.626C139.616 253.461 138.157 250.787 139.297 247.898C141.121 246.652 142.723 247.083 145.017 247.227L149.012 248.464C157.886 250.675 161.307 252.001 168.143 258.241C164.483 245.71 165.602 235.635 173.927 225.242C179.695 218.037 180.338 214.25 180.871 205.264Z" fill="#D8574C"/>
<path d="M180.871 205.264C185.071 205.39 191.206 205.326 195.064 206.348C192.394 229.7 208.865 227.419 212.398 250.616C222.275 240.715 224.577 234.247 240.099 233.013C243.283 225.054 247.973 220.398 256.356 220.42C258.946 220.427 259.105 216.683 260.538 214.252C262.081 213.153 263.367 213.364 265.308 213.359C267.989 213.353 268.345 209.981 271.896 209.598C274.657 210.306 275.741 212.363 277.149 214.699L277.449 214.732L278.08 216.772C279.758 217.627 278.895 217.443 280.75 217.385L280.811 217.698C285.018 217.715 288.257 217.589 291.918 219.963C293.137 221.898 293.112 221.594 292.696 224.343C292.384 226.375 291.563 226.587 292.824 228.463C297.876 235.952 299.339 235.791 299.168 245.063C302.113 243.166 304.63 239.692 307.41 239.139L308.457 239.873L308.928 242.812C311.224 240.022 310.936 238.002 312.547 236.097C314.69 236.478 314.843 237.162 316.808 238.8C318.039 240.786 318.609 241.39 320.188 243.153C323.813 241.548 324.046 239.621 326.844 239.152L329.226 241.035C328.638 242.371 327.83 243.143 328.675 244.466C335.52 255.215 333.592 264.35 326.973 274.556C331.381 274.584 337.627 274.188 341.509 274.831C347.613 275.843 347.001 285.684 344.001 289.32C342.77 290.809 339.696 290.667 338.123 290.574C331.296 290.112 322.025 290.681 314.886 290.683L262.797 290.685C224.026 290.755 182.579 289.849 144.077 290.796C141.9 290.776 140.893 290.934 138.878 290.06C137.093 288.373 136.142 286.091 136.029 283.642C135.492 272.013 144.851 274.388 152.608 274.462C145.47 269.65 143.334 264.396 140.664 256.626C139.616 253.461 138.157 250.787 139.297 247.898C141.121 246.652 142.723 247.083 145.017 247.227L149.012 248.464C157.886 250.675 161.307 252.001 168.143 258.241C164.483 245.71 165.602 235.635 173.927 225.242C179.695 218.037 180.338 214.25 180.871 205.264Z" fill="#D95445"/>
<path d="M240.099 233.013C243.283 225.055 247.973 220.398 256.356 220.42C258.946 220.427 259.105 216.683 260.538 214.252C262.081 213.153 263.367 213.364 265.308 213.36C267.99 213.353 268.345 209.981 271.896 209.598C274.658 210.307 275.741 212.363 277.15 214.699L277.45 214.732L278.08 216.773C279.758 217.627 278.895 217.443 280.75 217.385L280.811 217.698C285.018 217.715 288.257 217.589 291.918 219.963C293.137 221.898 293.112 221.594 292.696 224.343C292.384 226.375 291.563 226.587 292.825 228.463C297.876 235.952 299.34 235.791 299.168 245.063L291.294 248.896C286.334 251.753 276.096 258.31 273.96 263.861C275.417 265.963 275.313 265.945 275.925 268.491C275.135 270.472 274.468 272.343 273.427 274.207C268.369 274.698 264.01 274.625 258.958 274.594L223.42 274.782C217.34 274.797 207.537 275.002 201.75 274.303C198.021 268.479 200.403 266.187 205.112 262.956C208.002 260.972 207.524 257.747 207.763 254.529C209.233 252.268 209.992 252.058 212.398 250.616C222.275 240.715 224.577 234.247 240.099 233.013Z" fill="#DCC8B5"/>
<path d="M240.099 233.013C243.283 225.055 247.973 220.398 256.356 220.42C258.946 220.427 259.105 216.683 260.538 214.252C262.081 213.153 263.367 213.364 265.308 213.36C267.99 213.353 268.345 209.981 271.896 209.598C274.658 210.307 275.741 212.363 277.15 214.699L277.45 214.732L278.08 216.773C279.758 217.627 278.895 217.443 280.75 217.385L280.811 217.698C285.018 217.715 288.257 217.589 291.918 219.963C293.137 221.898 293.112 221.594 292.696 224.343C292.384 226.375 291.563 226.587 292.825 228.463C297.876 235.952 299.339 235.791 299.168 245.063L291.294 248.896C286.334 251.753 276.096 258.31 273.959 263.861L271.816 263.279C269.808 259.148 276.452 255.292 269.049 250.488L266.606 249.58L266.122 248.457C265.816 245.474 265.314 244.067 263.618 241.717C258.425 238.098 257.139 244.019 253.447 236.354C250.778 233.984 249.933 234.119 246.491 233.991L244.593 235.657C242.493 235.526 242.156 234.64 240.099 233.013Z" fill="#C43931"/>
<path d="M280.811 217.698C285.017 217.715 288.257 217.589 291.918 219.963C293.137 221.898 293.112 221.594 292.696 224.343C292.384 226.375 291.563 226.587 292.824 228.463C297.876 235.952 299.339 235.791 299.168 245.063L291.294 248.896C291.03 244.568 285.073 233.093 282.525 229.374C282.63 227.727 282.581 228.006 282.305 226.334C281.007 224.927 280.437 224.214 279.292 222.673C279.103 220.633 279.892 219.558 280.811 217.698Z" fill="#A1322B"/>
<path d="M277.149 214.699L277.449 214.732L278.08 216.773C279.758 217.627 278.894 217.443 280.75 217.386L280.811 217.698C279.893 219.559 279.103 220.633 279.292 222.673C280.437 224.214 281.007 224.927 282.305 226.334C282.581 228.006 282.63 227.727 282.525 229.374C281.509 229.423 277.89 229.625 277.027 229.247C274.07 227.951 265.908 223.943 267.359 219.969C270.843 219.225 272.38 220.558 275.313 222.416C275.968 219.952 276.555 217.204 277.149 214.699Z" fill="#5D251A"/>
<path d="M246.491 233.991C248.843 228.698 252.204 224.895 258.431 224.966C262.932 228.141 255.896 234.066 253.447 236.354C250.777 233.984 249.932 234.119 246.491 233.991Z" fill="#C43931"/>
<path d="M266.122 248.458C267.947 244.714 268.883 241.806 273.623 242.993C275.006 244.823 274.639 243.8 274.602 246.219C273.206 248.848 271.78 249.399 269.049 250.488L266.606 249.58L266.122 248.458Z" fill="#A1322B"/>
<path d="M201.75 274.304L202.522 274.249C210.966 273.709 245.218 275.387 249.933 273.481C249.957 271.797 249.963 270.911 250.171 269.216C252.119 267.67 256.08 266.407 258.548 265.472C256.937 267.88 254.188 271.063 254.041 273.431C255.725 274.711 256.435 274.339 258.958 274.594L223.42 274.782C217.34 274.797 207.537 275.002 201.75 274.304Z" fill="#D2AE91"/>
<path d="M251.028 249.606C252.571 249.093 254.243 249.938 254.745 251.489C255.241 253.039 254.384 254.701 252.829 255.188C251.292 255.67 249.657 254.822 249.161 253.29C248.665 251.758 249.498 250.113 251.028 249.606Z" fill="#C08E68"/>
<path d="M211.749 267.604C214.762 267.957 217.107 270.443 217.254 273.44C214.78 273.108 213.69 273.181 211.755 271.605C210.855 269.097 210.953 270.381 211.749 267.604Z" fill="#D2AE91"/>
<path d="M239.676 244.27C240.962 243.739 242.438 244.346 242.977 245.628C243.516 246.909 242.916 248.386 241.636 248.932C240.35 249.485 238.856 248.88 238.311 247.587C237.766 246.293 238.378 244.805 239.676 244.27Z" fill="#C08E68"/>
<path d="M308.928 242.812C311.224 240.023 310.936 238.003 312.547 236.097C314.69 236.478 314.843 237.162 316.808 238.8C318.039 240.786 318.609 241.391 320.188 243.153C323.813 241.549 324.046 239.621 326.844 239.152L329.226 241.035C328.638 242.371 327.83 243.144 328.675 244.466C335.52 255.215 333.592 264.351 326.973 274.557C320.005 274.565 312.008 274.741 305.101 274.505C301.727 274.569 300.025 274.754 296.694 274.001C293.994 274.9 276.849 274.773 273.427 274.208C274.468 272.343 275.135 270.472 275.925 268.491C275.313 265.946 275.417 265.963 273.959 263.862C276.096 258.31 286.334 251.754 291.294 248.896L299.168 245.063C302.113 243.167 304.63 239.693 307.41 239.14L308.457 239.873L308.928 242.812Z" fill="#F4B531"/>
<path d="M299.168 245.063C302.113 243.167 304.63 239.693 307.41 239.14L308.457 239.873L308.928 242.812C308.965 248.654 307.789 254.441 305.469 259.804L303.203 262.441L303.472 263.226L303.864 266.699C301.029 270.1 300.105 271.187 296.694 274.001C293.994 274.9 276.849 274.773 273.427 274.208C274.468 272.343 275.135 270.472 275.925 268.491C275.313 265.946 275.417 265.963 273.959 263.861C276.096 258.31 286.334 251.754 291.294 248.896L299.168 245.063Z" fill="#3E6731"/>
<path d="M275.925 268.491L277.137 269.324C281.827 269.678 284.43 264.593 288.728 263.358C288.41 265.012 288.232 264.29 288.875 265.629C291.918 265.738 300.539 264.327 303.472 263.227L303.864 266.699C301.029 270.1 300.105 271.187 296.694 274.001C293.994 274.9 276.849 274.773 273.427 274.208C274.468 272.343 275.135 270.472 275.925 268.491Z" fill="#2A5027"/>
<path d="M320.188 243.153C323.813 241.548 324.046 239.621 326.844 239.152L329.226 241.035C328.638 242.371 327.83 243.143 328.675 244.466C335.52 255.215 333.592 264.351 326.973 274.557C320.005 274.565 312.008 274.741 305.101 274.505L306.51 273.922L314.653 273.898C319.674 268.24 326.85 255.054 323.997 247.577C321.658 246.097 321.223 245.732 320.188 243.153Z" fill="#E89F38"/>
<path d="M305.469 259.804L313.428 262.991L314.708 264.052C314.959 268.599 309.957 271.603 306.509 273.922L305.101 274.505C301.727 274.569 300.025 274.754 296.694 274C300.105 271.187 301.029 270.1 303.864 266.699L303.472 263.226L303.203 262.441L305.469 259.804Z" fill="#D49251"/>
<path d="M305.469 259.804L313.428 262.991C310.906 264.911 308.989 266.685 305.995 267.634C304.287 267.366 304.911 267.792 303.864 266.699L303.472 263.226L303.203 262.441L305.469 259.804Z" fill="#E89F38"/>
<path d="M145.017 247.227L149.013 248.464C157.886 250.675 161.307 252.002 168.143 258.242C170.541 262.73 172.758 266.235 175.893 270.281L180.571 274.391L166.92 274.556C162.307 274.416 157.26 274.49 152.608 274.462C145.47 269.65 143.334 264.396 140.664 256.626C139.616 253.461 138.157 250.787 139.297 247.898C141.121 246.652 142.724 247.083 145.017 247.227Z" fill="#578039"/>
<path d="M166.92 274.556C167.019 274.634 153.99 259.638 153.949 259.583C159.542 260.607 165.752 269.445 175.893 270.281L180.571 274.391L166.92 274.556Z" fill="#3E6731"/>
<path d="M178.611 228.037L179.199 228.574C180.436 232.776 177.429 240.423 173.829 242.903C169.414 236.841 174.196 231.955 178.611 228.037Z" fill="#DE7569"/>
<path d="M182.095 238.334C183.375 237.794 184.845 237.996 185.928 238.861C187.018 239.727 187.539 241.116 187.3 242.482C187.055 243.849 186.088 244.972 184.771 245.411C182.842 246.055 180.748 245.06 180.032 243.157C179.309 241.256 180.222 239.126 182.095 238.334Z" fill="#D8574C"/>
<path d="M144.077 290.796C182.579 289.85 224.026 290.756 262.797 290.685L314.886 290.683C322.025 290.681 331.296 290.113 338.123 290.574L337.327 298.75C331.559 298.603 325.638 298.605 319.858 298.536L184.11 298.617C179.897 298.615 146.97 298.183 145.292 299.206C145.2 300.202 145.096 301.17 145.048 302.169C144.615 299.837 144.285 293.446 144.077 290.796Z" fill="#A1322B"/>
<path d="M225.881 375.638L228.245 375.069C229.041 372.497 228.588 366.307 228.722 363.527C229.108 355.402 227.436 322.708 229.292 317.426C230.1 315.162 231.735 313.286 233.866 312.173C238.856 309.511 247.404 311.756 248.09 316.291C250.661 333.371 249.4 358.69 249.443 375.595C242.664 375.265 232.886 375.608 225.881 375.638Z" fill="#5B1713"/>
<path d="M180.589 375.583C182.763 375.43 183.846 375.668 185.555 374.646C185.775 356.975 182.94 337.203 184.232 319.349C184.361 317.636 186.283 314.611 187.6 313.412C189.682 311.511 192.455 310.561 195.26 310.79C199.148 311.126 203.752 314.92 204.071 318.814C205.589 337.295 204.463 356.252 205.798 374.75C205.804 374.842 207.941 375.442 208.357 375.54L180.589 375.583Z" fill="#5B1713"/>
<path d="M319.858 298.536C325.638 298.605 331.559 298.603 337.327 298.75L332 345.85C331.192 353.191 330.616 360.508 329.538 367.813C328.136 377.267 317.837 375.742 310.716 375.559C316.006 367.342 316.006 327.871 318.474 316.473C319.184 313.186 319.754 302.168 319.858 298.536Z" fill="#C43931"/>
<path d="M272.196 375.62C272.545 362.394 272.814 349.174 272.992 335.948C273.041 333.395 273.084 321.083 273.494 319.064C273.874 317.126 274.817 315.342 276.2 313.938C278.227 311.941 280.97 310.842 283.817 310.884C288.024 310.961 292.941 314.26 293.253 318.674C294.557 337.247 291.833 356.13 292.145 374.714C292.157 375.406 296.866 375.553 297.502 375.577C289.72 375.883 280.125 375.62 272.196 375.62Z" fill="#5B1713"/>
<path d="M52.8893 112.026C63.7558 107.244 78.7028 104.653 90.5001 106.22C111.984 107.76 131.989 117.731 146.151 133.959C148.627 136.847 150.997 139.826 153.256 142.887C159.332 151.837 161.813 157.923 164.977 168.055C166.221 172.029 166.613 173.284 167.123 177.471C171.778 198.004 165.585 222.754 154.554 240.413C152.812 243.167 150.964 245.853 149.013 248.464L145.017 247.227C142.724 247.083 141.121 246.652 139.297 247.899C138.157 250.787 139.616 253.461 140.664 256.626C122.048 271.74 104.662 279.415 80.2783 278.423C77.5443 278.457 73.5778 277.865 70.7637 277.536C57.5134 275.378 44.9911 270.013 34.288 261.909C-2.5629 234.302 -11.6734 177.792 16.6053 141.161C19.4997 135.783 27.9581 126.799 33.1963 123.765C34.5024 122.635 36.2113 121.374 37.6031 120.293L41.7772 117.746C45.5587 115.003 48.6417 113.783 52.8893 112.026Z" fill="#D8574C"/>
<path d="M37.6031 120.293L41.7772 117.746C43.1077 118.221 43.8357 118.474 45.0928 119.106L45.4835 120.367L46.3155 122.052C47.1379 120.471 47.4759 119.288 49.0403 118.562C50.6354 119.613 50.3996 119.7 51.3763 121.503L51.9457 121.279L51.7583 119.258C57.1705 115.936 69.7821 127.511 59.7875 131.361C54.4372 128.237 58.3094 127.171 55.494 124.827C50.2545 125.423 42.8315 131.995 43.1138 137.767C43.9967 139.796 45.5906 141.185 47.7735 141.472C51.6769 141.987 50.6084 146.108 54.0024 144.804C56.9146 140.416 52.1686 134.155 56.5741 131.791C57.4338 132.023 58.2445 132.206 59.0723 132.52C61.5754 134.577 61.1572 134.813 64.5243 133.507C67.4223 133.707 74.7767 140.943 76.7551 143.583C73.9954 144.582 68.841 146.075 67.1462 148.104L70.1434 149.527C71.1709 150.009 71.428 150.004 72.5302 150.203C71.8328 153.412 67.7572 153.836 64.9841 154.048C59.0166 159.568 59.0607 164.017 52.6468 169.26C53.5383 172.395 54.1298 173.82 53.801 177.134L52.6376 177.651C50.7211 175.49 49.2595 171.62 46.855 171.562C38.0237 171.352 32.2528 175.49 35.4796 184.641C39.7945 188.044 42.747 182.226 46.4478 182.636C47.0509 184.329 46.1698 185.911 45.5398 187.734L45.977 188.943C53.2505 191.519 48.6539 192.473 53.373 196.487C57.0664 197.438 60.4286 193.548 63.2023 191.207C67.7762 191.803 73.2349 192.711 77.736 192.93C86.2758 200.27 91.4143 196.986 95.3263 207.592C113.987 213.912 118.388 212.562 107.625 230.364C106.07 232.936 106.22 236.462 103.324 240.658L95.5785 243.374C90.6323 258.472 79.7982 256.561 78.3103 270.363C78.2142 271.254 79.9427 276.825 80.2783 278.422C77.5443 278.457 73.5778 277.865 70.7637 277.536C57.5134 275.377 44.9911 270.012 34.288 261.908C-2.5629 234.301 -11.6734 177.791 16.6053 141.161C19.4997 135.782 27.9581 126.799 33.1963 123.765C34.5024 122.635 36.2113 121.374 37.6031 120.293Z" fill="#791F19"/>
<path d="M16.6053 141.161C21.7781 148.212 7.53036 163.818 20.6918 182.64C21.2803 183.478 21.8828 184.306 22.4987 185.125C21.2478 180.263 19.796 175.098 18.6724 170.244L19.1513 170.997C22.0291 175.604 24.9296 187.093 28.6292 188.764C37.1298 192.602 47.4545 195.745 54.6894 201.979C56.192 203.453 48.9693 214.296 51.9292 217.277C54.3178 221.581 57.0444 225.629 59.3356 229.833C62.2912 231.206 66.4224 232.829 66.9227 236.227C69.4362 253.31 63.5317 259.796 72.0715 276.828C71.2278 277.548 71.6827 277.351 70.7637 277.536C57.5134 275.378 44.9911 270.013 34.288 261.909C-2.5629 234.302 -11.6734 177.792 16.6053 141.161Z" fill="#D8574C"/>
<path d="M37.603 120.293L41.7771 117.746C43.1077 118.221 43.8357 118.474 45.0928 119.106L45.4834 120.367L46.3155 122.052C41.7832 124.188 38.0904 124.973 33.1963 123.765C34.5023 122.635 36.2113 121.374 37.603 120.293Z" fill="#D8574C"/>
<path d="M37.603 120.293L41.7771 117.746C43.1077 118.221 43.8357 118.474 45.0928 119.106L45.4834 120.367C44.5766 121.732 44.5833 121.612 43.0893 122.348C40.6229 122.38 39.8373 121.606 37.603 120.293Z" fill="#791F19"/>
<path d="M129.303 198.589C129.59 186.987 128.94 188.969 135.489 179.45C136.233 178.368 138.037 174.184 138.794 173.26C140.927 170.656 149.428 170.264 153.022 169.83L155.8 175.07C160.52 176.652 162.24 177.049 167.123 177.471C171.778 198.004 165.585 222.754 154.555 240.412C152.813 243.167 150.964 245.853 149.013 248.464L145.017 247.227C147.323 236.493 147.649 233.255 152.665 223.457C151.857 218.703 151.846 215.856 151.677 211.077C151.61 209.193 150.188 208.653 148.66 207.541C136.716 209.334 135.348 209.07 129.303 198.589Z" fill="#791F19"/>
<path d="M52.8893 112.026C63.7559 107.244 78.7028 104.653 90.5001 106.22C94.744 110.497 94.226 111.117 93.3933 116.76C84.0427 120.009 85.5478 120.273 81.3327 129.187C72.041 132.164 73.8362 119.582 68.1755 116.085C63.3364 113.095 54.3619 118.157 52.8893 112.026Z" fill="#791F19"/>
<path d="M153.256 142.887C159.332 151.837 161.813 157.923 164.977 168.055C157.805 164.551 160.236 160.748 155.301 159.732L154.816 160.329C156.933 164.472 157.353 165.094 158.874 169.853C157.714 168.376 156.787 166.443 155.507 165.121C149.463 158.884 146.297 165.855 142.687 169.169C139.244 169.608 137.494 166.171 136.697 163.235C137.529 158.3 140.53 160.212 143.425 156.967C142.788 155.452 142.908 155.438 142.967 153.76C144.907 149.523 149.401 145.453 153.256 142.887Z" fill="#791F19"/>
<path d="M99.2046 127.114C111.515 126.611 116.946 139.953 119.5 150.182C120.599 154.582 123.13 163.277 118.409 165.891C115.633 165.595 111.852 163.255 108.687 162.095L108.145 161.9C105.622 165.071 103.014 168.703 100.563 171.973C91.893 167.519 89.7567 166.172 94.5596 157.354C91.8146 144.638 94.7684 138.836 99.2046 127.114Z" fill="#DE7569"/>
<path d="M139.465 136.552C142.329 138.442 144.405 145.966 143.335 149.218L142.054 149.793C140.011 149.033 140.167 149.046 138.763 147.341L138.937 146.01C136.521 146.033 137.659 147.131 134.748 146.493L134.431 145.277C135.337 141.669 137.278 139.872 139.465 136.552Z" fill="#791F19"/>
<path d="M62.5202 184.244C59.065 185.051 53.0693 183.474 50.6311 180.983L51.0309 180.111C55.9514 179.208 58.6468 180.634 63.3193 182.327C65.9326 182.242 66.4414 182.102 68.8716 182.858L69.8348 183.88C68.4522 186.654 64.5874 185.651 62.5202 184.244Z" fill="#791F19"/>
<path d="M116.597 123.292C120.685 123.076 125.507 124.059 124.992 129.123C121.705 129.158 119.316 129.412 116.852 127.139C115.924 124.677 116.027 125.912 116.597 123.292Z" fill="#791F19"/>
<path d="M76.223 144.529C78.1658 144.802 78.8014 145.008 79.9372 146.475C79.8252 148.719 80.1699 147.624 78.1989 149.623C76.3712 149.103 75.4423 149.057 74.244 147.602C74.4822 145.691 74.4834 146.241 76.223 144.529Z" fill="#A1322B"/>
<path d="M278.533 5.68934e-05C289.536 -0.0109646 293.572 1.57552 302.26 8.09228C322.234 1.96801 335.288 12.2627 341.068 30.9049L342.084 31.4229C361.06 41.2749 362.854 63.8444 353.865 81.1494C354.557 86.0907 355.102 89.3506 354.41 94.4015C353.228 102.89 348.691 110.55 341.815 115.668C333.788 121.569 326.618 122.061 317.323 120.623C312.608 126.489 312.002 127.306 305.34 131.236C290.204 137.758 276.819 133.318 266.679 121.154C239.677 123.973 223.542 99.5247 233.994 74.9523C221.252 56.4356 226.641 34.9081 247.355 25.5913C252.125 10.2402 262.369 1.33978 278.533 5.68934e-05Z" fill="#C43931"/>
<path d="M287.681 32.63C289.671 32.5866 291.331 32.2369 292.825 33.3703C294.343 36.0289 293.694 40.4547 293.639 43.905L303.895 43.9387C303.993 40.11 302.677 36.0112 305.322 33.1444C307.281 32.6355 307.14 32.6521 309.13 33.0507C310.643 36.0204 309.847 55.8744 309.761 60.6607C306.963 60.6632 306.754 61.1126 304.679 59.9266C303.215 57.1798 303.864 52.7834 303.938 49.2909L293.608 49.3356C293.51 53.2335 294.925 57.2288 292.157 60.1078C290.192 60.5885 290.222 60.7403 288.3 60.2566C286.836 56.9887 287.596 37.6087 287.681 32.63Z" fill="#FAF8F7"/>
<path d="M286.248 71.9295C289.432 71.8909 301.195 71.2951 302.866 72.7702L302.964 74.4295C299.541 79.4804 291.986 75.1637 290.394 79.7529C292.604 84.4787 295.537 81.1496 299.725 82.7997C301.274 83.409 303.099 84.434 303.521 86.2188C305.462 94.42 303.472 98.4417 295.825 101.376C290.253 101.53 287.393 100.414 284.54 95.5865C284.889 93.6253 284.405 94.3901 286.034 93.223C291.355 93.2359 292.414 98.0039 297.294 94.7611C299.192 91.5361 298.537 89.1144 295.647 86.8575C290.963 85.6029 289.567 90.7266 285.385 87.3614C284.926 83.9539 285.911 75.7209 286.248 71.9295Z" fill="#FAF8F7"/>
<path d="M267.665 71.4419C268.094 71.4119 268.516 71.3868 268.938 71.3679C273.757 71.164 280.431 72.5588 280.248 78.7388C280.027 85.9738 274.161 90.7846 269.349 95.4033C273.157 95.2526 279.023 94.3072 281.148 98.1293C279.042 101.806 272.637 100.91 269.006 100.811C265.54 100.927 262.901 101.723 260.856 98.5946C261.077 92.88 274.486 86.7288 274.357 79.277C270.371 73.0101 267.745 81.4733 261.309 79.7589C260.63 75.9724 264.873 72.9984 267.665 71.4419Z" fill="#FAF8F7"/>
<path d="M270.959 32.3806C275.668 32.3041 283.358 34.1888 282.997 40.2169C277.002 43.5717 268.253 31.3973 266.63 44.9164C265.528 54.1266 272.324 59.859 279.041 51.2941C280.989 52.0699 282.832 52.3118 283.315 54.3832C276.047 70.7305 254.084 54.434 261.634 39.874C263.96 35.3962 266.342 33.9065 270.959 32.3806Z" fill="#FAF8F7"/>
<path d="M316.435 86.311C318.645 82.0812 318.743 81.2002 322.987 79.3755L324.132 79.9296C324.781 83.9016 321.884 86.8376 319.509 90.2243C321.921 93.7101 323.678 96.2335 325.711 99.963L325.215 100.973C323.36 100.959 322.931 100.927 321.107 100.615C318.609 99.0017 317.721 96.6786 316.233 94.0022C314.769 96.6529 311.053 104.291 307.195 99.8852C307.489 97.5217 311.494 92.7598 313.226 90.3161C311.169 86.8395 308.91 83.5765 306.65 80.2309C313.68 80.09 313.141 80.5217 316.435 86.311Z" fill="#FAF8F7"/>
<path d="M321.027 47.8594C322.46 47.9898 322.362 47.9702 323.623 48.6743C324.695 51.3581 324.052 54.6143 324.138 57.9287C325.552 59.307 325.283 58.6788 325.871 60.3663C325.05 62.0195 324.027 63.1792 322.895 64.6298L321.872 64.4963L321.75 63.2441L320.617 61.8708C318.584 61.0931 315.272 61.2125 312.988 61.1464C315.143 56.2112 318.021 52.2759 321.027 47.8594Z" fill="#FAF8F7"/>
<path d="M325.497 228.493C324.083 224.054 323.354 218.194 328.326 215.559C333.384 215.063 335.208 218.495 336.078 222.801C338.827 225.369 350.412 225.243 341.331 234.549C339.709 236.218 335.674 235.225 333.592 234.8C332.147 236.851 330.616 238.958 329.226 241.035L326.844 239.152C324.046 239.621 323.813 241.548 320.188 243.153C318.609 241.39 318.039 240.786 316.808 238.8L325.497 228.493Z" fill="#D2AE91"/>
<path d="M308.738 139.811C314.659 139.515 319.699 144.082 319.98 150.004C320.262 155.926 315.682 160.953 309.761 161.222C305.775 161.403 302.021 159.355 300.013 155.906C298.004 152.458 298.078 148.179 300.209 144.803C302.07 141.849 305.254 139.986 308.738 139.811Z" fill="#C43931"/>
<path d="M180.871 205.264C163.98 179.831 209.116 189.932 199.564 202.799C198.413 204.369 196.858 205.595 195.064 206.348C191.206 205.326 185.071 205.39 180.871 205.264Z" fill="#DE7569"/>
<path d="M287.406 165.419C291.422 164.937 295.09 167.746 295.672 171.748C296.253 175.752 293.535 179.487 289.543 180.166C286.879 180.619 284.173 179.592 282.483 177.48C280.787 175.369 280.37 172.506 281.393 170.001C282.422 167.495 284.718 165.742 287.406 165.419Z" fill="#C43931"/>
<path d="M174.754 100.016C170.817 96.7382 166.987 90.5411 172.427 86.7717C177.932 86.4901 179.309 91.6708 180.399 95.9502C179.199 97.7528 178.703 98.3884 177.889 100.451L174.754 100.016Z" fill="#84716A"/>
<path d="M227.54 147.107C229.255 143.546 230.553 139.67 235.329 140.444C241.519 144.874 236.327 149.796 231.398 152.045L229.041 152.015C227.712 150.731 227.804 149.052 227.54 147.107Z" fill="#84716A"/>
<path d="M182.989 96.9856C187.306 96.0316 191.084 92.5629 194.311 96.9611C194.495 102.43 189.688 104.644 184.741 104.053C183.553 103.41 182.402 102.124 181.373 101.139C182.996 98.6958 183.106 99.3583 182.989 96.9856Z" fill="#84716A"/>
<path d="M221.589 152.416C217.474 151.49 214.315 150.599 214.003 145.733C214.988 143.372 214.26 144.333 216.286 142.749C220.505 141.953 222.036 144.349 223.769 147.706C223.91 149.768 223.818 150.141 224.583 152.092L221.589 152.416Z" fill="#84716A"/>
<path d="M277.45 214.732C278.442 211.689 282.121 200.754 286.108 202.416C288.538 207.491 282.942 212.025 280.75 217.386C278.895 217.443 279.758 217.627 278.08 216.773L277.45 214.732Z" fill="#3D4727"/>
<path d="M180.399 95.9503L181.703 95.4311C181.716 93.735 181.477 93.8893 182.254 92.4216L183.057 92.418L183.534 93.4895L185.31 93.4032C184.838 95.5358 183.938 94.8868 182.989 96.9858C183.106 99.3585 182.995 98.6959 181.373 101.14C180.362 103.13 179.677 104.181 179.279 106.404C176.542 106.247 177.766 106.647 175.458 105.134C176.027 103.48 177.007 101.999 177.889 100.451C178.703 98.3885 179.199 97.753 180.399 95.9503Z" fill="#171311"/>
<path d="M223.769 147.706C224.749 146.415 224.528 146.592 225.741 145.545L227.541 147.107C227.804 149.052 227.712 150.731 229.041 152.015C229.163 154.354 229.182 154.325 228.649 156.592C227.43 156.571 226.953 156.336 225.747 156.025C225.563 154.516 225.11 153.506 224.583 152.092C223.818 150.141 223.91 149.768 223.769 147.706Z" fill="#171311"/>
<path d="M181.373 101.14C182.401 102.124 183.553 103.41 184.74 104.053C185.132 106.279 185.616 107.679 184.918 109.81L183.975 110.475C179.083 109.179 181.514 108.531 179.279 106.404C179.677 104.181 180.362 103.13 181.373 101.14Z" fill="#5C5756"/>
<path d="M224.583 152.092C225.11 153.506 225.563 154.516 225.746 156.025C223.028 158.135 222.33 159.25 219.048 157.892L218.717 156.5C219.458 154.362 220.027 154.005 221.589 152.416L224.583 152.092Z" fill="#5C5756"/>
<path d="M175.458 105.134C172.672 105.638 171.509 106.408 169.888 103.947L170.345 102.468C171.998 100.747 172.519 100.734 174.754 100.016L177.889 100.451C177.007 101.999 176.027 103.48 175.458 105.134Z" fill="#84716A"/>
<path d="M229.041 152.015L231.398 152.045C233.143 154.317 234.013 155.453 232.782 158.353C230.578 159.111 230.229 158.406 228.649 156.592C229.182 154.325 229.163 154.354 229.041 152.015Z" fill="#5C5756"/>
</svg>
