<svg width="359" height="343" viewBox="0 0 359 343" fill="none" xmlns="http://www.w3.org/2000/svg">
<path d="M235.967 109.817C237.477 111.088 237.583 111.044 238.58 112.701C236.918 121.776 218.049 132.526 209.792 135.963C193.181 142.878 174.624 142.708 158.109 135.48C141.084 128.05 127.787 114.05 121.244 96.6638C114.081 78.2414 114.611 57.7145 122.715 39.6858C130.189 23.028 144.094 10.1102 161.257 3.88188C164.925 2.55318 178.322 -1.35455 182.311 0.482361C182.985 0.792799 183.128 2.62114 183.341 3.61001L186.428 2.78033C187.199 1.56797 187.791 0.124771 189.454 0.183552C242.44 2.0572 271.716 62.4843 244.095 106.652C242.677 108.918 239.971 106.923 238.646 106.001L235.967 109.817Z" fill="#C43931"/>
<path d="M186.428 2.78065C187.199 1.56829 187.791 0.125086 189.454 0.183867C242.44 2.05752 271.716 62.4846 244.095 106.652C242.677 108.919 239.971 106.923 238.646 106.002C232.697 100.999 224.5 95.3826 218.12 90.7235C207.705 83.1224 197.378 75.4024 187.141 67.5649C187.085 58.5236 188.146 7.83645 186.428 2.78065Z" fill="#AD9B90"/>
<path d="M183.341 3.61044L186.429 2.78076C188.146 7.83656 187.086 58.5237 187.141 67.565C197.378 75.4025 207.706 83.1225 218.12 90.7236C224.5 95.3827 232.697 100.999 238.646 106.002L235.967 109.817C221.905 98.0682 198.283 81.1649 183.057 69.931C183.024 48.7159 182.515 24.7221 183.341 3.61044Z" fill="#5B1713"/>
<path d="M160.646 233.098C169.787 236.732 176.53 238.011 186.136 233.831C186.603 233.627 187.068 233.414 187.528 233.194C187.561 235.092 187.519 239.795 187.795 241.44C201.158 243.687 212.461 248.786 220.111 260.203C222.098 263.168 223.172 265.714 225.143 268.691L225.415 269.758C229.23 284.434 239.07 311.744 230.386 326.165C229.099 328.281 227.444 330.15 225.5 331.684C223.703 332.404 221.193 333.528 219.377 333.958C219.389 336.452 219.648 338.507 218.673 340.754C214.547 343.849 143.613 341.506 132.674 341.995C131.983 342.026 131.594 341.561 131.033 341.154C130.191 338.756 130.545 337.241 130.727 334.628L125.493 332.818L124.933 333.256C124.041 336.499 122.582 339.384 118.644 339.601C109.716 339.997 100.403 339.964 91.4741 339.859C86.4441 339.8 69.343 340.893 66.5852 337.177C63.9817 328.71 65.8535 286.552 65.6153 275.382C65.5614 272.881 66.8087 265.599 67.7504 262.971C70.2976 255.865 77.9992 248.857 84.9807 246.012C92.602 242.943 101.153 243.163 108.607 246.62C117.346 250.639 121.77 256.741 124.921 265.446C133.383 251.039 143.638 244.282 160.267 241.479C160.635 239.628 160.598 235.19 160.646 233.098Z" fill="#791F19"/>
<path d="M124.933 333.257C124.041 336.499 122.582 339.384 118.644 339.601C109.716 339.997 100.403 339.964 91.4741 339.859C86.4441 339.8 69.343 340.893 66.5852 337.177C63.9817 328.71 65.8535 286.552 65.6153 275.382C65.5614 272.881 66.8087 265.599 67.7504 262.971C70.2976 255.865 77.9992 248.857 84.9807 246.012C92.602 242.943 101.153 243.163 108.607 246.62C117.346 250.639 121.77 256.741 124.921 265.446C118.724 278.601 110.351 306.91 115.536 321.699C117.437 327.118 120.555 329.877 124.933 333.257Z" fill="#DE7569"/>
<path d="M130.727 334.628C152.861 337.793 179.157 315.627 197.019 309.013C191.737 316.47 184.742 320.729 177.376 325.994C189.9 331.782 205.52 336.564 219.377 333.958C219.389 336.452 219.648 338.507 218.673 340.754C214.547 343.85 143.613 341.506 132.674 341.996C131.983 342.026 131.594 341.561 131.033 341.154C130.191 338.756 130.545 337.241 130.727 334.628Z" fill="#5B1713"/>
<path d="M160.646 233.098C169.787 236.732 176.53 238.011 186.136 233.831C186.603 233.627 187.068 233.414 187.528 233.194C187.561 235.092 187.519 239.795 187.795 241.44C183.595 250.022 166.518 248.338 160.267 241.479C160.635 239.628 160.598 235.19 160.646 233.098Z" fill="#5B1713"/>
<path d="M144.239 287.708C151.75 289.529 155.609 292.099 161.233 297.261L161.562 298.076C159.673 299.905 144.737 303.861 140.879 304.991C128.025 297.471 134.089 301.377 136.775 289.631C138.154 288.222 139.481 288.177 141.439 287.743L144.239 287.708Z" fill="#DE7569"/>
<path d="M187.494 291.676C194.763 290.189 197.658 290.402 204.457 292.531L207.726 294.227C210.831 297.737 210.179 302.232 210.131 306.913C204.883 307.595 200.73 308.411 195.533 309.502C194.141 301.991 191.956 297.686 187.494 291.676Z" fill="#DE7569"/>
<path d="M161.233 297.261C163.057 292.25 177.531 289.454 182.334 290.475L182.777 291.298C179.811 294.304 165.769 298.096 161.562 298.076L161.233 297.261Z" fill="#5B1713"/>
<path d="M204.993 275.884C206.021 279.622 208.973 290.665 207.726 294.227L204.457 292.532C204.258 286.063 204.157 282.295 204.993 275.884Z" fill="#5B1713"/>
<path d="M141.439 287.743C141.774 285.137 141.965 280.906 143.434 279.066C144.481 281.345 144.227 285.076 144.24 287.707L141.439 287.743Z" fill="#5B1713"/>
<path d="M307.703 247.34C307.74 245.818 307.665 236.942 309.025 236.507C313.852 234.962 333.999 234.484 337.844 236.57C338.742 239.302 338.531 244.483 338.452 247.517C343.341 247.57 349.537 247.139 354.344 248.143C358.915 249.098 359.612 254.505 357.511 258.235C355.997 258.846 355.895 258.924 354.315 259.306C354.076 261.521 353.739 264.041 353.581 266.231C353.44 275.107 349.238 332.182 346.896 337.815C345.583 338.975 344.215 339.341 342.517 339.616C337.827 340.378 301.83 340.07 300.26 338.585C298.592 337.008 298.053 333.685 297.694 331.517C296.534 324.504 296.425 317.009 295.883 309.911L292.612 266.103C292.398 264.225 292.483 261.17 292.472 259.185C290.694 259.12 290.621 259.285 289.167 258.351C283.536 244.845 300.078 247.14 307.703 247.34Z" fill="#A1322B"/>
<path d="M307.703 247.34C307.74 245.818 307.665 236.942 309.025 236.507C313.852 234.962 333.999 234.484 337.844 236.57C338.742 239.302 338.531 244.483 338.452 247.517C343.341 247.57 349.537 247.139 354.344 248.143C358.915 249.098 359.612 254.505 357.511 258.235C355.997 258.846 355.895 258.924 354.315 259.306C354.076 261.521 353.739 264.041 353.581 266.231L292.612 266.103C292.398 264.225 292.483 261.17 292.472 259.185C290.694 259.12 290.621 259.285 289.167 258.351C283.536 244.845 300.078 247.14 307.703 247.34Z" fill="#D8574C"/>
<path d="M292.472 259.185C312.734 259.796 333.549 258.68 354.315 259.306C354.076 261.521 353.739 264.04 353.581 266.231L292.612 266.103C292.398 264.225 292.483 261.17 292.472 259.185Z" fill="#791F19"/>
<path d="M307.703 247.34C307.74 245.818 307.665 236.942 309.025 236.507C313.852 234.962 333.999 234.484 337.843 236.57C338.742 239.302 338.53 244.483 338.451 247.517C330.1 246.884 316.307 247.121 307.703 247.34Z" fill="#A1322B"/>
<path d="M332.986 276.574C339.329 276.6 340.033 280.087 339.105 285.624C337.795 293.461 338.703 320.303 335.628 325.941C333.425 326.25 332.343 326.543 330.478 325.393C328.936 323.138 328.885 322.533 328.98 318.95C329.32 306.179 329.015 292.894 330.014 280.191C330.067 279.521 332.406 277.165 332.986 276.574Z" fill="#D8574C"/>
<path d="M309.514 276.487C312.066 276.596 312.396 276.466 314.441 277.802C315.318 278.903 316.001 280.029 316.02 282.017C316.15 295.782 316.891 310.838 315.656 324.467C314.917 325.351 314.316 326.07 313.853 326.623C313.103 326.377 310.379 325.552 310.27 324.833C308.997 316.45 304.295 282.083 309.514 276.487Z" fill="#D8574C"/>
<path d="M25.2288 244.373C40.5505 242.672 53.1224 249.337 57.6565 264.623C58.5284 267.628 59.0489 270.724 59.2075 273.849C59.5944 280.228 59.4481 287.198 59.3373 293.64C59.033 306.302 59.5822 318.873 59.2901 331.535C59.0985 339.828 54.3158 339.874 47.3275 339.955C43.2349 340.003 39.1049 339.859 35.0257 339.791C28.0877 339.836 9.22785 341.359 3.53452 338.715C2.07289 338.037 1.34284 336.917 0.897083 335.394C-0.30328 331.292 -0.205922 277.653 0.639916 271.679C1.33439 266.774 2.65085 262.053 5.25057 257.782C9.89019 250.16 16.8605 246.418 25.2288 244.373Z" fill="#DE7569"/>
<path d="M225.143 268.692C226.899 260.295 229.623 254.068 237.189 249.06C244.222 244.435 252.845 242.901 261.042 244.817C268.705 246.606 275.292 251.477 279.247 258.281C281.325 261.904 282.571 266 283.08 270.136C283.852 276.423 284.104 331.394 282.683 335.843C282.252 337.189 281.632 338.207 280.339 338.877C277.065 340.571 234.102 340.683 229.516 338.908C227.797 338.25 226.468 336.849 225.902 335.098C225.497 333.854 225.512 332.951 225.5 331.684C227.444 330.15 229.099 328.281 230.386 326.166C239.07 311.744 229.23 284.435 225.415 269.758L225.143 268.692Z" fill="#DE7569"/>
<path d="M54.5368 77.292C72.3395 77.8694 88.2466 87.8383 92.4935 105.915C94.8907 115.713 93.1677 126.065 87.7262 134.557C81.4929 144.258 72.6683 148.624 61.8097 150.995C61.8924 155.653 62.5935 162.091 62.9339 166.884L58.2418 163.478C54.3947 160.069 50.9824 155.814 48.0506 151.6C40.087 149.347 34.5554 147.767 28.1189 142.209C20.7455 135.853 16.2355 126.802 15.6027 117.088C14.1423 93.4838 32.0719 78.445 54.5368 77.292Z" fill="#DE7569"/>
<path d="M53.826 93.707C63.9958 94.2306 70.5278 100.872 66.066 110.93C64.065 115.441 58.4238 116.541 57.8115 121.403C57.4429 124.331 56.6353 124.407 54.1805 125.568C49.5913 125.372 50.3965 120.219 51.31 117.139L51.5146 116.47C53.1555 114.144 67.6041 104.136 54.7647 100.423C49.9771 99.0396 50.3224 108.94 44.3696 106.129C42.2816 105.142 42.7923 105.496 42.0526 103.549C43.2791 97.7507 48.3091 94.5973 53.826 93.707Z" fill="#5B1713"/>
<path d="M51.9976 129.455C53.4623 128.65 55.2478 128.7 56.6652 129.586C58.0827 130.472 58.9099 132.056 58.8273 133.725C58.7452 135.395 57.7656 136.889 56.2679 137.631C54.0195 138.746 51.2929 137.858 50.1307 135.634C48.9692 133.41 49.7982 130.665 51.9976 129.455Z" fill="#5B1713"/>
<path d="M303.531 77.8518C314.469 77.2744 322.797 78.1653 332.033 84.7237C339.937 90.2522 345.305 98.7087 346.945 108.214C348.639 117.806 346.257 127.671 340.371 135.432C333.667 144.313 323.429 149.268 312.561 150.725C310.87 152.907 308.878 155.037 307.029 157.104C303.653 160.416 301.335 161.679 297.322 163.966C298.268 159.648 298.974 154.395 299.681 149.96C286.1 145.491 275.175 138.048 271.574 123.337C269.32 113.934 270.873 104.02 275.895 95.7574C282.522 84.8664 291.727 80.7351 303.531 77.8518Z" fill="#DE7569"/>
<path d="M324.603 109.793C327.448 108.72 330.629 110.121 331.757 112.944C332.886 115.768 331.548 118.975 328.747 120.159C326.886 120.946 324.744 120.667 323.148 119.427C321.552 118.187 320.75 116.182 321.052 114.183C321.354 112.185 322.712 110.506 324.603 109.793Z" fill="#5B1713"/>
<path d="M290.523 109.797C293.337 108.901 296.359 110.379 297.378 113.152C298.397 115.925 297.052 119.008 294.327 120.148C292.455 120.931 290.304 120.623 288.726 119.346C287.148 118.069 286.398 116.03 286.774 114.035C287.149 112.041 288.589 110.413 290.523 109.797Z" fill="#5B1713"/>
<path d="M307.523 109.821C310.365 108.775 313.52 110.215 314.591 113.048C315.662 115.881 314.25 119.048 311.426 120.144C308.567 121.254 305.352 119.82 304.267 116.952C303.183 114.083 304.645 110.881 307.523 109.821Z" fill="#5B1713"/>
<path d="M160.646 233.098C151.75 226.317 146.548 220.485 145.009 209.065C139.018 164.63 197.992 154.304 203.674 199.962C205.425 214.031 198.559 224.69 187.528 233.195C187.068 233.414 186.603 233.627 186.136 233.831C176.53 238.012 169.787 236.732 160.646 233.098Z" fill="#791F19"/>
<path d="M92.7764 192.917C121.045 190.664 125.957 231.452 99.7959 238.642C89.2802 238.829 81.4402 234.723 77.7976 224.363C75.4623 217.754 75.8805 210.484 78.9586 204.187C82.2613 197.549 86.2928 195.226 92.7764 192.917Z" fill="#DE7569"/>
<path d="M250.946 192.906C278.177 190.856 283.694 230.587 257.756 238.552C228.881 239.334 225.316 201.628 250.946 192.906Z" fill="#DE7569"/>
<path d="M28.5739 194.742C52.6742 193.793 60.3256 230.087 33.443 238.77C6.1664 239.301 2.40446 201.246 28.5739 194.742Z" fill="#DE7569"/>
</svg>
