<svg width="382" height="233" viewBox="0 0 382 233" fill="none" xmlns="http://www.w3.org/2000/svg">
<path d="M9.91705 13.2374C11.1478 -3.79077 129.972 -4.42758 142.744 11.5413C142.01 17.995 144.055 31.1167 141.66 36.2968C140.754 36.9948 139.897 37.6561 138.979 38.3297L140.007 43.6935C147.079 50.288 151.715 56.013 151.861 66.2997C152.211 90.9756 151.629 115.737 151.77 140.419L151.904 182.252C151.984 198.368 154.445 209.022 142.695 220.9C141.128 222.48 143.418 223.448 141.618 226.228C139.315 227.532 138.801 227.997 136.266 228.456C120.897 232.259 89.2962 233.532 72.7946 232.485C68.9003 232.234 61.9323 230.287 57.8911 229.277C53.8621 229.154 49.4597 227.954 45.4307 227.385C34.0847 225.781 19.0097 225.823 9.34758 218.843C4.30831 215.206 1.91418 209.512 0.91 203.517C-0.418701 195.551 -0.283952 65.9813 1.25906 59.3807C3.08985 51.5432 8.25153 49.0572 12.3111 43.0873C12.4887 42.824 12.6601 42.5545 12.8316 42.2851C12.7887 40.8585 13.0887 39.4686 13.2969 38.0358C12.2499 37.4908 11.8397 37.1479 10.8783 36.4621C9.09041 32.4025 10.0824 18.7788 9.91705 13.2374Z" fill="#DCE2E5"/>
<path d="M109.974 132.098C113.893 123.93 122.722 126.814 130.229 116.398C137.638 116.803 139.101 117.929 136.921 125.063C138.973 133.035 143.24 131.437 141.397 144.16C141.765 149.677 138.997 152.861 138.44 158.366C140.956 161.293 141.612 163.166 142.652 166.889C141.765 170.098 138.581 177.176 138.881 178.921C137.662 181.309 136.487 183.623 135.17 185.968C135.084 189.581 135.066 193.194 135.109 196.8C135.029 202.305 135.752 205.103 129.445 206.585L128.784 206.652C116.532 207.326 104.867 208.618 92.37 209.15C81.7588 209.236 71.1414 209.212 60.5302 209.065C58.4667 209.15 53.7765 208.801 52.2335 209.732L51.9518 211.122C47.5126 215.769 33.2398 215.996 27.8821 212.904C25.09 211.287 24.4104 209.616 23.6144 206.701L23.1919 206.689C19.5793 208.514 16.2361 209.242 12.5011 210.595L12.0663 207.791C11.607 200.848 12.0785 199.733 16.2728 194.075L16.2851 187.824C12.4337 182.785 12.2562 178.351 11.9071 172.265C13.4746 169.246 13.5787 169.081 16.328 167.146C16.4321 164.207 16.2116 160.031 16.1381 157L15.6666 156.749C13.2113 152.169 10.5233 148.795 11.0805 143.701C12.6786 142.403 14.5829 141.209 16.3218 140.058C16.3953 130.316 19.2854 131.449 27.7352 132.031C33.8582 132.551 38.9526 132.612 45.0634 132.667C48.5841 133.12 50.2435 133.408 53.8561 133.157L63.2489 133.384L68.7351 133.408C71.2394 133.408 74.3438 133.494 76.7869 133.255L76.7012 130.071L80.2648 126.134C84.2386 128.522 88.237 130.867 92.2537 133.182C94.5193 133.237 96.8093 133.329 99.0748 133.267C102.743 133.225 106.337 133.341 109.937 132.698L109.974 132.098Z" fill="#F4B531"/>
<path d="M109.974 132.098C113.892 123.93 122.722 126.814 130.229 116.398C137.638 116.803 139.101 117.929 136.921 125.063C138.972 133.035 143.24 131.437 141.397 144.16C139.064 141.589 138.513 141.772 135.06 141.478C135.139 133.721 133.964 131.308 125.122 132.012C119.899 132.429 115.172 132.698 109.937 132.698L109.974 132.098Z" fill="#FAF8F7"/>
<path d="M23.6143 206.701C31.0293 206.738 39.4607 207.767 46.9614 208.256C50.2128 208.465 57.7135 208.612 60.5301 209.065C58.4666 209.15 53.7764 208.801 52.2334 209.732L51.9517 211.122C47.5125 215.769 33.2397 215.996 27.882 212.904C25.0899 211.287 24.4103 209.616 23.6143 206.701Z" fill="#4079B9"/>
<path d="M135.072 157.282L138.44 158.366C140.956 161.293 141.612 163.166 142.653 166.889C141.765 170.098 138.581 177.176 138.881 178.921C137.662 181.309 136.487 183.624 135.17 185.969C135.017 176.411 134.986 166.846 135.072 157.282Z" fill="#C08E68"/>
<path d="M135.06 141.479C138.513 141.772 139.064 141.589 141.397 144.16C141.765 149.677 138.997 152.861 138.44 158.366L135.072 157.282L135.06 141.479Z" fill="#AD9B90"/>
<path d="M12.0664 207.791C11.6072 200.847 12.0786 199.733 16.2729 194.075C16.2301 201.625 15.0177 204.533 23.192 206.689C19.5794 208.513 16.2362 209.242 12.5012 210.595L12.0664 207.791Z" fill="#BBCCD9"/>
<path d="M76.7012 130.071L80.2648 126.134C84.2386 128.522 88.237 130.867 92.2537 133.182C86.0572 133.598 83.0018 133.69 76.7869 133.255L76.7012 130.071Z" fill="#0A59A3"/>
<path d="M11.9072 172.265C13.4747 169.247 13.5788 169.081 16.328 167.146C16.3464 173.974 16.4566 181.009 16.2851 187.824C12.4337 182.785 12.2562 178.352 11.9072 172.265Z" fill="#81A3BF"/>
<path d="M16.3218 140.058C16.3157 145.471 16.4626 151.655 16.1381 157.001L15.6666 156.75C13.2113 152.169 10.5233 148.796 11.0805 143.701C12.6786 142.403 14.5829 141.209 16.3218 140.058Z" fill="#81A3BF"/>
<path d="M66.9778 176.374C70.6332 176.435 78.6911 175.835 80.0321 179.809C76.3093 190.077 80.969 183.348 80.5465 192.869C75.9236 196.384 73.1008 195.655 67.1002 195.686L66.9778 176.374Z" fill="#033E73"/>
<path d="M70.9884 187.089C72.6845 187.303 73.7254 187.524 75.3786 187.885C76.9522 189.624 76.4992 188.84 76.64 191.651C74.7357 192.006 73.6765 192.391 71.8212 191.828C70.6333 189.856 71.0558 189.777 70.9884 187.089Z" fill="#F4B531"/>
<path d="M71.5455 180.164C72.2374 179.527 73.2232 179.319 74.1111 179.631C75.0051 179.944 75.648 180.721 75.7949 181.652C75.9358 182.583 75.5561 183.513 74.803 184.083C73.7192 184.891 72.1823 184.714 71.3128 183.673C70.4433 182.626 70.5474 181.089 71.5455 180.164Z" fill="#F4B531"/>
<path d="M28.8374 147.853C32.4867 147.847 39.8956 147.124 41.457 150.877C38.6833 161.409 43.8572 155.751 41.9223 164.52C37.8199 167.287 33.8584 166.687 28.7395 166.785C28.6905 160.478 28.7211 154.165 28.8374 147.853Z" fill="#033E73"/>
<path d="M32.4622 158.666C33.9807 158.746 35.3706 158.899 36.8769 159.064C38.6219 160.595 38.077 159.915 38.5913 162.658C36.4177 163.148 36.3258 163.209 33.9868 163.179C32.3519 161.476 32.8602 161.593 32.4622 158.666Z" fill="#F4B531"/>
<path d="M49.7476 147.951C50.9294 147.981 51.854 148.061 53.0357 148.153C55.3012 150.039 60.0283 164.636 59.4956 166.565L57.8913 166.993C54.8359 165.499 56.4156 164.262 53.5072 162.934C52.1969 162.86 51.3519 162.922 50.0354 162.995C48.1924 164.85 46.6188 166.461 43.8511 166.124C43.5511 164.599 48.8414 150.571 49.7476 147.951Z" fill="#044B8C"/>
<path d="M113.905 147.957C115.778 147.944 116.587 147.779 118.271 148.636C119.863 152.916 123.549 161.874 123.365 165.958L122.471 166.534L120.499 165.781C119.801 164.697 119.134 163.742 118.387 162.695L114.572 162.836C113.035 164.109 110.702 166.295 108.743 166.265C107.653 163.656 112.741 151.122 113.905 147.957Z" fill="#044B8C"/>
<path d="M84.7714 147.944C85.5306 147.975 88.0594 147.895 88.4513 148.385C91.3291 152.022 95.8419 163.595 93.1906 167.618C90.9863 166.362 91.1271 165.964 90.2392 163.393L90.0188 162.762C88.5187 162.713 87.3247 162.756 85.8307 162.805C83.8223 164.287 81.6363 166.136 79.1871 165.971C78.9728 164.703 83.9815 150.412 84.7714 147.944Z" fill="#044B8C"/>
<path d="M93.5579 147.896C94.9784 147.957 95.5355 148.098 96.9438 148.379C99.3073 150.081 100.128 152.61 101.444 155.323C102.712 152.469 103.765 148.9 107.133 148.165L107.739 149.249C107.763 152.316 106.067 154.643 104.543 157.435C102.62 160.895 104.402 163.16 102.222 166.883L101.095 167.128C98.3399 164.887 100.563 162.591 99.0502 158.917C97.4337 154.998 95.3458 151.875 93.5579 147.896Z" fill="#044B8C"/>
<path d="M72.8252 158.972C69.8862 158.801 68.9432 158.403 66.7757 159.744C64.8285 162.836 66.9654 164.042 65.1163 166.528L63.163 166.656L62.5936 165.885C62.0547 162.921 61.5466 150.969 62.4773 148.606C64.2162 147.663 63.2977 147.853 65.3428 148.128C66.8797 150.394 65.2632 150.969 66.4511 154.68C67.9023 155.678 70.8291 155.427 72.7701 155.451L72.8252 158.972Z" fill="#033E73"/>
<path d="M61.6937 175.076C63.2673 175.376 63.353 175.247 64.5776 176.221C64.2837 178.89 58.2342 193.475 56.8442 196.953C55.7298 196.715 55.1421 196.513 54.0583 196.163C53.5562 194.222 60.463 178.37 61.6937 175.076Z" fill="#033E73"/>
<path d="M88.9228 187.095L89.7311 186.826L89.278 186.52L89.529 185.742C91.4883 184.989 90.9618 185.252 93.3743 185.718C103.796 193.788 84.2203 200.731 82.8916 191.375C86.2287 190.579 88.8003 192.698 91.47 191.461C92.0394 189.434 92.0946 190.408 91.2434 188.43L88.9228 187.095Z" fill="#033E73"/>
<path d="M72.7701 155.451C72.7946 152.696 72.5068 150.81 73.86 148.465L74.8826 148.098C77.5338 151.276 78.4951 163.552 75.0907 166.736H73.6273C72.3966 164.709 72.7762 161.47 72.8252 158.972L72.7701 155.451Z" fill="#044B8C"/>
<path d="M88.9227 187.095C88.5431 187.071 87.5328 186.752 87.1226 186.636L86.945 186.011C87.9185 184.468 89.2656 184.15 91.1392 183.127C92.1434 181.205 92.0638 182.148 91.7454 180.274C89.5962 179.521 86.5409 180.868 83.314 181.033L82.9895 180.188C85.8918 174.555 93.8701 174.482 95.8234 181.284C95.4866 183.489 94.7947 184.003 93.3742 185.717C90.9617 185.252 91.4882 184.989 89.5289 185.742L89.2779 186.52L89.731 186.826L88.9227 187.095Z" fill="#044B8C"/>
<path d="M9.9172 13.2374C11.1479 -3.79077 129.972 -4.42758 142.744 11.5413C142.01 17.995 144.055 31.1167 141.661 36.2968C140.754 36.9948 139.897 37.6561 138.979 38.3297C135.611 38.942 132.605 39.7502 129.31 40.6074C119.679 42.1504 112.031 43.1056 102.216 43.822L98.983 44.0057C85.2 44.6854 61.4609 45.0772 47.8127 43.3567L47.182 43.5036C39.7242 42.7994 32.9949 42.1871 25.5983 40.9625L22.6164 40.4666C19.6834 39.5849 16.2973 38.8011 13.2971 38.0358C12.25 37.4908 11.8398 37.1479 10.8785 36.4621C9.09055 32.4025 10.0825 18.7788 9.9172 13.2374Z" fill="#4079B9"/>
<path d="M48.2598 21.4546L51.1069 21.8771C70.1435 23.2671 81.5385 22.1098 99.2831 22.3853C98.6035 27.0266 98.9096 39.0155 98.9831 44.0058C85.2001 44.6855 61.461 45.0773 47.8127 43.3567L47.1821 43.5037C47.9536 35.5437 48.1312 29.4146 48.2598 21.4546Z" fill="#0A59A3"/>
<path d="M48.2598 21.4546L51.1069 21.8771C53.1092 24.3692 53.0847 40.2524 51.7193 42.8302L47.8127 43.3567L47.1821 43.5037C47.9536 35.5437 48.1312 29.4146 48.2598 21.4546Z" fill="#044B8C"/>
<path d="M142.744 11.5415C142.01 17.9952 144.055 31.1168 141.661 36.2969C140.754 36.995 139.897 37.6563 138.979 38.3298C135.611 38.9421 132.605 39.7504 129.31 40.6076C119.679 42.1506 112.031 43.1058 102.216 43.8222L98.983 44.0059C98.9095 39.0156 98.6034 27.0267 99.283 22.3854L100.41 22.2201C103.465 21.5037 120.199 20.0954 125.557 19.2504L130.272 18.1727C134.466 17.5604 141.373 16.0542 142.744 11.5415Z" fill="#0A59A3"/>
<path d="M142.744 11.5415C142.01 17.9952 144.055 31.1168 141.661 36.2969C140.754 36.995 139.897 37.6563 138.979 38.3298C135.611 38.9421 132.605 39.7504 129.311 40.6076C130.523 36.3949 130.229 23.4937 130.272 18.1727C134.466 17.5604 141.373 16.0542 142.744 11.5415Z" fill="#0A59A3"/>
<path d="M125.557 19.25L130.272 18.1724C130.229 23.4933 130.523 36.3946 129.311 40.6072C128.086 40.2031 128.319 40.2582 127.198 39.5663C125.992 36.0333 125.759 23.8362 125.557 19.25Z" fill="#044B8C"/>
<path d="M99.283 22.3851L100.41 22.2197L101.812 22.8443C103.061 26.3589 102.816 39.8113 102.216 43.8219L98.983 44.0056C98.9095 39.0153 98.6034 27.0263 99.283 22.3851Z" fill="#044B8C"/>
<path d="M9.9172 13.2373C14.6074 16.0355 17.3567 17.0765 22.7695 18.3623L25.684 18.9134C30.2396 19.642 44.1389 21.9075 48.2597 21.4544C48.1311 29.4143 47.9536 35.5435 47.182 43.5035C39.7242 42.7993 32.9949 42.187 25.5983 40.9624L22.6164 40.4665C19.6834 39.5848 16.2973 38.801 13.2971 38.0356C12.25 37.4907 11.8398 37.1478 10.8785 36.462C9.09055 32.4024 10.0825 18.7787 9.9172 13.2373Z" fill="#0A59A3"/>
<path d="M9.9172 13.2373C14.6074 16.0355 17.3567 17.0765 22.7695 18.3623C22.4694 24.5404 22.1939 34.2516 22.6164 40.4665C19.6834 39.5848 16.2973 38.801 13.2971 38.0356C12.25 37.4907 11.8398 37.1478 10.8785 36.462C9.09055 32.4024 10.0825 18.7787 9.9172 13.2373Z" fill="#0A59A3"/>
<path d="M22.7694 18.3623L25.684 18.9134C26.284 23.8302 27.0127 36.3456 25.5982 40.9624L22.6163 40.4665C22.1938 34.2516 22.4694 24.5405 22.7694 18.3623Z" fill="#044B8C"/>
<path d="M12.8316 42.2852C13.5602 43.1056 15.4767 45.0896 15.8931 45.9284C14.595 49.0389 13.1255 49.9267 11.0069 52.3147C4.22869 59.9501 5.69827 70.3593 5.63092 79.948C5.52683 92.4145 5.50228 104.875 5.56963 117.335C5.71658 144.295 5.57578 171.328 5.75335 198.294C5.77172 201.944 6.04114 208.612 9.43331 210.736L10.8416 210.638C11.6314 209.389 11.6192 209.224 12.0662 207.791L12.501 210.595C16.236 209.242 19.5792 208.514 23.1918 206.689L23.6143 206.701C24.4103 209.616 25.0899 211.287 27.8821 212.904C33.2397 215.996 47.5125 215.769 51.9517 211.122L52.2334 209.732C53.7764 208.801 58.4666 209.15 60.5301 209.065C71.1413 209.212 81.7587 209.236 92.3699 209.15C104.867 208.618 116.531 207.326 128.784 206.652L129.445 206.585C133.774 208.618 137.772 209.138 142.12 210.602L142.407 211.294C144.073 209.561 146.436 206.15 146.473 203.695C147.079 158.899 146.443 113.98 146.21 69.1653C146.149 58.0336 142.885 53.968 135.103 46.755C136.958 45.7692 138.262 44.8691 140.007 43.6935C147.079 50.288 151.715 56.013 151.861 66.2997C152.211 90.9756 151.629 115.737 151.77 140.419L151.904 182.252C151.984 198.368 154.445 209.022 142.695 220.901C141.128 222.48 143.418 223.448 141.618 226.228C139.315 227.532 138.801 227.997 136.266 228.456C120.897 232.259 89.2962 233.532 72.7946 232.485C68.9003 232.234 61.9323 230.287 57.8911 229.277C53.8621 229.154 49.4597 227.954 45.4307 227.385C34.0847 225.781 19.0097 225.823 9.34758 218.843C4.30831 215.206 1.91418 209.512 0.91 203.517C-0.418701 195.551 -0.283952 65.9814 1.25906 59.3807C3.08985 51.5432 8.25153 49.0573 12.3111 43.0873C12.4887 42.824 12.6601 42.5546 12.8316 42.2852Z" fill="#C4D1DC"/>
<path d="M128.784 206.652L129.445 206.585C133.774 208.618 137.773 209.138 142.12 210.602L142.408 211.294C141.948 212.243 141.526 213.167 140.779 213.926C131.558 223.319 77.1238 223.142 62.8816 222.542C52.3193 222.095 18.7099 220.974 12.1827 213.847C11.5276 211.661 11.4602 212.714 12.5011 210.596C16.2362 209.242 19.5794 208.514 23.192 206.689L23.6145 206.701C24.4105 209.616 25.0901 211.287 27.8822 212.904C33.2399 215.996 47.5127 215.769 51.9519 211.122L52.2336 209.732C53.7766 208.801 58.4668 209.15 60.5303 209.065C71.1415 209.212 81.7589 209.236 92.3701 209.15C104.867 208.618 116.532 207.326 128.784 206.652Z" fill="#95B2C9"/>
<path d="M60.5301 209.064C71.1413 209.211 81.7587 209.236 92.3699 209.15L93.123 212.463C85.2916 220.49 58.8278 219.357 51.9517 211.122L52.2334 209.732C53.7764 208.801 58.4666 209.15 60.5301 209.064Z" fill="#0A59A3"/>
<path d="M92.3701 209.151C104.867 208.618 116.532 207.326 128.784 206.652C127.841 209.5 127.284 211.636 124.388 212.904C113.752 217.557 103.367 217.545 93.1232 212.463L92.3701 209.151Z" fill="#4079B9"/>
<path d="M57.8911 229.277C61.9078 226.834 89.8473 227.667 96.7357 227.465C109.98 227.079 120.861 225.058 133.437 223.968C133.927 225.217 133.774 225.223 133.701 226.583C135.231 227.281 135.231 227.171 136.266 228.457C120.897 232.259 89.2962 233.532 72.7946 232.485C68.9003 232.234 61.9323 230.287 57.8911 229.277Z" fill="#FAF8F7"/>
<path d="M83.4427 117.311L84.1285 117.078C88.8494 110.869 77.7115 83.1014 101.689 75.0251C108.406 72.6922 115.797 73.28 122.073 76.6355C128.331 80.0827 132.85 85.9976 134.533 92.9412C136.732 101.746 134.717 108.928 130.229 116.399C122.722 126.814 113.893 123.93 109.974 132.098L109.937 132.698C106.337 133.341 102.743 133.225 99.0749 133.268C96.8093 133.329 94.5193 133.237 92.2538 133.182C88.2371 130.867 84.2387 128.522 80.2648 126.134L80.9751 124.175C80.8833 122.607 80.8894 123.134 79.9771 121.603C81.2751 119.301 81.4833 119.16 83.4427 117.311Z" fill="#95B2C9"/>
<path d="M90.0617 121.371C92.2354 117.182 93.1355 115.609 94.4887 111.066C95.6888 107.043 96.2092 103.546 99.5585 101.03C103.539 100.167 105.216 102.389 107.519 105.365C109.662 105.353 111.841 105.065 113.642 106.088C114.542 107.294 115.564 108.218 115.258 110.006C114.603 113.876 109.594 117.158 106.857 119.675C104.739 121.628 103.19 124.646 101.775 127.065C104.237 128.571 107.653 130.531 109.974 132.098L109.937 132.698C106.337 133.341 102.743 133.225 99.0749 133.268C96.8093 133.329 94.5193 133.237 92.2538 133.182C88.2371 130.868 84.2387 128.522 80.2648 126.134L80.9751 124.175C80.8833 122.607 80.8894 123.134 79.9771 121.603C81.2751 119.301 81.4833 119.16 83.4427 117.311C85.6531 118.652 87.8635 120.005 90.0617 121.371Z" fill="#0A59A3"/>
<path d="M80.9749 124.175C86.0326 126.924 95.3519 129.735 99.0747 133.268C96.8092 133.329 94.5191 133.237 92.2536 133.182C88.2369 130.867 84.2385 128.522 80.2646 126.134L80.9749 124.175Z" fill="#033E73"/>
<path d="M99.9443 103.969C106.22 104.673 101.469 106.828 106.453 109.437C108.186 109.222 109.062 108.965 110.733 109.504C110.5 111.88 103.465 116.944 101.193 120.532L100.746 121.254C99.828 123.054 99.8586 123.134 98.5054 124.591C96.0562 124.64 96.0256 124.065 93.4968 122.607C97.6666 114.329 98.6279 112.878 99.9443 103.969Z" fill="#81A3BF"/>
<path d="M108.008 77.021C109.631 76.8251 109.612 76.9415 111.211 77.4497L111.602 78.4048C109.435 81.6684 103.379 81.3378 96.9316 89.3284C95.0335 88.8263 94.4885 88.5691 93.8149 86.9036C95.4253 81.1296 102.706 78.0803 108.008 77.021Z" fill="#C4D1DC"/>
<path d="M57.5666 84.3076C59.7403 91.4348 61.2098 99.3703 63.1141 106.644L64.7979 113.766C65.1469 115.609 65.796 118.505 65.9736 120.274C66.494 125.008 67.8717 128.859 68.7351 133.408L63.2488 133.384L53.856 133.157C50.2434 133.408 48.5841 133.121 45.0633 132.667C38.9525 132.612 33.8582 132.551 27.7352 132.031C26.4799 128.069 25.6594 124.444 24.7103 120.403C22.6775 112.67 20.7181 104.918 18.8445 97.1476L19.316 96.3945C19.9405 96.3884 20.565 96.3822 21.1896 96.3761C27.3126 94.282 54.5112 88.6917 57.5666 84.3076Z" fill="#0A59A3"/>
<path d="M36.0991 122.013C38.3708 114.978 41.5242 104.061 44.1509 97.4233L45.2102 113.747C47.8064 113.111 50.5373 112.388 53.1335 111.825C51.217 118.713 49.1963 125.571 47.0716 132.398C49.2086 132.606 51.7864 132.766 53.856 133.157C50.2434 133.408 48.584 133.121 45.0633 132.668C44.8245 128.522 44.4878 124.071 44.4265 119.944L36.0991 122.013Z" fill="#88837F"/>
<path d="M65.9736 120.274C66.4941 125.008 67.8718 128.859 68.7351 133.408L63.2489 133.384C62.9979 132.386 62.7468 131.388 62.508 130.384C61.1303 124.854 60.6221 123.342 65.9736 120.274Z" fill="#84716A"/>
<path d="M13.2971 38.0356C16.2974 38.801 19.6835 39.5848 22.6165 40.4665L25.5984 40.9624C32.995 42.187 39.7243 42.7993 47.1821 43.5035L47.8127 43.3565C61.461 45.0771 85.2001 44.6853 98.9831 44.0056L102.216 43.8219C112.031 43.1055 119.679 42.1503 129.311 40.6073C132.605 39.7501 135.611 38.9418 138.979 38.3295L140.007 43.6933C138.262 44.869 136.958 45.769 135.103 46.7549C111.168 56.8518 40.0916 55.3088 15.8933 45.9283C15.4769 45.0894 13.5604 43.1055 12.8318 42.285C12.7889 40.8583 13.0889 39.4684 13.2971 38.0356Z" fill="#BBCCD9"/>
<path d="M44.4512 74.5166C53.3663 71.7184 56.483 71.1734 57.3525 81.9133L57.5668 84.3074C54.5114 88.6915 27.3128 94.2818 21.1897 96.3759C20.5652 96.382 19.9407 96.3882 19.3161 96.3943C18.961 95.335 18.2813 93.841 17.8343 92.7634C15.826 88.4527 15.3423 86.2423 18.4773 82.5011C20.7367 81.6378 23.9207 80.7499 26.2903 80.0029L44.4512 74.5166Z" fill="#88837F"/>
<path d="M17.8342 92.7636C23.3633 90.2225 48.4495 83.432 55.8278 81.4053C56.336 81.5767 56.8442 81.742 57.3524 81.9135L57.5667 84.3076C54.5113 88.6917 27.3127 94.282 21.1896 96.3761C20.5651 96.3822 19.9406 96.3884 19.316 96.3945C18.9609 95.3352 18.2812 93.8412 17.8342 92.7636Z" fill="#033E73"/>
<path d="M64.7979 113.766C69.6412 111.035 67.7369 107.183 75.5377 108.396C81.9057 116.901 74.8274 117.893 79.9769 121.603C80.8892 123.134 80.8831 122.607 80.975 124.175L80.2647 126.134L76.7011 130.071L76.7868 133.255C74.3437 133.494 71.2393 133.408 68.735 133.408C67.8717 128.859 66.494 125.008 65.9735 120.274C65.7959 118.505 65.1469 115.609 64.7979 113.766Z" fill="#D6BEA5"/>
<path d="M65.9736 120.274C69.3291 125.92 70.3149 127.745 76.7012 130.071L76.787 133.255C74.3439 133.494 71.2395 133.408 68.7351 133.408C67.8718 128.859 66.4941 125.008 65.9736 120.274Z" fill="#C08E68"/>
<path d="M18.8445 97.1475C16.9463 97.6129 15.8625 98.0844 13.9827 97.57C13.4929 97.019 13.052 96.4801 12.9908 95.6841C12.5622 90.1366 12.6112 84.4545 12.5929 78.8825C12.5806 74.4004 12.4213 69.7347 12.9908 65.2955C13.2969 63.0728 14.6012 59.4295 15.985 57.8192C18.226 55.1985 22.1693 51.6104 25.1267 55.2046C25.041 55.1005 25.935 56.3252 25.8186 56.4905C23.8592 59.2092 21.8692 61.9461 20.3568 64.9464C17.779 70.0347 18.3914 76.8129 18.4771 82.5012C15.3421 86.2424 15.8258 88.4528 17.8341 92.7635C18.2811 93.8411 18.9608 95.3351 19.3159 96.3944L18.8445 97.1475Z" fill="#FAF8F7"/>
<path d="M24.7104 120.403C25.6594 124.444 26.48 128.069 27.7352 132.03C19.2854 131.449 16.3953 130.316 16.3218 140.058C14.5829 141.209 12.6786 142.403 11.0804 143.701C10.5784 136.886 11.2397 132.453 12.8561 125.895C17.5954 121.401 18.4342 121.438 24.7104 120.403Z" fill="#B0BAC3"/>
<path d="M26.2903 80.0029C24.931 74.6575 23.4798 70.053 30.5274 68.2528C34.3604 67.267 37.9914 66.3975 41.8122 65.3198C42.9389 68.0323 43.7103 71.6143 44.4512 74.5167L26.2903 80.0029Z" fill="#D49251"/>
<path d="M135.109 196.8C135.544 195.067 135.654 195.122 136.762 193.665C138.844 198.086 140.344 205.519 142.12 210.601C137.772 209.138 133.774 208.618 129.445 206.585C135.752 205.103 135.029 202.305 135.109 196.8Z" fill="#B0BAC3"/>
<path d="M63.114 106.645L64.4182 107.024C66.5062 105.034 68.8697 102.328 71.5088 101.55C74.5703 102.628 74.8519 105.34 75.5377 108.396C67.7369 107.183 69.6412 111.035 64.7979 113.766L63.114 106.645Z" fill="#FAF8F7"/>
<path d="M15.6665 156.75L16.138 157.001C16.2115 160.031 16.432 164.207 16.3279 167.146C13.5786 169.081 13.4745 169.247 11.907 172.265C7.27189 166.179 9.6292 160.625 15.6665 156.75Z" fill="#95B2C9"/>
<path d="M138.881 178.921C141.305 184.046 142.126 190.071 136.762 193.665C135.654 195.122 135.544 195.067 135.109 196.8C135.066 193.194 135.084 189.581 135.17 185.969C136.487 183.623 137.662 181.309 138.881 178.921Z" fill="#B0BAC3"/>
<path d="M243.022 46.2408C258.531 45.4142 281.725 46.7245 297.756 46.2041C304.92 45.9714 346.832 45.8856 351.032 46.9327C353.071 52.0393 362.28 73.6843 362.739 77.5479C363.597 84.767 363.499 104.606 363.327 113.16C363.021 127.983 363.86 144.736 363.284 159.223C367.295 155.243 371.728 150.137 377.618 149.947C378.849 150.461 380.38 151.018 380.674 152.5C383.209 165.359 373.394 182.472 363.413 188.718V198.472C368.017 195.576 372.683 192.557 378.28 193.825C383.741 198.043 377.992 204.987 375.077 208.397C368.96 215.574 360.939 217.956 352.122 219.431C351.693 219.499 349.857 222.131 349.348 222.885L348.497 222.67C347.879 221.47 347.567 220.956 347.101 219.688C340.445 222.511 335.167 223.797 328.077 225.199C315.733 224.93 294.78 223.283 282.411 222.866C272.137 222.517 221.517 222.86 216.148 221.072C215.419 218.39 214.966 215.004 214.947 212.194C214.715 176.809 214.892 141.417 214.837 106.032C214.831 101.581 214.739 97.2947 215.37 92.8678C218.407 86.7202 224.708 76.654 228.296 70.4758C232.178 63.7956 238.711 51.9597 243.022 46.2408Z" fill="#0A59A3"/>
<path d="M351.032 46.9326C353.071 52.0392 362.28 73.6842 362.739 77.5479C363.596 84.7669 363.498 104.606 363.327 113.16C363.021 127.983 363.86 144.736 363.284 159.223C367.295 155.243 371.728 150.137 377.618 149.947C378.849 150.461 380.38 151.018 380.674 152.5C383.209 165.358 373.393 182.472 363.413 188.718V198.472C368.017 195.576 372.683 192.557 378.28 193.825C383.741 198.043 377.992 204.987 375.077 208.397C368.96 215.574 360.939 217.955 352.122 219.431C351.693 219.499 349.856 222.131 349.348 222.885L348.497 222.67C347.879 221.47 347.566 220.956 347.101 219.688C340.445 222.511 335.167 223.797 328.077 225.199C328.309 220.613 328.034 215.819 328.101 211.202C328.677 172.21 327.036 132.563 328.285 93.6392C332.516 83.2546 338.81 72.2943 343.776 62.1178C346.164 57.2316 349.342 52.0209 351.032 46.9326Z" fill="#033E73"/>
<path d="M347.101 219.688C346.036 216.902 342.527 211.043 340.464 208.667C336.08 203.591 332.387 183.538 338.951 179.533C348.528 179.35 351.161 199.17 352.11 206.089L353.261 206.01C356.531 200.187 356.377 193.102 363.413 188.718V198.472C368.017 195.576 372.683 192.557 378.28 193.825C383.741 198.043 377.992 204.987 375.077 208.398C368.96 215.574 360.939 217.956 352.122 219.431C351.693 219.499 349.856 222.132 349.348 222.885L348.497 222.67C347.879 221.47 347.566 220.956 347.101 219.688Z" fill="#175C57"/>
<path d="M363.413 188.718V198.472C355.165 206.168 354.271 208.385 350.457 219.094C350.91 216.271 352.502 208.373 352.11 206.089L353.261 206.009C356.531 200.186 356.378 193.102 363.413 188.718Z" fill="#033E73"/>
<path d="M363.284 159.223C367.295 155.243 371.728 150.137 377.618 149.947C378.849 150.461 380.38 151.018 380.674 152.5C383.209 165.358 373.393 182.472 363.413 188.718C356.378 193.102 356.531 200.186 353.261 206.009C353.151 201.999 355.061 195.857 356.145 191.89C351.204 178.615 355.508 169.816 363.284 159.223Z" fill="#175C57"/>
<path d="M366.56 169.014L367.509 169.559C367.227 171.781 361.049 183.354 359.488 188.234L359.408 188.265L358.692 187.071C360.866 180.996 363.474 174.684 366.56 169.014Z" fill="#124F4F"/>
<path d="M243.021 46.2408C258.531 45.4142 281.725 46.7245 297.755 46.2041C304.919 45.9714 346.831 45.8856 351.032 46.9327C349.342 52.0209 346.164 57.2317 343.776 62.1179C338.81 72.2944 332.516 83.2546 328.285 93.6393C322.652 94.1781 313.908 93.9271 308.073 93.9271L272.847 93.9149C262.217 93.9149 224.144 94.5822 215.37 92.8678C218.407 86.7202 224.707 76.654 228.295 70.4758C232.177 63.7956 238.711 51.9597 243.021 46.2408Z" fill="#0A59A3"/>
<path d="M256.474 60.4523C264.471 60.4401 316.284 59.4604 321.513 61.2605C321.911 63.8996 320.723 65.412 319.266 67.702C317.178 71.5656 314.998 75.7967 312.708 79.495C296.764 79.7766 280.366 79.146 264.605 79.5195L260.184 69.043C258.984 66.1651 257.747 63.2995 256.474 60.4523Z" fill="#122B46"/>
<path d="M256.474 60.4523C264.471 60.4401 316.284 59.4604 321.513 61.2605C321.911 63.8996 320.723 65.412 319.266 67.702C310.749 68.1184 302.225 68.2898 293.696 68.2286C286.667 68.2041 265.567 67.4877 260.184 69.043C258.984 66.1651 257.747 63.2995 256.474 60.4523Z" fill="#033E73"/>
<path d="M244.932 79.2437C248.802 72.5941 252.206 66.8569 256.474 60.4521C257.747 63.2994 258.984 66.165 260.184 69.0428L264.605 79.5193C258.047 79.5377 251.49 79.4458 244.932 79.2437Z" fill="#033E73"/>
<path d="M248.532 150.853C257.552 150.443 278.29 149.794 267.863 165.132L267.281 165.971C271.549 170.918 272.939 170.569 270.704 177.807C265.303 184.315 256.211 182.73 248.496 182.534L248.532 150.853Z" fill="#FAF8F7"/>
<path d="M255.108 168.732C258.96 168.671 262.187 167.906 264.624 171.188C265.028 173.539 264.77 173.882 264.011 176.092C261.103 176.809 258.482 177.586 255.923 175.958C254.692 173.814 255.065 171.279 255.108 168.732Z" fill="#0A59A3"/>
<path d="M255.182 156.449C258.611 156.376 261.433 155.671 263.693 158.537C263.981 160.692 263.644 161.103 262.817 163.087C260.472 163.521 257.98 164.28 255.99 163.191C254.729 161.341 255.127 158.813 255.182 156.449Z" fill="#0A59A3"/>
<path d="M282.074 150.491C295.9 149.334 298.417 154.373 292.551 165.934C293.916 167.563 296.623 170.299 296.837 172.4C297.511 178.884 291.761 183.121 285.601 183.238C282.356 183.311 279.221 182.043 276.943 179.729C275.48 178.241 274.849 176.814 274.849 174.757C276.87 174.261 277.653 173.912 279.723 174.255C283.072 177.268 287.261 179.374 290.12 174.292C290.371 172.234 290.353 172.381 289.361 170.544C287.561 169.105 285.369 168.903 283.079 168.426C282.025 166.546 282.129 165.597 283.489 164.158C287.989 163.105 291.749 161.421 288.381 156.088C282.974 154.49 283.844 160.056 277.409 159.358C275.492 157.998 276.031 158.874 275.529 156.768C276.913 153.32 278.927 152.279 282.074 150.491Z" fill="#FAF8F7"/>
<path d="M250.871 130.585C251.82 126.863 253.406 123.648 257.545 123.611C265.615 127.212 264.666 143.193 252.677 135.931C251.771 134.161 251.404 132.496 250.871 130.585Z" fill="#FAF8F7"/>
<path d="M255.617 126.091C257.227 126.263 257.05 126.281 258.623 126.771C261.789 130.053 261.023 132.312 258.629 135.858C252.629 134.547 253.308 130.518 255.617 126.091Z" fill="#044B8C"/>
<path d="M298.08 123.875C306.799 125.069 307.259 133.335 300.211 138.037C291.369 136.206 291.167 128.663 298.08 123.875Z" fill="#FAF8F7"/>
<path d="M297.156 126.226C298.362 126.342 299.182 126.514 300.37 126.728C303.67 129.649 302.476 132.11 300.866 135.772C294.523 135.129 295.582 130.861 297.156 126.226Z" fill="#0A59A3"/>
<path d="M228.792 124.199C236.672 124.518 242.587 127.083 237.248 135.955C226.349 142.06 228.516 131.118 228.792 124.199Z" fill="#FAF8F7"/>
<path d="M231.137 126.244C234.076 126.483 234.468 126.703 236.152 128.589C236.837 131.032 236.507 131.639 235.956 134.229C233.99 135.086 233.525 135.41 231.755 134.602C230.678 132.367 231.076 128.865 231.137 126.244Z" fill="#0A59A3"/>
<path d="M249.677 137.511C248.147 137.284 248.667 137.468 247.375 136.659C246.371 134.633 246.108 133.659 244.283 132.3L243.444 133.237C243.481 134.878 243.75 136.145 242.826 137.419L241.466 137.308C240.615 133.806 240.615 128.308 241.234 124.787C244.963 121.75 249.947 124.768 249.592 130.212L250.602 130.941L250.871 130.585C251.404 132.496 251.771 134.161 252.678 135.931C251.263 136.843 251.22 137.039 249.677 137.511Z" fill="#FAF8F7"/>
<path d="M249.592 130.212L250.602 130.941L250.871 130.585C251.404 132.496 251.771 134.161 252.678 135.931C251.263 136.843 251.22 137.039 249.677 137.511L249.708 135.943C247.865 132.826 247.075 132.698 249.592 130.212Z" fill="#1A68B2"/>
<path d="M282.791 124.236C284.42 124.242 288.522 124.205 289.771 124.811C290.861 125.344 291.945 134.743 291.877 136.157C280.495 142.232 282.521 131.302 282.791 124.236Z" fill="#FAF8F7"/>
<path d="M264.85 124.45C269.289 124.211 270.851 123.777 273.9 127.365C274.831 131.43 272.235 132.282 268.836 133.243L267.808 133.298C267.373 135.649 267.33 136.366 265.652 137.713C264.391 135.888 264.844 127.304 264.85 124.45Z" fill="#FAF8F7"/>
<path d="M305.63 123.85C308.269 124.481 308.165 124.842 309.855 127.267L310.314 127.934C312.567 127.983 310.926 125.791 314.245 124.077L315.237 124.524C315.212 126.342 313.149 129.018 312.077 130.696L316.039 137.823C312.8 137.321 313.161 136.696 310.828 133.763L310.118 133.721C308.618 136.2 308.52 137.707 305.66 137.37L305.305 136.623L309.114 130.72C307.393 127.928 306.701 126.905 305.63 123.85Z" fill="#FAF8F7"/>
<path d="M184.522 113.172C189.916 113.625 199.627 125.265 203.809 129.618C200.589 133.47 189.567 146.389 184.828 145.881L184.124 144.816L184.136 136.164C180.04 136.066 166.196 137.444 164.8 135.099C155.364 119.289 179.697 123.385 184.001 123.403C184.014 119.417 184.044 117.152 184.522 113.172Z" fill="#0A59A3"/>
</svg>
