<svg width="107" height="92" viewBox="0 0 107 92" fill="none" xmlns="http://www.w3.org/2000/svg">
<path d="M5.61399 14.5602C8.51414 7.44049 15.8156 0.679822 20.7024 0.545161C43.0988 -0.0717468 66.1722 -0.818702 88.4664 2.36712C91.6859 2.82635 96.2789 9.18306 98.7319 12.6704C104.053 23.3639 107.043 32.2112 106.704 47.2944C105.561 98.7222 86.7927 91.737 64.7349 91.2628C54.7569 91.0476 42.5622 90.1867 31.9453 90.5689C20.5236 90.6253 0.912362 93.8996 2.28578 63.8357C2.26662 63.0082 0.656911 54.3899 0.439719 51.5229C-0.761226 35.5098 0.350271 27.3461 5.61399 14.5602Z" fill="#C51C21"/>
<path d="M5.61419 14.5602C8.51434 7.44049 15.8158 0.679822 20.7027 0.545161C43.099 -0.0717468 66.1724 -0.818702 88.4666 2.36712C91.6861 2.82635 96.2791 9.18306 98.7321 12.6704C99.7734 32.4874 95.2315 40.1873 84.8318 44.0096C83.0687 43.037 72.075 43.2407 69.5645 43.2465C57.2804 43.4019 44.9962 43.2637 32.7121 42.831C28.496 42.6779 19.6742 42.7297 15.8094 41.5431C7.73498 37.2731 4.79653 29.3062 5.61419 14.5602Z" fill="#F03724"/>
<path d="M19.7572 11.2759C25.5 10.9444 37.9885 7.61127 35.7527 25.0539C35.2162 29.2548 33.6192 30.4242 31.6453 32.4878C26.2538 32.5419 20.7984 33.6894 16.429 27.2453C14.3082 19.7066 16.5185 16.1202 19.7572 11.2759Z" fill="#FEFDFE"/>
<path d="M98.732 12.6704C104.053 23.3639 107.043 32.2112 106.704 47.2944C105.561 98.7222 86.7928 91.737 64.735 91.2628C54.757 91.0476 42.5623 90.1867 31.9454 90.5688C28.8473 89.0968 29.32 89.5284 27.9019 84.6553C38.8126 84.6173 49.7297 84.9062 60.634 85.5219C68.8681 85.9259 88.9712 91.432 93.2064 75.3464C97.4992 59.0616 92.3377 50.9567 84.8317 44.0096C95.2314 40.1873 99.7733 32.4874 98.732 12.6704Z" fill="#60011D"/>
<path d="M5.61399 14.5604C4.79632 29.3064 7.73478 37.2733 15.8092 41.5433C13.5606 46.6132 3.92111 45.4219 5.16039 68.6642C3.8189 67.885 3.38452 66.1332 2.28578 63.8359C2.26662 63.0084 0.656911 54.3901 0.439719 51.5231C-0.761226 35.51 0.350271 27.3463 5.61399 14.5604Z" fill="#60011D"/>
<path d="M2.28576 63.8364C3.3845 66.1337 3.81888 67.8855 5.16036 68.6647C11.7017 90.2254 21.3412 78.6745 27.9017 84.656C29.3199 89.5291 28.8471 89.0975 31.9453 90.5695C20.5235 90.6259 0.91234 93.9003 2.28576 63.8364Z" fill="#A8101C"/>
</svg>
