<svg width="362" height="245" viewBox="0 0 362 245" fill="none" xmlns="http://www.w3.org/2000/svg">
<path d="M17.1696 91.4787C23.9577 90.1684 30.7377 88.8152 37.5098 87.4253L39.0546 93.0156C47.1921 93.4504 60.3285 94.73 68.0338 94.4912C69.142 95.0546 95.4577 96.3649 97.8212 96.2976L110.863 96.9956C118.531 97.3875 129.651 97.6201 137.131 98.4223L147.362 96.6037L156.79 94.5525L157.258 90.6827C160.839 91.093 164.429 91.4114 168.026 91.638C169.513 92.2992 170.493 92.5809 171.085 94.5219C172.631 99.5918 178.779 117.422 177.666 121.714C175.626 123.502 173.312 123.888 170.652 124.678L170.197 196.103C170.105 205.845 170.165 215.673 170.085 225.408C170.071 227.067 169.935 229.186 168.719 230.276C166.253 232.474 160.149 234.195 156.955 235.26C153.568 236.521 148.587 238.542 145.212 239.344C140.616 241.15 136.413 242.522 131.704 244.041C127.173 244.071 122.338 243.918 117.806 243.594C84.8489 241.236 51.8677 239.216 18.9055 236.968C16.4165 236.797 13.486 236.099 11.2456 235.04C8.87227 229.688 9.97016 150.144 9.90342 139.061C9.79933 134.922 9.85135 131.272 9.97136 127.133L0 125.866C2.37697 117.906 9.50418 101.27 13.2209 93.3279C13.8564 91.9686 15.7252 91.7298 17.1696 91.4787Z" fill="#B6743B"/>
<path d="M17.1696 91.4787C23.9577 90.1684 30.7377 88.8152 37.5098 87.4253L39.0546 93.0156C47.1921 93.4504 60.3285 94.73 68.0338 94.4912C69.142 95.0546 95.4577 96.3649 97.8212 96.2976L110.863 96.9956C118.531 97.3875 129.651 97.6201 137.131 98.4223L147.362 96.6037L156.79 94.5525L157.258 90.6827C160.839 91.093 164.429 91.4114 168.026 91.638C169.513 92.2992 170.493 92.5809 171.085 94.5219C172.631 99.5918 178.779 117.422 177.666 121.714C175.626 123.502 173.312 123.888 170.652 124.678L170.197 196.103C170.105 205.845 170.165 215.673 170.085 225.408C170.071 227.067 169.935 229.186 168.719 230.276C166.253 232.474 160.149 234.195 156.955 235.26C153.568 236.521 148.587 238.542 145.212 239.344C140.616 241.15 136.413 242.522 131.704 244.041C130.376 221.036 131.916 195.693 131.791 172.578C131.761 167.184 132.698 148.417 131.96 144.431C126.975 146.88 120.633 145.319 114.939 145.037L82.0029 143.396C61.4803 142.367 29.6839 141.559 9.90342 139.061C9.79933 134.922 9.85135 131.272 9.97136 127.133L0 125.866C2.37697 117.906 9.50418 101.27 13.2209 93.3279C13.8564 91.9686 15.7252 91.7298 17.1696 91.4787Z" fill="#9D602E"/>
<path d="M17.1696 91.4787C23.9577 90.1684 30.7377 88.8152 37.5098 87.4253L39.0546 93.0156C47.1921 93.4504 60.3285 94.73 68.0338 94.4912C69.142 95.0546 95.4577 96.3649 97.8212 96.2976L110.863 96.9956C118.531 97.3875 129.651 97.6201 137.131 98.4223L136.636 99.4203C133.901 105.078 127.646 130.225 123.392 132.026C118.103 134.267 24.6342 127.715 9.97136 127.133L0 125.866C2.37697 117.906 9.50418 101.27 13.2209 93.3279C13.8564 91.9686 15.7252 91.7298 17.1696 91.4787Z" fill="#D49251"/>
<path d="M17.1697 91.4787C23.9577 90.1684 30.7377 88.8152 37.5098 87.4253L39.0546 93.0156C33.2843 92.5442 22.1312 92.636 17.1697 91.4787Z" fill="#9D602E"/>
<path d="M148.289 210.909C150.815 210.137 154 209.439 156.612 208.796C157.126 214.877 155.494 231.439 156.955 235.26C153.569 236.522 148.587 238.542 145.212 239.344L147.028 237.783C148.921 232.86 148.323 216.75 148.289 210.909Z" fill="#8A552E"/>
<path d="M157.258 90.6826C160.839 91.0929 164.429 91.4113 168.026 91.6378C164.356 92.8808 160.601 93.8544 156.79 94.5524L157.258 90.6826Z" fill="#8A552E"/>
<path d="M138.877 103.639C140.821 105.372 149.913 125.798 151.825 129.625C154.339 129.154 157.043 128.401 159.54 127.764C159.437 131.493 159.302 135.222 159.134 138.951C155.33 140.2 151.648 140.971 147.75 141.853C147.649 139.612 147.384 134.352 146.837 132.24C144.355 122.639 138.867 113.871 138.877 103.639Z" fill="#8A552E"/>
<path d="M171.08 113.313C172.834 115.432 174.288 119.302 174.902 121.99C173.426 122.29 173.345 122.382 171.871 122.235C170.266 119.608 170.923 116.626 171.08 113.313Z" fill="#C08E68"/>
<path d="M66.263 150.879C86.2578 148.166 104.621 162.292 107.134 182.314C109.646 202.337 95.342 220.559 75.2982 222.873C55.5293 225.157 37.6096 211.093 35.1316 191.352C32.6536 171.605 46.5425 153.548 66.263 150.879Z" fill="#044B8C"/>
<path d="M57.2829 169.266C64.2711 168.293 66.5685 170.515 70.6612 175.72C78.7968 166.278 89.9261 166.535 91.2462 180.9C91.8916 187.929 85.7802 194.26 81.1561 199.055C77.7621 202.373 74.2327 205.674 70.7946 208.95C60.211 200.328 38.468 180.875 57.2829 169.266Z" fill="#FAF8F7"/>
<path d="M242.619 143.274C242.129 131.254 240.88 121.206 246.807 110.24C252.403 99.8979 261.582 93.2299 272.75 89.8745C277.838 95.2628 296.214 106.848 299.355 94.5525C319.549 106.094 319.8 117.306 321.949 138.259C323.308 137.371 324.135 136.446 325.31 135.326C323.504 119.957 342.222 112.371 343.324 107.619C340.691 93.3034 360.861 99.1142 361.889 107.227C361.289 109.609 360.585 111.342 358.718 113.032C357.756 114.765 357.609 115.934 358.277 117.832C363.53 132.766 360.83 138.853 354.732 152.207C357.266 157.822 353.219 172.266 346.784 174.868C345.192 181.243 341.016 199.195 335.168 202.049C331.415 203.886 323.878 199.195 320.792 198.846C320.596 205.416 321.6 225.959 319.591 230.607C313.223 235.842 249.795 235.352 243.164 230.313C240.996 224.153 242.521 153.946 242.619 143.274Z" fill="#044C8F"/>
<path d="M242.619 143.274C245.221 145.307 245.668 146.776 246.452 150.009C247.131 153.677 247.499 157.89 249.066 161.068C250.799 162.035 249.862 161.686 252.477 161.178L253.469 163.609C257.932 178.004 263.908 197.916 284.151 191.193C293.703 188.021 303.182 180.729 311.38 174.844L310.254 179.749L307.217 187.684C308.723 196.257 314.185 195.314 320.792 198.847C320.596 205.417 321.6 225.96 319.591 230.607C313.223 235.842 249.795 235.352 243.164 230.313C240.996 224.153 242.521 153.946 242.619 143.274Z" fill="#044B8C"/>
<path d="M307.217 187.684C304.614 194.928 277.808 203.029 269.964 198.387C260.804 192.969 241.431 159.194 246.451 150.009C247.131 153.677 247.498 157.89 249.066 161.068C250.799 162.035 249.862 161.686 252.476 161.178L253.468 163.609C257.932 178.004 263.908 197.916 284.151 191.193C293.703 188.021 303.181 180.729 311.38 174.844L310.254 179.749L307.217 187.684Z" fill="#033E73"/>
<path d="M343.324 107.619C340.691 93.3037 360.861 99.1144 361.889 107.227C361.289 109.609 360.585 111.342 358.717 113.032C357.756 114.765 357.609 115.934 358.277 117.833C363.53 132.767 360.83 138.853 354.731 152.207C357.266 157.822 353.219 172.266 346.784 174.869C345.192 181.243 341.016 199.196 335.168 202.049C331.415 203.886 323.877 199.196 320.791 198.847C314.185 195.314 308.723 196.257 307.217 187.684L310.254 179.749L311.38 174.844L315.305 171.654C318.973 172.842 320.338 173.301 324.281 173.816C328.182 173.069 331.997 173.791 335.793 170.332C339.522 166.939 344.145 150.94 340.189 147.156C338.211 145.27 325.929 145.839 322.494 145.815C324.318 142.355 327.631 138.614 325.31 135.326C323.504 119.957 342.222 112.371 343.324 107.619Z" fill="#BBCCD9"/>
<path d="M343.324 107.619C340.691 93.3037 360.861 99.1144 361.889 107.227C361.289 109.609 360.585 111.342 358.718 113.032C353.678 111.416 348.327 108.887 343.324 107.619Z" fill="#0A59A3"/>
<path d="M354.731 152.207C357.266 157.822 353.219 172.266 346.784 174.868C347.604 166.425 349.319 158.9 354.731 152.207Z" fill="#FEA471"/>
<path d="M315.305 171.654C318.973 172.842 320.338 173.301 324.282 173.815C319.224 175.622 314.417 178.242 310.254 179.748L311.38 174.844L315.305 171.654Z" fill="#C4D1DC"/>
<path d="M339.981 116.333L341.977 116.694L342.638 117.674C339.222 123.98 337.024 126.527 333.619 133.851C332.603 133.569 332.407 133.348 331.47 132.81C327.876 127.03 335.23 119.149 339.981 116.333Z" fill="#DCE2E5"/>
<path d="M317.895 180.465C319.94 180.735 319.224 180.239 320.35 181.58C320.295 184.384 318.997 189.423 317.662 191.824C314.962 190.556 315.415 191.242 314.031 189.062C313.646 185.584 315.862 183.27 317.895 180.465Z" fill="#C4D1DC"/>
<path d="M325.31 135.326C327.631 138.614 324.318 142.355 322.494 145.815C325.929 145.839 338.211 145.27 340.189 147.156C344.145 150.94 339.522 166.939 335.793 170.332C331.997 173.791 328.182 173.069 324.282 173.816C320.338 173.301 318.973 172.842 315.305 171.654L311.38 174.844C303.182 180.729 293.703 188.021 284.151 191.193C263.908 197.916 257.932 178.004 253.469 163.608C264.496 161.851 269.952 158.03 280.061 154.773L282.229 164.472C284.543 163.492 288.358 162.017 290.482 160.933C296.483 158.839 304.969 154.889 310.682 152.177C314.074 145.007 315.617 143.035 321.949 138.259C323.308 137.371 324.135 136.447 325.31 135.326Z" fill="#FEA471"/>
<path d="M252.477 161.177C261.514 158.11 270.533 154.962 279.516 151.742L280.061 154.773C269.952 158.03 264.496 161.851 253.468 163.608L252.477 161.177Z" fill="#F0896A"/>
<path d="M279.516 151.742C282.326 150.658 281.855 150.352 284.371 150.805C287.023 154.436 284.439 156.175 287.58 160.957L289.552 160.143L290.482 160.932C288.358 162.016 284.543 163.492 282.228 164.471L280.061 154.773L279.516 151.742Z" fill="#033E73"/>
<path d="M256.15 50.0258C255.924 49.8115 254.583 48.5808 254.473 48.2379C249.397 32.1221 256.646 15.8776 270.044 7.78904C278.42 2.80488 288.437 1.35989 297.885 3.77849C307.088 6.20934 314.491 12.0324 319.248 20.2372L340.146 21.1985C342.222 21.4128 343.569 21.2658 345.002 22.6925C345.884 28.0318 325.984 32.9915 321.649 33.4875L321.171 33.6405L321.52 40.0881C321.6 44.8641 321.447 46.3336 322.787 50.981C323.798 54.4651 325.598 58.0287 324.245 61.1453C322.732 61.88 321.355 62.0576 320.963 63.7231C317.889 76.6733 316.273 87.2417 299.214 84.3149L299.097 94.0812L299.355 94.5527C296.213 106.848 277.838 95.2629 272.75 89.8746C272.934 84.6884 273.142 79.5083 273.381 74.3282C262.224 69.8645 258.832 60.6677 256.15 50.0258Z" fill="#FEA471"/>
<path d="M256.15 50.0258C255.924 49.8115 254.583 48.5808 254.473 48.2379C249.397 32.1221 256.646 15.8776 270.044 7.78904C278.42 2.80488 288.437 1.35989 297.885 3.77849C307.088 6.20934 314.491 12.0324 319.248 20.2372L340.146 21.1985C342.222 21.4128 343.569 21.2658 345.002 22.6925C345.884 28.0318 325.984 32.9915 321.649 33.4875L321.171 33.6405C318.581 33.7875 315.642 34.9938 313.107 35.851C305.104 38.5635 297.658 38.8452 289.454 36.745C288.805 36.5123 288.156 36.2857 287.506 36.053C277.985 39.084 268.286 44.3191 259.016 48.195C257.718 48.74 256.91 49.4319 256.15 50.0258Z" fill="#044B8C"/>
<path d="M340.146 21.1987C342.222 21.413 343.569 21.266 345.002 22.6927C345.884 28.032 325.984 32.9917 321.649 33.4877C325.678 29.3056 335.456 26.0482 340.146 21.1987Z" fill="#033E73"/>
<path d="M256.15 50.026C256.91 49.432 257.718 48.7401 259.016 48.1952C268.286 44.3193 277.985 39.0841 287.507 36.0532C288.156 36.2859 288.805 36.5125 289.454 36.7451L289.57 41.2394C288.903 45.2623 288.921 52.4385 283.784 51.9977C278.977 48.9851 277.728 45.0112 272.817 45.1214C268.886 47.2951 266.174 55.1571 269.156 58.3717C275.389 65.0764 281.31 64.458 273.381 74.3284C262.224 69.8647 258.832 60.6678 256.15 50.026Z" fill="#122B46"/>
<path d="M289.454 36.7451C297.658 38.8453 305.104 38.5636 313.107 35.8511C315.642 34.9939 318.581 33.7876 321.171 33.6406L321.52 40.0882C315.495 41.1659 309.696 42.9844 303.506 43.1865C300.181 43.2906 292.24 40.3944 289.57 41.2393L289.454 36.7451Z" fill="#F0896A"/>
<path d="M284.243 77.647C290.139 81.229 292.662 82.0127 299.214 84.315L299.097 94.0813C297.683 90.7136 292.705 88.8951 289.778 85.9621C286.508 82.6802 286.172 81.7433 284.243 77.647Z" fill="#F0896A"/>
<path d="M33.4515 14.4205C31.3617 13.4224 30.0593 7.81976 30.7757 5.63383C34.7128 1.62936 44.037 -2.00773 49.2685 1.27422C51.0895 3.57037 52.0564 7.89327 49.6414 10.1098C52.0907 18.3698 61.4956 18.8412 65.4475 26.4522C68.5733 32.465 69.9142 41.3618 71.1939 47.987C77.1725 47.2767 97.6198 37.388 98.9791 49.4565C99.0667 50.2954 99.1285 51.1404 99.1665 51.9853C107.004 60.3249 102.949 65.9826 106.438 71.573C106.097 74.163 108.249 84.315 109.151 86.9234L109.122 88.148L110.863 96.9959L97.8212 96.2978C95.4577 96.3652 69.1421 95.0548 68.0338 94.4915C60.3286 94.7303 47.1922 93.4506 39.0547 93.0159L37.5099 87.4255L36.862 84.6456C34.057 69.0931 27.975 52.4506 27.0419 36.9348C26.5692 29.0728 35.597 22.607 33.4515 14.4205Z" fill="#BBCCD9"/>
<path d="M71.1939 47.9868C77.1725 47.2765 97.6198 37.3878 98.9791 49.4563C99.0666 50.2952 99.1285 51.1402 99.1665 51.9851C107.004 60.3247 102.949 65.9824 106.438 71.5728C106.097 74.1628 108.249 84.3148 109.151 86.9232L109.122 88.1478L110.863 96.9957L97.8212 96.2976C95.4577 96.365 69.1421 95.0546 68.0338 94.4913L66.6953 88.2213C66.2569 87.1743 65.6532 83.0106 65.4211 81.6513C63.9926 77.3958 63.5769 73.4587 61.8043 68.9766C61.7283 67.3601 61.7785 65.3456 61.7779 63.6863L63.4073 60.0125C62.9811 56.6203 62.7502 56.0019 63.4189 52.7444C63.5413 52.6403 63.6644 52.5362 63.7875 52.426L64.4139 51.9178C67.1993 49.5972 67.7473 49.4686 71.1939 47.9868Z" fill="#C43931"/>
<path d="M71.1938 47.9868C77.1724 47.2765 97.6197 37.3878 98.979 49.4563C99.0666 50.2952 99.1284 51.1402 99.1664 51.9851C92.0324 62.0147 79.4538 63.8149 68.0068 63.3312C66.574 62.327 64.7218 61.0962 63.4072 60.0125C62.981 56.6203 62.7502 56.0019 63.4188 52.7444C63.5413 52.6403 63.6643 52.5362 63.7874 52.426L64.4138 51.9178C67.1992 49.5972 67.7472 49.4686 71.1938 47.9868Z" fill="#B0BAC3"/>
<path d="M83.5006 48.1705C86.1984 47.9378 89.2054 47.2459 90.9836 49.5359C89.838 53.62 81.9374 55.2304 78.375 56.106C75.8076 56.3937 70.6502 57.5326 70.033 54.2568C73.1349 49.9645 78.6438 49.0706 83.5006 48.1705Z" fill="#4A3A38"/>
<path d="M97.8212 96.2978C98.4176 95.2997 99.0427 94.32 99.6948 93.3525C102.331 89.5256 104.765 88.8888 109.122 88.1479L110.863 96.9958L97.8212 96.2978Z" fill="#A1322B"/>
<path d="M65.4211 81.6515C68.7766 81.0882 72.5453 81.3148 73.7815 85.1355C72.8331 86.9296 72.9219 86.8132 71.1823 87.8603L70.1347 87.848C68.866 87.8419 67.781 87.701 66.6953 88.2215C66.2569 87.1745 65.6532 83.0108 65.4211 81.6515Z" fill="#AD9B90"/>
<path d="M78.7308 81.7495C83.7645 75.2285 94.0457 66.1419 98.2951 78.9452C100.766 97.0143 70.2516 94.6998 78.7308 81.7495Z" fill="#5C5756"/>
<path d="M98.2951 78.9448C100.766 97.0139 70.2516 94.6994 78.7308 81.7492C79.0106 83.2493 79.261 84.6209 79.4643 86.1394L79.4766 86.0353C85.6982 90.0704 95.0261 86.6537 96.0645 79.3122L98.2951 78.9448Z" fill="#B0BAC3"/>
<path d="M78.7307 81.7495C83.7645 75.2285 94.0457 66.1419 98.2951 78.9452L96.0645 79.3126C89.6206 77.4451 81.1108 78.3513 79.4765 86.0357L79.4643 86.1398C79.261 84.6213 79.0105 83.2497 78.7307 81.7495Z" fill="#B0BAC3"/>
<path d="M61.8042 68.9766C63.5768 73.4586 63.9926 77.3957 65.4211 81.6512C65.6531 83.0106 66.2569 87.1742 66.6953 88.2213L68.0338 94.4913C60.3285 94.73 47.1921 93.4504 39.0546 93.0156L37.5098 87.4253L36.8619 84.6454C42.9005 86.0966 57.3968 89.6786 62.6002 85.9803C63.2547 83.8495 61.5262 79.1837 60.8196 76.6855C57.496 77.457 49.9089 79.7531 47.1334 78.8163C45.6724 76.6242 45.9222 77.757 46.0018 75.3996C48.9311 71.7013 56.9511 72.0136 61.8042 68.9766Z" fill="#95B2C9"/>
<path d="M33.4513 14.4205C31.3615 13.4224 30.0592 7.81976 30.7756 5.63383C34.7127 1.62936 44.0369 -2.00773 49.2684 1.27422C51.0894 3.57037 52.0562 7.89327 49.6413 10.1098C45.4525 10.9793 37.5526 12.9387 33.4513 14.4205Z" fill="#0A59A3"/>
<path d="M61.7779 63.6865C57.6234 61.9537 49.9341 67.544 43.789 67.5808C41.7868 65.9214 40.575 61.9904 43.7394 60.6678C49.1576 58.39 60.1846 57.6676 63.4188 52.7446C62.7502 56.0021 62.9811 56.6205 63.4072 60.0127L61.7779 63.6865Z" fill="#95B2C9"/>
<path d="M36.491 23.7886C37.6837 24.4315 39.2316 25.65 39.0969 27.2113C38.653 32.3425 37.9807 37.5593 37.1571 42.6415C36.5466 43.2048 35.9368 43.762 35.3263 44.3192C29.3086 39.7942 32.5232 28.8095 36.491 23.7886Z" fill="#C4D1DC"/>
<path d="M127.02 13.8507C127.347 11.1443 127.473 10.5136 129.284 9.00123C131.686 8.57261 134.278 9.50336 136.709 10.1157C143.861 12.1975 151.057 14.1262 158.292 15.9019C161.174 16.9857 161.426 16.551 163.049 18.5899C163.174 20.9473 162.812 21.6269 162.107 23.8435L160.91 28.8522C162.604 35.3242 164.998 42.0167 166.51 48.2867C165.177 57.8142 160.054 80.6715 157.258 90.6827L156.79 94.5525L147.362 96.6037L137.131 98.4222C129.651 97.6201 118.531 97.3875 110.863 96.9956L109.122 88.1477L109.151 86.9231C108.249 84.3147 106.096 74.1627 106.438 71.5727L107.183 70.5562C108.548 64.4944 113.788 36.8367 115.53 33.7813C118.003 29.2624 122.86 23.5067 126.197 19.3492L127.02 13.8507Z" fill="#EAD7C5"/>
<path d="M160.15 29.8929L160.91 28.8521C162.604 35.3241 164.998 42.0166 166.51 48.2866C165.177 57.8141 160.054 80.6714 157.258 90.6826L156.79 94.5524L147.362 96.6036C146.804 89.5743 144.511 89.7641 138.441 87.9517C139.076 84.0268 139.571 82.1593 140.676 78.3875C140.91 75.1239 143.054 68.0518 143.896 64.5065C145.582 57.4099 147.256 50.1602 149.026 43.082H149.458C153.131 38.9918 156.727 34.2403 160.15 29.8929Z" fill="#DCC8B5"/>
<path d="M160.15 29.8929L160.91 28.8521C162.604 35.3241 164.998 42.0166 166.51 48.2866C162.804 47.2579 151.788 45.2618 149.458 43.082C153.131 38.9918 156.727 34.2403 160.15 29.8929Z" fill="#AD9B90"/>
<path d="M127.02 13.8507C127.347 11.1443 127.473 10.5136 129.284 9.00123C131.686 8.57261 134.278 9.50336 136.709 10.1157C143.861 12.1975 151.057 14.1262 158.292 15.9019C161.175 16.9857 161.426 16.551 163.049 18.5899C163.174 20.9473 162.812 21.6269 162.107 23.8435L160.91 28.8522L160.15 29.8931C156.727 34.2404 153.131 38.9919 149.458 43.0821H149.026C145.306 42.7147 117.183 35.8876 115.53 33.7813C118.003 29.2624 122.86 23.5067 126.197 19.3492L127.02 13.8507Z" fill="#FAF8F7"/>
<path d="M127.02 13.8507C127.347 11.1443 127.473 10.5136 129.284 9.00123C131.686 8.57261 134.278 9.50336 136.709 10.1157C143.861 12.1975 151.057 14.1262 158.292 15.9019C161.175 16.9857 161.426 16.551 163.049 18.5899C163.174 20.9473 162.812 21.6269 162.107 23.8435L160.91 28.8522L160.15 29.8931C152.801 26.5866 135.713 22.9924 126.197 19.3492L127.02 13.8507Z" fill="#C08E68"/>
<path d="M127.02 13.8511L133.94 15.9574C138.393 17.2861 152.584 20.5741 155.748 22.16L162.107 23.8439L160.91 28.8525L160.15 29.8934C152.801 26.587 135.713 22.9928 126.197 19.3496L127.02 13.8511Z" fill="#EAD7C5"/>
<path d="M127.02 13.8507C127.347 11.1443 127.473 10.5136 129.284 9.00123C131.686 8.57261 134.278 9.50336 136.709 10.1157C135.942 11.726 134.816 15.1304 133.94 15.957L127.02 13.8507Z" fill="#0A59A3"/>
<path d="M158.292 15.9019C161.175 16.9856 161.426 16.5509 163.049 18.5899C163.174 20.9473 162.812 21.6269 162.107 23.8434L155.748 22.1596L158.292 15.9019Z" fill="#0A59A3"/>
<path d="M107.183 70.5564C109.692 71.3096 111.225 70.4095 113.747 69.3257C115.673 72.6934 116.769 74.5487 117.391 78.5225C119.824 79.196 124.098 80.6043 126.43 80.488C127.637 79.3675 127.938 79.0185 128.962 77.7204C134.259 76.6979 136.138 81.1861 140.676 78.3878C139.571 82.1596 139.076 84.0271 138.441 87.952C144.511 89.7644 146.804 89.5746 147.362 96.6039L137.131 98.4224C129.651 97.6203 118.531 97.3876 110.863 96.9958L109.122 88.1479L109.151 86.9233C108.249 84.3149 106.096 74.1629 106.438 71.5729L107.183 70.5564Z" fill="#DCC8B5"/>
<path d="M109.151 86.9233C114.743 87.6091 132.447 91.087 136.229 94.6506C137.48 92.6484 137.87 90.2666 138.441 87.952C144.511 89.7645 146.804 89.5747 147.361 96.6039L137.131 98.4224C129.651 97.6203 118.531 97.3877 110.863 96.9958L109.122 88.1479L109.151 86.9233Z" fill="#B0BAC3"/>
<path d="M135.878 60.9371C131.531 58.9471 120.438 56.7856 118.706 54.0548C119.034 52.2485 119.092 51.2075 120.012 49.5972C122.844 49.738 135.933 53.669 139.217 54.6242C141.687 56.8346 141.324 59.4185 139.118 61.6902C136.981 61.9167 138.047 62.0331 135.878 60.9371Z" fill="#DCC8B5"/>
<path d="M135.878 60.9369C136.169 58.3591 136.046 56.9141 137.479 54.8812L139.217 54.624C141.687 56.8344 141.324 59.4184 139.118 61.69C136.98 61.9166 138.047 62.0329 135.878 60.9369Z" fill="#B0BAC3"/>
<path d="M116.471 61.1025C121.817 61.9475 132.312 64.5192 136.663 67.4644C137.667 69.3564 137.347 68.7686 136.872 71.4076C132.833 72.2893 121.106 68.3645 117.318 66.301C116.24 64.3967 116.552 63.4967 116.471 61.1025Z" fill="#DCC8B5"/>
<path d="M211.317 99.6104C216.265 100.406 227.495 112.72 230.899 116.859C226.27 122.039 219.847 128.56 214.538 133.122C213.191 134.279 212.162 133.869 210.797 133.581C210.179 130.091 210.35 126.76 210.368 123.209C206.248 123.08 193.316 124.182 192.109 122.413C180.598 105.623 207.601 109.83 210.399 109.805C210.295 105.819 209.952 103.339 211.317 99.6104Z" fill="#0A59A3"/>
</svg>
