<svg width="57" height="120" viewBox="0 0 57 120" fill="none" xmlns="http://www.w3.org/2000/svg">
<path d="M11.6379 3.49636C14.9236 -1.1451 29.2111 -1.15959 32.6023 3.41843C32.7097 7.86508 33.86 12.57 31.2356 15.3478C31.1097 15.4791 30.9823 15.609 30.853 15.7374C31.7136 17.9407 33.0948 19.4053 34.6957 21.1266C40.7388 27.6228 44.0206 32.6848 43.9002 41.8624C43.144 43.7036 42.3632 45.5433 41.7154 47.4244C42.4656 49.6168 42.9417 50.5019 42.5845 52.7392L42.5166 53.1848C42.3997 55.0375 42.3278 58.2538 41.7918 59.9017C42.2883 64.4428 43.6744 64.1496 41.2843 68.0482C36.8116 70.9964 32.1637 71.9409 26.8933 72.6183C21.3559 73.1153 6.00294 72.843 2.61485 67.7715C1.34249 66.7085 1.11681 65.5417 1.18589 63.9782C2.17622 62.2494 1.60528 62.8174 3.36237 61.8413C5.62381 58.2563 3.26386 53.8986 1.15792 51.1473C0.793375 50.6712 1.64864 48.7171 1.89225 48.1497L2.10345 47.1737C1.54479 45.6536 0.692624 43.9313 0 42.4403C0.871849 40.666 2.09206 40.3813 3.8401 39.7684L3.86043 39.4687L6.34071 38.5556L5.84105 38.0751C6.01123 35.8772 7.19093 32.477 7.86662 30.2667C7.76531 29.3161 7.25536 28.388 7.12459 26.9474C7.26755 26.1212 7.79843 25.3005 8.20464 24.5213L7.71476 22.8909C8.5521 21.3489 11.3906 18.5356 12.7012 17.3803L13.1725 15.6635C12.8178 15.2943 12.38 14.8383 11.8592 14.2963C11.3782 11.6779 11.6586 6.15826 11.6379 3.49636Z" fill="#114EBA"/>
<path d="M11.6379 3.49636C14.9236 -1.1451 29.2111 -1.15959 32.6023 3.41843C32.7097 7.86509 33.8601 12.57 31.2356 15.3478C31.1097 15.4791 30.9824 15.609 30.853 15.7374C31.7136 17.9407 33.0948 19.4053 34.6957 21.1266C40.7388 27.6228 44.0206 32.6848 43.9002 41.8624C42.9801 40.9218 42.7544 41.0806 41.3917 40.68L41.111 40.5376C31.7047 36.3053 21.509 36.6769 11.5221 37.5855C9.85844 37.8932 7.97198 38.1959 6.34073 38.5556L5.84106 38.0751C6.01125 35.8772 7.19094 32.477 7.86663 30.2667C7.76533 29.3161 7.25538 28.388 7.12461 26.9474C7.26757 26.1212 7.79845 25.3005 8.20466 24.5213L7.71478 22.8909C8.55211 21.3489 11.3906 18.5356 12.7013 17.3803L13.1725 15.6635C12.8178 15.2943 12.38 14.8383 11.8592 14.2963C11.3782 11.6779 11.6586 6.15826 11.6379 3.49636Z" fill="#C5DFE9"/>
<path d="M11.6378 3.49636C14.9235 -1.1451 29.211 -1.15959 32.6022 3.41843C32.7096 7.86509 33.86 12.57 31.2355 15.3478C31.1097 15.4791 30.9823 15.609 30.8529 15.7374L28.7355 16.2134C27.2989 16.5416 25.4017 17.0296 23.9794 17.2079C21.9557 17.4222 20.5083 17.2629 18.4788 17.1135L18.6722 16.095C17.4536 15.4567 17.0814 15.1495 15.7366 15.2933L13.5184 15.9432L13.1724 15.6635C12.8177 15.2943 12.3799 14.8383 11.8592 14.2963C11.3781 11.6779 11.6586 6.15826 11.6378 3.49636Z" fill="#00379A"/>
<path d="M14.4109 4.50759C15.8927 3.95013 17.7156 4.58402 19.313 4.94966L19.9974 5.71192L19.7504 6.17246C19.591 7.95772 19.4127 9.74996 19.3336 11.5397C19.324 12.7066 19.2821 13.3829 19.5091 14.5593L18.6722 16.0953C17.4536 15.4569 17.0814 15.1497 15.7366 15.2936L13.5184 15.9434L13.1724 15.6637C12.8177 15.2945 12.3799 14.8385 11.8592 14.2965C11.3781 11.6781 11.6586 6.15848 11.6378 3.49658L14.4109 4.50759Z" fill="#1373DD"/>
<path d="M11.6378 3.49658L14.4109 4.50759C15.5121 8.05912 14.2489 11.3709 15.3737 13.9963L15.7366 15.2936L13.5184 15.9434L13.1724 15.6637C12.8177 15.2945 12.3799 14.8385 11.8592 14.2965C11.3781 11.6781 11.6586 6.15848 11.6378 3.49658Z" fill="#114EBA"/>
<path d="M15.3738 13.9961C16.7964 13.7069 18.0634 14.193 19.5092 14.5591L18.6723 16.0951C17.4537 15.4567 17.0815 15.1495 15.7367 15.2934L15.3738 13.9961Z" fill="#68A8E5"/>
<path d="M11.6379 3.49636C14.9236 -1.1451 29.2111 -1.15959 32.6023 3.41843L27.5478 5.65873L26.308 5.75116L22.8477 5.95395L19.9975 5.71169L19.3131 4.94944C17.7157 4.58379 15.8928 3.94991 14.411 4.50736L11.6379 3.49636Z" fill="#045FCD"/>
<path d="M27.5476 5.65876L32.6022 3.41846C32.7096 7.86511 33.8599 12.57 31.2355 15.3478C31.1096 15.4792 30.9823 15.609 30.8529 15.7374L28.7354 16.2134L27.7089 14.623C28.2339 11.7458 27.7944 8.59988 27.5476 5.65876Z" fill="#012379"/>
<path d="M19.9974 5.71191L22.8476 5.95417C23.4117 9.06063 23.522 10.8714 23.6835 13.9993L22.8881 15.0498L21.6902 16.2996C22.3709 17.0263 22.8706 16.9429 23.9793 17.2082C21.9557 17.4225 20.5083 17.2631 18.4788 17.1138L18.6722 16.0953L19.5091 14.5593C19.282 13.3829 19.3239 12.7066 19.3335 11.5397C19.4127 9.74996 19.5909 7.95772 19.7504 6.17246L19.9974 5.71191Z" fill="#114EBA"/>
<path d="M19.7506 6.17236L20.7999 6.78627C21.1844 8.85275 21.4771 11.2689 20.4867 13.207L19.7556 12.9702L19.3337 11.5396C19.4129 9.74986 19.5911 7.95762 19.7506 6.17236Z" fill="#0E2F70"/>
<path d="M22.8477 5.95401L26.3079 5.75122C26.4837 7.97704 26.9303 10.6439 26.1046 12.65C25.163 13.6335 25.0141 13.6965 23.6835 13.9992C23.522 10.8712 23.4118 9.06047 22.8477 5.95401Z" fill="#0E2F70"/>
<path d="M22.8881 15.0496C24.2827 15.3613 25.1659 15.668 26.586 15.3653L26.7429 14.8438L27.7089 14.623L28.7354 16.2135C27.2988 16.5417 25.4017 17.0297 23.9793 17.208C22.8706 16.9428 22.3708 17.0262 21.6902 16.2994L22.8881 15.0496Z" fill="#0C4097"/>
<path d="M15.7366 15.2935C17.0814 15.1496 17.4536 15.4568 18.6722 16.0952L18.4788 17.1137C20.5083 17.263 21.9557 17.4224 23.9794 17.2081C25.4017 17.0298 27.2989 16.5417 28.7355 16.2135L30.8529 15.7375C31.7136 17.9409 33.0947 19.4054 34.6956 21.1267C40.7387 27.6229 44.0205 32.685 43.9002 41.8625C42.9801 40.9219 42.7543 41.0807 41.3916 40.6801L41.1109 40.5378C40.9865 29.9441 35.7406 26.0075 28.2524 19.9574C21.6648 20.1942 19.6997 20.39 13.5168 18.4748L12.7012 17.3804L13.1724 15.6636L13.5184 15.9433L15.7366 15.2935Z" fill="#68A8E5"/>
<path d="M15.7365 15.2935C17.0813 15.1496 17.4535 15.4568 18.6721 16.0952L18.4787 17.1137C16.221 16.8195 15.6545 16.7101 13.5183 15.9433L15.7365 15.2935Z" fill="#1373DD"/>
<path d="M7.86663 30.2668C9.32321 27.6569 11.3704 23.6453 13.9192 22.1672C15.5702 22.2097 14.9207 22.0064 16.3654 23.0978C17.9844 27.1898 12.5161 33.0981 11.5221 37.5857C9.85844 37.8934 7.97198 38.1961 6.34073 38.5557L5.84106 38.0752C6.01125 35.8773 7.19094 32.4772 7.86663 30.2668Z" fill="#FAFAFB"/>
<path d="M7.71484 22.891C8.55218 21.349 11.3907 18.5357 12.7013 17.3804L13.517 18.4748C11.5095 20.2051 9.8636 22.4399 8.20472 24.5214L7.71484 22.891Z" fill="#85CCF8"/>
<path d="M11.522 37.5857C21.5089 36.6771 31.7046 36.3055 41.111 40.5378L41.3917 40.6802C42.7543 41.0808 42.9801 40.922 43.9002 41.8625C43.144 43.7037 42.3632 45.5434 41.7154 47.4246L41.544 47.4516C40.4191 48.5415 37.499 49.2843 35.8861 49.8068C33.6497 50.2778 23.8947 51.4481 23.0622 51.8717C20.0823 52.0396 14.8423 51.2239 11.6977 50.8303C9.95837 50.2828 8.58462 49.7588 6.75655 49.6649C5.29783 49.535 3.84135 49.3812 2.38762 49.2044L1.89225 48.1499L2.10345 47.1738C1.54479 45.6538 0.692624 43.9315 0 42.4405C0.871849 40.6662 2.09206 40.3815 3.8401 39.7686L3.86043 39.4689L6.34071 38.5558C7.97196 38.1961 9.85842 37.8934 11.522 37.5857Z" fill="#2799EE"/>
<path d="M2.10353 47.1739L2.8955 46.2273C5.59612 46.3487 8.55173 48.2249 11.5202 48.8208C15.1278 49.2548 25.5742 50.4611 28.7951 49.0036L33.8891 48.5241L35.8861 49.8068C33.6498 50.2778 23.8947 51.4482 23.0623 51.8718C20.0824 52.0396 14.8423 51.2239 11.6978 50.8303C9.95846 50.2828 8.5847 49.7589 6.75663 49.6649C5.29791 49.5351 3.84143 49.3812 2.3877 49.2044L1.89233 48.1499L2.10353 47.1739Z" fill="#00379A"/>
<path d="M41.3916 40.6802C42.7543 41.0808 42.9801 40.9219 43.9002 41.8625C43.1439 43.7037 42.3632 45.5434 41.7153 47.4246L41.544 47.4515C40.4191 48.5415 37.4989 49.2843 35.886 49.8068L33.8889 48.524L28.7949 49.0035C29.719 47.494 31.3634 47.1763 32.9908 46.6329C36.8056 45.3601 38.5734 43.2991 41.3916 40.6802Z" fill="#478AD6"/>
<path d="M33.8889 48.524C36.1702 47.8716 38.9475 46.4066 41.0624 46.2842L41.5439 47.4515C40.419 48.5415 37.4989 49.2842 35.886 49.8067L33.8889 48.524Z" fill="#0E2F70"/>
<path d="M0 42.4404C0.871849 40.6662 2.09206 40.3815 3.8401 39.7686C4.09375 40.0783 4.8668 40.9769 5.02649 41.2631C6.23361 44.0534 6.7556 44.8046 9.64318 45.911C10.2688 46.98 10.7359 47.8492 11.5201 48.8207C8.55165 48.2248 5.59603 46.3486 2.89542 46.2272L2.10345 47.1738C1.54479 45.6538 0.692624 43.9315 0 42.4404Z" fill="#2799EE"/>
<path d="M5.02661 41.2631C6.5208 40.5243 7.58871 39.7765 9.19194 40.1382C11.2917 41.352 12.925 42.6592 11.7064 45.3316L9.6433 45.911C6.75572 44.8046 6.23373 44.0533 5.02661 41.2631Z" fill="#85CCF8"/>
<path d="M38.3765 63.6727C38.9954 62.0812 39.3745 60.4503 40.7852 59.6086L41.7917 59.9019C42.2882 64.4429 43.6744 64.1497 41.2842 68.0484C36.8116 70.9965 32.1636 71.9411 26.8932 72.6184C21.3558 73.1154 6.00284 72.8432 2.61475 67.7717C4.10579 66.9569 5.79439 67.3846 7.41016 67.8396C7.61187 67.8971 7.81232 67.959 8.01138 68.0249C8.56763 68.2747 11.74 68.7342 12.5217 68.8666C21.6749 70.4141 27.2044 69.2967 35.9609 66.7702C36.9774 65.7362 37.8795 65.0139 38.3765 63.6727Z" fill="#00379A"/>
<path d="M1.89234 48.1499L2.38771 49.2044C3.84144 49.3812 5.29792 49.5351 6.75664 49.6649C8.58471 49.7588 9.95847 50.2828 11.6978 50.8303C12.0013 53.3893 12.6487 56.257 10.9929 58.3894C10.5875 58.9114 9.54852 59.834 9.29646 60.2486C8.37656 61.404 7.80557 61.8375 6.59325 62.6153C6.77997 63.8291 6.81154 64.1353 7.24407 65.2722L6.31917 65.4475C6.58201 66.7742 7.0522 67.0594 8.01157 68.025C7.81251 67.959 7.61206 67.8971 7.41036 67.8397C5.79458 67.3846 4.10598 66.957 2.61494 67.7717C1.34258 66.7088 1.1169 65.5419 1.18598 63.9784C2.17632 62.2496 1.60538 62.8176 3.36246 61.8415C5.6239 58.2565 3.26396 53.8988 1.15801 51.1475C0.793468 50.6715 1.64873 48.7173 1.89234 48.1499Z" fill="#1373DD"/>
<path d="M6.75659 49.6648C8.58466 49.7587 9.95842 50.2827 11.6978 50.8302C12.0013 53.3892 12.6486 56.2569 10.9928 58.3893C10.5874 58.9113 9.54847 59.8338 9.29641 60.2484C7.83239 60.8124 7.85987 61.0716 6.47592 60.7819C4.88467 57.8987 6.21712 53.0335 6.75659 49.6648Z" fill="#2799EE"/>
<path d="M2.6149 67.7717C1.34254 66.7088 1.11687 65.5419 1.18595 63.9784C2.17628 62.2496 1.60534 62.8176 3.36242 61.8416C4.55811 62.1123 4.7683 62.0933 5.73336 62.7956L6.31913 65.4475C6.58198 66.7742 7.05217 67.0594 8.01153 68.025C7.81248 67.9591 7.61202 67.8971 7.41032 67.8397C5.79455 67.3846 4.10595 66.957 2.6149 67.7717Z" fill="#045FCD"/>
<path d="M11.6977 50.8303C14.8423 51.2239 20.0824 52.0396 23.0622 51.8718C20.0898 56.0282 13.1851 63.5179 9.47046 67.6663C8.89927 67.8067 8.41295 67.9261 8.01149 68.025C7.05213 67.0594 6.58194 66.7742 6.31909 65.4475L7.24399 65.2722C6.81146 64.1353 6.77989 63.8291 6.59317 62.6153C7.80549 61.8375 8.37648 61.404 9.29639 60.2486C9.54844 59.834 10.5874 58.9114 10.9928 58.3894C12.6486 56.257 12.0012 53.3893 11.6977 50.8303Z" fill="#045FCD"/>
<path d="M37.1128 55.0805C39.0674 54.6948 41.0459 54.5075 42.5165 53.1848C42.3996 55.0375 42.3277 58.2539 41.7917 59.9018L40.7852 59.6085C39.3746 60.4502 38.9955 62.0811 38.3766 63.6725C37.8071 61.0007 37.4724 57.8218 37.1128 55.0805Z" fill="#478AD6"/>
<path d="M26.8933 72.6185C32.1637 71.9412 36.8117 70.9966 41.2843 68.0485C45.2859 76.0896 44.1165 74.3683 42.5316 82.6412C42.4112 84.2371 43.9237 85.9765 44.0691 87.4675C44.3713 90.5615 41.8957 94.5036 43.4067 97.2979C43.4961 97.4862 43.5855 97.675 43.675 97.8633C44.0456 100.315 43.667 103.743 44.5341 104.772C48.1366 105.84 54.1073 107.022 56.1817 109.907C58.0609 120.087 31.7121 119.539 25.9927 118.812L24.2864 118.874C19.3605 118.909 15.9273 118.835 11.1728 117.432C9.14568 117.011 7.31846 115.955 5.46872 115.01L4.47918 114.537C0.559912 108.612 0.0252851 105.976 0.478792 98.5467C0.61371 96.3358 1.87438 95.8363 0.96227 93.1689C-0.859301 91.0005 1.30054 85.2442 1.76703 82.8815L1.80809 82.6622C-0.538915 79.5587 0.231482 75.4797 0.972658 71.9357C1.7002 70.3832 2.06544 69.3996 2.61486 67.7717C6.00295 72.8433 21.3559 73.1155 26.8933 72.6185Z" fill="#2799EE"/>
<path d="M1.80817 82.6621C3.18298 83.5403 3.59932 83.9269 5.27968 83.9219L6.42671 84.4788C7.98399 85.0073 10.3527 85.7331 11.7474 86.4389C12.8639 86.5653 14.4035 86.6897 15.4622 86.9384C17.4624 86.9614 18.2734 87.5403 20.0871 87.6227C23.7897 87.7901 27.6122 87.6542 31.3141 87.4844C30.8581 91.1583 28.6003 95.7588 29.2206 98.5925C30.6787 98.7474 31.5629 99.0211 32.9495 99.4062L33.0174 99.7779L31.1408 100.098C26.0527 100.91 23.1037 100.762 18.0084 100.544C12.7827 99.5256 9.77329 98.7004 4.67822 97.07C4.73871 96.2059 4.96499 96.1085 5.49147 95.3117L5.61205 94.9436C4.86443 94.3057 3.77999 93.1678 3.04251 92.4445L1.23718 92.6648L0.962345 93.1688C-0.859226 91.0005 1.30061 85.2441 1.76711 82.8814L1.80817 82.6621Z" fill="#68A8E5"/>
<path d="M1.80817 82.6621C3.18298 83.5403 3.59932 83.9269 5.27968 83.9219L6.42671 84.4788C7.98399 85.0073 10.3527 85.7331 11.7474 86.4389C12.8639 86.5653 14.4035 86.6897 15.4622 86.9384C13.9957 87.9579 12.7226 87.6842 10.9178 87.5818L10.9014 97.534L5.49147 95.3117L5.61205 94.9436C4.86443 94.3057 3.77999 93.1678 3.04251 92.4445L1.23718 92.6648L0.962345 93.1688C-0.859226 91.0005 1.30061 85.2441 1.76711 82.8814L1.80817 82.6621Z" fill="#85CCF8"/>
<path d="M1.80817 82.6621C3.18298 83.5403 3.59932 83.9269 5.27968 83.9219L6.42671 84.4788C4.93032 86.7076 5.44272 90.5399 5.57639 93.3791L5.61205 94.9436C4.86443 94.3057 3.77999 93.1678 3.04251 92.4445L1.23718 92.6648L0.962345 93.1688C-0.859226 91.0005 1.30061 85.2441 1.76711 82.8814L1.80817 82.6621Z" fill="#85CCF8"/>
<path d="M1.80817 82.6621C3.18298 83.5403 3.59932 83.9269 5.27968 83.9219C0.586663 85.5333 1.97246 88.1692 3.04251 92.4445L1.23718 92.6648L0.962345 93.1688C-0.859226 91.0005 1.30061 85.2441 1.76711 82.8814L1.80817 82.6621Z" fill="#68A8E5"/>
<path d="M6.42668 84.4788C7.98396 85.0072 10.3527 85.733 11.7474 86.4388L10.3848 87.6996L7.62611 87.2091C6.15579 89.5713 8.26293 91.39 6.26828 93.2906L5.57636 93.3791C5.44269 90.5398 4.93029 86.7076 6.42668 84.4788Z" fill="#C5DFE9"/>
<path d="M5.49148 95.3118L10.9014 97.5341C17.7411 99.0866 22.2068 99.7319 29.2207 98.5926C30.6787 98.7474 31.5629 99.0212 32.9495 99.4063L33.0174 99.7779L31.1408 100.098C26.0528 100.91 23.1037 100.762 18.0085 100.544C12.7827 99.5256 9.7733 98.7005 4.67822 97.0701C4.73871 96.2059 4.96499 96.1085 5.49148 95.3118Z" fill="#478AD6"/>
<path d="M0.962312 93.1689L1.23714 92.6649L3.04248 92.4446C3.77996 93.1679 4.8644 94.3058 5.61202 94.9436L5.49144 95.3118C4.96495 96.1085 4.73867 96.2059 4.67818 97.0701C9.77326 98.7005 12.7827 99.5257 18.0084 100.544C23.1036 100.762 26.0527 100.91 31.1407 100.098C31.7976 102.454 24.9922 109.931 23.3293 112.665C21.8223 111.399 20.2631 110.031 18.6491 108.921C12.3638 110.394 12.9275 112.879 5.73485 113.145L5.46876 115.01L4.47923 114.537C0.559954 108.612 0.0253269 105.976 0.478834 98.5466C0.613752 96.3358 1.87442 95.8363 0.962312 93.1689Z" fill="#68A8E5"/>
<path d="M4.67822 97.0701C9.7733 98.7005 12.7827 99.5257 18.0085 100.544C15.9322 102.155 12.9141 101.109 10.5211 100.589C10.1027 102.971 9.90442 107.245 7.23822 107.763C4.71724 105.552 4.90755 100.367 4.67822 97.0701Z" fill="#85CCF8"/>
<path d="M2.61485 67.7717C6.00294 72.8433 21.3559 73.1155 26.8933 72.6185C35.0464 77.5627 31.7136 77.0991 30.1062 84.5004C26.1795 85.2587 13.922 85.939 10.6338 84.1772C4.01079 81.832 0.831944 78.1906 3.09369 70.9407C2.56625 71.1809 1.41727 71.6694 0.972656 71.9357C1.7002 70.3832 2.06544 69.3996 2.61485 67.7717Z" fill="#68A8E5"/>
<path d="M3.09361 70.9404C4.9488 72.89 3.3111 75.0329 4.92527 76.6099L5.4099 76.3841C6.58465 78.0684 5.95137 77.5645 7.76904 78.3602C10.1971 77.9461 11.1895 76.3506 12.8885 74.397L14.1982 75.2812C14.2284 75.948 11.2255 81.9292 10.6337 84.177C4.01071 81.8318 0.831866 78.1903 3.09361 70.9404Z" fill="#85CCF8"/>
<path d="M5.40991 76.3843C5.44902 75.0526 5.36126 74.3607 6.09679 73.2168C8.34749 72.4291 10.3538 73.5605 12.8886 74.3972C11.1895 76.3508 10.1971 77.9463 7.76906 78.3603C5.95138 77.5646 6.58466 78.0686 5.40991 76.3843Z" fill="#C5DFE9"/>
<path d="M43.6749 97.8633C44.0455 100.315 43.6669 103.743 44.5341 104.772C48.1365 105.84 54.1072 107.022 56.1817 109.907C58.0609 120.087 31.7121 119.539 25.9927 118.812C28.7805 117.545 30.224 115.704 30.737 112.76L33.4609 114.742C33.5338 114.917 34.0863 115.508 34.2496 115.693C43.1674 116.465 43.5066 103.681 43.6749 97.8633Z" fill="#9AB4DA"/>
<path d="M11.1726 117.432C13.5501 116.063 16.1774 114.623 18.4626 113.141C20.1232 114.821 22.5373 117.418 24.2863 118.874C19.3603 118.909 15.9272 118.835 11.1726 117.432Z" fill="#9AB4DA"/>
<path d="M30.737 112.76C30.3269 111.473 30.4123 111.959 30.743 110.523L31.9983 109.597C33.7111 109.919 33.1092 109.593 34.307 110.777C34.817 112.67 34.6542 112.148 34.0103 114.25L33.4609 114.742L30.737 112.76Z" fill="#1373DD"/>
<path d="M0 42.4405C0.775243 33.6916 1.20762 29.8503 7.71476 22.8911L8.20464 24.5215C7.79843 25.3008 7.26755 26.1215 7.12459 26.9476C7.25536 28.3882 7.76531 29.3163 7.86662 30.2669C7.19093 32.4772 6.01123 35.8774 5.84105 38.0753L6.34071 38.5558L3.86043 39.4689L3.8401 39.7686C2.09206 40.3815 0.871849 40.6662 0 42.4405Z" fill="#85CCF8"/>
<path d="M7.1245 26.9475C7.25527 28.3881 7.76522 29.3162 7.86652 30.2668C7.19083 32.4771 6.01113 35.8773 5.84095 38.0751L6.34061 38.5557L3.86033 39.4688C0.924851 36.8543 5.57136 29.6579 7.1245 26.9475Z" fill="#C5DFE9"/>
</svg>
