<svg width="379" height="604" viewBox="0 0 379 604" fill="none" xmlns="http://www.w3.org/2000/svg">
<path d="M69.1221 80.0877C74.0908 80.6118 78.3971 80.3618 83.3576 80.1945C87.7549 80.2525 94.7029 79.523 97.9905 81.3619C99.6136 84.0454 99.1085 84.5935 99.2161 87.9939L276.634 87.9766C276.551 84.4271 276.013 83.513 277.851 81.1376C281.818 79.3831 289.279 80.0985 294.231 80.091C298.173 80.1622 304.914 80.486 308.591 80.0041L308.831 88.0337C319.141 88.8815 363.09 87.5601 367.736 89.1258C370.253 90.8405 371.885 91.9806 374.237 94.0008C374.328 104.393 374.916 120.91 374.087 130.938C369.731 135.344 367.86 135.475 361.492 135.504C360.531 135.508 359.57 135.492 358.61 135.457C358.295 139.679 358.014 156.222 357.268 158.795C357.086 163.086 356.904 173.076 356.175 176.868C353.003 229.596 350.113 282.34 347.505 335.098C346.569 352.544 345.02 370.146 343.935 387.707C341.824 422.01 340.722 457.541 337.857 491.766L346.445 487.036C356.366 487.283 366.063 487.601 367.255 500.294C368.44 512.872 367.611 525.573 367.835 538.208C367.487 554.519 368.34 572.734 367.628 588.772L367.603 589.269C364.34 594.518 362.113 597.391 355.836 598.5C333.617 602.458 332.068 590.527 331.828 573.695C317.849 608.511 285.503 602.947 254.548 602.922L194.21 602.897H125.857C93.9493 602.889 63.1762 609.43 47.0029 575.392C45.0982 569.654 44.7421 564.14 44.6428 558.154C42.796 536.122 41.4047 514.048 40.4524 491.954C37.2393 454.592 36.0965 414.467 33.8688 376.874L21.4304 168.597C20.4946 162.753 20.6271 156.475 20.6023 150.542C19.7824 146.892 19.8487 139.283 19.7576 135.269C12.8013 135.373 8.05619 136.546 3.54291 130.541C2.75619 122.88 3.26961 104.683 3.21164 96.0823C3.87414 94.5547 4.56145 92.7895 5.77052 91.6113C11.6419 85.8967 57.3296 88.2837 68.6667 88.008C68.7329 85.4322 68.9647 82.6767 69.1221 80.0877Z" fill="#DE261E"/>
<path d="M69.1221 80.0877C74.0908 80.6118 78.3971 80.3618 83.3576 80.1945C87.7549 80.2525 94.7029 79.523 97.9905 81.3619C99.6136 84.0454 99.1085 84.5935 99.2161 87.9939L276.634 87.9766C276.551 84.4271 276.013 83.513 277.851 81.1376C281.818 79.3831 289.279 80.0985 294.231 80.091C298.173 80.1622 304.914 80.486 308.591 80.0041L308.831 88.0337C319.141 88.8815 363.09 87.5601 367.736 89.1258C370.253 90.8405 371.885 91.9806 374.237 94.0008C374.328 104.393 374.916 120.91 374.087 130.938C369.731 135.344 367.86 135.475 361.492 135.504C360.531 135.508 359.57 135.492 358.61 135.457C358.295 139.679 358.014 156.222 357.268 158.795C357.086 163.086 356.904 173.076 356.175 176.868C355.744 172.788 355.86 160.011 354.767 158.124C349.509 157.749 343.132 157.914 337.65 157.703C328.772 157.36 318.139 155.775 309.485 156.57L304.575 156.605L296.343 156.761L81.9084 156.533L81.7096 151.243C80.6331 145.061 81.6434 141.72 82.7116 135.686C79.5234 131.26 62.5634 134.527 55.8224 132.576C51.1021 132.03 44.0465 132.502 37.8107 131.829C28.9415 131.982 11.4432 132.901 3.54291 130.541C2.75619 122.88 3.26961 104.683 3.21164 96.0823C3.87414 94.5547 4.56145 92.7895 5.77052 91.6113C11.6419 85.8967 57.3296 88.2837 68.6667 88.008C68.7329 85.4322 68.9647 82.6767 69.1221 80.0877Z" fill="#E8291F"/>
<path d="M55.8225 132.576C77.1633 131.412 113.104 132.529 135.306 132.532L301.511 132.409L344.49 131.903C352.018 131.848 367.471 132.592 374.087 130.938C369.732 135.344 367.86 135.475 361.492 135.504C360.531 135.508 359.57 135.492 358.61 135.457C358.295 139.679 358.014 156.222 357.268 158.795C357.086 163.086 356.904 173.076 356.175 176.869C355.745 172.788 355.86 160.011 354.767 158.124C349.509 157.749 343.132 157.914 337.65 157.703C328.772 157.36 318.139 155.775 309.485 156.57L304.575 156.605L296.343 156.761L81.9084 156.533L81.7097 151.243C80.6331 145.061 81.6434 141.72 82.7117 135.686C79.5234 131.26 62.5634 134.527 55.8225 132.576Z" fill="#9D1211"/>
<path d="M83.0264 141.377C112.731 139.652 156.771 141.133 187.329 141.16L257.04 141.14C268.982 141.133 283.64 140.745 295.407 141.326C295.73 146.151 296.293 152.007 296.343 156.761L81.9085 156.533L81.7097 151.243C82.1155 148.102 82.4964 144.449 83.0264 141.377Z" fill="#C01917"/>
<path d="M306.902 141.509C320.814 141.367 339.994 140.902 350.958 151.335C353.095 153.372 354.337 155.7 356.78 157.503L357.268 158.795C357.086 163.086 356.904 173.076 356.175 176.869C355.744 172.788 355.86 160.011 354.767 158.124C349.509 157.749 343.132 157.914 337.65 157.703C328.772 157.36 318.139 155.775 309.485 156.57L304.575 156.605C305.146 151.051 305.867 146.936 306.902 141.509Z" fill="#C01917"/>
<path d="M69.1221 80.0877C74.0908 80.6118 78.3971 80.3618 83.3576 80.1945C87.7549 80.2525 94.7029 79.523 97.9905 81.3619C99.6136 84.0454 99.1085 84.5935 99.2161 87.9939L276.634 87.9766C276.551 84.4271 276.013 83.513 277.851 81.1376C281.818 79.3831 289.279 80.0985 294.231 80.091C298.173 80.1622 304.914 80.486 308.591 80.0041L308.831 88.0337C319.141 88.8815 363.09 87.5601 367.736 89.1258C368.878 92.2853 370.982 93.6241 373.557 95.7296C362.196 95.8025 350.767 96.6329 339.174 96.782C294.157 97.1852 249.14 97.3152 204.131 97.1711C174.079 98.7434 142.925 96.9658 112.797 97.7962C92.1853 98.365 71.1344 96.469 50.5969 98.0529C49.8765 109.194 50.1912 120.372 50.7377 131.517C46.8207 131.513 41.5621 131.352 37.8107 131.829C28.9415 131.982 11.4432 132.901 3.54291 130.541C2.75619 122.88 3.26961 104.683 3.21164 96.0823C3.87414 94.5547 4.56145 92.7895 5.77052 91.6113C11.6419 85.8967 57.3296 88.2837 68.6667 88.008C68.7329 85.4322 68.9647 82.6767 69.1221 80.0877Z" fill="#DE261E"/>
<path d="M309.485 156.57C318.139 155.775 328.772 157.36 337.65 157.703C343.132 157.914 349.509 157.749 354.767 158.124C355.86 160.011 355.744 172.788 356.175 176.868C353.003 229.596 350.113 282.34 347.505 335.097C346.569 352.544 345.02 370.146 343.935 387.707C341.824 422.01 340.722 457.541 337.857 491.766L346.445 487.036C356.366 487.283 366.063 487.601 367.255 500.294C368.44 512.872 367.611 525.573 367.835 538.208C367.487 554.519 368.34 572.734 367.628 588.772L367.603 589.269C364.34 594.518 362.113 597.391 355.836 598.5C333.617 602.458 332.068 590.527 331.828 573.695C317.849 608.511 285.503 602.947 254.548 602.922L194.21 602.897H125.857C93.9493 602.889 63.1762 609.43 47.003 575.392C45.0983 569.654 44.7422 564.14 44.6428 558.154C56.3028 567.982 57.0481 570.151 72.3104 572.213C74.7037 573.272 82.4881 573.736 86.0242 574.316C83.6061 574.531 81.1879 574.721 78.7615 574.87C123.787 579.118 168.406 576.742 213.589 577.305C218.168 577.362 224.379 577.677 228.768 577.321C256.229 575.077 303.299 588.275 307.059 547.887C309.469 520.754 310.198 494.574 311.465 467.926L317.883 349.496L324.094 229.837C325.137 210.646 328.292 186.366 326.652 166.997C326.296 162.8 321.667 159.943 318.355 157.648C315.39 157.436 312.434 156.977 309.485 156.57Z" fill="#C01917"/>
<path d="M346.445 487.036C356.365 487.283 366.063 487.601 367.255 500.294C368.44 512.872 367.611 525.573 367.835 538.208C367.487 554.519 368.34 572.734 367.628 588.772L367.603 589.269C364.34 594.518 362.113 597.391 355.835 598.5C333.617 602.458 332.068 590.527 331.828 573.695C335.414 559.636 337.062 508.439 337.857 491.766L346.445 487.036Z" fill="#162737"/>
<path d="M21.9024 160.496C23.6249 158.562 23.0535 158.763 26.4405 158.704C30.7882 158.629 38.8458 157.873 42.8043 158.908C44.8415 164.197 42.15 172.31 39.8975 177.358C39.5911 178.032 39.2682 178.695 38.9204 179.348L39.5911 179.834C47.0029 168.321 40.6429 165.616 53.9757 157.536C53.7604 185.646 56.5926 222.34 58.0998 250.885L65.6523 397.353L71.2587 500.29C72.1531 517.368 72.6334 535.194 74.2483 552.176C74.9108 559.181 78.4799 565.928 83.3741 571.037C83.6557 571.319 83.929 571.6 84.2188 571.873C80.5502 571.89 75.863 571.799 72.3104 572.213C57.048 570.151 56.3028 567.982 44.6428 558.154C42.7961 536.122 41.4048 514.048 40.4524 491.954C37.2393 454.592 36.0965 414.467 33.8689 376.874L21.4304 168.597L21.9024 160.496Z" fill="#E8291F"/>
<path d="M3.54297 130.542C11.4433 132.901 28.9416 131.982 37.8108 131.829C44.0466 132.502 51.1022 132.03 55.8225 132.576C62.5634 134.527 79.5234 131.26 82.7117 135.686C81.6434 141.72 80.6331 145.061 81.7097 151.243L81.9084 156.533L74.4967 156.689C58.3234 156.619 38.2994 156.691 22.1592 157.295C21.2483 159.199 21.447 158.177 21.9024 160.496L21.4304 168.597C20.4947 162.753 20.6272 156.475 20.6023 150.542C19.7825 146.892 19.8487 139.283 19.7576 135.269C12.8014 135.374 8.05625 136.546 3.54297 130.542Z" fill="#A31311"/>
<path d="M20.6023 150.542L21.6043 150.74L21.5629 154.942C24.1715 155.609 39.6326 156.463 42.1501 155.72C44.4026 152.779 41.3468 150.632 42.8789 145.909C46.8787 141.81 53.1476 141.582 58.5635 141.518C62.8366 141.478 67.1015 141.472 71.3746 141.5C72.2193 146.36 73.0391 152.048 74.4966 156.689C58.3234 156.619 38.2993 156.691 22.1592 157.295C21.2482 159.199 21.4469 158.177 21.9024 160.496L21.4304 168.597C20.4946 162.753 20.6271 156.475 20.6023 150.542Z" fill="#C01917"/>
<path d="M185.838 296.587C190.724 296.171 195.916 296.807 199.858 300.061C204.885 304.205 256.568 395.548 262.448 407.822C263.392 409.795 263.93 411.651 264.055 413.85C264.311 418.115 263.019 422.872 259.972 425.946C257.181 428.761 253.289 430.403 249.455 431.211C236.776 433.889 207.618 432.04 193.565 431.984C178.609 431.883 138.817 434.16 125.393 430.235C105.585 424.441 119.787 401.856 126.71 389.524L147.339 352.857C156.465 336.662 166.452 318.206 176.406 302.416C178.137 299.677 182.791 297.885 185.838 296.587Z" fill="#FEFEFE"/>
<path d="M186.798 307.993C191.246 308.338 194.459 309.073 196.024 313.287C201.547 328.222 250.763 402.411 252.162 414.416C251.79 415.971 251.516 417.362 250.365 418.546C246.018 423.005 201.158 420.923 192.529 420.885C183.072 420.865 133.153 423.084 128.573 418.649C127.422 417.53 126.635 415.209 126.768 413.605C127.124 409.57 177.151 321.337 183.536 311.488C184.455 310.074 185.465 309.026 186.798 307.993Z" fill="#DE261E"/>
<path d="M186.004 335.366C192.587 335.276 198.401 337.124 197.68 344.641C196.918 352.611 197.184 381.331 192.679 386.166C191.734 386.18 190.79 386.171 189.838 386.14C186.898 386.027 186.012 385.828 184.033 383.725C182.219 376.299 180.977 350.042 180.687 341.227C180.621 339.148 184.207 336.611 186.004 335.366Z" fill="#FEFEFE"/>
<path d="M187.238 393.796C191.809 392.769 196.372 395.541 197.564 400.069C198.757 404.597 196.157 409.258 191.676 410.616C188.629 411.539 185.316 410.723 183.047 408.489C180.77 406.255 179.909 402.96 180.778 399.898C181.656 396.835 184.132 394.495 187.238 393.796Z" fill="#FEFEFE"/>
<path d="M156.382 217.245C163.305 217.16 175.81 216.125 181.217 220.779C187.114 225.858 184.77 232.727 180.679 237.707C180.994 243.363 190.559 242.802 183.329 257.242C177.764 260.981 174.924 261.458 168.174 261.273C163.785 261.153 159.04 262.004 154.941 260.192C151.604 255.861 153.889 230.346 153.517 223.876C153.318 220.458 154.088 219.383 156.382 217.245Z" fill="#FEFEFE"/>
<path d="M165.118 242.246C170.435 242.105 176.008 241.629 177.192 247.998C176.488 250.831 176.099 250.97 173.913 253.106C170.642 253.294 166.36 253.22 162.998 253.263C162.824 249.781 162.311 246.094 163.371 242.877L165.118 242.246Z" fill="#E8291F"/>
<path d="M163.031 225.241C167.321 225.084 171.263 224.36 174.393 227.135C175.66 229.877 175.238 230.785 174.584 233.798C170.94 235.516 167.445 236.332 164 234.221C162.303 231.346 162.866 228.701 163.031 225.241Z" fill="#E8291F"/>
<path d="M207.32 216.387C223.435 217.822 225.058 224.461 217.829 237.387C217.978 238.823 217.597 238.919 218.574 239.773C240.776 259.12 192.231 271.55 192.919 251.712C193.929 249.375 194.832 249.17 197.15 247.943L197.937 247.529C201.44 251.085 205.208 254.948 210.657 253.765C212.479 252.549 213.912 251.018 214.367 248.806C215.767 241.856 207.03 244.796 203.287 239.424C202.276 231.946 208.703 237.882 212.785 231.091C213.299 227.989 213.522 229.12 212.388 226.389C206.525 222.734 199.767 229.553 193.714 227.192C192.24 220.178 202.483 217.416 207.32 216.387Z" fill="#FEFEFE"/>
<path d="M47.003 575.392C47.4668 611.731 13.9857 598.575 12.8014 590.726C9.17425 566.599 11.3274 529.465 11.2528 504.034C11.2032 485.568 27.0038 483.37 40.4525 491.954C41.4049 514.048 42.7962 536.122 44.6429 558.154C44.7423 564.14 45.0984 569.654 47.003 575.392Z" fill="#162737"/>
<path d="M114.605 44.7897C114.632 30.0975 112.953 16.3031 124.765 5.85532C131.95 -0.499521 148.056 0.06429 156.983 0.0440945C182.238 -0.0122845 207.264 -0.0350239 232.495 0.102978C240.485 0.169455 251.457 1.21794 256.518 7.70152C266.998 19.1313 264.27 30.3179 264.871 44.7686L318.877 44.6449C346.399 44.6096 379.252 39.8342 377.548 79.8246C377.461 81.8677 377.651 87.9987 378.155 89.9787C376.626 89.6792 375.088 89.4326 373.543 89.2399C365.05 88.178 340.461 88.6408 331.186 88.6004L241.703 88.4178L88.0855 88.247C61.9876 88.2251 35.7348 88.1258 9.63012 88.2958C6.90608 88.3134 4.86263 88.5684 2.6669 90.2867C2.69971 77.1967 1.18879 63.1516 10.8786 53.3887C14.7728 49.4683 19.7388 46.7865 25.1524 45.68C32.7609 44.1047 49.8615 44.618 58.6023 44.634L114.605 44.7897ZM244.43 44.7308C244.524 37.1491 245.723 28.1175 240.437 22.4779C228.638 17.2111 167.331 22.4594 150.983 20.6098C133.451 18.6256 134.868 31.4077 135.214 44.7501L244.43 44.7308Z" fill="#DE261E"/>
<path d="M2.66683 90.2867C4.86255 88.5684 6.90601 88.3134 9.63005 88.2957C35.7347 88.1258 61.9875 88.2251 88.0855 88.247L241.703 88.4178L331.185 88.6004C340.46 88.6408 365.05 88.1779 373.543 89.2399C375.088 89.4326 376.626 89.6791 378.155 89.9787L378.427 91.7837C377.307 93.3345 375.446 96.3706 373.671 96.4312C362.765 96.8065 350.859 96.9083 340.028 97.0017L256.91 97.1228C177.931 97.212 94.8695 98.9968 16.2071 97.5832C7.78345 97.5857 5.13597 99.1163 0 92.0437L2.66683 90.2867Z" fill="#DE261E"/>
</svg>
