<svg width="379" height="603" viewBox="0 0 379 603" fill="none" xmlns="http://www.w3.org/2000/svg">
<path d="M69.3866 87.1216L82.7724 87.086L99.6911 87.0736C156.672 87.1009 218.616 85.9003 275.254 87.2151L291.17 87.1299L309.724 87.2093C319.384 87.8485 329.575 87.0752 338.303 87.6681C349.175 87.2483 369.979 83.5729 374.959 94.9483C374.994 101.633 375.533 125.798 374.329 131.13C368.765 135.144 365.789 134.458 358.715 134.606C358.368 143.701 358.055 165.161 356.787 173.175L337.719 491.549C354.912 478.888 367.863 487.198 367.725 507.658C367.657 517.815 367.642 528.272 367.553 538.456C367.602 549.642 367.636 560.811 367.829 571.997C367.859 579.581 368.799 588.44 362.873 594.311C358.919 598.227 354.258 598.616 349.102 598.45C340.217 598.177 336.593 595.61 332.136 588.192C331.935 583.025 331.694 577.867 331.413 572.701C323.143 591.611 310.975 601.224 289.564 601.828C276.281 602.201 263.025 602.069 249.732 602.069L180.195 602.011H120.408C88.0211 601.994 64.2183 607.707 46.7706 574.969C45.1847 570.44 44.5951 558.667 44.398 553.724C42.0577 537.943 41.0292 507.686 40.3857 491.28C37.908 461.96 36.5565 428.711 34.9689 399.36L29.211 299.168C27.308 262.283 23.9623 225.955 22.8982 188.849C22.0013 182.791 21.338 172.553 21.251 166.504C20.2134 162.053 19.6842 140.077 19.5054 134.441C12.9334 134.549 7.33027 135.61 3.28901 129.598C2.8087 118.684 3.79666 106.337 3 95.6322C4.67447 90.8888 5.95476 90.4161 10.0763 87.6374C29.6963 87.0967 50.0607 88.0729 69.3866 87.1216Z" fill="#2D8929"/>
<path d="M69.3866 87.1216L82.7724 87.086L99.6911 87.0736C156.672 87.1009 218.616 85.9003 275.254 87.2151L291.17 87.1299L309.724 87.2093C319.384 87.8485 329.575 87.0752 338.303 87.6681C349.175 87.2483 369.979 83.5729 374.959 94.9483C374.994 101.633 375.533 125.798 374.329 131.13C352.244 130.168 335.148 131.018 313.322 131.669C290.482 130.595 259.237 131.563 235.876 131.571L83.208 131.661C71.3584 131.699 45.4721 132.285 34.2791 130.963L33.5835 130.916L17.0367 131.159C11.6672 131.322 8.38695 131.105 3.28901 129.598C2.8087 118.684 3.79666 106.337 3 95.6322C4.67447 90.8888 5.95476 90.4161 10.0763 87.6374C29.6963 87.0967 50.0607 88.0729 69.3866 87.1216Z" fill="#2D8929"/>
<path d="M69.3866 87.1216L82.7724 87.086L99.6911 87.0736C156.672 87.1009 218.616 85.9003 275.254 87.2151L291.17 87.1299L309.724 87.2093C319.384 87.8485 329.575 87.0752 338.303 87.6681C349.175 87.2483 369.979 83.5729 374.959 94.9483C370.074 96.3907 340.04 96.8601 334.129 96.0123C330.199 95.5527 315.216 95.9816 310.536 96.0056L258.119 96.2184C192.551 96.2425 124.237 97.3693 58.9523 96.187C56.0911 96.4146 53.7848 96.2002 51.6615 97.9274C49.5804 103.417 50.8043 123.449 50.6694 130.701C46.1362 130.716 38.563 130.517 34.2791 130.963L33.5835 130.916L17.0367 131.159C11.6672 131.322 8.38695 131.105 3.28901 129.598C2.8087 118.684 3.79666 106.337 3 95.6322C4.67447 90.8888 5.95476 90.4161 10.0763 87.6374C29.6963 87.0967 50.0607 88.0729 69.3866 87.1216Z" fill="#54B435"/>
<path d="M34.2145 97.1302C41.7414 96.708 51.6308 95.8974 58.9523 96.1872C56.0911 96.4149 53.7848 96.2004 51.6615 97.9276C49.5804 103.417 50.8044 123.449 50.6694 130.701C46.1362 130.717 38.563 130.517 34.2791 130.963L33.5835 130.916C34.3363 124.172 33.8361 105.519 34.2145 97.1302Z" fill="#449B2A"/>
<path d="M3 95.6323C8.14597 96.0422 11.8452 96.1332 17.0111 96.072C16.7461 107.766 16.7552 119.465 17.0367 131.159C11.6672 131.322 8.38695 131.105 3.28901 129.598C2.8087 118.684 3.79666 106.337 3 95.6323Z" fill="#449B2A"/>
<path d="M338.303 87.6682C349.175 87.2484 369.979 83.5731 374.959 94.9485C370.074 96.3908 340.04 96.8602 334.129 96.0124C343.389 93.1915 356.505 97.2767 361.746 92.6177C362.181 90.1322 362.425 90.8873 361.426 89.0219C354.825 89.1072 344.328 89.6669 338.303 87.6682Z" fill="#449B2A"/>
<path d="M45.2038 164.387C48.5709 160.008 50.4275 158.201 56.058 158.925C54.9797 173.218 56.2634 191.166 56.9317 205.762L60.2806 274.877C65.1086 367.106 69.3974 460.015 74.8606 552.25C75.2605 559.015 79.9105 565.655 84.1281 570.672C65.0473 571.144 56.6261 569.422 44.398 553.724C42.0577 537.943 41.0292 507.686 40.3857 491.28C37.908 461.961 36.5565 428.711 34.9689 399.36L29.211 299.168C27.308 262.284 23.9623 225.955 22.8982 188.849L23.4605 181.993C29.4553 178.349 41.95 192.918 45.2038 164.387Z" fill="#449B2A"/>
<path d="M313.322 131.669C335.148 131.018 352.244 130.168 374.329 131.13C368.766 135.144 365.789 134.458 358.715 134.606C358.368 143.701 358.055 165.161 356.787 173.175C356.206 169.201 356.155 162.135 356.037 157.865C350.283 156.13 304.114 155.487 296.627 155.847C296.496 153.371 296.48 151.156 296.488 148.675C296.122 145.693 295.891 144.542 295.048 141.658C291.933 139.355 253.789 140.556 246.29 140.517L135.613 140.135C124.849 140.148 98.3868 141.127 88.7856 139.704L85.1244 138.842C83.1005 136.478 83.6164 135.279 83.2081 131.661L235.876 131.571C259.237 131.564 290.482 130.595 313.322 131.669Z" fill="#126021"/>
<path d="M88.7855 139.704C98.3868 141.127 124.849 140.148 135.613 140.135L246.29 140.517C253.789 140.556 291.933 139.355 295.047 141.658C295.89 144.542 296.121 145.693 296.488 148.675C296.48 151.156 296.496 153.371 296.627 155.847C225.868 155.668 153.507 154.994 82.8255 155.791C82.7137 152.013 81.9419 144.399 84.0097 141.445C85.2271 139.707 86.3724 140.073 88.7855 139.704Z" fill="#1C7325"/>
<path d="M335.284 537.562C338.993 539.243 342.357 547.332 347.509 548.11C355.331 549.278 362.162 543.035 367.553 538.456C367.602 549.642 367.636 560.811 367.829 571.997C367.859 579.581 368.799 588.44 362.873 594.311C358.919 598.227 354.258 598.616 349.102 598.451C340.217 598.177 336.593 595.611 332.136 588.192C331.935 583.026 331.694 577.867 331.413 572.701C334.036 562.939 334.585 548.044 335.284 537.562Z" fill="#162737"/>
<path d="M337.719 491.549C354.912 478.888 367.863 487.198 367.725 507.658C367.658 517.815 367.642 528.272 367.553 538.456C362.162 543.035 355.331 549.278 347.509 548.11C342.357 547.332 338.993 539.243 335.284 537.562C334.974 526.948 337.01 502.947 337.719 491.549Z" fill="#0F2F3C"/>
<path d="M3.28906 129.598C8.387 131.105 11.6672 131.322 17.0368 131.159L33.5835 130.916L34.2792 130.963C45.4721 132.286 71.3584 131.699 83.2081 131.661C83.6163 135.279 83.1004 136.477 85.1244 138.842L88.7855 139.704C86.3724 140.073 85.2271 139.707 84.0097 141.445C81.9419 144.399 82.7137 152.013 82.8255 155.791C79.0219 155.77 62.0056 155.101 59.662 156.291L53.9852 156.326C48.3589 155.407 44.0378 156.215 38.4488 156.318C32.6279 156.424 26.9478 156.01 21.155 155.557C21.3554 159.142 21.7397 162.97 21.2511 166.504C20.2135 162.053 19.6843 140.077 19.5054 134.442C12.9334 134.549 7.33031 135.61 3.28906 129.598Z" fill="#196A23"/>
<path d="M183.491 357.159C186.918 316.851 225.396 294.214 262.685 292.925C265.654 318.978 265.59 346.911 248.357 368.539C238.834 380.692 224.787 388.465 209.429 390.08C205.405 390.489 200.492 390.248 196.415 389.975C193.412 388.508 193.569 387.902 191.053 388.742C187.105 393.541 187.226 400.089 184.663 400.861L184.128 399.642C195.6 375.404 176.121 376.813 183.491 357.159Z" fill="#FEFEFE"/>
<path d="M190.682 385.912C200.669 361.008 210.146 347.186 231.061 330.114C215.368 353.261 207.485 364.185 196.415 389.974C193.412 388.507 193.569 387.902 191.053 388.742C187.105 393.541 187.226 400.089 184.663 400.861L184.128 399.642C195.6 375.404 176.121 376.813 183.491 357.159C183.66 370.35 185.109 374.234 190.682 385.912Z" fill="#449B2A"/>
<path d="M114.974 326.342C141.69 327.576 174.373 339.358 178.555 369.751C179.279 375.007 179.647 383.104 176.231 387.478C175.409 388.285 175.215 388.479 174.722 389.571L172.87 390.106L171.085 388.022L169.983 388.468L171.934 392.064C174.467 392.695 174.674 391.881 177.529 390.309L184.128 399.642L184.662 400.861C187.226 400.089 187.105 393.541 191.053 388.742C193.569 387.902 193.412 388.508 196.415 389.975C192.632 401.795 190.765 415.931 183.965 426.482C180.866 431.292 172.371 438.55 166.599 434.081C164.633 427.1 173.995 425.137 177.537 421.393C179.01 419.838 180.716 414.4 181.458 412.2C179.275 404.194 176.867 400.473 172.389 393.773C169.922 394.047 167.443 394.211 164.961 394.266C126.817 395.06 115.568 357.709 114.974 326.342Z" fill="#FEFEFE"/>
<path d="M144.413 354.401C158.621 363.892 166.949 373.378 176.231 387.479C175.409 388.285 175.215 388.48 174.723 389.571L172.87 390.106L171.085 388.023L169.983 388.468C161.961 376.02 153.952 365.677 144.413 354.401Z" fill="#449B2A"/>
<path d="M105.355 216.164C125.833 216.539 126.725 244.523 109.585 250.149C89.0439 249.833 87.6783 221.713 105.355 216.164Z" fill="#FEFEFE"/>
<path d="M104.729 222.629C117.504 223.151 116.285 237.231 109.552 243.669C98.0025 243.985 98.8563 229.298 104.729 222.629Z" fill="#2D8929"/>
<path d="M126.391 216.948C131.559 216.681 137.06 216.037 142.052 217.623C153.523 221.268 152.655 229.313 144.933 236.66C147.129 240.443 150.187 244.389 149.775 248.442C147.106 250.148 147.795 249.598 144.101 249.659C142.261 246.123 138.797 238.585 135.277 237.375C134.249 238.989 133.898 245.173 131.9 248.96C129.008 249.79 130.213 249.791 127.335 248.972C125.24 246.3 126.19 222.217 126.391 216.948Z" fill="#FEFEFE"/>
<path d="M133.118 222.782C136.669 222.78 139.545 222.458 142.069 224.862C143.144 227.506 142.716 228.128 142.003 231.081C139.361 231.603 136.53 232.394 134.245 231.261C132.447 228.838 133.016 226.006 133.118 222.782Z" fill="#449B2A"/>
<path d="M235.754 237.669C235.644 231.45 234.763 221.459 238.327 216.4L239.531 216.528C243.55 221.84 244.317 245.954 240.765 250.621C233.335 249.023 227.445 235.701 223.562 229.112C223.675 235.265 224.702 244.91 221.142 249.836L219.883 249.636C215.381 244.017 215.83 223.143 217.58 216.735C219.166 216.717 220.569 216.888 222.139 217.042C227.608 220.27 232.512 231.591 235.754 237.669Z" fill="#FEFEFE"/>
<path d="M165.607 216.177C171.554 216.125 179.908 217.418 180.342 224.839C177.946 230.22 172.28 221.126 164.739 224.233C160.625 227.851 160.795 235.116 162.981 239.749C165.88 245.895 174.19 244.818 173.99 238.52L169.505 236.504C168.199 234.171 168.57 235.022 168.96 231.845C174.458 231.611 177.334 230.716 181.243 234.029C185.969 247.44 163.853 258.904 156.105 241.59C151.186 230.6 154.104 220.846 165.607 216.177Z" fill="#FEFEFE"/>
<path d="M194.9 216.838C197.204 216.811 198.806 216.958 201.106 217.167C204.882 220.05 213.916 244.006 210.125 249.415C203.595 250.058 207.135 245.662 202.676 242.573C186.258 242.859 196.582 245.166 188.855 250.16C186.179 249.82 187.106 250.039 184.745 248.222C184.377 246.05 193.379 220.777 194.9 216.838Z" fill="#FEFEFE"/>
<path d="M198.216 225.778C200.07 227.554 201.139 233.303 201.678 235.889L200.611 237.357C197.431 236.889 197.964 237.428 195.764 235.689C195.016 232.525 196.94 229.044 198.216 225.778Z" fill="#2D8929"/>
<path d="M282.44 215.635L285.433 217.481L285.831 219.329C284.682 223.05 280.135 227.719 277.442 231.017C279.051 233.524 287.256 245.307 287.832 247.042C286.476 249.681 287.406 248.646 284.958 250.286C279.403 249.545 277.449 240.726 272.268 237.171C270.28 237.977 270.956 237.532 269.801 240.057C269.911 243.442 270.437 249.295 266.326 250.269C260.058 246.027 261.407 221.583 266.153 216.024L267.858 216.695C270.403 220.829 269.909 225.404 269.838 230.202C273.714 225.074 277.923 220.208 282.44 215.635Z" fill="#FEFEFE"/>
<path d="M249.093 216.433C253.059 216.724 252.526 216.07 255.085 218.237C257.88 225.021 256.621 242.069 255.848 249.699C252.85 249.83 252.585 249.941 249.838 248.939C247.95 245.984 249 221.616 249.093 216.433Z" fill="#FEFEFE"/>
<path d="M45.9515 588.539C36.2517 603.368 12.1094 600.081 11.1984 588.101C9.31942 563.394 10.5401 527.254 10.6245 502.188C10.6875 483.473 28.194 482.878 40.3857 491.28C41.0292 507.685 42.0577 537.943 44.398 553.724C44.5951 558.667 45.1847 570.44 46.7705 574.969C46.7084 579.945 46.4468 583.58 45.9515 588.539Z" fill="#0F2F3C"/>
<path d="M114.605 44.7897C114.632 30.0975 112.953 16.3031 124.765 5.85532C131.95 -0.499521 148.056 0.06429 156.983 0.0440945C182.238 -0.0122845 207.264 -0.0350239 232.495 0.102978C240.485 0.169455 251.457 1.21794 256.518 7.70152C266.998 19.1313 264.27 30.3179 264.871 44.7686L318.877 44.6449C346.399 44.6096 379.252 39.8342 377.548 79.8246C377.461 81.8677 377.651 87.9987 378.155 89.9787C376.626 89.6792 375.088 89.4326 373.543 89.2399C365.05 88.178 340.461 88.6408 331.186 88.6004L241.703 88.4178L88.0855 88.247C61.9876 88.2251 35.7348 88.1258 9.63012 88.2958C6.90608 88.3134 4.86263 88.5684 2.6669 90.2867C2.69971 77.1967 1.18879 63.1516 10.8786 53.3887C14.7728 49.4683 19.7388 46.7865 25.1524 45.68C32.7609 44.1047 49.8615 44.618 58.6023 44.634L114.605 44.7897ZM244.43 44.7308C244.524 37.1491 245.723 28.1175 240.437 22.4779C228.638 17.2111 167.331 22.4594 150.983 20.6098C133.451 18.6256 134.868 31.4077 135.214 44.7501L244.43 44.7308Z" fill="#2F9026"/>
<path d="M2.66683 90.2867C4.86255 88.5684 6.90601 88.3134 9.63005 88.2957C35.7347 88.1258 61.9875 88.2251 88.0855 88.247L241.703 88.4178L331.185 88.6004C340.46 88.6408 365.05 88.1779 373.543 89.2399C375.088 89.4326 376.626 89.6791 378.155 89.9787L378.427 91.7837C377.307 93.3345 375.446 96.3706 373.671 96.4312C362.765 96.8065 350.859 96.9083 340.028 97.0017L256.91 97.1228C177.931 97.212 94.8695 98.9968 16.2071 97.5832C7.78345 97.5857 5.13597 99.1163 0 92.0437L2.66683 90.2867Z" fill="#6BBB38"/>
</svg>
