<svg width="102" height="27" viewBox="0 0 102 27" fill="none" xmlns="http://www.w3.org/2000/svg">
<path d="M70.032 10.7518C70.6943 7.32 71.2161 2.07036 74.0339 0C78.1538 0.597478 78.7913 9.7092 78.3204 12.9738C78.3056 13.0726 78.2893 13.1713 78.2717 13.2694L78.2696 19.8558L77.4131 22.5335L70.3067 23.1458L69.8011 20.717C69.7319 17.1209 69.8075 14.3423 70.032 10.7518Z" fill="#94AE64"/>
<path d="M70.032 10.7517C72.9339 11.929 72.9819 11.8557 74.3594 15.1224L74.5183 15.5033C76.037 15.5026 77.0813 14.3006 78.2717 13.2693L78.2696 19.8557L77.4131 22.5334L70.3067 23.1457L69.8011 20.717C69.7319 17.1208 69.8075 14.3422 70.032 10.7517Z" fill="#347A51"/>
<path d="M85.9998 21.2905L92.0471 21.0923C90.0582 21.8005 87.7995 22.3648 86.5682 24.0578C88.2443 26.2114 91.6687 25.1484 94.1314 25.4404C85.956 27.9397 65.0829 26.5839 56.3984 25.4651C58.8993 24.9946 61.0245 25.7437 62.6082 24.8577L62.4225 22.3352C67.6261 23.2346 66.4534 24.6271 70.3063 23.1457L77.4127 22.5334C81.5064 23.4632 82.7068 24.1432 85.9998 21.2905Z" fill="#D2D2D0" fill-opacity="0.894118"/>
<path d="M61.9514 21.9978C60.7497 19.1177 56.0989 11.962 56.9525 9.46209C63.8486 8.86461 67.6486 15.0757 69.8006 20.7168L70.3062 23.1456C66.4532 24.6269 67.626 23.2344 62.4224 22.335L61.9514 21.9978Z" fill="#66973F"/>
<path d="M78.2695 19.8557C80.3503 15.5387 82.3428 12.614 87.2025 10.8992C88.6521 10.4012 90.1171 9.94833 91.5956 9.54272C90.3424 12.133 86.8389 18.9176 86.0001 21.2905C82.7071 24.1432 81.5068 23.4632 77.4131 22.5335L78.2695 19.8557Z" fill="#66973F"/>
<path d="M92.0473 21.0923C95.1808 21.1233 99.2392 20.6232 101.106 23.557C99.7384 25.8566 96.5901 25.4693 94.1316 25.4404C91.6689 25.1484 88.2445 26.2114 86.5684 24.0578C87.7997 22.3649 90.0584 21.8005 92.0473 21.0923Z" fill="#E5E4E2"/>
<path d="M43.7935 23.7333C52.0126 21.227 53.4311 20.9921 61.9518 21.998L62.4227 22.3352L62.6084 24.8577C61.0247 25.7437 58.8995 24.9945 56.3986 25.465C52.6947 25.9341 47.3936 24.5706 43.7935 23.7333Z" fill="#D2D2D0" fill-opacity="0.988235"/>
<path d="M14.3195 7.76423C23.083 4.62377 33.7565 6.93821 34.9646 17.5934L38.8803 17.7528L39.7001 18.7671C37.5939 20.9991 36.9733 21.6699 35.4178 24.3681C29.9798 23.5794 6.79083 23.4115 0 23.2267C2.5771 19.0006 2.23256 22.3598 5.27354 19.1262C5.65552 18.2155 6.88405 17.4071 7.69884 16.7645C8.5574 15.02 9.69697 13.0534 10.6417 11.3216C11.2115 10.5929 13.5174 8.5169 14.3195 7.76423Z" fill="#888786"/>
<path d="M14.3193 7.76423C23.0829 4.62377 33.7563 6.93821 34.9644 17.5934L35.5045 19.7942C32.3343 17.8353 23.9033 16.4083 19.7277 15.025C17.2805 12.6612 16.1233 10.6127 14.3193 7.76423Z" fill="#A8A7A7"/>
<path d="M10.6421 11.3215C12.3585 13.0498 13.6703 16.2453 15.0012 16.7405C17.2917 17.5919 20.4195 17.6843 21.8916 19.888C21.7885 20.4354 21.7511 21.0195 21.4143 21.4335C15.2533 21.3806 10.3921 22.7202 7.69922 16.7644C8.55778 15.02 9.69735 13.0533 10.6421 11.3215Z" fill="#6E736F"/>
<path d="M38.8805 17.7527C43.0688 17.9001 53.4245 18.2578 56.2699 21.5774C55.6027 26.3107 39.8322 28.9468 35.418 24.368C36.9734 21.6698 37.594 20.999 39.7002 18.7671L38.8805 17.7527Z" fill="#E5E4E2" fill-opacity="0.854902"/>
</svg>
