<svg width="135" height="51" viewBox="0 0 135 51" fill="none" xmlns="http://www.w3.org/2000/svg">
<path d="M26.2383 10.7518C26.9006 7.32 27.4224 2.07036 30.2402 0C34.3601 0.597478 34.9976 9.7092 34.5267 12.9738C34.5119 13.0726 34.4956 13.1713 34.478 13.2694L34.4759 19.8558L33.6194 22.5335L26.513 23.1458L26.0074 20.717C25.9382 17.1209 26.0138 14.3423 26.2383 10.7518Z" fill="#94AE64"/>
<path d="M26.2383 10.7517C29.1402 11.929 29.1882 11.8557 30.5657 15.1224L30.7246 15.5033C32.2433 15.5026 33.2876 14.3006 34.478 13.2693L34.4759 19.8557L33.6194 22.5334L26.513 23.1457L26.0074 20.717C25.9382 17.1208 26.0138 14.3422 26.2383 10.7517Z" fill="#347A51"/>
<path d="M42.2066 21.2905L48.2539 21.0923C46.265 21.8005 44.0063 22.3648 42.7749 24.0578C44.4511 26.2114 47.8755 25.1484 50.3382 25.4404C42.1628 27.9397 21.2897 26.5839 12.6052 25.4651C15.1061 24.9946 17.2313 25.7437 18.815 24.8577L18.6293 22.3352C23.8329 23.2346 22.6601 24.6271 26.5131 23.1457L33.6195 22.5334C37.7132 23.4632 38.9135 24.1432 42.2066 21.2905Z" fill="#D2D2D0" fill-opacity="0.894118"/>
<path d="M18.1582 21.9978C16.9565 19.1177 12.3057 11.962 13.1593 9.46209C20.0554 8.86461 23.8553 15.0757 26.0074 20.7168L26.5129 23.1456C22.66 24.6269 23.8328 23.2344 18.6291 22.335L18.1582 21.9978Z" fill="#66973F"/>
<path d="M34.4758 19.8557C36.5566 15.5387 38.5491 12.614 43.4088 10.8992C44.8584 10.4012 46.3234 9.94833 47.8019 9.54272C46.5487 12.133 43.0452 18.9176 42.2064 21.2905C38.9134 24.1432 37.7131 23.4632 33.6194 22.5335L34.4758 19.8557Z" fill="#66973F"/>
<path d="M48.2539 21.0923C51.3873 21.1233 55.4458 20.6232 57.3126 23.557C55.9449 25.8566 52.7966 25.4693 50.3382 25.4404C47.8754 25.1484 44.4511 26.2114 42.7749 24.0578C44.0063 22.3649 46.2649 21.8005 48.2539 21.0923Z" fill="#E5E4E2"/>
<path d="M0 23.7333C8.21918 21.227 9.63764 20.9921 18.1583 21.998L18.6293 22.3352L18.815 24.8577C17.2313 25.7437 15.106 24.9945 12.6052 25.465C8.90123 25.9341 3.60017 24.5706 0 23.7333Z" fill="#D2D2D0" fill-opacity="0.988235"/>
<path d="M77.1738 40.9959C80.9089 28.4736 88.7178 22.6758 101.709 23.5957C105.43 24.8943 107.393 25.4121 110.507 27.8352C113.063 30.3972 118.181 40.1579 119.579 43.6327C124.254 43.2483 131.039 42.3059 134.767 45.9549L134.392 46.9933C130.142 49.2908 123.364 49.2724 118.499 49.7549C100.071 51.584 75.1827 51.0649 57.3125 46.2843C63.8576 43.675 69.5414 42.5146 76.5525 42.4081L77.1738 40.9959Z" fill="#767676"/>
<path d="M57.3125 46.2844C63.8576 43.6751 69.5414 42.5147 76.5525 42.4082C76.7008 42.6156 77.5903 43.9107 77.6539 43.9848C81.0006 48.0021 116.233 46.398 118.534 45.0683L119.579 43.6328C124.254 43.2484 131.039 42.3059 134.767 45.955L134.392 46.9933C130.142 49.2908 123.364 49.2725 118.499 49.755C100.071 51.5841 75.1827 51.065 57.3125 46.2844Z" fill="#E1E3D7"/>
<path d="M77.1738 40.9959C80.9089 28.4736 88.7178 22.6758 101.709 23.5957C105.43 24.8943 107.393 25.4121 110.507 27.8352C109.681 28.2746 104.844 30.8162 104.406 31.226C101.151 34.2445 94.0415 42.9576 88.9861 42.4639C86.2607 41.2774 82.9422 39.2613 80.3016 38.9714L77.1738 40.9959Z" fill="#A8A7A7"/>
<path d="M77.1738 40.9959C80.9089 28.4736 88.7178 22.6758 101.709 23.5957C97.3882 31.0384 93.3284 31.2754 88.0259 37.2855C85.5406 37.7426 82.6739 38.1835 80.3016 38.9714L77.1738 40.9959Z" fill="#B7B6B6"/>
</svg>
