<svg width="1440" height="261" viewBox="0 0 1440 261" fill="none" xmlns="http://www.w3.org/2000/svg">
<path d="M1254.62 122.491C1265.85 118.789 1274.1 117.143 1285.82 119.287C1293.31 121.175 1298.63 123.618 1304.37 128.945C1306.8 131.6 1307.79 132.722 1308.95 136.289C1315.01 132.298 1315.92 132.566 1322.41 135.326C1322.87 137.55 1320.79 142.491 1319.71 144.334L1323.6 148.335C1321.59 150.912 1321.58 151.772 1321.99 155.055C1322.05 155.495 1322.11 155.935 1322.19 156.374L1321.47 156.827C1327.72 157.979 1368.48 158.134 1371.74 154.718C1375.52 154.173 1382.57 154.731 1385.74 157.056C1382.59 162.536 1339.89 162.359 1333.14 163.382C1331.16 163.684 1330.76 166.172 1329.18 166.777C1321.33 169.776 1309.41 169.627 1301.12 170.097C1290.53 170.697 1279.5 172.364 1269.34 172.713C1248.27 173.437 1226.89 172.762 1205.9 171.159C1196.61 170.45 1180.51 169.239 1171.81 166.621C1171.63 165.543 1171.61 165.352 1171.09 164.393C1167.49 163.621 1162.23 163.859 1158.42 163.791C1148.91 163.62 1140.88 163.32 1131.68 160.576C1135.84 159.236 1154.68 156.93 1155.08 156.651L1154.38 154.262C1156.41 153.43 1155.9 155.923 1158.64 155.521C1159.12 153.665 1159.26 152.552 1159.48 150.646L1160.7 150.115C1162.67 151.927 1161.13 153.923 1162.79 155.905C1164.27 154.886 1164.67 154.662 1166.35 154.032C1166.32 154.956 1165.98 155.713 1165.67 156.582L1166.47 157.053C1175.45 155.612 1190.58 155.33 1196.85 153.694C1197.37 151.844 1197.48 148.872 1197.63 146.875L1197.35 145.045C1213.54 148.535 1224.1 149.087 1236.63 136.784L1235.55 135.622C1239.04 135.086 1238.04 135.68 1240.37 133.482C1240.61 130.76 1240.31 127.611 1240.13 124.854L1244.86 124.963C1246.84 125.073 1249.05 124.419 1250.99 123.946L1254.62 122.491Z" fill="#B7B6B6"/>
<path d="M1131.68 160.576C1135.84 159.236 1154.68 156.93 1155.08 156.651L1154.38 154.262C1156.41 153.43 1155.9 155.923 1158.64 155.521C1159.12 153.665 1159.26 152.552 1159.48 150.646L1160.7 150.115C1162.67 151.927 1161.13 153.923 1162.79 155.905C1164.27 154.886 1164.67 154.662 1166.35 154.032C1166.32 154.956 1165.98 155.713 1165.67 156.582L1166.47 157.053C1175.45 155.612 1190.58 155.33 1196.85 153.694C1196.7 155.638 1193.69 161.778 1192.5 162.839C1192.29 163.034 1192.05 163.209 1191.81 163.364L1192.65 163.924C1195.86 162.085 1197.53 161.029 1201.08 159.93C1201.25 161.928 1200.86 162.974 1202.45 164.371C1204.25 165.97 1210.69 166.795 1212.77 165.952L1212.95 166.905L1210.67 168.759C1225.65 169.729 1240.98 168.04 1255.84 166.859C1259.67 166.555 1269.74 168.856 1274.3 168.758C1286.7 168.491 1299.57 167.814 1311.91 166.902L1314.43 163.217L1316.47 160.163L1316.3 156.543L1321.47 156.827C1327.72 157.979 1368.48 158.134 1371.74 154.718C1375.52 154.173 1382.57 154.731 1385.74 157.056C1382.59 162.536 1339.89 162.359 1333.14 163.382C1331.16 163.684 1330.76 166.172 1329.18 166.777C1321.33 169.776 1309.41 169.627 1301.12 170.097C1290.53 170.697 1279.5 172.364 1269.34 172.713C1248.27 173.437 1226.89 172.762 1205.9 171.159C1196.61 170.45 1180.51 169.239 1171.81 166.621C1171.63 165.543 1171.61 165.352 1171.09 164.393C1167.49 163.621 1162.23 163.859 1158.42 163.791C1148.91 163.62 1140.88 163.32 1131.68 160.576Z" fill="#EBE9E6"/>
<path d="M1191.8 163.364L1192.65 163.923C1195.86 162.085 1197.53 161.029 1201.08 159.93C1201.25 161.928 1200.86 162.974 1202.45 164.371C1204.25 165.97 1210.68 166.794 1212.77 165.952L1212.95 166.905L1210.67 168.759C1203.89 168.312 1192.18 167.493 1185.76 165.98L1184.74 164.284L1185.35 163.342C1187.98 163.534 1189.34 163.239 1191.8 163.364Z" fill="#B7B6B6"/>
<path d="M1314.43 163.217L1316.47 160.163C1317.98 160.548 1318.97 160.675 1320.12 161.732C1320.02 165.039 1314.83 166.338 1311.91 166.903L1314.43 163.217Z" fill="#D2D2D0"/>
<path d="M1254.62 122.491C1265.85 118.789 1274.1 117.143 1285.82 119.287C1293.31 121.175 1298.63 123.618 1304.37 128.945C1306.8 131.6 1307.79 132.722 1308.95 136.289C1304.43 147.738 1281.41 152.512 1275.85 143.139C1275.59 140.539 1275.49 141.439 1276.67 138.983L1275.72 138.154C1274.11 139.593 1272.27 140.92 1271.91 143.039L1270.24 142.954C1264.42 140.505 1266.92 143.015 1260.57 144.055C1257.43 144.568 1252.39 144.469 1249.96 142.256C1243.81 136.668 1246.47 131.996 1245.75 126.425L1244.86 124.963C1246.83 125.073 1249.04 124.419 1250.99 123.946L1254.62 122.491Z" fill="#605F60"/>
<path d="M1285.82 119.287C1293.31 121.175 1298.63 123.618 1304.37 128.945C1299.16 130.991 1281.57 131.916 1280.68 124.606C1281.39 122.262 1283.84 120.791 1285.82 119.287Z" fill="#494A4B"/>
<path d="M1250.99 123.946L1254.62 122.491C1261.1 129.108 1259.78 125.635 1257.45 133.985C1255.11 133.519 1251.83 126.289 1250.99 123.946Z" fill="#494A4B"/>
<path d="M1275.72 138.154C1279.05 136.162 1283.75 134.284 1287.67 134.854L1288.54 135.834C1284.09 136.593 1281.21 136.869 1277.08 138.782C1276.94 138.844 1276.81 138.911 1276.67 138.983L1275.72 138.154Z" fill="#B7B6B6"/>
<path d="M1240.13 124.854L1244.86 124.963L1245.75 126.425C1246.47 131.996 1243.81 136.668 1249.96 142.256C1252.39 144.469 1257.43 144.568 1260.57 144.055C1266.92 143.015 1264.42 140.506 1270.24 142.954L1269.52 146.323C1262.07 162.942 1255.09 150.5 1247.58 150.125C1238.05 169.036 1219.45 158.95 1213.47 163.758L1213.04 164.925L1212.77 165.952C1210.69 166.795 1204.25 165.97 1202.45 164.371C1200.86 162.974 1201.25 161.928 1201.08 159.93C1197.53 161.029 1195.86 162.085 1192.65 163.924L1191.81 163.364C1192.05 163.209 1192.29 163.034 1192.5 162.839C1193.69 161.778 1196.7 155.638 1196.85 153.694C1197.37 151.844 1197.48 148.872 1197.63 146.875L1197.35 145.045C1213.54 148.535 1224.1 149.087 1236.63 136.784L1235.55 135.622C1239.04 135.086 1238.04 135.68 1240.37 133.482C1240.61 130.76 1240.31 127.611 1240.13 124.854Z" fill="#E5E4E2"/>
<path d="M1240.13 124.854L1244.86 124.963L1245.75 126.425C1242.95 126.28 1243.75 125.928 1241.89 127.563C1240.97 130.468 1242.13 132.906 1242.6 135.779C1242.68 136.216 1239.87 139.162 1239.35 140.196C1235.79 144.782 1222.62 152.088 1222.5 152.377C1215.89 156.709 1208.34 157.024 1201.08 159.93C1197.53 161.029 1195.86 162.085 1192.65 163.924L1191.81 163.364C1192.05 163.209 1192.29 163.034 1192.5 162.839C1193.69 161.778 1196.7 155.638 1196.85 153.694C1197.37 151.844 1197.48 148.872 1197.63 146.875L1197.35 145.045C1213.54 148.535 1224.1 149.087 1236.63 136.784L1235.55 135.622C1239.04 135.086 1238.04 135.68 1240.37 133.482C1240.61 130.76 1240.31 127.611 1240.13 124.854Z" fill="#D2D2D0"/>
<path d="M1240.13 124.854L1244.86 124.963L1245.75 126.425C1242.95 126.28 1243.75 125.928 1241.89 127.563C1240.97 130.468 1242.13 132.906 1242.6 135.779C1242.68 136.216 1239.87 139.162 1239.35 140.196L1239.13 140.235C1233.23 141.331 1226.28 147.228 1221.18 149.119C1216.23 150.953 1202.63 148.652 1197.63 146.875L1197.35 145.045C1213.54 148.535 1224.1 149.087 1236.63 136.784L1235.54 135.622C1239.04 135.086 1238.04 135.68 1240.37 133.482C1240.61 130.76 1240.31 127.611 1240.13 124.854Z" fill="#A8A7A7"/>
<path d="M1308.95 136.289C1315.01 132.298 1315.92 132.566 1322.41 135.326C1322.87 137.55 1320.79 142.491 1319.71 144.334C1317.44 145.619 1314.84 146.983 1312.84 148.616L1312.48 146.773C1310.16 150.1 1307.95 154.86 1305.67 157.432C1303.85 157.781 1278.17 153.929 1273.8 153.318C1272.94 152.379 1272.15 151.397 1271.35 150.411C1270.37 147.96 1271.26 145.585 1271.91 143.039C1272.27 140.92 1274.11 139.593 1275.72 138.154L1276.67 138.982C1275.49 141.439 1275.59 140.539 1275.85 143.139C1281.41 152.512 1304.43 147.738 1308.95 136.289Z" fill="#E5E4E2"/>
<path d="M1308.95 136.289C1315.01 132.298 1315.92 132.566 1322.41 135.326C1322.87 137.55 1320.79 142.491 1319.71 144.334C1317.44 145.619 1314.84 146.983 1312.84 148.616L1312.48 146.773C1314.93 142.955 1312.82 138.442 1308.95 136.289Z" fill="#94AE64"/>
<path d="M1270.24 142.954L1271.91 143.039C1271.26 145.585 1270.37 147.96 1271.35 150.411C1272.15 151.397 1272.94 152.379 1273.8 153.318L1276.38 155.871L1276.21 156.913C1273.48 158.081 1266.36 157.621 1266.02 161.689C1261.49 158.751 1252.38 169.788 1245.87 157.118C1244.19 160.601 1243.74 161.4 1241.05 164.189C1236.2 165.032 1213.31 164.833 1213.04 164.924L1213.47 163.758C1219.45 158.95 1238.05 169.036 1247.58 150.125C1255.09 150.5 1262.07 162.942 1269.52 146.323L1270.24 142.954Z" fill="#D2D2D0"/>
<path d="M1270.24 142.954L1271.91 143.039C1271.26 145.585 1270.37 147.96 1271.35 150.411C1272.15 151.397 1272.94 152.379 1273.8 153.318L1276.38 155.871L1276.21 156.913C1273.48 158.081 1266.36 157.621 1266.02 161.689C1261.49 158.751 1252.38 169.788 1245.88 157.118L1246.62 154.357L1247.63 154.186C1247.52 153.88 1247.46 153.757 1247.41 153.431C1249.31 156.144 1248.23 157.046 1251.17 158.637C1255.92 161.22 1264.67 157.447 1269.86 155.934C1269.7 152.732 1269.59 149.528 1269.52 146.323L1270.24 142.954Z" fill="#B7B6B6"/>
<path d="M1273.8 153.318C1278.17 153.929 1303.85 157.781 1305.67 157.432C1300.55 163.303 1283.3 162.623 1275.63 164.177C1274.03 164.501 1269.19 164.436 1267.47 164.13L1267.61 163.481C1265.88 163.625 1266.51 163.399 1265.09 164.452L1266.02 161.689C1266.36 157.621 1273.48 158.081 1276.21 156.913L1276.38 155.871L1273.8 153.318Z" fill="#EBE9E6"/>
<path d="M1319.71 144.334L1323.6 148.336C1321.59 150.912 1321.58 151.772 1321.99 155.055C1322.05 155.495 1322.11 155.935 1322.19 156.374L1321.47 156.827L1316.3 156.543C1316.88 154.425 1313.88 152.73 1312.43 151.616L1312.84 148.616C1314.84 146.983 1317.44 145.619 1319.71 144.334Z" fill="#44852D"/>
<path d="M1312.43 151.616C1313.88 152.729 1316.88 154.424 1316.3 156.543L1316.47 160.163L1314.43 163.217C1312.26 163.985 1310.68 164.742 1308.92 163.153C1307.88 159.777 1310.87 154.718 1312.43 151.616Z" fill="#494A4B"/>
<path d="M1245.87 157.118C1252.38 169.788 1261.49 158.751 1266.02 161.689L1265.09 164.453C1258.05 164.018 1246.56 165.149 1241.05 164.189C1243.74 161.4 1244.19 160.601 1245.87 157.118Z" fill="#A8A7A7"/>
<path d="M76.4188 140.415C99.2286 134.196 114.594 134.679 136.711 146.067C140.562 148.05 146.254 152.43 147.903 156.541C152.853 162.401 155.001 169.606 156.406 176.971L156.723 181.441L155.356 182.263L150.97 184.708C140.908 186.918 134.255 187.435 123.885 187.056C116.1 187.992 114.07 186.15 109.154 191.291C111.536 191.006 115.363 190.203 117.355 191.215C118.137 194.696 115.964 195.191 115.705 198.13C107.155 198.938 38.0193 191.436 30.672 188.738C28.8329 188.063 27.6498 187.62 26.8069 185.82C28.988 182.535 38.6231 182.004 42.3154 182.062C42.7661 181.969 47.1206 181.055 46.8485 180.233C45.7227 176.833 45.2132 172.819 45.9893 169.302L46.8893 169.069C49.6515 171.045 48.1176 174.486 50.9518 177.001C51.7196 163.971 56.5165 158.83 63.9312 148.277L65.3933 146.724L70.2055 143.421L72.5059 142.036L76.4188 140.415Z" fill="#6E736F"/>
<path d="M76.4186 140.415C99.2284 134.196 114.594 134.679 136.711 146.067C140.562 148.05 146.254 152.43 147.902 156.541C152.853 162.401 155 169.606 156.405 176.971L156.722 181.441L155.356 182.263L150.97 184.708C140.908 186.918 134.255 187.435 123.885 187.056C125.525 186.142 128.016 185.867 129.925 185.543C119.014 184.758 123.473 181.49 119.042 179.87C114.016 178.033 105.361 181.497 97.4103 177.247C97.9328 172.152 100.77 165.363 102.118 159.768C99.3689 159.316 84.0948 152.072 82.6058 149.918L84.959 148.348L84.666 147.519C82.2012 146.027 74.1035 144.617 70.2053 143.421L72.5057 142.036L76.4186 140.415Z" fill="#A8A7A7"/>
<path d="M76.4186 140.415C99.2284 134.196 114.594 134.679 136.711 146.067C140.562 148.05 146.254 152.43 147.902 156.541L146.696 156.858C141.894 152.026 130.287 158.459 124.488 159.669C117.195 161.189 110.919 161.004 103.618 160.574L102.118 159.768C99.3689 159.316 84.0948 152.072 82.6058 149.918L84.959 148.348L84.666 147.519C82.2012 146.027 74.1035 144.617 70.2053 143.421L72.5057 142.036L76.4186 140.415Z" fill="#B7B6B6"/>
<path d="M102.118 159.768L103.618 160.574C113.129 175.245 115.74 163.279 123.467 173.761C126.397 174.713 135.472 178.094 137.455 176.208C142.753 171.167 144.461 173.064 151.775 175.9L156.406 176.971L156.723 181.441L155.356 182.263L150.97 184.708C140.908 186.918 134.255 187.435 123.885 187.056C125.525 186.142 128.016 185.867 129.925 185.543C119.014 184.758 123.473 181.49 119.042 179.87C114.016 178.033 105.361 181.497 97.4104 177.247C97.9329 172.152 100.771 165.363 102.118 159.768Z" fill="#888786"/>
<path d="M151.775 175.9L156.405 176.971L156.723 181.441L155.356 182.263C149.364 178.963 152.851 180.437 151.803 176.015L151.775 175.9Z" fill="#B7B6B6"/>
<path d="M42.3154 182.062C42.7661 181.969 47.1206 181.055 46.8485 180.233C45.7227 176.833 45.2132 172.819 45.9893 169.302L46.8893 169.069C49.6515 171.045 48.1176 174.486 50.9518 177.001C54.5678 179.484 58.2205 177.711 59.2315 179.363C62.9474 185.435 59.6461 189.874 69.5503 184.258C69.5136 185.398 69.4656 186.538 69.407 187.677C69.5842 187.586 71.3733 186.673 71.3747 186.673C83.2654 187.349 94.6385 188.611 106.602 188.487L107.35 189.404L107.152 191.187C107.934 191.413 108.404 191.635 109.154 191.291C111.536 191.006 115.363 190.203 117.355 191.215C118.137 194.696 115.964 195.191 115.705 198.13C107.155 198.938 38.0193 191.436 30.672 188.738C28.8329 188.063 27.6498 187.62 26.8069 185.82C28.988 182.535 38.6231 182.004 42.3154 182.062Z" fill="#EBE9E6"/>
<path d="M42.3153 182.062C42.7659 181.969 47.1205 181.055 46.8484 180.233C45.7226 176.833 45.213 172.819 45.9892 169.302L46.8891 169.069C49.6513 171.045 48.1174 174.486 50.9516 177.001C54.5676 179.484 58.2203 177.711 59.2314 179.363C62.9472 185.435 59.6459 189.874 69.5501 184.258C69.5134 185.398 69.4654 186.538 69.4068 187.677C68.2969 187.989 55.5523 186.686 53.1697 186.636C51.5904 187.033 48.2396 186.332 46.4793 186.062C45.4187 186.104 43.5834 185.884 42.4677 185.787L41.6392 184.526L42.3153 182.062Z" fill="#44852D"/>
<path d="M46.4792 186.062C46.5623 185.692 47.0127 183.441 47.1766 183.329C50.1631 181.29 56.5621 178.663 59.8094 181.526L60.1689 183.419C56.8781 187.529 57.1437 185.362 53.1697 186.636C51.5904 187.033 48.2396 186.331 46.4792 186.062Z" fill="#347A51"/>
<path d="M1198.46 95.7335L1199.97 93.7739C1203.46 93.6688 1208.57 102.639 1209.54 105.464L1211.43 107.23C1216.1 104.684 1217.52 104.772 1222.79 105.626C1226.06 102.612 1227.82 100.841 1231.67 98.6616C1233.36 97.4991 1234.03 96.8889 1236.08 96.8198C1242.09 100.259 1236.95 116.525 1240.13 124.854C1240.31 127.611 1240.61 130.76 1240.37 133.482C1238.04 135.68 1239.04 135.086 1235.55 135.622L1236.63 136.784C1224.1 149.087 1213.54 148.535 1197.35 145.045C1190.56 141.275 1188.64 139.811 1183.71 133.822C1182.75 134.217 1181.8 134.74 1180.8 134.507L1181.28 134.592C1180.49 134.711 1179.69 134.824 1178.88 134.931C1181.05 133.993 1183.57 133.122 1185.1 131.358L1184.7 130.564C1181.92 130.401 1178.85 130.296 1176.12 129.862C1179.47 129.458 1182.39 129.068 1185.7 128.452C1183.23 127.537 1181.74 126.946 1179.38 125.739C1181.82 126.019 1183.59 126.221 1186.07 126.209C1188.83 118.558 1192.42 113.977 1194.35 108.512C1194.63 104.551 1196.81 99.2993 1198.46 95.7335Z" fill="#E5E4E2"/>
<path d="M1231.67 98.6616C1233.36 97.4991 1234.03 96.889 1236.08 96.8198C1242.09 100.259 1236.95 116.525 1240.13 124.854C1240.31 127.611 1240.61 130.76 1240.37 133.482C1238.04 135.68 1239.04 135.086 1235.55 135.622L1232.23 135.314C1230.34 137.038 1226.71 139.509 1224.08 139.416C1223.75 139.404 1223.44 139.371 1223.12 139.318L1222.53 140.599C1219.98 139.165 1218.11 137.978 1215.7 136.355C1212.78 134.515 1211.89 134.436 1211.55 131.069C1209.37 129.652 1208.5 129.097 1206.7 127.245C1205.46 125.066 1206.12 122.966 1206.58 120.52C1208.43 117.426 1206.04 115.783 1211.43 107.23C1216.1 104.684 1217.52 104.772 1222.79 105.626C1226.06 102.612 1227.82 100.841 1231.67 98.6616Z" fill="#605F60"/>
<path d="M1231.67 98.6616C1233.36 97.4991 1234.03 96.889 1236.08 96.8198C1242.09 100.259 1236.95 116.525 1240.13 124.854C1240.31 127.611 1240.61 130.76 1240.37 133.482C1239.47 133.357 1238.12 132.868 1237.22 132.578C1236.55 131.519 1236.13 131.371 1236.58 130.108C1238.62 124.242 1233.78 125.234 1232.06 120.69C1233.11 118.44 1232.71 119.092 1235.19 117.787C1237.08 113.573 1238.33 102.878 1235.59 99.0426C1234.69 99.0433 1232.65 98.766 1231.67 98.6616Z" fill="#494A4B"/>
<path d="M1235.59 99.0425C1238.33 102.878 1237.08 113.573 1235.18 117.787C1230.38 108.718 1223.21 107.487 1235.59 99.0425Z" fill="#A67773"/>
<path d="M1211.55 131.069C1212.69 131.51 1215.25 132.624 1216.3 132.595C1221.84 133.748 1226.65 134.503 1232.23 135.314C1230.34 137.038 1226.71 139.509 1224.08 139.416C1223.75 139.404 1223.44 139.371 1223.12 139.318L1222.53 140.599C1219.98 139.165 1218.11 137.978 1215.7 136.355C1212.78 134.515 1211.89 134.436 1211.55 131.069Z" fill="#EBE9E6"/>
<path d="M1206.58 120.52C1206.7 122.321 1207.01 124.683 1206.51 126.349C1215.1 127.256 1211.6 123.052 1219.96 128.394C1218.09 131.874 1217.41 129.668 1216.3 132.595C1215.25 132.624 1212.69 131.51 1211.55 131.069C1209.37 129.652 1208.5 129.097 1206.7 127.245C1205.46 125.066 1206.12 122.966 1206.58 120.52Z" fill="#6E736F"/>
<path d="M1206.5 126.349C1210.6 122.008 1218.75 122.829 1219.96 128.394C1211.6 123.052 1215.1 127.256 1206.5 126.349Z" fill="#494A4B"/>
<path d="M1185.7 128.452C1187.94 129.62 1191.04 128.675 1192.09 129.431C1190.84 131.61 1185.94 131.466 1186.94 134.504C1188.37 138.849 1196.06 141.013 1200.12 142.577C1201.03 142.95 1201.97 143.244 1202.93 143.454C1208.99 144.734 1217.14 144.076 1222.53 140.599L1223.12 139.318C1223.44 139.37 1223.75 139.404 1224.08 139.416C1226.71 139.509 1230.34 137.038 1232.23 135.314L1235.55 135.622L1236.63 136.784C1224.1 149.087 1213.54 148.535 1197.35 145.045C1190.56 141.275 1188.64 139.811 1183.71 133.822C1182.75 134.217 1181.8 134.739 1180.8 134.507L1181.28 134.592C1180.49 134.711 1179.69 134.824 1178.88 134.931C1181.05 133.992 1183.57 133.122 1185.1 131.358L1184.7 130.563C1181.92 130.4 1178.85 130.296 1176.12 129.862C1179.47 129.458 1182.39 129.068 1185.7 128.452Z" fill="#D2D2D0"/>
<path d="M1198.46 95.7335L1199.97 93.7739C1203.46 93.6688 1208.57 102.639 1209.54 105.464L1207.18 106.711C1203.26 110.241 1199.91 114.349 1196.9 117.06C1196.74 113.05 1197.04 112.426 1194.92 109.533L1194.35 108.512C1194.63 104.551 1196.81 99.2993 1198.46 95.7335Z" fill="#6E736F"/>
<path d="M1198.46 95.7335L1199.97 93.7739C1203.46 93.6688 1208.57 102.639 1209.54 105.464L1207.18 106.711C1203.48 106.392 1203.5 105.985 1201.49 103.049C1200.76 100.285 1200.34 97.9174 1198.46 95.7335Z" fill="#494A4B"/>
<path d="M1198.46 95.7334C1200.34 97.9173 1200.76 100.285 1201.49 103.048C1200.87 105.807 1197.55 109.015 1194.92 109.533L1194.35 108.512C1194.63 104.551 1196.81 99.2992 1198.46 95.7334Z" fill="#A67773"/>
<path d="M1194.35 108.512L1194.92 109.533C1197.04 112.426 1196.74 113.05 1196.9 117.06L1196.7 125.183C1192.95 125.18 1189.6 124.943 1186.07 126.209C1188.83 118.557 1192.42 113.977 1194.35 108.512Z" fill="#605F60"/>
<path d="M1197.67 126.486L1200.49 127.287L1200.87 128.32L1197.99 131.215C1199.72 135.957 1202.28 133.565 1205.44 135.217C1203.88 137.042 1204.46 136.55 1201.87 137.034C1200.18 135.412 1196.23 133.339 1193.94 134.562C1198.48 131.608 1196.49 131.602 1196.28 127.823L1197.67 126.486Z" fill="#A8A7A7"/>
<path d="M1343.59 109.738L1345.61 109.691C1345.54 114.593 1345.08 122.288 1344.4 127.237L1343.9 130.659C1346.18 132.363 1353.86 134.323 1356.99 135.246L1356.63 138.714C1362.4 133.034 1365.21 132.679 1373.06 131.261C1370.58 135.41 1368.83 138.036 1365.93 141.898C1365.52 144.93 1365.17 144.637 1363.24 147.29C1365.58 147.297 1367.46 147.08 1369.32 148.56C1370.35 150.447 1371.14 153.747 1371.74 154.718C1368.48 158.134 1327.72 157.979 1321.47 156.827L1322.19 156.373C1322.11 155.935 1322.05 155.495 1321.99 155.055C1321.58 151.772 1321.59 150.912 1323.6 148.335L1319.71 144.334C1320.79 142.491 1322.87 137.55 1322.41 135.326C1322.68 135.025 1323.91 134.5 1324.35 134.291C1328.25 132.278 1329.01 129.461 1330.38 125.476L1330.16 125.101C1328.44 121.198 1326.29 114.89 1330.57 111.889C1336.88 112.813 1340.75 124.496 1340.64 129.818L1340.8 131.457L1341.74 131.191C1342.83 126.957 1344.33 113.993 1343.59 109.738Z" fill="#44852D"/>
<path d="M1330.16 125.102C1328.44 121.198 1326.29 114.89 1330.57 111.889C1336.88 112.813 1340.75 124.496 1340.64 129.819L1340.8 131.457L1341.74 131.191C1341.64 134.599 1341.45 135.863 1340.77 139.178C1340.18 142.445 1339.17 148.247 1339.31 151.53L1339.17 152.048C1338.18 151.97 1333.59 152.502 1333 152.209C1328.66 150.045 1329.94 148.858 1324.49 147.438L1323.6 148.336L1319.71 144.335C1320.79 142.491 1322.87 137.55 1322.41 135.326C1322.68 135.025 1323.91 134.5 1324.35 134.291C1328.25 132.278 1329.01 129.461 1330.38 125.476L1330.16 125.102Z" fill="#66973F"/>
<path d="M1341.74 131.191C1341.64 134.599 1341.45 135.863 1340.77 139.178C1340.18 142.445 1339.17 148.247 1339.31 151.53L1339.17 152.048C1338.18 151.97 1333.59 152.502 1333 152.209C1328.66 150.045 1329.94 148.858 1324.49 147.438C1327.21 144.533 1327.44 146.299 1330.35 144.378C1330.65 137.671 1329.68 136.939 1334.85 132.759C1336.64 131.481 1338.67 133.25 1340.8 131.457L1341.74 131.191Z" fill="#347A51"/>
<path d="M1341.74 131.191C1341.64 134.599 1341.45 135.863 1340.77 139.178C1336.98 138.998 1337.8 134.625 1334.85 132.759C1336.64 131.481 1338.67 133.25 1340.8 131.457L1341.74 131.191Z" fill="#44852D"/>
<path d="M1330.16 125.102C1328.44 121.198 1326.29 114.89 1330.57 111.889C1336.88 112.813 1340.75 124.496 1340.64 129.819L1339.96 130.281C1335.44 127.837 1335.83 127.152 1330.38 125.476L1330.16 125.102Z" fill="#94AE64"/>
<path d="M1343.59 109.738L1345.61 109.691C1345.54 114.593 1345.08 122.288 1344.4 127.237L1343.9 130.659C1346.18 132.363 1353.86 134.323 1356.99 135.246L1356.63 138.714C1362.39 133.034 1365.2 132.679 1373.06 131.261C1370.58 135.41 1368.83 138.036 1365.93 141.898C1365.52 144.93 1365.17 144.637 1363.24 147.29C1359.74 146.633 1359.66 146.925 1357.69 144.627L1355.9 144.271L1355.51 144.873L1352.4 147.856L1351.13 147.579C1350.38 144.724 1350.91 145.61 1348.9 143.534C1342.83 142.064 1342.71 149.154 1339.31 151.53C1339.17 148.247 1340.18 142.445 1340.77 139.178C1341.45 135.862 1341.64 134.599 1341.74 131.191C1342.83 126.957 1344.33 113.993 1343.59 109.738Z" fill="#66973F"/>
<path d="M1343.59 109.738L1345.61 109.691C1345.54 114.593 1345.08 122.288 1344.4 127.237L1343.9 130.659C1343.44 132.632 1343.07 133.671 1343.6 135.63C1346.4 137.182 1349.63 136.657 1351.37 139.198C1352.95 141.516 1350.84 144.399 1352.4 147.856L1351.13 147.579C1350.38 144.724 1350.91 145.61 1348.9 143.534C1342.83 142.064 1342.71 149.154 1339.31 151.53C1339.17 148.247 1340.18 142.445 1340.77 139.178C1341.45 135.862 1341.64 134.599 1341.74 131.191C1342.83 126.957 1344.33 113.993 1343.59 109.738Z" fill="#39825B"/>
<path d="M1356.63 138.714C1362.39 133.035 1365.2 132.679 1373.06 131.261C1370.58 135.41 1368.83 138.036 1365.93 141.898L1362.76 141.076C1360.97 140.973 1357.35 141.08 1356.03 140.171L1356.63 138.714Z" fill="#94AE64"/>
<path d="M1339.31 151.53C1342.71 149.154 1342.83 142.064 1348.9 143.534C1350.91 145.61 1350.39 144.724 1351.13 147.579L1352.4 147.856L1355.51 144.873C1357.21 147.375 1360.07 153.68 1361 156.582L1339.17 156.488V152.048L1339.31 151.53Z" fill="#347A51"/>
<path d="M1323.6 148.335L1324.49 147.438C1329.94 148.857 1328.66 150.045 1333 152.209C1333.59 152.502 1338.18 151.97 1339.17 152.048V156.488L1322.19 156.374C1322.11 155.935 1322.05 155.495 1321.99 155.055C1321.58 151.772 1321.59 150.912 1323.6 148.335Z" fill="#39825B"/>
<path d="M1315.62 204.678C1319.35 192.155 1327.16 186.357 1340.15 187.277C1343.88 188.576 1345.84 189.094 1348.95 191.517C1351.51 194.079 1356.63 203.84 1358.02 207.314C1362.7 206.93 1369.48 205.987 1373.21 209.637L1372.84 210.675C1368.59 212.972 1361.81 212.954 1356.94 213.437C1338.52 215.266 1313.63 214.747 1295.76 209.966C1302.3 207.357 1307.99 206.196 1315 206.09L1315.62 204.678Z" fill="#767676"/>
<path d="M1295.76 209.966C1302.3 207.357 1307.99 206.196 1315 206.09C1315.15 206.297 1316.04 207.592 1316.1 207.666C1319.45 211.684 1354.68 210.08 1356.98 208.75L1358.02 207.314C1362.7 206.93 1369.48 205.988 1373.21 209.637L1372.84 210.675C1368.59 212.972 1361.81 212.954 1356.94 213.437C1338.52 215.266 1313.63 214.747 1295.76 209.966Z" fill="#E1E3D7"/>
<path d="M1315.62 204.678C1319.35 192.155 1327.16 186.357 1340.15 187.277C1343.88 188.576 1345.84 189.094 1348.95 191.517C1348.13 191.956 1343.29 194.498 1342.85 194.908C1339.6 197.926 1332.49 206.639 1327.43 206.146C1324.71 204.959 1321.39 202.943 1318.75 202.653L1315.62 204.678Z" fill="#A8A7A7"/>
<path d="M1315.62 204.678C1319.35 192.155 1327.16 186.357 1340.15 187.277C1335.83 194.72 1331.77 194.957 1326.47 200.967C1323.99 201.424 1321.12 201.865 1318.75 202.653L1315.62 204.678Z" fill="#B7B6B6"/>
<path d="M64.9621 117.572L65.9472 117.908C68.268 109.383 71.244 101.05 74.8499 92.9829C77.5103 93.9028 79.7273 94.5299 82.0403 96.1819C75.623 112.297 75.0645 113.98 71.8752 131.03L70.9842 131.772C71.9451 135.704 71.3019 140.103 72.5058 142.035L70.2054 143.421L65.3932 146.724L63.9311 148.277L61.7854 148.893L61.4813 148.349C58.7109 146.811 56.5357 139.325 57.2834 136.266C56.6931 134.549 55.3905 133.472 54.0991 132.175L57.4323 130.532C58.53 128.956 57.4286 126.763 56.9152 125.025C58.1267 124.704 59.4806 124.432 60.7144 124.155C60.7776 120.721 60.6985 118.306 60.4315 114.88C61.618 112.531 61.4095 109.313 61.4501 106.629L62.8966 107.143C62.8051 109.814 62.3847 114.606 63.2713 116.883L64.9621 117.572Z" fill="#6A9A77"/>
<path d="M61.4501 106.629L62.8966 107.143C62.8051 109.814 62.3847 114.607 63.2713 116.883L64.9621 117.572L63.2539 118.077C62.7696 121.086 62.5059 122.157 63.5562 125.116L64.6071 125.598L65.705 124.266C64.5458 132.846 61.619 137.803 65.3932 146.724L63.9311 148.277L61.7854 148.893L61.4813 148.349C58.7109 146.811 56.5357 139.325 57.2834 136.266C56.6931 134.549 55.3905 133.473 54.0991 132.175L57.4323 130.532C58.53 128.956 57.4286 126.763 56.9152 125.025C58.1267 124.704 59.4806 124.432 60.7144 124.156C60.7776 120.721 60.6985 118.306 60.4315 114.88C61.618 112.531 61.4095 109.313 61.4501 106.629Z" fill="#518653"/>
<path d="M56.9152 125.025C58.1267 124.704 59.4806 124.432 60.7144 124.156C60.9344 127.242 61.9723 135.376 60.8878 137.862L59.7954 138.272L57.2834 136.266C56.6931 134.549 55.3905 133.473 54.0991 132.175L57.4323 130.532C58.53 128.956 57.4286 126.763 56.9152 125.025Z" fill="#66973F"/>
<path d="M65.7051 124.266L66.7091 122.508C68.2864 124.836 66.6604 126.716 68.398 128.535C70.6489 125.44 69.9456 122.13 71.6755 121.369C72.9146 124.771 69.3158 129.965 70.9842 131.772C71.9452 135.704 71.302 140.103 72.5058 142.035L70.2055 143.421L65.3932 146.724C61.619 137.803 64.5458 132.845 65.7051 124.266Z" fill="#44852D"/>
<path d="M48.003 128.969C47.5426 126.179 46.8039 123.274 47.7015 120.607L48.6979 119.762C53.162 120.529 55.0562 128.299 57.4323 130.532L54.0991 132.175C55.3905 133.473 56.6931 134.549 57.2834 136.266C56.5357 139.325 58.7109 146.811 61.4813 148.349L61.7854 148.893C58.0695 156.135 27.6801 151.173 25.0874 147.927C27.5659 145.699 37.8479 145.127 41.0775 146.349L41.2738 146.425C40.4688 144.155 39.9526 143.173 40.6635 140.901C42.0254 139.01 43.8887 138.798 46.1308 138.259L45.4889 137.259C44.106 136.127 35.4448 123.117 31.781 119.371C40.8285 121.832 41.8019 122.133 48.003 128.969Z" fill="#44852D"/>
<path d="M61.7854 148.893C58.0695 156.135 27.6801 151.173 25.0874 147.927C27.5659 145.699 37.8479 145.127 41.0775 146.349L41.2738 146.425C44.0148 147.928 46.2134 147.708 49.3003 147.716C52.6208 147.876 58.3685 147.967 61.4813 148.349L61.7854 148.893Z" fill="#EBE9E6"/>
<path d="M46.1308 138.259C48.4769 141.26 49.1158 143.754 50.0286 147.445L49.3004 147.716C46.2134 147.708 44.0149 147.928 41.2738 146.425C40.4688 144.155 39.9526 143.173 40.6635 140.901C42.0254 139.01 43.8887 138.798 46.1308 138.259Z" fill="#44852D"/>
<path d="M48.003 128.969C47.5425 126.179 46.8038 123.274 47.7014 120.608L48.6978 119.762C53.1619 120.529 55.0562 128.299 57.4323 130.532L54.0991 132.175L53.598 132.221C53.2383 130.351 52.5277 128.362 50.8524 127.319C49.16 127.866 49.1604 128.553 47.9373 130.316L48.003 128.969Z" fill="#94AE64"/>
<path d="M45.489 137.259C49.5407 137.745 53.6117 143.223 52.7929 146.982C51.6873 147.278 51.1715 147.456 50.0287 147.445C49.1159 143.754 48.477 141.26 46.1309 138.259L45.489 137.259Z" fill="#39825B"/>
<path d="M150.97 184.708C154.306 186.467 158 188.983 161.124 185.601C160.637 184.585 160.124 183.581 159.588 182.59L160.005 181.718C166.895 182.608 172.422 185.54 176.625 186.299C178.453 188.091 178.289 187.44 178.779 189.746C176.172 192.259 172.209 191.972 168.712 192.268C158.822 193.104 148.72 192.755 138.893 193.972C137.524 194.142 137.086 195.556 137.063 196.598C130.351 199.114 122.576 199.029 115.705 198.13C115.963 195.191 118.137 194.695 117.355 191.215C115.363 190.203 111.536 191.005 109.154 191.291C114.07 186.15 116.1 187.992 123.885 187.056C134.255 187.435 140.908 186.918 150.97 184.708Z" fill="#E5E4E2"/>
<path d="M184.799 178.931C187.492 184.887 192.353 183.547 198.514 183.6C199.898 184.063 210.526 183.367 212.41 182.92L212.605 181.961L212.064 179.76L215.98 179.919L216.8 180.934C214.694 183.165 214.073 183.836 212.518 186.534C207.08 185.746 183.891 185.578 177.1 185.393C179.677 181.167 179.332 184.526 182.373 181.293C182.755 180.382 183.984 179.574 184.799 178.931Z" fill="#D2D2D0"/>
<path d="M111.547 94.8445C99.9938 104.897 93.9013 110.346 85.8769 124.156C84.0518 127.297 78.3045 137.807 76.4186 140.415L72.5057 142.035C71.3019 140.103 71.9451 135.704 70.9841 131.772L71.8752 131.03C84.1895 110.147 90.371 105.452 111.547 94.8445Z" fill="#6A9A77"/>
<path d="M1343.59 109.739C1342.95 109.308 1341.34 106.853 1341.26 106.832C1334.97 105.028 1327.04 97.8391 1325.53 91.0298C1326.55 85.6864 1331.17 87.0267 1335.5 87.6319C1339.98 91.4757 1341.44 93.8769 1344.4 98.9113L1344.6 99.5159L1345.36 99.5928L1346.63 96.6681C1346.89 97.533 1347.81 100.903 1348.1 101.531C1346.49 104.771 1346.3 106.178 1345.61 109.691L1343.59 109.739Z" fill="#39825B"/>
<path d="M61.4502 106.629C61.4009 102.408 60.3858 95.8899 60.0112 91.3944C59.0414 79.7524 60.2032 71.7503 62.8589 60.7512C64.5603 61.8084 66.9654 63.1753 68.3281 64.5539C67.7795 71.8109 67.2867 78.6392 66.1888 85.8309C65.1283 92.7749 63.2745 100.215 62.8967 107.143L61.4502 106.629Z" fill="#6A9A77"/>
<path d="M35.4231 85.3752C50.9218 93.9889 53.687 98.4556 60.4316 114.88C60.6986 118.306 60.7777 120.721 60.7145 124.156C59.4806 124.432 58.1268 124.704 56.9153 125.025C51.9116 109.255 46.2642 97.8955 35.4231 85.3752Z" fill="#94B486"/>
<path d="M1195.84 213.955C1194.49 211.222 1191.31 206.62 1193.15 204.001C1196.95 204.713 1200.11 208.975 1202.25 211.838L1202.23 212.53C1203.24 214.73 1202.62 214.224 1204.75 215.103C1205.72 214.934 1207.63 214.678 1208.43 214.286L1209.73 214.627C1211.26 215.365 1213.92 215.275 1215.41 214.357C1218.92 212.75 1228.14 212.172 1230.74 215.125C1226.71 219.863 1189.59 218.425 1183.85 215.827L1183.83 215.077C1188.13 213.124 1191.25 213.595 1195.84 213.955Z" fill="#EBE9E6"/>
<path d="M1195.84 213.955C1194.49 211.222 1191.31 206.62 1193.15 204.001C1196.95 204.713 1200.11 208.975 1202.25 211.838L1202.23 212.53C1201.34 214.668 1201.91 214.138 1199.94 215.111C1198.29 214.925 1197.22 214.927 1195.84 213.955Z" fill="#44852D"/>
<path d="M1366.83 100.369C1363.28 108.273 1359.66 121.8 1357.35 130.511C1357.95 131.992 1358.31 132.639 1358.05 134.27L1356.99 135.246C1353.86 134.323 1346.18 132.363 1343.9 130.659L1344.4 127.237C1346.17 127.102 1347.01 126.906 1348.51 127.929L1349.63 127.539C1354.56 115.242 1357.28 109.394 1366.83 100.369Z" fill="#94AE64"/>
<path d="M74.8499 92.9829C81.3717 78.4734 88.3468 70.2768 100.319 60.0432C91.8954 71.5499 86.9199 82.8751 82.0403 96.1819C79.7273 94.5299 77.5103 93.9027 74.8499 92.9829Z" fill="#9DB590"/>
<path d="M527.787 154.759C529.779 160.963 530.182 163.341 530.347 169.869C532.333 166.662 533.61 164.893 537.518 163.82L538.142 164.598C537.651 165.966 535.989 169.818 536.182 170.965C536.999 171.962 537.034 172.176 537.166 173.472L536.321 174.007C532.864 172.298 519.264 173.512 513.918 172.965C515.483 171.943 517.884 172.005 519.815 171.883C518.656 169.728 516.394 166.09 516.26 163.818C520.084 162.819 522.513 167.233 523.901 170.151C525.056 169.241 524.676 162.7 525.392 160.425C526.116 158.126 526.722 156.881 527.787 154.759Z" fill="#94AE64"/>
<path d="M530.347 169.869C532.333 166.662 533.61 164.893 537.518 163.82L538.142 164.599C537.651 165.966 535.989 169.819 536.182 170.965C532.885 172.291 532.1 172.903 530.347 169.869Z" fill="#44852D"/>
<path d="M1333.78 43.4518C1333.31 41.7703 1332.91 40.8481 1333.52 39.1836C1335.47 39.8858 1335.35 40.4493 1336.81 42.4795C1336.16 46.2724 1343.03 62.6105 1343.41 67.5115C1343.49 68.6199 1344.36 74.5154 1344.79 75.4077C1346.35 74.387 1345.86 74.9083 1346.7 73.125L1347.98 74.0914C1346.67 76.2782 1345.72 77.9486 1345.82 80.5706C1345.93 84.0645 1345.58 93.3631 1347.51 95.8609L1346.63 96.6679L1345.36 99.5925L1344.6 99.5157L1344.4 98.9111C1345.61 94.2801 1343.64 79.1555 1342.4 74.4752C1341.39 73.4425 1340.35 72.4401 1339.28 71.4701C1336.5 68.9727 1328.76 62.7022 1324.98 62.8943C1323.67 60.5996 1323.48 61.0578 1323.65 58.8046C1325.73 58.3822 1325.29 58.6272 1327.55 59.95C1327.85 61.8148 1338.94 68.9638 1342.22 72.0197C1341.16 66.3297 1337.41 46.6806 1333.78 43.4518Z" fill="#39825B" fill-opacity="0.945098"/>
<path d="M1333.78 43.4519C1319.05 38.288 1322.19 25.7151 1335.34 28.5787C1339.46 29.4765 1338.61 39.1851 1336.81 42.4796C1335.35 40.4494 1335.47 39.8858 1333.52 39.1837C1332.91 40.8481 1333.31 41.7704 1333.78 43.4519Z" fill="#EEB749"/>
<path d="M156.722 181.441C163.113 177.269 176.615 176.15 182.373 181.293C179.332 184.526 179.677 181.167 177.1 185.393L176.625 186.299C172.422 185.54 166.895 182.608 160.005 181.718L159.588 182.59C160.124 183.581 160.637 184.585 161.124 185.601C158 188.983 154.306 186.467 150.97 184.708L155.356 182.263L156.722 181.441Z" fill="#EBE9E6" fill-opacity="0.878431"/>
<path d="M1047.25 168.773C1048.53 163.711 1049.26 160.816 1051.92 156.269C1055.61 166.235 1054.7 166.852 1055.04 176.886L1055.76 180.649L1054.22 180.438L1053.04 180.728C1050.61 180.496 1050.04 180.228 1047.8 179.228C1047.4 175.556 1047.33 172.467 1047.25 168.773Z" fill="#94AE64"/>
<path d="M1047.25 168.772C1049.89 172.862 1053.68 169.852 1054.22 180.438L1053.04 180.728C1050.61 180.496 1050.04 180.228 1047.8 179.228C1047.4 175.556 1047.33 172.467 1047.25 168.772Z" fill="#347A51"/>
<path d="M1349.11 59.0642C1351.23 55.3122 1353.22 52.082 1358.05 53.3044C1360.59 56.3984 1359.76 58.1184 1359.1 61.8645C1355.26 71.5923 1351.87 64.6692 1347.98 74.0915L1346.7 73.1251C1349.82 66.7724 1348.18 66.0479 1349.11 59.0642Z" fill="#39825B"/>
<path d="M1346.7 73.1251C1349.82 66.7724 1348.18 66.0479 1349.11 59.0642C1351.92 63.0339 1354.34 61.9648 1359.1 61.8645C1355.26 71.5923 1351.87 64.6691 1347.98 74.0915L1346.7 73.1251Z" fill="#347A51"/>
<path d="M191.419 169.931C200.183 166.79 210.856 169.105 212.064 179.76L215.98 179.919L216.8 180.934C214.694 183.166 214.073 183.836 212.518 186.535C207.08 185.746 183.891 185.578 177.1 185.393C179.677 181.167 179.332 184.526 182.373 181.293C182.755 180.382 183.984 179.574 184.799 178.931C185.657 177.187 186.797 175.22 187.742 173.488C188.311 172.759 190.617 170.683 191.419 169.931Z" fill="#888786"/>
<path d="M191.419 169.931C200.183 166.79 210.856 169.105 212.064 179.76L212.605 181.961C209.434 180.002 201.003 178.575 196.828 177.191C194.381 174.828 193.223 172.779 191.419 169.931Z" fill="#A8A7A7"/>
<path d="M187.742 173.488C189.458 175.216 190.77 178.412 192.101 178.907C194.391 179.758 197.519 179.851 198.991 182.054C198.888 182.602 198.851 183.186 198.514 183.6C192.353 183.547 187.492 184.887 184.799 178.931C185.657 177.186 186.797 175.22 187.742 173.488Z" fill="#6E736F"/>
<path d="M215.98 179.919C220.169 180.067 230.524 180.424 233.37 183.744C232.703 188.477 216.932 191.113 212.518 186.534C214.073 183.836 214.694 183.165 216.8 180.934L215.98 179.919Z" fill="#E5E4E2" fill-opacity="0.854902"/>
<path d="M1205.98 192.93C1208.81 200.538 1209.89 202.492 1209.21 210.641C1209.41 211.965 1209.59 213.294 1209.73 214.627L1208.43 214.286C1207.63 214.678 1205.72 214.934 1204.75 215.103C1202.62 214.224 1203.24 214.73 1202.23 212.529L1202.25 211.837C1201.7 209.53 1201.87 207.63 1201.95 205.292C1202.6 200.669 1203.72 197.071 1205.98 192.93Z" fill="#94AE64"/>
<path d="M1201.95 205.292C1204.75 206.94 1206.94 207.895 1207.76 211.076C1208.04 212.136 1208.26 213.207 1208.43 214.286C1207.63 214.678 1205.72 214.934 1204.75 215.103C1202.62 214.224 1203.24 214.73 1202.23 212.529L1202.25 211.837C1201.7 209.53 1201.87 207.63 1201.95 205.292Z" fill="#39825B"/>
<path d="M1315 106.774C1318.58 111.024 1325.73 124.604 1330.16 125.102L1330.38 125.476C1329.01 129.461 1328.25 132.278 1324.35 134.291C1323.34 129.286 1317.08 113.241 1315 106.774Z" fill="#94AE64"/>
<path d="M1324.98 62.8944C1315.34 66.4189 1311.93 54.3589 1320.47 51.2205C1325.52 51.8366 1326.64 55.4224 1327.55 59.9501C1325.29 58.6273 1325.73 58.3823 1323.65 58.8047C1323.48 61.0579 1323.67 60.5997 1324.98 62.8944Z" fill="#EEB749"/>
<path d="M74.7073 36.1824C71.3733 46.6615 69.945 53.6491 68.3281 64.5539C66.9654 63.1754 64.5603 61.8085 62.8589 60.7513C65.6952 51.2818 69.3244 44.4109 74.7073 36.1824Z" fill="#9DB590" fill-opacity="0.980392"/>
<path d="M1044.33 181.403C1042.96 181.02 1042.59 180.791 1041.34 180.074C1039.93 177.51 1036.2 171.601 1036.44 168.976L1037.29 168.534C1044.71 169.969 1045.3 172.756 1047.8 179.228C1050.04 180.228 1050.61 180.496 1053.04 180.728C1049.79 181.304 1047.64 181.839 1044.33 181.403Z" fill="#66973F"/>
<path d="M166.761 103.472C169.612 108.362 168.303 112.042 169.16 114.355C170.711 112.317 172.357 109.7 174.862 109.296C175.346 109.892 175.526 109.885 175.465 110.498C175.27 112.346 174.333 114.037 172.867 115.184C170.974 116.673 170.077 116.059 167.444 115.758C162.254 117.657 159.246 114.77 158.636 109.645L159.525 109.606C162.31 111.563 162.817 112.238 164.809 114.886C165.453 114.439 164.472 108.797 166.761 103.472Z" fill="#66973F"/>
<path d="M1062.36 180.143C1068.73 178.478 1072.86 178.837 1079.18 181.066C1069.23 183.125 1046.24 184.207 1037 181.636C1039.45 181.593 1041.88 181.564 1044.33 181.404C1047.64 181.839 1049.79 181.304 1053.04 180.728L1054.22 180.438L1055.76 180.649L1062.36 180.143Z" fill="#EBE9E6"/>
<path d="M1055.04 176.886C1058.27 172.108 1059.07 170.85 1064.47 168.466L1065.56 168.878C1065.75 172.909 1061.29 176.947 1062.36 180.143L1055.76 180.649L1055.04 176.886Z" fill="#44852D"/>
<path d="M1209.21 210.641C1214 205.891 1214.03 205.24 1220.46 203.728C1218.87 207.057 1216.83 211.034 1215.41 214.357C1213.92 215.275 1211.26 215.364 1209.73 214.627C1209.59 213.294 1209.41 211.965 1209.21 210.641Z" fill="#44852D"/>
<path d="M1347.51 95.8611C1349.26 92.4315 1350.39 90.093 1354.02 88.3979L1355.57 88.5849C1357.03 93.6567 1351.37 98.2073 1348.1 101.531C1347.82 100.903 1346.89 97.5329 1346.63 96.6681L1347.51 95.8611Z" fill="#6A9A77"/>
<path d="M334.818 212.51C335.48 209.078 336.002 203.828 338.82 201.758C342.939 202.356 343.577 211.467 343.106 214.732C343.091 214.831 343.075 214.929 343.057 215.027L343.055 221.614L342.199 224.292L335.092 224.904L334.587 222.475C334.518 218.879 334.593 216.1 334.818 212.51Z" fill="#94AE64"/>
<path d="M334.818 212.51C337.72 213.687 337.768 213.614 339.145 216.88L339.304 217.261C340.823 217.261 341.867 216.059 343.057 215.027L343.055 221.614L342.199 224.291L335.092 224.904L334.587 222.475C334.518 218.879 334.593 216.1 334.818 212.51Z" fill="#347A51"/>
<path d="M350.786 223.049L356.833 222.85C354.844 223.559 352.586 224.123 351.354 225.816C353.03 227.969 356.455 226.906 358.918 227.198C350.742 229.698 329.869 228.342 321.185 227.223C323.685 226.753 325.811 227.502 327.394 226.616L327.209 224.093C332.412 224.993 331.239 226.385 335.092 224.904L342.199 224.291C346.293 225.221 347.493 225.901 350.786 223.049Z" fill="#D2D2D0" fill-opacity="0.894118"/>
<path d="M326.738 223.756C325.536 220.876 320.885 213.72 321.739 211.22C328.635 210.623 332.435 216.834 334.587 222.475L335.092 224.904C331.239 226.385 332.412 224.992 327.208 224.093L326.738 223.756Z" fill="#66973F"/>
<path d="M343.055 221.614C345.136 217.297 347.128 214.372 351.988 212.657C353.438 212.159 354.903 211.706 356.381 211.301C355.128 213.891 351.625 220.676 350.786 223.049C347.493 225.901 346.292 225.221 342.199 224.292L343.055 221.614Z" fill="#66973F"/>
<path d="M356.833 222.85C359.967 222.881 364.025 222.381 365.892 225.315C364.524 227.615 361.376 227.227 358.918 227.198C356.455 226.906 353.03 227.969 351.354 225.816C352.586 224.123 354.844 223.559 356.833 222.85Z" fill="#E5E4E2"/>
<path d="M308.579 225.491C316.799 222.985 318.217 222.75 326.738 223.756L327.209 224.093L327.394 226.616C325.811 227.502 323.685 226.753 321.185 227.223C317.481 227.692 312.18 226.329 308.579 225.491Z" fill="#D2D2D0" fill-opacity="0.988235"/>
</svg>
