<svg width="377" height="769" viewBox="0 0 377 769" fill="none" xmlns="http://www.w3.org/2000/svg">
<path d="M67.7125 253.278L80.6801 253.284L96.6248 253.097C156.193 253.18 217.567 252.303 276.885 253.16L292.007 253.325C297.017 253.281 304.031 253.001 308.884 253.247C325.703 253.796 349.918 252.595 365.528 253.906C371.159 253.871 372.128 256.05 375.598 260.089C375.78 269.336 377.213 290.493 373.892 298.186C369.105 301.185 365.031 300.775 359.358 300.897C359.151 307.601 358.87 316.251 357.81 322.886C357.569 325.951 357.379 329.752 356.998 332.747C356.327 368.273 353.056 405.619 351.176 441.183C347.317 513.189 342.953 585.167 338.084 657.112C343.293 653.786 348.974 651.186 355.408 652.161C363.226 653.346 367.151 661.857 367.606 668.98C367.987 690.224 367.192 711.553 367.664 732.806C367.971 746.567 370.703 763.971 351.607 764.41C331.848 764.865 331.856 754.747 331.633 739.024C322.482 758.614 310.118 767.887 287.891 768.111C250.659 768.467 213.426 768.185 176.188 768.219L117.533 768.268C86.8802 768.276 59.0627 773.426 44.1755 739.828C41.7648 734.355 41.682 725.992 41.3773 719.907C40.7131 700.59 38.0822 680.868 37.8975 661.427C37.8726 658.783 38.0325 655.735 37.4677 653.21L25.2876 442.125C23.0004 403.824 18.7421 359.347 18.0308 321.294C17.437 314.399 17.3608 307.826 17.2275 300.916C11.0613 300.729 7.13182 301.26 2.03968 298.069C-1.40118 292.303 1.08153 270.901 0 261.63C2.48769 256.719 5.12364 254.225 10.73 253.864C29.444 252.654 48.9902 254 67.7125 253.278Z" fill="#076FD6"/>
<path d="M67.7125 253.278L80.6801 253.284L96.6248 253.097C156.193 253.18 217.567 252.303 276.885 253.16L292.007 253.325C297.017 253.281 304.031 253.001 308.884 253.247C325.703 253.796 349.918 252.595 365.528 253.906C371.159 253.871 372.128 256.05 375.598 260.089C375.78 269.336 377.213 290.493 373.892 298.186C369.105 301.185 365.031 300.775 359.358 300.897C359.151 307.601 358.87 316.251 357.81 322.886C357.569 325.951 357.379 329.752 356.998 332.747C356.468 329.421 355.971 326.09 355.507 322.754C340.278 323.159 322.896 320.915 308.76 321.851L303.493 321.87L296.86 321.831L79.163 321.753L73.357 321.804L69.864 308.45C69.9186 304.64 67.3299 304.72 68.8652 297.733C58.6114 297.691 39.1206 298.078 29.6204 297.107C19.8576 297.107 11.79 297.431 2.03968 298.069C-1.40118 292.303 1.08153 270.901 0 261.63C2.48769 256.719 5.12364 254.225 10.73 253.864C29.444 252.654 48.9902 254 67.7125 253.278Z" fill="#076FD6"/>
<path d="M68.8653 297.734L274.749 297.791C285.44 297.783 296.205 297.65 306.888 297.772C329.223 298.025 351.624 295.961 373.892 298.186C369.105 301.185 365.031 300.775 359.358 300.897C359.151 307.601 358.87 316.251 357.81 322.886C357.569 325.951 357.379 329.753 356.998 332.747C356.468 329.421 355.971 326.09 355.508 322.754C340.278 323.159 322.896 320.916 308.76 321.851L303.493 321.87L296.86 321.831L79.163 321.754L73.3571 321.804L69.864 308.451C69.9187 304.64 67.33 304.721 68.8653 297.734Z" fill="#034290"/>
<path d="M81.1713 306.656C103.57 305.313 134.333 306.291 157.56 306.298L295.551 306.288L296.86 321.831L79.1631 321.754C79.5912 315.836 80.1063 312.475 81.1713 306.656Z" fill="#0254B1"/>
<path d="M306.781 306.616C322.747 306.54 341.479 307.42 354.39 318.324C354.621 318.524 357.197 322.173 357.81 322.886C357.569 325.951 357.379 329.753 356.998 332.747C356.468 329.421 355.971 326.09 355.507 322.754C340.278 323.159 322.896 320.916 308.76 321.851L303.493 321.87C304.611 316.836 305.828 311.671 306.781 306.616Z" fill="#0254B1"/>
<path d="M67.7125 253.278L80.6801 253.284L96.6248 253.097C156.193 253.18 217.567 252.303 276.885 253.16L292.007 253.325C297.017 253.281 304.031 253.001 308.884 253.247C325.703 253.796 349.918 252.595 365.528 253.906C368.277 256.227 370.124 256.729 373.113 259.598L373.428 260.812C365.412 261.953 357.048 260.968 349.181 261.434C333.943 262.335 319.534 262.353 304.271 262.321C296.835 261.826 284.264 262.206 276.554 262.209L223.653 262.235L76.8111 262.233C50.7616 262.155 26.1141 262.6 0 261.63C2.48769 256.719 5.12364 254.225 10.73 253.864C29.444 252.654 48.9902 254 67.7125 253.278Z" fill="#2197F7"/>
<path d="M0 261.63C26.1141 262.6 50.7616 262.155 76.8111 262.233L223.653 262.235L276.554 262.209C284.264 262.206 296.835 261.826 304.271 262.321C292.694 264.178 248.779 263.05 234.916 263.035L114.732 263.167C94.576 263.167 68.8297 262.401 49.1252 263.235C47.6396 273.477 48.4221 286.104 47.9965 296.678C43.0136 296.721 34.2869 296.54 29.6204 297.107C19.8576 297.107 11.79 297.431 2.03968 298.069C-1.40118 292.303 1.08153 270.901 0 261.63Z" fill="#0D7ADF"/>
<path d="M308.76 321.851C322.896 320.916 340.278 323.159 355.508 322.754C355.971 326.09 356.468 329.421 356.998 332.747C356.327 368.274 353.056 405.619 351.176 441.183C347.317 513.189 342.953 585.167 338.084 657.112C343.293 653.786 348.974 651.187 355.408 652.161C363.226 653.346 367.151 661.857 367.606 668.98C367.987 690.224 367.192 711.553 367.664 732.807C367.971 746.567 370.704 763.971 351.607 764.41C331.848 764.865 331.856 754.748 331.633 739.025C322.482 758.614 310.118 767.887 287.891 768.111C250.659 768.467 213.426 768.186 176.188 768.219L117.533 768.268C86.8803 768.277 59.0627 773.427 44.1755 739.828C41.7649 734.355 41.6821 725.992 41.3773 719.907C52.1247 732.831 55.337 735.845 72.9868 737.7C83.3517 738.785 93.9591 742.295 104.752 742.212C162.77 741.765 221.028 743.313 278.98 741.674C284.554 741.517 293.771 737.791 297.862 733.842C302.69 729.205 305.861 723.103 306.897 716.487C308.445 706.8 308.959 685.82 309.547 675.243L314.308 585.273C318.316 522.927 321.91 460.554 325.107 398.161C326.134 375.791 328.063 356.297 328.221 333.523C322.73 323.057 319.782 323.062 308.76 321.851Z" fill="#0452AC"/>
<path d="M338.084 657.112C343.293 653.787 348.974 651.187 355.408 652.161C363.226 653.346 367.151 661.858 367.606 668.98C367.987 690.224 367.192 711.553 367.664 732.807C367.971 746.567 370.703 763.971 351.607 764.41C331.848 764.865 331.856 754.748 331.633 739.025C334.341 728.452 334.614 711.619 335.251 700.35L338.084 657.112Z" fill="#162737"/>
<path d="M2.03979 298.069C11.7901 297.431 19.8577 297.107 29.6205 297.107C39.1207 298.078 58.6115 297.691 68.8653 297.733C67.33 304.721 69.9187 304.64 69.8641 308.451L73.3571 321.804C62.0242 321.623 51.0027 322.408 39.3849 322.137C31.8954 322.039 25.4898 321.917 18.0309 321.294C17.4371 314.399 17.361 307.826 17.2276 300.916C11.0614 300.729 7.13194 301.26 2.03979 298.069Z" fill="#0452AC"/>
<path d="M39.3848 322.137C39.3235 318.84 39.0055 311.333 41.0328 309.158C44.2939 305.655 66.7096 306.227 69.864 308.451L73.357 321.804C62.0241 321.623 51.0026 322.408 39.3848 322.137Z" fill="#0254B1"/>
<path d="M244.315 515.507C247.909 516.894 255.462 534.874 258.609 538.923C267.163 550.156 261.093 559.735 254.94 570.173C249.516 579.371 245.599 590.753 236.68 596.706C228.838 597.138 219.786 597.1 211.844 597.255L211.596 609.329C207.604 604.484 203.099 597.441 199.48 592.09L191.655 580.478C197.013 572.107 205.252 558.774 211.347 551.346L211.613 564.222C219.819 564.402 228.44 564.263 236.68 564.254C231.181 554.536 222.378 539.536 217.815 529.583C226.328 524.648 235.537 520.049 244.315 515.507Z" fill="#FEFEFE"/>
<path d="M147.842 516.746C150.217 516.377 150.107 516.347 152.43 516.893C157.695 521.694 164.807 539.98 167.783 547.064C165.189 546.184 160.629 543.922 157.995 542.699C154.003 548.507 149.067 557.951 145.896 564.235L182.686 564.425C182.959 575.049 182.777 586.156 182.761 596.818L172.846 597.059C163.646 597.052 154.485 597.131 145.298 596.6C138.901 592.753 137.308 589.507 133.912 583.039C117.63 552.027 113.36 556.09 130.967 526.153C127.319 524.372 123.544 522.24 119.953 520.289C128.583 518.616 138.97 517.719 147.842 516.746Z" fill="#FEFEFE"/>
<path d="M170.369 464.352C178.074 463.565 202.834 463.202 210.569 464.345C219.488 465.664 226.246 481.367 230.544 489.568C233.533 487.911 237.425 486.156 240.564 484.641C237.657 493.44 230.519 507.286 226.312 516.049L194.661 510.466C197.485 508.717 200.863 506.916 203.787 505.265C201.493 499.666 194.818 488.418 191.555 483.009C185.013 493.607 178.165 505.805 172.227 516.702C164.252 512.812 152.74 505.596 145.394 500.499C152.619 489.608 159.547 469.536 170.369 464.352Z" fill="#FEFEFE"/>
<path d="M138.336 382.247C158.791 381.896 160.374 409.964 143.156 416.328C125.046 416.439 121.426 389.848 138.336 382.247Z" fill="#FEFEFE"/>
<path d="M138.639 388.603C151.099 390.226 149.733 403.05 142.853 409.869C131.887 408.854 133.124 394.459 138.639 388.603Z" fill="#0D7ADF"/>
<path d="M159.165 383.163C165.164 382.831 176.141 381.984 181.038 386.407C187.257 392.031 177.394 399.996 178.09 403.863C178.562 406.457 182.322 410.038 182.289 414.186C179.713 416.224 180.707 415.58 176.724 416.041C174.389 411.709 172.217 407.092 168.842 403.55L167.283 404.494L167.256 404.196C166.65 407.607 166.037 412.512 164.544 415.46C161.729 416.108 162.872 416.075 160.081 415.289C157.85 411.93 159.084 388.757 159.165 383.163Z" fill="#FEFEFE"/>
<path d="M165.666 388.973C169.253 388.959 172.166 388.625 174.792 390.874C175.953 393.649 175.471 394.469 174.748 397.49C171.816 397.828 169.4 398.459 166.785 397.323C165.025 395.024 165.585 392.091 165.666 388.973Z" fill="#076FD6"/>
<path d="M116.582 402.78C116.471 396.415 115.735 387.713 119.169 382.34L120.392 382.463C124.829 388.854 124.157 408.988 122.495 416.282C113.866 415.425 109.816 403.749 105.203 396.472C105.323 402.257 106.237 411.683 102.512 416.1L101.155 415.602C97.2691 410.208 96.3134 386.577 100.38 381.927C108.267 383.663 112.452 395.912 116.582 402.78Z" fill="#FEFEFE"/>
<path d="M264.107 402.824C263.95 396.434 263.196 388.214 266.327 382.626L267.478 382.395C272.032 387 272.057 411.289 269.184 416.549C261.176 415.007 255.983 401.772 252.522 394.74C252.588 398.827 253.06 411.355 251.975 414.57C249.706 416.111 250.882 415.864 248.439 415.718C243.272 411.583 245.913 390.85 246.154 384.469C246.154 384.469 247.835 382.176 248.033 381.904C254.981 383.09 260.157 396.481 264.107 402.824Z" fill="#FEFEFE"/>
<path d="M197.153 382.275C201.899 382.068 213.6 385.102 211.944 390.851C205.302 395.547 204.516 388.753 197.038 389.328C192.259 392.97 190.777 407.81 200.267 409.667C202.685 408.931 205.402 407.779 205.807 405.106C203.969 403.371 202.511 402.784 200.3 401.649C200.01 399.079 199.837 400.118 201.319 397.71L202.164 397.653C204.954 397.468 209.592 396.816 211.455 398.943C212.846 400.474 213.749 402.275 213.36 404.432C211.563 414.872 193.94 421.569 188.508 410.562C186.115 405.711 185.568 396.536 187.324 391.338C189.104 386.095 192.491 384.318 197.153 382.275Z" fill="#FEFEFE"/>
<path d="M76.8062 383.09C78.4873 382.917 83.9504 382.376 84.5897 384.238C86.3602 389.394 97.4803 412.944 92.5728 416.28C88.1457 414.948 87.417 412.861 86.0265 408.886C71.7008 408.837 78.7895 407.516 72.2142 415.864C69.5452 416.131 70.6002 416.286 67.9966 414.582C67.2794 411.062 75.2269 388.101 76.8062 383.09Z" fill="#FEFEFE"/>
<path d="M80.5261 391.978C82.7554 394.465 84.8796 400.278 82.9095 403.346C81.5671 403.089 80.3829 402.79 79.0612 402.467C77.5002 399.258 79.3436 395.648 80.5261 391.978Z" fill="#0D7ADF"/>
<path d="M224.316 383.118C225.542 383.011 231.14 382.668 231.637 383.651C234.361 388.995 244.365 412.455 240.141 416.656C235.951 415.451 234.61 412.576 233.483 408.786C219.091 408.637 226.469 407.217 220.515 415.202C217.534 416.021 218.743 416.136 216.035 414.962C214.461 410.748 222.544 388.617 224.316 383.118Z" fill="#FEFEFE"/>
<path d="M227.96 391.91C229.889 393.669 231.885 400.838 230.436 403.403C228.564 403.187 227.902 403.22 226.171 402.372C225.169 399.265 226.925 395.452 227.96 391.91Z" fill="#2197F7"/>
<path d="M296.413 396.141C299.791 391.654 304.768 383.598 310.938 383.815L311.277 385.66C310.176 389.733 306.151 393.88 303.36 397.247C306.052 400.773 309.356 406.238 311.841 410.084C313.24 412.096 313.422 413.211 312.13 415.176C304.396 417.185 303.435 407.174 298.847 402.706C295.924 405.551 298.003 412.918 293.233 416.163L291.394 415.605C288.355 412.152 289.705 388.867 289.912 382.558C292.52 382.638 292.926 382.507 295.179 383.643C297.473 386.952 296.57 391.81 296.413 396.141Z" fill="#FEFEFE"/>
<path d="M276.604 382.674C279.146 382.646 279.353 382.655 281.788 383.32C284.43 386.995 283.171 410.37 282.84 415.979C280.239 415.814 279.95 415.849 277.556 414.951C275.411 412.051 276.521 387.835 276.604 382.674Z" fill="#FEFEFE"/>
<path d="M132.857 18.6959C134.598 12.3686 137.339 6.9405 143.274 3.59801C152.057 -1.34825 223.43 -0.682573 234.204 2.51089C238.883 3.89939 243.007 8.19404 245.209 12.4663C247.876 17.6411 248.042 23.2911 248.315 28.9875C274.757 30.2668 313 21.9018 331.997 42.3219C342.026 53.1037 344.543 65.2731 343.11 79.4272C339.848 120.675 335.732 161.912 333.016 203.206C332.038 218.13 331.318 222.036 322.714 234.418C319.203 238.313 318.333 239.083 314.043 242.092C312.105 243.112 309.306 244.406 307.774 245.839C308.511 248.975 308.743 250.042 308.884 253.247C304.031 253.001 297.017 253.282 292.007 253.325L276.885 253.16C217.567 252.303 156.193 253.18 96.6248 253.097L80.6801 253.284L67.7125 253.278L67.8185 252.156C67.3978 241.337 61.437 242.925 54.3946 235.534C41.8137 222.33 42.8737 200.465 41.5032 183.237C39.8833 164.394 38.4035 145.539 37.0628 126.673C36.6553 121.026 36.1063 115.319 35.7899 109.66C34.5179 86.8532 25.9551 59.9998 44.2493 41.5271C59.1572 26.473 80.0491 28.8095 99.2905 28.9296C110.314 29.0174 121.338 29.0091 132.361 28.9072C132.283 25.222 132.547 22.3556 132.857 18.6959ZM147.085 29.0364C171.356 30.1103 208.938 29.6764 233.376 28.7963C232.398 13.6603 223.148 14.2539 210.867 14.3384C199.812 14.4145 188.814 14.8211 177.759 14.5412C162.506 14.8799 148.265 9.63636 147.085 29.0364Z" fill="#0764C7"/>
<path d="M132.857 18.6959C134.598 12.3686 137.339 6.9405 143.274 3.59801C152.057 -1.34825 223.43 -0.682573 234.204 2.51089C238.883 3.89939 243.007 8.19404 245.209 12.4663C247.876 17.6411 248.042 23.2911 248.315 28.9875C243.769 28.7483 238.03 28.8501 233.376 28.7963C232.398 13.6603 223.148 14.2539 210.867 14.3384C199.812 14.4145 188.814 14.8211 177.759 14.5412C162.506 14.8799 148.265 9.63636 147.085 29.0364C142.884 28.7648 136.715 28.9296 132.361 28.9072C132.283 25.222 132.547 22.3556 132.857 18.6959Z" fill="#0767C9"/>
<path d="M143.05 24.0414C144.266 21.6162 146.845 15.6036 149.241 14.5694C153.431 12.7603 174.919 13.2033 177.759 14.5413C162.506 14.8799 148.265 9.63642 147.085 29.0365C142.884 28.7649 136.715 28.9297 132.361 28.9073C132.283 25.222 132.547 22.3556 132.857 18.696C133.023 20.9315 132.913 21.9102 133.9 23.8625C137.082 25.3404 139.069 24.4462 143.05 24.0414Z" fill="#0254B1"/>
<path d="M291.552 245.302C294.309 245.448 305.77 246.245 307.774 245.839C308.511 248.975 308.743 250.042 308.884 253.247C304.031 253.001 297.017 253.282 292.007 253.325C292.023 250.231 291.866 248.314 291.552 245.302Z" fill="#0452AC"/>
<path d="M80.7936 245.422C85.1934 245.451 92.0188 244.741 95.5152 246.408C97.2625 248.867 96.6472 249.602 96.6249 253.097L80.6802 253.284L80.7936 245.422Z" fill="#034290"/>
<path d="M276.885 253.16C276.844 249.723 276.289 249.29 277.887 246.614C280.869 245.116 287.8 245.527 291.551 245.302C291.866 248.314 292.023 250.231 292.007 253.325L276.885 253.16Z" fill="#034290"/>
<path d="M67.8186 252.156C68.6177 249.519 68.611 249.312 70.2938 247.203C73.0457 245.293 77.3138 245.565 80.7936 245.423L80.6802 253.284L67.7125 253.278L67.8186 252.156Z" fill="#0254B1"/>
<path d="M314.043 242.092C313.372 239.674 313.091 238.494 312.784 236.012C314.283 232.943 313.364 233.715 316.072 232.404C319.385 232.593 319.782 232.818 322.714 234.418C319.202 238.313 318.333 239.083 314.043 242.092Z" fill="#0254B1"/>
<path d="M78.4549 49.7181C130.207 49.9905 181.957 50.0013 233.715 49.7512C254.923 49.7728 276.471 49.5194 297.679 49.8845C305.522 50.0187 312.851 52.6375 318.2 58.5351C321.215 61.8569 322.788 68.5775 322.78 73.0543C322.772 87.7134 320.71 103.667 319.434 118.322L312.42 202.306C311.327 215.175 309.455 221.635 299.634 229.927C285.854 236.142 268.273 234.242 253.176 234.216L194.768 234.161L127.86 234.358C113.503 234.392 86.082 236.884 73.7603 228.366C70.6018 226.183 65.344 217.443 64.8546 213.548C60.9036 182.111 59.0387 150.235 56.5021 118.626C55.8546 102.219 51.6858 83.8998 53.6816 67.6568C55.1846 55.4278 68.1721 50.4856 78.4549 49.7181Z" fill="#034290"/>
<path d="M84.5135 62.0953C97.0695 61.4512 112.941 61.7765 125.826 61.7409L206.751 61.8436L260.174 61.7823C292.744 61.7095 311.617 55.821 307.186 97.9214C304.023 127.884 302.226 158.902 299.245 188.954C298.127 200.216 298.541 212.488 289.233 220.109C274.136 227.351 215.778 223.836 196.723 223.917L134.618 224.225C121.383 224.317 82.6974 228.568 80.2818 211.433C74.2373 168.551 70.7277 123.977 68.7336 80.6541C68.2483 70.11 75.1805 64.5047 84.5135 62.0953Z" fill="#0452AC"/>
<path d="M37.4677 653.21C38.0325 655.735 37.8726 658.783 37.8975 661.427C38.0821 680.868 40.7131 700.59 41.3773 719.907C41.682 725.992 41.7648 734.355 44.1755 739.828C44.154 742.957 44.2244 746.17 43.9444 749.291C43.5246 753.961 41.2265 758.714 37.4768 761.611C33.3834 764.783 28.0055 765.453 23.0086 764.741C18.0995 764.029 13.1134 761.81 10.118 757.728C6.62998 752.976 7.17075 673.295 8.70941 663.917C9.28661 660.403 11.0265 656.875 14.0599 654.865C21.0833 650.21 29.6891 653.806 36.9924 655.509L37.4677 653.21Z" fill="#0F2D43"/>
</svg>
