<svg width="372" height="769" viewBox="0 0 372 769" fill="none" xmlns="http://www.w3.org/2000/svg">
<path d="M66.022 245.1C70.9907 245.624 75.297 245.374 80.2575 245.206C84.6548 245.264 91.6028 244.535 94.8904 246.374C96.5135 249.057 96.0084 249.605 96.116 253.006L273.534 252.989C273.451 249.439 272.913 248.525 274.751 246.15C278.718 244.395 286.179 245.11 291.131 245.103C295.073 245.174 301.814 245.498 305.491 245.016L305.731 253.046C316.041 253.893 359.99 252.572 364.636 254.138C367.153 255.852 368.785 256.993 371.136 259.013C371.228 269.405 371.815 285.922 370.987 295.95C366.631 300.356 364.76 300.487 358.392 300.516C357.431 300.519 356.47 300.504 355.51 300.469C355.195 304.691 354.913 321.234 354.168 323.807C353.986 328.098 353.804 338.088 353.075 341.88C349.903 394.608 347.013 447.352 344.405 500.11C343.469 517.556 341.92 535.158 340.835 552.719C338.724 587.022 337.622 622.553 334.757 656.778L343.344 652.048C353.265 652.295 362.963 652.613 364.155 665.306C365.34 677.884 364.511 690.585 364.735 703.22C364.387 719.531 365.24 737.746 364.528 753.784L364.503 754.281C361.24 759.53 359.013 762.403 352.735 763.512C330.517 767.47 328.968 755.539 328.728 738.707C314.749 773.523 282.403 767.959 251.447 767.934L191.11 767.909H122.757C90.8492 767.901 60.0761 774.442 43.9028 740.404C41.9981 734.666 41.642 729.152 41.5427 723.166C39.6959 701.134 38.3046 679.06 37.3523 656.966C34.1392 619.604 32.9964 579.479 30.7687 541.886L18.3303 333.609C17.3945 327.764 17.527 321.487 17.5022 315.554C16.6823 311.904 16.7486 304.295 16.6575 300.281C9.70121 300.385 4.95609 301.558 0.442812 295.553C-0.343907 287.892 0.16951 269.695 0.111542 261.094C0.774042 259.567 1.46136 257.801 2.67042 256.623C8.54183 250.909 54.2295 253.296 65.5666 253.02C65.6328 250.444 65.8646 247.689 66.022 245.1Z" fill="#DE261E"/>
<path d="M66.022 245.1C70.9907 245.624 75.297 245.374 80.2575 245.206C84.6548 245.264 91.6028 244.535 94.8904 246.374C96.5135 249.057 96.0084 249.605 96.116 253.006L273.534 252.989C273.451 249.439 272.913 248.525 274.751 246.15C278.718 244.395 286.179 245.11 291.131 245.103C295.073 245.174 301.814 245.498 305.491 245.016L305.731 253.046C316.041 253.893 359.99 252.572 364.636 254.138C367.153 255.852 368.785 256.993 371.136 259.013C371.228 269.405 371.815 285.922 370.987 295.95C366.631 300.356 364.76 300.487 358.392 300.516C357.431 300.519 356.47 300.504 355.51 300.469C355.195 304.691 354.913 321.234 354.168 323.807C353.986 328.098 353.804 338.088 353.075 341.88C352.644 337.8 352.76 325.023 351.667 323.136C346.409 322.761 340.032 322.926 334.55 322.715C325.672 322.372 315.039 320.787 306.385 321.582L301.475 321.617L293.243 321.773L78.8083 321.545L78.6095 316.255C77.533 310.073 78.5433 306.732 79.6115 300.697C76.4233 296.272 59.4633 299.539 52.7223 297.588C48.002 297.042 40.9464 297.514 34.7106 296.841C25.8414 296.994 8.34312 297.913 0.442812 295.553C-0.343907 287.892 0.16951 269.695 0.111542 261.094C0.774042 259.567 1.46136 257.801 2.67042 256.623C8.54183 250.909 54.2295 253.296 65.5666 253.02C65.6328 250.444 65.8646 247.689 66.022 245.1Z" fill="#E8291F"/>
<path d="M52.7224 297.588C74.0632 296.424 110.004 297.541 132.206 297.544L298.41 297.421L341.39 296.915C348.918 296.86 364.371 297.604 370.987 295.95C366.631 300.356 364.76 300.487 358.392 300.516C357.431 300.52 356.47 300.504 355.51 300.469C355.195 304.691 354.914 321.234 354.168 323.807C353.986 328.098 353.804 338.088 353.075 341.88C352.644 337.8 352.76 325.023 351.667 323.136C346.409 322.761 340.032 322.926 334.55 322.715C325.672 322.372 315.039 320.787 306.385 321.582L301.475 321.617L293.243 321.773L78.8083 321.545L78.6096 316.255C77.533 310.073 78.5433 306.732 79.6116 300.698C76.4233 296.272 59.4633 299.539 52.7224 297.588Z" fill="#9D1211"/>
<path d="M79.9263 306.389C109.631 304.664 153.671 306.145 184.229 306.172L253.94 306.152C265.882 306.145 280.54 305.757 292.307 306.338C292.63 311.163 293.193 317.019 293.243 321.773L78.8084 321.545L78.6096 316.255C79.0154 313.114 79.3963 309.461 79.9263 306.389Z" fill="#C01917"/>
<path d="M303.802 306.521C317.714 306.379 336.894 305.914 347.858 316.347C349.994 318.384 351.237 320.712 353.68 322.515L354.168 323.807C353.986 328.098 353.804 338.088 353.075 341.881C352.644 337.8 352.76 325.023 351.667 323.136C346.409 322.761 340.032 322.926 334.55 322.715C325.672 322.372 315.039 320.787 306.385 321.582L301.475 321.617C302.046 316.063 302.766 311.948 303.802 306.521Z" fill="#C01917"/>
<path d="M66.022 245.1C70.9907 245.624 75.297 245.374 80.2575 245.206C84.6548 245.264 91.6028 244.535 94.8904 246.374C96.5135 249.057 96.0084 249.605 96.116 253.006L273.534 252.989C273.451 249.439 272.913 248.525 274.751 246.15C278.718 244.395 286.179 245.11 291.131 245.103C295.073 245.174 301.814 245.498 305.491 245.016L305.731 253.046C316.041 253.893 359.99 252.572 364.636 254.138C365.778 257.297 367.882 258.636 370.457 260.742C359.095 260.814 347.667 261.645 336.074 261.794C291.057 262.197 246.04 262.327 201.031 262.183C170.979 263.755 139.824 261.978 109.697 262.808C89.0853 263.377 68.0343 261.481 47.4968 263.065C46.7764 274.206 47.0911 285.384 47.6376 296.529C43.7206 296.525 38.462 296.364 34.7106 296.841C25.8414 296.994 8.34312 297.913 0.442812 295.553C-0.343907 287.892 0.16951 269.695 0.111542 261.094C0.774042 259.567 1.46136 257.801 2.67042 256.623C8.54183 250.909 54.2295 253.296 65.5666 253.02C65.6328 250.444 65.8646 247.689 66.022 245.1Z" fill="#DE261E"/>
<path d="M273.534 252.989C273.451 249.439 272.912 248.525 274.751 246.15C278.718 244.395 286.179 245.11 291.131 245.103L291.106 253.093L273.534 252.989Z" fill="#9D1211"/>
<path d="M80.2576 245.207C84.6549 245.264 91.6028 244.535 94.8905 246.374C96.5136 249.057 96.0084 249.606 96.1161 253.006L80.6053 252.987L80.2576 245.207Z" fill="#9D1211"/>
<path d="M291.131 245.103C295.073 245.174 301.814 245.498 305.491 245.016L305.731 253.046L291.106 253.093L291.131 245.103Z" fill="#A31311"/>
<path d="M66.0221 245.1C70.9908 245.624 75.2971 245.374 80.2576 245.206L80.6053 252.987L65.5667 253.02C65.6329 250.444 65.8647 247.689 66.0221 245.1Z" fill="#C01917"/>
<path d="M306.385 321.582C315.039 320.787 325.672 322.372 334.55 322.715C340.032 322.926 346.409 322.761 351.667 323.136C352.76 325.023 352.644 337.8 353.075 341.88C349.903 394.608 347.013 447.352 344.405 500.109C343.469 517.556 341.92 535.158 340.835 552.719C338.724 587.022 337.622 622.553 334.757 656.778L343.345 652.048C353.265 652.295 362.963 652.613 364.155 665.306C365.34 677.884 364.511 690.585 364.735 703.22C364.387 719.531 365.24 737.746 364.528 753.784L364.503 754.281C361.24 759.53 359.013 762.403 352.735 763.512C330.517 767.47 328.968 755.539 328.728 738.707C314.749 773.522 282.403 767.958 251.448 767.934L191.11 767.909H122.757C90.8492 767.901 60.0761 774.441 43.9029 740.404C41.9982 734.666 41.6421 729.152 41.5427 723.166C53.2027 732.994 53.948 735.163 69.2103 737.224C71.6036 738.284 79.388 738.748 82.9241 739.328C80.506 739.543 78.0878 739.733 75.6614 739.882C120.687 744.13 165.306 741.753 210.488 742.316C215.068 742.374 221.279 742.689 225.668 742.333C253.129 740.089 300.199 753.287 303.959 712.899C306.369 685.766 307.098 659.586 308.365 632.938L314.783 514.508L320.993 394.849C322.037 375.658 325.192 351.378 323.552 332.009C323.196 327.812 318.567 324.955 315.254 322.66C312.29 322.448 309.333 321.988 306.385 321.582Z" fill="#C01917"/>
<path d="M343.344 652.048C353.265 652.295 362.963 652.613 364.155 665.306C365.339 677.884 364.511 690.585 364.735 703.22C364.387 719.531 365.24 737.746 364.528 753.784L364.503 754.281C361.24 759.53 359.013 762.403 352.735 763.512C330.517 767.47 328.968 755.539 328.728 738.707C332.314 724.648 333.962 673.451 334.757 656.778L343.344 652.048Z" fill="#162737"/>
<path d="M18.8023 325.508C20.5248 323.574 19.9534 323.775 23.3404 323.716C27.6881 323.641 35.7457 322.885 39.7042 323.92C41.7414 329.209 39.0499 337.322 36.7974 342.37C36.491 343.044 36.1681 343.707 35.8203 344.36L36.491 344.846C43.9028 333.333 37.5428 330.628 50.8756 322.548C50.6603 350.658 53.4925 387.352 54.9997 415.897L62.5522 562.365L68.1586 665.302C69.053 682.38 69.5333 700.206 71.1482 717.188C71.8107 724.193 75.3798 730.94 80.274 736.049C80.5556 736.33 80.8289 736.612 81.1187 736.885C77.4501 736.902 72.7629 736.811 69.2103 737.225C53.9479 735.163 53.2027 732.994 41.5427 723.166C39.696 701.134 38.3047 679.06 37.3523 656.966C34.1392 619.604 32.9964 579.479 30.7688 541.886L18.3303 333.609L18.8023 325.508Z" fill="#E8291F"/>
<path d="M0.442871 295.553C8.34318 297.913 25.8415 296.994 34.7107 296.841C40.9465 297.514 48.0021 297.042 52.7224 297.588C59.4633 299.539 76.4233 296.272 79.6116 300.698C78.5433 306.732 77.533 310.073 78.6096 316.255L78.8083 321.545L71.3966 321.701C55.2233 321.631 35.1993 321.703 19.0591 322.307C18.1482 324.211 18.3469 323.189 18.8023 325.508L18.3304 333.609C17.3946 327.765 17.5271 321.487 17.5022 315.554C16.6824 311.904 16.7486 304.295 16.6575 300.281C9.70127 300.385 4.95615 301.558 0.442871 295.553Z" fill="#A31311"/>
<path d="M17.5022 315.554L18.5042 315.752L18.4629 319.954C21.0714 320.621 36.5325 321.475 39.05 320.732C41.3025 317.791 38.2467 315.644 39.7788 310.921C43.7786 306.822 50.0475 306.594 55.4634 306.53C59.7365 306.49 64.0014 306.484 68.2745 306.512C69.1192 311.372 69.939 317.06 71.3965 321.701C55.2233 321.631 35.1992 321.703 19.0591 322.307C18.1481 324.211 18.3468 323.189 18.8023 325.508L18.3303 333.609C17.3945 327.765 17.527 321.487 17.5022 315.554Z" fill="#C01917"/>
<path d="M182.738 461.599C187.624 461.183 192.816 461.819 196.758 465.072C201.785 469.217 253.468 560.56 259.348 572.834C260.292 574.807 260.83 576.663 260.954 578.862C261.211 583.127 259.919 587.884 256.872 590.958C254.081 593.773 250.189 595.415 246.355 596.223C233.676 598.901 204.518 597.052 190.464 596.995C175.509 596.895 135.717 599.172 122.293 595.247C102.485 589.453 116.687 566.868 123.61 554.536L144.239 517.869C153.365 501.674 163.352 483.218 173.306 467.428C175.037 464.689 179.691 462.897 182.738 461.599Z" fill="#FEFEFE"/>
<path d="M183.698 473.005C188.145 473.35 191.359 474.085 192.924 478.299C198.447 493.234 247.663 567.423 249.062 579.428C248.69 580.983 248.416 582.374 247.265 583.558C242.918 588.017 198.058 585.935 189.429 585.897C179.972 585.877 130.053 588.096 125.473 583.661C124.322 582.542 123.535 580.221 123.668 578.617C124.024 574.582 174.051 486.349 180.436 476.5C181.355 475.086 182.365 474.038 183.698 473.005Z" fill="#DE261E"/>
<path d="M182.904 500.378C189.487 500.288 195.301 502.136 194.58 509.653C193.818 517.623 194.083 546.343 189.578 551.178C188.634 551.192 187.69 551.183 186.738 551.152C183.798 551.039 182.912 550.84 180.933 548.737C179.119 541.311 177.877 515.054 177.587 506.239C177.521 504.16 181.107 501.623 182.904 500.378Z" fill="#FEFEFE"/>
<path d="M184.138 558.808C188.709 557.781 193.272 560.553 194.464 565.081C195.657 569.609 193.056 574.27 188.576 575.627C185.529 576.551 182.216 575.735 179.947 573.501C177.67 571.267 176.809 567.972 177.678 564.909C178.556 561.847 181.032 559.507 184.138 558.808Z" fill="#FEFEFE"/>
<path d="M153.282 382.257C160.205 382.172 172.709 381.137 178.117 385.791C184.013 390.869 181.67 397.739 177.579 402.718C177.894 408.375 187.458 407.814 180.229 422.254C174.664 425.993 171.823 426.469 165.074 426.285C160.685 426.165 155.94 427.016 151.841 425.204C148.503 420.872 150.789 395.358 150.416 388.888C150.218 385.47 150.988 384.395 153.282 382.257Z" fill="#FEFEFE"/>
<path d="M162.018 407.257C167.335 407.117 172.908 406.64 174.092 413.01C173.388 415.842 172.999 415.982 170.813 418.118C167.542 418.306 163.26 418.232 159.898 418.275C159.724 414.793 159.211 411.106 160.271 407.888L162.018 407.257Z" fill="#E8291F"/>
<path d="M159.931 390.253C164.221 390.096 168.163 389.372 171.293 392.147C172.56 394.889 172.138 395.797 171.484 398.81C167.84 400.528 164.345 401.344 160.9 399.233C159.203 396.358 159.766 393.713 159.931 390.253Z" fill="#E8291F"/>
<path d="M204.22 381.399C220.335 382.834 221.958 389.473 214.729 402.399C214.878 403.835 214.497 403.931 215.474 404.785C237.676 424.132 189.131 436.562 189.819 416.723C190.829 414.387 191.731 414.182 194.05 412.955L194.837 412.541C198.34 416.097 202.108 419.96 207.557 418.777C209.379 417.561 210.812 416.03 211.267 413.818C212.667 406.868 203.93 409.808 200.187 404.436C199.176 396.958 205.603 402.894 209.685 396.103C210.199 393.001 210.422 394.132 209.288 391.401C203.425 387.746 196.667 394.565 190.614 392.204C189.14 385.19 199.383 382.428 204.22 381.399Z" fill="#FEFEFE"/>
<path d="M128.537 29.2071C127.982 17.7042 132.239 3.18414 144.909 1.47191C165.811 -1.35145 189.702 0.875772 210.828 0.22996C227.175 -0.270131 240.533 1.46859 244.317 19.6813L244.707 28.9786C269.65 29.3528 318.882 22.142 331.949 46.8543C335.568 51.5058 339.295 59.855 339.138 65.7692C337.871 114.071 332.256 162.637 328.728 210.857C327.883 222.389 323.403 232.501 314.079 239.381C311.694 241.186 307.131 243.658 305.491 245.016C301.814 245.498 295.073 245.174 291.131 245.103C286.179 245.11 278.718 244.395 274.751 246.15C272.913 248.525 273.451 249.439 273.534 252.989L96.116 253.006C96.0084 249.606 96.5136 249.057 94.8904 246.374C91.6028 244.535 84.6549 245.264 80.2575 245.207C75.2971 245.374 70.9908 245.624 66.022 245.1C60.3245 240.23 55.157 239.205 49.8819 231.972C41.1617 220.017 41.965 205.28 40.64 191.226C38.8429 173.066 37.3027 154.881 36.0273 136.676C34.6361 118.616 29.8992 78.2723 31.9778 62.3306C33.6755 54.1305 37.4103 46.6175 43.4473 40.7381C48.4575 35.8722 54.6519 32.3914 61.4177 30.6378C71.9514 27.8765 114.832 29.1143 128.537 29.2071ZM143.551 28.7666L144.321 29.299C166.913 28.0794 190.738 29.7196 213.437 29.1069C217.983 28.9844 223.672 28.9421 228.194 29.3445C229.792 27.5023 229.444 27.9999 229.51 25.4133C229.875 12.6643 216.07 14.0462 207.399 14.1431C188.154 14.3592 168.817 13.8458 149.629 14.6274C143.733 19.7112 143.294 21.2694 143.551 28.7666Z" fill="#C01917"/>
<path d="M128.537 29.2071C127.982 17.7042 132.239 3.18414 144.909 1.47191C165.811 -1.35145 189.702 0.875772 210.828 0.22996C227.175 -0.270131 240.533 1.46859 244.317 19.6813L244.707 28.9786C269.65 29.3528 318.882 22.142 331.949 46.8543C331.709 50.1231 331.577 50.9627 330.666 54.1065C325.97 57.5392 315.544 46.023 305.847 45.4791C288.672 44.5161 271.985 44.8813 254.818 44.9715L169.256 45.1363L107.296 45.1901C83.3463 45.1131 64.1256 42.4264 43.4307 56.9215C39.9443 59.3649 35.9693 64.9147 33.0792 65.7269C32.0771 64.5612 32.1848 63.888 31.9778 62.3306C33.6754 54.1305 37.4103 46.6175 43.4473 40.7381C48.4575 35.8722 54.6519 32.3914 61.4177 30.6378C71.9514 27.8765 114.832 29.1143 128.537 29.2071ZM143.551 28.7666L144.321 29.299C166.913 28.0794 190.738 29.7196 213.437 29.1069C217.983 28.9844 223.672 28.9421 228.194 29.3445C229.792 27.5023 229.444 27.9999 229.51 25.4133C229.875 12.6643 216.07 14.0462 207.399 14.1431C188.154 14.3592 168.817 13.8458 149.629 14.6274C143.733 19.7112 143.294 21.2694 143.551 28.7666Z" fill="#E8291F"/>
<path d="M128.537 29.2071C127.982 17.7042 132.239 3.18414 144.909 1.47191C165.811 -1.35145 189.703 0.875772 210.828 0.22996C227.175 -0.270131 240.533 1.46859 244.318 19.6813L244.707 28.9786C239.067 28.8221 233.784 28.4851 228.194 29.3445C229.792 27.5023 229.444 27.9999 229.511 25.4133C229.875 12.6643 216.07 14.0462 207.4 14.1431C188.154 14.3592 168.817 13.8458 149.63 14.6274C143.733 19.7112 143.294 21.2694 143.551 28.7666L144.321 29.299C139.634 29.4985 133.349 29.251 128.537 29.2071Z" fill="#DE261E"/>
<path d="M143.551 28.7665C141.373 28.6713 135.758 28.7773 134.334 27.8119L137.878 27.6976L138.301 26.8696L136.562 24.606C137.779 20.9041 149.646 11.4711 153.803 11.621C177.595 12.4796 202.472 9.76884 225.991 13.2074C229.03 13.6503 232.815 21.5822 234.14 24.1498C239.597 22.7927 241.667 25.6707 244.317 19.6812L244.707 28.9785C239.067 28.822 233.784 28.485 228.194 29.3444C229.792 27.5022 229.444 27.9998 229.51 25.4132C229.875 12.6642 216.07 14.0461 207.399 14.143C188.154 14.3591 168.817 13.8457 149.629 14.6273C143.733 19.7111 143.294 21.2693 143.551 28.7665Z" fill="#C01917"/>
<path d="M70.3944 50.1205C83.7769 49.3497 104.712 49.9301 118.467 49.9309L210.091 49.9649L267.389 49.8564C285.467 49.7794 319.486 44.7412 318.244 72.9748C316.265 117.88 311.826 163.089 308.331 207.933C307.611 217.219 302.833 224.699 295.504 230.122C282.485 235.917 256.474 234.324 241.526 234.339L176.27 234.343L124.322 234.407C99.6438 234.531 64.6224 240.709 61.9144 207.329C58.3535 163.428 53.4675 119.526 51.7202 75.4993C51.1488 61.1043 56.7883 53.9234 70.3944 50.1205Z" fill="#A31311"/>
<path d="M82.4272 61.7569C97.4991 61.1574 114.476 61.6219 129.754 61.6178L211.805 61.5383L258.238 61.516C269.285 61.4977 292.465 58.9724 300.116 68.2407C302.468 71.0847 304.058 78.3534 303.951 82.1256C303.354 102.529 300.704 123.015 299.321 143.394C297.773 163.367 296.945 183.857 294.568 203.65C293.64 211.357 290.518 216.677 284.117 220.959C273.741 226.269 250.098 224.314 237.734 224.305L174.962 224.375C149.936 224.358 124.736 224.658 99.8758 224.379C77.4087 224.127 75.7691 209.785 74.9575 191.646C74.6346 184.317 73.9389 176.024 73.3096 168.689C71.5457 149.811 69.9639 130.916 68.5561 112.008C67.7777 101.989 66.7839 92.014 66.6348 81.9642C66.4609 70.15 71.6699 64.8129 82.4272 61.7569Z" fill="#C01917"/>
<path d="M43.9029 740.404C44.3667 776.743 10.8856 763.587 9.70134 755.738C6.07415 731.611 8.22728 694.477 8.15275 669.046C8.10306 650.58 23.9037 648.382 37.3524 656.966C38.3048 679.06 39.6961 701.134 41.5428 723.166C41.6422 729.152 41.9983 734.666 43.9029 740.404Z" fill="#162737"/>
</svg>
