<svg width="373" height="769" viewBox="0 0 373 769" fill="none" xmlns="http://www.w3.org/2000/svg">
<path d="M66.3866 252.981L79.7724 252.945L96.6911 252.933C153.672 252.96 215.616 251.759 272.254 253.074L288.17 252.989L306.724 253.068C316.384 253.708 326.575 252.934 335.303 253.527C346.175 253.107 366.979 249.432 371.959 260.807C371.994 267.492 372.533 291.657 371.329 296.99C365.765 301.004 362.789 300.317 355.715 300.465C355.368 309.56 355.055 331.02 353.787 339.034L334.719 657.408C351.912 644.747 364.863 653.057 364.725 673.517C364.657 683.674 364.642 694.131 364.553 704.315C364.602 715.501 364.636 726.67 364.829 737.856C364.859 745.44 365.799 754.299 359.873 760.17C355.919 764.086 351.258 764.475 346.102 764.31C337.217 764.036 333.593 761.47 329.136 754.051C328.935 748.885 328.694 743.726 328.413 738.56C320.143 757.47 307.975 767.083 286.564 767.688C273.281 768.06 260.025 767.928 246.732 767.928L177.195 767.87H117.408C85.0211 767.853 61.2183 773.566 43.7706 740.828C42.1847 736.299 41.5951 724.526 41.398 719.583C39.0577 703.802 38.0292 673.545 37.3857 657.139C34.908 627.819 33.5565 594.57 31.9689 565.219L26.211 465.027C24.308 428.143 20.9623 391.814 19.8982 354.708C19.0013 348.65 18.338 338.412 18.251 332.363C17.2134 327.912 16.6842 305.937 16.5054 300.301C9.93336 300.408 4.33027 301.469 0.289015 295.457C-0.191298 284.543 0.796656 272.196 0 261.491C1.67447 256.748 2.95476 256.275 7.07634 253.497C26.6963 252.956 47.0607 253.932 66.3866 252.981Z" fill="#2D8929"/>
<path d="M66.3866 252.981L79.7724 252.945L96.6911 252.933C153.672 252.96 215.616 251.759 272.254 253.074L288.17 252.989L306.724 253.068C316.384 253.708 326.575 252.934 335.303 253.527C346.175 253.107 366.979 249.432 371.959 260.807C371.994 267.492 372.533 291.657 371.329 296.99C349.244 296.027 332.148 296.877 310.322 297.529C287.482 296.454 256.237 297.423 232.876 297.43L80.208 297.52C68.3584 297.558 42.4721 298.145 31.2791 296.822L30.5835 296.775L14.0367 297.019C8.66717 297.181 5.38695 296.964 0.289015 295.457C-0.191298 284.543 0.796656 272.196 0 261.491C1.67447 256.748 2.95476 256.275 7.07634 253.497C26.6963 252.956 47.0607 253.932 66.3866 252.981Z" fill="#2D8929"/>
<path d="M66.3866 252.981L79.7724 252.945L96.6911 252.933C153.672 252.96 215.616 251.759 272.254 253.074L288.17 252.989L306.724 253.068C316.384 253.708 326.575 252.934 335.303 253.527C346.175 253.107 366.979 249.432 371.959 260.807C367.074 262.25 337.04 262.719 331.129 261.871C327.199 261.412 312.216 261.841 307.536 261.865L255.119 262.078C189.551 262.102 121.237 263.228 55.9523 262.046C53.0911 262.274 50.7848 262.059 48.6615 263.786C46.5804 269.276 47.8043 289.308 47.6694 296.56C43.1362 296.576 35.563 296.376 31.2791 296.822L30.5835 296.775L14.0367 297.019C8.66717 297.181 5.38695 296.964 0.289015 295.457C-0.191298 284.543 0.796656 272.196 0 261.491C1.67447 256.748 2.95476 256.275 7.07634 253.497C26.6963 252.956 47.0607 253.932 66.3866 252.981Z" fill="#54B435"/>
<path d="M31.2145 262.989C38.7414 262.567 48.6308 261.757 55.9523 262.046C53.0911 262.274 50.7848 262.06 48.6615 263.787C46.5804 269.276 47.8044 289.308 47.6694 296.56C43.1362 296.576 35.563 296.376 31.2791 296.823L30.5835 296.775C31.3363 290.031 30.8361 271.378 31.2145 262.989Z" fill="#449B2A"/>
<path d="M0 261.491C5.14597 261.901 8.84521 261.992 14.0111 261.931C13.7461 273.625 13.7552 285.324 14.0367 297.019C8.66717 297.181 5.38695 296.964 0.289015 295.457C-0.191298 284.543 0.796656 272.196 0 261.491Z" fill="#449B2A"/>
<path d="M335.303 253.527C346.175 253.108 366.979 249.432 371.959 260.808C367.074 262.25 337.04 262.719 331.129 261.872C340.389 259.051 353.505 263.136 358.746 258.477C359.181 255.991 359.425 256.746 358.426 254.881C351.825 254.966 341.328 255.526 335.303 253.527Z" fill="#449B2A"/>
<path d="M42.2038 330.247C45.5709 325.867 47.4275 324.06 53.058 324.784C51.9797 339.077 53.2634 357.025 53.9317 371.621L57.2806 440.736C62.1086 532.966 66.3974 625.874 71.8606 718.109C72.2605 724.874 76.9105 731.514 81.1281 736.531C62.0473 737.003 53.6261 735.281 41.398 719.583C39.0577 703.802 38.0292 673.545 37.3857 657.14C34.908 627.82 33.5565 594.57 31.9689 565.219L26.211 465.027C24.308 428.143 20.9623 391.814 19.8982 354.708L20.4605 347.852C26.4553 344.208 38.95 358.777 42.2038 330.247Z" fill="#449B2A"/>
<path d="M310.322 297.529C332.148 296.877 349.244 296.028 371.329 296.99C365.765 301.004 362.789 300.317 355.715 300.465C355.368 309.56 355.055 331.02 353.787 339.035C353.206 335.06 353.155 327.994 353.037 323.725C347.283 321.989 301.114 321.346 293.627 321.706C293.496 319.23 293.48 317.015 293.487 314.534C293.121 311.552 292.89 310.401 292.047 307.517C288.933 305.214 250.789 306.415 243.29 306.376L132.613 305.995C121.849 306.007 95.3867 306.986 85.7854 305.563L82.1243 304.701C80.1004 302.337 80.6163 301.139 80.208 297.52L232.876 297.43C256.237 297.423 287.482 296.454 310.322 297.529Z" fill="#126021"/>
<path d="M85.7855 305.563C95.3868 306.987 121.849 306.007 132.613 305.995L243.29 306.376C250.789 306.415 288.933 305.214 292.047 307.517C292.89 310.401 293.121 311.552 293.488 314.534C293.48 317.015 293.496 319.23 293.627 321.706C222.868 321.527 150.507 320.853 79.8255 321.65C79.7137 317.872 78.9419 310.258 81.0097 307.304C82.2271 305.567 83.3724 305.933 85.7855 305.563Z" fill="#1C7325"/>
<path d="M332.284 703.421C335.993 705.102 339.357 713.191 344.509 713.969C352.331 715.137 359.162 708.894 364.553 704.315C364.602 715.501 364.636 726.67 364.829 737.856C364.859 745.44 365.799 754.3 359.873 760.17C355.919 764.086 351.258 764.475 346.102 764.31C337.217 764.036 333.593 761.47 329.136 754.051C328.935 748.885 328.694 743.726 328.413 738.56C331.036 728.798 331.585 713.903 332.284 703.421Z" fill="#162737"/>
<path d="M334.719 657.408C351.912 644.747 364.863 653.057 364.725 673.518C364.658 683.674 364.642 694.131 364.553 704.315C359.162 708.894 352.331 715.137 344.509 713.969C339.357 713.191 335.993 705.102 332.284 703.421C331.974 692.807 334.01 668.806 334.719 657.408Z" fill="#0F2F3C"/>
<path d="M0.289062 295.457C5.387 296.964 8.66721 297.181 14.0368 297.019L30.5835 296.775L31.2792 296.822C42.4721 298.145 68.3584 297.558 80.2081 297.52C80.6163 301.139 80.1004 302.337 82.1244 304.701L85.7855 305.563C83.3724 305.932 82.2271 305.566 81.0097 307.304C78.9419 310.258 79.7137 317.872 79.8255 321.65C76.0219 321.629 59.0056 320.96 56.662 322.151L50.9852 322.185C45.3589 321.266 41.0378 322.074 35.4488 322.177C29.6279 322.283 23.9478 321.869 18.155 321.416C18.3554 325.001 18.7397 328.829 18.2511 332.363C17.2135 327.912 16.6843 305.937 16.5054 300.301C9.93341 300.408 4.33031 301.469 0.289062 295.457Z" fill="#196A23"/>
<path d="M180.491 523.018C183.918 482.71 222.396 460.073 259.685 458.784C262.654 484.838 262.59 512.77 245.357 534.398C235.834 546.552 221.787 554.324 206.429 555.939C202.405 556.348 197.492 556.107 193.415 555.834C190.412 554.367 190.569 553.761 188.053 554.601C184.106 559.4 184.226 565.948 181.663 566.72L181.129 565.501C192.601 541.263 173.121 542.673 180.491 523.018Z" fill="#FEFEFE"/>
<path d="M187.682 551.772C197.669 526.868 207.147 513.045 228.061 495.974C212.368 519.12 204.485 530.044 193.415 555.834C190.412 554.367 190.569 553.761 188.053 554.601C184.106 559.4 184.226 565.948 181.663 566.72L181.129 565.501C192.601 541.263 173.121 542.673 180.491 523.018C180.661 536.209 182.109 540.093 187.682 551.772Z" fill="#449B2A"/>
<path d="M111.974 492.201C138.69 493.435 171.373 505.217 175.555 535.61C176.279 540.866 176.647 548.963 173.231 553.338C172.409 554.144 172.215 554.338 171.722 555.43L169.87 555.965L168.085 553.881L166.983 554.327L168.934 557.923C171.467 558.555 171.674 557.741 174.529 556.168L181.128 565.501L181.662 566.72C184.226 565.948 184.105 559.4 188.053 554.601C190.569 553.761 190.412 554.367 193.415 555.834C189.632 567.654 187.765 581.79 180.965 592.341C177.866 597.151 169.371 604.409 163.599 599.94C161.633 592.959 170.995 590.996 174.537 587.253C176.01 585.697 177.716 580.259 178.458 578.059C176.275 570.053 173.867 566.332 169.389 559.633C166.922 559.906 164.443 560.07 161.961 560.125C123.817 560.919 112.568 523.568 111.974 492.201Z" fill="#FEFEFE"/>
<path d="M141.413 520.26C155.62 529.75 163.949 539.236 173.231 553.337C172.409 554.144 172.215 554.338 171.722 555.43L169.87 555.965L168.085 553.881L166.983 554.327C158.961 541.878 150.951 531.535 141.413 520.26Z" fill="#449B2A"/>
<path d="M102.355 382.022C122.833 382.398 123.725 410.382 106.585 416.008C86.0439 415.692 84.6783 387.571 102.355 382.022Z" fill="#FEFEFE"/>
<path d="M101.729 388.488C114.504 389.01 113.285 403.09 106.552 409.528C95.0026 409.844 95.8564 395.157 101.729 388.488Z" fill="#2D8929"/>
<path d="M123.391 382.807C128.559 382.54 134.06 381.896 139.052 383.482C150.523 387.128 149.655 395.172 141.933 402.52C144.129 406.302 147.187 410.249 146.775 414.301C144.106 416.007 144.795 415.457 141.101 415.518C139.261 411.982 135.797 404.444 132.277 403.234C131.249 404.849 130.898 411.032 128.9 414.819C126.008 415.649 127.213 415.65 124.335 414.831C122.24 412.159 123.19 388.076 123.391 382.807Z" fill="#FEFEFE"/>
<path d="M130.117 388.641C133.669 388.639 136.544 388.317 139.069 390.721C140.144 393.365 139.716 393.987 139.003 396.94C136.361 397.461 133.53 398.253 131.244 397.12C129.447 394.697 130.016 391.865 130.117 388.641Z" fill="#449B2A"/>
<path d="M232.754 403.528C232.644 397.309 231.763 387.318 235.328 382.259L236.531 382.388C240.55 387.7 241.317 411.814 237.766 416.481C230.335 414.882 224.445 401.56 220.562 394.972C220.675 401.124 221.702 410.769 218.142 415.696L216.884 415.495C212.381 409.876 212.83 389.002 214.581 382.595C216.166 382.576 217.569 382.748 219.139 382.901C224.608 386.129 229.512 397.45 232.754 403.528Z" fill="#FEFEFE"/>
<path d="M162.607 382.037C168.554 381.984 176.908 383.277 177.342 390.699C174.946 396.08 169.28 386.985 161.739 390.093C157.625 393.71 157.795 400.975 159.981 405.609C162.88 411.754 171.19 410.678 170.99 404.379L166.505 402.363C165.199 400.03 165.57 400.881 165.96 397.704C171.458 397.47 174.334 396.576 178.243 399.888C182.969 413.299 160.853 424.764 153.105 407.449C148.186 396.459 151.104 386.706 162.607 382.037Z" fill="#FEFEFE"/>
<path d="M191.9 382.696C194.204 382.67 195.806 382.817 198.106 383.026C201.882 385.909 210.916 409.864 207.125 415.274C200.595 415.917 204.135 411.52 199.676 408.432C183.258 408.718 193.582 411.025 185.855 416.019C183.179 415.678 184.106 415.898 181.745 414.081C181.377 411.909 190.379 386.636 191.9 382.696Z" fill="#FEFEFE"/>
<path d="M195.216 391.638C197.07 393.414 198.139 399.162 198.678 401.748L197.611 403.217C194.431 402.748 194.964 403.287 192.764 401.548C192.016 398.384 193.94 394.903 195.216 391.638Z" fill="#2D8929"/>
<path d="M279.44 381.494L282.433 383.34L282.831 385.188C281.682 388.909 277.135 393.577 274.442 396.876C276.051 399.383 284.256 411.166 284.832 412.901C283.476 415.54 284.406 414.505 281.958 416.145C276.403 415.403 274.449 406.585 269.268 403.03C267.28 403.836 267.956 403.391 266.801 405.916C266.911 409.301 267.437 415.153 263.326 416.128C257.058 411.885 258.407 387.441 263.153 381.882L264.858 382.554C267.403 386.688 266.909 391.262 266.838 396.061C270.714 390.933 274.923 386.067 279.44 381.494Z" fill="#FEFEFE"/>
<path d="M246.093 382.292C250.059 382.583 249.526 381.929 252.085 384.096C254.88 390.88 253.621 407.928 252.848 415.557C249.85 415.689 249.585 415.8 246.838 414.797C244.95 411.842 246 387.475 246.093 382.292Z" fill="#FEFEFE"/>
<path d="M129.209 28.8028C129.121 15.6654 133.33 2.14478 148.179 1.05269C170.914 -0.619797 195.231 0.160975 218.075 0.324912C238.605 0.47229 245.138 9.73059 245.606 29.0164C264.088 29.0238 283.418 29.3136 301.833 28.8897C314.376 30.0795 322.854 34.0645 331.406 43.8154C334.654 47.5189 339.71 56.7267 340.038 61.5587C341.664 85.5175 337.853 111.906 336.103 135.85C334.268 160.939 332.735 185.105 330.228 210.066C328.94 222.889 325.345 230.398 315.384 238.882C312.714 241.156 308.16 243.415 306.378 244.916L306.724 253.069L288.17 252.989L272.254 253.074C215.616 251.76 153.672 252.96 96.691 252.933L79.7724 252.945L66.3866 252.981L66.5182 245.454C41.4526 229.048 43.6487 220 41.2944 192.207C39.7922 174.929 38.4084 157.643 37.1413 140.347C36.1393 127.619 30.489 75.9339 32.0417 66.7203C33.211 54.4399 37.1612 46.5047 46.7352 38.4643C46.8644 38.3169 46.9902 38.1654 47.1236 38.0222C60.1599 23.9641 109.669 29.6738 129.209 28.8028ZM143.778 28.8947C172.334 29.4055 201.779 29.0685 230.406 29.0503C230.403 28.3979 230.395 27.7463 230.382 27.0939C230.295 22.9938 230.043 19.7415 226.837 16.789C222.073 12.4008 160.856 14.2074 150.532 14.5883C149.675 15.2747 148.846 15.9958 148.047 16.7484C143.633 20.8551 144.047 22.8605 143.778 28.8947Z" fill="#1C7325"/>
<path d="M129.209 28.8028C129.121 15.6654 133.33 2.14478 148.179 1.05269C170.914 -0.619797 195.231 0.160975 218.075 0.324912C238.605 0.47229 245.138 9.73059 245.606 29.0164C264.088 29.0238 283.418 29.3136 301.833 28.8897C305.129 43.206 302.336 45.1567 288.297 45.0358C220.476 44.4505 152.594 45.338 84.7613 45.1079C66.2701 45.0433 67.2373 46.4128 51.3398 53.106C47.33 55.2836 32.5803 67.5217 32.5091 67.5333L32.042 66.7203C33.2113 54.4399 37.1615 46.5047 46.7354 38.4643C46.8646 38.3169 46.9905 38.1654 47.1238 38.0221C60.1602 23.9641 109.67 29.6738 129.209 28.8028ZM143.778 28.8947C172.334 29.4055 201.779 29.0685 230.406 29.0503C230.404 28.3979 230.395 27.7463 230.382 27.0938C230.295 22.9938 230.043 19.7415 226.838 16.789C222.074 12.4008 160.856 14.2074 150.533 14.5883C149.675 15.2747 148.847 15.9958 148.047 16.7484C143.633 20.8551 144.048 22.8605 143.778 28.8947Z" fill="#449B2A"/>
<path d="M129.209 28.8028C129.121 15.6654 133.33 2.14478 148.179 1.05269C170.914 -0.619797 195.231 0.160975 218.075 0.324912C238.605 0.47229 245.138 9.73059 245.606 29.0164L230.406 29.0503C230.403 28.3979 230.395 27.7463 230.382 27.0939C230.295 22.9938 230.043 19.7415 226.838 16.789C222.073 12.4008 160.856 14.2074 150.532 14.5883C149.675 15.2747 148.846 15.9958 148.047 16.7484C143.633 20.8551 144.047 22.8605 143.778 28.8947C139.426 28.5395 133.682 28.7589 129.209 28.8028Z" fill="#358F2B"/>
<path d="M288.374 245.211C292.148 245.201 303.239 245.375 306.378 244.916L306.724 253.069L288.17 252.989L288.374 245.211Z" fill="#126021"/>
<path d="M89.6222 245.218C93.063 245.388 93.8282 244.839 96.2505 246.651C96.8053 249.357 96.7681 250.156 96.6911 252.933L79.7725 252.945C79.4868 250.406 79.0387 248.767 79.9696 246.409C83.0129 244.641 85.6397 245.277 89.6222 245.218Z" fill="#126021"/>
<path d="M272.254 253.074C272.296 249.502 271.745 249.021 273.425 246.205C276.89 244.359 283.845 245.2 288.374 245.21L288.17 252.989L272.254 253.074Z" fill="#126021"/>
<path d="M66.5184 245.454C72.6631 245.165 84.2105 244.192 89.6223 245.218C85.6398 245.277 83.013 244.641 79.9696 246.408C79.0388 248.766 79.4868 250.406 79.7725 252.945L66.3867 252.981L66.5184 245.454Z" fill="#1C7325"/>
<path d="M295.883 230.963C278.557 235.81 254.957 234.413 236.627 234.452L165.248 234.471L118.864 234.439C96.4089 234.443 67.1504 239.001 62.8259 209.434C59.4728 186.506 59.5995 162.744 57.2054 139.703C55.3653 124.486 54.1148 109.125 53.088 93.8402C52.3236 82.4689 49.9552 70.4369 55.8986 60.0658C59.313 54.107 65.7003 50.2942 72.5564 50.1377C88.9143 49.7643 105.406 49.8893 121.766 49.8794L215.267 49.8272L274.081 49.7991C293.267 49.8347 306.777 45.6601 318.432 63.1417C321.946 64.021 320.861 63.2916 323.049 65.619C324.439 69.4036 324.225 73.5203 324.113 77.4904C323.67 93.2664 313.834 211.046 310.473 218.407C308.39 222.967 304.867 228.738 300.048 230.788C298.369 231.503 297.535 231.592 295.883 230.963Z" fill="#126021"/>
<path d="M318.432 63.1418C321.946 64.0211 320.86 63.2917 323.049 65.6191C324.439 69.4037 324.225 73.5204 324.113 77.4905C323.67 93.2665 313.834 211.046 310.472 218.407C308.39 222.967 304.867 228.738 300.048 230.788C298.369 231.503 297.535 231.592 295.883 230.963C307.089 223.625 309.123 216.804 310.531 204.069C311.669 186.13 314.325 165.806 314.754 148.026C315.248 127.497 323.425 81.0259 318.432 63.1418Z" fill="#2D8929"/>
<path d="M86.4199 61.9238C121.991 60.1329 163.441 62.2699 200.407 61.6779C230.882 62.4703 262.327 59.9524 292.539 63.0871C301.594 66.043 306.225 74.5354 305.355 83.908C302.913 110.186 302.85 138.182 299.175 164.217C296.463 183.432 301.832 212.932 282.563 222.493C271.896 224.943 257.275 224.119 246.149 224.146L178.909 224.132L123.236 224.361C112.922 224.318 89.9378 225.527 83.3111 219.059C74.5346 210.493 73.9889 168.889 72.8925 157.205C71.4027 141.629 70.0719 126.038 68.8993 110.434C67.3142 90.4845 59.8934 64.9633 86.4199 61.9238Z" fill="#1C7325"/>
<path d="M42.9517 754.399C33.2518 769.228 9.1095 765.941 8.19856 753.96C6.31954 729.254 7.54019 693.113 7.62466 668.047C7.6876 649.333 25.1942 648.737 37.3858 657.139C38.0293 673.545 39.0578 703.802 41.3981 719.583C41.5952 724.526 42.1848 736.3 43.7707 740.829C43.7086 745.805 43.4469 749.439 42.9517 754.399Z" fill="#0F2F3C"/>
</svg>
